<?xml version="1.0" encoding="iso-8859-1"?>
<!-- Uploaded to: SVG Repo, www.svgrepo.com, Generator: SVG Repo Mixer Tools -->
<!DOCTYPE svg PUBLIC "-//W3C//DTD SVG 1.1//EN" "http://www.w3.org/Graphics/SVG/1.1/DTD/svg11.dtd">
<svg fill="#000000" version="1.1" id="Capa_1" xmlns="http://www.w3.org/2000/svg" xmlns:xlink="http://www.w3.org/1999/xlink" 
	 width="800px" height="800px" viewBox="0 0 143.101 143.101"
	 xml:space="preserve">
<g>
	<path d="M88.198,67.965c0-9.181-7.467-16.648-16.648-16.648c-9.181,0-16.648,7.467-16.648,16.648
		c0,9.181,7.467,16.653,16.648,16.653C80.731,84.618,88.198,77.146,88.198,67.965z M63.002,67.965c0-4.715,3.834-8.548,8.548-8.548
		c4.715,0,8.549,3.833,8.549,8.548c0,4.714-3.834,8.554-8.549,8.554C66.836,76.519,63.002,72.679,63.002,67.965z M143.101,54.356
		c0-1.315-0.644-2.56-1.72-3.309c-1.075-0.762-2.446-0.941-3.702-0.509l-30.569,10.989L74.651,22.93
		c-1.54-1.835-4.662-1.835-6.202,0L35.991,61.528L5.421,50.539c-1.242-0.433-2.624-0.253-3.705,0.509
		C0.638,51.807,0,53.041,0,54.356v48.519c0,0.269,0.108,0.512,0.146,0.765C0.061,104.04,0,104.441,0,104.874
		c0,16.205,64.233,16.674,71.55,16.674c7.32,0,71.551-0.469,71.551-16.674c0-0.422-0.074-0.823-0.148-1.234
		c0.043-0.253,0.148-0.496,0.148-0.765V54.356z M130.038,106.936c-8.76,3.048-28.351,6.513-58.488,6.513
		c-30.132,0-49.723-3.465-58.482-6.513c-2.094-0.728-3.586-1.435-4.427-2.062c2.423-1.799,10.012-4.219,22.589-6.039
		c10.183-1.46,23.625-2.536,40.331-2.536c16.717,0,30.153,1.07,40.342,2.536c12.566,1.82,20.145,4.24,22.581,6.039
		C133.618,105.501,132.132,106.208,130.038,106.936z M8.1,60.118l27.799,10.001c1.592,0.562,3.375,0.092,4.472-1.216L71.54,31.834
		l31.166,37.069c1.086,1.303,2.879,1.771,4.472,1.216l27.802-10.001v36.16c-17.503-7.784-57.744-8.079-63.45-8.079
		c-5.709,0-45.956,0.295-63.45,8.079v-36.16H8.1z"/>
</g>
</svg>