<?xml version="1.0" standalone="no"?>
<!DOCTYPE svg PUBLIC "-//W3C//DTD SVG 20010904//EN"
 "http://www.w3.org/TR/2001/REC-SVG-20010904/DTD/svg10.dtd">
<svg version="1.0" xmlns="http://www.w3.org/2000/svg"
 width="300.000000pt" height="329.000000pt" viewBox="0 0 300.000000 329.000000"
 preserveAspectRatio="xMidYMid meet">
<metadata>
Created by potrace 1.10, written by Peter Selinger 2001-2011
</metadata>
<g transform="translate(0.000000,329.000000) scale(0.050000,-0.050000)"
fill="#000000" stroke="none">
<path d="M4159 6423 c-44 -36 -50 -57 -56 -219 -15 -386 74 -579 439 -956 327
-337 368 -411 368 -661 0 -172 -4 -189 -61 -270 l-61 -87 -1209 -10 -1209 -10
0 -70 0 -70 1206 -10 c1270 -11 1243 -8 1244 -95 0 -35 -73 -105 -110 -105
-25 0 -30 -36 -30 -200 l0 -200 120 0 120 0 0 -105 c-1 -177 -70 -291 -349
-574 -385 -391 -461 -538 -461 -888 0 -203 3 -219 47 -255 112 -90 203 -25
203 145 0 249 83 393 444 769 393 409 514 740 379 1038 -24 51 -31 95 -21 120
26 66 20 197 -12 257 -45 87 -40 93 90 93 l120 0 0 -88 c0 -201 58 -202 301
-8 219 175 219 163 -1 325 -250 183 -300 185 -300 10 l0 -79 -120 0 c-66 0
-120 4 -120 8 0 4 22 56 50 115 159 341 31 691 -421 1162 -291 301 -368 443
-387 713 -7 99 -21 189 -32 200 -44 43 -122 45 -171 5z"/>
<path d="M2627 6301 c-521 -140 -846 -573 -847 -1127 0 -151 23 -194 106 -194
107 1 122 22 136 205 36 472 426 792 934 769 l86 -4 82 156 c76 145 80 159 49
189 -51 52 -365 55 -546 6z"/>
<path d="M1166 5996 c-11 -14 -36 -91 -55 -170 l-35 -145 -73 32 c-305 131
-295 136 -334 -188 l-13 -105 -167 0 c-237 0 -237 -11 4 -347 l194 -271 151
-24 c180 -29 187 -35 448 -394 l176 -242 -73 -67 c-281 -257 -80 -614 347
-615 l186 0 51 -111 c115 -252 132 -617 41 -888 l-47 -141 806 0 806 0 -38 97
c-60 153 -83 371 -60 575 22 192 25 206 83 363 l39 105 438 0 439 0 0 200 0
200 -678 0 -677 0 -8 -207 c-8 -216 -29 -273 -98 -273 -80 0 -99 52 -99 271
l0 209 -265 0 c-366 0 -515 87 -489 285 l10 75 -263 0 -264 0 -234 315 -234
315 -1 116 c0 112 2 116 45 103 110 -33 153 -76 354 -359 l213 -300 99 -2
c136 -3 140 2 63 109 -36 51 -142 199 -233 329 l-167 237 43 188 43 188 -195
276 c-193 270 -238 312 -279 261z m1439 -3039 c81 -96 15 -237 -112 -237 -136
0 -193 144 -95 242 71 71 144 69 207 -5z m539 2 c96 -96 38 -239 -97 -239
-137 0 -197 152 -98 251 65 65 121 62 195 -12z"/>
<path d="M2680 5742 c-374 -121 -470 -306 -470 -902 l0 -430 446 -5 446 -6 -6
115 -6 114 -125 48 c-396 151 -264 573 175 559 l170 -5 6 -159 c6 -177 23
-211 104 -211 185 0 125 495 -85 705 -153 153 -468 238 -655 177z"/>
<path d="M1783 1975 c-123 -183 -182 -299 -214 -420 l-25 -95 1228 0 c1213 0
1228 1 1228 40 0 80 -104 295 -222 455 l-121 165 -888 0 -888 0 -98 -145z"/>
<path d="M1372 1231 c-165 -60 -299 -256 -324 -476 l-13 -115 -219 0 c-278 0
-330 -28 -284 -148 16 -42 4402 -50 4444 -8 89 89 -6 153 -237 160 l-189 6
-14 113 c-26 209 -144 386 -306 460 -107 48 -2722 56 -2858 8z"/>
</g>
</svg>
