<?xml version="1.0" standalone="no"?>
<!DOCTYPE svg PUBLIC "-//W3C//DTD SVG 20010904//EN"
 "http://www.w3.org/TR/2001/REC-SVG-20010904/DTD/svg10.dtd">
<svg version="1.0" xmlns="http://www.w3.org/2000/svg"
 width="300.000000pt" height="300.000000pt" viewBox="0 0 300.000000 300.000000"
 preserveAspectRatio="xMidYMid meet">
<metadata>
Created by potrace 1.10, written by Peter Selinger 2001-2011
</metadata>
<g transform="translate(0.000000,300.000000) scale(0.100000,-0.100000)"
fill="#000000" stroke="none">
<path d="M1853 2495 c-43 -50 -43 -50 -43 -132 0 -83 -9 -105 -35 -83 -10 8
-15 32 -15 69 l0 56 -35 -40 c-19 -22 -34 -44 -35 -50 0 -5 16 -25 35 -45 35
-36 35 -37 16 -54 -18 -16 -20 -15 -56 26 -20 24 -43 57 -50 73 -7 17 -44 63
-82 102 l-68 73 -73 -88 -74 -87 51 -3 51 -3 0 -50 0 -49 45 0 45 0 0 50 c0
69 20 66 102 -17 l67 -68 -32 -38 -32 -37 -50 26 c-41 21 -60 25 -110 22 -141
-9 -238 -109 -239 -248 -1 -85 38 -159 108 -207 l48 -33 -64 0 c-109 0 -148
-23 -148 -88 0 -60 9 -62 307 -62 249 0 271 1 286 18 25 28 21 74 -9 103 -22
20 -38 24 -105 28 l-79 3 42 31 c50 36 61 48 90 102 29 54 30 144 1 207 l-21
46 33 32 34 33 56 -59 c77 -81 108 -149 113 -245 8 -153 -38 -272 -146 -378
-37 -36 -81 -74 -99 -84 l-32 -18 -7 61 -7 60 -151 0 -152 0 -11 -107 c-21
-193 -89 -378 -179 -489 -25 -31 -44 -56 -42 -57 2 -1 173 0 380 3 l378 5 -36
45 c-48 60 -96 157 -127 255 -45 146 -46 138 17 175 171 97 281 272 293 465 6
94 -7 169 -45 245 -23 47 -31 55 -58 58 -21 2 -45 17 -75 48 -41 41 -42 45
-26 61 16 16 19 15 57 -22 l40 -39 40 39 c22 21 40 42 40 45 0 3 -28 6 -62 8
-35 2 -65 5 -67 7 -2 3 2 11 9 20 9 11 33 15 94 15 l82 0 44 45 44 45 -84 0
-84 0 39 40 39 40 -27 27 -27 27 -39 -38 -40 -39 -3 83 -3 84 -42 -49z"/>
<path d="M1019 717 c-36 -24 -64 -86 -54 -118 6 -18 28 -19 521 -19 l514 0 0
35 c0 50 -23 89 -64 109 -30 14 -86 16 -459 16 l-424 0 -34 -23z"/>
</g>
</svg>
