<?xml version="1.0" standalone="no"?>
<!DOCTYPE svg PUBLIC "-//W3C//DTD SVG 20010904//EN"
 "http://www.w3.org/TR/2001/REC-SVG-20010904/DTD/svg10.dtd">
<svg version="1.0" xmlns="http://www.w3.org/2000/svg"
 width="300.000000pt" height="329.000000pt" viewBox="0 0 300.000000 329.000000"
 preserveAspectRatio="xMidYMid meet">
<metadata>
Created by potrace 1.10, written by Peter Selinger 2001-2011
</metadata>
<g transform="translate(0.000000,329.000000) scale(0.100000,-0.100000)"
fill="#000000" stroke="none">
<path d="M2079 3212 c-22 -18 -24 -29 -27 -110 -8 -194 35 -286 222 -481 164
-171 181 -202 181 -328 0 -86 -2 -94 -30 -135 l-31 -43 -604 -5 -605 -5 0 -35
0 -35 603 -5 c521 -4 604 -7 612 -20 17 -26 6 -54 -27 -70 l-33 -15 0 -82 c0
-45 -3 -88 -6 -97 -5 -14 4 -16 60 -16 l66 0 0 -52 c0 -89 -35 -146 -175 -288
-191 -194 -230 -270 -230 -446 0 -114 14 -144 65 -144 42 0 60 28 60 92 0 124
41 196 222 384 132 137 167 187 192 273 23 77 21 195 -4 249 -14 32 -17 49
-10 62 16 30 11 93 -10 133 l-20 37 65 0 65 0 0 -55 c0 -57 17 -80 51 -66 29
11 189 144 189 157 0 11 -166 139 -195 150 -22 9 -45 -26 -45 -67 l0 -39 -64
0 -65 0 27 47 c20 37 27 64 30 131 9 165 -35 256 -218 447 -166 174 -210 253
-210 383 0 39 -5 75 -12 85 -21 27 -61 31 -89 9z m56 -44 c2 -7 6 -46 8 -85 9
-117 51 -193 197 -349 67 -71 137 -152 156 -179 76 -112 95 -251 52 -372 l-22
-62 24 -26 25 -27 -24 -19 c-19 -16 -22 -24 -16 -52 4 -17 8 -68 9 -112 1 -44
7 -97 15 -119 21 -61 10 -188 -22 -256 -38 -80 -42 -85 -154 -200 -179 -185
-229 -264 -240 -383 -6 -73 -18 -91 -40 -62 -12 16 -14 39 -10 110 9 144 51
221 203 370 115 111 170 184 189 249 32 106 12 163 -61 175 l-39 6 -3 55 c-2
49 0 58 28 88 42 46 41 91 -2 128 -19 16 -28 29 -21 31 29 10 63 47 87 95 46
92 30 235 -37 325 -12 17 -74 85 -138 150 -145 150 -188 225 -198 345 -11 126
-5 188 19 188 6 0 12 -6 15 -12z m665 -1050 c33 -23 60 -44 60 -47 -1 -20
-118 -113 -131 -105 -5 3 -9 16 -9 28 0 13 -12 36 -26 51 -23 25 -24 29 -9 38
9 5 23 24 31 43 8 19 17 34 20 34 3 0 32 -19 64 -42z"/>
<path d="M1313 3151 c-262 -71 -422 -286 -423 -569 0 -74 12 -92 60 -92 49 0
56 12 62 110 8 129 92 261 207 323 66 37 179 60 247 51 l52 -6 41 78 c22 44
41 84 41 90 0 19 -30 26 -125 30 -68 3 -108 -1 -162 -15z m211 -27 c21 -8 20
-26 -4 -68 -25 -41 -26 -42 -117 -45 -152 -4 -281 -80 -367 -214 -32 -50 -58
-129 -71 -219 -7 -48 -22 -49 -31 -2 -11 61 12 186 48 261 41 84 141 189 218
228 100 51 266 81 324 59z"/>
<path d="M583 2998 c-6 -7 -18 -44 -26 -81 -8 -38 -18 -71 -20 -74 -3 -2 -19
3 -35 11 -60 31 -129 54 -140 47 -6 -3 -16 -49 -22 -101 -7 -52 -13 -95 -13
-96 -1 0 -33 2 -72 6 -73 7 -105 -1 -105 -25 0 -8 43 -75 97 -149 l96 -135 71
-11 c39 -6 78 -14 86 -16 8 -3 64 -72 123 -154 l108 -149 -36 -33 c-46 -42
-69 -117 -53 -175 27 -98 86 -132 228 -133 l96 0 26 -67 c61 -159 59 -339 -6
-493 -5 -13 43 -15 399 -15 223 0 405 1 405 2 0 1 -9 24 -19 50 -48 122 -47
302 2 448 l24 70 221 3 222 2 0 103 0 102 -342 -2 -342 -3 3 -95 c3 -104 -11
-145 -49 -145 -41 0 -50 25 -50 138 l0 107 -132 -3 c-112 -2 -139 0 -168 15
-51 26 -83 79 -77 126 l5 37 -132 0 -132 0 -117 158 -117 157 0 58 c0 56 1 58
23 52 54 -17 75 -38 177 -180 l107 -150 56 -3 c32 -2 57 0 57 4 0 3 -47 72
-104 153 -57 80 -109 155 -116 167 -10 17 -9 36 9 112 l21 91 -98 138 c-54 76
-105 139 -113 141 -9 2 -21 -3 -26 -10z m116 -164 c80 -115 81 -119 51 -242
-13 -56 -3 -80 95 -216 42 -59 74 -110 71 -114 -4 -3 -10 -2 -14 4 -4 5 -32
45 -62 88 -30 43 -65 93 -76 110 -34 50 -90 94 -129 102 -30 5 -41 2 -61 -17
-19 -18 -24 -32 -24 -73 0 -28 7 -62 15 -76 8 -14 17 -32 21 -40 4 -8 13 -19
19 -25 7 -5 49 -60 93 -120 89 -121 117 -143 177 -143 22 0 66 -1 97 -1 l57
-1 21 -47 c44 -101 102 -129 265 -133 50 -1 93 -4 97 -8 3 -4 8 -44 10 -88 2
-65 7 -87 23 -104 31 -34 61 -42 95 -25 41 21 51 45 56 138 3 45 7 83 9 85 2
2 133 3 292 3 211 -2 290 -5 296 -14 8 -12 1 -82 -9 -99 -3 -4 -88 -8 -189 -8
-179 0 -184 -1 -212 -24 -35 -29 -70 -131 -82 -236 -9 -85 -7 -148 10 -238 6
-35 9 -65 6 -68 -8 -8 -657 -7 -665 0 -3 4 0 28 6 54 18 69 16 265 -3 337 -23
87 -53 143 -86 160 -17 9 -57 15 -104 15 -130 0 -185 40 -185 135 0 46 5 58
40 103 22 27 40 57 40 66 0 21 -36 77 -124 196 -91 121 -109 137 -176 150 -90
19 -105 30 -176 130 -36 52 -68 100 -71 107 -4 10 10 13 54 13 73 0 100 23
108 91 13 101 14 102 90 68 63 -28 91 -20 115 34 11 23 20 50 20 60 0 37 28
12 99 -89z"/>
<path d="M1483 1535 c-36 -15 -73 -68 -73 -103 0 -57 55 -111 114 -112 53 0
106 52 106 105 0 45 -12 68 -47 93 -41 29 -64 33 -100 17z m88 -54 c33 -33 36
-56 13 -89 -24 -35 -59 -45 -93 -27 -50 25 -57 91 -15 124 36 28 60 26 95 -8z"/>
<path d="M1174 1506 c-28 -28 -34 -42 -34 -76 0 -36 6 -48 36 -76 40 -39 79
-44 124 -17 98 58 61 203 -52 203 -32 0 -47 -7 -74 -34z m121 -21 c40 -39 32
-96 -17 -121 -24 -12 -33 -13 -55 -2 -42 20 -59 58 -44 95 22 54 78 67 116 28z"/>
<path d="M1309 2857 c-97 -41 -153 -99 -189 -193 -18 -49 -20 -78 -20 -259 l0
-204 228 3 227 2 -4 50 c-1 27 -5 52 -7 56 -3 4 -24 13 -47 20 -92 26 -132 78
-125 160 9 91 68 128 203 128 l85 0 0 -83 c0 -93 7 -107 57 -107 41 0 46 18
41 132 -4 97 -29 159 -91 221 -90 90 -244 122 -358 74z m247 -45 c60 -30 101
-68 130 -118 21 -36 26 -58 27 -114 0 -39 -3 -73 -7 -77 -3 -3 -6 19 -6 49 0
50 -3 59 -30 81 -28 24 -35 25 -121 21 -108 -6 -124 -11 -167 -55 -89 -91 -56
-229 71 -292 95 -47 79 -58 -95 -64 -71 -3 -149 -2 -173 1 l-43 7 -2 170 c0
93 4 187 10 208 23 87 108 176 190 200 56 16 169 7 216 -17z"/>
<path d="M892 988 c-27 -40 -59 -93 -71 -117 -23 -44 -53 -132 -47 -138 2 -2
279 -3 617 -3 l614 0 -4 22 c-8 53 -56 148 -112 226 l-60 82 -444 0 -444 0
-49 -72z m800 32 l118 0 45 -62 c57 -79 101 -166 89 -178 -8 -8 -350 -12 -901
-11 -241 1 -231 -3 -190 81 42 87 98 160 129 168 15 4 155 6 311 5 155 -2 335
-3 399 -3z"/>
<path d="M686 615 c-84 -30 -152 -130 -160 -237 l-4 -53 -121 -5 c-69 -3 -125
-10 -131 -16 -7 -6 -10 -24 -8 -40 l3 -29 1104 -3 c807 -1 1107 1 1117 9 19
16 17 43 -4 62 -15 13 -39 17 -115 17 l-97 0 0 38 c0 101 -66 209 -153 251
-43 21 -54 21 -718 21 -548 -1 -681 -3 -713 -15z m1445 -60 c49 -35 86 -101
95 -170 4 -29 17 -64 31 -82 l24 -33 -23 -1 c-29 -1 -1728 -1 -1748 0 -10 1
-8 6 8 17 29 20 41 45 48 96 6 50 46 137 73 162 50 45 59 45 773 43 l676 -2
43 -30z"/>
</g>
</svg>
