<?xml version="1.0" standalone="no"?>
<!DOCTYPE svg PUBLIC "-//W3C//DTD SVG 20010904//EN"
 "http://www.w3.org/TR/2001/REC-SVG-20010904/DTD/svg10.dtd">
<svg version="1.0" xmlns="http://www.w3.org/2000/svg"
 width="300.000000pt" height="300.000000pt" viewBox="0 0 300.000000 300.000000"
 preserveAspectRatio="xMidYMid meet">
<metadata>
Created by potrace 1.10, written by Peter Selinger 2001-2011
</metadata>
<g transform="translate(0.000000,300.000000) scale(0.100000,-0.100000)"
fill="#000000" stroke="none">
<path d="M2192 2788 c-7 -7 -12 -40 -12 -74 l0 -63 -181 -218 c-100 -120 -185
-222 -190 -228 -6 -6 -15 -3 -25 7 -15 15 -13 20 24 67 34 43 82 142 82 170 0
14 -154 158 -189 175 -54 28 -110 46 -210 67 -51 10 -97 19 -102 19 -12 0 15
-52 35 -69 23 -19 20 -49 -10 -110 -18 -34 -43 -65 -76 -89 -39 -30 -48 -41
-43 -59 4 -19 -3 -26 -47 -49 -29 -14 -68 -37 -85 -51 -18 -13 -33 -22 -33
-20 0 3 7 24 15 47 17 49 14 57 -31 76 -55 23 -91 18 -106 -13 -9 -18 -22 -29
-39 -31 -23 -3 -29 3 -49 52 -16 41 -20 66 -16 92 5 23 2 50 -10 80 -19 49
-22 51 -39 27 -11 -15 -14 -12 -24 20 -14 40 -37 52 -27 14 3 -13 0 -32 -8
-42 -12 -17 -14 -16 -26 19 -8 25 -16 34 -22 28 -6 -6 -4 -21 6 -41 14 -26 14
-31 2 -31 -9 0 -13 -8 -10 -22 3 -13 -5 -4 -18 20 -12 23 -26 42 -30 42 -13 0
-9 -19 9 -48 17 -26 17 -26 0 -13 -19 15 -24 2 -5 -17 9 -9 8 -12 -5 -12 -9 0
-17 5 -17 10 0 6 -4 10 -9 10 -5 0 -7 -10 -4 -22 3 -17 2 -19 -5 -9 -5 7 -14
11 -20 7 -5 -3 -13 1 -16 10 -3 8 -10 13 -16 9 -5 -3 -1 -19 10 -38 16 -26 17
-33 5 -37 -21 -7 32 -84 70 -101 17 -8 40 -32 54 -58 l24 -43 -27 -22 c-23
-19 -25 -25 -17 -56 14 -54 20 -119 11 -125 -4 -2 -5 -16 -3 -30 3 -13 9 -22
14 -19 13 8 15 16 -52 -251 -70 -280 -71 -269 22 -300 66 -22 131 -17 143 12
6 12 24 25 40 30 28 8 32 16 56 97 l25 88 89 79 c48 43 92 77 96 74 20 -12 31
-100 21 -167 -1 -5 -10 -8 -20 -8 -12 0 -34 -22 -60 -60 -42 -61 -49 -84 -31
-95 18 -11 11 -35 -13 -44 -13 -5 -39 -30 -58 -56 -47 -65 -83 -99 -138 -129
-133 -72 -351 -75 -467 -7 -19 12 -41 21 -49 21 -20 0 -75 -68 -104 -130 -23
-50 -26 -67 -26 -175 0 -114 2 -123 32 -187 17 -37 50 -87 73 -112 l42 -46 30
26 c30 24 31 24 51 7 11 -10 32 -35 47 -55 l27 -37 55 40 c68 48 174 101 194
97 18 -4 -129 -165 -170 -187 -14 -8 -26 -18 -26 -23 0 -4 -17 -25 -38 -46
-22 -22 -42 -53 -45 -71 -7 -33 9 -71 29 -71 12 0 24 -22 24 -45 0 -7 -14 -15
-31 -19 -18 -3 -29 -11 -27 -18 4 -10 203 -14 959 -16 525 -1 959 0 966 2 6 3
9 14 6 27 -4 15 -28 32 -77 55 -39 18 -83 41 -99 52 -47 32 -83 92 -96 162 -7
36 -20 98 -28 138 -15 70 -15 73 6 90 l21 17 -30 93 c-17 50 -30 106 -30 123
0 22 -5 32 -20 36 -11 3 -20 14 -20 24 0 11 -6 28 -12 39 -17 26 -9 32 85 69
42 17 96 43 120 58 68 43 166 143 219 223 27 41 56 79 64 83 13 8 13 12 0 32
-24 37 -17 115 9 115 17 0 52 48 60 82 4 15 14 29 22 32 11 4 13 14 9 32 -6
22 -4 25 14 20 11 -3 29 -9 40 -12 11 -3 20 -14 20 -25 0 -18 5 -19 68 -13
115 12 117 16 32 60 -41 21 -78 40 -82 42 -5 2 -8 -6 -8 -18 0 -21 -3 -22 -50
-16 -79 10 -80 12 -80 72 0 47 3 56 29 75 28 21 29 23 16 53 -7 17 -20 64 -29
105 -39 176 -109 299 -266 466 -82 87 -101 113 -106 146 -7 44 -15 54 -32 37z
m-580 -158 c66 -25 126 -62 171 -106 l38 -37 -82 -38 c-45 -22 -85 -36 -90
-33 -5 3 -8 0 -7 -8 2 -7 -5 -12 -14 -12 -10 1 -16 -2 -13 -6 3 -4 -22 -25
-55 -46 -35 -23 -63 -48 -66 -61 -4 -13 -10 -23 -14 -23 -5 0 -12 10 -15 23
-4 12 -19 38 -35 57 l-27 35 65 55 c77 65 87 83 43 74 -41 -8 -40 6 4 67 l34
48 -27 20 -27 21 35 -7 c19 -3 56 -14 82 -23z m814 -176 c78 -121 127 -303 90
-333 -14 -12 -16 -9 -16 25 0 99 -64 266 -143 369 -25 33 -57 76 -72 95 -15
19 3 4 40 -33 36 -38 82 -93 101 -123z m-137 97 c63 -63 88 -97 120 -163 69
-143 90 -299 47 -347 -17 -19 -17 -20 3 -40 35 -35 43 -128 11 -124 -8 1 -139
29 -290 63 -151 34 -300 66 -330 71 -77 14 -133 29 -127 35 2 3 25 0 50 -7 39
-9 49 -9 69 5 12 9 29 16 38 16 8 -1 3 -7 -12 -16 -36 -19 -36 -28 -1 -21 15
3 40 -1 56 -10 16 -8 36 -12 45 -10 13 3 9 8 -15 23 -18 10 -33 25 -33 31 0 7
-11 20 -25 29 -14 9 -25 21 -25 27 0 6 -13 22 -30 36 l-30 26 190 228 c105
125 195 227 200 227 5 0 45 -36 89 -79z m-1472 32 c-4 -3 -7 0 -7 7 0 7 3 10
7 7 3 -4 3 -10 0 -14z m54 -20 c-12 -20 -14 -14 -5 12 4 9 9 14 11 11 3 -2 0
-13 -6 -23z m-26 -56 c13 -31 23 -57 20 -57 -6 0 -41 69 -50 100 -12 39 2 19
30 -43z m51 6 c-3 -4 -6 -1 -6 6 0 7 -4 9 -10 6 -11 -7 -14 8 -3 19 4 3 11 -1
16 -9 5 -9 6 -19 3 -22z m949 -53 c3 -5 -1 -10 -9 -10 -30 0 -217 -104 -262
-145 -43 -41 -46 -46 -43 -88 5 -54 -6 -52 -21 3 -9 32 -8 46 5 70 8 16 22 30
30 30 8 0 15 4 15 8 0 5 12 15 28 23 15 8 30 17 33 21 10 14 182 98 200 98 10
0 21 -4 24 -10z m-971 -82 c13 -32 23 -58 21 -58 -6 0 -41 70 -50 100 -12 39
1 20 29 -42z m-5 -63 c0 -5 -13 15 -29 45 -16 30 -29 60 -29 65 0 6 13 -15 29
-45 16 -30 29 -59 29 -65z m38 65 c27 -62 15 -66 -15 -5 -24 50 -26 55 -14 55
4 0 18 -22 29 -50z m-58 -85 c0 -5 -13 15 -29 45 -16 30 -29 60 -29 65 0 6 13
-15 29 -45 16 -30 29 -59 29 -65z m-45 36 c33 -65 20 -74 -16 -11 -31 54 -33
60 -18 60 5 0 21 -22 34 -49z m312 11 c-13 -3 -76 24 -76 32 0 2 21 -4 46 -13
25 -9 38 -17 30 -19z m-340 -33 c14 -28 20 -48 15 -44 -11 6 -51 78 -51 90 0
15 12 0 36 -46z m994 26 c0 -16 -6 -25 -15 -25 -8 0 -15 -3 -15 -7 0 -5 -9
-23 -20 -41 l-20 -33 -30 18 c-17 9 -30 21 -30 25 0 8 110 88 122 88 4 0 8
-11 8 -25z m-404 -37 c26 -18 66 -58 88 -88 l40 -55 -70 65 c-39 36 -84 72
-102 79 -18 7 -32 17 -32 22 0 17 28 9 76 -23z m-346 17 c0 -3 -15 -12 -32
-20 -23 -10 -26 -14 -10 -11 43 8 17 -18 -49 -50 -78 -38 -114 -50 -105 -36 4
7 -7 9 -31 6 -33 -3 -35 -2 -18 8 26 16 228 107 238 108 4 0 7 -2 7 -5z m84
-4 c4 -5 -3 -7 -14 -4 -23 6 -26 13 -6 13 8 0 17 -4 20 -9z m199 -22 c50 -27
147 -126 147 -151 0 -5 -36 20 -80 56 -54 45 -91 67 -117 71 -57 10 -60 12
-33 23 33 14 57 14 83 1z m-213 -9 c8 -5 11 -10 5 -10 -5 0 -17 5 -25 10 -8 5
-10 10 -5 10 6 0 17 -5 25 -10z m134 -52 c20 -9 23 -14 15 -25 -10 -11 -8 -12
7 -7 19 7 19 7 1 -14 -11 -12 -16 -26 -11 -33 4 -7 -8 -2 -26 11 -19 14 -55
27 -80 30 l-45 5 35 22 c39 25 67 28 104 11z m-234 -11 c0 -7 -26 -28 -57 -47
-111 -67 -123 -71 -123 -42 0 21 50 56 116 82 59 23 64 24 64 7z m715 -27 c-3
-5 -20 -19 -38 -31 l-32 -22 29 31 c28 30 55 44 41 22z m55 3 c0 -5 -17 -19
-38 -32 l-37 -24 29 32 c29 30 46 39 46 24z m-495 -23 c-3 -5 -12 -10 -18 -10
-7 0 -6 4 3 10 19 12 23 12 15 0z m80 0 c3 -5 4 -10 1 -10 -3 0 -8 5 -11 10
-3 6 -4 10 -1 10 3 0 8 -4 11 -10z m-391 -25 c-4 -8 -9 -15 -13 -15 -3 0 -22
-10 -41 -22 -19 -12 -39 -22 -43 -23 -4 0 -12 -7 -17 -15 -7 -11 -12 -12 -20
-4 -8 8 8 22 57 52 75 46 85 49 77 27z m811 5 c-3 -5 -20 -19 -38 -30 l-32
-22 33 31 c32 30 49 40 37 21z m-620 -10 c4 -6 -6 -10 -22 -10 -16 0 -38 -7
-49 -15 -18 -14 -17 -14 15 -8 23 4 32 3 27 -5 -3 -5 0 -12 6 -15 9 -3 7 -11
-7 -27 -11 -13 -14 -20 -7 -16 23 13 12 -10 -18 -39 l-29 -28 -36 27 c-40 31
-41 33 -18 66 37 57 66 80 99 80 18 0 36 -4 39 -10z m655 -9 c0 -5 -7 -12 -16
-15 -14 -5 -15 -4 -4 9 14 17 20 19 20 6z m-278 -51 c5 0 6 9 3 20 -5 17 -2
20 27 20 18 -1 47 -7 63 -15 l30 -13 -45 -2 -45 -2 53 -13 c76 -19 75 -25 -4
-25 -39 0 -75 5 -81 11 -9 9 -14 5 -19 -15 -9 -38 -31 -32 -43 12 -14 50 -14
50 12 54 13 2 25 -3 31 -14 5 -10 13 -18 18 -18z m280 18 c-24 -11 -46 -17
-49 -15 -8 8 50 36 72 36 13 -1 4 -8 -23 -21z m758 7 c0 -10 -10 -15 -32 -15
l-33 1 25 14 c32 18 40 18 40 0z m-1404 -65 c-11 -44 -14 -49 -15 -24 -1 32
20 106 25 89 2 -6 -3 -35 -10 -65z m29 10 c-11 -44 -13 -49 -14 -23 -1 31 16
90 23 82 3 -2 -2 -29 -9 -59z m29 7 c-4 -26 -11 -47 -15 -47 -12 0 -11 17 2
63 14 51 21 42 13 -16z m216 8 c0 -57 -26 -63 -33 -7 -5 42 -2 52 19 52 10 0
14 -12 14 -45z m-174 19 c-3 -9 -6 -29 -6 -45 0 -16 -4 -29 -10 -29 -11 0 -14
73 -3 83 12 13 25 7 19 -9z m40 0 c-3 -9 -6 -27 -6 -40 0 -13 -4 -24 -10 -24
-5 0 -10 18 -10 40 0 30 4 40 16 40 11 0 14 -5 10 -16z m43 -16 c-1 -18 -5
-44 -9 -58 -7 -21 -8 -19 -9 17 -1 23 -4 48 -7 57 -4 11 -1 16 10 16 12 0 16
-9 15 -32z m33 -18 c-5 -65 -19 -65 -18 0 1 27 6 50 11 50 6 0 9 -21 7 -50z
m483 20 c-3 -5 -12 -10 -18 -10 -7 0 -6 4 3 10 19 12 23 12 15 0z m675 0 c-8
-5 -19 -10 -25 -10 -5 0 -3 5 5 10 8 5 20 10 25 10 6 0 3 -5 -5 -10z m-1620
-10 c0 -5 -7 -10 -16 -10 -8 0 -12 5 -9 10 3 6 10 10 16 10 5 0 9 -4 9 -10z
m1657 3 c-4 -3 -10 -3 -14 0 -3 4 0 7 7 7 7 0 10 -3 7 -7z m29 -38 c17 -13 16
-14 -14 -4 -18 6 -52 9 -75 6 -27 -4 -36 -2 -26 4 22 14 93 11 115 -6z m-1698
-2 c-10 -2 -26 -2 -35 0 -10 3 -2 5 17 5 19 0 27 -2 18 -5z m712 -9 c0 -2 -18
-4 -40 -4 -22 0 -40 3 -40 8 0 4 18 6 40 4 22 -2 40 -6 40 -8z m-744 -79 l-13
-50 -13 28 c-7 15 -19 27 -25 27 -8 0 -10 10 -7 25 3 18 13 27 36 33 38 10 40
4 22 -63z m424 59 c0 -8 -4 -12 -10 -9 -5 3 -10 10 -10 16 0 5 5 9 10 9 6 0
10 -7 10 -16z m-383 -16 c-3 -8 -6 -5 -6 6 -1 11 2 17 5 13 3 -3 4 -12 1 -19z
m347 6 c8 -21 8 -24 -3 -24 -5 0 -11 9 -14 20 -6 24 8 27 17 4z m-47 -16 c-3
-8 -6 -5 -6 6 -1 11 2 17 5 13 3 -3 4 -12 1 -19z m648 11 c-6 11 -2 12 21 7
16 -4 31 -9 33 -11 3 -4 -45 -70 -72 -100 -11 -12 13 44 27 65 10 13 9 13 -6
2 -15 -12 -20 -12 -33 1 -8 9 -15 19 -15 23 0 5 5 3 12 -4 7 -7 17 -12 22 -12
6 0 5 5 -2 12 -18 18 -14 32 5 17 14 -12 16 -12 8 0z m684 -18 c-3 -6 -10 -7
-18 -2 -7 5 -10 14 -6 21 9 14 29 -2 24 -19z m-543 -1 c11 0 13 -7 8 -27 l-7
-28 24 21 c28 24 64 21 53 -4 -4 -10 -12 -36 -18 -60 -13 -47 -26 -46 -26 1 0
41 -12 26 -20 -26 l-7 -42 -14 33 c-7 17 -17 32 -21 32 -4 0 -8 15 -8 33 l-1
32 -25 -30 -26 -30 6 34 c7 41 34 74 54 66 7 -3 20 -5 28 -5z m-1099 -22 c-3
-8 -6 -5 -6 6 -1 11 2 17 5 13 3 -3 4 -12 1 -19z m260 0 c-3 -8 -6 -5 -6 6 -1
11 2 17 5 13 3 -3 4 -12 1 -19z m547 -15 c-4 -21 -11 -45 -16 -53 -7 -12 -8
-10 -4 5 2 11 7 35 11 53 9 45 17 40 9 -5z m-231 16 c-6 -6 -9 -19 -6 -28 4
-13 3 -14 -5 -1 -10 14 1 40 16 40 3 0 1 -5 -5 -11z m67 -25 c0 -8 -4 -12 -10
-9 -5 3 -10 10 -10 16 0 5 5 9 10 9 6 0 10 -7 10 -16z m70 -16 c0 -6 -7 -5
-15 2 -8 7 -15 17 -15 22 0 6 7 5 15 -2 8 -7 15 -17 15 -22z m940 22 c0 -5 -4
-10 -9 -10 -6 0 -13 5 -16 10 -3 6 1 10 9 10 9 0 16 -4 16 -10z m-1716 -22 c9
-12 16 -29 16 -38 -1 -10 -5 -7 -13 8 -7 12 -16 19 -20 16 -11 -11 -8 -26 3
-19 6 3 10 2 10 -4 0 -6 -10 -15 -21 -22 -17 -9 -20 -8 -13 3 5 7 7 21 6 31
-2 9 2 17 7 17 6 0 11 5 11 11 0 23 -25 1 -31 -27 -6 -28 -7 -28 -8 -3 -1 24
14 49 30 49 5 0 15 -10 23 -22z m53 0 c-3 -8 -6 -5 -6 6 -1 11 2 17 5 13 3 -3
4 -12 1 -19z m780 5 c-4 -3 -7 0 -7 7 0 7 3 10 7 7 3 -4 3 -10 0 -14z m-167 3
c0 -3 -5 -8 -12 -12 -7 -4 -8 -3 -4 4 7 12 16 16 16 8z m591 -47 c-9 -23 -10
-23 -10 -2 -1 12 2 30 6 40 6 15 8 15 11 2 1 -8 -2 -26 -7 -40z m39 16 c-6
-15 -13 -26 -16 -23 -2 3 0 18 6 33 6 15 13 26 16 23 2 -3 0 -18 -6 -33z m27
-5 c-6 -16 -13 -27 -15 -25 -7 7 8 55 17 55 5 0 4 -13 -2 -30z m197 9 c65 -16
85 -24 71 -29 -20 -7 -92 10 -150 35 -44 19 -24 18 79 -6z m-774 2 c0 -13 -26
-32 -33 -24 -8 7 11 33 24 33 5 0 9 -4 9 -9z m608 -16 c-6 -14 -15 -25 -20
-25 -11 0 -10 7 2 31 16 28 32 23 18 -6z m362 15 c0 -5 -7 -10 -15 -10 -8 0
-15 5 -15 10 0 6 7 10 15 10 8 0 15 -4 15 -10z m-1673 -22 c-3 -8 -6 -5 -6 6
-1 11 2 17 5 13 3 -3 4 -12 1 -19z m583 -11 c0 -5 -4 -5 -10 -2 -5 3 -10 14
-10 23 0 15 2 15 10 2 5 -8 10 -19 10 -23z m108 -46 c34 -44 58 -82 54 -85
-10 -6 -64 50 -103 104 -39 54 -42 60 -26 60 7 0 41 -36 75 -79z m679 39 c-22
-37 -51 -22 -36 18 7 19 12 21 29 12 17 -9 18 -14 7 -30z m-606 -11 c-17 -50
-12 -68 9 -29 24 43 26 33 3 -15 -15 -31 -18 -33 -33 -20 -15 14 -15 18 4 59
23 51 34 54 17 5z m139 6 c38 -39 55 -43 82 -18 17 15 20 15 42 -6 13 -13 32
-21 42 -19 10 2 28 -7 41 -19 16 -16 34 -23 63 -23 27 0 40 -4 40 -14 0 -10
35 -15 153 -20 169 -8 198 -17 190 -61 -5 -24 -55 -75 -74 -75 -5 0 -6 -17 -3
-40 15 -94 -121 -274 -257 -338 -37 -18 -70 -32 -73 -32 -3 0 -76 140 -162
312 -154 308 -156 312 -145 350 7 21 15 38 19 38 5 0 23 -16 42 -35z m-364 -9
c0 -27 -5 -37 -23 -45 -13 -6 -26 -11 -28 -11 -10 0 -5 49 5 55 6 3 10 -3 10
-15 0 -12 5 -18 10 -15 6 3 10 16 10 29 0 18 7 36 14 36 1 0 1 -15 2 -34z
m190 -23 c-3 -3 -12 0 -21 7 -14 12 -14 15 2 33 18 19 18 19 21 -8 2 -15 1
-29 -2 -32z m707 41 c3 -3 1 -14 -5 -24 -10 -15 -14 -16 -25 -5 -7 8 -13 18
-13 24 0 12 32 15 43 5z m215 -23 c40 -34 27 -51 -18 -24 -30 17 -30 17 -63
-15 -37 -36 -57 -41 -57 -14 0 24 19 47 55 66 40 20 45 20 83 -13z m-1688 13
c0 -18 -43 -170 -50 -178 -5 -5 -14 2 -21 17 -15 33 -3 137 15 137 8 0 19 7
26 15 12 15 30 20 30 9z m27 -16 c-3 -8 -6 -5 -6 6 -1 11 2 17 5 13 3 -3 4
-12 1 -19z m583 -13 c0 -5 -5 -3 -10 5 -5 8 -10 20 -10 25 0 6 5 3 10 -5 5 -8
10 -19 10 -25z m1347 -2 c-7 -7 -77 19 -72 27 3 5 21 2 40 -7 19 -9 33 -18 32
-20z m-630 5 c-3 -8 -6 -5 -6 6 -1 11 2 17 5 13 3 -3 4 -12 1 -19z m206 10
c-2 -5 -3 -22 -3 -39 0 -20 -4 -29 -12 -26 -7 2 -12 14 -11 26 2 11 -2 21 -7
21 -6 0 -10 7 -10 16 0 10 7 14 23 12 12 -2 21 -6 20 -10z m-883 -13 c0 -7
-103 -65 -115 -65 -5 0 17 16 50 34 67 39 65 38 65 31z m1105 -5 c3 -5 -1 -10
-10 -10 -9 0 -13 5 -10 10 3 6 8 10 10 10 2 0 7 -4 10 -10z m-1738 -22 c-3 -8
-6 -5 -6 6 -1 11 2 17 5 13 3 -3 4 -12 1 -19z m480 -10 c-3 -7 -5 -2 -5 12 0
14 2 19 5 13 2 -7 2 -19 0 -25z m930 10 c-3 -8 -6 -5 -6 6 -1 11 2 17 5 13 3
-3 4 -12 1 -19z m-1389 -56 c-6 -24 -13 -41 -15 -38 -2 2 1 23 7 46 6 23 13
40 15 38 2 -2 -1 -23 -7 -46z m970 -258 c101 -201 150 -310 143 -317 -6 -6
-38 16 -93 65 -46 40 -111 91 -145 112 -66 41 -76 59 -69 126 4 40 25 90 38
90 4 0 8 9 8 21 0 15 -5 19 -19 14 -13 -4 -20 0 -24 15 -6 23 -37 18 -37 -6 0
-17 -16 -18 -22 -1 -9 25 0 78 16 96 9 10 16 23 16 29 0 15 22 62 29 62 3 0
75 -138 159 -306z m-1001 274 c-3 -8 -6 -5 -6 6 -1 11 2 17 5 13 3 -3 4 -12 1
-19z m644 -35 c-10 -32 -23 -58 -29 -57 -7 1 -20 2 -31 3 -28 2 -15 50 23 83
48 43 56 36 37 -29z m1066 41 c-3 -3 -12 -4 -19 -1 -8 3 -5 6 6 6 11 1 17 -2
13 -5z m-1033 -51 c-15 -49 -21 -60 -29 -51 -7 7 25 98 35 98 4 0 2 -21 -6
-47z m-687 5 c-3 -8 -6 -5 -6 6 -1 11 2 17 5 13 3 -3 4 -12 1 -19z m739 -32
c-4 -17 -13 -26 -26 -26 -23 0 -24 5 -9 49 10 29 13 31 27 18 9 -10 12 -24 8
-41z m977 47 c-7 -2 -19 -2 -25 0 -7 3 -2 5 12 5 14 0 19 -2 13 -5z m-1153
-28 c0 -14 -4 -25 -10 -25 -11 0 -14 33 -3 43 11 11 13 8 13 -18z m-40 -5 c0
-5 -10 -10 -22 -9 -22 0 -22 1 -3 9 11 5 21 9 23 9 1 1 2 -3 2 -9z m1177 4
c-3 -3 -12 -4 -19 -1 -8 3 -5 6 6 6 11 1 17 -2 13 -5z m-1717 -41 c-11 -17
-11 -17 -6 0 3 10 6 24 7 30 0 9 2 9 5 0 3 -7 0 -20 -6 -30z m37 5 c-3 -8 -6
-5 -6 6 -1 11 2 17 5 13 3 -3 4 -12 1 -19z m-67 -30 c0 -10 -40 -31 -47 -25
-2 3 5 8 16 12 28 8 16 27 -12 20 -12 -2 -16 -2 -9 1 10 5 10 9 1 20 -9 11 -3
9 19 -3 18 -10 32 -21 32 -25z m562 21 c29 -6 57 -15 61 -19 10 -9 -84 7 -116
20 -31 12 -7 12 55 -1z m1135 4 c-4 -3 -10 -3 -14 0 -3 4 0 7 7 7 7 0 10 -3 7
-7z m-1640 -35 c-3 -8 -6 -5 -6 6 -1 11 2 17 5 13 3 -3 4 -12 1 -19z m641 8
c9 -10 -14 -36 -32 -36 -16 0 -21 6 -21 25 0 23 3 25 25 20 14 -4 26 -8 28 -9z
m102 -6 c0 -5 -15 -10 -34 -10 -19 0 -37 -6 -39 -12 -3 -7 -6 -3 -6 10 -1 19
4 22 39 22 22 0 40 -4 40 -10z m887 4 c-3 -3 -12 -4 -19 -1 -8 3 -5 6 6 6 11
1 17 -2 13 -5z m-1140 -10 c-3 -3 -12 -4 -19 -1 -8 3 -5 6 6 6 11 1 17 -2 13
-5z m30 -11 c-4 -3 -10 -3 -14 0 -3 4 0 7 7 7 7 0 10 -3 7 -7z m-530 -20 c-4
-3 -7 0 -7 7 0 7 3 10 7 7 3 -4 3 -10 0 -14z m481 6 l32 -11 -26 -34 c-15 -19
-31 -34 -38 -34 -6 0 -3 5 7 11 9 5 17 15 17 20 0 6 -4 8 -9 5 -8 -5 -41 34
-41 49 0 8 25 6 58 -6z m89 4 c-4 -3 -10 -3 -14 0 -3 4 0 7 7 7 7 0 10 -3 7
-7z m1053 -1 c0 -14 -11 -21 -26 -15 -8 3 -11 9 -8 14 7 11 34 12 34 1z m17
-52 c13 0 23 -4 23 -10 0 -13 -58 -1 -92 19 -42 23 -34 32 9 10 21 -10 48 -19
60 -19z m-1608 14 c9 -8 -95 -2 -114 6 -12 4 7 6 45 3 36 -3 67 -7 69 -9z
m559 10 c12 -4 22 -13 22 -20 0 -17 -26 -19 -36 -3 -5 8 -9 8 -14 -1 -5 -8 -9
-5 -13 9 -5 22 2 25 41 15z m63 -3 c-8 -5 -12 -19 -9 -35 3 -14 1 -26 -3 -26
-5 0 -9 16 -9 35 0 27 4 35 18 35 13 0 14 -2 3 -9z m204 -12 c-10 -15 -25 -10
-19 6 4 8 10 12 15 9 5 -3 7 -10 4 -15z m-145 -17 c0 -15 -2 -15 -10 -2 -13
20 -13 33 0 25 6 -3 10 -14 10 -23z m-280 -8 c0 -3 -6 -4 -12 -2 -7 3 -20 -5
-30 -16 -17 -21 -17 -20 -7 11 9 28 14 31 30 23 10 -6 19 -13 19 -16z m250 22
c0 -2 -7 -6 -15 -10 -8 -3 -15 -1 -15 4 0 6 7 10 15 10 8 0 15 -2 15 -4z m153
-41 c-3 -8 -9 -15 -14 -15 -10 0 -12 24 -3 33 11 11 24 -3 17 -18z m-850 -2
c-7 -2 -19 -2 -25 0 -7 3 -2 5 12 5 14 0 19 -2 13 -5z m787 -56 l0 -28 -40 23
c-42 24 -47 32 -28 44 6 4 8 3 5 -3 -3 -5 8 -17 26 -27 l32 -18 -25 20 c-14
12 -21 24 -17 29 5 4 12 1 17 -7 8 -12 10 -11 10 5 0 32 20 -4 20 -38z m759
-45 c-35 -67 -134 -164 -199 -196 l-55 -27 35 28 c79 62 167 160 196 219 25
53 30 58 38 41 8 -14 4 -31 -15 -65z m-1556 71 c-7 -2 -19 -2 -25 0 -7 3 -2 5
12 5 14 0 19 -2 13 -5z m420 -5 c-2 -5 -10 -8 -18 -8 -8 0 -16 3 -18 8 -3 4 5
7 18 7 13 0 21 -3 18 -7z m227 -15 c0 -16 2 -16 11 -3 8 11 9 6 5 -20 -6 -36
-54 -140 -80 -175 -14 -19 -15 -17 -16 25 0 34 3 41 11 30 8 -12 9 -7 6 18 -2
17 0 32 3 32 4 0 10 21 13 46 4 42 18 63 40 64 4 0 7 -8 7 -17z m-275 -11 c-3
-3 -11 0 -18 7 -9 10 -8 11 6 5 10 -3 15 -9 12 -12z m212 -34 c-2 -13 -4 -5
-4 17 -1 22 1 32 4 23 2 -10 2 -28 0 -40z m-74 27 c-3 -9 -8 -14 -10 -11 -3 3
-2 9 2 15 9 16 15 13 8 -4z m-163 -41 c39 -26 70 -51 70 -57 0 -5 -6 -4 -14 2
-16 14 -41 -8 -77 -66 -12 -18 -25 -33 -31 -33 -5 0 -2 7 7 16 8 9 25 35 36
58 l20 41 -25 -29 c-23 -27 -27 -29 -51 -18 -15 7 -29 21 -32 32 -3 11 -10 17
-16 13 -6 -4 0 11 13 33 l23 39 -28 -25 c-15 -14 -25 -18 -20 -10 13 24 37 50
47 50 4 0 40 -21 78 -46z m120 21 c-7 -8 -17 -15 -23 -15 -6 0 -2 7 9 15 25
19 30 19 14 0z m220 -130 c-15 -78 -53 -167 -97 -232 -34 -49 -37 -52 -50 -34
-11 17 -9 26 22 71 37 55 45 59 20 10 -9 -17 -11 -30 -5 -30 16 0 53 81 42 92
-6 6 -3 27 8 56 10 26 24 73 31 106 9 44 15 54 20 40 5 -13 8 -6 10 26 l2 45
4 -45 c3 -25 -1 -72 -7 -105z m238 29 c76 -49 70 -74 -8 -34 -61 31 -80 36
-80 22 0 -8 144 -82 161 -82 6 0 8 9 3 22 -5 16 12 6 61 -37 157 -139 178
-192 86 -220 -23 -7 -24 -5 -18 24 7 34 4 34 -50 -5 -33 -24 -31 5 2 36 14 13
25 27 25 31 0 4 -33 11 -72 15 -71 7 -72 8 -43 20 29 13 29 13 5 14 -25 1 -24
1 10 31 l35 30 -95 -6 -95 -5 50 25 c61 30 39 32 -67 4 -44 -11 -82 -18 -84
-16 -2 2 19 14 46 27 59 28 51 40 -27 40 l-52 0 1 43 c0 23 2 45 5 49 2 5 22
-1 43 -12 45 -23 50 -24 50 -10 0 6 -20 20 -45 32 -25 12 -45 26 -45 31 0 5
25 -5 55 -21 30 -17 52 -26 49 -21 -3 5 -28 21 -55 35 -27 13 -47 29 -44 34 6
10 100 -38 193 -96z m-380 30 c-23 -146 -114 -300 -257 -437 l-87 -82 -125
-37 c-164 -48 -224 -71 -291 -112 l-56 -34 -34 35 c-18 19 -53 45 -77 57 l-45
23 45 33 c24 17 125 73 224 122 99 50 204 106 233 124 58 38 64 34 27 -20 -13
-20 -22 -36 -18 -36 3 0 28 14 56 31 34 21 48 25 44 15 -9 -22 0 -20 53 14 33
21 66 59 116 132 38 56 74 115 80 132 8 22 19 32 42 37 30 6 31 5 26 -25 -3
-17 -12 -50 -21 -74 -8 -24 -12 -46 -9 -49 9 -9 35 59 53 138 18 83 34 92 21
13z m-336 -1 c-3 -16 -7 -22 -10 -15 -4 13 4 42 11 42 2 0 2 -12 -1 -27z m-72
-83 c-12 -16 -24 -30 -26 -30 -3 0 4 14 16 30 12 17 24 30 26 30 3 0 -4 -13
-16 -30z m46 -4 c-7 -36 11 -66 40 -66 19 0 18 -14 -5 -34 -11 -10 -25 -14
-36 -10 -13 5 -16 4 -11 -4 16 -26 53 -12 80 29 15 22 30 38 33 36 10 -11 -58
-97 -77 -97 -30 0 -105 63 -107 90 -1 19 0 20 3 5 6 -21 31 -45 47 -45 6 0 2
9 -8 20 -19 21 -16 38 18 80 29 37 30 37 23 -4z m54 5 c-6 -12 -15 -21 -21
-21 -6 0 -3 7 5 16 9 8 16 20 16 26 0 6 3 9 6 6 3 -4 1 -16 -6 -27z m56 -111
c-36 -54 -42 -51 -9 5 15 24 29 42 32 40 2 -3 -8 -23 -23 -45z m442 -217 c-6
-98 -34 -160 -105 -231 -29 -30 -51 -57 -48 -62 3 -4 17 -11 32 -15 44 -11 80
-42 97 -86 15 -38 15 -43 1 -66 -9 -13 -23 -27 -31 -30 -23 -8 -16 -23 11 -23
82 0 207 85 250 170 45 88 51 235 15 359 -12 41 -8 46 20 31 14 -8 19 -17 15
-30 -4 -12 0 -22 12 -28 14 -9 15 -13 4 -26 -11 -13 -11 -25 -2 -59 8 -32 31
-151 31 -162 0 -1 10 0 23 2 20 4 25 -1 35 -34 6 -21 14 -57 18 -80 3 -23 13
-44 21 -48 11 -4 14 -14 10 -33 -3 -15 0 -35 8 -46 10 -13 11 -25 4 -43 -5
-13 -9 -45 -9 -70 l0 -45 -32 6 c-84 15 -293 36 -450 46 -179 11 -533 1 -668
-20 -103 -15 -110 -14 -110 18 1 72 54 134 183 216 53 33 60 35 79 22 26 -19
36 -14 143 69 44 34 94 65 111 69 19 4 37 18 48 37 9 16 22 27 27 23 12 -7
-30 -83 -53 -95 -10 -5 -18 -16 -18 -24 0 -21 69 6 129 49 78 57 149 164 181
274 7 23 15 42 18 42 2 0 2 -35 0 -77z m-218 52 c0 -36 -214 -215 -257 -215
-30 0 -8 27 49 60 33 19 90 65 127 101 70 71 81 78 81 54z m719 -9 c-13 -5
-58 -26 -99 -45 -95 -45 -102 -48 -65 -21 48 35 167 90 178 83 6 -4 0 -11 -14
-17z m35 -84 c20 -72 20 -95 1 -62 l-15 25 6 -27 c7 -33 3 -34 -33 -11 l-26
17 5 -27 c5 -25 2 -28 -45 -42 -28 -8 -52 -15 -53 -15 -1 0 -5 21 -9 46 -8 53
1 64 77 89 34 12 48 22 52 40 10 40 22 29 40 -33z m-172 -167 c3 -3 45 11 94
30 94 37 104 40 104 27 0 -10 -134 -62 -176 -69 -36 -6 -40 0 -48 73 l-6 49
14 -53 c7 -29 15 -55 18 -57z m143 75 c3 -5 -1 -10 -9 -10 -9 0 -16 5 -16 10
0 6 4 10 9 10 6 0 13 -4 16 -10z m50 -172 c8 -51 8 -51 -50 -62 -28 -5 -28 -5
-7 6 33 17 29 40 -5 28 -28 -10 -28 -10 -5 6 12 9 22 21 22 26 0 5 -10 7 -22
4 l-23 -6 23 11 c12 7 22 19 22 28 1 9 7 3 15 -14 l15 -30 -6 35 c-4 24 -3 32
4 25 6 -5 13 -31 17 -57z m23 -138 c0 -16 -2 -19 -5 -7 -6 22 -21 22 -19 0 0
-10 -7 -18 -19 -20 -11 -1 -14 0 -7 3 19 9 15 34 -5 28 -16 -5 -16 -4 1 10 10
8 15 19 11 25 -3 6 -2 11 4 11 5 0 12 -6 14 -12 3 -7 6 -4 7 7 1 20 1 20 10 0
5 -11 8 -31 8 -45z m25 -70 c10 -10 9 -12 -5 -7 -10 4 -18 3 -18 -2 0 -5 -12
-11 -27 -14 -24 -4 -26 -4 -10 8 9 7 17 17 17 23 0 14 27 9 43 -8z m17 -28 c0
-7 -33 -22 -85 -40 -5 -2 4 8 20 22 29 24 65 35 65 18z m29 -34 c-2 -2 -17
-14 -33 -28 -27 -24 -28 -24 -17 -3 11 22 42 45 50 37 2 -2 2 -5 0 -6z m46
-32 c18 -13 18 -14 -3 -25 -25 -13 -33 -14 -51 -2 -12 8 -12 12 -2 25 16 20
31 20 56 2z m80 -41 l30 -13 -52 -1 c-49 -1 -70 11 -40 22 19 8 30 7 62 -8z"/>
<path d="M1747 2513 c-18 -5 -18 -5 0 -18 17 -13 32 -5 33 18 0 7 -4 8 -33 0z"/>
<path d="M1283 2273 c4 -3 10 -3 14 0 3 4 0 7 -7 7 -7 0 -10 -3 -7 -7z"/>
<path d="M1163 2203 c4 -3 10 -3 14 0 3 4 0 7 -7 7 -7 0 -10 -3 -7 -7z"/>
<path d="M1197 2189 c7 -7 15 -10 18 -7 3 3 -2 9 -12 12 -14 6 -15 5 -6 -5z"/>
<path d="M1873 1963 c4 -3 10 -3 14 0 3 4 0 7 -7 7 -7 0 -10 -3 -7 -7z"/>
<path d="M1450 1410 c0 -7 3 -10 7 -7 3 4 3 10 0 14 -4 3 -7 0 -7 -7z"/>
<path d="M1436 1373 c-6 -14 -5 -15 5 -6 7 7 10 15 7 18 -3 3 -9 -2 -12 -12z"/>
<path d="M1420 1340 c0 -7 3 -10 7 -7 3 4 3 10 0 14 -4 3 -7 0 -7 -7z"/>
<path d="M1476 1289 c-4 -23 -5 -44 -2 -46 2 -2 7 14 11 37 4 23 5 43 2 46 -2
3 -7 -14 -11 -37z"/>
<path d="M1671 1316 c10 -9 89 -46 89 -41 0 5 -75 45 -86 45 -4 0 -5 -2 -3 -4z"/>
<path d="M1264 1148 c-4 -7 -3 -8 4 -4 12 7 16 16 8 16 -3 0 -8 -5 -12 -12z"/>
<path d="M1210 1077 c-19 -28 -73 -90 -120 -137 l-86 -85 -134 -40 c-146 -43
-330 -126 -330 -148 0 -10 32 2 103 37 56 29 161 70 232 91 l130 40 105 105
c58 58 115 124 128 148 32 59 14 52 -28 -11z"/>
<path d="M510 800 c-63 -33 -89 -51 -79 -55 9 -3 38 7 65 23 27 17 69 42 94
56 78 45 19 27 -80 -24z"/>
<path d="M2050 910 c0 -7 3 -10 7 -7 3 4 3 10 0 14 -4 3 -7 0 -7 -7z"/>
<path d="M2061 874 c0 -11 3 -14 6 -6 3 7 2 16 -1 19 -3 4 -6 -2 -5 -13z"/>
<path d="M1983 773 c4 -3 10 -3 14 0 3 4 0 7 -7 7 -7 0 -10 -3 -7 -7z"/>
<path d="M2080 603 c0 -4 5 -15 10 -23 8 -13 10 -13 10 2 0 9 -4 20 -10 23 -5
3 -10 3 -10 -2z"/>
</g>
</svg>
