<?xml version="1.0" standalone="no"?>
<!DOCTYPE svg PUBLIC "-//W3C//DTD SVG 20010904//EN"
 "http://www.w3.org/TR/2001/REC-SVG-20010904/DTD/svg10.dtd">
<svg version="1.0" xmlns="http://www.w3.org/2000/svg"
 width="900.000000pt" height="900.000000pt" viewBox="0 0 900.000000 900.000000"
 preserveAspectRatio="xMidYMid meet">
<metadata>
Created by potrace 1.10, written by Peter Selinger 2001-2011
</metadata>
<g transform="translate(0.000000,900.000000) scale(0.100000,-0.100000)"
fill="#000000" stroke="none">
<path d="M0 4500 l0 -4500 4500 0 4500 0 0 4500 0 4500 -4500 0 -4500 0 0
-4500z m4988 4204 c37 -9 84 -23 105 -30 155 -57 191 -75 310 -156 210 -144
491 -484 563 -683 38 -105 60 -303 45 -409 -16 -113 -34 -403 -32 -521 1 -55
6 -154 12 -220 20 -244 22 -292 10 -346 -33 -146 -106 -269 -212 -360 -82 -70
-173 -134 -224 -159 -25 -12 -43 -26 -39 -31 7 -12 59 -12 82 0 63 34 102 49
102 41 0 -19 -71 -65 -150 -97 -97 -39 -196 -50 -290 -33 -36 6 -86 15 -111
20 -48 9 -124 32 -169 51 -14 6 -38 17 -55 23 -134 56 -332 173 -317 188 5 5
22 4 38 -3 37 -14 124 -37 189 -49 28 -4 82 -18 120 -29 159 -48 258 -64 338
-56 42 3 77 10 77 15 0 5 -30 11 -67 15 -38 3 -88 13 -112 21 -25 8 -56 14
-70 14 -29 1 -110 27 -156 52 -16 9 -75 35 -129 58 -104 44 -105 44 -176 80
-103 53 -206 148 -249 231 -12 22 -28 67 -35 100 -28 116 22 253 145 399 89
107 302 355 308 360 3 3 24 25 45 50 308 353 701 730 761 730 7 0 18 7 25 15
9 10 32 15 76 15 37 0 64 4 64 10 0 17 -52 32 -90 25 -32 -5 -49 -12 -123 -46
-26 -12 -30 -10 -120 77 -157 151 -250 229 -377 314 -12 8 -32 22 -44 30 -11
9 -39 25 -61 35 -22 11 -46 26 -53 33 -7 6 -22 12 -32 12 -10 0 -22 5 -25 10
-3 6 -16 10 -28 10 -13 0 -31 6 -42 14 -11 7 -36 16 -55 19 -54 8 -122 27
-157 44 -42 21 -108 10 -193 -32 -14 -7 -37 -15 -52 -19 -16 -3 -28 -11 -28
-16 0 -6 -9 -10 -19 -10 -11 0 -23 -5 -26 -11 -13 -20 6 -23 38 -7 18 9 48 19
67 22 19 3 62 10 95 16 65 11 207 -8 273 -36 18 -8 39 -14 47 -14 7 0 26 -6
42 -14 15 -8 60 -30 98 -49 109 -53 175 -99 333 -232 196 -165 248 -218 236
-243 -5 -10 -47 -52 -94 -93 -99 -85 -139 -125 -315 -314 -287 -307 -323 -340
-339 -299 -9 23 -7 67 3 83 7 11 11 5 16 -22 9 -48 19 -53 39 -22 12 19 14 30
6 44 -16 31 -12 69 9 81 28 15 31 13 31 -20 0 -38 31 -41 50 -5 11 20 11 29 1
49 -14 26 -12 59 4 60 6 1 11 -14 13 -31 2 -18 6 -33 9 -33 9 0 143 142 143
151 0 4 6 9 14 12 18 7 126 151 148 197 9 19 24 61 34 94 14 49 15 66 5 105
-7 25 -15 57 -18 71 -15 70 -54 128 -121 184 -65 54 -86 69 -137 96 -11 6 -33
19 -50 29 -127 82 -265 121 -422 121 -132 0 -187 -13 -304 -69 -76 -37 -81
-40 -182 -114 -129 -94 -122 -56 14 82 178 178 337 268 574 325 84 20 261 20
343 0z m-375 -298 c36 -22 77 -73 77 -96 0 -6 -8 -10 -18 -10 -51 0 -143 89
-121 117 15 17 17 17 62 -11z m-160 -8 c31 -15 50 -31 54 -46 3 -13 4 -25 2
-27 -2 -2 -25 -1 -51 2 -34 4 -58 15 -85 37 -63 55 -11 77 80 34z m349 -58
c22 -24 42 -57 45 -72 3 -16 10 -31 14 -34 15 -9 10 -64 -5 -70 -23 -9 -49 25
-100 129 -27 54 -53 100 -57 103 -5 3 -7 10 -3 15 9 14 62 -21 106 -71z m-485
0 c3 -10 16 -27 30 -36 20 -13 23 -18 12 -25 -31 -20 -145 -3 -168 25 -9 11
-5 18 21 35 43 27 98 28 105 1z m660 -45 c11 -11 35 -47 54 -80 l32 -60 1
-155 c1 -130 -2 -163 -17 -200 -36 -87 -82 -175 -107 -205 -14 -16 -41 -50
-60 -75 -55 -72 -102 -122 -333 -350 -296 -291 -356 -374 -367 -503 l-5 -72
-7 67 c-8 80 8 147 54 223 42 68 57 84 373 392 135 131 317 343 356 413 85
155 103 409 38 520 -5 8 -13 25 -19 37 -5 12 -27 40 -49 62 -22 22 -37 42 -34
44 5 6 58 -28 90 -58z m-457 -35 c0 -6 -10 -15 -22 -20 -13 -5 -41 -25 -63
-44 -22 -20 -47 -36 -55 -36 -12 1 -12 3 3 14 9 7 17 18 17 24 0 23 62 72 91
72 16 0 29 -5 29 -10z m418 -25 c2 -11 10 -27 16 -35 7 -8 19 -41 26 -73 12
-53 12 -64 -7 -120 l-20 -62 -11 40 c-7 22 -12 63 -12 90 0 28 -4 66 -9 85
-21 83 -22 102 -4 98 10 -2 19 -12 21 -23z m-284 -1 c26 -10 7 -24 -32 -24
-20 0 -46 -7 -56 -15 -23 -17 -72 -20 -81 -5 -3 6 5 14 18 19 14 6 28 15 32
20 7 12 93 15 119 5z m-284 -17 c0 -7 -7 -22 -15 -33 -8 -10 -15 -27 -15 -36
0 -25 -30 -22 -30 2 0 22 38 80 52 80 4 0 8 -6 8 -13z m745 -30 c0 -26 -20
-25 -23 2 -3 16 1 22 10 19 7 -3 13 -12 13 -21z m-951 -86 c22 -81 28 -159 16
-216 -6 -27 -15 -73 -20 -102 -4 -28 -12 -58 -16 -65 -12 -19 -43 -110 -44
-128 0 -8 -6 -27 -14 -41 -7 -14 -16 -43 -20 -64 -4 -20 -11 -45 -15 -54 -16
-32 -41 -119 -41 -142 -1 -13 -9 -42 -20 -64 -11 -22 -19 -51 -20 -65 0 -15
-5 -31 -12 -38 -6 -6 -15 -33 -19 -59 -4 -27 -16 -83 -25 -125 -16 -68 -17
-86 -5 -155 7 -43 23 -99 36 -125 25 -49 150 -220 166 -226 14 -6 10 -32 -5
-32 -22 0 -101 76 -140 134 -35 53 -77 132 -111 211 -13 29 -19 77 -22 175 -5
150 -9 173 -23 150 -6 -8 -10 -25 -10 -37 0 -12 -5 -23 -10 -25 -6 -2 -17 -26
-24 -53 -9 -39 -17 -51 -36 -55 -28 -7 -79 -75 -80 -106 0 -34 -11 -35 -34 -1
-41 61 -50 93 -35 130 11 28 63 104 80 117 12 9 105 134 134 180 27 42 79 144
110 215 20 46 61 161 75 210 5 17 18 62 30 100 12 39 25 86 29 105 5 19 13 55
19 80 34 145 42 189 42 221 0 20 3 39 7 43 12 12 40 -35 57 -93z m583 58 c19
-16 16 -39 -4 -41 -34 -3 -57 3 -72 16 -9 8 -29 16 -45 18 -16 1 -32 9 -34 17
-4 12 8 13 68 7 41 -3 79 -11 87 -17z m433 -27 c-1 -27 -46 -76 -64 -69 -23 9
-20 21 16 60 34 36 48 39 48 9z m-557 -30 c50 -27 70 -44 103 -87 61 -80 91
-203 74 -301 -16 -92 -20 -104 -30 -104 -6 0 -10 46 -10 113 0 123 -16 189
-63 263 -35 56 -102 104 -144 104 -11 0 -28 7 -39 15 -18 13 -15 14 29 15 26
0 61 -8 80 -18z m192 -13 c10 -15 1 -21 -36 -22 -24 -2 -34 3 -37 16 -3 14 4
17 32 17 19 0 38 -5 41 -11z m-350 -21 c42 -48 51 -101 15 -77 -8 5 -24 9 -36
9 -12 0 -31 9 -44 20 -13 11 -27 20 -32 20 -10 0 -11 34 -1 43 16 17 79 6 98
-15z m108 -33 c35 -15 87 -71 87 -94 0 -25 -85 17 -100 50 -4 7 -12 24 -19 37
-13 26 -13 26 32 7z m647 -1 c0 -20 -66 -84 -86 -84 -27 0 -16 48 16 67 17 9
30 21 30 25 0 4 9 8 20 8 12 0 20 -7 20 -16z m-890 -26 c34 -24 31 -38 -9 -38
-36 0 -66 22 -58 44 9 22 32 20 67 -6z m520 12 c0 -18 -38 -53 -49 -45 -12 7
-15 38 -4 48 10 11 53 8 53 -3z m30 -116 c-16 -14 -30 -34 -30 -45 0 -10 -7
-19 -15 -19 -10 0 -15 10 -15 34 0 44 41 81 71 65 18 -9 18 -11 -11 -35z m355
6 c-8 -26 -85 -63 -110 -54 -29 11 -11 38 45 66 58 29 77 25 65 -12z m-850 9
c-4 -5 -12 -9 -18 -9 -7 0 -25 -14 -41 -30 -30 -31 -66 -40 -66 -17 0 13 26
33 80 59 34 16 56 15 45 -3z m142 6 c3 -11 -72 -45 -99 -45 -24 0 -33 19 -11
26 10 3 29 11 43 19 28 15 62 15 67 0z m130 -46 c47 -18 61 -56 16 -43 -16 4
-52 10 -82 13 -54 6 -79 25 -44 34 33 9 82 7 110 -4z m-130 -55 c51 -25 113
-85 113 -110 0 -6 7 -17 15 -24 8 -7 15 -34 17 -68 4 -83 26 -80 30 5 3 75 20
91 29 28 3 -22 11 -50 19 -61 12 -19 9 -28 -25 -85 -67 -111 -196 -252 -270
-296 -80 -47 -111 -55 -205 -57 -88 -1 -98 1 -137 27 -32 20 -43 34 -43 52 0
28 12 32 29 11 25 -30 91 -56 144 -56 50 0 141 25 190 53 82 45 162 125 197
195 20 40 22 54 16 134 -5 82 -8 92 -43 139 -107 142 -310 132 -372 -20 -29
-70 25 -161 96 -161 47 0 98 39 107 80 3 18 10 29 16 25 16 -10 12 -58 -7 -85
-34 -49 -55 -59 -120 -60 -60 0 -62 1 -97 42 -34 39 -36 46 -36 108 0 58 4 72
28 106 16 21 37 46 47 54 67 55 176 65 262 24z m383 7 c0 -26 -32 -81 -47 -81
-18 0 -16 46 3 75 19 30 44 33 44 6z m294 -20 c10 -16 -6 -41 -30 -47 -33 -8
-70 2 -78 22 -10 26 3 34 54 34 27 0 51 -4 54 -9z m-693 -83 c138 -106 106
-313 -60 -398 -51 -26 -166 -28 -219 -3 -48 21 -102 72 -102 95 0 22 18 24 26
3 14 -36 153 -91 205 -81 58 11 123 51 157 95 29 39 32 49 32 113 0 61 -4 76
-26 105 -35 46 -92 73 -154 73 -46 0 -60 7 -43 23 3 4 37 7 74 7 61 0 72 -3
110 -32z m399 -16 c0 -24 -45 -78 -54 -64 -7 12 31 82 45 82 5 0 9 -8 9 -18z
m217 -4 c29 -27 29 -34 1 -41 -29 -8 -68 17 -68 43 0 27 37 26 67 -2z m-751
-23 c6 -16 -12 -45 -27 -45 -12 0 -31 39 -24 50 10 15 45 12 51 -5z m692 -69
c10 -22 8 -26 -10 -31 -25 -8 -53 17 -45 39 10 24 42 19 55 -8z m-566 -101
c-18 -49 -35 -69 -79 -96 -58 -36 -56 -10 3 54 31 33 61 74 67 91 9 26 11 28
17 10 4 -10 1 -37 -8 -59z m498 10 c0 -16 -6 -25 -15 -25 -9 0 -15 9 -15 25 0
16 6 25 15 25 9 0 15 -9 15 -25z m-750 -85 c0 -5 8 -10 18 -10 25 -1 77 -46
62 -55 -6 -4 -19 0 -29 9 -10 9 -24 16 -32 16 -13 0 -49 33 -49 45 0 3 7 5 15
5 8 0 15 -4 15 -10z m-116 -115 c3 -8 14 -15 25 -15 11 0 23 -5 26 -11 4 -5
18 -14 31 -19 13 -5 24 -14 24 -20 0 -15 -36 -12 -50 5 -7 8 -18 15 -24 15
-15 1 -56 36 -56 49 0 16 17 13 24 -4z m592 -118 c-3 -58 -5 -62 -27 -62 -20
0 -25 6 -27 33 -3 34 33 107 48 97 5 -3 7 -33 6 -68z m-93 -94 c-5 -36 -3 -43
11 -43 9 0 16 -7 16 -15 0 -8 -5 -15 -11 -15 -6 0 -17 -7 -26 -15 -25 -26 -38
-12 -41 46 -2 44 1 61 19 83 28 35 40 19 32 -41z m-498 -3 c-3 -5 -15 -10 -26
-10 -10 0 -19 -4 -19 -9 0 -14 -32 -23 -43 -12 -7 7 -4 12 9 16 10 4 26 10 34
15 21 12 52 12 45 0z m190 -20 c3 -5 -7 -12 -22 -16 -15 -4 -37 -13 -48 -20
-11 -8 -27 -14 -37 -14 -32 0 -142 -63 -190 -109 -47 -45 -48 -45 -48 -18 0
15 13 41 31 61 34 39 144 96 187 96 15 1 38 7 52 15 29 17 66 19 75 5z m206
-71 c-6 -29 -9 -66 -5 -84 4 -25 2 -34 -11 -39 -24 -9 -32 -1 -37 36 -7 43 10
108 36 136 26 29 31 16 17 -49z m-71 -25 c0 -3 -7 -12 -15 -20 -8 -9 -15 -32
-15 -52 -1 -20 -7 -55 -15 -77 -8 -22 -15 -50 -15 -62 0 -16 -6 -23 -20 -23
-19 0 -20 4 -14 53 9 77 34 150 58 169 21 18 36 23 36 12z m-139 -162 c-6 -15
-15 -60 -21 -101 -11 -81 -13 -86 -29 -76 -15 9 -14 106 2 141 32 75 77 108
48 36z m-292 -69 c-1 -54 -4 -88 -7 -75 -7 23 -4 172 4 172 2 0 4 -44 3 -97z
m71 -28 c0 -97 -10 -136 -24 -99 -14 36 0 218 15 208 5 -3 9 -52 9 -109z
m-550 -50 c63 -30 86 -44 114 -70 15 -14 31 -25 37 -25 5 0 9 -7 9 -15 0 -19
-10 -19 -35 -1 -33 22 -166 64 -230 71 -79 10 -84 14 -49 42 24 20 37 23 74
20 25 -3 61 -12 80 -22z m820 -10 c0 -8 -4 -17 -10 -20 -6 -4 -10 5 -10 20 0
15 4 24 10 20 6 -3 10 -12 10 -20z m-889 -101 c215 -64 469 -220 619 -381 l64
-68 -44 -6 c-25 -3 -52 -9 -61 -13 -15 -6 -68 31 -127 90 -59 60 -353 254
-384 254 -8 0 -18 4 -23 9 -20 19 -143 43 -240 48 -90 5 -157 -2 -222 -22 -63
-20 8 57 79 87 59 23 263 25 339 2z m-126 -156 c124 -41 272 -122 386 -210 49
-38 109 -93 109 -99 0 -5 21 -28 47 -52 l47 -44 -18 -57 c-10 -31 -23 -56 -29
-56 -7 0 -25 13 -42 28 -16 15 -59 52 -95 82 -35 30 -73 63 -85 73 -70 63
-386 237 -430 237 -11 0 -42 7 -69 15 -64 19 -183 19 -241 0 -56 -19 -74 -11
-43 18 91 86 309 116 463 65z m2785 -385 c0 -56 4 -104 9 -107 15 -9 21 21 21
100 0 41 4 74 9 74 23 0 43 -15 57 -41 12 -25 13 -40 3 -92 -6 -34 -17 -77
-25 -95 -8 -18 -14 -37 -14 -42 0 -9 -60 -136 -83 -175 -142 -240 -409 -473
-622 -541 -72 -23 -266 -27 -287 -6 -6 6 -19 12 -26 12 -21 0 -157 66 -217
105 -62 41 -157 131 -220 209 -48 61 -149 210 -174 259 -24 46 -5 41 35 -10
22 -26 42 -50 45 -53 3 -3 23 -30 44 -60 21 -30 41 -57 44 -60 4 -3 24 -27 46
-55 58 -75 107 -125 122 -125 17 0 17 27 0 37 -7 4 -31 30 -52 58 -22 27 -49
60 -60 73 -20 24 -34 46 -112 185 -65 113 -56 130 23 45 290 -310 438 -424
602 -464 68 -16 138 -18 147 -4 3 6 25 10 49 10 23 0 51 7 62 15 10 8 25 15
33 15 7 0 33 14 58 30 24 17 47 30 51 30 4 0 14 8 23 18 8 9 28 27 44 39 39
28 23 43 -18 19 -18 -11 -45 -26 -62 -34 -16 -9 -32 -18 -35 -21 -7 -9 -43
-30 -60 -37 -8 -3 -33 -14 -56 -25 -23 -10 -46 -19 -51 -19 -6 0 -16 -6 -22
-14 -12 -14 -57 -10 -67 5 -3 5 -15 9 -26 9 -37 0 -181 75 -258 135 -144 112
-218 198 -113 132 21 -13 48 -27 61 -31 12 -4 22 -11 22 -14 0 -4 20 -18 45
-32 25 -14 45 -28 45 -32 0 -5 11 -8 24 -8 13 0 29 -7 36 -15 14 -17 70 -21
70 -5 0 6 -11 16 -25 22 -14 6 -25 15 -25 20 0 4 -5 8 -11 8 -11 0 -126 87
-161 123 -15 14 -15 17 -3 17 8 0 23 -4 33 -9 45 -25 87 -41 104 -41 11 0 32
-6 46 -14 108 -55 257 -67 371 -29 25 8 75 34 112 59 54 36 78 61 122 127 29
45 61 102 70 127 27 73 57 192 57 230 0 27 2 31 13 21 18 -18 13 -183 -7 -223
-18 -35 -21 -64 -7 -72 10 -7 21 17 21 45 0 10 4 19 10 19 5 0 14 19 21 43 6
23 15 47 19 52 16 20 30 131 24 195 l-6 65 26 -40 c23 -36 25 -50 26 -142z
m-3160 158 c0 -6 -4 -13 -10 -16 -5 -3 -10 -15 -10 -25 0 -27 -39 -90 -56 -90
-27 0 -6 92 27 120 26 21 49 26 49 11z m70 -13 c0 -79 -115 -260 -155 -244
-19 7 -9 30 29 71 13 14 43 64 67 110 43 86 59 103 59 63z m-212 -38 c-5 -25
-7 -82 -4 -127 4 -72 9 -89 40 -135 52 -79 66 -94 121 -125 110 -62 288 -91
455 -73 138 14 273 13 268 -2 -3 -9 -36 -15 -95 -19 -50 -4 -100 -12 -111 -18
-31 -16 -238 -14 -287 4 -22 8 -58 14 -80 15 -39 0 -107 22 -172 55 -56 28
-156 146 -175 207 -33 101 -16 228 34 259 18 11 18 9 6 -41z m272 32 c0 -29
46 -88 80 -102 24 -10 37 -10 57 -1 38 18 50 -2 17 -28 -15 -11 -35 -21 -45
-21 -30 0 -98 40 -119 70 -24 34 -27 100 -5 100 8 0 15 -8 15 -18z m100 4 c0
-20 -26 -40 -35 -26 -10 16 2 40 20 40 8 0 15 -6 15 -14z m190 -85 c-1 -142
-185 -267 -342 -231 -86 19 -88 20 -88 43 0 16 3 18 12 9 8 -8 46 -12 108 -12
84 0 100 3 145 28 72 40 111 96 120 173 l7 63 19 -23 c11 -13 19 -35 19 -50z
m-723 -79 c-35 -48 -72 -102 -81 -120 l-17 -33 28 7 c15 3 38 13 51 21 25 15
101 14 105 -2 1 -5 -9 -11 -23 -13 -24 -3 -48 -12 -125 -48 -42 -20 -101 -78
-108 -106 -5 -18 -2 -19 26 -14 54 10 312 19 351 12 77 -15 32 -26 -101 -26
-93 0 -154 -5 -187 -15 -27 -8 -66 -15 -87 -15 -21 0 -45 -7 -53 -16 -15 -15
-36 -12 -36 5 0 12 36 89 62 131 11 19 31 53 43 75 45 84 101 162 154 219 80
84 79 47 -2 -62z m1571 51 c76 -25 138 -83 163 -153 23 -65 24 -96 4 -134 -8
-15 -15 -39 -15 -52 0 -32 -23 -40 -52 -20 -12 9 -30 16 -40 16 -21 0 -34 18
-21 31 6 6 22 5 42 -2 31 -11 35 -10 52 12 54 70 -16 211 -133 268 -51 24 -85
26 -112 6 -11 -8 -27 -15 -35 -15 -18 0 -91 -62 -91 -77 0 -6 -7 -16 -15 -23
-17 -14 -22 -130 -6 -130 5 0 14 -13 19 -29 5 -15 27 -44 47 -65 l38 -36 104
0 c79 0 104 -3 101 -12 -7 -19 -74 -28 -151 -21 -66 6 -71 8 -118 55 -27 27
-49 55 -49 62 0 8 -7 27 -15 42 -26 50 -20 84 32 191 18 37 49 61 113 84 59
22 73 22 138 2z m-710 -95 c7 -17 -46 -7 -72 13 -25 19 -34 48 -20 62 7 6 85
-58 92 -75z m-458 22 c0 -15 5 -31 12 -38 9 -9 6 -12 -14 -12 -21 0 -28 6 -33
29 -8 36 12 82 26 60 5 -8 9 -25 9 -39z m80 -33 c0 -16 -2 -16 -25 -1 -24 16
-33 43 -18 58 10 9 42 -34 43 -57z m968 15 c2 -7 -6 -12 -17 -12 -13 0 -29
-12 -40 -31 -10 -17 -22 -26 -25 -21 -9 15 4 42 20 42 8 0 14 6 14 14 0 25 40
31 48 8z m173 -21 c39 -39 52 -81 24 -81 -9 0 -15 9 -15 25 0 14 -7 28 -15 31
-8 4 -15 12 -15 20 0 19 -40 18 -54 -1 -8 -11 -21 -13 -48 -9 -50 9 -48 19 4
21 26 1 45 8 50 18 14 23 27 19 69 -24z m-1574 -5 c-6 -18 -57 -20 -57 -2 0
15 26 25 48 18 7 -2 11 -10 9 -16z m1551 -52 c2 -11 11 -24 19 -31 8 -6 12
-17 8 -23 -8 -13 -42 19 -62 58 -17 32 -17 33 10 23 12 -5 24 -17 25 -27z
m-153 1 c-3 -14 -7 -37 -10 -51 -4 -17 -11 -24 -23 -22 -26 5 -27 45 0 73 29
31 40 31 33 0z m-495 -4 c0 -14 -28 -21 -85 -21 -64 0 -93 9 -73 21 18 12 158
11 158 0z m590 -4 c0 -16 -20 -37 -36 -37 -14 0 -27 28 -18 41 8 14 54 11 54
-4z m-193 -54 c-3 -10 -5 -2 -5 17 0 19 2 27 5 18 2 -10 2 -26 0 -35z m1811
-42 c-42 -79 -118 -165 -172 -193 -30 -16 -57 -22 -104 -21 -35 0 -66 3 -69 7
-11 10 18 35 49 42 43 9 112 47 167 91 55 44 140 134 141 148 0 5 4 5 10 -1 8
-8 1 -30 -22 -73z m-2413 49 c13 -14 15 -24 8 -31 -14 -14 -53 10 -53 33 0 24
23 23 45 -2z m-135 -30 c28 -16 57 -30 65 -30 7 0 26 -5 42 -11 15 -7 37 -12
47 -13 23 -1 33 -21 14 -28 -18 -7 -146 25 -188 47 -44 23 -63 47 -47 57 16
10 9 12 67 -22z m-558 3 c22 -26 29 -51 16 -59 -6 -4 -19 4 -29 17 -19 25 -25
59 -11 59 5 0 16 -8 24 -17z m107 -58 c-6 -6 -18 1 -34 19 -14 16 -25 32 -25
36 0 20 15 15 40 -13 18 -21 25 -35 19 -42z m189 59 c18 -8 32 -20 32 -25 0
-14 -27 -11 -44 6 -8 8 -19 15 -25 15 -5 0 -13 5 -16 10 -9 15 18 12 53 -6z
m3358 -99 c53 -100 72 -144 99 -240 9 -33 21 -74 26 -91 5 -17 9 -45 9 -64 0
-18 9 -47 20 -66 39 -62 -8 -50 -85 23 -26 24 -137 109 -150 114 -25 10 -155
102 -151 106 9 9 98 -21 103 -34 3 -7 10 -13 15 -13 6 0 30 -13 55 -30 24 -16
47 -30 51 -30 4 0 22 -13 40 -30 18 -16 37 -30 43 -30 5 0 9 -4 9 -10 0 -5 7
-10 15 -10 8 0 15 2 15 5 0 6 -38 45 -44 45 -3 0 -20 14 -38 30 -18 17 -38 30
-45 30 -6 0 -16 6 -20 13 -8 12 -36 32 -63 44 -8 3 -31 18 -50 33 -19 15 -43
30 -52 33 -10 4 -18 11 -18 17 0 15 36 12 50 -5 7 -8 19 -15 28 -15 8 0 23 -6
31 -14 9 -7 47 -34 84 -60 72 -49 104 -59 92 -28 -4 9 -11 31 -15 47 -26 105
-65 185 -91 185 -11 0 -30 9 -42 21 -20 19 -21 21 -4 30 21 12 22 45 2 65 -8
8 -12 21 -9 29 4 11 17 1 43 -33 20 -26 41 -56 47 -67z m-2843 88 c8 -10 19
-30 22 -45 11 -42 -18 -36 -44 8 -29 48 -13 75 22 37z m697 -3 c0 -15 -7 -20
-27 -20 l-28 0 25 20 c31 24 30 24 30 0z m-1071 -18 c20 -16 45 -32 55 -36 28
-10 4 -30 -26 -23 -30 8 -91 64 -83 77 9 14 13 13 54 -18z m466 2 c28 -18 33
-34 10 -34 -9 0 -19 8 -22 18 -4 9 -11 20 -17 24 -22 15 6 7 29 -8z m135 6 c0
-13 -11 -13 -30 0 -12 8 -11 10 8 10 12 0 22 -4 22 -10z m-1102 -23 c2 -12 -3
-17 -17 -17 -15 0 -21 6 -21 21 0 25 33 22 38 -4z m1120 -64 c-10 -2 -26 -2
-35 0 -10 3 -2 5 17 5 19 0 27 -2 18 -5z m-728 -75 c227 -19 601 -11 763 18
20 3 37 4 37 0 0 -13 -62 -35 -160 -55 -89 -18 -139 -21 -335 -21 -135 0 -283
6 -360 15 -253 29 -425 17 -588 -41 -26 -9 -51 -14 -54 -10 -14 14 26 61 56
67 17 4 37 11 43 16 28 22 293 43 388 31 30 -4 125 -13 210 -20z m1370 20 c-1
-18 -48 -51 -61 -43 -6 4 -1 16 13 30 26 26 48 32 48 13z m1880 -8 c0 -5 -9
-10 -20 -10 -11 0 -20 5 -20 10 0 6 9 10 20 10 11 0 20 -4 20 -10z m-50 -20
c0 -6 8 -14 18 -17 26 -10 132 -93 132 -104 0 -5 -7 -9 -15 -9 -8 0 -15 4 -15
9 0 5 -8 12 -17 15 -35 13 -73 37 -73 47 0 5 -6 9 -12 9 -13 1 -68 45 -68 55
0 3 11 5 25 5 14 0 25 -5 25 -10z m85 1 c7 -12 -12 -24 -25 -16 -11 7 -4 25
10 25 5 0 11 -4 15 -9z m-1855 -20 c0 -18 -7 -24 -82 -69 -60 -37 -54 -7 9 43
65 50 73 53 73 26z m-1365 -82 c22 -6 60 -15 85 -19 l45 -8 -58 -1 c-69 -1
-197 18 -197 30 0 13 78 11 125 -2z m1361 -34 c15 -23 12 -83 -4 -86 -44 -8
-62 -5 -74 8 -11 15 -10 16 11 10 34 -8 54 9 40 34 -10 19 -11 19 -39 -1 -51
-37 -57 -17 -7 29 39 37 52 38 73 6z m-640 -156 c17 -28 -101 -180 -127 -163
-19 11 -7 40 46 105 56 69 68 78 81 58z m-1412 -15 c6 -16 29 -14 73 8 13 6
37 7 60 3 l38 -8 -33 -7 c-39 -9 -46 -15 -37 -29 10 -17 75 -13 81 4 7 16 59
21 68 6 4 -5 -8 -13 -26 -16 -18 -4 -42 -14 -53 -21 -11 -8 -29 -14 -41 -14
-12 0 -35 -7 -50 -15 -16 -8 -39 -15 -50 -15 -12 0 -27 -7 -34 -15 -7 -8 -20
-15 -29 -15 -10 0 -26 -7 -37 -15 -25 -19 -64 -19 -64 -1 0 8 5 18 11 21 5 4
15 17 20 28 11 25 26 49 53 90 20 30 41 35 50 11z m636 8 c0 -13 -85 -52 -113
-52 -14 0 -37 -4 -51 -10 -20 -7 -26 -6 -26 4 0 17 28 41 65 54 36 13 125 15
125 4z m1660 -7 c0 -8 -5 -15 -11 -15 -6 0 -28 -13 -49 -30 -21 -16 -40 -30
-43 -30 -3 0 -26 -13 -50 -30 -61 -41 -106 -39 -59 3 25 22 123 87 132 87 4 0
13 7 20 15 7 8 23 15 36 15 15 0 24 -6 24 -15z m-1230 -47 c0 -23 -7 -70 -16
-104 -8 -35 -14 -74 -12 -86 3 -20 8 -23 43 -20 22 2 52 10 67 18 15 8 37 14
50 14 13 0 32 7 42 15 11 8 32 15 47 15 14 0 32 7 39 15 7 8 23 15 37 15 13 0
26 7 29 15 4 8 14 15 24 15 10 0 23 7 30 15 7 8 18 15 25 15 8 0 15 4 17 8 4
11 78 55 78 47 0 -12 -44 -55 -56 -55 -7 0 -14 -7 -18 -15 -3 -8 -12 -15 -20
-15 -7 0 -16 -7 -20 -15 -3 -8 -17 -15 -31 -15 -16 0 -25 -6 -25 -15 0 -10
-10 -15 -30 -15 -20 0 -30 -5 -30 -15 0 -8 9 -15 19 -15 11 0 26 7 35 15 8 8
21 15 30 15 8 0 21 6 28 13 16 14 45 33 73 47 11 5 45 28 75 49 30 22 57 38
59 36 7 -8 -62 -79 -111 -116 -68 -51 -215 -121 -313 -149 -16 -5 -61 -19
-100 -30 -38 -12 -97 -24 -129 -27 -67 -6 -64 -15 -33 92 42 143 59 202 63
225 9 42 13 50 24 50 5 0 10 -19 10 -42z m195 2 c3 -6 -1 -13 -9 -16 -9 -3
-20 -23 -26 -45 -6 -21 -18 -45 -27 -54 -20 -21 -99 -58 -113 -53 -17 5 37
101 70 123 16 11 30 23 30 28 0 4 9 7 19 7 11 0 23 5 26 10 8 13 22 13 30 0z
m995 -69 c0 -22 -128 -111 -160 -111 -35 0 -22 17 45 62 36 23 65 46 65 50 0
4 11 8 25 8 14 0 25 -4 25 -9z m-1540 -61 c0 -45 -31 -153 -48 -167 -31 -26
-5 -32 38 -8 44 24 58 30 83 40 6 3 22 12 35 21 20 15 22 15 22 0 0 -9 -5 -16
-11 -16 -7 0 -30 -15 -53 -33 -23 -19 -73 -55 -113 -80 l-72 -47 -330 0 c-314
0 -366 -4 -335 -28 11 -9 676 4 727 13 37 7 37 7 26 -17 -10 -23 -18 -26 -92
-32 -45 -3 -163 -6 -262 -6 -190 0 -413 -20 -458 -41 -46 -21 -53 1 -18 62 16
30 42 76 56 103 15 27 32 59 39 70 20 37 77 106 87 106 14 0 4 -31 -37 -114
-18 -38 -31 -73 -28 -78 3 -4 139 -8 303 -8 279 0 299 1 315 19 25 28 56 92
56 117 0 13 7 29 15 38 8 8 15 23 15 34 0 11 3 34 6 51 8 40 34 41 34 1z
m3166 -5 c4 -8 14 -15 23 -15 9 0 25 -7 35 -15 10 -8 23 -12 28 -9 14 9 -1 24
-23 24 -12 0 -19 5 -17 13 7 18 40 21 50 4 5 -9 16 -13 28 -10 16 4 19 2 14
-11 -4 -12 0 -16 15 -16 12 0 24 -8 28 -17 3 -10 18 -46 34 -81 44 -95 36
-107 -33 -44 -126 115 -145 132 -155 132 -5 0 -16 8 -24 18 -9 9 -25 22 -35
29 -18 11 -18 12 4 12 12 1 25 -6 28 -14z m-3479 -20 c-18 -16 -40 -25 -63
-25 -19 0 -34 2 -34 5 0 9 83 44 105 44 18 0 17 -2 -8 -24z m3093 -25 c0 -42
-12 -74 -21 -58 -10 16 -12 92 -2 101 10 10 23 -14 23 -43z m-3200 -10 c0 -5
-10 -10 -22 -10 -19 0 -20 2 -8 10 19 13 30 13 30 0z m310 -28 c0 -38 -45
-105 -86 -127 -46 -24 -64 -9 -38 31 14 24 112 123 122 124 1 0 2 -13 2 -28z
m1660 9 c-12 -23 -29 -35 -36 -28 -10 9 16 47 32 47 11 0 12 -4 4 -19z m240
-12 c0 -22 -203 -179 -232 -179 -27 0 -58 18 -58 33 0 9 11 12 34 9 33 -4 71
13 107 47 94 91 149 124 149 90z m816 -183 c-4 -105 -14 -235 -22 -288 -8 -54
-14 -113 -14 -132 0 -45 -17 -55 -31 -19 -10 28 -2 184 21 363 5 41 9 110 10
152 0 84 13 133 31 122 9 -5 10 -59 5 -198z m100 109 c-6 -66 -15 -135 -30
-215 -3 -19 -3 -28 0 -20 19 41 84 67 84 33 0 -23 -9 -35 -44 -57 -28 -18 -29
-20 -23 -85 5 -72 -4 -159 -20 -170 -5 -3 -13 -15 -17 -26 -6 -16 -9 -17 -16
-5 -14 21 -12 30 5 30 18 0 19 14 4 41 -15 29 -21 232 -9 298 6 31 15 100 19
153 10 110 16 125 38 106 12 -10 14 -26 9 -83z m-3277 41 c24 -29 -41 -106
-91 -106 -41 0 -36 23 18 75 50 49 56 52 73 31z m311 -8 c0 -12 -17 -39 -37
-60 -28 -29 -45 -38 -70 -38 -50 0 -43 31 18 80 58 45 89 52 89 18z m1444 -19
c3 -17 6 -47 6 -65 0 -51 28 -45 36 7 11 69 23 29 30 -105 7 -122 6 -128 -12
-124 -10 2 -20 12 -23 23 -2 11 -18 43 -36 70 -53 80 -84 157 -78 188 3 15 9
27 14 27 5 0 12 -12 16 -27 l7 -28 8 33 c11 41 24 41 32 1z m-1594 6 c0 -8
-16 -30 -37 -50 -26 -26 -45 -35 -69 -35 -47 0 -51 16 -12 51 49 47 118 67
118 34z m2485 -46 c22 -22 51 -47 65 -54 24 -13 29 -11 68 27 23 22 47 38 53
36 7 -2 -5 -19 -26 -38 -21 -19 -45 -43 -54 -52 -29 -33 -46 -22 -141 85 -45
51 -15 48 35 -4z m-1094 0 c13 -12 31 -26 39 -33 17 -12 70 -79 70 -88 0 -3
-7 -9 -16 -12 -22 -9 -54 11 -54 34 0 10 -7 23 -15 27 -21 12 -65 75 -59 84 7
12 8 12 35 -12z m1004 -129 c3 0 13 -8 23 -17 10 -10 43 -40 73 -67 30 -27 88
-81 130 -120 132 -123 261 -240 288 -261 56 -42 186 -165 211 -200 11 -15 5
-13 -22 8 -20 15 -39 27 -43 27 -3 0 -18 13 -33 28 -15 15 -48 45 -74 65 -25
20 -65 55 -88 77 -23 22 -44 40 -46 40 -2 0 -21 17 -42 39 -20 21 -75 71 -122
111 -47 40 -102 90 -122 111 -21 22 -40 39 -43 39 -2 0 -26 21 -53 48 -26 26
-59 56 -73 68 -33 28 -99 104 -99 114 0 4 -7 11 -16 14 -8 3 -12 11 -9 16 4 7
38 -21 81 -64 41 -42 77 -76 79 -76z m465 -13 c0 -130 -8 -182 -26 -165 -7 8
-6 297 2 310 17 26 24 -19 24 -145z m-1539 96 c67 -71 164 -199 243 -321 44
-67 83 -122 88 -122 12 0 10 68 -2 75 -5 3 -10 19 -10 35 0 22 -13 43 -50 80
-27 28 -50 54 -50 60 0 17 18 20 30 5 6 -7 31 -21 55 -31 43 -16 44 -17 47
-68 4 -68 28 -74 58 -14 30 60 66 102 79 93 16 -10 5 -40 -30 -77 -16 -18 -29
-37 -29 -43 0 -6 -6 -17 -12 -23 -7 -7 -17 -29 -23 -49 -5 -20 -19 -41 -30
-47 -11 -6 -22 -12 -24 -13 -2 -1 24 -58 58 -126 33 -68 61 -130 61 -138 0 -8
7 -23 15 -33 8 -11 15 -30 15 -42 0 -13 5 -26 10 -29 6 -3 10 -18 10 -32 0
-24 -1 -24 -27 13 -14 21 -50 84 -78 139 -29 55 -71 136 -95 180 -49 92 -188
306 -270 415 -67 90 -90 126 -90 140 0 19 16 10 51 -27z m1903 -30 c-20 -56
-38 -78 -53 -69 -21 13 -10 51 27 94 43 49 51 42 26 -25z m375 46 c43 -15 103
-119 130 -224 4 -17 13 -40 19 -52 14 -25 16 -83 3 -83 -5 0 -26 21 -47 48
-42 52 -93 107 -167 183 -31 31 -43 49 -33 49 9 0 16 -4 16 -10 0 -5 7 -10 15
-10 8 0 15 -7 15 -15 0 -8 5 -15 10 -15 6 0 10 7 10 15 0 8 -4 15 -10 15 -5 0
-10 7 -10 15 0 8 -4 15 -10 15 -5 0 -10 7 -10 15 0 8 4 15 10 15 5 0 12 11 16
25 3 14 7 25 9 25 1 0 16 -5 34 -11z m-834 -19 c8 -25 -3 -62 -16 -55 -12 8
-12 75 0 75 5 0 13 -9 16 -20z m549 -28 c-4 -20 -16 -59 -27 -87 -33 -83 -58
-149 -67 -175 -5 -14 -18 -50 -30 -80 -12 -30 -26 -68 -30 -85 -17 -60 -37
-106 -53 -122 -33 -34 -32 -4 5 102 6 17 13 46 15 65 3 19 10 40 15 47 5 6 13
24 18 40 5 15 18 53 29 83 12 30 21 64 21 76 0 11 9 29 20 39 11 10 20 24 20
30 0 14 36 97 46 108 15 15 24 -7 18 -41z m-2109 -34 c3 -18 13 -48 21 -65 40
-89 43 -99 88 -263 27 -100 39 -154 46 -205 4 -27 12 -63 18 -78 7 -16 12 -43
12 -61 0 -17 4 -36 9 -42 5 -5 12 -31 16 -58 5 -37 4 -47 -6 -44 -16 5 -109
214 -109 244 0 11 -12 43 -26 69 -14 27 -23 57 -21 67 3 10 1 18 -4 18 -5 0
-9 13 -9 29 0 17 -12 52 -26 78 -17 31 -28 70 -31 111 -3 34 -9 62 -13 62 -8
0 -4 102 6 148 6 32 21 27 29 -10z m1276 -18 c29 -27 48 -50 42 -50 -6 0 -35
23 -64 50 -29 28 -48 50 -42 50 6 0 35 -22 64 -50z m-950 -30 c5 0 9 -7 9 -15
0 -17 -45 -21 -55 -5 -9 15 5 32 22 26 8 -3 19 -6 24 -6z m377 -9 c15 -9 40
-111 72 -291 6 -36 17 -96 25 -135 39 -196 51 -292 46 -349 -5 -47 -91 254
-91 316 0 13 -6 52 -14 88 -19 86 -35 173 -46 240 -4 30 -12 74 -15 98 -7 42
-2 49 23 33z m282 -63 c118 -131 430 -438 446 -438 2 0 12 -8 22 -17 19 -19
56 -50 110 -95 18 -15 28 -30 22 -33 -6 -3 -13 1 -16 9 -3 9 -10 16 -15 16
-13 0 -109 72 -109 82 0 4 -4 8 -10 8 -5 0 -18 8 -28 18 -10 9 -40 35 -67 57
-64 52 -244 232 -315 314 -30 36 -63 73 -72 83 -10 10 -18 22 -18 27 0 5 -7
11 -15 15 -15 6 -21 26 -7 26 4 0 36 -33 72 -72z m-404 41 c3 -6 -3 -24 -15
-40 -11 -15 -21 -33 -21 -39 0 -15 -20 -12 -26 5 -6 15 32 85 46 85 5 0 12 -5
16 -11z m484 -4 c10 -13 9 -15 -9 -15 -12 0 -21 6 -21 15 0 8 4 15 9 15 5 0
14 -7 21 -15z m-906 -74 c12 -22 15 -36 8 -43 -12 -12 -32 -2 -32 16 0 8 -7
27 -15 42 -35 68 -1 54 39 -15z m1399 -30 c-3 -20 -12 -42 -19 -50 -11 -13
-14 -12 -20 4 -4 10 -2 26 4 36 7 10 12 27 12 37 0 10 3 22 7 25 12 13 21 -16
16 -52z m-105 30 c3 -8 -1 -12 -9 -9 -7 2 -15 10 -17 17 -3 8 1 12 9 9 7 -2
15 -10 17 -17z m-153 -43 c46 -39 175 -165 175 -172 0 -19 -28 2 -97 72 -90
90 -118 122 -110 122 3 0 17 -10 32 -22z m-2904 -47 c-6 -11 -11 -33 -11 -50
0 -24 4 -31 20 -31 11 0 20 6 20 13 0 9 2 9 9 -1 5 -8 42 -18 87 -23 130 -16
118 -26 -46 -39 -67 -5 -124 -11 -127 -13 -2 -3 49 -8 114 -11 65 -4 134 -10
153 -14 l35 -6 -40 -7 c-22 -4 -87 -8 -145 -9 -63 0 -125 -6 -154 -15 -61 -19
-74 -9 -47 36 11 19 30 54 43 79 28 57 91 137 96 122 2 -6 -1 -20 -7 -31z
m426 -30 l-6 -69 77 -8 c126 -12 131 -12 297 26 75 17 100 17 100 0 0 -9 -9
-15 -25 -15 -30 0 -52 -13 -45 -26 9 -14 62 -11 79 6 8 8 26 15 41 15 14 0 28
7 31 15 4 8 16 15 29 15 12 0 28 7 35 15 13 16 40 20 40 7 0 -5 -10 -14 -22
-21 -13 -6 -36 -20 -53 -31 -16 -11 -37 -22 -45 -26 -8 -3 -26 -11 -40 -18
-75 -38 -224 -66 -344 -66 -89 0 -225 16 -238 29 -12 10 75 221 91 221 2 0 1
-31 -2 -69z m1818 -48 c8 -119 10 -129 19 -78 16 90 23 86 35 -21 6 -43 17
-119 26 -169 24 -129 29 -175 17 -175 -5 0 -17 10 -25 23 -14 21 -13 24 4 36
22 13 29 4 -88 128 -29 30 -53 62 -53 71 0 10 -7 26 -15 36 -19 25 -19 107 0
132 13 18 14 16 16 -21 0 -22 4 -51 8 -65 l7 -25 8 23 c9 27 -1 99 -15 108
-16 10 21 94 41 94 5 0 11 -44 15 -97z m605 87 c12 -8 9 -10 -12 -10 -16 0
-28 5 -28 10 0 13 20 13 40 0z m-373 -91 c37 -74 53 -154 53 -263 0 -66 -2
-77 -16 -74 -16 3 -54 102 -54 143 0 12 -6 45 -14 75 -8 30 -17 86 -21 124
-10 88 6 86 52 -5z m-1533 45 c23 -9 20 -24 -4 -24 -11 0 -20 7 -20 15 0 17 2
18 24 9z m1966 -25 c0 -5 -11 -9 -25 -9 -26 0 -34 15 -12 23 16 5 37 -3 37
-14z m-1020 -55 c0 -9 -7 -14 -17 -12 -25 5 -28 28 -4 28 12 0 21 -6 21 -16z
m1075 6 c8 -13 -20 -24 -41 -16 -20 8 -9 26 16 26 10 0 22 -5 25 -10z m1129
-27 c3 -10 15 -31 25 -48 17 -26 55 -100 119 -233 21 -45 5 -59 -34 -30 -36
27 -104 102 -104 114 0 5 -11 21 -24 35 -31 34 -48 67 -40 80 3 6 6 27 6 47 0
36 11 52 34 52 7 0 14 -8 18 -17z m-1044 -38 c0 -9 -9 -15 -25 -15 -24 0 -32
10 -18 23 12 13 43 7 43 -8z m-2090 -57 c0 -26 -23 -93 -34 -100 -19 -13 -25
-9 -34 25 -6 17 -13 40 -17 49 -5 13 -1 20 16 27 34 14 69 13 69 -1z m2145 2
c8 -13 -20 -24 -41 -16 -20 8 -9 26 16 26 10 0 22 -5 25 -10z m-1125 -31 c0
-11 -4 -17 -10 -14 -5 3 -10 13 -10 21 0 8 5 14 10 14 6 0 10 -9 10 -21z
m-1704 -34 c99 -58 229 -205 299 -337 14 -28 16 -41 8 -49 -11 -11 -22 -5
-198 110 -22 14 -58 35 -80 45 -22 10 -47 22 -56 26 -32 16 -142 40 -179 40
-49 0 -61 -16 -18 -25 44 -9 150 -61 218 -106 110 -74 221 -201 274 -314 10
-22 23 -48 27 -57 21 -41 4 -31 -71 43 -45 44 -93 87 -108 96 -15 10 -47 34
-72 54 -42 35 -127 87 -178 109 -12 5 -25 16 -28 24 -3 8 -17 17 -32 21 -15 3
-37 16 -49 27 -12 11 -41 22 -66 25 -45 5 -157 -13 -157 -26 0 -12 -71 -34
-80 -25 -4 5 -10 28 -14 51 -7 48 8 70 84 119 56 36 69 52 70 84 1 35 43 85
65 76 14 -5 16 -14 12 -41 -7 -44 3 -44 50 -1 64 56 90 66 166 61 51 -3 80
-11 113 -30z m2884 15 c9 -17 8 -20 -10 -20 -11 0 -20 2 -20 4 0 2 -3 11 -6
20 -9 24 23 20 36 -4z m-2600 -41 l45 -41 3 35 c4 46 26 54 52 18 11 -16 20
-34 20 -39 0 -6 6 -23 14 -39 18 -35 35 -102 46 -173 4 -30 13 -74 19 -96 15
-56 17 -155 4 -179 -10 -17 -14 -14 -35 30 -12 28 -26 52 -30 53 -5 2 -8 11
-8 21 0 41 -118 249 -221 388 -35 47 -32 63 14 63 23 0 44 -11 77 -41z m240
-38 c0 -16 6 -46 14 -67 27 -77 31 -194 7 -194 -9 0 -35 60 -55 129 -19 66
-31 174 -22 198 7 16 10 15 32 -10 13 -15 24 -41 24 -56z m2916 37 c-10 -59
-25 -83 -26 -38 0 45 10 80 22 80 7 0 8 -16 4 -42z m-1696 -22 c0 -5 -7 -1
-15 10 -8 10 -14 24 -14 29 0 6 6 1 14 -9 8 -11 15 -24 15 -30z m1870 8 c0
-34 -17 -64 -37 -64 -12 0 -14 7 -9 32 11 55 46 80 46 32z m126 -51 c8 -29
-11 -116 -27 -121 -5 -2 -9 -9 -9 -16 0 -17 -74 -69 -78 -56 -4 10 25 95 38
115 4 6 14 31 24 58 20 52 42 61 52 20z m-1246 -116 c0 -122 -16 -120 -23 3
-5 89 -1 114 14 104 5 -3 9 -51 9 -107z m-493 67 c22 -21 24 -25 9 -23 -10 2
-25 14 -34 27 -19 29 -9 28 25 -4z m407 -30 c11 -83 8 -134 -9 -134 -12 0 -15
13 -15 59 0 32 -3 73 -6 90 -5 24 -3 31 8 31 11 0 17 -15 22 -46z m1414 -39
c6 -64 -6 -86 -94 -172 -78 -76 -104 -95 -104 -76 0 12 62 118 91 155 16 20
36 54 45 75 31 74 57 82 62 18z m102 -57 c11 -24 20 -57 20 -74 0 -25 9 -39
46 -69 l46 -38 -4 -91 c-3 -76 -8 -100 -31 -146 -43 -84 -116 -150 -197 -178
-50 -18 -52 -16 -20 35 17 26 30 59 30 74 0 21 13 38 52 71 63 52 79 68 96 96
15 27 3 28 -43 2 -37 -21 -75 -26 -75 -11 0 5 23 34 50 64 28 31 46 58 41 61
-13 9 -107 -1 -146 -15 -27 -10 -38 -10 -47 -1 -8 8 -2 22 28 58 72 85 94 117
94 135 0 27 18 69 30 69 6 0 20 -19 30 -42z m-4213 -127 c80 -20 121 -35 183
-65 120 -57 277 -194 409 -355 45 -56 52 -69 47 -95 -4 -16 -10 -32 -14 -36
-4 -3 -20 -24 -35 -47 -17 -24 -34 -40 -42 -37 -15 6 -9 38 11 55 8 6 14 16
14 22 0 6 7 19 17 29 12 14 14 23 6 41 -32 70 -297 327 -373 360 -8 4 -22 11
-30 16 -46 26 -80 41 -94 41 -9 0 -28 8 -43 17 -21 14 -51 17 -158 18 -133 0
-133 0 -177 -31 -46 -32 -68 -34 -68 -4 0 38 116 87 212 89 31 1 92 -8 135
-18z m2898 0 c39 -7 90 -17 115 -23 25 -6 65 -14 90 -17 53 -8 70 -17 70 -37
0 -11 -4 -12 -19 -4 -11 5 -41 10 -66 10 -25 0 -56 5 -68 12 -12 6 -67 15
-122 19 -55 4 -131 13 -169 19 -86 14 -765 7 -876 -9 -80 -11 -169 -4 -120 10
14 4 52 8 85 8 33 1 78 8 100 16 33 12 113 14 475 12 291 -2 458 -7 505 -16z
m-65 -60 c36 -7 83 -17 105 -22 22 -6 68 -15 102 -21 84 -14 71 -31 -16 -22
-36 3 -70 10 -76 14 -18 13 -285 22 -300 10 -9 -8 -11 -32 -8 -94 8 -125 -11
-178 -35 -98 -6 20 -14 71 -18 112 -4 50 -12 79 -22 88 -12 9 -83 12 -275 12
-202 0 -258 3 -255 13 3 6 22 15 44 18 69 11 684 3 754 -10z m590 -11 c71 -14
153 -39 159 -48 3 -5 22 -13 41 -19 l35 -11 -32 -1 c-17 -1 -35 4 -38 9 -3 6
-27 10 -53 10 -26 0 -69 7 -96 15 -27 8 -68 15 -91 15 -38 0 -43 -3 -58 -35
-29 -61 -45 -99 -52 -122 -3 -13 -10 -23 -15 -23 -4 0 -11 -10 -15 -22 -4 -16
-8 -19 -12 -9 -3 7 0 32 7 55 32 106 53 163 67 185 16 25 35 25 153 1z m-3376
-15 c8 -8 29 -15 46 -15 18 0 33 -6 36 -15 4 -8 17 -15 30 -15 14 0 27 -7 30
-15 4 -8 15 -15 25 -15 11 0 22 -7 25 -15 4 -8 13 -15 22 -15 17 0 252 -234
252 -251 0 -7 8 -18 17 -25 10 -7 14 -16 10 -20 -4 -4 -31 19 -60 51 -96 109
-198 206 -232 218 -8 4 -15 11 -15 17 0 5 -6 10 -14 10 -7 0 -19 7 -26 15 -7
8 -20 15 -30 15 -10 0 -23 7 -30 15 -7 8 -23 15 -36 15 -12 0 -29 7 -38 15 -8
8 -26 15 -39 15 -13 0 -46 3 -73 7 l-49 7 35 7 c62 11 98 9 114 -6z m1904 -2
c-21 -2 -55 -2 -75 0 -21 2 -4 4 37 4 41 0 58 -2 38 -4z m565 -45 c10 -5 15
-13 12 -18 -8 -13 -573 -12 -580 1 -4 5 16 9 47 10 29 1 112 5 183 9 166 10
315 9 338 -2z m359 -12 c16 -8 48 -18 73 -22 25 -3 45 -10 45 -15 0 -12 -12
-12 -159 7 -146 18 -154 20 -146 34 10 16 156 12 187 -4z m528 -1 c23 -8 54
-15 69 -15 15 0 35 -6 46 -14 11 -7 34 -18 50 -24 l30 -10 -30 -1 c-16 0 -48
3 -70 8 -22 5 -66 12 -97 16 -55 6 -58 5 -67 -18 -15 -40 -31 -42 -31 -6 0 20
9 42 22 56 25 27 24 27 78 8z m-3382 -34 c106 -36 165 -73 255 -163 48 -47 87
-93 87 -101 0 -8 7 -18 16 -21 8 -3 12 -10 9 -16 -8 -13 -25 -13 -25 0 0 11
-154 170 -165 170 -4 0 -24 14 -45 30 -21 17 -44 30 -51 30 -8 0 -23 7 -33 15
-11 8 -32 15 -47 15 -14 0 -43 7 -62 15 -92 38 -324 -12 -398 -86 -22 -22 -39
-17 -39 11 0 23 84 79 154 101 77 25 269 25 344 0z m2358 -43 c13 -13 24 -31
24 -40 0 -10 5 -18 10 -18 6 0 10 -7 10 -15 0 -20 -6 -19 -30 5 -11 11 -20 29
-20 40 0 11 -7 23 -15 26 -8 4 -15 10 -15 15 0 14 11 10 36 -13z m-2428 -14
c64 -15 119 -35 152 -55 8 -5 24 -13 35 -18 26 -12 113 -87 188 -162 32 -32
62 -59 68 -59 5 0 9 -7 9 -15 0 -9 15 -37 33 -64 54 -77 107 -288 107 -421 0
-36 5 -105 10 -155 16 -134 29 -577 18 -597 -5 -10 -32 -29 -61 -44 -28 -14
-72 -36 -97 -49 -96 -51 -178 -85 -203 -85 -33 0 -35 16 -5 26 12 3 54 25 93
48 39 22 105 58 146 79 41 22 80 46 85 55 6 11 7 73 2 167 -4 83 -12 242 -18
355 -6 113 -14 225 -20 250 -5 25 -9 63 -10 85 0 47 -29 143 -66 223 -53 112
-193 267 -296 327 -32 19 -63 35 -69 35 -5 0 -20 6 -32 14 -40 24 -160 40
-210 27 -25 -6 -60 -11 -76 -11 -17 0 -31 -4 -31 -9 0 -5 -13 -12 -30 -16 -16
-4 -30 -11 -30 -16 0 -5 -8 -9 -17 -9 -25 1 31 50 57 50 10 0 20 4 22 9 3 9
136 49 166 50 8 1 44 -6 80 -15z m2277 -8 c18 -16 23 -26 15 -31 -6 -4 -19 0
-29 9 -10 9 -22 16 -28 16 -6 0 -16 7 -23 15 -21 26 33 18 65 -9z m1074 -13
c0 -5 -4 -17 -9 -28 -8 -18 -9 -17 -9 8 -1 15 4 27 9 27 6 0 10 -3 9 -7z
m1171 -39 c0 -9 -13 -36 -30 -61 -16 -24 -30 -47 -30 -50 0 -3 -13 -22 -30
-43 -16 -21 -30 -42 -30 -48 0 -5 -7 -12 -15 -16 -8 -3 -15 -12 -15 -21 0 -8
-5 -15 -10 -15 -6 0 -14 -8 -17 -17 -4 -10 -13 -24 -20 -31 -32 -32 -13 -55
100 -121 20 -13 37 -26 37 -31 0 -19 -22 -21 -48 -3 -36 24 -64 41 -82 49 -8
4 -19 13 -23 21 -4 7 -14 13 -21 13 -8 0 -19 7 -26 15 -12 14 -3 38 32 80 24
29 81 111 138 198 60 91 90 118 90 81z m-4657 -47 c-30 -51 -36 -57 -49 -46
-11 9 -8 16 14 39 26 27 50 31 35 7z m117 8 c0 -20 -59 -115 -72 -115 -19 0
-1 81 23 106 25 27 49 31 49 9z m2018 -17 c2 -8 -5 -18 -15 -21 -28 -10 -52
-27 -123 -88 -86 -73 -139 -113 -145 -107 -7 6 142 159 190 195 61 46 87 51
93 21z m-1918 -8 c0 -5 -7 -10 -15 -10 -8 0 -15 5 -15 10 0 6 7 10 15 10 8 0
15 -4 15 -10z m67 -47 c3 -7 -11 -19 -29 -27 -18 -7 -48 -26 -67 -40 -19 -14
-41 -26 -48 -26 -18 0 -16 36 2 52 9 7 24 20 33 29 29 29 101 36 109 12z
m4482 3 c10 -11 9 -20 -2 -38 -32 -52 -77 -273 -77 -375 0 -104 36 -314 71
-418 6 -16 15 -43 19 -60 10 -36 37 -109 49 -133 4 -9 16 -35 26 -57 9 -22 21
-47 26 -55 5 -8 14 -24 19 -35 6 -11 19 -33 30 -50 11 -16 24 -40 29 -52 10
-22 80 -73 100 -73 23 0 91 -43 91 -57 0 -17 -32 -13 -85 11 -16 8 -49 22 -73
32 -46 19 -65 46 -142 205 -46 94 -60 123 -85 189 -9 25 -22 56 -27 70 -14 33
-37 123 -49 187 -5 29 -14 64 -19 78 -6 15 -10 104 -10 198 0 176 6 224 52
380 20 67 35 80 57 53z m-1664 -11 c0 -13 -539 -19 -795 -8 l-195 8 135 6
c233 9 855 5 855 -6z m545 8 c173 -10 105 -21 -132 -22 -179 -1 -208 1 -208
14 0 12 19 15 113 15 61 0 164 -3 227 -7z m-3719 -113 c13 -10 19 -49 9 -55
-5 -3 -13 2 -16 12 -3 10 -17 39 -30 64 -13 26 -24 57 -24 70 1 18 8 10 28
-31 15 -30 30 -57 33 -60z m1967 103 c-16 -2 -40 -2 -55 0 -16 2 -3 4 27 4 30
0 43 -2 28 -4z m1414 -74 c31 -33 58 -70 60 -82 2 -12 13 -26 26 -32 29 -13
28 -33 -3 -47 -16 -7 -29 -25 -35 -47 -6 -20 -17 -47 -25 -61 -14 -24 -14 -23
-15 31 0 79 -34 143 -79 147 -18 2 -38 -2 -46 -8 -19 -16 -113 -49 -119 -42
-12 11 -5 22 13 22 11 0 21 3 23 8 2 4 29 25 61 47 l59 39 30 -17 c51 -29 46
-8 -9 43 -60 55 -67 73 -25 64 15 -3 52 -31 84 -65z m1309 38 c-13 -13 -26 -3
-16 12 3 6 11 8 17 5 6 -4 6 -10 -1 -17z m-4216 -39 c11 -27 11 -42 1 -82 -7
-28 -18 -52 -23 -53 -11 -4 -43 55 -43 78 0 20 33 89 42 89 5 0 15 -15 23 -32z
m1302 11 c24 -11 52 -32 63 -46 25 -32 45 -96 37 -117 -9 -24 -27 -19 -27 7
-1 33 -50 97 -95 123 -47 27 -126 32 -145 9 -14 -17 -50 -20 -50 -5 0 6 11 15
24 20 13 5 27 14 31 19 11 19 115 13 162 -10z m1381 -4 c34 -4 62 -11 62 -16
0 -5 -8 -10 -17 -10 -14 -1 -480 0 -550 1 -30 0 -10 20 30 29 43 10 363 7 475
-4z m367 -1 c105 -12 113 -18 35 -24 -90 -8 -110 -4 -110 22 0 15 4 18 18 13
9 -4 35 -9 57 -11z m1145 -4 c0 -11 -7 -23 -15 -26 -8 -4 -15 -13 -15 -20 0
-8 -7 -17 -15 -20 -8 -4 -15 -13 -15 -20 0 -8 -6 -17 -14 -20 -8 -3 -17 -15
-20 -27 -4 -18 -8 -19 -18 -9 -11 11 -10 16 5 26 9 7 17 20 17 29 0 8 7 17 15
21 8 3 15 12 15 21 0 8 7 15 15 15 9 0 15 9 15 25 0 16 6 25 15 25 8 0 15 -9
15 -20z m-4310 -38 c16 -46 11 -57 -18 -48 -22 7 -36 47 -27 77 10 30 28 18
45 -29z m-227 -6 c18 -7 52 -21 77 -31 180 -71 312 -174 361 -284 24 -55 26
-171 3 -237 -21 -64 -63 -123 -86 -124 -11 0 -10 27 2 48 28 51 39 96 44 181
7 111 -1 134 -75 210 -67 68 -111 96 -283 176 -66 31 -98 54 -90 67 7 11 11
10 47 -6z m2485 -32 c82 -35 108 -47 122 -55 8 -5 27 -14 43 -20 15 -6 27 -15
27 -20 0 -5 9 -9 19 -9 26 0 51 -10 51 -21 0 -14 -45 -11 -77 5 -15 8 -48 22
-73 32 -25 10 -52 23 -60 29 -27 21 -105 45 -145 45 -64 0 -119 12 -103 21 23
15 157 10 196 -7z m188 1 c26 -20 163 -20 211 0 40 17 93 20 93 5 0 -5 -12
-12 -27 -15 -16 -4 -40 -13 -55 -21 -34 -19 -175 -19 -225 0 -21 8 -51 17 -66
20 -15 4 -25 11 -22 16 9 15 69 12 91 -5z m838 6 c6 -9 -40 -21 -85 -21 -30 0
-47 15 -27 23 22 9 107 7 112 -2z m1240 -50 c-1 -21 -9 -62 -19 -91 -14 -43
-17 -74 -12 -159 8 -159 33 -261 101 -414 8 -17 17 -39 20 -47 9 -22 24 -46
87 -130 63 -85 75 -110 54 -110 -21 0 -100 96 -156 189 -27 45 -49 86 -49 91
0 5 -6 24 -14 42 -62 146 -79 233 -79 411 -1 122 3 162 17 202 10 28 20 56 22
64 9 27 29 -8 28 -48z m-4310 13 c21 -21 20 -30 -6 -48 -30 -21 -58 -20 -58 2
0 20 27 62 40 62 5 0 16 -7 24 -16z m888 -33 l32 -28 -23 -12 c-15 -9 -20 -18
-16 -32 8 -25 -15 -25 -46 0 l-23 18 21 14 c19 11 20 14 6 24 -17 13 -12 45 7
45 5 0 24 -13 42 -29z m3178 -5 c0 -8 -4 -18 -10 -21 -5 -3 -10 3 -10 14 0 12
5 21 10 21 6 0 10 -6 10 -14z m-2012 -23 c2 -8 -5 -13 -18 -13 -11 0 -32 -7
-45 -16 -37 -24 -63 4 -33 34 16 16 90 11 96 -5z m463 -4 c58 -41 17 -54 -61
-18 -35 16 -41 22 -30 29 24 16 60 11 91 -11z m225 9 c8 -13 -22 -38 -48 -38
-24 0 -35 29 -17 41 20 12 57 11 65 -3z m-1592 -33 c11 -8 30 -15 42 -15 29 0
54 -10 54 -21 0 -16 -90 -10 -116 7 -19 13 -30 14 -47 6 -21 -10 -21 -11 11
-17 39 -9 46 -18 33 -44 -10 -18 -11 -18 -51 1 -22 11 -40 22 -40 24 0 3 7 20
14 39 13 30 20 35 48 35 18 0 42 -7 52 -15z m958 -7 c-12 -12 -35 -1 -27 12 3
5 13 6 21 3 10 -4 12 -9 6 -15z m-2068 6 c9 -3 16 -12 16 -19 0 -16 -23 -25
-66 -25 -42 0 -46 22 -6 37 35 14 37 14 56 7z m269 -47 c35 -27 49 -57 26 -57
-17 0 -109 64 -109 76 0 31 27 25 83 -19z m-682 15 c15 -18 44 -75 68 -135 12
-29 15 -67 6 -67 -10 0 -54 55 -55 67 0 7 -9 17 -19 23 -16 8 -41 81 -41 120
0 16 25 11 41 -8z m2743 12 c26 -10 18 -24 -13 -24 -30 0 -46 12 -34 24 8 8
27 8 47 0z m-2642 -21 c17 -16 26 -82 12 -96 -6 -6 -35 42 -54 91 -8 17 -6 22
7 22 9 0 25 -7 35 -17z m4212 -28 c39 -16 49 -45 16 -45 -26 0 -100 37 -100
50 0 15 43 12 84 -5z m-1277 -13 c23 -14 -126 -22 -357 -21 -312 2 -493 12
-498 27 -3 10 83 11 418 7 232 -3 428 -9 437 -13z m408 -2 c4 -6 -16 -10 -52
-9 -42 0 -52 3 -38 9 28 12 83 12 90 0z m-2958 -64 c15 -66 5 -129 -28 -183
-12 -18 -22 -33 -23 -33 -5 0 4 232 10 258 8 39 27 19 41 -42z m713 4 c0 -47
-4 -62 -16 -67 -40 -15 -52 68 -16 110 25 29 32 20 32 -43z m275 24 c6 -6 22
-14 38 -18 35 -8 35 -26 0 -26 -29 0 -113 37 -113 50 0 21 56 17 75 -6z
m-1263 -44 c8 -40 -8 -308 -18 -319 -9 -10 -33 36 -35 64 -4 61 1 251 7 278 9
44 37 31 46 -23z m4516 38 c15 -15 16 -38 1 -38 -12 0 -38 29 -39 43 0 11 25
8 38 -5z m-4064 -21 c6 -9 7 -19 3 -23 -9 -9 -37 15 -37 33 0 18 20 12 34 -10z
m2181 4 l90 -7 -50 -9 c-60 -11 -281 -11 -655 1 l-275 9 285 5 c440 8 508 8
605 1z m840 -1 c4 -6 -8 -13 -25 -17 -18 -3 -34 -12 -37 -19 -3 -8 -20 -14
-39 -14 -22 0 -37 -6 -40 -15 -4 -8 -18 -15 -34 -15 -15 0 -33 -7 -40 -15 -7
-8 -23 -15 -35 -15 -12 0 -28 -7 -35 -15 -7 -8 -25 -15 -40 -15 -15 0 -33 -7
-40 -15 -7 -8 -25 -15 -40 -15 -15 0 -33 -7 -40 -15 -7 -8 -25 -15 -40 -15
-15 0 -33 -7 -40 -15 -7 -8 -25 -15 -39 -15 -15 0 -36 -7 -47 -15 -10 -8 -32
-15 -49 -15 -16 0 -43 -7 -59 -15 -15 -8 -41 -15 -57 -15 -17 0 -32 -6 -35
-15 -4 -9 -19 -15 -38 -15 -18 0 -41 -7 -52 -15 -10 -8 -30 -15 -44 -15 -14 0
-34 -7 -44 -15 -11 -8 -29 -15 -40 -15 -12 0 -30 -7 -40 -15 -11 -8 -29 -15
-41 -15 -12 0 -30 -7 -41 -15 -10 -8 -28 -15 -39 -15 -11 0 -29 -6 -40 -14
-11 -7 -31 -16 -45 -19 -14 -3 -50 -15 -80 -27 -30 -12 -68 -25 -85 -30 -16
-4 -41 -12 -55 -18 -14 -5 -52 -18 -85 -27 -33 -10 -75 -24 -93 -31 -18 -8
-40 -14 -48 -14 -9 0 -38 -8 -63 -17 -30 -10 -55 -13 -67 -8 -16 7 -14 9 16
19 19 6 45 17 57 24 12 6 31 12 42 12 10 0 32 6 48 14 35 17 86 35 138 47 22
6 44 14 50 20 5 5 18 9 30 9 12 0 30 7 41 15 10 8 26 15 34 15 8 0 28 7 44 15
15 8 33 15 38 15 6 0 24 6 41 14 18 8 41 16 52 19 11 3 45 15 75 27 30 12 69
25 85 30 17 5 46 14 65 21 19 6 51 17 70 24 19 7 51 18 70 25 19 6 51 16 70
20 19 4 51 14 70 20 19 7 51 18 70 25 19 7 51 18 70 24 19 7 49 16 65 20 17 4
39 12 50 18 26 13 81 33 124 43 18 5 38 13 44 19 6 6 23 11 38 11 15 0 32 7
39 15 7 8 25 15 40 15 15 0 33 7 40 15 7 8 23 15 35 15 12 0 28 7 35 15 14 17
56 20 65 5z m-287 -7 c-26 -2 -71 -2 -100 0 -29 2 -8 3 47 3 55 0 79 -1 53 -3z
m1066 -8 c-6 -14 -262 -145 -285 -145 -7 0 -4 8 7 18 37 33 83 62 97 62 8 0
20 7 27 15 7 8 18 15 24 15 7 0 17 5 24 12 14 14 68 35 94 37 11 1 15 -4 12
-14z m-3042 -42 c29 -26 26 -53 -29 -258 -9 -33 -22 -71 -28 -85 -15 -32 -33
-82 -49 -140 -17 -61 -45 -112 -56 -105 -6 4 -10 24 -10 46 0 21 -4 39 -10 39
-5 0 -10 -11 -10 -25 0 -14 -4 -25 -9 -25 -12 0 -7 75 6 92 6 7 14 32 18 55 4
24 11 45 16 49 5 3 9 20 9 37 0 18 7 41 15 51 8 11 15 29 15 41 0 11 6 29 13
40 7 11 22 49 32 85 20 70 42 120 52 120 4 0 15 -7 25 -17z m2335 -23 c30 0
54 -11 47 -21 -3 -5 -20 -9 -37 -9 -36 1 -82 33 -72 50 5 8 12 6 24 -4 10 -9
27 -16 38 -16z m-3463 -47 c10 -66 7 -100 -15 -127 -28 -36 -39 -20 -39 59 0
77 8 105 30 105 12 0 19 -11 24 -37z m4166 27 c0 -6 -7 -13 -15 -16 -12 -5
-13 -10 -4 -20 17 -20 -27 -56 -62 -50 -14 3 -30 1 -35 -3 -11 -10 -84 -22
-84 -14 0 7 44 48 61 57 8 4 32 18 54 31 42 25 85 32 85 15z m-2210 -76 c0
-52 -2 -55 -22 -52 -29 4 -37 58 -13 94 23 35 35 21 35 -42z m908 50 c11 -8
-137 -15 -185 -8 -52 7 -55 8 -28 14 26 7 205 2 213 -6z m1588 -11 c-3 -8 8
-39 24 -68 33 -59 38 -85 16 -85 -23 0 -76 92 -76 132 0 19 3 37 6 41 11 11
35 -5 30 -20z m-4074 0 c41 -48 46 -103 7 -83 -15 9 -39 64 -39 93 0 13 16 8
32 -10z m1846 -91 c2 -67 0 -83 -13 -88 -8 -4 -22 0 -31 7 -12 10 -14 25 -8
78 12 122 48 124 52 3z m927 66 c-19 -11 -30 -5 -21 11 4 6 14 7 22 4 15 -5
14 -7 -1 -15z m-3741 -83 c-8 -38 -19 -74 -23 -80 -5 -5 -12 -30 -16 -55 -4
-25 -11 -49 -15 -55 -4 -5 -10 -26 -13 -47 -3 -20 -17 -65 -32 -100 -15 -34
-31 -79 -35 -98 -29 -115 -36 -139 -43 -146 -4 -4 -7 -16 -7 -27 0 -10 -6 -33
-13 -50 -24 -57 -36 -100 -31 -108 3 -5 -2 -19 -10 -31 -9 -12 -16 -32 -16
-44 0 -12 -6 -37 -13 -55 -8 -19 -22 -79 -32 -134 -9 -55 -21 -109 -25 -120
-5 -11 -16 -45 -26 -75 -9 -30 -20 -64 -24 -75 -14 -36 -30 -102 -30 -122 0
-10 -6 -25 -12 -31 -7 -7 -14 -23 -15 -35 -4 -43 -9 -62 -21 -84 -7 -12 -12
-36 -12 -52 0 -17 -4 -39 -9 -49 -8 -15 -29 -150 -47 -299 -3 -29 -10 -53 -15
-53 -8 0 -59 73 -59 86 0 3 -6 20 -14 37 -63 144 -65 181 -16 323 22 65 45
133 50 149 4 17 18 55 30 85 12 30 25 69 30 85 4 17 12 41 17 55 13 32 26 68
74 215 22 66 44 129 49 140 9 22 18 60 27 115 l5 35 -25 -36 c-14 -21 -28 -46
-32 -58 -10 -32 -198 -400 -238 -466 -7 -11 -19 -31 -26 -45 l-14 -24 -9 24
c-5 14 -12 77 -15 140 l-5 115 34 45 c19 25 52 71 74 103 43 65 50 75 114 177
25 39 53 83 62 98 10 15 22 36 28 47 6 11 19 34 30 50 11 17 24 39 30 50 13
24 27 46 63 102 15 24 27 45 27 47 0 2 19 37 43 78 54 90 100 172 144 257 55
107 79 105 57 -4z m1443 74 c8 -8 7 -19 -4 -40 -16 -33 -17 -33 -44 -19 -24
13 -25 46 -1 59 22 13 36 13 49 0z m827 -14 c8 -8 22 -15 31 -15 8 0 18 -7 21
-15 4 -8 15 -15 26 -15 11 0 32 -6 46 -13 15 -8 42 -21 60 -30 19 -9 41 -17
51 -17 9 0 26 -7 37 -15 10 -8 30 -15 42 -15 13 0 36 -6 50 -14 15 -8 41 -18
57 -21 29 -7 29 -8 8 -18 -17 -7 -28 -6 -47 7 -32 21 -102 21 -110 1 -6 -16
-33 -20 -60 -9 -28 11 -17 24 20 24 24 0 34 4 32 13 -7 19 -60 21 -70 3 -11
-20 -42 -21 -58 -2 -6 8 -21 16 -32 18 -29 4 -36 28 -9 28 12 0 21 6 21 15 0
20 -40 19 -55 -2 -7 -9 -19 -14 -29 -10 -23 9 -20 27 4 27 11 0 20 7 20 15 0
17 -45 21 -55 5 -3 -5 -14 -10 -23 -10 -16 1 -16 2 1 14 23 18 22 25 -9 36
-14 6 -22 14 -19 20 9 15 31 12 49 -5z m1416 5 c0 -6 -8 -13 -17 -16 -10 -3
-30 -12 -45 -20 -14 -8 -37 -14 -51 -14 -13 0 -30 -7 -37 -15 -15 -18 -74 -21
-68 -2 3 6 19 13 38 15 18 2 39 10 47 18 8 8 27 14 43 14 16 0 30 7 34 15 6
17 56 21 56 5z m-764 -41 c-4 -23 -12 -51 -18 -62 -17 -32 -29 1 -22 57 6 37
11 46 27 46 17 0 19 -5 13 -41z m1233 19 c5 -13 12 -30 15 -38 3 -8 11 -22 18
-31 6 -9 8 -24 5 -33 -6 -14 -11 -13 -43 9 -56 38 -69 61 -54 91 17 30 48 31
59 2z m-1464 -27 c6 -20 -3 -51 -15 -51 -16 0 -40 38 -34 54 8 22 41 20 49 -3z
m2063 -3 c-2 -6 -11 -15 -19 -19 -52 -25 -69 -31 -81 -26 -9 4 -8 6 4 6 10 1
22 10 28 20 9 17 21 23 63 30 5 0 7 -4 5 -11z m-3943 -73 c-3 -21 -11 -45 -17
-53 -17 -20 -64 -42 -89 -42 -21 0 -21 1 -6 18 10 10 17 26 17 34 0 9 11 23
25 32 14 9 28 29 31 44 10 42 16 47 31 26 10 -13 12 -32 8 -59z m-518 40 c8
-22 -6 -33 -17 -15 -13 20 -12 30 0 30 6 0 13 -7 17 -15z m3157 -4 c7 -10 -23
-20 -43 -13 -11 4 -11 6 0 13 18 11 36 11 43 0z m576 -14 c19 -7 55 -24 80
-37 25 -13 61 -32 80 -42 39 -20 75 -71 66 -94 -8 -21 -22 -17 -63 19 -21 18
-77 55 -125 83 -58 32 -88 55 -88 67 0 20 4 21 50 4z m-3033 -71 c5 -37 3 -46
-10 -46 -11 0 -16 13 -19 48 -3 26 -3 51 0 55 9 17 24 -13 29 -57z m391 17 c0
-40 -45 -163 -60 -163 -5 0 -13 11 -19 24 -8 18 -7 30 5 54 9 17 16 41 16 53
0 22 35 69 51 69 4 0 7 -17 7 -37z m1953 15 c22 -6 39 -14 39 -18 0 -4 -39 -8
-86 -8 -60 0 -93 -5 -109 -16 -14 -9 -31 -16 -39 -16 -9 0 -32 -7 -53 -16 -67
-29 -76 -33 -212 -84 -74 -27 -142 -50 -152 -50 -32 0 -31 20 0 26 17 4 36 13
42 20 6 8 22 14 36 14 13 0 31 7 39 15 9 8 28 15 43 15 16 0 34 7 41 15 7 8
25 15 40 15 15 0 33 7 40 15 7 8 27 15 45 15 20 0 35 6 39 15 3 9 18 15 35 15
17 0 34 6 38 14 5 9 28 16 58 19 28 2 56 4 64 5 7 1 31 -3 52 -10z m199 4 c0
-15 -46 -63 -53 -56 -3 3 4 19 15 35 21 28 38 37 38 21z m-3144 -51 c100 -65
134 -74 283 -70 108 3 131 1 129 -10 -4 -18 -84 -50 -128 -50 -52 -1 -167 26
-215 49 -46 22 -135 95 -135 111 0 13 3 12 66 -30z m4711 17 c23 -22 31 -58
13 -58 -12 0 -40 29 -58 58 -10 19 -10 22 5 22 9 0 27 -10 40 -22z m-289 -95
c-2 -10 -11 -19 -21 -21 -10 -2 -30 -15 -44 -28 -15 -13 -37 -27 -50 -30 -13
-4 -23 -10 -23 -15 0 -5 -8 -9 -17 -9 -13 0 -4 12 27 40 25 22 50 40 57 40 7
0 16 6 20 14 8 12 28 23 46 25 5 1 7 -7 5 -16z m-3800 -23 c31 -19 41 -43 23
-55 -16 -9 -81 35 -81 56 0 24 17 24 58 -1z m2082 6 c0 -8 -12 -19 -27 -25
-16 -6 -56 -29 -90 -51 -35 -22 -63 -37 -63 -34 0 13 101 104 115 104 8 0 15
5 15 10 0 6 11 10 25 10 15 0 25 -6 25 -14z m2041 -23 c25 -31 40 -63 29 -63
-16 0 -71 60 -65 70 9 15 20 12 36 -7z m-1076 -39 c17 -25 34 -53 40 -62 24
-41 93 -121 140 -164 51 -46 60 -62 85 -144 20 -68 7 -70 -39 -5 -24 34 -66
88 -95 119 -96 105 -156 200 -171 270 -9 44 5 40 40 -14z m790 6 c7 -33 -5
-56 -40 -71 -11 -5 -28 -14 -37 -21 -22 -16 -35 -2 -21 21 8 13 9 21 1 29 -8
8 -4 18 17 34 27 22 52 36 67 37 3 1 9 -13 13 -29z m-4405 -4 c0 -21 59 -127
97 -174 54 -67 190 -162 230 -162 21 0 63 -31 63 -46 0 -41 -162 31 -248 111
-54 50 -142 177 -142 205 0 6 -7 24 -15 41 -9 16 -13 34 -10 39 8 13 25 3 25
-14z m335 -23 c-40 -85 -79 -117 -67 -56 5 25 72 107 81 98 2 -3 -4 -21 -14
-42z m3393 17 c18 -11 36 -30 41 -42 18 -50 30 -92 27 -95 -6 -7 -106 99 -106
112 0 7 -3 20 -6 29 -8 21 4 20 44 -4z m-3488 -35 c13 -16 5 -35 -15 -35 -23
0 -78 52 -64 60 14 10 64 -6 79 -25z m1208 -23 c57 -57 162 -142 192 -155 8
-4 35 -18 59 -32 24 -14 50 -25 58 -25 7 0 16 -7 19 -15 4 -8 14 -15 24 -15
25 0 50 -10 50 -21 0 -14 -44 -10 -66 6 -10 8 -27 15 -36 15 -9 0 -29 7 -45
14 -15 8 -35 18 -43 21 -47 18 -139 87 -190 142 -44 47 -90 107 -90 118 0 12
12 2 68 -53z m742 41 c-1 -19 -19 -31 -81 -51 -73 -24 -89 -27 -89 -12 0 6 6
10 13 10 6 0 24 6 39 14 15 8 40 17 57 21 17 4 33 11 36 16 7 11 25 12 25 2z
m126 -38 c18 -27 12 -45 -15 -45 -16 0 -84 -86 -146 -182 -9 -16 -23 -28 -31
-28 -26 0 -25 21 5 59 17 21 31 42 31 46 0 4 14 24 30 45 17 21 30 43 30 49 0
5 8 15 19 20 13 7 17 18 14 36 -5 22 -2 25 21 25 16 0 31 -9 42 -25z m442 13
c-3 -7 -18 -15 -34 -16 -16 -2 -33 -10 -37 -18 -4 -8 -21 -14 -36 -14 -16 0
-34 -7 -41 -15 -7 -8 -26 -15 -42 -15 -16 0 -31 -6 -34 -15 -4 -10 -20 -15
-49 -15 -26 0 -47 -6 -55 -15 -14 -17 -66 -20 -75 -5 -3 6 2 13 12 16 10 3 32
12 50 20 17 8 42 14 55 14 12 0 32 7 42 15 11 8 31 15 45 15 14 0 35 7 45 15
11 8 31 15 45 15 14 0 35 7 45 15 24 18 69 20 64 3z m-2613 -39 c22 -23 55
-48 73 -56 38 -16 38 -37 -1 -41 -21 -3 -38 7 -77 48 -28 28 -50 60 -50 71 0
28 11 24 55 -22z m220 -45 c-9 -19 -20 -34 -25 -34 -6 0 -10 -5 -10 -11 0 -14
-50 -62 -57 -55 -3 3 8 22 23 43 39 52 53 73 67 107 11 26 12 27 15 7 2 -13
-4 -38 -13 -57z m3024 49 c6 -16 33 -68 61 -118 27 -49 53 -97 56 -105 13 -31
47 -97 80 -155 32 -57 37 -67 49 -97 3 -7 9 -21 15 -30 17 -30 28 -51 55 -103
44 -85 76 -137 132 -212 29 -40 53 -76 53 -80 0 -4 -7 2 -15 13 -14 18 -16 18
-29 2 -16 -21 -26 -23 -26 -5 0 8 -9 22 -20 32 -11 10 -20 22 -20 27 0 5 -12
27 -26 49 -121 192 -368 688 -391 787 -8 31 13 27 26 -5z m-589 -19 c-36 -14
-78 -32 -95 -39 -31 -14 -96 -39 -155 -60 -19 -7 -51 -18 -70 -25 -39 -14
-107 -29 -160 -35 l-35 -5 30 12 c17 6 34 17 38 24 4 8 23 14 41 14 19 0 39 7
46 15 7 8 28 15 47 15 21 0 36 6 39 15 4 10 20 15 44 15 21 0 43 7 50 15 7 8
25 15 40 15 15 0 41 7 56 15 16 8 39 15 52 15 12 0 22 5 22 10 0 6 17 10 38
10 36 -1 35 -1 -28 -26z m-3240 -7 c0 -8 -3 -17 -7 -21 -4 -4 -9 -28 -10 -53
-2 -25 -8 -53 -13 -63 -6 -10 -10 -36 -10 -57 0 -21 -6 -76 -14 -123 -18 -108
-36 -355 -36 -485 1 -110 22 -338 40 -425 33 -161 63 -272 86 -328 8 -18 14
-40 14 -48 0 -9 6 -28 14 -42 8 -15 22 -47 31 -72 48 -122 157 -327 221 -414
43 -58 50 -76 38 -89 -9 -9 -56 12 -70 31 -12 16 -14 16 -28 -3 -16 -20 -17
-19 -44 12 -34 40 -40 41 -44 6 -5 -46 -30 -40 -68 17 -8 12 -22 32 -31 44
-20 27 -79 149 -79 163 0 6 -7 13 -15 17 -8 3 -15 14 -15 25 0 11 -4 23 -10
26 -14 9 -23 -40 -11 -63 6 -12 11 -33 11 -49 0 -15 7 -50 15 -77 8 -27 15
-63 15 -80 l-1 -31 -19 38 c-26 53 -60 153 -60 178 0 11 -5 30 -12 42 -6 12
-14 49 -17 82 -8 84 -26 71 -25 -18 2 -80 16 -174 39 -250 18 -61 18 -57 1
-57 -12 0 -32 42 -53 110 -3 12 -8 9 -22 -9 -17 -23 -19 -23 -24 -5 -3 10 -8
42 -12 69 -9 63 -23 94 -36 74 -4 -8 -6 -24 -2 -36 11 -47 -34 -20 -56 33 -28
70 -15 457 24 719 9 55 15 115 15 134 0 40 15 128 75 454 37 194 69 307 142
499 18 49 33 96 33 106 0 10 3 22 7 25 11 11 23 8 23 -6z m3591 -15 c8 -15 32
-57 52 -95 21 -37 58 -101 82 -143 25 -42 45 -78 45 -80 0 -2 12 -23 27 -47
15 -23 32 -50 38 -59 106 -177 206 -329 295 -448 31 -41 66 -91 77 -110 12
-19 30 -44 40 -55 10 -11 31 -38 48 -60 16 -22 34 -45 40 -51 5 -6 24 -28 40
-49 48 -61 117 -148 141 -175 12 -14 41 -47 64 -75 23 -27 51 -60 62 -73 10
-13 17 -29 15 -35 -5 -16 -212 193 -324 328 -277 334 -750 1075 -779 1224 -8
40 15 42 37 3z m-3181 -34 c0 -10 -4 -18 -10 -18 -5 0 -10 15 -10 33 0 24 3
28 10 17 5 -8 10 -23 10 -32z m1081 19 c-13 -13 -26 -3 -16 12 3 6 11 8 17 5
6 -4 6 -10 -1 -17z m-235 -2 c3 -8 14 -17 25 -20 25 -8 24 -22 -1 -30 -41 -13
-84 24 -65 55 9 15 35 12 41 -5z m1304 -4 c0 -12 -29 -23 -41 -15 -5 3 -7 10
-4 15 8 12 45 12 45 0z m-1730 -46 c0 -17 -35 -55 -50 -55 -16 0 -12 20 5 26
8 4 15 15 15 25 0 10 7 19 15 19 8 0 15 -7 15 -15z m206 -13 c27 -20 31 -42 8
-42 -25 0 -84 40 -84 57 0 19 41 11 76 -15z m4089 7 c10 -15 -1 -23 -20 -15
-9 3 -13 10 -10 16 8 13 22 13 30 -1z m-1823 -46 c9 -21 23 -65 32 -98 10 -33
22 -73 28 -90 5 -16 14 -46 18 -65 9 -39 25 -87 46 -138 8 -18 14 -41 14 -50
0 -10 7 -27 15 -38 8 -10 15 -30 15 -44 0 -14 7 -34 15 -44 8 -11 15 -32 15
-46 0 -14 7 -35 15 -46 8 -10 15 -31 15 -45 0 -15 6 -32 14 -38 8 -6 16 -24
19 -39 7 -39 39 -126 73 -195 8 -16 14 -37 14 -47 0 -9 7 -23 15 -30 8 -7 15
-23 15 -35 0 -12 7 -28 15 -35 8 -7 15 -22 15 -34 0 -12 7 -31 15 -42 8 -10
15 -26 15 -35 0 -9 7 -22 15 -29 8 -7 15 -23 15 -35 0 -12 6 -28 14 -35 8 -6
16 -21 18 -32 2 -12 9 -23 16 -26 14 -4 17 40 2 66 -5 9 -16 33 -24 52 -8 19
-31 70 -50 113 -20 42 -36 83 -36 90 0 7 -4 17 -8 22 -5 6 -24 51 -42 100 -18
50 -41 109 -51 132 -11 23 -19 49 -19 57 0 8 -4 18 -10 21 -5 3 -10 16 -10 28
0 12 -6 34 -14 49 -8 14 -17 45 -21 67 -4 23 -10 43 -15 46 -4 3 -11 22 -15
42 -4 21 -10 43 -15 48 -4 6 -17 46 -29 90 -12 44 -26 94 -32 111 -5 17 -9 43
-9 58 0 22 3 25 18 17 10 -5 33 -54 56 -123 21 -62 42 -117 47 -122 5 -6 9
-16 9 -24 0 -7 9 -34 21 -60 11 -26 24 -56 29 -67 5 -11 15 -36 24 -55 8 -19
24 -56 35 -82 12 -26 21 -53 21 -60 0 -8 4 -18 8 -23 5 -6 17 -32 27 -60 27
-77 50 -126 167 -375 137 -288 178 -367 250 -478 10 -15 21 -34 24 -42 7 -15
155 -260 177 -292 20 -29 -5 -45 -46 -30 -23 8 -43 9 -63 3 -16 -5 -46 -12
-67 -15 -45 -6 -67 12 -105 86 -13 23 -39 70 -58 103 -47 83 -222 441 -270
553 -8 17 -21 49 -30 70 -9 20 -22 51 -29 67 -7 17 -27 66 -45 110 -17 44 -36
89 -42 99 -6 11 -14 31 -19 45 -8 28 -25 74 -59 161 -12 30 -25 69 -30 85 -5
17 -14 46 -21 65 -6 19 -17 51 -24 70 -7 19 -20 62 -30 95 -10 33 -23 78 -30
100 -61 195 -108 391 -99 406 10 17 21 9 36 -28z m1883 -13 c8 -13 -14 -52
-26 -45 -15 10 -11 55 5 55 8 0 18 -4 21 -10z m-3331 -166 c109 -94 196 -181
196 -193 0 -27 -37 -5 -109 62 -42 39 -106 99 -142 132 -77 72 -119 125 -119
151 1 14 12 6 48 -32 26 -28 83 -82 126 -120z m-370 135 c6 -5 3 -14 -10 -23
-26 -19 -10 -33 20 -17 38 21 50 8 16 -17 -33 -24 -50 -23 -88 6 -20 16 -22
22 -12 46 9 24 14 27 38 21 15 -3 31 -11 36 -16z m-474 -9 c13 -25 9 -82 -5
-87 -11 -3 -36 86 -28 100 8 13 22 7 33 -13z m1476 -2 c45 -54 59 -123 29
-148 -12 -10 -17 -6 -28 23 -10 23 -30 43 -58 59 -45 24 -52 45 -27 76 17 20
63 14 84 -10z m2775 -61 c-11 -11 -51 9 -51 27 0 24 14 26 37 4 14 -13 20 -25
14 -31z m-4704 -18 c-6 -51 -31 -109 -47 -109 -16 0 -11 31 10 79 11 24 20 54
20 68 0 15 4 22 11 17 7 -4 9 -24 6 -55z m3036 0 c21 -30 46 -65 55 -79 126
-193 217 -328 291 -435 171 -246 239 -350 260 -399 24 -56 24 -56 11 -56 -5 0
-10 7 -10 15 0 8 -9 19 -20 25 -11 6 -20 17 -20 25 0 8 -7 15 -15 15 -8 0 -15
-6 -15 -14 0 -8 7 -21 15 -30 8 -8 15 -17 15 -20 0 -10 127 -193 188 -271 91
-116 243 -302 352 -430 52 -62 112 -132 132 -156 20 -24 50 -59 67 -78 56 -63
30 -96 -36 -45 -28 21 -34 23 -39 10 -10 -27 -30 -18 -73 31 -22 26 -43 44
-46 41 -3 -3 1 -13 10 -21 18 -19 20 -67 3 -67 -7 0 -42 36 -78 80 -36 44 -68
80 -73 80 -4 0 -12 11 -17 25 -5 14 -14 25 -20 25 -5 0 -10 7 -10 15 0 8 -7
15 -15 15 -8 0 -15 -7 -15 -15 0 -9 7 -18 15 -21 8 -4 15 -11 15 -18 0 -6 12
-25 28 -42 32 -37 49 -61 62 -92 5 -12 14 -22 20 -22 5 0 10 -7 10 -15 0 -10
-11 -15 -35 -15 -30 0 -39 6 -62 42 -15 24 -30 45 -33 48 -18 16 -110 139
-110 146 0 5 -20 34 -43 65 -23 32 -48 65 -55 75 -39 59 -79 124 -97 159 -11
22 -24 43 -29 46 -4 4 -3 10 3 13 21 13 11 46 -45 138 -31 51 -59 99 -63 108
-3 8 -22 40 -42 70 -43 67 -82 137 -165 296 -34 67 -67 130 -73 140 -69 124
-261 596 -261 642 0 25 24 6 63 -49z m1390 33 c-3 -13 -16 -25 -32 -28 -14 -4
-32 -11 -39 -17 -9 -7 -16 -7 -24 1 -8 8 -6 13 8 18 10 4 23 13 27 21 4 7 17
13 27 13 10 0 22 5 25 11 11 16 15 6 8 -19z m-3060 -9 c-18 -2 -48 -2 -65 0
-18 2 -4 4 32 4 36 0 50 -2 33 -4z m-1220 -47 c27 -9 20 -26 -12 -26 -34 0
-77 31 -67 49 6 8 14 8 34 -3 15 -8 35 -17 45 -20z m4314 2 c-4 -12 -2 -27 3
-33 5 -6 5 -17 1 -24 -10 -15 -36 -4 -65 28 -18 20 -18 20 15 35 47 20 52 19
46 -6z m-2747 -18 c0 -5 8 -10 18 -10 9 -1 35 -12 57 -25 22 -14 46 -28 53
-31 7 -4 32 -24 54 -46 23 -22 52 -44 65 -49 14 -5 21 -14 17 -23 -7 -18 -25
-11 -67 28 -15 14 -30 26 -32 26 -2 0 -24 14 -48 30 -25 17 -49 30 -53 30 -11
0 -84 64 -84 73 0 4 5 7 10 7 6 0 10 -4 10 -10z m-1233 -32 c32 -12 44 -44 15
-42 -6 1 -24 2 -39 3 -38 2 -57 16 -50 35 8 19 29 20 74 4z m1640 -85 c-2 -16
-4 -3 -4 27 0 30 2 43 4 28 2 -16 2 -40 0 -55z m-437 43 c0 -14 -5 -28 -11
-31 -5 -4 -15 -17 -20 -28 -13 -29 -28 -53 -67 -110 -27 -39 -36 -46 -48 -36
-14 12 -14 12 24 71 9 14 35 56 57 92 42 68 65 83 65 42z m72 -43 c10 -9 18
-25 18 -35 0 -27 -36 -94 -55 -101 -8 -4 -15 -13 -15 -22 0 -34 -31 -65 -66
-65 -40 0 -54 22 -32 48 8 9 18 24 22 32 3 8 15 29 26 45 11 17 23 37 27 45 9
21 46 70 52 70 2 0 13 -7 23 -17z m913 -80 c4 -54 5 -143 1 -198 -14 -226 -27
-397 -41 -525 -8 -74 -22 -207 -30 -295 -19 -189 -45 -367 -55 -378 -5 -5 -17
-6 -29 -2 -18 5 -21 14 -21 63 0 31 7 92 15 135 8 43 15 104 15 135 0 32 7 89
15 127 8 39 15 92 15 119 0 27 7 94 15 150 8 55 16 153 18 216 3 63 10 153 16
200 6 47 13 128 17 180 5 87 10 144 13 163 0 4 7 7 15 7 11 0 16 -24 21 -97z
m-208 -52 c-10 -190 -44 -517 -68 -641 -6 -30 -15 -95 -20 -144 -5 -49 -11
-98 -15 -108 -3 -10 -9 -60 -13 -111 -5 -51 -13 -105 -19 -122 -7 -16 -14 -47
-17 -68 -5 -32 -10 -38 -28 -35 -36 5 -34 57 14 373 6 39 15 102 19 140 4 39
13 102 19 140 32 209 41 279 41 324 0 28 5 72 10 98 6 26 14 77 19 113 10 67
28 147 37 162 3 4 10 5 16 2 7 -5 9 -45 5 -123z m2244 95 c60 -26 122 -97 101
-118 -23 -23 -232 97 -216 124 8 13 78 9 115 -6z m-2136 -182 c-6 -63 -9 -73
-31 -83 -30 -13 -32 -49 -3 -85 27 -34 19 -59 -16 -50 -19 5 -25 2 -25 -9 0
-23 -19 -31 -26 -12 -4 9 1 24 11 35 10 11 19 40 21 71 2 28 9 58 15 65 9 11
8 22 -4 47 -12 24 -14 46 -9 80 8 57 25 62 32 10 7 -51 17 -31 18 35 0 28 4
58 9 65 11 17 16 -82 8 -169z m-2610 136 c4 -6 -7 -13 -24 -16 -17 -4 -31 -10
-31 -15 0 -5 -9 -9 -20 -9 -31 0 -24 18 13 34 39 18 54 19 62 6z m2142 -41
c-4 -28 -10 -56 -15 -63 -5 -6 -12 -22 -15 -36 -8 -37 -27 -89 -71 -192 -35
-82 -104 -217 -133 -262 -18 -26 -33 -50 -33 -52 0 -14 -181 -250 -244 -317
-26 -28 -56 -33 -63 -10 -2 6 25 44 60 85 177 205 302 400 393 615 21 48 41
93 45 98 4 6 12 29 18 50 32 127 69 181 58 84z m-1747 21 c0 -37 -145 -158
-166 -138 -7 8 139 158 153 158 7 0 13 -9 13 -20z m210 -25 c0 -8 -4 -15 -10
-15 -5 0 -10 7 -10 15 0 8 5 15 10 15 6 0 10 -7 10 -15z m1292 -52 c-16 -32
-37 -73 -47 -90 -15 -31 -45 -46 -45 -23 0 12 76 138 98 163 27 30 24 11 -6
-50z m-1432 39 c0 -20 -56 -85 -107 -124 -86 -65 -181 -95 -222 -69 -16 10 -7
16 39 26 92 18 140 46 229 132 42 41 61 52 61 35z m110 -57 c0 -14 -4 -25 -10
-25 -11 0 -14 33 -3 43 11 11 13 8 13 -18z m4108 18 c-15 -2 -42 -2 -60 0 -18
2 -6 4 27 4 33 0 48 -2 33 -4z m-4035 -45 c-3 -18 -11 -40 -17 -48 -6 -8 -20
-33 -31 -55 -19 -40 -95 -145 -127 -177 -10 -10 -18 -21 -18 -26 0 -16 -90
-100 -129 -120 -42 -22 -107 -28 -145 -13 -18 7 -18 8 5 14 13 4 34 7 45 7 32
0 105 35 139 67 30 28 175 214 189 243 11 23 31 57 43 71 5 8 13 26 17 42 10
41 37 36 29 -5z m907 17 c7 -8 17 -15 22 -15 6 0 27 -13 48 -30 21 -16 43 -30
49 -30 7 0 14 -7 17 -15 4 -8 10 -15 16 -15 14 0 75 -49 82 -65 7 -19 -36 -1
-84 36 -19 14 -39 28 -45 30 -32 13 -145 96 -145 106 0 18 25 16 40 -2z m3320
-6 c22 -12 37 -25 34 -30 -8 -14 -48 -11 -70 6 -10 8 -29 15 -41 15 -28 0 -53
10 -53 21 0 17 89 9 130 -12z m-4330 -49 c0 -11 -7 -20 -15 -20 -18 0 -19 12
-3 28 16 16 18 15 18 -8z m190 -19 c0 -10 -7 -24 -15 -31 -8 -7 -15 -18 -15
-24 0 -16 -78 -101 -86 -94 -3 4 8 28 25 53 17 25 31 49 31 52 0 3 9 21 21 39
21 35 39 37 39 5z m-915 5 c40 -14 85 -57 85 -81 0 -29 -22 -25 -60 9 -51 46
-112 50 -157 12 -62 -52 -61 -157 2 -196 43 -27 55 -25 94 11 30 27 33 34 28
70 -3 23 -13 46 -24 54 -10 7 -15 17 -10 21 4 4 19 -3 33 -17 23 -21 25 -30
21 -72 -3 -38 -11 -53 -36 -76 -45 -40 -73 -45 -120 -22 -73 38 -101 127 -62
203 23 46 42 65 83 83 42 18 73 18 123 1z m1665 4 c0 -13 -27 -62 -75 -135
-48 -73 -62 -96 -71 -115 -16 -30 -84 -129 -95 -135 -5 -4 -12 -5 -15 -2 -7 6
28 77 38 77 4 0 8 6 8 13 0 7 27 52 60 100 33 49 60 91 60 93 0 5 42 66 51 74
3 3 8 13 12 23 7 18 27 24 27 7z m3376 -24 c11 -8 30 -16 43 -18 31 -4 40 -28
11 -28 -12 0 -34 6 -48 14 -15 8 -39 17 -54 21 -16 3 -28 10 -28 15 0 15 53
12 76 -4z m-4360 -42 c-9 -8 -16 -22 -16 -30 0 -8 -4 -14 -9 -14 -5 0 -12 -11
-15 -25 -4 -14 -11 -25 -16 -25 -6 0 -10 -4 -10 -10 0 -11 -15 -29 -73 -90
-35 -37 -42 -40 -92 -40 -30 0 -55 2 -55 4 0 2 54 58 119 125 81 83 124 119
134 115 10 -3 20 3 28 18 11 20 14 20 17 6 2 -10 -4 -25 -12 -34z m1064 17 c0
-11 -4 -22 -9 -25 -4 -3 -6 -17 -4 -31 4 -17 0 -27 -11 -31 -11 -4 -14 -13
-11 -24 3 -11 0 -22 -8 -27 -26 -15 -67 -85 -67 -114 0 -16 -9 -38 -20 -49
-11 -11 -20 -24 -20 -29 0 -20 -83 -30 -95 -11 -3 5 6 27 20 49 14 23 25 43
25 46 0 3 26 45 58 93 31 48 60 95 64 105 4 9 12 17 17 17 5 0 12 11 15 25 8
31 46 35 46 6z m766 -34 c8 -21 -10 -120 -23 -124 -18 -6 -27 60 -13 101 12
37 27 46 36 23z m2439 -6 c23 -17 104 -40 160 -47 68 -8 120 -37 160 -91 24
-30 26 -41 22 -96 -2 -34 -16 -96 -30 -137 -14 -41 -33 -102 -43 -135 -22 -78
-45 -135 -62 -151 -19 -20 -72 -17 -126 6 -25 12 -46 23 -46 26 0 2 11 9 25
14 51 19 83 95 111 260 8 47 19 105 25 130 10 42 9 46 -16 66 -33 26 -138 59
-155 49 -16 -10 -8 -57 21 -125 18 -43 23 -74 24 -145 l0 -90 -25 3 c-62 6
-82 4 -90 -8 -15 -24 -29 1 -26 48 2 35 7 48 19 50 25 5 20 16 -12 29 -24 9
-31 19 -36 49 -8 52 -36 146 -46 160 -5 6 -12 31 -15 55 -6 48 12 82 51 92 23
6 96 -2 110 -12z m-3901 -66 c47 -41 90 -84 96 -95 7 -13 8 -52 4 -110 -6 -72
-10 -90 -22 -90 -22 0 -82 60 -82 81 0 9 -7 19 -15 23 -8 3 -15 13 -15 23 0
10 -4 24 -9 32 -8 12 -12 13 -26 1 -24 -20 -95 -178 -95 -211 0 -22 -24 -102
-47 -157 -12 -27 -12 -46 -2 -112 9 -59 10 -83 1 -92 -15 -15 -37 -4 -58 27
-13 20 -14 28 -4 40 6 8 10 22 8 32 -2 14 -12 17 -43 15 -53 -4 -106 39 -124
98 -15 50 -28 43 -39 -20 -4 -23 -14 -47 -23 -53 -22 -14 -60 -2 -92 27 -22
21 -27 34 -27 75 0 40 5 55 25 76 27 26 59 33 70 15 14 -22 46 -7 107 50 34
33 66 60 71 60 4 0 7 9 7 20 0 11 4 20 9 20 9 0 158 196 182 240 19 33 40 60
49 60 4 0 46 -34 94 -75z m-1123 28 c-6 -39 -27 -55 -37 -29 -6 16 20 66 35
66 4 0 5 -17 2 -37z m2485 -78 c-3 -8 -10 -15 -17 -15 -7 0 -9 18 -5 58 7 75
7 75 18 20 6 -27 8 -55 4 -63z m-1623 18 c-8 -19 -36 -55 -73 -89 -53 -51 -28
10 29 68 40 40 54 47 44 21z m1987 -18 c0 -8 -4 -15 -10 -15 -5 0 -10 7 -10
15 0 8 5 15 10 15 6 0 10 -7 10 -15z m1200 6 c0 -17 -18 -21 -24 -6 -3 9 0 15
9 15 8 0 15 -4 15 -9z m-1540 -77 c0 -21 -4 -33 -10 -29 -5 3 -10 19 -10 36 0
16 5 29 10 29 6 0 10 -16 10 -36z m319 20 c3 -2 4 -21 3 -42 -1 -20 -2 -52 -3
-69 0 -27 -5 -33 -22 -33 -32 0 -47 -13 -57 -46 l-8 -29 -1 36 c-1 23 6 43 21
58 17 19 19 27 10 42 -13 21 -16 58 -6 84 5 12 14 15 33 10 14 -4 28 -9 30
-11z m-380 -66 l-2 -73 -7 60 c-6 55 -4 85 6 85 2 0 3 -33 3 -72z m161 27 c0
-79 -213 -368 -372 -505 -90 -78 -147 -115 -159 -103 -6 6 44 62 127 144 164
161 286 318 372 475 16 29 32 23 32 -11z m-224 -183 c-13 -12 -17 8 -10 40 l9
33 3 -33 c2 -19 1 -36 -2 -40z m-771 29 c33 -11 73 -26 88 -34 37 -19 97 -87
97 -109 0 -24 -17 -23 -29 1 -6 10 -33 36 -61 56 -69 51 -169 71 -246 51 -85
-22 -119 -53 -179 -159 -50 -92 -45 -264 13 -388 45 -96 125 -173 187 -181 44
-5 44 -28 0 -28 -141 0 -299 259 -282 460 14 160 103 292 220 329 79 25 117
25 192 2z m1145 -57 c0 -8 10 -14 24 -14 21 0 23 -4 23 -42 -1 -24 -6 -46 -12
-50 -7 -5 -6 -14 3 -28 18 -30 16 -32 -26 -25 -34 5 -40 3 -50 -17 -11 -23
-11 -23 -11 5 -1 15 4 27 9 27 6 0 10 17 10 39 0 22 6 44 15 51 19 16 19 30
-2 45 -9 7 -13 17 -9 24 9 14 26 5 26 -15z m2060 -41 c5 -49 10 -56 73 -115
62 -58 82 -88 57 -88 -12 0 -115 55 -152 82 -26 18 -28 24 -28 92 0 76 4 89
30 84 10 -2 17 -19 20 -55z m-4498 12 c11 -15 10 -95 -2 -95 -16 0 -40 57 -40
96 0 33 2 35 18 23 9 -8 20 -18 24 -24z m1979 -27 c-9 -32 -9 -31 -10 17 0 38
2 46 10 33 6 -11 6 -29 0 -50z m-1189 12 c-1 -13 -11 -34 -22 -45 -11 -12 -20
-27 -20 -33 0 -17 -17 -15 -24 4 -20 51 3 107 42 102 22 -2 26 -7 24 -28z
m-679 -7 c21 -24 28 -133 8 -133 -29 0 -51 32 -51 76 0 71 13 89 43 57z m787
7 c12 -8 11 -13 -11 -37 -34 -37 -65 -93 -74 -132 -9 -43 -25 -39 -25 8 0 40
31 123 58 154 17 19 30 21 52 7z m1022 -32 c5 -50 0 -80 -13 -72 -12 7 -12
114 0 114 5 0 11 -19 13 -42z m2455 -39 c0 -58 2 -64 34 -90 19 -16 39 -29 45
-29 15 0 64 -46 64 -60 0 -31 -73 1 -141 63 -10 9 -23 17 -28 17 -12 0 -20 59
-14 113 4 36 10 47 23 47 14 0 17 -10 17 -61z m-2147 30 c0 -28 -52 -92 -96
-120 -44 -27 -53 -19 -21 18 58 64 70 79 84 101 19 28 33 28 33 1z m2515 -49
c-21 -23 -40 -25 -78 -7 -37 17 -34 37 6 37 17 0 39 5 47 10 10 6 20 5 29 -5
13 -12 12 -17 -4 -35z m-2901 -2 c10 -40 7 -80 -6 -76 -15 5 -24 98 -10 98 5
0 12 -10 16 -22z m-727 -45 c21 -9 65 -28 98 -44 74 -33 166 -74 225 -101 25
-10 60 -26 78 -34 17 -8 47 -20 65 -28 17 -8 48 -21 67 -29 19 -9 71 -30 115
-47 44 -18 94 -38 110 -45 17 -7 50 -21 75 -30 25 -9 59 -23 75 -30 17 -7 48
-19 70 -28 22 -8 76 -29 120 -47 44 -18 96 -38 115 -45 19 -7 69 -27 110 -43
41 -17 84 -33 95 -36 40 -10 110 -38 120 -47 5 -5 18 -9 30 -9 11 0 29 -7 39
-15 11 -8 29 -15 40 -15 12 0 30 -7 40 -15 11 -8 28 -15 37 -15 10 0 30 -6 46
-14 29 -14 44 -20 176 -63 50 -17 77 -31 77 -40 0 -25 -297 -9 -370 20 -30 11
-59 25 -64 29 -6 4 -16 8 -24 8 -7 0 -32 8 -55 19 -23 10 -100 40 -172 66 -71
27 -134 52 -140 57 -5 4 -16 8 -25 8 -8 1 -33 9 -55 20 -22 11 -46 19 -53 20
-7 0 -20 4 -30 9 -35 19 -85 41 -95 41 -5 0 -23 6 -40 14 -18 7 -52 21 -77 31
-25 10 -65 27 -90 37 -25 11 -56 24 -70 29 -14 6 -38 17 -53 25 -16 8 -34 14
-40 14 -7 0 -39 14 -72 30 -33 16 -64 30 -68 30 -5 0 -23 6 -40 14 -90 41
-139 62 -212 92 -84 35 -115 61 -115 99 0 23 -41 65 -64 65 -15 0 -57 46 -49
54 8 8 7 8 50 -11z m1366 -60 c-7 -2 -13 -11 -13 -20 0 -8 -8 -28 -17 -45 -17
-28 -17 -30 -1 -39 10 -6 15 -16 11 -26 -6 -14 -8 -14 -19 2 -12 16 -17 17
-39 5 -14 -7 -25 -19 -25 -26 0 -20 -19 -27 -26 -10 -3 9 2 28 12 44 11 15 19
38 19 52 0 20 4 24 23 22 16 -2 25 4 32 22 6 18 17 26 32 25 13 0 17 -3 11 -6z
m-296 -38 c-10 -7 -17 -17 -17 -23 0 -6 -12 -12 -27 -14 -38 -4 -42 -28 -5
-28 17 0 32 6 35 13 2 6 7 9 11 6 14 -13 -6 -35 -52 -55 -87 -39 -141 -56
-157 -50 -21 8 -10 26 16 26 11 0 22 7 25 15 4 8 17 15 29 15 30 0 55 10 55
21 0 15 -58 10 -74 -7 -10 -9 -24 -13 -36 -9 -20 6 -20 7 3 25 23 18 74 40
144 61 18 5 35 14 38 20 4 5 11 6 17 3 7 -5 5 -11 -5 -19z m-1127 -5 l35 -20
-40 2 c-29 2 -41 8 -43 21 -4 22 4 21 48 -3z m165 -141 c5 -5 17 -9 26 -9 21
0 106 -37 114 -50 3 -6 15 -10 25 -10 10 0 33 -8 52 -17 18 -9 45 -22 60 -30
14 -7 34 -13 43 -13 9 0 29 -6 43 -14 15 -8 63 -28 107 -46 44 -17 94 -37 110
-45 17 -7 50 -20 75 -30 25 -9 59 -23 75 -30 17 -7 48 -19 70 -28 100 -38 123
-46 175 -67 30 -11 64 -25 75 -29 23 -10 95 -38 145 -56 19 -8 69 -27 110 -43
41 -17 86 -32 100 -34 14 -2 25 -10 25 -18 0 -23 -227 -21 -274 3 -19 9 -39
17 -45 17 -6 0 -22 6 -36 13 -14 7 -47 21 -75 31 -58 21 -108 42 -150 61 -16
8 -42 17 -58 21 -15 3 -30 10 -33 15 -3 5 -13 9 -22 9 -9 0 -30 7 -46 15 -15
8 -33 15 -38 15 -5 0 -30 9 -56 21 -65 28 -79 34 -142 59 -30 11 -64 25 -75
30 -11 5 -48 21 -82 36 -35 14 -68 33 -74 41 -7 7 -20 11 -30 8 -14 -5 -19 -1
-19 15 0 25 -25 37 -44 21 -16 -13 -26 -5 -26 21 0 16 -5 19 -29 13 -23 -5
-29 -2 -34 15 -4 16 -11 20 -26 15 -14 -4 -23 0 -31 15 -9 16 -15 18 -30 10
-26 -14 -28 -13 -32 13 -4 22 -9 24 -42 11 -18 -7 -18 -6 -1 20 16 25 21 26
64 20 25 -3 50 -10 56 -15z m1210 12 c7 -12 -12 -24 -25 -16 -11 7 -4 25 10
25 5 0 11 -4 15 -9z m-317 -55 c30 -51 36 -76 18 -76 -22 0 -56 49 -56 81 0
38 14 37 38 -5z m258 -11 c4 -8 12 -15 19 -15 7 0 15 7 19 15 5 15 26 21 26 8
0 -13 -68 -83 -80 -83 -6 0 -10 10 -9 23 2 12 0 28 -4 35 -9 13 -1 32 14 32 5
0 12 -7 15 -15z m58 -83 c5 -9 -32 -46 -57 -55 -21 -8 -15 6 17 39 23 24 32
28 40 16z m-954 -245 c0 -25 -101 -186 -125 -200 -29 -16 -28 21 2 60 16 21
46 66 67 101 39 65 56 77 56 39z"/>
<path d="M5307 8103 c-12 -11 -7 -47 8 -67 18 -24 20 -148 4 -195 -6 -18 -9
-35 -5 -38 7 -8 156 139 155 152 -2 16 -155 156 -162 148z"/>
<path d="M5679 7921 c-113 -52 -389 -314 -694 -656 -49 -55 -92 -102 -95 -105
-4 -3 -44 -50 -90 -105 -46 -55 -89 -105 -94 -111 -42 -44 -161 -193 -191
-239 -61 -93 -90 -180 -81 -242 16 -122 119 -248 257 -315 142 -69 399 -145
571 -169 123 -17 282 6 358 52 8 5 22 12 30 16 8 3 33 20 55 37 129 97 195
245 195 432 0 67 4 104 13 113 9 9 12 79 13 274 0 184 6 299 17 387 31 229 18
418 -37 540 -44 99 -134 135 -227 91z m-80 -702 c4 -30 13 -64 19 -76 18 -33
15 -57 -12 -82 -26 -25 -48 -12 -25 15 9 11 9 23 1 52 -6 20 -13 68 -15 106
-4 60 -3 66 10 54 8 -8 18 -39 22 -69z m-39 -245 c0 -8 -7 -31 -15 -51 -14
-34 -16 -35 -33 -19 -10 9 -26 16 -35 16 -33 0 -26 19 19 49 47 31 64 32 64 5z
m-52 -146 c-3 -32 -5 -33 -43 -31 -50 3 -95 21 -95 38 0 19 16 23 83 24 l58 1
-3 -32z m-28 -61 c0 -7 -7 -40 -15 -72 -21 -84 -51 -109 -122 -103 -29 3 -56
8 -60 12 -5 4 9 22 29 39 21 18 64 56 95 84 60 55 73 62 73 40z m68 -284 c36
-76 31 -160 -13 -248 -56 -110 -80 -131 -184 -160 -54 -16 -71 -16 -134 -6
-108 19 -254 68 -318 107 -58 35 -160 136 -158 157 0 8 2 8 6 0 2 -7 11 -13
20 -13 8 0 28 -8 44 -17 50 -30 43 -5 -15 51 -86 84 -74 91 34 21 141 -91 349
-165 463 -165 60 0 129 26 162 60 31 32 43 86 44 198 1 77 17 81 49 15z m-448
-118 c100 -35 143 -45 199 -45 53 0 61 -2 61 -19 0 -35 -25 -44 -113 -39 -71
4 -94 10 -167 46 -82 39 -177 111 -165 124 4 3 39 -7 78 -24 40 -17 88 -36
107 -43z"/>
<path d="M2446 5261 c-7 -10 17 -21 45 -21 10 0 19 7 19 15 0 17 -55 22 -64 6z"/>
<path d="M3684 5075 c-4 -10 -20 -15 -50 -15 -27 0 -46 -5 -51 -14 -5 -9 -28
-16 -62 -18 -32 -2 -56 -8 -59 -15 -6 -19 92 -17 112 2 8 8 30 15 50 15 19 0
41 7 50 15 8 8 24 15 34 15 27 0 52 10 52 21 0 16 -70 10 -76 -6z"/>
<path d="M6410 5080 c0 -5 7 -10 15 -10 8 0 15 5 15 10 0 6 -7 10 -15 10 -8 0
-15 -4 -15 -10z"/>
<path d="M2732 4449 c2 -6 7 -10 11 -10 4 1 16 1 28 1 11 0 17 5 14 10 -8 14
-58 13 -53 -1z"/>
<path d="M3060 4450 c-11 -7 0 -10 38 -10 28 0 52 5 52 10 0 13 -70 13 -90 0z"/>
<path d="M2918 4413 c12 -2 30 -2 40 0 9 3 -1 5 -23 4 -22 0 -30 -2 -17 -4z"/>
<path d="M4560 4336 c0 -22 3 -27 11 -19 8 8 8 16 0 30 -9 16 -10 14 -11 -11z"/>
<path d="M4377 2774 c-4 -4 -7 -11 -7 -16 0 -13 50 -6 53 7 2 12 -36 19 -46 9z"/>
<path d="M5817 893 c-3 -5 -2 -15 2 -22 7 -10 10 -10 16 -1 4 6 3 16 -3 22 -5
5 -12 6 -15 1z"/>
<path d="M5037 1454 c-8 -8 1 -24 14 -24 5 0 9 7 9 15 0 15 -12 20 -23 9z"/>
</g>
</svg>
