<?xml version="1.0" standalone="no"?>
<!DOCTYPE svg PUBLIC "-//W3C//DTD SVG 20010904//EN"
 "http://www.w3.org/TR/2001/REC-SVG-20010904/DTD/svg10.dtd">
<svg version="1.0" xmlns="http://www.w3.org/2000/svg"
 width="900.000000pt" height="900.000000pt" viewBox="0 0 900.000000 900.000000"
 preserveAspectRatio="xMidYMid meet">
<metadata>
Created by potrace 1.10, written by Peter Selinger 2001-2011
</metadata>
<g transform="translate(0.000000,900.000000) scale(0.100000,-0.100000)"
fill="#000000" stroke="none">
<path d="M3250 7911 c16 -31 12 -138 -6 -174 -55 -107 -184 -203 -346 -258
-87 -29 -97 -23 -55 34 54 77 73 207 41 281 -23 54 -55 99 -63 91 -3 -4 -6
-48 -7 -98 -1 -75 -5 -100 -23 -134 -23 -44 -122 -142 -165 -165 -57 -30 -116
-57 -191 -87 -150 -61 -183 -77 -265 -130 -66 -42 -177 -152 -246 -243 -97
-127 -134 -162 -134 -123 0 9 6 28 14 43 17 34 30 141 21 181 -11 51 -31 36
-50 -36 -10 -38 -25 -81 -34 -98 -23 -43 -111 -155 -122 -155 -5 0 -9 12 -9
27 0 67 -54 203 -81 203 -5 0 -9 -15 -9 -34 0 -72 -52 -198 -136 -328 -72
-113 -74 -116 -74 -135 -1 -27 -43 -94 -73 -117 -26 -19 -27 -19 -41 -1 -13
18 -17 16 -66 -39 -105 -114 -132 -159 -160 -263 -21 -77 -41 -108 -107 -166
-35 -30 -65 -48 -90 -52 -58 -10 -57 -10 -70 -56 -6 -24 -28 -62 -47 -84 -54
-60 -55 -80 -14 -226 7 -25 18 -52 24 -60 6 -8 13 -21 17 -30 8 -23 94 -92
106 -85 5 4 12 19 16 35 3 16 13 35 22 43 13 11 18 9 31 -11 9 -13 43 -57 77
-99 90 -112 105 -134 105 -158 0 -12 7 -27 16 -35 34 -28 44 -64 34 -120 -22
-126 -44 -174 -98 -219 -25 -21 -33 -33 -26 -40 17 -17 89 -1 117 26 48 44 50
37 44 -138 -3 -90 -9 -173 -13 -185 -5 -17 -2 -23 9 -23 34 0 113 135 142 243
10 37 22 67 27 67 11 0 47 -41 48 -53 0 -17 42 -67 50 -62 15 9 23 131 11 184
-7 34 -7 59 -1 76 9 24 7 27 -23 40 -83 37 -91 69 -14 60 56 -7 111 7 105 27
-2 6 -19 19 -36 27 -40 20 -40 44 -2 71 17 12 30 30 30 41 0 18 -5 20 -42 14
-53 -7 -85 9 -111 52 l-19 33 27 12 c23 10 26 17 22 44 -8 46 10 58 73 49 42
-6 50 -4 50 9 0 8 -14 26 -30 38 -20 14 -30 30 -28 43 4 30 102 34 157 6 22
-12 42 -25 46 -31 3 -5 15 -10 27 -10 17 0 19 4 13 28 -7 31 -43 92 -53 92
-12 0 -33 40 -27 50 8 14 131 -26 173 -56 116 -83 110 -253 -12 -391 -12 -15
-31 -23 -51 -23 -38 0 -65 -26 -65 -63 0 -34 24 -57 60 -57 25 0 38 12 87 78
86 115 111 163 131 245 16 62 15 102 -3 159 -16 53 -11 60 39 56 20 -1 39 1
43 5 8 8 -45 56 -63 57 -15 0 -55 45 -47 53 3 4 30 7 58 7 41 0 60 -6 91 -29
50 -35 70 -66 95 -143 36 -113 22 -268 -33 -368 -17 -32 -51 -83 -58 -90 -3
-3 -28 -34 -55 -70 -48 -63 -125 -156 -228 -274 -67 -77 -163 -205 -213 -286
-83 -133 -185 -367 -204 -465 -4 -22 -13 -60 -20 -85 -9 -31 -14 -115 -14
-270 -1 -233 3 -268 51 -395 77 -207 231 -396 408 -502 108 -64 290 -134 385
-148 82 -11 103 -62 55 -133 -19 -27 -25 -50 -25 -89 0 -28 -4 -54 -9 -58 -12
-7 -41 -105 -41 -137 0 -12 -9 -36 -20 -53 -12 -18 -20 -47 -20 -71 0 -24 -6
-47 -15 -54 -7 -6 -17 -33 -21 -58 -4 -26 -15 -60 -25 -77 -10 -16 -27 -50
-39 -75 -11 -24 -27 -51 -35 -60 -10 -11 -14 -36 -13 -81 3 -79 -19 -114 -88
-142 -43 -16 -47 -16 -77 0 -23 13 -52 17 -106 16 -51 -2 -80 2 -95 12 -27 20
-101 19 -135 -1 -25 -15 -30 -15 -59 0 -48 25 -95 20 -154 -16 -29 -17 -57
-36 -63 -43 -5 -6 -36 -17 -69 -23 -32 -7 -79 -22 -103 -34 -57 -28 -146 -124
-173 -184 -22 -50 -28 -154 -9 -154 6 0 31 18 56 40 25 22 54 40 64 40 16 0
19 -8 19 -60 0 -48 4 -61 19 -70 27 -14 29 -13 36 19 3 15 18 40 33 53 28 26
123 55 142 43 5 -3 10 -28 10 -55 0 -31 6 -54 16 -65 20 -19 38 -15 43 11 8
42 98 98 149 92 25 -3 27 -7 32 -57 5 -58 19 -73 42 -45 33 41 71 69 110 81
60 18 72 16 106 -12 34 -28 78 -32 108 -10 24 18 64 18 88 0 25 -19 107 -19
132 0 24 19 74 19 98 0 30 -23 128 -20 168 5 35 21 116 25 231 11 81 -10 87
-2 42 59 -43 59 -61 132 -45 188 8 32 139 235 164 257 7 6 39 46 73 90 83 109
132 157 214 211 73 48 119 98 119 129 0 23 66 85 89 85 10 0 24 7 31 15 7 8
17 15 22 15 18 0 96 66 124 105 68 94 73 153 11 120 -31 -16 -43 -5 -27 25 14
26 105 94 152 113 46 19 56 8 35 -36 -48 -99 -51 -111 -51 -227 -1 -113 17
-205 49 -250 5 -8 19 -31 29 -50 31 -56 94 -127 155 -174 61 -47 166 -106 188
-106 8 0 27 -7 42 -14 15 -8 67 -17 114 -19 83 -5 88 -6 134 -45 61 -51 136
-92 193 -106 55 -14 66 -41 21 -51 -42 -9 -145 14 -180 39 -7 6 -36 13 -65 17
-28 4 -71 14 -95 23 -33 13 -60 15 -112 10 -54 -5 -72 -3 -90 10 -30 21 -99
21 -143 -1 -32 -15 -37 -15 -60 0 -31 21 -114 22 -140 2 -23 -18 -69 -19 -98
-4 -15 8 -32 8 -67 -2 -121 -33 -273 -153 -325 -257 -28 -57 -41 -144 -25
-173 11 -21 12 -20 52 18 23 21 58 47 78 57 41 20 76 18 70 -5 -23 -95 -2
-124 53 -70 39 38 66 34 66 -9 0 -36 16 -80 30 -80 6 0 17 18 26 39 16 41 47
67 94 81 32 9 50 -3 50 -36 0 -35 21 -84 36 -84 8 0 14 6 14 14 0 39 93 106
149 106 26 0 29 -3 35 -49 10 -75 26 -81 78 -28 36 36 55 46 105 56 60 13 63
13 110 -14 68 -39 167 -39 235 0 35 19 51 24 65 16 61 -33 108 -41 231 -41 94
0 139 4 174 17 45 16 51 16 101 0 76 -24 280 -24 322 0 31 18 167 24 285 13
76 -7 75 10 -5 93 -54 56 -65 74 -65 102 0 18 -5 46 -10 61 -14 36 2 54 28 31
10 -9 22 -17 27 -17 5 0 16 -6 24 -14 40 -34 247 -138 361 -181 25 -9 60 -23
78 -31 18 -8 40 -14 50 -14 9 0 34 -6 57 -14 181 -62 524 -88 765 -58 128 16
290 55 368 88 18 8 37 14 43 14 10 0 194 89 234 113 47 29 110 70 115 76 3 3
28 24 55 46 28 21 73 62 101 90 54 54 174 208 174 223 0 5 6 14 13 20 19 16
93 171 120 252 57 175 77 286 77 433 0 265 -93 547 -240 722 -83 99 -239 224
-340 272 -109 51 -234 93 -278 93 -30 0 -33 12 -11 48 38 63 21 65 -111 11
-128 -53 -143 -58 -199 -65 l-54 -6 7 41 c5 35 4 41 -11 41 -10 0 -36 -16 -58
-35 -22 -19 -44 -35 -49 -35 -5 0 -17 -6 -25 -14 -29 -26 -187 -104 -217 -108
-26 -3 -29 0 -32 27 -6 57 -9 59 -50 29 -20 -15 -41 -33 -47 -40 -5 -6 -39
-33 -74 -58 -50 -36 -72 -46 -103 -46 -33 0 -42 5 -56 30 -20 34 -47 39 -62
10 -14 -27 -42 -25 -68 3 -25 27 -28 73 -7 101 8 11 15 31 15 44 0 21 -4 24
-25 20 -14 -3 -30 1 -37 9 -16 20 17 62 75 93 48 26 59 43 32 54 -41 15 52 86
113 86 36 0 44 8 32 31 -8 14 -3 25 26 53 39 38 44 39 142 36 59 -2 62 -1 62
22 0 44 41 69 127 81 115 15 213 13 251 -3 30 -14 34 -13 43 3 15 25 53 21
115 -14 48 -27 60 -29 83 -19 21 8 40 7 85 -4 59 -16 66 -19 124 -68 37 -32
60 -35 76 -13 10 14 22 10 91 -30 44 -25 85 -45 92 -45 18 0 26 19 14 34 -9
10 -7 15 9 19 12 3 52 -11 99 -34 102 -50 107 -50 103 -16 -3 26 -2 27 46 27
92 0 202 -74 202 -135 0 -30 -20 -33 -27 -5 -8 29 -47 26 -68 -6 -13 -20 -14
-32 -6 -55 24 -70 108 -91 166 -44 29 24 30 27 29 105 -1 44 2 80 7 80 11 0
72 -59 102 -100 69 -95 76 -239 14 -308 -16 -17 -18 -25 -9 -34 27 -27 114 46
167 142 30 55 28 216 -4 290 -62 145 -158 221 -333 266 -38 9 -68 20 -68 24 0
4 9 15 21 26 12 10 33 42 47 69 23 44 26 61 26 150 -1 91 -4 106 -32 166 -53
110 -111 158 -226 185 -100 24 -200 -3 -278 -75 -28 -26 -38 -43 -38 -66 0
-18 3 -34 6 -38 3 -3 27 8 54 24 71 44 157 35 212 -22 98 -100 70 -251 -59
-322 -39 -21 -161 -23 -206 -3 -18 8 -40 16 -49 20 -19 6 -24 41 -8 51 6 3 10
12 10 19 0 9 -29 15 -107 19 -66 3 -123 12 -147 22 l-40 17 23 18 c36 27 13
33 -128 35 -201 2 -313 14 -335 37 -10 11 -23 17 -30 15 -6 -2 -36 -10 -66
-17 -30 -7 -72 -19 -93 -26 -20 -8 -57 -14 -81 -14 -56 0 -180 -32 -324 -85
-39 -14 -66 -26 -102 -47 -8 -4 -22 -11 -30 -15 -8 -3 -45 -26 -82 -51 -70
-46 -98 -49 -98 -12 0 25 -25 37 -45 20 -8 -6 -17 -33 -20 -58 -9 -67 -24
-102 -61 -144 -41 -46 -77 -102 -122 -192 l-36 -69 -31 36 c-18 20 -35 34 -38
30 -12 -11 -8 -78 7 -124 8 -24 17 -101 19 -171 4 -118 4 -127 -14 -131 -11
-3 -19 -14 -19 -26 0 -72 211 -331 299 -368 33 -14 34 -16 16 -29 -10 -8 -23
-14 -28 -14 -4 0 -7 -10 -5 -21 2 -16 17 -26 63 -41 61 -19 151 -20 305 -2
l55 6 -22 -21 c-26 -25 -30 -49 -9 -57 22 -9 137 26 181 55 77 50 244 106 207
69 -18 -18 -14 -38 7 -38 30 0 112 39 166 80 54 40 107 70 125 70 6 0 15 -11
20 -24 9 -24 9 -24 52 -9 23 8 47 18 53 23 5 4 24 11 42 14 25 6 36 3 53 -14
32 -32 90 -70 107 -70 10 0 12 6 8 20 -5 16 -2 20 15 20 23 0 120 -92 120
-114 0 -8 7 -19 15 -26 9 -7 14 -19 11 -27 -6 -15 3 -37 39 -102 28 -49 34
-111 11 -111 -21 0 -24 -18 -13 -75 9 -48 4 -144 -8 -177 -4 -9 -14 -14 -24
-11 -18 4 -61 -38 -61 -59 0 -26 -127 -161 -142 -152 -5 3 -8 27 -8 55 0 27
-5 49 -10 49 -6 0 -28 -16 -48 -36 -103 -101 -195 -156 -294 -175 -37 -7 -71
-10 -74 -6 -4 4 5 24 20 45 47 68 38 72 -104 44 -229 -46 -293 -50 -358 -23
-52 21 -57 33 -17 41 35 8 65 24 120 65 41 31 105 95 105 106 0 3 -43 9 -95
12 -285 19 -578 100 -630 174 -14 19 -11 20 73 27 108 8 128 22 86 61 -54 50
-179 126 -276 169 -21 9 -53 22 -70 30 -18 8 -55 22 -81 33 -58 21 -138 106
-119 125 9 9 18 8 37 0 14 -7 46 -12 70 -12 39 0 45 3 45 21 0 26 -74 123
-139 181 -47 43 -163 118 -181 118 -5 0 -23 8 -42 17 -18 9 -45 22 -60 30 -14
7 -31 13 -38 13 -20 0 -120 71 -114 81 3 5 37 9 76 9 69 0 128 21 128 45 -1
23 -130 103 -233 144 -60 24 -224 51 -308 51 -48 0 -90 4 -94 9 -9 16 98 58
198 78 61 12 44 44 -47 87 -80 38 -153 58 -306 81 -113 18 -129 23 -109 36 23
14 290 11 340 -5 24 -7 71 -21 104 -31 73 -22 245 -103 329 -154 214 -131 241
-132 192 -4 -93 245 65 660 278 727 56 18 61 18 119 2 33 -10 80 -30 104 -47
72 -48 73 -47 73 100 0 155 15 199 86 258 46 37 47 37 133 36 64 -1 95 -6 122
-20 46 -24 139 -92 139 -101 0 -16 118 -132 133 -132 22 0 23 57 3 121 -7 24
-21 71 -31 104 -24 83 -63 188 -98 264 -19 42 -19 45 -3 57 41 30 189 22 296
-17 41 -15 158 -67 180 -80 8 -5 24 -14 35 -19 11 -6 34 -19 50 -30 17 -11 37
-23 45 -27 8 -3 33 -18 55 -32 60 -38 75 -47 130 -74 90 -43 115 -51 127 -39
8 8 -2 25 -38 64 -218 233 -289 527 -157 649 15 15 49 34 76 44 45 17 50 17
115 0 87 -23 182 -86 269 -176 67 -70 115 -104 127 -92 3 4 6 30 6 60 0 39 4
53 14 53 8 0 48 -37 88 -82 40 -45 94 -105 119 -132 25 -28 85 -98 135 -156
246 -289 281 -339 390 -547 45 -87 80 -125 95 -103 15 21 2 278 -17 359 -33
140 -67 260 -91 326 -9 22 -21 56 -28 75 -25 69 -78 196 -106 255 -15 33 -31
74 -35 90 -15 72 -41 134 -107 260 -12 22 -34 65 -50 95 -16 30 -37 69 -48 85
-10 17 -22 37 -26 45 -3 8 -18 33 -32 55 -14 22 -30 48 -36 57 -43 71 -171
246 -249 342 -72 87 -258 276 -346 349 -47 40 -87 74 -90 78 -12 13 -171 128
-235 170 -99 65 -142 89 -295 165 -130 64 -163 79 -232 108 -18 8 -44 19 -58
25 -14 6 -38 15 -54 21 -38 14 -25 25 48 39 164 31 342 -5 574 -116 86 -42
122 -49 122 -23 0 19 -103 113 -176 162 -102 67 -240 129 -329 148 -22 5 -53
14 -69 20 -50 19 -120 17 -140 -2 -26 -26 -58 -22 -88 12 -26 30 -27 30 -132
30 -105 0 -169 14 -206 46 -17 14 -72 17 -255 15 -110 -2 -124 -4 -175 -31
-35 -18 -78 -31 -120 -35 -184 -18 -362 -55 -598 -127 -123 -37 38 110 283
259 21 13 91 47 140 68 17 7 41 18 55 24 14 6 38 15 53 21 16 6 27 16 24 23
-5 14 -175 11 -216 -5 -14 -5 -44 -13 -66 -18 -63 -13 -168 -55 -280 -113 -65
-33 -202 -125 -325 -217 -179 -135 -266 -188 -282 -172 -11 11 35 101 79 152
28 34 23 50 -13 50 -42 0 -274 -246 -274 -290 0 -15 -74 -67 -107 -74 -43 -10
-73 20 -73 72 0 69 38 180 83 241 20 28 23 71 4 71 -41 0 -178 -110 -212 -171
-65 -114 -79 -155 -84 -246 -4 -55 -11 -97 -19 -105 -7 -7 -36 -13 -65 -13
-39 0 -57 5 -72 21 -71 73 -74 156 -9 287 31 64 -2 79 -52 25 -72 -77 -100
-136 -115 -238 -19 -132 6 -248 84 -385 41 -71 127 -125 178 -112 48 13 166
-83 265 -213 27 -36 51 -67 54 -70 14 -14 71 -101 94 -145 15 -27 31 -57 36
-65 16 -28 70 -150 70 -160 0 -5 6 -24 14 -42 36 -88 76 -280 76 -372 0 -54
-24 -174 -46 -224 -8 -18 -14 -39 -14 -47 0 -14 -20 -66 -46 -118 -8 -16 -14
-33 -14 -39 0 -18 -92 -132 -164 -203 -70 -69 -133 -116 -230 -169 -148 -82
-331 -103 -393 -44 -27 26 -46 69 -41 100 7 51 103 26 110 -29 2 -23 8 -29 35
-31 28 -3 36 2 53 30 11 18 20 45 20 60 0 35 -44 86 -78 90 -27 3 -27 3 -33
103 -6 102 -17 145 -63 249 -46 102 -29 114 47 34 50 -55 98 -119 110 -151 4
-11 15 -17 24 -15 35 6 28 122 -15 258 -9 30 -48 115 -85 189 -37 73 -66 135
-63 138 12 12 49 -13 122 -82 43 -41 81 -75 86 -75 11 0 10 14 -6 95 -18 89
-40 149 -78 215 -4 8 -11 22 -15 30 -16 37 -100 135 -163 192 -41 36 -66 66
-61 71 5 5 31 2 62 -6 182 -51 203 -44 132 48 -57 76 -140 150 -245 221 -96
64 -116 89 -80 100 76 24 169 87 166 112 0 4 -39 7 -85 8 -47 0 -110 8 -144
18 -33 9 -85 24 -115 32 -66 19 -102 35 -107 50 -2 6 19 40 47 77 27 36 50 69
50 72 0 3 10 19 21 34 33 45 -1 71 -47 36 -10 -8 -28 -15 -39 -15 -11 0 -29
-7 -39 -15 -11 -8 -28 -15 -38 -15 -9 0 -33 -8 -53 -17 -24 -12 -38 -14 -46
-6 -12 12 118 172 226 276 67 66 174 145 226 167 13 5 32 14 42 20 30 17 51
28 97 52 157 78 256 166 308 273 27 55 32 76 32 139 0 100 -43 196 -88 196
-19 0 -21 -3 -12 -19z m4 -287 c-14 -27 -32 -53 -38 -59 -7 -5 -15 -18 -19
-27 -3 -10 -16 -18 -27 -18 -11 0 -23 -7 -26 -15 -8 -21 -34 -19 -34 3 0 21
43 62 65 62 8 0 15 6 15 13 0 8 18 30 40 51 22 20 40 42 41 49 0 8 2 9 5 1 3
-7 -7 -34 -22 -60z m1312 -176 c-52 -51 -100 -104 -105 -118 -6 -14 -20 -39
-31 -57 -10 -17 -29 -56 -41 -85 -38 -93 -71 -170 -99 -228 -26 -55 -37 -74
-74 -125 -34 -47 -185 -195 -199 -195 -19 0 2 94 26 115 61 54 117 141 161
249 17 42 22 156 6 156 -5 0 -26 -11 -46 -25 -21 -14 -42 -24 -48 -22 -25 8
-14 36 26 63 24 16 54 39 68 52 14 12 29 22 35 22 5 1 37 23 70 50 127 104
284 220 298 220 8 0 20 7 27 15 7 9 15 14 17 11 3 -2 -38 -46 -91 -98z m-1486
28 c0 -27 -15 -42 -25 -26 -12 20 -35 10 -35 -15 0 -28 -12 -32 -30 -10 -15
19 -7 31 38 55 48 25 52 25 52 -4z m2385 4 c7 -12 -93 -91 -166 -131 -49 -26
-73 -38 -174 -84 -68 -31 -104 -45 -113 -45 -5 0 -23 -7 -38 -15 -55 -29 -71
-15 -29 25 28 26 33 50 10 50 -8 0 -15 -4 -15 -9 0 -5 -12 -14 -27 -20 -16 -6
-49 -31 -74 -55 -75 -70 -119 -100 -130 -89 -6 6 0 18 16 33 14 13 25 29 25
37 0 32 -44 7 -125 -74 -49 -48 -91 -81 -93 -75 -2 7 15 41 37 77 41 64 49 85
32 85 -10 0 -90 -81 -122 -125 -59 -79 -91 -115 -99 -110 -5 3 4 28 20 56 17
27 30 53 30 57 0 4 12 31 27 61 25 49 34 56 98 86 109 50 128 57 310 108 28 8
84 22 125 30 41 9 109 23 150 32 41 8 86 15 100 15 40 0 129 35 158 62 28 27
57 35 67 18z m360 -30 c15 -6 75 -13 134 -16 94 -6 111 -10 152 -35 53 -33 68
-35 131 -13 42 14 49 14 83 0 21 -9 49 -16 64 -16 14 0 32 -4 39 -9 23 -14
-21 -20 -74 -10 -29 6 -61 5 -83 -1 -52 -14 -178 -13 -188 3 -21 33 -49 42
-147 48 -85 5 -175 19 -234 35 -7 2 -10 8 -7 14 8 13 96 13 130 0z m-2865 -34
c0 -38 -16 -57 -26 -32 -9 23 -34 20 -34 -3 0 -26 -16 -35 -24 -15 -14 36 -6
54 24 61 17 3 33 10 36 14 12 20 24 7 24 -25z m-120 -27 c0 -17 -45 -79 -57
-79 -8 0 -13 13 -13 30 l0 31 -25 -18 c-28 -21 -35 -73 -10 -73 8 0 15 -4 15
-8 0 -24 -16 -16 -63 29 -28 27 -48 51 -45 54 3 3 32 13 64 21 123 34 134 35
134 13z m2765 0 c4 -5 17 -14 28 -20 12 -5 29 -13 37 -18 41 -24 100 -42 119
-36 27 8 18 25 -14 25 -13 0 -27 5 -30 11 -4 5 -18 15 -33 20 -19 7 -22 13
-14 21 9 9 23 8 59 -5 27 -9 59 -17 71 -17 28 0 82 -30 82 -45 0 -22 -58 -45
-114 -45 -49 0 -89 11 -148 41 -36 18 -104 39 -129 39 -36 0 -50 -20 -43 -59
13 -62 -48 -85 -85 -32 -30 42 -27 55 27 94 42 32 54 36 114 36 37 1 70 -4 73
-10z m-2987 -61 c7 -7 12 -18 12 -26 0 -7 13 -25 30 -40 21 -20 27 -31 20 -42
-7 -12 -10 -11 -16 5 -10 26 -41 55 -58 55 -8 0 -18 5 -21 10 -3 6 -10 10 -15
10 -6 0 -1 -16 11 -36 11 -20 16 -34 12 -32 -4 2 -32 14 -60 28 -29 13 -53 28
-53 32 0 5 13 11 30 14 16 4 35 13 41 20 14 17 51 18 67 2z m-155 -59 c26 -14
76 -61 77 -71 0 -14 -27 -9 -40 7 -7 8 -23 15 -36 15 -28 0 -34 -30 -6 -30 21
-1 56 -46 46 -61 -4 -7 -14 -4 -28 8 -39 35 -75 53 -106 53 -35 0 -37 -21 -4
-30 27 -7 69 -41 77 -62 8 -23 8 -23 -46 8 -30 16 -58 24 -79 22 -38 -4 -43
-21 -7 -28 32 -7 69 -32 69 -47 0 -17 -6 -16 -40 3 -19 12 -36 14 -56 9 l-29
-7 32 -12 c33 -11 62 -41 63 -63 0 -9 -13 -6 -41 8 -33 18 -52 21 -110 17 -38
-3 -69 -1 -69 3 0 28 226 229 257 229 6 0 18 9 28 20 21 23 20 23 48 9z m1142
-42 c-19 -47 -20 -185 -1 -212 7 -11 21 -58 30 -105 16 -76 16 -85 2 -96 -9
-6 -16 -16 -16 -23 0 -6 -7 -14 -15 -17 -8 -4 -15 -17 -15 -30 0 -65 -48 17
-72 121 -16 74 -17 200 -1 240 7 17 15 41 17 55 7 37 67 123 78 112 5 -5 2
-24 -7 -45z m427 -139 c47 -44 62 -98 46 -168 -16 -70 -81 -125 -104 -88 -4 6
2 18 13 28 53 43 59 116 12 162 -28 28 -34 30 -80 25 -59 -7 -59 0 -4 42 51
39 73 39 117 -1z m-172 -57 c0 -5 -7 -11 -15 -15 -15 -5 -20 5 -8 17 9 10 23
9 23 -2z m-62 -46 c-59 -33 -59 -132 1 -189 33 -32 69 -32 61 -1 -3 11 -5 48
-5 81 0 72 21 104 66 104 40 0 42 -12 8 -44 -35 -34 -36 -47 -4 -155 30 -101
32 -193 7 -271 -20 -66 -29 -80 -46 -80 -9 0 -15 21 -20 64 -3 36 -13 77 -21
93 -8 15 -15 38 -15 50 0 12 -3 23 -7 25 -14 5 -73 95 -93 140 -11 24 -20 63
-20 87 0 37 5 48 37 77 20 19 46 34 57 34 19 -1 18 -3 -6 -15z m2817 -46 c80
-41 90 -47 160 -95 153 -103 204 -139 255 -182 89 -74 102 -89 89 -98 -6 -4
-16 0 -21 10 -5 9 -15 16 -23 16 -8 0 -44 20 -81 45 -36 25 -67 45 -69 45 -4
0 -122 80 -167 113 -24 18 -48 17 -48 -2 0 -10 197 -153 241 -174 8 -4 32 -18
54 -32 22 -13 47 -24 56 -25 9 0 22 -7 29 -15 7 -8 20 -15 29 -15 30 0 141
-64 141 -81 0 -5 -8 -9 -18 -9 -33 0 -204 74 -274 118 -14 9 -48 30 -75 46
-140 84 -302 220 -331 278 -48 98 -41 105 53 57z m-4371 -14 c44 -19 47 -35 5
-35 -36 0 -35 -21 1 -30 13 -3 25 -11 28 -18 4 -14 -143 -18 -152 -3 -3 4 10
24 29 44 19 20 35 41 35 47 0 14 11 13 54 -5z m-134 -15 c0 -5 -10 -21 -22
-36 -23 -25 -72 -106 -84 -134 -3 -8 -10 -22 -15 -30 -5 -8 -12 -22 -15 -30
-19 -49 -56 -121 -70 -134 -14 -14 -74 -23 -74 -11 0 3 17 22 38 43 21 21 49
60 63 86 13 26 32 62 41 79 19 35 22 57 10 57 -5 0 -32 -27 -61 -60 -30 -33
-62 -60 -72 -60 -28 0 -24 12 24 66 66 76 78 86 146 132 65 42 91 51 91 32z
m-590 -115 c0 -13 -7 -39 -15 -57 -7 -18 -24 -57 -37 -86 -24 -54 -41 -62 -46
-21 -3 21 8 46 56 134 6 11 13 28 16 38 8 26 26 21 26 -8z m1020 -38 c0 -25
-180 -177 -209 -177 -4 0 -14 11 -21 26 -13 24 -12 27 28 62 23 21 59 46 79
56 21 10 49 24 63 32 32 17 60 18 60 1z m-450 -27 c0 -14 -42 -70 -52 -70 -15
0 -8 25 14 53 22 28 38 35 38 17z m140 -5 c13 -15 6 -35 -12 -35 -6 0 -20 -8
-31 -17 -18 -17 -19 -17 -32 1 -12 16 -10 21 13 42 31 27 45 29 62 9z m1381
-28 c-1 -12 -15 -9 -19 4 -3 6 1 10 8 8 6 -3 11 -8 11 -12z m-2061 -75 c0 -27
-6 -57 -15 -68 -8 -10 -15 -26 -15 -34 -1 -24 -98 -140 -136 -162 -34 -20 -47
-58 -21 -58 15 0 53 19 102 50 17 11 40 24 51 29 24 11 94 92 94 109 0 6 6 15
13 19 8 4 19 17 25 28 10 18 11 18 12 2 0 -9 -4 -25 -9 -35 -5 -9 -12 -24 -16
-32 -22 -55 -80 -120 -106 -120 -9 0 -22 -7 -29 -15 -7 -8 -18 -15 -24 -15 -7
0 -25 -13 -40 -29 -16 -17 -44 -32 -64 -36 -51 -9 -126 -55 -197 -120 -55 -50
-95 -69 -95 -45 0 26 63 108 98 128 48 26 208 181 222 213 6 13 19 38 30 54
35 54 49 79 75 133 15 28 31 52 36 52 5 0 9 -22 9 -48z m660 -70 c0 -12 -34
-77 -58 -108 -17 -24 -24 -27 -39 -18 -27 17 -23 30 27 84 41 45 70 62 70 42z
m3034 -8 c123 -14 222 -31 326 -56 25 -6 66 -14 92 -19 26 -4 56 -12 67 -18
11 -6 29 -11 40 -11 11 0 35 -6 53 -14 18 -7 58 -21 88 -30 55 -17 105 -36
170 -64 19 -8 49 -20 65 -27 46 -19 168 -76 185 -85 8 -5 52 -28 98 -51 45
-22 84 -45 87 -50 3 -4 26 -11 50 -15 33 -5 51 -2 70 10 33 22 45 20 45 -7 0
-33 -25 -52 -92 -71 -81 -23 -105 -20 -188 22 -41 22 -97 50 -125 65 -27 14
-77 37 -110 52 -33 14 -69 31 -79 37 -11 6 -31 14 -45 18 -14 5 -51 18 -81 30
-125 48 -304 100 -415 120 -22 4 -67 12 -100 18 -359 66 -895 64 -1167 -4 -32
-8 -78 -14 -102 -14 -24 0 -46 -5 -48 -11 -6 -17 -108 -25 -108 -9 0 20 72 80
97 80 12 0 23 4 25 10 3 10 79 34 153 49 22 5 60 13 85 19 171 42 617 56 864
26z m-3874 -29 c0 -39 -31 -95 -78 -141 -55 -53 -90 -84 -96 -84 -22 0 10 49
96 148 20 24 42 59 48 78 15 44 30 44 30 -1z m1378 17 c84 -11 67 -26 -38 -33
-52 -4 -114 -11 -137 -17 -33 -7 -46 -7 -60 4 -10 7 -30 14 -44 14 -40 0 -43
12 -7 32 27 14 50 16 133 12 55 -3 124 -8 153 -12z m-808 -72 c0 -22 -132
-126 -200 -157 -146 -69 -179 -81 -183 -69 -6 15 29 48 57 56 11 3 21 11 24
18 6 18 -47 15 -54 -3 -4 -8 -11 -15 -17 -15 -29 0 -47 -34 -47 -89 0 -65 0
-65 -60 -113 -40 -33 -52 -37 -98 -36 -29 1 -52 3 -52 5 0 9 59 63 69 63 6 0
8 6 5 13 -3 8 0 26 5 41 9 21 16 26 38 24 22 -3 28 2 35 28 10 40 65 94 95 94
13 0 23 4 23 9 0 9 49 34 130 66 25 9 60 23 78 31 18 8 41 14 50 14 10 0 27 7
38 15 22 17 64 20 64 5z m5373 -118 c49 -23 80 -48 150 -122 48 -52 87 -98 87
-103 0 -9 50 -76 77 -105 7 -8 11 -17 8 -22 -7 -11 -42 -1 -56 16 -6 8 -16 14
-21 14 -5 0 -35 17 -66 37 -59 39 -322 299 -322 319 0 17 66 0 143 -34z
m-4965 -3 c-24 -32 -111 -102 -140 -112 -34 -12 -18 16 40 69 31 30 61 54 65
54 5 0 15 7 24 15 25 26 34 6 11 -26z m391 25 c31 -9 84 -30 118 -47 67 -33
151 -101 136 -110 -5 -3 -33 5 -61 19 -29 14 -87 36 -129 50 -82 27 -216 75
-222 80 -1 1 0 7 4 13 9 16 91 13 154 -5z m-591 -43 c-112 -145 -212 -241
-252 -241 -21 0 -21 19 0 27 9 3 28 17 42 29 23 22 23 24 5 24 -10 0 -23 -4
-28 -8 -18 -15 -115 -34 -140 -28 -33 9 -32 34 3 41 15 3 41 10 57 16 17 6 42
14 58 16 15 3 27 12 27 19 0 19 -48 18 -93 -1 -20 -8 -56 -15 -80 -15 -24 0
-48 -5 -54 -11 -6 -6 -23 -9 -39 -7 l-29 4 30 8 c17 5 37 14 45 21 8 7 26 15
40 18 14 3 39 10 55 15 17 6 66 18 110 27 100 21 214 55 221 66 2 4 11 6 20 2
12 -4 12 -8 2 -22z m-1040 -57 c-6 -21 -18 -46 -25 -55 -7 -8 -13 -19 -13 -23
0 -5 -11 -21 -25 -38 -14 -16 -25 -26 -25 -21 0 13 27 86 43 116 13 26 49 67
54 63 1 -1 -3 -20 -9 -42z m3437 10 c11 -8 29 -14 42 -14 12 0 24 -4 27 -9 3
-5 43 -28 88 -50 46 -23 97 -51 113 -61 17 -11 39 -24 50 -30 22 -12 47 -27
132 -84 32 -22 60 -42 63 -45 3 -3 24 -19 47 -35 24 -16 53 -38 65 -50 13 -12
43 -37 68 -56 25 -19 52 -41 61 -49 9 -9 34 -32 55 -51 279 -253 465 -436 506
-499 22 -32 23 -74 3 -91 -24 -20 -61 -3 -107 48 -134 148 -437 439 -583 559
-128 105 -452 333 -500 352 -5 2 -26 17 -46 32 -20 16 -44 29 -53 29 -25 0
-19 28 7 32 33 5 27 23 -10 26 -19 2 -33 -1 -33 -7 0 -6 -7 -11 -15 -11 -18 0
-20 17 -2 23 6 2 8 8 4 13 -4 4 -17 3 -28 -4 -17 -11 -26 -9 -57 9 -49 30 -48
29 -32 39 19 12 109 1 135 -16z m-340 -10 c45 -18 179 -149 223 -217 26 -39
29 -49 17 -53 -8 -4 -21 -2 -28 3 -13 11 -111 65 -217 120 -35 19 -67 37 -70
42 -3 4 -14 11 -24 15 -14 5 -16 10 -8 18 10 10 20 8 52 -11 8 -5 31 -16 50
-24 19 -8 47 -21 62 -28 58 -26 36 9 -50 79 -28 24 -52 50 -52 58 0 17 -1 17
45 -2z m-1776 -68 c-64 -63 -174 -96 -174 -53 0 19 53 45 130 65 64 15 70 14
44 -12z m206 -31 c-22 -13 -46 -25 -53 -25 -7 0 -26 -7 -42 -15 -35 -18 -62
-10 -58 18 4 25 65 45 143 46 l50 1 -40 -25z m-1368 -62 c-16 -16 -17 -16 -17
3 0 26 11 37 24 24 7 -7 5 -16 -7 -27z m803 -78 c-32 -64 -86 -123 -120 -130
-34 -7 -41 -25 -10 -25 11 0 20 -3 20 -6 0 -13 -56 -50 -95 -61 -49 -15 -148
-18 -125 -3 8 5 25 10 36 10 12 0 48 12 80 27 l59 27 -102 6 c-57 4 -105 9
-109 13 -11 11 46 20 89 14 24 -3 49 -2 56 2 30 19 -3 29 -93 29 -52 0 -104 3
-117 7 -40 13 1 25 86 25 48 0 106 8 145 19 78 22 173 65 191 87 23 28 29 -1
9 -41z m740 38 c28 -12 109 -51 146 -71 35 -19 144 -122 155 -147 5 -11 18
-33 28 -50 43 -67 22 -60 -72 24 -43 38 -110 88 -150 112 -39 23 -74 45 -77
48 -3 3 -23 16 -45 27 -42 23 -56 51 -34 65 7 4 16 7 19 5 3 -1 16 -7 30 -13z
m-1732 -21 c2 -7 -10 -18 -28 -25 -17 -8 -40 -28 -50 -45 -11 -17 -30 -34 -43
-38 -14 -3 -30 -17 -36 -30 -13 -30 -31 -23 -31 13 0 26 36 68 105 121 31 24
75 26 83 4z m767 -3 c5 -5 -6 -9 -32 -9 -26 0 -46 6 -54 17 -13 15 -10 16 31
9 25 -4 49 -11 55 -17z m-353 -61 c5 -95 -1 -102 -72 -82 -30 9 -59 20 -64 25
-6 5 -18 9 -28 9 -14 0 -18 -8 -18 -33 0 -46 -6 -49 -47 -21 -20 13 -40 24
-44 24 -23 0 -5 20 23 28 20 5 34 16 37 27 5 27 34 54 62 57 20 3 24 -1 21
-21 -3 -27 14 -51 34 -51 8 0 14 9 14 20 0 19 55 90 70 90 5 0 10 -33 12 -72z
m1025 55 c92 -40 121 -55 184 -95 38 -24 68 -49 69 -55 0 -17 -45 -16 -95 2
-22 8 -56 15 -75 15 -19 0 -42 4 -50 10 -11 7 -8 11 15 20 l29 11 -35 22 c-66
42 -74 46 -97 57 -24 10 -22 30 3 30 8 0 31 -7 52 -17z m1831 -50 c146 -71
161 -81 184 -128 69 -137 61 -148 -40 -57 -93 83 -180 152 -193 152 -20 0 -7
-23 39 -68 66 -66 174 -160 226 -195 43 -30 61 -61 76 -127 4 -19 11 -43 15
-52 15 -36 -14 -16 -86 58 -93 96 -82 84 -169 184 -41 47 -77 87 -80 90 -27
23 -140 187 -140 203 0 17 39 3 168 -60z m-3155 23 c3 -7 20 -17 39 -21 l33
-7 -34 -10 c-19 -5 -40 -17 -47 -26 -17 -23 -31 -6 -16 19 9 15 10 24 3 33 -6
7 -8 16 -4 19 10 11 20 8 26 -7z m5527 -36 c44 -22 106 -83 115 -111 4 -11 11
-19 16 -19 5 0 9 -6 9 -13 0 -8 32 -48 70 -91 39 -42 70 -78 70 -80 0 -10 -42
8 -47 20 -3 8 -9 14 -14 14 -13 0 -35 24 -99 105 -65 84 -119 135 -142 135
-13 0 -16 -8 -15 -42 3 -61 -24 -64 -47 -4 -9 24 -24 50 -32 56 -7 7 -14 21
-14 31 0 16 8 19 45 19 26 0 63 -9 85 -20z m-5616 4 c9 -3 23 -21 32 -39 8
-18 25 -36 37 -39 20 -5 20 -6 5 -18 -9 -7 -26 -32 -38 -55 -22 -43 -45 -54
-67 -32 -14 14 -62 -18 -63 -43 0 -38 -23 -66 -64 -79 -22 -7 -45 -17 -51 -22
-5 -4 -28 -23 -49 -41 -57 -50 -81 -35 -27 16 44 40 51 70 17 76 -21 4 -66
-34 -66 -57 0 -9 -7 -29 -15 -45 -8 -15 -15 -37 -15 -47 0 -10 -4 -20 -9 -23
-12 -8 -41 73 -41 116 0 20 -4 48 -9 62 -8 21 -4 32 25 70 18 24 34 49 34 54
0 5 9 17 19 26 48 44 30 -52 -19 -99 -34 -32 -47 -79 -30 -100 16 -20 19 -17
73 63 30 45 49 86 54 118 l9 49 16 -50 c8 -27 19 -63 22 -78 8 -36 28 -30 40
11 5 18 13 32 17 32 5 0 9 11 9 24 0 15 22 45 66 90 37 36 68 66 69 66 2 0 11
-3 19 -6z m6506 -60 c65 -33 127 -87 154 -133 6 -10 30 -50 52 -87 73 -121 95
-164 89 -175 -9 -14 -37 17 -130 141 -43 58 -119 147 -169 198 -50 50 -85 92
-78 92 6 0 44 -16 82 -36z m-5231 -1 c20 -8 43 -19 51 -24 8 -5 25 -13 38 -19
25 -11 30 -30 7 -30 -9 0 -29 7 -45 15 -19 10 -75 17 -165 22 -144 7 -157 13
-94 46 27 15 47 17 103 12 37 -4 85 -13 105 -22z m4581 -89 c54 -55 141 -122
194 -149 39 -21 126 -110 126 -131 0 -7 -6 -15 -12 -18 -7 -3 -3 -3 10 0 17 4
22 1 22 -15 0 -11 5 -23 11 -27 11 -6 49 -88 49 -106 0 -5 -12 5 -27 24 -40
47 -166 170 -197 191 -16 11 -26 26 -24 37 3 18 -28 60 -44 60 -16 0 -178 157
-178 173 0 19 30 3 70 -39z m-5710 -47 c0 -12 -4 -29 -9 -36 -8 -12 -11 -9
-16 12 -8 31 0 61 15 52 5 -3 10 -16 10 -28z m891 12 c21 -7 49 -23 61 -37
l23 -25 -35 8 c-19 4 -54 11 -78 15 -47 8 -68 22 -58 39 9 14 39 14 87 0z
m-801 -35 c0 -9 -5 -14 -12 -12 -18 6 -21 28 -4 28 9 0 16 -7 16 -16z m-122
-34 c22 0 12 -31 -19 -62 -26 -26 -32 -29 -44 -17 -25 27 -26 55 -4 83 19 25
23 26 38 12 10 -9 23 -16 29 -16z m277 5 l29 -24 -28 -10 c-15 -6 -32 -11 -37
-11 -12 0 -61 -31 -71 -45 -4 -5 -8 -18 -8 -29 0 -10 -27 -47 -59 -82 -33 -35
-79 -96 -102 -136 -23 -40 -45 -75 -48 -78 -3 -3 -17 -27 -30 -54 -22 -45 -25
-48 -37 -31 -21 29 -17 53 13 67 15 7 29 20 31 28 2 12 -6 14 -41 12 -31 -3
-53 2 -80 18 -48 28 -47 40 3 40 28 0 40 4 40 14 0 8 -4 18 -10 21 -5 3 -10
15 -10 27 0 19 1 19 25 -3 13 -13 25 -32 25 -41 0 -22 20 -34 30 -19 4 8 17
10 33 5 34 -8 35 7 2 50 -14 18 -25 39 -24 47 0 10 2 11 6 2 8 -22 42 -14 60
14 38 59 152 183 167 183 7 0 27 13 46 30 19 16 37 29 40 29 3 0 18 -11 35
-24z m3086 -245 c53 -52 101 -105 108 -117 13 -25 15 -89 2 -97 -10 -6 -147
141 -205 220 -37 51 -56 60 -56 29 0 -29 94 -152 178 -235 109 -105 122 -124
122 -177 0 -50 -16 -55 -45 -15 -10 15 -51 65 -90 112 -63 76 -107 137 -141
195 -29 48 -84 167 -84 180 0 8 -4 16 -9 20 -5 3 -13 20 -16 38 -4 17 -14 45
-22 60 -8 16 -12 36 -8 44 4 12 27 -7 88 -73 45 -49 125 -132 178 -184z
m-2804 250 c-15 -5 -49 -5 -75 0 -44 7 -43 8 28 8 55 0 68 -2 47 -8z m673 -35
c0 -7 6 -26 14 -42 18 -35 39 -85 62 -143 21 -55 109 -235 132 -271 37 -57
132 -167 198 -228 68 -63 68 -64 35 -57 -68 13 -137 54 -194 117 -31 34 -57
65 -57 70 0 4 -13 27 -28 51 -30 46 -67 128 -76 168 -4 14 -16 36 -27 50 -19
23 -22 23 -34 7 -10 -14 -13 -5 -18 61 -3 42 -17 112 -31 154 -17 54 -21 78
-13 81 18 6 37 -3 37 -18z m-1352 -90 c0 -46 -4 -87 -9 -91 -15 -9 -79 36 -79
56 0 10 14 27 30 37 24 14 30 24 30 50 0 21 5 33 13 33 10 0 14 -22 15 -85z
m1884 48 c38 -40 113 -154 140 -213 48 -105 56 -130 41 -130 -14 0 -139 164
-153 200 -8 19 -29 64 -47 99 -48 93 -42 107 19 44z m-2032 -107 c0 -14 5 -28
10 -31 6 -3 10 -17 10 -31 0 -24 0 -24 -32 -8 -18 9 -41 23 -51 32 -16 15 -16
17 5 39 29 31 58 31 58 -1z m1293 -27 c4 -15 -1 -28 -16 -40 -27 -23 -33 -23
-41 -3 -4 10 3 26 16 40 28 29 34 30 41 3z m5659 -86 c42 -44 101 -151 153
-278 20 -49 43 -105 51 -123 16 -38 18 -58 4 -67 -11 -7 -68 78 -77 115 -14
62 -172 359 -195 368 -4 2 -8 12 -8 23 0 26 22 14 72 -38z m-5414 -92 c7 -21
12 -67 12 -102 0 -50 -4 -67 -21 -85 -18 -20 -21 -37 -25 -205 -5 -179 -21
-313 -50 -413 -8 -26 -14 -55 -14 -64 0 -8 -7 -38 -15 -66 -8 -28 -17 -77 -20
-108 -9 -81 -25 -72 -25 12 0 65 10 136 45 305 7 39 17 114 20 168 6 88 5 97
-10 91 -9 -4 -21 -16 -26 -28 -5 -11 -18 -34 -29 -51 -11 -16 -23 -37 -27 -45
-3 -8 -18 -33 -32 -55 -29 -45 -69 -118 -101 -185 -12 -25 -28 -58 -36 -73 -8
-16 -14 -34 -14 -41 0 -7 -8 -28 -17 -47 -14 -27 -17 -65 -18 -186 -2 -151 -8
-193 -21 -137 -3 16 -13 53 -21 81 -15 55 -13 93 13 208 26 118 82 242 198
438 106 178 129 232 180 417 8 30 18 90 21 133 4 42 11 77 15 77 4 0 12 -17
18 -39z m1912 -96 c0 -49 6 -90 15 -105 17 -30 20 -103 4 -98 -26 9 -49 102
-49 195 0 50 3 99 7 109 12 31 21 -13 23 -101z m-2130 71 c0 -8 -7 -16 -15
-20 -10 -4 -15 -20 -15 -53 0 -26 -5 -55 -10 -63 -14 -23 -44 1 -48 38 -3 24
5 40 35 71 40 43 53 50 53 27z m701 -86 c9 0 71 -128 88 -180 17 -54 24 -127
14 -133 -5 -3 -22 21 -36 53 -15 33 -32 62 -37 65 -6 3 -10 14 -10 24 0 10 -6
24 -14 30 -9 7 -16 38 -19 74 -2 34 -7 73 -11 87 -6 25 -6 25 5 3 7 -13 16
-23 20 -23z m1519 -10 c0 -36 -10 -61 -21 -54 -10 6 -12 77 -3 87 12 12 24 -4
24 -33z m-436 -72 c20 -96 20 -152 2 -186 -8 -15 -18 -48 -21 -75 -3 -26 -10
-45 -14 -43 -4 3 -14 58 -21 122 -10 89 -11 120 -2 135 7 10 12 39 12 63 0 51
9 81 21 69 4 -4 15 -43 23 -85z m496 -3 c0 -13 -5 -27 -11 -30 -5 -4 -15 -18
-20 -33 -7 -19 -12 -23 -22 -13 -9 9 -8 19 5 44 9 17 19 40 22 50 8 24 26 12
26 -18z m1405 -40 l-7 -75 51 -51 c28 -27 51 -54 51 -60 0 -5 4 -9 10 -9 5 0
12 -11 16 -25 3 -13 12 -29 20 -36 16 -13 19 -39 4 -39 -6 0 -14 8 -17 18 -4
9 -12 21 -20 25 -7 4 -13 13 -13 20 0 15 -34 47 -80 75 -36 21 -70 89 -70 139
0 32 31 93 48 93 11 0 12 -14 7 -75z m-4767 -13 c3 -69 -9 -96 -22 -49 -11 43
-7 129 7 125 8 -3 13 -30 15 -76z m3392 -26 c0 -15 -18 -31 -26 -23 -7 7 7 37
17 37 5 0 9 -6 9 -14z m-243 -60 c-3 -28 -9 -59 -12 -69 -7 -16 -5 -16 26 2
122 74 236 71 314 -7 44 -44 31 -65 -15 -24 -66 61 -179 58 -272 -6 -62 -42
-132 -136 -124 -167 8 -30 -13 -90 -26 -77 -18 18 -2 108 41 237 8 26 36 121
47 163 2 7 9 10 15 6 7 -4 10 -25 6 -58z m300 28 c-9 -9 -28 6 -21 18 4 6 10
6 17 -1 6 -6 8 -13 4 -17z m-2397 -19 c0 -8 -7 -15 -16 -15 -9 0 -30 -7 -47
-15 -18 -8 -50 -18 -72 -23 -30 -6 -41 -13 -43 -29 -2 -11 -16 -32 -33 -47
-16 -14 -29 -31 -29 -37 0 -22 -42 -69 -61 -69 -25 0 -36 27 -17 43 8 7 30 32
49 57 58 77 102 114 154 132 66 21 115 23 115 3z m-1031 -117 c-1 -60 -4 -75
-9 -53 -15 58 -11 135 7 135 2 0 2 -37 2 -82z m2739 9 c2 -51 -2 -78 -19 -116
-12 -28 -25 -48 -30 -45 -27 16 7 240 35 231 6 -2 12 -33 14 -70z m846 -20 c6
-29 6 -62 0 -85 -7 -30 -14 -38 -36 -40 -32 -4 -34 3 -12 47 12 23 14 45 9 82
-6 46 -5 51 11 47 14 -2 22 -17 28 -51z m-191 -13 c55 -55 61 -130 14 -181
-24 -27 -37 -29 -37 -8 0 8 5 15 10 15 6 0 10 5 10 11 0 6 -9 8 -20 4 -16 -5
-20 -2 -20 14 0 11 8 25 19 30 46 25 29 77 -21 67 -32 -6 -39 9 -7 17 32 8 17
32 -22 35 -26 2 -41 -4 -66 -27 -28 -25 -33 -37 -33 -74 0 -52 23 -79 96 -107
l49 -19 -53 -1 c-46 0 -57 4 -89 33 -32 30 -37 41 -41 91 -4 56 -4 57 37 96
37 35 48 40 90 40 41 0 52 -5 84 -36z m3573 -64 c3 -14 13 -40 21 -58 16 -36
10 -79 -7 -52 -6 8 -10 25 -10 38 0 12 -3 22 -8 22 -12 0 -54 99 -46 111 9 15
42 -26 50 -61z m-4342 2 c16 -26 -44 -161 -71 -162 -29 -1 -7 107 30 148 22
23 33 27 41 14z m-1500 -149 c-16 -16 -16 -16 -11 2 3 11 9 36 14 55 l8 35 3
-38 c2 -25 -2 -43 -14 -54z m1796 71 c0 -23 -65 -104 -113 -142 -44 -34 -120
-72 -143 -72 -28 0 -13 27 28 50 50 28 73 47 153 122 64 61 75 67 75 42z
m-429 -46 c4 -40 -44 -142 -66 -140 -18 2 -17 46 1 82 31 61 62 88 65 58z
m1079 -3 c0 -3 -11 -23 -25 -45 -33 -52 -97 -80 -179 -79 -33 1 -50 4 -36 6
74 13 152 48 188 84 34 36 52 47 52 34z m-2779 -64 l24 -20 -68 2 c-42 1 -70
-2 -75 -9 -9 -15 -113 -27 -131 -15 -23 15 -2 31 42 31 23 0 62 7 87 14 63 20
94 19 121 -3z m1579 -15 c0 -9 -31 -73 -43 -88 -19 -24 -37 -23 -37 3 0 32 39
89 61 89 10 0 19 -2 19 -4z m-1290 -76 c0 -15 -26 -12 -40 5 -7 8 -9 22 -6 31
6 15 9 15 26 -4 11 -12 20 -26 20 -32z m559 -31 c-6 -41 -17 -89 -25 -107 -8
-18 -14 -39 -14 -46 0 -18 -68 -86 -85 -86 -11 0 -13 8 -8 30 3 17 2 30 -3 30
-30 -1 -54 -16 -65 -42 -10 -25 -9 -33 8 -56 11 -15 33 -29 49 -33 63 -13 93
-42 57 -56 -28 -11 -164 -94 -208 -127 -69 -52 -180 -169 -210 -221 -15 -27
-34 -53 -40 -57 -13 -8 -30 -46 -39 -91 -9 -37 -26 -25 -26 19 0 19 -4 34 -10
34 -5 0 -13 15 -18 33 -9 35 -29 42 -45 16 -8 -12 -5 -22 12 -40 12 -13 24
-35 27 -49 3 -14 12 -39 21 -57 11 -22 13 -43 8 -70 -8 -45 -8 -98 1 -175 l6
-58 -31 0 c-22 0 -40 10 -67 40 -20 22 -41 37 -46 34 -12 -8 -3 -123 11 -137
6 -6 11 -17 11 -24 0 -27 47 -100 96 -150 64 -63 144 -116 204 -132 214 -59
397 -18 559 126 53 47 131 143 131 162 0 5 4 12 9 16 19 11 19 -12 -1 -55 -60
-131 -204 -249 -373 -307 -60 -20 -269 -23 -288 -4 -6 6 -20 11 -30 11 -42 0
-147 63 -206 124 -87 89 -106 118 -141 216 -18 50 -30 201 -24 300 5 79 11
105 51 235 17 52 65 148 89 176 8 8 14 19 14 23 0 15 64 91 131 156 36 36 127
111 200 167 152 115 208 166 246 226 31 48 65 89 70 83 2 -2 -2 -36 -8 -77z
m-1109 38 c0 -7 -20 -40 -44 -73 -24 -33 -46 -69 -50 -80 -3 -11 -22 -35 -41
-54 -29 -28 -35 -31 -41 -17 -7 19 27 82 95 174 42 57 81 81 81 50z m1660 -17
c-15 -28 -51 -50 -94 -57 -27 -4 -36 -2 -36 8 1 15 65 49 93 49 9 0 19 5 22
10 12 20 26 10 15 -10z m-230 -38 c0 -5 -26 -36 -58 -69 -60 -62 -96 -83 -115
-64 -17 17 111 141 146 141 15 0 27 -4 27 -8z m763 -18 c51 -19 127 -92 127
-123 0 -21 -3 -20 -26 15 -15 21 -34 44 -43 51 -21 16 -138 53 -168 53 -30 0
-30 17 0 23 28 5 62 -1 110 -19z m382 -14 c24 -5 -46 -18 -105 -19 -69 -1
-113 7 -106 18 4 6 186 7 211 1z m-2055 -10 c0 -5 -6 -10 -14 -10 -8 0 -18 5
-21 10 -3 6 3 10 14 10 12 0 21 -4 21 -10z m1200 -47 c0 -3 -10 -20 -23 -37
-13 -17 -27 -38 -31 -46 -28 -59 -66 -104 -103 -124 -18 -9 -34 -16 -38 -16
-14 0 -2 35 22 66 15 20 36 56 48 81 24 48 66 83 103 83 12 0 22 -3 22 -7z
m240 -5 c0 -17 -73 -45 -138 -53 -48 -6 -53 -5 -50 10 6 33 188 74 188 43z
m-410 -33 c0 -27 -47 -92 -82 -113 -18 -11 -60 -29 -93 -41 -107 -35 -130 -49
-187 -105 -59 -58 -78 -68 -78 -38 1 38 125 160 165 162 36 1 171 70 208 106
45 44 67 54 67 29z m-405 -126 c-50 -11 -75 -10 -75 4 0 7 9 18 20 25 11 7 20
20 20 30 1 13 9 8 32 -18 l32 -35 -29 -6z m-985 -34 c0 -13 -4 -14 -20 -5 -11
6 -20 13 -20 15 0 3 9 5 20 5 11 0 20 -7 20 -15z m4680 5 c0 -6 -7 -22 -16
-35 -13 -19 -25 -25 -53 -24 l-36 1 31 13 c17 8 34 23 37 34 5 21 37 30 37 11z
m1290 3 c0 -22 -26 -71 -46 -86 -21 -15 -24 -16 -24 -2 0 8 5 15 10 15 6 0 10
7 10 16 0 8 8 26 18 39 16 24 32 32 32 18z m-905 -23 c4 -6 -7 -13 -24 -16
-17 -4 -36 -13 -42 -20 -6 -8 -22 -14 -34 -14 -12 0 -39 -7 -58 -15 -58 -24
-177 -2 -177 33 0 13 3 13 18 -1 24 -22 58 -22 66 -1 5 13 9 14 21 4 12 -10
25 -10 59 -1 25 6 59 11 76 11 17 0 38 7 46 15 18 17 40 20 49 5z m-5112 -17
l32 -16 -23 -10 c-18 -8 -31 -7 -58 8 -19 10 -34 22 -34 27 0 14 49 9 83 -9z
m-95 -22 c34 -29 27 -34 -33 -26 -52 6 -55 5 -55 -15 0 -19 -4 -21 -44 -15
-37 6 -44 4 -48 -12 -4 -17 -13 -19 -63 -17 -31 1 -62 7 -67 12 -18 18 2 32
45 32 23 1 53 7 67 15 14 8 41 15 60 15 19 0 44 7 54 15 26 20 56 18 84 -4z
m2152 5 c8 -2 -20 -4 -62 -5 -43 0 -78 3 -78 7 0 7 103 6 140 -2z m2410 -34
c-17 -35 -25 -42 -50 -42 -40 0 -38 13 8 40 20 12 41 29 45 37 19 32 16 4 -3
-35z m-3044 0 c22 -10 59 -29 84 -42 64 -35 135 -50 177 -38 37 10 49 6 38
-11 -10 -18 -180 -14 -195 4 -7 8 -20 15 -29 15 -9 0 -43 14 -76 30 -65 33
-157 41 -195 18 -27 -17 -37 -2 -15 22 25 27 154 29 211 2z m3937 2 c3 -13
-71 -23 -125 -17 -27 3 -48 11 -48 17 0 14 169 14 173 0z m-734 -20 c9 -3 11
-8 5 -13 -15 -14 -88 -21 -104 -10 -13 8 -13 11 2 23 16 11 61 12 97 0z m536
-9 c0 -5 -17 -11 -37 -13 -30 -3 -38 0 -38 13 0 13 8 16 38 13 20 -2 37 -7 37
-13z m-935 -41 c0 -8 -11 -39 -25 -69 -20 -44 -36 -62 -86 -95 -46 -30 -65
-38 -73 -30 -8 8 -6 15 8 26 11 8 26 14 33 14 7 0 13 4 13 8 0 5 11 14 24 20
14 6 36 36 56 76 31 64 50 83 50 50z m1180 -18 c13 -15 20 -32 17 -40 -8 -21
-17 -20 -49 9 -30 26 -35 41 -15 48 20 9 23 8 47 -17z m-5800 -31 c0 -14 -4
-25 -10 -25 -6 0 -10 -34 -10 -81 0 -89 -10 -119 -42 -119 -18 0 -20 4 -14 33
4 17 10 57 13 87 9 84 63 174 63 105z m4758 -6 c-18 -12 -58 -11 -58 0 0 11
38 19 58 13 11 -4 11 -6 0 -13z m-4638 -18 c0 -5 -6 -14 -13 -20 -8 -6 -19
-30 -26 -53 -23 -78 -51 -87 -51 -18 0 32 6 43 37 69 38 32 53 38 53 22z
m1345 -22 c33 -17 75 -45 93 -62 76 -73 122 -241 101 -365 -16 -89 -65 -151
-109 -137 -30 9 -25 47 9 69 45 31 62 96 40 153 -6 15 -12 53 -13 83 l-1 55
-37 0 c-43 0 -58 10 -28 20 42 13 1 85 -59 100 -12 3 -36 15 -51 27 -40 29
-159 38 -196 13 -32 -21 -49 -8 -26 20 36 43 65 54 142 54 65 1 84 -3 135 -30z
m3225 21 c0 -5 -7 -10 -15 -10 -8 0 -15 5 -15 10 0 6 7 10 15 10 8 0 15 -4 15
-10z m1938 -105 c-3 -3 -13 -2 -22 1 -14 5 -15 9 -4 15 13 8 36 -6 26 -16z
m57 -16 c4 -6 5 -13 2 -16 -8 -7 -47 7 -47 18 0 13 37 11 45 -2z m-2325 -70
c-7 -35 -16 -69 -21 -75 -5 -6 -21 -33 -35 -60 -29 -56 -41 -70 -50 -62 -5 6
12 47 25 58 13 11 40 77 46 115 7 42 33 100 41 92 3 -3 0 -34 -6 -68z m-3955
11 c-16 -16 -35 -30 -43 -30 -8 0 -20 -6 -26 -14 -6 -8 -43 -30 -83 -50 -39
-21 -74 -44 -77 -52 -4 -10 -13 -13 -29 -9 -17 5 -26 2 -31 -10 -4 -11 -13
-15 -27 -12 -15 4 -23 -1 -29 -19 -5 -13 -15 -24 -23 -24 -7 0 -30 -9 -52 -20
-43 -22 -75 -26 -75 -9 0 14 41 48 60 49 8 0 24 7 34 15 11 8 27 15 37 15 9 0
19 7 23 15 3 8 16 15 30 15 13 0 26 7 30 15 3 8 14 15 24 15 11 0 25 7 32 15
7 8 20 15 30 15 10 0 23 7 30 15 7 8 21 15 31 15 11 0 19 4 19 10 0 5 11 12
25 16 14 3 25 10 25 15 0 5 8 9 19 9 10 0 24 7 31 15 7 8 19 15 28 15 11 0 8
-8 -13 -30z m878 15 c100 -30 172 -109 203 -223 17 -59 17 -66 1 -110 -10 -26
-17 -58 -17 -71 0 -31 -32 -83 -94 -153 -41 -45 -55 -70 -69 -125 -21 -79 -55
-150 -76 -158 -21 -8 -25 1 -14 32 6 15 19 64 29 107 16 69 27 92 90 177 86
118 104 178 83 275 -11 50 -21 67 -69 115 -44 44 -68 60 -112 73 -31 9 -67 16
-80 16 -33 0 -88 -21 -126 -49 -42 -29 -50 -22 -24 21 48 76 163 107 275 73z
m3215 -17 c-5 -16 -48 -24 -48 -10 0 11 17 20 38 21 8 1 12 -5 10 -11z m-1651
-79 c26 -10 27 -12 8 -19 -68 -27 -107 -33 -126 -22 -10 7 -26 12 -35 12 -29
0 -8 25 27 31 56 10 96 10 126 -2z m-1917 -72 c0 -36 8 -68 26 -104 39 -77 66
-98 124 -98 57 0 85 21 101 76 10 32 9 42 -8 71 -17 30 -24 33 -64 33 -46 0
-45 1 -37 -55 2 -21 -1 -25 -22 -25 -19 0 -26 7 -34 33 -12 43 4 78 48 98 68
33 148 -11 176 -97 17 -49 2 -120 -33 -158 -34 -37 -103 -64 -144 -56 -67 12
-163 87 -163 126 0 10 -4 21 -10 24 -19 12 -12 84 16 183 9 30 24 -3 24 -51z
m2038 26 c2 -8 -6 -13 -20 -13 -12 0 -32 -7 -42 -15 -24 -18 -59 -20 -54 -2 3
6 13 14 24 16 10 2 23 10 27 18 10 17 59 14 65 -4z m-532 -79 c49 -33 101 -87
117 -124 4 -8 17 -31 28 -50 28 -46 59 -177 59 -249 0 -109 -25 -170 -29 -70
-3 108 -74 293 -133 351 -18 18 -62 49 -96 68 -34 19 -62 39 -62 43 0 4 10 12
23 17 12 5 16 9 10 9 -7 1 -13 10 -13 21 0 31 34 25 96 -16z m109 24 c28 -13
33 -36 10 -44 -9 -4 -25 4 -39 19 -33 36 -20 48 29 25z m1653 -53 c11 -53 -5
-155 -19 -120 -11 28 -11 165 0 165 5 0 14 -20 19 -45z m-2045 -7 c19 -24 47
-70 62 -103 47 -100 82 -313 55 -330 -5 -3 -10 -1 -10 6 0 6 -16 45 -35 86
-20 40 -33 77 -30 82 3 5 -8 19 -25 31 -16 12 -30 27 -30 34 0 6 -29 43 -65
81 -36 38 -65 71 -64 74 0 7 91 79 101 80 4 1 22 -18 41 -41z m540 -3 c-3 -13
-66 -26 -77 -15 -4 4 -5 13 -1 20 8 13 81 9 78 -5z m90 -42 l32 -16 -40 -18
c-22 -10 -48 -18 -57 -18 -16 -1 -15 2 3 34 12 19 23 35 25 35 3 0 19 -7 37
-17z m-2809 -15 c3 -7 7 -65 10 -128 l6 -115 -24 40 c-19 31 -24 56 -26 115
-3 96 -3 100 15 100 9 0 17 -6 19 -12z m2914 -46 c3 -17 -2 -25 -17 -29 -11
-3 -22 -12 -25 -20 -7 -17 -26 -8 -26 13 0 25 32 65 49 62 9 -2 17 -14 19 -26z
m355 13 c40 -9 83 -18 96 -21 51 -11 1 -23 -101 -25 -95 -2 -110 1 -143 21
-27 17 -33 25 -23 31 20 13 92 11 171 -6z m866 -72 c1 -18 5 -33 11 -33 5 0
13 -12 16 -27 13 -51 68 -116 140 -165 31 -21 45 -48 26 -48 -4 0 -30 15 -58
34 -76 51 -125 124 -161 238 -3 10 -2 30 2 45 7 26 8 26 15 8 5 -11 9 -35 9
-52z m-4021 25 c-3 -35 -22 -48 -32 -22 -9 24 2 54 20 54 11 0 14 -9 12 -32z
m2291 12 c42 -21 81 -63 81 -87 0 -8 7 -21 15 -29 31 -32 15 -108 -27 -130
-39 -20 -46 -12 -14 14 22 17 26 28 26 68 -1 44 -5 52 -39 83 -21 18 -61 41
-87 50 -59 21 -73 51 -24 51 17 0 48 -9 69 -20z m1907 5 c4 -8 17 -15 29 -15
29 0 42 -18 21 -26 -19 -7 -89 34 -80 47 8 14 24 11 30 -6z m1504 -40 c49 -31
90 -90 90 -129 0 -46 -44 -86 -95 -86 -50 0 -93 37 -78 65 9 15 11 15 22 1 28
-34 91 -11 91 32 0 54 -78 102 -165 102 -79 0 -152 -38 -265 -139 -19 -17 -39
-31 -44 -31 -5 0 -17 -7 -27 -16 -10 -9 -23 -13 -29 -9 -14 8 141 163 202 202
55 35 96 43 185 38 55 -4 83 -11 113 -30z m-2783 -1 c13 -20 11 -22 -34 -37
-26 -9 -50 -14 -52 -11 -3 2 3 20 12 40 20 40 50 44 74 8z m-1018 -8 c15 -26
8 -46 -15 -46 -12 0 -12 4 -4 20 9 16 8 22 -5 26 -18 7 -20 24 -2 24 8 0 19
-11 26 -24z m3431 15 c0 -17 -68 -41 -115 -41 -42 0 -94 -16 -135 -41 -8 -5
-24 -13 -35 -18 -11 -5 -58 -41 -104 -80 -47 -39 -89 -71 -95 -71 -5 0 -17 -6
-25 -13 -9 -8 -42 -20 -74 -27 -48 -11 -68 -11 -105 -1 -60 16 -108 46 -115
71 -7 27 10 25 52 -7 32 -25 44 -28 116 -28 79 0 81 1 135 42 30 23 79 65 109
92 30 27 79 62 110 77 74 37 281 70 281 45z m-2635 -33 c22 -11 49 -25 60 -31
43 -24 95 -85 125 -145 27 -54 31 -72 28 -129 -4 -83 -23 -94 -32 -19 -16 142
-115 252 -268 300 -11 3 -18 15 -18 30 0 23 3 25 33 20 17 -4 50 -15 72 -26z
m313 -30 c22 -22 12 -35 -29 -42 -51 -8 -56 -4 -35 29 18 27 45 32 64 13z
m2901 -33 c110 -69 168 -163 181 -290 4 -38 6 -72 4 -74 -9 -11 -34 12 -34 31
0 13 -7 32 -15 42 -8 11 -15 28 -15 38 0 10 -14 47 -30 82 -27 57 -54 89 -128
148 -23 18 -30 48 -12 48 6 0 28 -11 49 -25z m-247 -20 c0 -5 -5 -11 -11 -13
-6 -2 -11 4 -11 13 0 9 5 15 11 13 6 -2 11 -8 11 -13z m-4994 -28 c38 1 52 -3
52 -12 0 -19 -12 -25 -58 -27 -26 -1 -46 5 -57 15 -9 10 -21 17 -26 17 -5 0
-9 5 -9 11 0 6 8 7 23 2 12 -4 46 -7 75 -6z m2520 -37 c29 -27 52 -54 52 -60
0 -20 -49 -42 -77 -35 -26 6 -27 7 -8 17 30 16 30 16 5 43 -37 39 -67 32 -61
-13 2 -10 -2 -11 -18 -2 -16 8 -21 21 -21 55 l0 45 38 0 c32 0 46 -8 90 -50z
m1670 38 c-5 -15 -48 -24 -48 -10 0 14 12 22 33 22 10 0 17 -5 15 -12z m-568
-64 c0 -19 6 -34 15 -38 8 -3 15 -11 15 -17 0 -7 8 -18 17 -25 10 -7 15 -16
11 -20 -9 -8 -58 36 -58 52 0 7 -7 14 -15 18 -11 4 -15 20 -15 53 1 44 2 47
15 29 8 -11 15 -34 15 -52z m-1585 18 c52 -36 71 -74 59 -121 -10 -41 -51 -67
-90 -57 -36 9 -29 26 11 26 28 0 38 5 46 24 7 14 9 36 5 51 -8 30 -60 65 -98
65 -17 0 -28 5 -28 13 0 36 42 35 95 -1z m2078 21 c9 -9 -12 -33 -29 -33 -8 0
-14 9 -14 20 0 19 28 28 43 13z m-4025 -65 c-7 -19 -79 -40 -94 -27 -21 17
-17 27 14 32 57 9 84 7 80 -5z m3651 -3 c25 8 61 -10 61 -30 0 -22 -21 -18
-27 5 -7 27 -29 25 -37 -2 l-6 -23 -20 25 c-23 29 -26 48 -5 30 8 -6 23 -9 34
-5z m-1357 -57 c76 -46 238 -197 238 -224 0 -31 -52 -2 -135 75 -22 20 -69 59
-105 85 -136 103 -135 144 2 64z m405 17 c72 -25 169 -74 188 -95 21 -23 21
-23 -64 -9 -71 13 -118 38 -165 88 -33 35 -24 39 41 16z m-2632 -15 c3 -6 -2
-13 -12 -16 -10 -3 -32 -13 -49 -21 -23 -12 -36 -13 -50 -5 -17 9 -16 11 11
18 17 4 39 13 50 20 23 17 41 18 50 4z m4982 -20 c6 0 16 -6 22 -14 12 -14 74
-39 124 -50 32 -8 27 -26 -7 -26 -53 0 -200 93 -179 114 4 4 13 0 19 -8 6 -9
16 -16 21 -16z m-3167 -12 c0 -5 -4 -8 -10 -8 -5 0 -10 10 -10 23 0 18 2 19
10 7 5 -8 10 -18 10 -22z m713 -13 c74 -60 86 -102 36 -133 -19 -12 -20 -12
-14 10 4 13 7 25 7 28 0 23 -5 30 -25 30 -16 0 -26 9 -34 31 -12 32 -24 34
-82 18 -28 -8 -23 29 6 44 42 22 46 21 106 -28z m2887 -80 c0 -7 7 -18 15 -25
8 -7 15 -25 15 -41 0 -15 5 -31 10 -34 6 -3 10 -30 10 -58 0 -37 -3 -48 -10
-37 -5 8 -10 34 -10 56 0 25 -6 47 -15 54 -8 7 -15 20 -15 29 0 9 -25 44 -55
76 -36 40 -54 69 -54 85 0 23 5 19 54 -34 30 -33 55 -65 55 -71z m-1812 99
c34 -9 26 -24 -12 -24 -34 0 -52 11 -39 24 8 7 21 8 51 0z m-3563 -45 c-4 -5
-13 -9 -21 -9 -8 0 -14 -4 -14 -10 0 -5 -7 -10 -16 -10 -10 0 -6 8 13 24 26
23 50 26 38 5z m3700 11 c4 -6 -12 -10 -39 -10 -25 0 -46 5 -46 10 0 6 18 10
39 10 22 0 43 -4 46 -10z m-1036 -167 c36 -44 38 -54 12 -77 -26 -23 -39 -14
-33 23 3 25 0 32 -22 42 -19 9 -29 9 -40 0 -20 -17 -30 14 -10 34 26 26 60 18
93 -22z m-1949 4 c0 -7 -4 -17 -9 -22 -23 -24 -69 -135 -76 -183 -8 -59 -25
-61 -25 -2 0 46 35 143 67 188 25 33 43 41 43 19z m370 -27 c0 -24 -14 -44
-65 -95 -35 -36 -69 -65 -74 -65 -25 0 -137 -79 -184 -129 -55 -60 -127 -172
-127 -198 0 -8 -6 -29 -14 -46 -8 -18 -17 -41 -22 -52 -7 -19 -8 -18 -12 5 -5
29 16 129 32 149 11 14 31 48 43 71 19 40 147 202 176 223 17 14 64 43 104 66
40 23 85 55 100 71 36 37 43 37 43 0z m1141 -26 c31 -8 69 -14 84 -14 14 0 35
-5 46 -11 11 -6 41 -14 67 -19 87 -15 192 -62 285 -125 71 -48 78 -54 113
-100 47 -62 66 -114 62 -173 -4 -61 -20 -69 -31 -16 -15 72 -68 163 -127 217
-84 77 -142 104 -330 153 -36 9 -85 23 -109 30 -52 16 -97 18 -106 4 -3 -5 7
-12 22 -15 28 -6 73 -24 128 -53 36 -18 165 -121 165 -131 0 -13 185 -198 212
-212 14 -8 48 -25 75 -39 152 -78 205 -125 264 -235 40 -74 31 -291 -16 -382
-30 -56 -92 -130 -102 -120 -3 4 1 15 10 25 21 23 57 102 57 126 0 10 -8 25
-17 32 -17 13 -17 13 0 14 28 0 57 58 57 115 0 150 -98 279 -294 385 -63 35
-102 68 -148 128 -74 99 -174 203 -214 225 -109 59 -161 76 -274 94 -129 21
-252 7 -348 -40 -143 -69 -266 -234 -292 -393 -20 -116 -20 -118 -32 -106 -14
14 -29 83 -35 162 -7 91 16 179 72 279 42 76 154 155 265 189 100 30 381 34
491 6z m3146 -134 c34 -73 52 -151 51 -225 l0 -60 -13 60 c-21 97 -64 202
-129 310 -13 22 -21 44 -18 49 9 15 79 -72 109 -134z m-4917 76 c0 -7 -8 -20
-17 -27 -37 -31 -73 -93 -73 -126 0 -39 25 -46 34 -9 7 27 94 109 107 100 27
-16 1 -58 -72 -116 -9 -7 -32 -28 -52 -47 l-36 -34 -15 38 c-21 49 -20 74 3
127 27 63 121 136 121 94z m-444 -48 c10 -11 49 -41 86 -65 63 -41 108 -88
108 -112 0 -19 -15 -13 -81 31 -78 52 -149 123 -149 149 0 25 12 24 36 -3z
m2812 -12 c20 -19 33 -38 29 -42 -4 -5 -26 11 -49 34 -48 50 -32 57 20 8z
m-2610 -19 c22 -21 32 -40 32 -60 0 -16 -4 -27 -9 -25 -13 4 -91 106 -91 117
0 16 32 1 68 -32z m1927 -17 c93 -26 143 -44 157 -58 7 -7 17 -12 23 -12 17 0
115 -90 115 -107 0 -10 -12 -5 -40 17 -85 67 -172 103 -304 126 -134 22 -237
-1 -341 -77 -74 -54 -113 -105 -140 -181 -20 -60 -19 -197 2 -262 23 -67 94
-177 139 -213 19 -15 41 -33 47 -39 16 -14 71 -40 127 -58 62 -21 166 -22 212
-2 21 9 47 16 58 16 11 0 20 4 20 9 0 5 10 13 23 17 26 8 92 58 124 94 12 14
35 49 50 79 37 72 39 183 5 249 -27 51 -85 95 -146 111 -106 26 -238 -66 -260
-181 -7 -36 -8 -37 -34 -26 -61 26 -99 105 -88 183 5 29 20 56 52 93 60 68
114 92 210 92 63 0 84 -5 140 -32 74 -36 152 -114 182 -182 37 -82 37 -213 1
-296 -25 -57 -54 -110 -60 -110 -4 0 -16 -14 -26 -31 -21 -32 -108 -99 -130
-99 -7 0 -36 -11 -65 -25 -44 -21 -66 -25 -142 -25 -142 1 -248 44 -355 144
-168 158 -201 374 -89 583 94 177 319 262 533 203z m-1147 -85 c-17 -19 -57
-51 -87 -72 -31 -21 -61 -45 -68 -53 -11 -13 -12 -13 -13 3 0 9 5 17 10 17 6
0 10 5 10 10 0 20 -21 9 -66 -36 -25 -26 -50 -59 -56 -75 -5 -16 -14 -29 -19
-29 -5 0 -9 -10 -9 -22 0 -13 -5 -30 -10 -38 -7 -11 -10 -6 -10 22 0 20 5 40
10 43 6 3 10 15 10 26 0 24 79 130 118 157 15 11 52 29 82 42 30 12 69 28 85
35 44 19 49 8 13 -30z m2067 26 c129 -47 158 -71 85 -71 -47 0 -116 25 -147
53 -45 41 -20 48 62 18z m2252 -48 c15 -55 7 -156 -17 -208 -52 -116 -142
-203 -310 -301 -122 -72 -158 -89 -167 -80 -9 8 15 27 121 98 39 26 76 51 81
55 6 5 23 17 39 27 49 31 143 136 171 190 28 54 43 108 52 194 6 57 18 67 30
25z m-4877 -147 c14 -31 17 -51 12 -67 -8 -20 -12 -17 -40 36 -17 32 -29 62
-26 66 12 21 35 6 54 -35z m2630 -55 c51 -54 67 -80 103 -164 17 -39 47 -158
47 -186 0 -19 10 -47 49 -131 32 -69 134 -184 191 -215 78 -41 173 -85 185
-85 8 0 29 -6 47 -14 18 -7 78 -22 132 -32 63 -12 101 -24 104 -33 4 -12 -11
-13 -89 -8 -137 8 -222 32 -354 99 -115 58 -193 129 -257 233 -22 36 -53 125
-80 230 -17 66 -60 185 -69 191 -5 3 -9 13 -9 23 0 9 -22 42 -50 73 -55 62
-61 78 -28 78 14 0 43 -21 78 -59z m-2529 -24 c-7 -17 -19 -63 -26 -102 -15
-89 -33 -134 -44 -116 -17 27 11 186 42 239 26 44 48 28 28 -21z m-179 11 c9
-15 11 -60 2 -82 -3 -8 -29 -27 -57 -41 -83 -44 -104 -76 -134 -199 -20 -85
-5 -73 -132 -106 -51 -13 -61 -13 -61 4 0 22 48 56 97 69 32 8 43 16 43 30 0
17 -5 19 -40 14 -22 -3 -42 -1 -45 4 -11 17 16 49 41 49 37 0 81 26 87 52 8
30 4 32 -37 17 -44 -16 -62 -3 -37 26 22 26 50 41 109 61 88 30 92 33 85 50
-5 13 -14 15 -52 9 -25 -4 -54 -11 -64 -17 -24 -13 -31 -5 -17 19 13 20 70 50
110 57 39 7 92 -2 102 -16z m1943 -69 c37 -22 75 -82 75 -120 0 -32 -36 -85
-74 -108 -51 -32 -107 -28 -151 10 -19 17 -35 37 -35 44 0 24 33 27 62 5 61
-45 138 -11 138 62 0 29 -7 45 -26 63 -30 27 -45 30 -75 14 -16 -8 -19 -17
-14 -40 6 -25 4 -29 -14 -29 -43 0 -39 74 6 102 37 23 65 22 108 -3z m987 -6
c29 -15 69 -30 88 -34 149 -33 217 -47 288 -59 114 -18 57 -34 -105 -28 -108
4 -123 7 -183 36 -75 37 -142 82 -148 100 -5 17 -1 16 60 -15z m-2462 -41 c0
-12 -56 -52 -72 -52 -8 0 -23 -7 -34 -15 -12 -8 -51 -17 -88 -21 -58 -6 -66
-5 -66 10 0 9 6 18 13 20 6 2 41 11 77 21 36 9 79 23 95 30 34 15 75 19 75 7z
m-435 -62 c3 -6 -8 -18 -26 -28 -18 -9 -44 -29 -58 -44 -25 -28 -61 -124 -61
-166 0 -42 -51 -132 -75 -132 -3 0 -1 8 5 18 24 43 40 98 40 138 0 51 25 129
52 164 35 44 108 74 123 50z m2398 -8 c32 -10 57 -23 55 -28 -2 -5 -28 -8 -58
-7 -30 2 -92 3 -137 3 -46 1 -83 5 -83 9 0 15 74 40 120 40 25 1 71 -7 103
-17z m573 -57 c4 -8 10 -15 15 -15 11 0 79 -68 79 -79 0 -5 7 -11 15 -15 17
-6 21 -36 5 -36 -6 0 -13 7 -17 16 -3 9 -28 38 -56 66 -35 35 -60 51 -86 56
-34 5 -34 6 -11 13 40 11 50 10 56 -6z m-623 -24 c30 -12 79 -58 96 -92 7 -14
11 -39 9 -55 -3 -28 -4 -27 -31 23 -14 28 -42 63 -60 77 -43 33 -101 36 -117
6 -17 -31 -30 -24 -19 9 6 17 18 32 27 34 30 8 70 7 95 -2z m-2160 -51 c-3
-31 -68 -90 -100 -90 -34 0 -29 28 15 78 28 32 43 42 62 40 20 -2 25 -8 23
-28z m4836 -16 c-8 -9 -32 -28 -54 -43 -113 -73 -149 -82 -422 -111 -51 -5
-123 -17 -160 -25 -38 -9 -88 -21 -113 -27 -99 -24 -200 -28 -200 -8 0 5 15
11 33 15 17 4 52 13 77 20 25 8 81 22 125 31 44 9 91 21 105 26 14 6 66 14
115 19 322 31 335 34 440 91 58 31 73 35 54 12z m-5049 -41 c0 -45 -17 -61
-25 -25 -7 32 -1 52 16 52 5 0 9 -12 9 -27z m3055 -33 c-5 -8 -11 -8 -17 -2
-6 6 -7 16 -3 22 5 8 11 8 17 2 6 -6 7 -16 3 -22z m101 -16 c13 -14 24 -29 24
-33 0 -5 7 -11 15 -15 8 -3 15 -12 15 -21 0 -8 5 -15 10 -15 6 0 10 -7 10 -16
0 -13 -5 -12 -22 7 -34 37 -88 106 -88 113 0 12 13 5 36 -20z m174 -55 c252
-235 449 -338 750 -393 106 -20 145 -20 243 -1 93 18 97 18 97 5 0 -5 -17 -12
-37 -16 -21 -4 -44 -11 -51 -17 -8 -6 -76 -13 -152 -15 -143 -5 -249 10 -328
44 -18 8 -40 14 -48 14 -9 0 -28 6 -42 14 -15 7 -61 30 -102 51 -94 46 -102
50 -175 105 -67 49 -172 152 -225 219 -44 54 -46 61 -23 61 10 -1 52 -32 93
-71z m-336 45 c11 -27 7 -37 -9 -24 -16 14 -20 40 -6 40 5 0 12 -7 15 -16z
m-3234 -20 c0 -17 -22 -14 -28 4 -2 7 3 12 12 12 9 0 16 -7 16 -16z m-60 -58
c0 -8 -9 -18 -20 -21 -16 -5 -19 -12 -14 -33 4 -15 11 -35 15 -44 12 -22 11
-65 0 -72 -5 -3 -11 7 -14 22 -8 39 -51 82 -82 82 -31 0 -32 18 -4 54 17 22
28 26 70 26 36 0 49 -4 49 -14z m2843 -26 c3 -11 16 -24 29 -29 19 -8 20 -10
4 -10 -23 -1 -56 26 -56 46 0 20 17 15 23 -7z m1231 -20 c11 0 53 -6 91 -14
141 -29 191 -39 245 -46 67 -8 163 -26 251 -47 60 -13 75 -13 150 1 110 21
123 8 29 -29 -51 -20 -204 -23 -300 -5 -117 21 -250 41 -365 55 -158 19 -214
31 -238 52 -18 17 -18 18 7 40 25 21 28 21 67 8 23 -8 51 -15 63 -15z m-3912
-73 c-23 -29 -54 -65 -71 -81 -30 -29 -31 -29 -31 -7 0 15 23 46 68 90 37 36
69 62 70 58 2 -4 -14 -31 -36 -60z m-265 -18 c9 -9 8 -18 -4 -38 -25 -39 -65
-81 -79 -81 -6 0 -17 -7 -24 -15 -14 -17 -56 -20 -65 -5 -3 6 4 15 17 21 13 5
36 17 52 26 l29 16 -22 16 -22 17 23 21 c37 33 75 42 95 22z m2723 -129 c-13
-24 -67 -50 -103 -50 -13 0 -32 -7 -43 -15 -10 -8 -26 -15 -35 -15 -9 0 -38
-21 -65 -46 -60 -57 -97 -74 -166 -74 -31 -1 -61 -7 -72 -15 -11 -8 -29 -15
-41 -15 -12 0 -30 -7 -41 -15 -23 -17 -44 -19 -44 -4 0 16 42 48 65 49 11 0
31 7 45 15 14 8 43 15 65 15 54 1 112 27 167 73 46 38 113 77 134 77 23 0 101
40 120 61 19 21 19 21 22 1 2 -12 -2 -31 -8 -42z m-2738 -91 c-19 -34 -65 -60
-79 -44 -5 4 -2 10 5 12 25 9 69 59 77 89 l9 29 3 -26 c2 -15 -4 -42 -15 -60z
m2716 -7 c4 -14 -34 -16 -42 -3 -6 10 13 21 28 17 6 -1 12 -8 14 -14z m-2664
-73 c-15 -16 -34 -29 -41 -29 -18 0 -17 2 25 46 25 27 38 36 40 26 2 -8 -9
-27 -24 -43z m-349 41 c3 -5 13 -10 21 -10 17 0 114 -70 114 -82 0 -15 -23 -8
-72 22 -26 17 -52 30 -57 30 -5 0 -11 7 -15 15 -3 8 -12 15 -20 15 -8 0 -18 5
-21 10 -3 6 5 10 19 10 14 0 28 -4 31 -10z m3167 -45 c34 -34 68 -109 55 -121
-7 -8 -51 43 -89 102 -24 38 -26 54 -8 54 4 0 22 -16 42 -35z m-1182 -5 c23
-14 -17 -41 -50 -33 -23 6 -24 5 -10 -11 13 -16 12 -20 -5 -32 -10 -8 -22 -14
-25 -14 -4 0 -12 -10 -18 -22 -7 -15 -11 -17 -11 -8 -2 25 -17 41 -34 34 -18
-6 -89 -98 -100 -128 -6 -15 -10 -17 -20 -7 -9 9 -8 18 6 42 9 17 17 36 17 42
0 21 80 106 113 121 52 24 113 31 137 16z m1099 -27 c25 -30 31 -47 31 -84 0
-26 -3 -54 -6 -63 -12 -32 -24 -15 -24 33 0 38 -6 56 -25 80 -14 16 -35 33
-45 36 -31 10 -24 35 9 35 22 0 38 -10 60 -37z m-3699 22 c0 -13 -74 -85 -87
-85 -7 0 -13 -9 -13 -19 0 -11 -8 -22 -17 -25 -10 -4 -37 -24 -60 -46 -24 -21
-43 -33 -43 -26 0 45 95 160 154 187 42 18 66 23 66 14z m240 -6 c0 -6 -9 -13
-19 -16 -12 -3 -17 -11 -14 -20 8 -21 -16 -34 -49 -27 -23 4 -34 -1 -63 -33
-20 -21 -43 -50 -51 -65 -8 -16 -19 -28 -24 -28 -16 0 -12 46 5 60 8 7 15 18
15 25 0 21 72 86 110 100 45 16 90 18 90 4z m200 -2 c0 -7 -11 -23 -25 -35
-14 -12 -25 -27 -25 -32 0 -7 -6 -7 -19 -1 -21 12 -31 5 -31 -20 0 -15 -6 -17
-30 -12 -23 4 -30 2 -30 -10 0 -9 5 -19 10 -22 6 -3 10 -16 10 -28 0 -16 -3
-18 -12 -9 -24 24 -38 13 -38 -29 0 -28 -4 -39 -12 -37 -21 7 -21 38 -2 96 20
59 70 117 118 138 40 17 86 18 86 1z m1831 -16 c-12 -16 -21 -39 -21 -50 0
-14 -6 -21 -18 -21 -10 0 -28 -11 -40 -25 -12 -14 -26 -25 -31 -25 -5 0 -13
-9 -16 -20 -3 -11 -13 -20 -20 -20 -8 0 -19 -8 -25 -17 -10 -16 -11 -16 -5 2
4 11 10 29 13 40 15 54 126 164 165 165 17 0 17 -2 -2 -29z m-238 12 c7 -7
-59 -73 -73 -73 -4 0 -31 -21 -59 -46 -56 -50 -62 -47 -29 16 37 69 134 131
161 103z m-2308 -18 c0 -5 -10 -11 -23 -13 -12 -2 -27 -12 -32 -23 -6 -10 -23
-25 -39 -34 -16 -8 -43 -28 -59 -45 -32 -32 -57 -24 -28 9 9 10 16 22 16 27 0
11 42 52 80 77 26 17 85 19 85 2z m867 -30 c6 -25 5 -41 -2 -43 -12 -4 -50
-87 -50 -111 -1 -14 -2 -14 -14 2 -7 9 -23 17 -34 17 -32 0 -36 19 -8 30 30
11 38 60 10 60 -25 0 -64 -42 -64 -70 0 -39 -16 -57 -24 -27 -7 29 23 104 53
131 32 29 85 55 106 53 14 -1 21 -13 27 -42z m2144 16 c21 -13 36 -34 46 -63
17 -50 14 -68 -13 -68 -10 0 -19 -4 -19 -9 0 -19 -32 -41 -61 -41 -39 0 -48
24 -20 54 11 12 21 32 21 45 0 33 -40 24 -60 -14 -8 -16 -21 -35 -27 -43 -15
-16 -17 -42 -3 -42 6 0 10 -4 10 -10 0 -18 -19 -10 -36 15 -15 24 -15 29 1 73
21 55 38 78 80 103 37 23 43 23 81 0z m99 9 c3 -5 19 -10 34 -10 15 0 36 -7
47 -15 10 -8 27 -15 36 -15 9 0 20 -5 23 -10 11 -18 -24 -22 -56 -6 -18 9 -41
16 -52 16 -21 0 -57 26 -57 42 0 11 17 10 25 -2z m453 -27 c-10 -2 -28 -2 -40
0 -13 2 -5 4 17 4 22 1 32 -1 23 -4z m-2521 -58 c45 -30 14 -111 -39 -103 -33
4 -33 50 1 58 14 3 26 10 28 17 6 17 -38 23 -79 11 -30 -9 -38 -16 -38 -34 0
-13 -4 -26 -10 -29 -6 -4 -10 7 -10 24 0 17 5 31 10 31 6 0 10 7 10 15 0 35
79 41 127 10z m2688 5 c11 -36 -5 -78 -42 -106 -53 -40 -128 -39 -205 4 -86
47 -92 50 -110 56 -29 9 -21 26 12 26 16 0 51 -13 78 -29 67 -39 115 -53 156
-45 55 10 86 39 86 80 0 37 15 46 25 14z"/>
<path d="M4317 7234 c-3 -3 -3 -13 0 -21 5 -12 7 -12 14 -1 15 23 4 40 -14 22z"/>
<path d="M4254 7177 c-9 -24 6 -44 18 -22 7 11 6 21 -1 28 -7 7 -12 6 -17 -6z"/>
<path d="M3533 7034 c-3 -8 -1 -20 6 -27 8 -8 11 -4 11 16 0 30 -7 35 -17 11z"/>
<path d="M3567 6813 c-13 -12 -7 -43 8 -43 9 0 15 9 15 25 0 24 -10 32 -23 18z"/>
<path d="M3818 6719 c6 -7 12 -24 12 -37 0 -14 5 -22 13 -19 6 2 12 17 12 33
0 23 -5 30 -25 32 -20 3 -23 1 -12 -9z"/>
<path d="M3870 6615 c0 -16 27 -32 37 -21 7 7 -16 36 -28 36 -5 0 -9 -7 -9
-15z"/>
<path d="M4697 6509 c18 -5 47 -5 70 0 34 8 31 9 -32 9 -59 0 -65 -1 -38 -9z"/>
<path d="M4427 6493 c-9 -2 -15 -9 -12 -14 12 -18 195 -7 195 12 0 9 -150 11
-183 2z"/>
<path d="M4267 6464 c-13 -13 5 -24 36 -24 44 0 78 10 71 21 -6 10 -97 12
-107 3z"/>
<path d="M4152 6428 c5 -15 67 -18 71 -3 1 6 -15 11 -37 13 -28 3 -37 0 -34
-10z"/>
<path d="M4100 6400 c-12 -8 -12 -10 3 -16 21 -8 35 2 21 16 -5 5 -15 6 -24 0z"/>
<path d="M5900 6336 c0 -11 9 -16 26 -16 31 0 28 23 -4 28 -15 2 -22 -2 -22
-12z"/>
<path d="M6011 6311 c-14 -9 20 -29 89 -55 8 -3 22 -10 30 -15 8 -5 62 -33
120 -61 58 -28 123 -62 145 -75 43 -26 89 -33 83 -13 -4 11 -83 60 -118 74 -8
3 -22 10 -30 15 -8 5 -22 12 -30 15 -8 3 -27 12 -42 20 -14 8 -33 14 -41 14
-8 0 -20 7 -27 15 -7 8 -22 15 -34 15 -11 0 -30 7 -40 15 -11 8 -30 15 -42 15
-12 0 -24 7 -28 15 -6 17 -15 19 -35 6z"/>
<path d="M1667 6344 c-14 -14 -7 -25 13 -22 12 2 21 8 21 13 0 12 -24 18 -34
9z"/>
<path d="M7370 6220 c0 -12 67 -80 79 -80 5 0 11 -7 15 -15 3 -8 10 -15 16
-15 22 0 8 25 -40 72 -48 46 -70 59 -70 38z"/>
<path d="M4830 6071 c0 -5 9 -12 19 -16 11 -3 22 -12 25 -20 3 -8 12 -15 20
-15 8 0 16 -3 18 -7 5 -12 66 -53 78 -53 5 0 10 -5 10 -10 0 -6 8 -14 18 -17
9 -4 41 -24 70 -46 29 -22 54 -38 57 -36 5 6 -56 73 -75 82 -28 13 -55 32 -63
45 -4 6 -15 12 -22 12 -8 0 -15 5 -15 10 0 6 -10 15 -22 20 -13 6 -41 21 -63
35 -44 27 -55 30 -55 16z"/>
<path d="M5570 5473 c0 -5 32 -42 71 -83 39 -41 89 -97 111 -125 22 -27 49
-56 59 -63 16 -11 19 -11 19 4 0 24 -37 69 -146 178 -87 88 -114 109 -114 89z"/>
<path d="M994 5846 c-13 -17 -29 -36 -34 -43 -13 -16 -13 -63 1 -63 13 0 48
40 49 56 0 18 35 44 58 44 37 0 25 27 -14 32 -30 4 -39 0 -60 -26z"/>
<path d="M1312 5583 c5 -25 28 -28 28 -4 0 12 -6 21 -16 21 -9 0 -14 -7 -12
-17z"/>
<path d="M2522 4178 c-58 -44 -50 -51 83 -78 25 -5 45 -4 53 2 18 16 -3 36
-45 44 -34 6 -58 34 -35 42 7 2 12 8 12 13 0 18 -27 9 -68 -23z"/>
<path d="M2385 4070 c-23 -25 -8 -45 44 -60 51 -14 71 -12 78 6 7 19 -13 34
-48 34 -18 0 -28 6 -32 20 -7 25 -19 25 -42 0z"/>
<path d="M2290 3970 c0 -5 9 -19 21 -31 15 -15 19 -28 15 -45 -10 -38 21 -44
51 -10 31 36 29 58 -8 79 -33 19 -79 23 -79 7z"/>
<path d="M2210 3876 c0 -8 6 -16 13 -18 7 -3 14 -32 17 -79 4 -57 8 -74 20
-74 18 0 24 67 12 135 -6 39 -11 45 -35 48 -19 2 -27 -1 -27 -12z"/>
<path d="M2133 3623 c-19 -7 -16 -19 16 -53 16 -18 32 -45 35 -61 8 -40 26
-36 26 5 0 45 -38 118 -60 115 -3 0 -11 -3 -17 -6z"/>
<path d="M2107 3494 c-13 -13 73 -143 96 -144 11 0 9 34 -3 46 -6 6 -21 31
-34 55 -23 42 -44 58 -59 43z"/>
<path d="M4320 2800 c-23 -14 12 -24 58 -15 31 6 34 9 17 15 -27 12 -57 12
-75 0z"/>
<path d="M4092 2730 c-21 -18 -30 -40 -14 -40 12 0 53 48 45 53 -5 3 -18 -3
-31 -13z"/>
<path d="M3997 2654 c-4 -4 -7 -17 -7 -28 1 -19 1 -20 11 -3 11 19 8 43 -4 31z"/>
<path d="M3900 2529 c0 -11 5 -17 10 -14 6 3 10 13 10 21 0 8 -4 14 -10 14 -5
0 -10 -9 -10 -21z"/>
<path d="M4508 2455 c-44 -29 -54 -43 -39 -58 7 -7 12 -6 17 6 3 9 12 17 19
17 7 0 18 7 25 15 7 8 21 15 31 15 11 0 19 7 19 15 0 22 -29 17 -72 -10z"/>
<path d="M4405 2408 c-9 -24 -1 -113 10 -111 14 4 19 103 6 116 -7 7 -12 5
-16 -5z"/>
</g>
</svg>
