<?xml version="1.0" standalone="no"?>
<!DOCTYPE svg PUBLIC "-//W3C//DTD SVG 20010904//EN"
 "http://www.w3.org/TR/2001/REC-SVG-20010904/DTD/svg10.dtd">
<svg version="1.0" xmlns="http://www.w3.org/2000/svg"
 width="300.000000pt" height="300.000000pt" viewBox="0 0 300.000000 300.000000"
 preserveAspectRatio="xMidYMid meet">
<metadata>
Created by potrace 1.10, written by Peter Selinger 2001-2011
</metadata>
<g transform="translate(0.000000,300.000000) scale(0.050000,-0.050000)"
fill="#000000" stroke="none">
<path d="M0 3000 l0 -3000 3000 0 3000 0 0 3000 0 3000 -3000 0 -3000 0 0
-3000z m5620 2795 c152 -249 -115 -732 -515 -933 -116 -58 -110 -50 85 116
249 212 409 463 409 642 0 124 -23 157 -66 92 -18 -28 -94 -97 -168 -153 -74
-56 -135 -110 -135 -119 0 -9 -8 -24 -18 -33 -11 -10 -12 -7 -4 8 23 41 -1 30
-194 -83 -341 -200 -770 -392 -539 -241 33 22 44 39 29 44 -16 6 -3 33 38 80
76 87 118 182 118 269 l0 64 -85 -82 c-183 -176 -588 -404 -1395 -782 -71 -34
-170 -83 -220 -110 -49 -27 -113 -59 -141 -72 -77 -37 -342 -277 -404 -368
-69 -101 -70 -171 -2 -405 83 -287 44 -369 -253 -527 -188 -101 -252 -230
-203 -414 19 -70 19 -74 -8 -39 -93 124 6 385 181 478 l60 31 -55 1 c-30 1
-55 9 -55 20 0 10 -19 24 -43 32 -29 9 -35 18 -18 28 17 11 9 28 -29 57 l-53
42 56 15 57 15 -80 24 c-70 22 -73 25 -25 26 80 3 67 32 -29 63 -75 25 -79 29
-35 39 45 11 41 15 -39 47 -123 49 -93 58 90 27 144 -25 154 -29 112 -52 l-46
-24 72 -49 c39 -27 83 -49 96 -50 13 0 -1 -22 -31 -48 -59 -53 -25 -186 42
-161 14 5 39 10 55 10 47 0 188 141 188 187 -1 24 -23 119 -50 212 -95 324
-65 424 199 658 240 212 257 310 41 231 -34 -12 -32 -6 13 44 73 81 97 134 97
217 0 84 3 83 -94 26 l-76 -45 66 81 c124 155 129 301 8 219 -97 -66 -124 -63
-60 5 157 168 132 263 -30 112 -69 -64 -165 -148 -215 -187 l-89 -70 116 133
c63 73 114 141 112 150 -3 9 15 59 39 111 30 64 40 112 31 148 l-14 53 -96
-107 c-94 -105 -123 -156 -73 -125 37 22 -25 -54 -89 -109 -30 -25 -60 -45
-67 -43 -7 2 -50 -32 -96 -76 -46 -44 -183 -161 -306 -262 -272 -222 -386
-347 -466 -507 -69 -138 -86 -316 -31 -316 51 0 549 -174 536 -187 -25 -25
-89 -12 -331 71 -406 139 -708 119 -892 -61 -34 -34 -63 -71 -63 -82 0 -11
-30 -33 -66 -48 -185 -77 -237 -303 -104 -451 85 -94 160 -123 143 -55 -22 88
11 103 224 103 256 0 283 -19 280 -198 -2 -74 -14 -135 -32 -156 -77 -90 -75
-542 4 -756 100 -273 209 -457 267 -453 69 4 144 -105 144 -209 0 -106 -33
-115 -49 -13 -17 109 -57 163 -110 149 -70 -18 -210 222 -323 556 -68 197 -68
600 -2 728 112 213 49 309 -194 298 l-132 -6 -6 -75 c-14 -170 -288 -22 -344
186 -41 151 45 343 178 398 34 14 62 37 62 50 0 32 127 133 240 192 71 37 131
48 285 55 l195 9 0 82 c2 216 148 411 590 783 249 210 557 521 641 647 l56 85
51 -51 c39 -39 51 -72 51 -139 1 -85 3 -87 38 -56 49 45 93 -10 93 -116 0 -40
11 -83 24 -96 39 -39 51 -438 15 -506 -17 -32 -14 -38 20 -38 30 0 41 -13 41
-50 0 -71 -19 -79 645 248 637 313 916 479 1091 649 102 99 108 101 135 64 42
-56 36 -218 -11 -312 -52 -101 -57 -102 224 53 280 156 523 331 602 434 68 90
65 89 114 9z m-281 -330 c-36 -41 -80 -83 -97 -93 -23 -13 -22 -7 6 25 21 24
30 43 20 44 -22 1 95 99 119 99 9 0 -12 -34 -48 -75z m-159 -74 c0 -5 -58 -42
-130 -82 -71 -40 -139 -87 -149 -106 -17 -28 -20 -28 -20 -2 -1 18 61 67 144
114 155 90 155 90 155 76z m-769 -130 c-20 -22 -43 -36 -51 -31 -16 10 -167
-93 -189 -129 -8 -12 -22 -16 -32 -10 -24 15 -103 -40 -84 -59 7 -8 -3 -8 -24
0 -28 11 -33 8 -21 -12 11 -18 9 -21 -10 -10 -16 10 -36 3 -53 -20 -26 -36
-62 -31 -40 6 7 10 109 73 227 140 119 66 234 134 256 151 53 39 66 23 21 -26z
m409 -91 c0 -16 -7 -28 -15 -26 -8 2 -154 -67 -325 -153 -343 -173 -621 -297
-635 -283 -5 5 93 57 218 115 125 58 344 167 487 241 301 156 270 144 270 106z
m892 -62 c25 -135 -43 -326 -186 -526 -35 -48 -35 -48 12 -23 48 25 48 25 34
-59 -33 -209 -219 -464 -423 -581 -60 -34 -109 -73 -109 -87 0 -106 -284 -364
-454 -414 l-84 -24 82 -59 82 -60 -48 -37 c-86 -67 -211 -119 -316 -132 l-104
-12 44 -46 c77 -82 -22 -148 -221 -148 l-84 0 43 -60 c63 -88 -13 -140 -206
-140 l-75 0 30 -59 c49 -93 40 -140 -28 -154 -113 -22 -54 -125 92 -158 31 -7
109 -32 173 -54 l115 -41 52 48 52 48 -9 -64 c-6 -44 0 -68 20 -76 24 -9 27 5
17 80 -9 69 -6 90 15 90 30 0 51 -60 52 -144 0 -36 15 -63 45 -78 25 -13 51
-33 58 -44 8 -12 148 -24 330 -28 213 -6 344 -18 401 -38 74 -27 90 -27 141
-1 149 77 304 -160 208 -317 -27 -44 -31 -69 -16 -93 15 -24 11 -47 -14 -85
-42 -65 7 -72 149 -21 130 46 183 -4 109 -102 -17 -22 -30 -70 -30 -109 -2
-171 -260 -479 -496 -591 l-105 -50 39 -55 c74 -102 75 -164 4 -164 -34 0 -94
-22 -134 -50 -127 -85 -179 -90 -1094 -90 -735 0 -875 -4 -875 -28 0 -63 -137
-70 -250 -12 -111 56 -350 56 -479 -2 -53 -23 -126 -39 -167 -36 -41 3 -100
-2 -131 -11 -59 -17 -189 14 -262 63 -27 18 -114 26 -270 26 -127 1 -267 9
-310 19 -52 12 -108 11 -162 -3 -99 -27 -357 80 -422 175 -20 30 -56 73 -79
96 -126 127 -139 298 -33 429 78 98 300 192 411 175 65 -10 96 0 210 68 125
75 130 81 71 81 -88 0 -145 54 -174 168 -21 85 -33 100 -94 120 -94 30 -151
141 -116 225 l24 57 12 -83 c15 -94 50 -147 99 -147 62 0 122 -59 122 -120 0
-94 82 -174 153 -148 58 21 61 29 35 95 -12 33 -9 35 27 16 46 -25 73 -107 54
-166 -24 -77 -326 -255 -399 -234 -236 65 -520 -210 -419 -405 l34 -65 25 46
c23 45 25 43 38 -44 14 -90 112 -225 128 -177 4 12 40 -5 80 -38 91 -75 164
-85 115 -16 -39 57 -40 164 -1 196 26 21 30 14 30 -54 0 -148 101 -186 519
-198 237 -7 296 -15 328 -43 29 -26 41 -28 48 -10 6 18 23 14 59 -15 65 -51
85 -51 72 0 -21 80 10 110 55 53 59 -74 157 -87 265 -35 111 54 472 62 514 12
31 -37 109 -41 88 -5 -11 20 -8 20 13 0 38 -35 59 -31 59 10 0 33 54 35 893
29 958 -6 1074 4 1132 97 15 23 47 39 80 39 72 0 69 24 -10 91 -108 90 -107
103 12 137 223 65 441 251 297 253 l-74 2 80 25 c117 36 177 81 226 170 59
105 57 108 -41 57 -252 -133 -777 -17 -1244 274 -83 51 -151 98 -151 104 0 5
38 -14 85 -44 133 -82 519 -266 575 -273 28 -4 60 -13 73 -21 46 -29 476 -42
554 -16 139 46 300 217 168 180 -74 -22 -261 -22 -335 -1 l-50 15 50 16 c128
40 173 131 65 131 l-75 0 70 43 c121 74 160 197 91 288 -29 38 -30 38 -30 -5
-1 -24 -24 -69 -53 -100 -40 -44 -49 -47 -38 -16 50 153 42 167 -66 112 -41
-21 -110 -47 -154 -59 l-80 -22 70 58 c100 83 78 90 -337 104 -205 7 -379 14
-387 15 -8 1 -10 15 -4 30 10 27 -210 127 -362 163 -33 8 -69 21 -80 30 -11 8
-68 21 -126 29 -74 10 -104 22 -97 40 12 30 -59 65 -163 82 -57 9 -75 21 -75
50 0 24 10 35 30 30 17 -5 51 -15 76 -22 77 -22 53 41 -46 121 -108 90 -104
107 13 48 198 -101 252 -80 149 59 -26 36 -43 79 -37 94 12 33 12 33 116 8 44
-10 114 -13 156 -6 l76 11 -55 58 c-64 67 -111 77 -55 12 l38 -45 -44 37 c-25
21 -43 47 -40 58 2 11 -9 25 -24 30 -19 7 -23 2 -12 -17 10 -17 9 -21 -2 -11
-10 9 -18 27 -18 39 0 13 -58 47 -130 78 -163 69 -133 72 61 6 176 -60 322
-80 447 -61 l93 14 -73 88 c-40 49 -82 89 -93 89 -12 0 -10 -12 4 -29 19 -22
16 -33 -16 -50 -58 -30 -77 -26 -32 8 37 27 33 31 -71 79 -113 51 -109 72 6
27 114 -46 407 -30 533 27 l109 50 -145 91 -146 91 141 12 c227 19 380 106
506 289 61 90 61 91 14 77 -26 -8 -115 -19 -198 -24 l-150 -9 140 39 c403 112
602 252 720 506 61 131 65 129 -112 48 -259 -120 -331 -123 -142 -6 215 133
395 366 441 572 23 99 18 100 -75 16 -67 -60 -475 -294 -514 -294 -8 0 67 51
168 114 101 63 244 175 318 250 157 158 160 159 178 64z m-3716 -122 c-201
-190 -319 -293 -416 -364 -55 -40 -32 -13 60 71 83 75 222 206 310 291 88 85
163 147 166 138 3 -10 -51 -71 -120 -136z m2401 88 c-75 -65 -226 -160 -184
-115 28 31 233 180 247 180 6 -1 -23 -30 -63 -65z m-557 -115 c0 -11 -16 -26
-35 -33 -19 -6 -51 -26 -70 -42 -19 -17 -35 -21 -35 -9 0 12 29 40 65 63 76
48 75 48 75 21z m-1602 -86 c-70 -57 -401 -254 -372 -222 28 31 363 244 372
236 5 -4 5 -10 0 -14z m2473 -12 c-12 -20 -175 -98 -341 -164 -162 -65 -83
-15 137 87 229 106 219 103 204 77z m-1111 -51 c0 -16 -16 -30 -36 -30 -20 0
-54 -16 -76 -35 -22 -19 -51 -38 -66 -41 -61 -13 -300 -140 -287 -152 8 -8 -3
-8 -24 0 -29 11 -34 8 -21 -14 9 -15 9 -22 1 -14 -9 8 -52 -4 -95 -26 -110
-56 -119 -33 -13 28 73 42 596 310 612 313 3 1 5 -12 5 -29z m1659 -122 c-71
-72 -165 -158 -209 -192 -44 -33 -8 8 80 92 88 83 151 152 140 152 -18 0 87
75 109 79 6 0 -48 -58 -120 -131z m-2979 -18 c0 -5 -74 -47 -165 -92 -193 -97
-192 -81 1 24 136 74 164 86 164 68z m1559 -83 c22 -29 41 -67 40 -85 0 -17
-13 -3 -29 32 -18 44 -46 69 -84 77 -93 21 -99 26 -32 27 46 2 75 -13 105 -51z
m1211 13 c-7 -11 -27 -20 -44 -20 -18 0 -65 -24 -104 -54 -64 -48 -68 -48 -32
-7 53 62 213 134 180 81z m-3544 -82 c70 -36 154 -123 153 -157 -1 -21 -9 -16
-24 14 -39 82 -151 137 -187 92 -45 -57 -20 -167 52 -232 60 -54 59 -77 -1
-29 -92 73 -122 182 -76 283 27 59 26 58 83 29z m2251 -55 c3 -26 -5 -58 -18
-70 -19 -17 -21 -17 -11 2 25 45 -8 102 -64 112 -39 6 -34 8 16 6 57 -2 71
-12 77 -50z m1006 16 c-49 -40 -103 -52 -103 -22 0 10 29 27 65 38 90 29 91
29 38 -16z m-1903 -39 c0 -11 -8 -20 -18 -20 -10 0 -63 -41 -119 -92 -98 -87
-129 -146 -150 -288 -4 -27 -9 -11 -10 36 -4 120 36 202 147 300 92 81 150
106 150 64z m1745 -3 c-23 -23 -468 -141 -482 -127 -4 4 55 25 130 47 75 22
182 53 237 69 127 38 143 39 115 11z m-1754 -265 c-31 -80 -80 -145 -166 -219
-33 -29 -41 -30 -38 -7 7 43 53 94 87 94 15 0 23 8 17 19 -6 10 -2 24 9 31 41
25 105 189 93 237 -7 26 -6 54 2 62 30 30 27 -139 -4 -217z m-1488 110 c-4
-54 4 -118 17 -142 15 -28 16 -40 3 -32 -41 25 -68 158 -45 217 29 76 33 70
25 -43z m1417 -52 c-15 -67 -70 -170 -90 -170 -6 0 8 34 30 75 22 41 40 100
40 131 0 31 8 51 18 45 10 -6 11 -42 2 -81z m401 69 c60 -32 104 -134 90 -208
-44 -238 -397 -183 -364 57 18 138 157 214 274 151z m1925 -92 c-172 -138
-186 -146 -77 -41 54 51 106 94 115 94 9 0 16 9 16 20 0 11 14 20 31 20 17 0
-22 -42 -85 -93z m-2546 35 c0 -10 -32 -56 -71 -103 -70 -84 -94 -239 -48
-309 74 -113 74 -366 0 -507 -32 -62 -64 -131 -71 -152 -10 -33 -15 -35 -31
-10 -14 22 -19 14 -21 -31 -3 -60 -3 -60 -18 10 l-15 70 -4 -90 c-3 -70 -8
-81 -21 -50 -9 22 -18 29 -19 15 -2 -39 -41 -29 -41 11 0 32 48 89 85 100 143
42 220 299 154 514 -23 74 -37 147 -31 162 6 16 2 53 -10 82 -28 75 -9 134 75
227 75 82 87 91 87 61z m1295 -91 c-48 -73 -73 -82 -36 -13 19 36 17 42 -18
42 -25 0 -36 -10 -29 -27 6 -15 -4 -58 -21 -95 -17 -38 -27 -51 -21 -31 38
135 39 133 -33 135 -58 2 35 30 188 55 9 2 -5 -28 -30 -66z m775 -53 c-77 -24
-482 -78 -560 -75 -80 2 437 92 540 93 79 1 79 0 20 -18z m-3474 -109 c-7 -6
-33 -14 -59 -17 -26 -4 -63 -14 -83 -22 -20 -8 -41 -10 -48 -3 -6 6 -35 -4
-64 -24 -93 -65 -114 -72 -74 -26 59 67 21 51 -68 -29 -44 -40 -80 -65 -80
-55 0 9 -17 -9 -38 -40 -22 -34 -43 -48 -51 -35 -17 27 25 107 49 92 10 -6 33
12 52 40 18 28 38 47 43 41 6 -5 35 8 66 30 30 21 69 34 85 28 17 -7 35 -3 42
7 6 10 62 20 125 21 62 2 109 -2 103 -8z m226 -32 c73 -22 89 -57 26 -57 -17
0 -25 8 -19 19 13 21 -162 9 -319 -21 -55 -11 -148 -51 -206 -89 -58 -39 -134
-76 -170 -82 -57 -10 -53 -6 36 43 306 169 309 170 468 173 119 2 137 5 82 17
-52 11 -57 15 -22 17 26 2 82 -7 124 -20z m606 -100 c-54 -60 -208 -125 -176
-74 10 16 -8 19 -64 10 -51 -8 -64 -6 -38 5 38 16 37 18 -10 27 -27 5 9 11 81
12 81 2 146 14 170 32 58 44 81 37 37 -12z m1011 -104 c89 -118 95 -133 51
-133 -17 0 -29 7 -28 15 6 34 -4 60 -37 97 -96 109 -109 128 -89 128 13 0 59
-48 103 -107z m859 -34 c-38 -33 -95 -74 -128 -90 -33 -16 -43 -18 -21 -4 21
14 70 54 110 89 39 36 79 65 89 65 9 1 -13 -26 -50 -60z m-3288 -12 c26 -10
28 -16 7 -29 -19 -12 -16 -19 14 -30 57 -21 90 -50 78 -70 -6 -9 -28 1 -50 23
-21 21 -64 38 -94 37 l-55 -1 55 -20 c30 -11 51 -28 45 -37 -6 -10 -2 -23 10
-30 11 -7 20 -1 20 14 1 19 5 19 19 -3 13 -20 49 -28 115 -25 l96 3 -105 -29
c-150 -42 -221 -83 -264 -153 l-37 -62 -32 62 c-66 126 -36 257 74 324 74 45
62 42 104 26z m810 -5 c50 -14 50 -14 5 -26 -25 -7 -45 -5 -45 5 0 9 -29 20
-65 25 -65 8 -65 8 -5 9 33 0 83 -5 110 -13z m370 -122 c7 -11 -2 -20 -20 -20
-19 0 -27 9 -19 22 10 15 -1 18 -33 9 -32 -9 -39 -7 -22 5 20 13 11 24 -35 44
-34 14 -67 34 -73 44 -7 10 33 -4 89 -32 55 -28 106 -60 113 -72z m-249 29
c69 -35 74 -49 18 -49 -23 0 -36 8 -30 18 6 10 -14 28 -44 39 -30 11 -43 21
-29 21 14 1 53 -12 85 -29z m-315 -16 c62 -27 159 -114 122 -112 -39 3 -98 36
-68 38 38 3 -19 38 -120 74 -38 14 -54 26 -34 26 19 1 64 -11 100 -26z m1953
-78 c1 -17 -115 -6 -133 12 -7 7 7 13 31 13 24 0 50 15 57 34 13 32 39 -3 45
-59z m-1459 -94 c31 -58 27 -60 -69 -23 -117 44 -144 72 -31 32 l88 -31 -49
53 c-47 51 -47 53 -4 30 24 -12 53 -40 65 -61z m1455 -10 c-4 -27 -15 -57 -24
-65 -10 -9 -11 -5 -3 9 10 17 -1 25 -36 25 -27 0 -55 9 -62 20 -7 11 0 15 15
9 14 -5 44 4 66 20 51 39 51 39 44 -18z m1103 9 c22 -12 18 -21 -20 -41 -44
-23 -46 -23 -21 8 25 30 21 33 -36 33 -39 0 -58 8 -50 21 12 20 68 11 127 -21z
m-2767 -65 c51 -85 71 -135 53 -135 -21 0 -224 119 -224 131 0 6 40 -12 89
-40 l89 -49 -20 53 c-11 30 -30 65 -42 79 -11 14 -13 26 -3 26 10 0 36 -29 58
-65z m-372 -74 c12 -21 21 -65 21 -97 0 -91 23 -185 42 -172 29 17 20 -25 -10
-50 -33 -28 -51 25 -52 154 0 47 -14 113 -31 145 -16 32 -21 59 -10 59 11 0
29 -17 40 -39z m2010 0 c-31 -30 -138 -51 -121 -24 8 13 31 23 52 23 21 0 44
10 51 21 7 12 18 16 25 10 6 -6 3 -20 -7 -30z m-1367 -110 c10 6 18 -3 18 -20
0 -45 -109 12 -142 74 -22 39 -17 38 41 -11 35 -30 73 -49 83 -43z m1319 31
c-20 -38 -129 -88 -148 -68 -9 8 79 64 163 103 3 2 -4 -14 -15 -35z m-1807
-180 c34 -145 35 -147 59 -90 14 32 25 45 25 28 0 -155 -52 -144 -96 20 -70
265 -67 254 -44 220 11 -16 37 -97 56 -178z m222 28 c4 22 16 48 25 58 15 16
9 -35 -13 -106 -11 -35 -79 22 -120 102 -46 90 -32 87 36 -6 54 -74 66 -82 72
-48z m3336 -49 c17 -90 26 -169 21 -175 -6 -6 -15 11 -20 37 -5 26 -19 95 -31
154 -24 115 -28 176 -11 159 5 -6 24 -85 41 -175z m-4164 50 c-48 -36 -62 -4
-26 63 27 49 27 49 46 7 14 -32 10 -48 -20 -70z m4102 -60 c17 -85 29 -187 28
-228 -1 -63 -75 295 -77 375 -2 67 22 -4 49 -147z m-2850 129 c0 -11 -14 -20
-32 -20 -120 0 -519 -283 -569 -402 l-26 -62 -30 77 c-17 42 -50 92 -72 111
-32 26 -36 39 -17 57 24 25 106 -80 106 -136 0 -39 36 -29 50 14 35 112 590
451 590 361z m2791 -146 c17 -84 29 -182 25 -218 -4 -42 -16 1 -33 119 -14
102 -36 185 -47 185 -20 0 -9 -137 17 -228 7 -24 3 -32 -11 -23 -12 7 -22 33
-22 57 0 24 -13 90 -28 146 -26 98 -25 102 10 93 23 -6 38 1 38 16 0 58 21 -3
51 -147z m-1732 78 c-36 -34 -119 -61 -119 -38 1 17 124 81 139 71 5 -3 -4
-18 -20 -33z m-2208 -29 c-7 -23 -31 -47 -54 -54 -44 -14 -97 -119 -97 -192 0
-57 37 -25 50 43 16 85 50 94 50 14 0 -78 -61 -164 -106 -149 -96 32 -41 258
82 340 83 56 93 56 75 -2z m3369 27 c21 -26 14 -30 -53 -29 -77 0 -77 1 -27
29 28 16 51 29 53 29 1 1 13 -12 27 -29z m-3724 -27 c26 -17 -8 -303 -37 -303
-14 0 9 171 32 243 9 30 6 39 -14 33 -16 -6 -34 -61 -45 -142 -10 -74 -26
-134 -36 -134 -9 0 -13 20 -8 45 6 25 15 81 22 125 23 151 33 167 86 133z
m681 -88 c-3 -25 1 -55 9 -68 7 -13 0 -49 -16 -80 -16 -31 -30 -69 -30 -83 0
-38 162 -245 182 -233 10 6 12 -5 5 -25 -8 -20 -6 -29 3 -21 9 8 30 3 47 -10
25 -21 28 -20 18 7 -35 96 266 334 376 298 59 -20 78 -19 105 5 65 56 94 61
46 8 -44 -48 -58 -52 -154 -40 l-106 12 -106 -105 c-94 -93 -97 -99 -27 -49
64 47 76 50 64 19 -8 -21 -25 -111 -37 -199 -17 -129 -37 -187 -99 -290 -42
-71 -77 -136 -77 -145 0 -9 -10 -16 -22 -16 -12 0 14 66 58 146 73 131 125
311 124 423 -1 34 -18 23 -95 -57 l-93 -98 -41 56 c-108 147 -110 148 -110 66
-1 -112 38 -275 93 -383 27 -53 44 -102 38 -108 -38 -38 -152 299 -155 459 -4
165 -4 166 -16 46 l-12 -120 -16 80 c-8 44 -19 100 -25 125 -5 25 0 45 12 45
11 0 20 10 20 21 0 12 -10 15 -23 7 -17 -10 -19 12 -8 84 8 54 14 120 14 148
1 50 29 120 49 120 6 0 8 -20 5 -45z m1739 -7 c-24 -24 -48 -28 -99 -16 l-67
16 80 13 c44 8 89 15 99 16 11 2 5 -11 -13 -29z m1525 -41 c27 -70 -8 -109
-41 -48 -21 41 -16 101 10 101 6 0 20 -24 31 -53z m-1066 19 c-30 -5 -84 -5
-120 0 -36 4 -11 8 55 8 66 0 95 -4 65 -8z m1003 -97 c105 -120 77 -391 -34
-331 -50 27 -74 100 -56 172 20 77 52 59 52 -29 0 -79 27 -123 46 -75 16 43
-19 200 -51 223 -32 24 -60 111 -35 111 9 0 44 -32 78 -71z m-735 13 c26 -21
40 -46 31 -54 -8 -9 -39 8 -69 38 -62 62 -33 73 38 16z m-1093 -102 c-6 -9
-42 -16 -82 -16 -70 0 -71 1 -25 24 49 25 124 19 107 -8z m-1322 -70 c113
-176 111 -188 -6 -35 -36 47 -57 85 -46 85 11 0 34 -22 52 -50z m-508 -105 c0
-20 18 -47 41 -61 61 -38 84 -117 58 -197 -28 -85 -64 -67 -47 24 11 60 4 76
-50 123 -59 52 -78 103 -49 133 25 24 47 13 47 -22z m939 -40 c-27 -30 -55
-64 -64 -74 -9 -11 -15 -9 -15 6 0 26 88 123 113 123 7 0 -8 -25 -34 -55z
m906 25 c-36 -15 -74 -51 -85 -79 -10 -28 -24 -51 -29 -51 -6 0 -1 25 10 55
25 67 72 105 128 104 31 0 25 -8 -24 -29z m235 -127 c0 -71 -27 -123 -64 -123
-10 0 -2 22 16 50 19 29 29 75 24 109 -5 32 -1 54 8 49 9 -6 16 -44 16 -85z
m557 7 c52 -19 59 -27 33 -37 -69 -27 -120 -13 -144 39 -21 46 -20 50 10 37
19 -8 64 -25 101 -39z m1269 -55 c-6 -47 -20 -94 -31 -105 -14 -13 -16 2 -8
48 7 37 13 84 13 105 0 20 8 37 18 37 10 0 13 -38 8 -85z m63 -10 c-8 -52 -22
-104 -32 -115 -17 -18 -7 117 14 185 19 61 30 16 18 -70z m-3971 -17 c-16 -20
-10 -47 24 -107 55 -98 33 -133 -34 -55 -71 82 -66 270 5 211 20 -16 22 -29 5
-49z m1198 44 c-14 -15 -31 -25 -38 -21 -6 4 -46 -22 -89 -57 -43 -35 -70 -52
-61 -38 20 33 171 144 196 144 10 0 6 -13 -8 -28z m-1475 -134 c26 -160 38
-201 57 -189 9 5 4 66 -11 135 -28 136 -34 210 -15 191 7 -7 24 -78 38 -159
14 -80 32 -173 39 -206 11 -49 9 -53 -9 -25 -32 50 -65 43 -50 -10 9 -34 7
-37 -7 -15 -19 30 -83 335 -83 396 0 67 22 3 41 -118z m-51 -67 c33 -189 28
-256 -7 -97 -29 132 -49 299 -35 284 6 -6 26 -90 42 -187z m1845 147 c51 -19
55 -29 22 -50 -14 -9 -18 -5 -9 9 8 13 3 24 -12 25 -177 16 -243 15 -216 -4
23 -16 16 -19 -30 -14 -40 4 -75 -8 -105 -36 l-46 -43 106 -15 c98 -14 101
-16 43 -30 -34 -7 -74 -20 -90 -28 -15 -8 -11 -1 11 17 37 30 36 31 -25 31
-118 0 -62 94 87 148 77 28 170 25 264 -10z m1385 0 c21 -12 7 -17 -43 -17
-85 -1 -137 15 -137 42 0 21 131 2 180 -25z m-140 -69 c0 -16 -89 -9 -118 9
-15 10 -21 28 -13 40 12 21 131 -23 131 -49z m-1285 -49 c25 -10 45 -33 45
-51 0 -23 -25 -11 -90 42 -93 76 -124 119 -45 61 25 -18 65 -41 90 -52z m1600
26 c37 -6 71 -19 77 -29 15 -24 -147 -21 -194 4 -46 25 -29 68 19 49 18 -8 62
-18 98 -24z m-2935 -129 c0 -122 -89 -151 -137 -45 -34 73 -28 80 23 31 58
-54 74 -40 74 65 1 60 6 74 20 52 11 -16 20 -63 20 -103z m1523 8 c20 -41 31
-54 25 -27 -8 28 -5 42 7 35 36 -22 42 -121 13 -190 -34 -82 -34 -89 -6 -72
12 8 7 -10 -12 -39 -42 -64 -51 -65 -38 -7 42 200 23 309 -44 254 -32 -27 -33
-25 -9 18 13 26 20 65 14 87 -14 55 7 30 50 -59z m1282 55 c56 -34 59 -40 21
-40 -77 0 -159 39 -125 61 37 23 28 25 104 -21z m510 -49 c7 -6 -24 -11 -67
-10 -69 0 -148 35 -148 64 0 13 198 -37 215 -54z m-603 -46 c-5 -4 -37 7 -73
26 -49 25 -58 37 -37 50 26 16 130 -56 110 -76z m-1409 22 c21 -18 37 -43 37
-55 0 -11 -14 -1 -31 24 -36 51 -112 58 -158 13 -42 -43 -39 -101 9 -149 22
-22 32 -40 21 -40 -27 0 -81 83 -81 124 0 93 133 147 203 83z m1860 -18 c52
-31 67 -46 37 -38 -90 26 -136 46 -149 68 -22 35 20 24 112 -30z m-2254 10
c-31 -51 -10 -163 48 -258 l62 -100 -52 24 c-28 13 -41 27 -29 31 14 5 2 31
-28 67 -63 75 -61 257 2 257 6 0 4 -10 -3 -21z m2171 -59 l70 -60 -86 30
c-118 40 -134 51 -101 72 38 24 39 24 117 -42z m360 40 c22 -14 10 -19 -46
-20 -46 0 -71 8 -64 20 16 25 71 25 110 0z m-2183 -18 c36 -23 21 -90 -22 -98
-39 -8 -65 40 -48 86 13 34 31 37 70 12z m1685 -54 l48 -52 -69 28 c-71 29
-106 76 -56 76 15 0 50 -23 77 -52z m-142 24 c0 -5 6 -24 13 -42 12 -32 9 -32
-50 -2 -76 40 -79 52 -13 52 28 0 50 -4 50 -8z m1038 -72 c41 -1 46 -5 22 -20
-33 -21 -258 -27 -308 -8 -72 28 -2 53 114 41 66 -7 143 -13 172 -13z m-2674
-180 c10 0 13 9 6 20 -7 11 2 14 21 7 24 -9 26 -17 8 -28 -28 -17 17 -45 106
-67 41 -9 63 -3 89 28 41 47 70 53 53 9 -25 -65 -147 -105 -191 -63 -14 14
-55 45 -90 70 -68 48 -133 156 -113 189 7 11 30 -22 52 -73 22 -50 48 -92 59
-92z m3026 155 c-59 -35 -268 -53 -256 -22 11 30 62 41 196 44 86 1 94 -2 60
-22z m-4041 -59 c28 -41 43 -116 23 -116 -5 0 -24 -6 -44 -13 -28 -11 -32 -6
-22 34 9 34 0 61 -30 93 l-43 46 42 0 c24 0 57 -20 74 -44z m4311 -16 c0 -88
-344 -133 -530 -70 -76 26 -69 27 120 19 183 -9 297 11 405 68 3 2 5 -6 5 -17z
m-2990 -20 c-7 -11 -59 -19 -116 -17 l-104 4 110 13 c61 7 113 15 116 17 4 2
1 -6 -6 -17z m1983 -67 c-28 -111 -237 -136 -316 -38 -24 30 -22 30 22 -1 101
-69 281 -24 281 70 0 24 6 37 12 30 7 -7 7 -34 1 -61z m-1008 -29 c82 -70 13
-213 -96 -200 -122 14 -158 169 -52 224 55 30 93 23 148 -24z m-2515 -172
c120 -181 146 -252 91 -252 -54 0 -293 380 -272 434 18 49 42 25 181 -182z
m3673 128 c48 -21 104 -39 124 -40 58 0 266 -65 239 -74 -37 -13 -262 49 -376
103 -55 26 -94 48 -87 49 7 1 52 -16 100 -38z m-3239 -138 c32 -77 32 -84 3
-78 -34 6 -41 16 -96 144 l-33 79 45 -30 c24 -17 61 -68 81 -115z m2946 -73
c218 -162 459 -290 680 -361 77 -24 121 -45 98 -46 -173 -7 -789 337 -990 553
l-68 73 100 -80 c55 -44 136 -106 180 -139z m-2382 -86 c8 -13 6 -23 -5 -23
-23 0 -64 110 -62 168 1 24 12 8 27 -40 15 -45 32 -93 40 -105z m-129 -43 c0
-16 -14 0 -30 37 -16 37 -28 91 -28 120 1 41 8 33 30 -37 16 -49 28 -103 28
-120z m827 132 c74 -32 131 -61 128 -65 -16 -15 -208 56 -254 95 -59 48 -50
46 126 -30z m-258 0 c24 62 32 15 10 -50 -25 -72 -46 -63 -66 28 -11 54 -10
56 15 24 26 -32 29 -33 41 -2z m-660 -115 c31 -44 25 -87 -9 -66 -43 26 -14
-24 56 -100 41 -45 23 -32 -40 28 -104 99 -171 197 -75 111 22 -20 40 -26 40
-14 0 12 -9 27 -20 34 -11 7 -20 21 -20 31 0 33 37 20 68 -24z m784 -91 c15
-36 27 -81 27 -100 -1 -20 -15 -1 -30 42 -16 43 -37 88 -46 100 -9 12 -23 40
-30 62 -21 63 43 -21 79 -104z m179 -21 c-14 -15 -121 51 -171 104 -41 45 -31
41 65 -22 63 -41 110 -78 106 -82z m2879 115 l60 -15 -60 -1 c-33 -1 -100 6
-150 15 l-90 16 90 0 c50 0 117 -7 150 -15z m-3110 -155 c0 -16 -11 -24 -25
-20 -14 5 -59 -21 -100 -58 -41 -37 -89 -67 -105 -67 -17 0 -50 -22 -73 -49
-48 -56 -162 -101 -209 -83 -17 6 -58 -2 -91 -19 -104 -54 -134 -25 -38 38 58
39 100 53 132 45 58 -15 145 22 159 68 6 19 45 44 87 57 49 14 100 52 143 106
67 84 120 76 120 -18z m-909 -81 c-18 -17 -112 58 -100 78 8 13 32 3 61 -24
26 -25 44 -49 39 -54z m2662 36 c38 -33 82 -60 98 -60 16 0 29 -9 29 -19 0
-34 -112 18 -171 80 -74 77 -44 76 44 -1z m-2815 -105 c39 -36 99 -86 132
-111 l60 -46 -60 29 c-67 32 -250 191 -222 192 9 1 50 -28 90 -64z m1222 35
c77 -29 60 -37 -37 -17 -35 6 -63 20 -63 30 0 22 14 20 100 -13z m-1472 -47
c5 -7 -31 -14 -80 -15 -82 -2 -118 19 -65 36 31 11 135 -5 145 -21z m2169 -20
c4 -31 -1 -43 -16 -34 -12 8 -54 -14 -92 -47 -43 -38 -92 -62 -125 -61 l-54 0
60 44 c33 24 83 69 110 99 59 65 107 64 117 -1z m-2037 29 c0 -47 -28 -69 -63
-51 -45 25 -31 59 24 59 22 0 39 -4 39 -8z m1248 -109 c-27 -34 -67 22 -45 62
l25 45 13 -50 c7 -27 10 -53 7 -57z m177 68 c84 -26 182 -70 155 -70 -5 0 -73
22 -150 48 -153 52 -157 68 -5 22z m1773 -36 c0 -36 -5 -56 -10 -44 -13 31
-148 10 -148 -23 0 -42 -31 -34 -94 24 -31 28 -45 45 -31 38 14 -7 26 -1 26
14 1 14 11 6 23 -19 25 -51 47 -57 62 -17 7 17 30 23 61 18 36 -7 56 1 72 32
31 58 41 53 39 -23z m-3538 17 c0 -28 -69 -57 -89 -37 -16 17 30 65 61 65 16
0 28 -12 28 -28z m210 -12 c-7 -11 -48 -26 -91 -32 -43 -7 -73 -21 -67 -31 6
-9 -15 -43 -46 -74 -31 -31 -57 -67 -58 -80 -1 -12 -4 -43 -6 -68 l-5 -45 -19
48 c-20 51 33 164 121 257 43 45 198 68 171 25z m251 -31 c22 -27 17 -40 -31
-84 -56 -52 -57 -52 -45 -7 7 25 7 41 1 34 -7 -6 -25 4 -40 23 -26 32 -28 28
-18 -30 6 -36 3 -65 -7 -65 -38 0 -80 25 -70 42 6 10 -12 18 -40 18 -68 0 -65
36 4 50 30 6 78 19 105 29 77 26 113 24 141 -10z m3565 -9 c6 -22 31 -48 57
-59 26 -10 34 -18 17 -18 -32 0 -120 33 -94 36 8 0 6 19 -6 41 -12 22 -13 40
-3 40 10 0 23 -18 29 -40z m-4163 -71 c-49 -62 -51 -59 -21 30 16 43 30 57 43
44 14 -14 6 -38 -22 -74z m3620 -1 c34 -17 55 -22 48 -10 -7 12 -4 22 8 22 11
0 21 -19 21 -42 0 -32 -8 -39 -35 -28 -87 36 -100 33 -115 -23 -8 -32 -19 -46
-24 -32 -5 14 -20 25 -34 25 -13 0 -42 13 -63 29 -36 27 -33 29 36 20 65 -7
75 -3 75 31 0 48 5 49 83 8z m-3314 -7 c18 -29 -34 -101 -73 -101 -32 0 -32 3
0 60 36 63 54 73 73 41z m1362 -13 c27 -18 44 -40 38 -49 -5 -9 6 -26 26 -37
66 -39 4 -22 -81 21 -46 24 -73 47 -59 52 14 5 20 17 14 27 -17 27 7 22 62
-14z m-216 -1 c70 -18 53 -37 -35 -37 -78 0 -94 9 -67 37 17 16 43 16 102 0z
m-735 -37 c32 -39 11 -93 -30 -77 -18 7 -27 25 -21 41 6 15 2 23 -9 16 -22
-14 -27 16 -7 37 21 20 40 16 67 -17z m1910 11 c-6 -11 12 -26 40 -33 29 -7
48 -17 43 -21 -14 -15 -193 37 -193 55 0 10 28 18 61 18 35 0 56 -8 49 -19z
m621 -10 c35 -27 33 -27 -26 -6 -52 19 -74 19 -105 -1 -22 -13 -40 -16 -40 -6
0 45 117 54 171 13z m-1931 -7 c0 -31 -45 -61 -76 -49 -17 7 -25 3 -18 -8 6
-11 -6 -46 -27 -78 -37 -56 -39 -57 -39 -12 0 25 26 72 58 105 57 56 102 75
102 42z m2627 -10 c7 7 13 2 13 -11 0 -12 7 -22 15 -20 22 5 252 -103 242
-113 -14 -14 -177 49 -270 103 -85 49 -124 88 -50 48 21 -11 43 -14 50 -7z
m-2340 -43 c35 -27 34 -29 -8 -51 -24 -13 -38 -15 -32 -4 18 28 -55 43 -96 19
-19 -10 -56 -15 -81 -10 -36 7 -50 -2 -59 -37 -6 -25 -22 -57 -36 -72 -14 -14
-36 -48 -49 -76 l-23 -50 -2 51 c-3 117 106 236 223 244 58 4 111 9 116 11 6
1 26 -10 47 -25z m789 12 c16 -10 1 -17 -40 -18 -110 -3 -136 -11 -136 -36 0
-14 -14 -30 -30 -36 -17 -7 -39 -33 -49 -58 -16 -40 -19 -41 -20 -6 -3 103
187 210 275 154z m699 -128 c53 -60 137 -44 181 35 13 22 23 29 23 15 1 -42
-76 -105 -129 -105 -67 0 -131 67 -127 135 2 54 3 54 12 5 5 -27 23 -66 40
-85z m-2852 55 c-13 -72 -63 -100 -63 -35 0 32 6 65 14 72 24 24 56 0 49 -37z
m2346 32 c15 -25 -65 -37 -197 -29 -73 3 -109 -2 -101 -15 7 -11 -3 -43 -22
-72 -19 -29 -42 -76 -51 -104 -15 -46 -16 -44 -11 18 10 144 59 197 188 205
63 4 130 9 149 11 18 2 39 -4 45 -14z m-1906 -78 c-13 -4 -18 -16 -12 -26 13
-21 -47 -49 -65 -30 -7 7 9 35 35 63 32 34 51 43 57 26 4 -14 -2 -28 -15 -33z
m2035 28 c19 -22 13 -40 -27 -85 -41 -47 -50 -50 -50 -21 -1 23 8 32 24 24 14
-7 8 1 -14 19 -52 42 -69 39 -57 -9 11 -41 -22 -56 -44 -20 -7 11 -40 20 -75
20 -34 0 -56 -6 -49 -13 7 -7 -3 -27 -23 -45 -20 -18 -42 -49 -50 -70 -18 -50
-40 -27 -24 25 24 76 93 143 147 144 30 1 86 13 124 28 93 35 92 35 118 3z
m-979 -11 c25 -16 24 -25 -8 -60 -47 -52 -79 -53 -65 -1 7 26 0 40 -18 40 -15
0 -28 -18 -28 -40 0 -41 -14 -42 -143 -7 -23 6 -36 -5 -40 -35 -7 -47 -98 -96
-96 -52 1 63 81 120 180 130 55 5 105 17 111 27 14 22 70 21 107 -2z m-612
-171 c10 -26 -21 -30 -213 -29 -206 1 -219 3 -164 28 86 40 362 40 377 1z
m2616 1 c61 -27 24 -29 -423 -30 -435 0 -484 4 -440 29 73 42 767 42 863 1z
m-1663 -11 c0 -11 -45 -20 -100 -20 -55 0 -100 9 -100 20 0 11 45 20 100 20
55 0 100 -9 100 -20z m-380 -39 c0 -25 -67 -61 -114 -61 -27 0 -20 10 24 39
69 44 90 49 90 22z"/>
<path d="M2989 4251 c-98 -98 -39 -291 89 -291 62 0 126 37 109 64 -8 13 -4
17 10 8 43 -27 66 82 34 159 -47 112 -162 140 -242 60z m178 -7 c6 -9 -19 -12
-55 -8 -43 5 -77 -4 -99 -26 -18 -18 -33 -25 -33 -15 0 53 159 95 187 49z"/>
<path d="M433 3563 c-37 -40 -45 -153 -12 -173 13 -9 16 5 7 40 -9 38 -1 70
30 112 47 64 28 80 -25 21z"/>
<path d="M3041 1711 c-42 -50 -18 -138 43 -159 96 -34 182 94 112 164 -33 33
-126 30 -155 -5z"/>
<path d="M534 1727 c-14 -13 30 -106 91 -193 67 -96 61 -45 -11 84 -37 67 -73
116 -80 109z"/>
<path d="M691 1462 c-15 -24 81 -137 100 -118 8 8 -9 42 -37 75 -28 34 -57 53
-63 43z"/>
</g>
</svg>
