<?xml version="1.0" standalone="no"?>
<!DOCTYPE svg PUBLIC "-//W3C//DTD SVG 20010904//EN"
 "http://www.w3.org/TR/2001/REC-SVG-20010904/DTD/svg10.dtd">
<svg version="1.0" xmlns="http://www.w3.org/2000/svg"
 width="900.000000pt" height="900.000000pt" viewBox="0 0 900.000000 900.000000"
 preserveAspectRatio="xMidYMid meet">
<metadata>
Created by potrace 1.10, written by Peter Selinger 2001-2011
</metadata>
<g transform="translate(0.000000,900.000000) scale(0.100000,-0.100000)"
fill="#000000" stroke="none">
<path d="M4586 8801 c-6 -10 0 -12 64 -25 84 -16 292 -118 389 -190 86 -65
159 -139 167 -171 3 -13 12 -26 20 -29 16 -6 19 -32 4 -41 -6 -3 -13 2 -17 12
-3 10 -14 25 -23 34 -9 9 -25 27 -36 40 -10 13 -44 44 -74 69 -30 25 -57 47
-60 50 -9 9 -43 28 -100 55 -30 15 -63 31 -72 36 -27 14 -135 45 -214 63 -106
24 -358 21 -499 -4 -137 -25 -256 -59 -313 -89 -9 -5 -24 -12 -32 -15 -15 -6
-24 -11 -65 -34 -11 -7 -30 -16 -42 -22 -13 -5 -23 -14 -23 -20 0 -14 26 -12
42 3 7 8 25 16 38 19 28 7 79 25 127 45 37 16 85 17 99 3 6 -6 40 -14 75 -18
68 -7 81 -23 29 -33 -18 -4 -37 -12 -43 -18 -6 -6 -18 -11 -26 -11 -14 0 -99
-42 -376 -182 -119 -61 -167 -68 -530 -77 -221 -6 -314 -12 -355 -24 -51 -14
-103 -28 -174 -45 -16 -4 -31 -13 -34 -20 -3 -9 32 -12 145 -12 90 0 179 -6
228 -15 44 -8 97 -17 118 -21 40 -5 60 -30 36 -45 -8 -5 -42 -9 -77 -9 -46 0
-63 -3 -60 -12 3 -7 15 -15 28 -18 29 -7 37 -26 13 -33 -10 -3 -49 -17 -88
-32 -71 -27 -122 -29 -237 -9 -36 6 -40 3 -115 -68 -99 -94 -114 -103 -156
-88 -18 6 -52 15 -77 20 -25 4 -70 18 -100 30 -82 32 -90 34 -90 19 0 -14 61
-58 125 -91 58 -31 200 -78 231 -78 25 0 90 -26 98 -39 5 -7 -114 -102 -197
-156 -27 -17 -30 -17 -63 -2 -19 10 -44 17 -55 17 -11 0 -34 7 -50 16 -17 8
-47 16 -68 17 -34 1 -46 -7 -120 -73 -45 -41 -89 -78 -97 -83 -21 -12 -17 -36
9 -46 80 -31 117 -48 152 -70 22 -14 49 -30 60 -36 11 -6 21 -17 23 -26 3 -16
-147 -175 -172 -181 -22 -5 -156 -129 -156 -144 0 -8 23 -36 50 -62 28 -27 50
-57 50 -69 0 -11 -15 -40 -33 -64 -41 -55 -97 -138 -97 -145 0 -3 -11 -20 -24
-37 -13 -18 -37 -56 -52 -85 -16 -29 -34 -63 -41 -75 -17 -31 -46 -50 -171
-114 -62 -32 -124 -64 -138 -71 -31 -16 -44 -49 -44 -107 0 -77 15 -73 -233
-68 -125 3 -237 1 -257 -4 l-35 -10 2 -133 c2 -130 11 -180 48 -265 7 -16 16
-37 19 -45 3 -8 17 -33 31 -55 28 -46 31 -81 10 -109 -19 -25 -19 -71 0 -182
12 -69 21 -93 38 -106 20 -15 21 -23 19 -122 -3 -97 -2 -105 17 -116 27 -14
26 -31 -4 -92 -35 -69 -32 -90 20 -158 l45 -59 -30 -44 c-16 -25 -30 -53 -30
-62 0 -32 44 -114 67 -124 25 -12 24 -18 -14 -90 -30 -57 -29 -77 5 -93 26
-13 27 -16 30 -108 2 -52 -2 -131 -7 -175 -6 -44 -13 -130 -17 -191 l-7 -112
59 -46 c58 -46 184 -133 214 -149 8 -4 29 -16 45 -27 38 -24 65 -39 141 -78
60 -31 62 -32 99 -16 21 8 68 35 104 59 55 36 77 44 133 50 54 6 70 12 82 30
8 12 22 29 30 38 8 8 39 46 67 83 82 109 109 134 143 134 17 0 50 9 74 20 l42
19 0 82 c0 64 4 87 17 101 20 22 22 114 3 162 -6 16 -15 58 -20 93 -10 71 -28
98 -90 136 -82 49 -150 108 -150 130 0 36 34 242 40 247 15 11 80 111 80 121
0 6 41 54 90 106 50 51 90 99 90 105 0 7 13 26 28 43 35 38 75 135 94 229 9
46 8 51 -21 91 l-31 43 23 33 c13 19 26 41 30 49 4 8 18 35 32 59 14 24 25 54
25 67 0 42 34 69 198 154 23 12 45 26 48 31 3 5 15 9 28 9 17 0 26 -10 40 -42
49 -122 141 -272 208 -343 46 -49 48 -63 6 -67 -37 -3 -36 2 -22 -126 4 -44 2
-79 -9 -115 -13 -48 -31 -129 -45 -202 -2 -16 -22 -50 -43 -74 -22 -24 -45
-57 -53 -73 -14 -27 -14 -29 10 -40 16 -7 24 -19 24 -35 0 -27 -84 -143 -103
-143 -7 0 -38 39 -70 86 -55 81 -57 87 -47 122 19 70 14 88 -36 121 -25 17
-50 31 -55 31 -15 0 -124 -85 -193 -151 l-59 -55 14 -40 c20 -59 46 -84 88
-84 20 0 41 -4 47 -8 11 -7 48 -83 57 -117 3 -11 15 -45 27 -75 12 -30 26 -70
30 -89 5 -19 18 -47 29 -62 27 -36 26 -45 -4 -85 -14 -18 -25 -36 -25 -39 0
-4 -14 -25 -31 -46 -19 -25 -33 -55 -36 -82 -4 -28 -19 -60 -45 -95 -39 -52
-44 -82 -14 -82 32 0 25 -35 -23 -115 -22 -37 -95 -171 -134 -245 -16 -30 -37
-68 -48 -85 -23 -36 -39 -72 -39 -87 0 -11 178 -6 283 8 46 6 47 6 47 -20 0
-25 -7 -62 -31 -163 -7 -27 -14 -64 -18 -83 -6 -33 -8 -35 -61 -43 -142 -20
-197 -64 -176 -140 6 -18 4 -33 -5 -43 -13 -16 -109 -83 -139 -97 -8 -4 -28
-16 -45 -27 -16 -11 -37 -23 -45 -26 -8 -4 -25 -16 -37 -27 l-22 -20 35 -49
36 -48 -56 -73 c-31 -39 -72 -92 -91 -116 -37 -46 -39 -68 -9 -102 8 -8 14
-20 14 -26 0 -6 7 -16 16 -24 17 -14 16 -36 -6 -119 -7 -25 -18 -70 -25 -100
-7 -30 -19 -77 -25 -105 -7 -27 -17 -72 -21 -100 -22 -123 -35 -165 -62 -193
-15 -15 -27 -34 -27 -41 0 -7 -6 -25 -14 -39 -8 -15 -22 -55 -31 -89 -20 -70
-16 -82 35 -103 17 -7 30 -17 30 -22 0 -13 -63 -109 -92 -138 -27 -28 -114
-90 -127 -90 -15 0 -41 -37 -41 -58 0 -12 7 -37 15 -57 8 -19 22 -51 30 -71
13 -31 13 -39 1 -62 -13 -25 -27 -56 -57 -127 -7 -16 -22 -57 -34 -90 l-22
-60 -202 -5 c-165 -4 -203 -8 -211 -20 -14 -22 -12 -53 4 -76 14 -19 62 -19
3403 -22 2532 -2 3395 1 3416 9 56 23 56 79 -1 100 -15 6 -82 9 -151 8 -91 -3
-126 0 -129 9 -3 10 50 109 98 182 6 8 15 24 20 35 6 11 19 34 30 50 11 17 24
39 29 50 5 11 21 37 35 58 14 21 26 40 26 43 0 4 14 27 31 52 18 27 34 68 40
101 6 34 9 706 8 1699 -1 1068 1 1646 8 1653 5 5 56 8 119 7 l109 -3 -4 -45
c-3 -25 -5 -63 -5 -85 l-1 -40 105 -52 c58 -29 107 -53 110 -53 6 0 140 177
140 185 0 3 5 11 10 18 6 7 26 34 46 60 39 53 39 47 4 162 -12 39 -25 89 -30
113 -5 23 -14 51 -20 61 -5 11 -10 31 -10 45 0 38 -27 46 -147 46 -98 0 -110
-2 -126 -21 -18 -20 -23 -20 -250 -14 -133 5 -238 12 -245 18 -9 7 -12 32 -10
81 l3 71 71 35 70 35 15 137 c11 98 20 143 32 156 14 15 17 41 17 151 0 104 3
137 16 156 18 27 15 98 -10 246 l-12 74 -55 17 c-29 10 -71 20 -91 23 -20 3
-47 14 -60 24 -22 19 -23 24 -26 222 -2 111 -1 212 2 223 3 12 30 41 60 65
l54 45 17 133 18 134 -24 26 c-13 14 -86 79 -162 145 l-138 120 -42 -38 c-23
-21 -80 -72 -127 -115 -47 -43 -97 -88 -112 -101 -27 -23 -28 -26 -28 -128 0
-138 9 -165 71 -221 39 -36 51 -54 54 -80 1 -19 8 -47 14 -62 16 -42 14 -143
-5 -179 -10 -18 -14 -48 -12 -76 l3 -47 -40 -7 c-22 -4 -58 -10 -79 -13 -31
-5 -53 -20 -100 -67 -57 -56 -63 -59 -96 -53 -19 3 -53 9 -75 12 -22 3 -51 16
-65 29 -14 13 -41 26 -60 30 -19 3 -52 12 -73 20 -43 16 -103 18 -112 4 -10
-16 -44 -11 -65 10 -11 11 -32 22 -47 25 -16 4 -40 13 -55 21 -30 16 -91 20
-149 9 -33 -6 -38 -4 -75 38 -21 25 -57 80 -78 123 -22 44 -52 98 -68 122 -15
24 -28 47 -28 51 0 5 -7 14 -15 21 -26 22 -17 48 28 77 40 27 42 31 45 83 2
37 9 62 22 75 18 19 19 28 10 95 -15 124 -42 219 -108 385 -28 70 -103 178
-166 239 -77 74 -185 144 -349 226 -128 64 -129 65 -122 95 8 36 8 77 0 130
-6 36 -4 42 24 60 39 26 59 61 43 77 -7 7 -12 18 -12 25 0 7 -14 32 -31 57
l-31 44 18 53 c13 37 19 80 18 134 -1 68 -5 89 -31 142 -37 72 -84 137 -130
177 -34 29 -57 30 -32 2 27 -30 56 -72 65 -96 3 -8 12 -28 21 -43 15 -29 11
-63 -7 -52 -5 3 -10 14 -10 25 0 17 -13 35 -90 123 -113 129 -375 258 -556
274 -39 3 -64 1 -68 -6z m-301 -160 c13 -22 -45 -34 -177 -39 -91 -3 -138 -1
-138 6 0 14 25 22 73 23 23 0 60 4 82 8 57 12 153 13 160 2z m464 -115 c6 -7
25 -16 41 -20 44 -8 37 -26 -10 -26 -22 0 -40 4 -40 9 0 5 -34 12 -75 16 -55
5 -75 11 -75 21 0 20 143 20 159 0z m123 -8 c-5 -5 -17 -6 -26 -2 -13 5 -14 9
-5 14 16 11 43 0 31 -12z m-22 -138 c8 -5 11 -12 8 -16 -10 -10 -79 6 -73 17
8 12 46 12 65 -1z m-620 -40 c-20 -13 -87 -13 -95 0 -4 6 16 10 52 10 41 0 54
-3 43 -10z m285 0 c-3 -5 -15 -10 -25 -10 -10 0 -22 5 -25 10 -4 6 7 10 25 10
18 0 29 -4 25 -10z m-121 -49 c10 -15 -52 -24 -122 -16 -44 5 -60 10 -51 16
19 12 166 12 173 0z m-98 -112 c32 -17 66 -38 75 -45 8 -8 18 -14 21 -14 12 0
115 -73 151 -107 39 -37 44 -54 27 -97 -14 -38 -38 -32 -49 12 -13 48 -35 71
-121 128 -39 25 -72 50 -76 55 -6 10 -44 12 -44 2 0 -6 19 -49 58 -133 10 -19
25 -46 35 -59 9 -13 17 -33 17 -44 0 -11 13 -45 29 -76 29 -57 28 -91 -2 -91
-10 0 -72 120 -121 235 -7 17 -21 47 -30 68 -9 21 -16 46 -16 55 0 10 -6 26
-14 37 -7 11 -16 39 -20 63 -8 52 0 53 80 11z m744 10 c22 -12 43 -25 46 -30
9 -15 34 -10 34 6 0 30 39 14 90 -35 38 -38 56 -49 71 -45 10 4 19 11 19 16 0
5 7 9 15 9 10 0 15 -10 15 -29 0 -19 13 -44 35 -71 19 -23 35 -50 35 -59 0
-22 -19 -41 -41 -41 -21 0 -38 22 -21 28 7 2 12 11 12 19 0 14 -2 14 -19 -1
-10 -9 -25 -14 -34 -10 -13 5 -14 10 -5 30 6 13 15 24 20 24 4 0 8 8 8 18 -1
15 -2 16 -13 1 -7 -9 -22 -19 -35 -23 -18 -6 -24 -2 -32 18 -15 41 -34 32 -27
-11 8 -47 -4 -69 -29 -58 -11 4 -27 7 -36 6 -20 -2 -114 56 -142 88 -15 16
-30 21 -72 21 -29 0 -55 4 -59 9 -11 19 31 74 65 86 l34 12 -33 11 c-18 6 -30
16 -26 22 11 17 82 11 125 -11z m-138 -290 c18 -23 50 -50 71 -60 36 -19 51
-49 23 -49 -7 0 -19 -7 -26 -15 -7 -9 -29 -15 -55 -15 -26 0 -48 6 -55 15 -7
8 -25 15 -41 15 -33 0 -36 6 -13 31 20 22 10 41 -19 37 -18 -2 -22 2 -22 22 0
19 9 29 35 42 51 26 65 23 102 -23z m406 -28 c7 -14 16 -45 19 -68 3 -24 10
-46 14 -49 13 -8 10 -37 -6 -58 -18 -24 -48 -17 -107 28 -24 19 -58 36 -74 38
-18 2 -29 9 -29 18 0 19 60 15 89 -6 49 -34 77 -2 31 34 -27 22 -35 55 -10 46
8 -4 22 -3 30 0 14 5 13 10 -6 35 -28 37 -16 62 15 30 11 -13 27 -35 34 -48z
m-281 47 c18 -7 33 -18 33 -25 0 -20 -44 -15 -63 7 -28 34 -23 37 30 18z
m-2304 -50 c12 -6 35 -15 52 -19 76 -20 195 -72 280 -123 45 -27 162 -111 175
-126 3 -3 30 -25 60 -50 69 -57 180 -183 180 -206 0 -4 13 -28 28 -53 41 -67
85 -177 77 -191 -5 -8 -16 -3 -36 16 -27 26 -29 26 -29 7 0 -11 7 -26 15 -33
8 -7 15 -27 15 -45 0 -17 7 -46 16 -64 16 -32 13 -61 -6 -61 -5 0 -10 9 -10
19 0 11 -6 26 -12 33 -7 7 -30 47 -52 88 -85 164 -110 208 -160 275 -82 109
-190 223 -263 278 -16 12 -49 41 -74 65 -53 52 -153 102 -203 102 -13 0 -26 7
-30 15 -3 8 -17 15 -31 15 -14 0 -25 5 -25 10 0 6 -11 15 -25 20 -25 9 -31 21
-18 33 10 11 52 8 76 -5z m687 -41 c130 -60 275 -183 352 -298 l36 -54 -31
-32 c-17 -18 -36 -33 -42 -33 -6 0 -21 18 -34 40 -12 22 -57 76 -99 121 -42
44 -81 92 -86 105 -7 17 -18 24 -37 24 -16 0 -45 12 -66 26 -21 14 -48 30 -60
35 -13 5 -23 17 -23 28 0 10 -10 25 -22 34 l-23 15 25 10 c29 12 47 8 110 -21z
m1720 7 c0 -3 -6 -11 -13 -17 -7 -7 -35 -32 -61 -57 -37 -35 -49 -42 -55 -31
-13 21 8 60 36 67 13 4 23 10 23 15 0 5 9 9 19 9 11 0 23 5 26 10 7 11 25 14
25 4z m-535 -181 c-59 -51 -75 -39 -19 15 34 33 50 43 53 32 2 -8 -14 -29 -34
-47z m-1213 12 c16 -14 36 -25 43 -25 7 0 30 -19 50 -42 20 -24 45 -48 57 -54
20 -11 20 -11 -7 -32 -15 -12 -34 -22 -41 -22 -22 0 -27 21 -8 35 18 13 18 14
-1 29 -21 16 -28 18 -85 20 -24 1 -36 6 -38 19 -2 10 3 17 12 17 9 0 16 7 16
15 0 18 -41 20 -57 4 -6 -6 -17 -8 -24 -4 -9 6 -8 11 5 20 9 7 16 17 15 21 -6
33 24 32 63 -1z m-732 -95 c0 -5 -4 -10 -8 -10 -10 0 -42 -25 -91 -70 -87 -81
-110 -94 -95 -57 3 8 23 28 45 43 21 14 39 31 39 35 0 5 6 9 14 9 8 0 16 7 20
15 3 8 12 15 19 15 8 0 20 7 27 15 14 17 30 20 30 5z m131 -21 c14 -10 43 -20
65 -23 21 -2 40 -5 41 -5 9 -3 -22 -60 -35 -65 -26 -10 -57 -29 -77 -49 -10
-10 -30 -26 -44 -35 -29 -19 -64 -47 -93 -75 -21 -20 -48 -16 -48 7 0 8 42 53
93 100 50 47 87 86 82 86 -6 0 -26 -15 -45 -34 -19 -18 -49 -36 -67 -40 -17
-4 -34 -15 -37 -24 -3 -9 -3 0 0 20 2 20 0 39 -6 43 -10 6 27 65 42 65 5 0 14
5 21 10 43 35 63 47 72 42 5 -3 22 -13 36 -23z m1824 -2 c-16 -12 -38 -30 -47
-39 -10 -10 -23 -18 -30 -18 -6 0 -19 -7 -29 -16 -10 -9 -23 -13 -29 -9 -10 6
51 55 69 55 5 0 11 7 15 15 3 8 12 15 21 15 8 0 15 5 15 10 0 6 10 10 23 10
21 -1 20 -2 -8 -23z m575 -61 c0 -8 -4 -18 -10 -21 -5 -3 -10 3 -10 14 0 12 5
21 10 21 6 0 10 -6 10 -14z m58 -13 c-4 -22 -22 -20 -26 1 -2 10 3 16 13 16
10 0 15 -7 13 -17z m315 -20 c21 -52 41 -158 33 -179 -6 -15 -9 -16 -21 -3
-16 15 -55 156 -55 196 0 36 25 27 43 -14z m-455 1 c4 -28 -16 -77 -28 -69
-11 7 -14 78 -3 89 11 11 28 1 31 -20z m-2108 1 c0 -8 -9 -15 -20 -15 -20 0
-26 11 -13 23 12 13 33 7 33 -8z m-724 -26 c68 -33 207 -144 255 -202 17 -20
34 -37 39 -37 16 0 116 -72 165 -120 28 -26 69 -57 91 -69 23 -11 55 -33 71
-49 16 -16 38 -32 49 -36 46 -14 434 -427 434 -461 0 -11 -45 7 -53 21 -4 8
-15 14 -22 14 -8 0 -15 5 -15 10 0 6 -8 14 -19 18 -10 4 -86 71 -167 149 -170
162 -179 170 -262 238 -34 28 -62 53 -62 58 0 4 -6 7 -14 7 -8 0 -16 7 -20 15
-3 8 -12 15 -21 15 -8 0 -15 4 -15 8 0 5 -21 24 -46 42 -26 18 -74 59 -107 92
-34 32 -64 58 -68 58 -7 0 -100 69 -114 86 -5 6 -54 44 -107 84 -54 40 -95 76
-92 81 9 16 37 10 100 -22z m1269 0 c-10 -15 5 -49 21 -49 8 0 14 -10 14 -25
0 -31 -29 -34 -37 -5 -3 11 -9 20 -13 20 -14 0 -20 30 -10 56 6 14 15 22 20
19 6 -4 8 -11 5 -16z m2188 -46 c69 -53 162 -149 183 -188 11 -22 11 -25 -4
-25 -9 0 -37 11 -61 25 -23 14 -49 25 -56 25 -7 0 -18 6 -24 14 -20 23 -60 26
-67 4 -8 -27 -28 -17 -32 18 -2 16 -10 51 -18 78 -31 109 -14 120 79 49z
m-1842 -54 c20 -41 44 -94 54 -119 9 -25 23 -60 31 -78 8 -18 14 -47 14 -64 0
-29 -2 -30 -30 -24 -22 4 -30 2 -30 -9 0 -8 -4 -15 -10 -15 -5 0 -10 16 -10
35 0 22 -6 38 -15 41 -8 4 -15 11 -15 16 0 6 -9 29 -19 52 -11 23 -29 62 -41
88 -12 27 -26 50 -31 54 -5 3 -9 16 -9 30 0 26 46 77 64 71 6 -2 27 -37 47
-78z m999 56 c0 -8 -4 -15 -10 -15 -5 0 -10 7 -10 15 0 8 5 15 10 15 6 0 10
-7 10 -15z m-242 -52 c-29 -31 -74 -79 -100 -105 -27 -27 -48 -51 -48 -53 0
-3 -7 -13 -16 -22 -8 -10 -38 -51 -66 -90 -28 -40 -55 -73 -60 -73 -14 0 -9
40 7 46 8 4 15 11 15 16 0 9 53 81 116 158 52 64 176 180 191 180 8 0 -8 -24
-39 -57z m637 46 c42 -11 74 -42 75 -71 0 -23 -6 -23 -42 4 -65 46 -135 36
-250 -35 -49 -31 -78 -30 -78 0 0 29 30 65 47 58 9 -3 28 3 42 12 58 39 135
51 206 32z m-2270 -26 c0 -12 -118 -105 -147 -116 -10 -3 -18 -11 -18 -17 0
-5 -5 -10 -11 -10 -6 0 -26 -12 -44 -26 -63 -47 -95 -7 -37 45 45 39 131 103
165 121 35 20 92 22 92 3z m1845 -23 c0 -11 -7 -20 -15 -20 -17 0 -18 2 -9 24
9 23 24 20 24 -4z m-1742 -32 c-2 -15 -11 -24 -25 -26 -12 -2 -27 -10 -33 -18
-7 -8 -21 -14 -30 -14 -10 0 -20 -3 -22 -7 -7 -16 -68 -53 -87 -53 -30 0 -34
28 -6 52 39 34 99 65 150 78 50 13 57 12 53 -12z m592 -4 c0 -8 -4 -14 -10
-14 -5 0 -10 9 -10 21 0 11 5 17 10 14 6 -3 10 -13 10 -21z m1120 -19 c0 -16
-6 -25 -15 -25 -16 0 -19 9 -9 34 9 25 24 19 24 -9z m-1197 -15 c3 -11 1 -20
-4 -20 -5 0 -9 2 -9 4 0 2 -3 11 -6 20 -3 9 -2 16 4 16 5 0 12 -9 15 -20z
m-465 -11 c2 -9 -9 -30 -23 -47 -29 -35 -25 -64 5 -37 12 11 20 13 25 5 4 -6
15 -8 26 -5 11 4 19 2 19 -4 0 -10 -35 -16 -67 -12 -7 1 -17 -8 -23 -19 -6
-11 -15 -20 -20 -20 -5 0 -29 -13 -53 -30 -25 -16 -50 -30 -56 -30 -16 0 -13
20 4 26 8 4 15 15 15 25 0 11 7 22 15 25 26 10 18 35 -9 28 -35 -8 -43 14 -15
42 32 31 109 72 134 70 11 0 21 -8 23 -17z m572 3 c0 -9 -11 -29 -25 -44 -14
-15 -25 -36 -25 -48 0 -27 -24 -25 -39 4 -15 28 -6 67 14 60 7 -3 21 6 32 20
21 29 43 34 43 8z m1060 -31 c0 -11 -4 -23 -10 -26 -6 -4 -10 5 -10 19 0 14 5
26 10 26 6 0 10 -9 10 -19z m323 -81 c-3 -14 -10 -29 -14 -34 -5 -6 -9 -28 -9
-50 0 -50 -9 -86 -21 -86 -15 0 -10 105 6 126 8 10 15 29 15 41 0 12 3 29 6
38 10 26 25 -4 17 -35z m101 -45 c3 -33 8 -86 12 -119 4 -38 2 -56 -4 -52 -12
7 -22 65 -28 171 -6 94 11 94 20 0z m601 46 c156 -57 200 -109 177 -210 -9
-41 -29 -52 -34 -19 -2 16 -17 29 -50 45 -27 13 -48 27 -48 33 0 5 -6 10 -14
10 -7 0 -19 6 -26 14 -6 8 -21 16 -33 18 -16 2 -22 10 -23 30 -1 39 -21 58
-59 58 -30 0 -52 20 -38 34 13 12 100 5 148 -13z m-2009 -51 c13 -46 9 -55
-15 -32 -10 10 -26 22 -37 28 -16 10 -17 13 -5 28 24 28 46 19 57 -24z m1778
-112 c-6 -167 -24 -215 -24 -62 0 113 9 204 20 204 5 0 6 -64 4 -142z m-2304
97 c0 -18 -30 -34 -83 -44 -31 -5 -42 -12 -41 -24 2 -17 -21 -22 -50 -11 -40
15 10 74 63 74 20 0 43 5 51 10 23 15 60 12 60 -5z m330 -37 c8 -18 19 -40 25
-48 13 -17 35 -88 35 -114 0 -13 -7 -17 -27 -14 -27 3 -28 6 -34 74 -8 81 -16
114 -30 114 -5 0 -9 5 -9 10 0 23 29 7 40 -22z m2083 -63 c-5 -13 -23 -22 -23
-11 0 15 14 35 21 31 4 -3 6 -12 2 -20z m-2363 1 c0 -8 -7 -16 -15 -20 -15 -5
-21 14 -8 27 11 12 23 8 23 -7z m4280 -86 c41 -35 89 -79 107 -98 28 -31 30
-37 21 -65 -15 -43 -27 -57 -44 -50 -12 4 -14 15 -9 42 5 33 2 40 -29 69 -20
18 -38 32 -41 32 -3 0 -13 8 -23 18 -33 32 -94 81 -105 85 -9 3 -8 11 1 32 11
24 15 26 30 13 9 -8 51 -43 92 -78z m-3610 68 c0 -6 7 -19 15 -29 20 -21 11
-119 -11 -119 -8 0 -14 -4 -14 -10 0 -5 -4 -10 -10 -10 -5 0 -7 7 -4 15 4 9 0
15 -10 15 -13 0 -16 11 -16 56 0 30 5 64 10 75 12 21 40 26 40 7z m800 -16 c0
-16 -79 -112 -92 -112 -19 0 -5 39 29 78 34 38 63 54 63 34z m-1640 -21 c0
-12 -20 -25 -27 -18 -7 7 6 27 18 27 5 0 9 -4 9 -9z m210 -32 c0 -12 -8 -23
-20 -26 -23 -6 -27 -33 -5 -33 8 0 15 -4 15 -10 0 -5 -7 -10 -15 -10 -8 0 -15
5 -15 10 0 19 -29 10 -62 -20 -18 -16 -36 -30 -40 -30 -14 0 -8 20 7 27 19 7
69 48 103 86 30 33 32 33 32 6z m2464 -68 c44 -43 96 -92 115 -108 92 -77 97
-82 81 -93 -23 -15 -50 -12 -50 6 0 11 -6 15 -20 11 -13 -3 -20 0 -20 9 0 8
-6 14 -13 14 -7 0 -51 36 -97 80 -46 44 -92 80 -100 80 -9 0 -25 -7 -36 -15
-47 -35 -79 -2 -36 37 33 31 74 58 85 58 5 0 46 -36 91 -79z m-3798 51 c12 -9
35 -36 52 -60 17 -24 49 -56 71 -72 22 -16 59 -53 81 -82 88 -112 126 -156
167 -186 23 -18 46 -32 52 -32 5 0 22 -6 38 -14 123 -60 313 -69 462 -20 69
23 75 23 93 8 10 -10 18 -26 18 -37 0 -11 8 -26 18 -34 15 -12 7 -13 -58 -8
-61 5 -85 2 -125 -14 -38 -15 -46 -21 -32 -26 9 -4 17 -11 17 -16 0 -12 -137
-11 -145 1 -4 6 13 10 44 10 28 0 51 5 51 10 0 6 -48 10 -124 10 -101 0 -125
3 -130 15 -3 10 -19 15 -45 15 -25 0 -41 5 -45 15 -3 9 -18 15 -40 15 -21 0
-36 6 -40 15 -3 8 -14 15 -25 15 -18 0 -101 74 -101 91 0 4 -13 22 -30 39 -16
17 -30 35 -30 40 0 6 -7 10 -15 10 -8 0 -15 7 -15 15 0 9 -7 18 -15 21 -8 4
-15 17 -15 30 0 14 -7 27 -15 30 -8 4 -15 12 -15 18 0 7 -12 25 -27 39 -43 42
-63 66 -63 77 0 6 -7 10 -15 10 -8 0 -15 9 -15 19 0 10 -7 21 -15 25 -18 7
-20 26 -2 26 6 0 22 -8 33 -18z m1704 -12 c0 -23 4 -30 20 -30 23 0 23 0 10
-35 -12 -31 -30 -24 -30 11 0 13 -4 24 -9 24 -12 0 -24 37 -16 50 12 20 25 10
25 -20z m1264 -115 c-4 -38 -10 -81 -14 -95 -7 -23 -8 -22 -19 18 -11 39 -9
93 5 162 6 24 6 25 20 5 11 -15 13 -36 8 -90z m-1299 -37 c8 -24 22 -23 59 6
38 29 96 59 102 53 6 -6 -136 -147 -147 -147 -5 0 -14 12 -19 26 -6 14 -14 22
-20 19 -5 -3 -10 1 -10 10 0 9 -10 29 -22 45 -18 25 -19 32 -8 45 12 14 16 13
36 -12 13 -15 26 -36 29 -45z m3859 35 c34 -16 66 -69 66 -108 0 -16 -12 -20
-24 -8 -4 4 -26 6 -50 4 -47 -3 -55 4 -75 62 -21 63 13 84 83 50z m-4136 -29
c-2 -17 -17 -37 -44 -56 -37 -26 -44 -28 -63 -16 -11 7 -21 16 -21 20 0 7 110
77 123 78 5 0 7 -12 5 -26z m-697 -18 c-14 -17 -75 -29 -102 -21 -32 10 -11
25 35 25 28 0 48 6 57 16 9 11 15 12 17 5 2 -7 -1 -18 -7 -25z m39 -20 c0 -14
-4 -28 -10 -31 -6 -4 -10 7 -10 24 0 17 5 31 10 31 6 0 10 -11 10 -24z m3197
-338 c21 -29 21 -32 5 -54 -20 -28 -35 -30 -56 -8 -20 20 -21 44 -1 44 9 0 15
9 15 25 0 33 10 31 37 -7z m-3963 -40 c-39 -45 -54 -58 -54 -47 0 17 44 68 59
68 10 1 9 -5 -5 -21z m5606 -17 c0 -10 -45 -41 -59 -41 -14 0 31 48 47 49 6 1
12 -3 12 -8z m-3852 -19 c-19 -4 -25 -32 -8 -32 6 0 10 -5 10 -12 0 -7 -10 -2
-22 10 -22 23 -23 24 -4 37 10 8 24 11 30 7 7 -4 5 -8 -6 -10z m2102 8 c0 -6
-7 -22 -16 -36 -16 -23 -18 -24 -35 -8 -24 22 -24 34 0 34 11 0 23 5 26 10 8
13 25 13 25 0z m-3612 -38 c2 -6 -22 -36 -52 -67 -31 -31 -56 -62 -56 -69 0
-7 -12 -19 -27 -27 -41 -21 -63 -42 -63 -59 0 -9 -6 -22 -12 -28 -7 -7 -16
-39 -20 -70 -5 -48 -6 -43 -4 27 2 53 7 86 14 89 7 2 12 25 12 53 0 37 4 49
15 49 8 0 15 -4 15 -10 0 -16 19 -12 41 9 11 10 16 22 11 25 -5 3 -15 -1 -22
-9 -19 -23 -30 -18 -30 14 0 33 40 81 68 81 11 0 25 6 31 14 10 12 17 12 44 1
17 -7 33 -18 35 -23z m3780 5 l22 -23 -23 -22 c-21 -20 -25 -21 -45 -6 -26 18
-29 49 -4 63 24 14 26 14 50 -12z m-2453 -7 c-4 -6 -17 -15 -28 -21 -12 -5
-39 -20 -59 -34 -21 -14 -38 -21 -38 -16 0 5 16 18 35 30 19 11 35 25 35 30 0
9 51 31 59 25 1 -1 0 -8 -4 -14z m2341 -46 c16 -23 16 -26 1 -42 -16 -15 -18
-15 -32 3 -15 21 -19 47 -8 58 12 12 22 7 39 -19z m-4116 -10 c8 -20 6 -33 -9
-58 -10 -17 -16 -37 -14 -44 3 -8 -11 -5 -41 8 -40 17 -47 17 -60 5 -19 -19
-55 -19 -62 0 -9 22 32 80 69 99 17 8 49 16 70 16 31 0 39 -4 47 -26z m3986 9
c14 -9 46 -44 71 -77 26 -34 50 -65 55 -71 5 -5 24 7 49 30 l40 40 17 -23 c22
-28 32 -20 32 25 0 22 5 33 15 33 28 0 44 -44 51 -144 l7 -98 -44 -39 c-24
-21 -51 -39 -60 -39 -9 0 -19 -7 -23 -15 -9 -25 -130 -21 -156 5 -11 11 -20
23 -20 26 0 4 -7 12 -16 19 -13 9 -14 16 -6 31 11 18 12 18 18 -3 8 -28 41
-31 60 -5 8 10 13 12 14 5 0 -22 20 -14 20 7 0 11 -4 20 -10 20 -5 0 -10 8
-10 19 0 10 -7 24 -15 31 -8 7 -15 18 -15 24 0 6 -8 19 -17 28 -33 31 -48 52
-45 64 1 7 -3 16 -9 20 -11 6 -11 -5 1 -51 1 -5 2 -20 1 -33 -1 -20 -6 -23
-33 -20 -36 3 -34 -3 -25 95 3 31 17 59 17 35 0 -7 5 -12 10 -12 15 0 12 31
-6 51 -9 10 -13 23 -9 28 8 14 11 14 41 -6z m-4206 -11 c0 -10 -8 -28 -17 -41
-19 -28 -45 -131 -33 -131 4 0 10 9 13 20 9 33 25 23 24 -15 -1 -33 -3 -35
-36 -35 -20 0 -43 5 -51 10 -10 6 -11 10 -2 10 19 0 14 17 -8 23 -12 3 -20 14
-20 26 0 12 -5 30 -12 40 -13 22 1 46 37 62 11 5 34 18 50 28 38 25 55 26 55
3z m876 -2 c25 -10 26 -12 10 -29 -9 -9 -16 -21 -16 -24 0 -11 58 -8 65 3 9
15 105 7 105 -9 0 -15 -60 -76 -127 -131 -48 -38 -46 -55 4 -47 25 4 35 2 39
-9 14 -47 14 -47 29 -34 8 6 20 8 26 4 9 -5 9 -10 -2 -18 -19 -15 -39 -52 -39
-71 0 -22 22 -18 64 10 38 25 66 32 66 16 0 -18 -101 -99 -161 -131 -119 -61
-226 -78 -293 -44 -16 8 -37 14 -48 14 -10 0 -18 7 -18 16 0 8 -7 22 -15 30
-8 9 -15 30 -15 49 0 20 -6 35 -15 39 -13 5 -15 22 -13 93 3 79 5 88 23 91 11
2 30 13 42 24 12 11 29 18 37 15 17 -7 30 22 20 47 -4 11 -1 16 10 16 9 0 16
7 16 15 0 8 6 15 13 15 6 1 28 14 47 30 37 32 93 40 146 20z m5154 -14 c0 -14
-41 -36 -68 -36 -12 0 -7 8 17 30 32 30 51 32 51 6z m-3892 -24 c2 -7 -2 -12
-9 -12 -7 0 -21 -8 -31 -17 -14 -13 -21 -14 -30 -5 -9 9 -8 12 5 12 9 0 21 9
27 21 12 21 31 22 38 1z m-790 -52 c-12 -16 -26 -30 -30 -30 -10 0 -2 16 20
43 25 29 34 19 10 -13z m-158 -19 c0 -10 -43 -71 -50 -71 -5 0 -21 -13 -37
-30 -33 -36 -40 -37 -70 -8 -33 31 -29 50 18 84 33 24 52 30 90 30 27 -1 49
-3 49 -5z m2669 -62 c2 -45 -39 -47 -53 -3 -5 16 -2 23 14 27 12 3 20 14 21
29 l1 23 8 -25 c4 -14 8 -37 9 -51z m-2559 26 c0 -8 -4 -15 -10 -15 -5 0 -10
7 -10 15 0 8 5 15 10 15 6 0 10 -7 10 -15z m-22 -36 c5 -25 -93 -121 -119
-117 -39 6 -33 28 25 84 56 55 88 65 94 33z m-1088 -21 c0 -21 -3 -29 -10 -22
-5 5 -7 19 -4 32 9 31 14 27 14 -10z m4652 1 l41 -21 -42 -42 c-22 -23 -41
-47 -41 -54 0 -16 -38 -35 -57 -28 -21 8 -53 -21 -53 -48 0 -11 -12 -30 -27
-42 -25 -20 -26 -25 -15 -43 16 -27 17 -50 1 -34 -8 8 -16 6 -30 -8 -20 -20
-39 -25 -39 -10 0 6 5 13 10 16 6 3 10 18 10 33 1 63 66 187 137 256 25 25 50
46 55 46 5 0 27 -9 50 -21z m-2812 -71 c0 -10 -3 -18 -6 -18 -12 0 -33 34 -34
52 0 17 1 17 20 1 11 -10 20 -25 20 -35z m-2521 36 c21 -5 31 -12 31 -25 0
-17 -9 -19 -109 -19 -117 0 -141 4 -141 26 0 10 21 14 83 17 45 1 87 4 93 5 6
1 26 -1 43 -4z m2430 -29 c13 -19 27 -35 32 -35 5 0 9 -11 9 -25 0 -14 -4 -25
-9 -25 -15 0 -81 85 -81 104 0 27 24 18 49 -19z m3801 7 c56 -29 93 -53 128
-86 27 -26 32 -37 32 -78 0 -29 -7 -60 -19 -79 -22 -37 -57 -63 -66 -50 -3 5
2 14 11 19 16 9 16 13 -4 56 -12 25 -22 50 -22 55 0 37 -64 18 -92 -27 -20
-33 -22 -34 -29 -13 -10 27 -40 27 -57 1 -7 -11 -17 -20 -22 -20 -16 0 -12 78
4 87 8 4 15 22 16 38 3 48 1 55 -16 48 -14 -5 -16 -2 -10 22 15 58 68 68 146
27z m-5967 2 c34 -11 47 -21 47 -35 0 -16 -7 -19 -43 -19 -24 0 -52 7 -63 15
-10 8 -29 15 -40 15 -23 0 -48 23 -37 33 12 12 89 7 136 -9z m5382 -14 c37 0
37 -13 -1 -55 -19 -21 -34 -42 -34 -47 0 -4 -6 -8 -14 -8 -8 0 -16 -7 -18 -16
-2 -13 -8 -11 -31 10 -15 14 -35 26 -43 26 -24 0 -8 40 31 77 30 28 38 31 60
23 15 -6 37 -10 50 -10z m-179 -1 c7 -12 -54 -79 -73 -79 -21 0 -15 33 12 63
27 28 49 34 61 16z m-2700 -25 c13 -14 28 -23 33 -20 5 3 11 -3 14 -14 6 -23
39 -39 45 -22 2 7 8 12 13 12 5 0 -3 -18 -17 -40 -15 -22 -35 -40 -44 -40 -21
0 -105 124 -95 140 10 16 26 12 51 -16z m-2239 -20 c21 -9 52 -22 68 -29 94
-40 130 -62 133 -83 5 -30 -22 -38 -47 -13 -11 11 -39 25 -63 32 -24 7 -50 18
-59 26 -8 7 -27 13 -41 13 -15 0 -29 7 -32 16 -4 10 -14 14 -25 11 -18 -4 -31
10 -31 34 0 14 56 10 97 -7z m250 1 c8 -22 -6 -33 -17 -15 -13 20 -12 30 0 30
6 0 13 -7 17 -15z m5943 -4 l35 -18 3 -88 c3 -89 -8 -126 -28 -95 -6 8 -9 22
-9 30 2 29 -1 43 -8 36 -5 -4 -8 -24 -8 -44 0 -26 -4 -37 -15 -37 -12 0 -16
18 -20 80 -5 78 -7 82 -39 77 -5 -1 -12 -36 -16 -77 -4 -41 -11 -75 -15 -75
-4 0 -10 30 -14 67 -4 39 -14 75 -23 85 -18 20 -48 24 -58 8 -3 -5 -12 -10
-19 -10 -16 0 -59 58 -51 70 4 6 59 10 128 10 100 0 129 -3 157 -19z m-6743
-22 c15 -5 53 -27 83 -47 48 -32 71 -49 138 -103 27 -22 13 -39 -31 -39 -38 0
-49 6 -96 50 -29 28 -57 50 -62 50 -5 0 -9 4 -9 10 0 5 -11 12 -24 16 -14 3
-27 12 -30 20 -3 8 -14 14 -25 14 -26 0 -51 10 -51 20 0 5 17 11 38 13 20 2
38 4 39 5 1 1 14 -3 30 -9z m5827 2 c3 -5 -1 -14 -9 -21 -9 -7 -13 -21 -10
-31 4 -11 2 -19 -4 -19 -6 0 -11 -7 -11 -16 0 -13 -7 -15 -32 -10 -57 11 -62
24 -27 67 23 29 38 39 59 39 16 0 31 -4 34 -9z m-5312 -45 c7 -10 11 -36 5
-36 -1 0 -15 14 -32 31 -29 31 -29 32 -5 24 14 -4 28 -13 32 -19z m4896 -47
c-12 -16 -28 -29 -35 -29 -7 0 -13 -9 -13 -21 0 -12 -8 -23 -20 -26 -11 -3
-20 -14 -20 -24 0 -11 -7 -19 -15 -19 -17 0 -20 21 -6 48 5 9 18 38 30 64 27
58 47 71 78 51 l22 -15 -21 -29z m-2680 39 c18 -18 14 -42 -10 -64 -34 -29
-83 -54 -106 -54 -28 0 -96 84 -88 107 6 14 14 10 48 -25 40 -41 78 -55 78
-28 0 7 9 16 20 19 11 3 20 14 20 24 0 33 17 42 38 21z m1976 -20 c13 -13 30
-28 38 -33 20 -16 125 -37 150 -30 l23 6 -23 -14 c-16 -9 -47 -12 -94 -10 -62
3 -74 7 -99 33 -16 15 -29 38 -29 49 0 26 3 26 34 -1z m-516 -36 c-5 -21 -22
-14 -29 13 -6 22 -5 23 12 12 11 -7 18 -18 17 -25z m1385 8 c7 -12 2 -26 -17
-55 -36 -52 -34 -51 -45 -21 -12 30 -28 33 -47 9 -9 -13 -16 -15 -24 -7 -8 8
-6 22 7 53 18 42 18 42 67 39 31 -2 53 -9 59 -18z m957 -50 c0 -33 -3 -40 -20
-40 -11 0 -20 2 -20 4 0 9 31 76 35 76 3 0 5 -18 5 -40z m-2375 9 c10 -15 -1
-23 -20 -15 -9 3 -13 10 -10 16 8 13 22 13 30 -1z m1574 5 c34 -7 43 -34 12
-34 -23 0 -61 -49 -61 -78 0 -11 -8 -22 -17 -26 -10 -3 -24 -9 -32 -12 -15 -7
-13 11 7 89 17 64 30 73 91 61z m-4819 -19 c7 -8 21 -15 31 -15 18 0 39 -27
39 -49 0 -19 -32 -12 -66 14 -18 14 -37 25 -42 25 -12 0 -23 26 -15 34 11 11
40 6 53 -9z m-934 -23 c9 -14 8 -22 -2 -37 -14 -18 -14 -18 -14 2 0 12 -3 28
-6 37 -8 22 9 20 22 -2z m4079 -43 c-12 -25 -25 -39 -37 -39 -25 0 -23 18 5
44 13 12 27 30 31 41 6 14 10 16 13 7 3 -8 -3 -31 -12 -53z m-1731 -43 c18 -6
18 -8 -4 -31 -30 -32 -35 -32 -50 8 -6 17 -18 44 -26 59 -23 42 -16 44 24 6
20 -19 46 -38 56 -42z m206 61 c0 -14 -52 -57 -70 -57 -5 0 -10 -4 -10 -10 0
-16 -32 -12 -52 7 -22 19 -24 53 -3 53 8 0 20 -9 27 -20 15 -24 28 -26 28 -5
0 8 6 15 14 15 8 0 16 7 20 15 7 18 46 20 46 2z m-2500 -19 c0 -7 -12 -24 -25
-37 -27 -25 -31 -18 -15 23 10 26 40 36 40 14z m2730 -7 c0 -18 -18 -21 -30
-6 -10 13 -9 15 9 15 11 0 21 -4 21 -9z m-52 -22 c15 -24 10 -34 -13 -26 -15
6 -22 47 -7 47 4 0 13 -9 20 -21z m-2168 -10 c165 -20 314 -57 430 -107 19 -9
51 -22 70 -30 19 -8 42 -19 50 -23 8 -4 35 -18 60 -30 70 -35 160 -108 160
-129 0 -19 -28 -60 -41 -60 -4 0 -9 13 -12 29 -4 18 -18 36 -40 50 -44 27 -49
26 -41 -4 5 -19 2 -25 -11 -25 -14 0 -17 6 -12 34 5 29 1 37 -18 50 -27 18
-51 12 -66 -15 -7 -13 -21 -19 -45 -19 -28 0 -36 5 -45 26 -5 15 -8 28 -7 29
2 1 21 9 43 18 39 16 40 16 10 17 -16 0 -39 7 -49 15 -11 8 -32 15 -47 15 -14
0 -32 7 -40 16 -9 10 -22 14 -41 10 -19 -4 -30 -1 -36 11 -8 13 -10 11 -16
-11 -5 -22 -12 -26 -45 -26 -34 0 -40 4 -49 29 -6 16 -7 32 -4 36 18 18 -40
25 -201 23 -139 -1 -180 -4 -184 -15 -3 -7 -9 -10 -14 -7 -15 9 -10 24 7 24 9
0 14 6 12 13 -3 8 -34 14 -88 17 -54 3 -85 9 -88 17 -12 38 180 49 398 22z
m6195 -28 l30 -6 -1 -92 c0 -55 -5 -97 -12 -106 -8 -9 -33 -15 -68 -16 -31 0
-59 -3 -64 -6 -4 -3 -19 -1 -32 4 -20 9 -18 10 18 10 40 1 54 12 54 42 0 5
-24 9 -54 9 -60 0 -71 8 -62 46 6 21 11 25 34 20 98 -19 102 -19 102 3 0 15
-7 21 -22 22 -13 0 -56 2 -95 4 l-73 4 -2 -32 c-1 -18 -3 -45 -4 -62 -3 -54
-4 -57 -21 -53 -14 2 -19 17 -23 68 -4 58 -7 65 -27 68 -19 3 -23 -1 -23 -22
0 -14 5 -28 10 -31 16 -10 12 -65 -5 -72 -9 -3 -25 3 -35 12 -25 23 -29 115
-5 115 8 0 15 5 15 11 0 16 49 53 79 60 34 9 248 8 286 0z m-2365 -99 c25 -11
53 -23 62 -26 10 -3 22 -23 28 -48 43 -165 111 -307 149 -308 13 0 13 3 -5 68
-8 28 6 28 62 2 50 -24 64 -41 89 -100 29 -67 70 -124 122 -169 66 -59 103
-56 43 3 -34 33 -42 73 -12 61 69 -28 143 -45 194 -45 32 0 71 -6 86 -13 57
-28 139 -41 182 -28 27 8 130 12 308 12 147 1 299 1 338 2 82 0 189 -20 205
-39 6 -7 9 -25 7 -41 -3 -25 -8 -29 -48 -35 -25 -3 -133 -7 -241 -7 -182 -1
-198 0 -222 19 -22 17 -40 20 -136 20 l-110 0 -17 -32 c-10 -18 -21 -49 -25
-68 -4 -19 -12 -48 -17 -65 -6 -16 -18 -57 -28 -90 -9 -33 -21 -72 -26 -87 -7
-18 -6 -33 3 -50 14 -26 154 -216 198 -268 l29 -34 84 42 c46 23 89 42 94 42
6 0 19 9 29 20 16 17 16 25 6 63 -7 24 -11 59 -9 78 l3 34 105 3 c90 2 106 0
117 -15 11 -14 13 -347 13 -1685 l-1 -1668 34 -62 c73 -133 101 -184 122 -218
12 -19 25 -42 28 -50 4 -8 17 -31 28 -50 12 -19 33 -56 46 -83 14 -26 29 -50
34 -53 14 -8 11 -51 -3 -56 -7 -2 -26 -2 -42 1 -24 5 -32 14 -47 56 -10 28
-18 62 -18 78 -1 37 -40 56 -75 37 -32 -17 -60 -9 -150 45 -42 25 -84 45 -92
45 -9 0 -14 7 -12 18 3 13 12 16 41 14 32 -3 39 0 44 17 3 12 19 25 42 32 42
14 51 24 51 61 0 21 -12 37 -51 68 -28 22 -54 40 -58 40 -4 0 -16 8 -27 18
-10 9 -43 35 -73 56 l-55 39 -92 -12 c-130 -16 -136 -15 -175 20 -19 17 -51
45 -72 62 -21 18 -54 53 -73 79 -33 45 -34 48 -19 71 13 20 14 36 6 89 -5 36
-15 76 -21 89 -10 17 -11 70 -7 203 3 100 9 191 12 202 4 12 27 36 52 54 l44
32 -7 99 c-5 82 -4 103 9 117 8 9 27 44 42 77 15 33 33 74 40 90 16 35 81 175
119 257 15 32 31 60 37 63 17 11 9 68 -22 165 -17 52 -37 110 -45 128 -8 18
-14 43 -14 57 0 13 -5 36 -11 52 -6 15 -15 54 -19 87 -11 72 -29 93 -89 101
-25 3 -82 12 -126 20 -44 8 -93 15 -108 15 -44 0 -82 26 -113 76 -38 61 -49
78 -111 168 l-52 75 79 72 c57 51 77 76 72 86 -11 18 -82 76 -254 205 -132 99
-137 104 -138 139 0 38 -3 41 -155 132 -11 7 -39 24 -63 40 -24 15 -45 27 -48
27 -3 0 -26 16 -52 36 -37 28 -46 41 -44 60 2 13 0 24 -5 24 -4 0 -22 13 -39
28 -17 15 -54 43 -82 62 -56 38 -67 59 -45 89 11 17 12 25 2 43 -25 46 -52 77
-74 82 -26 7 -55 69 -55 119 0 17 -7 57 -15 87 -19 72 -19 145 1 203 20 59 14
75 -27 79 -18 2 -34 8 -36 14 -2 6 20 46 49 90 63 96 69 106 104 164 50 84 48
83 112 41 31 -21 77 -47 102 -59z m-3194 58 c12 -1 47 -50 36 -50 -5 0 -21 11
-36 25 -15 14 -31 25 -37 25 -11 0 -12 14 -2 24 4 4 13 0 19 -8 6 -9 15 -16
20 -16z m1454 -10 c0 -11 -10 -25 -22 -31 -13 -7 -26 -16 -29 -21 -4 -6 -17
-8 -30 -6 l-24 4 28 12 c15 6 27 17 27 23 0 18 31 50 41 43 5 -3 9 -14 9 -24z
m2798 -28 c17 -3 22 -10 22 -33 0 -37 -24 -48 -50 -24 -15 13 -20 31 -20 64 0
44 1 45 13 21 7 -14 23 -26 35 -28z m-5007 5 c-1 -12 -15 -9 -19 4 -3 6 1 10
8 8 6 -3 11 -8 11 -12z m3603 7 c20 -8 21 -44 1 -44 -14 0 -55 34 -55 45 0 7
35 6 54 -1z m-3373 -36 c2 -63 2 -63 47 -66 55 -4 51 -24 -6 -36 -33 -7 -51
-5 -89 12 -27 11 -77 23 -111 25 -67 5 -98 17 -43 17 18 0 64 5 103 12 55 9
66 13 50 19 -13 5 -22 17 -22 29 0 16 6 20 35 20 33 0 35 -2 36 -32z m2459 -3
c0 -8 -7 -15 -16 -15 -14 0 -14 3 -4 15 7 8 14 15 16 15 2 0 4 -7 4 -15z m810
-4 c0 -22 -27 -75 -52 -105 -17 -19 -18 -19 -18 -1 0 22 51 125 62 125 4 0 8
-9 8 -19z m-3036 -62 c8 -43 2 -49 -49 -49 -54 0 -73 24 -49 58 11 16 26 22
53 22 35 0 39 -3 45 -31z m2183 -7 c-9 -10 -17 -24 -17 -30 0 -7 -9 -21 -20
-32 -18 -18 -28 -20 -73 -14 -63 8 -75 14 -122 59 -51 47 -24 57 39 15 37 -25
50 -29 61 -20 8 6 20 8 26 4 9 -5 7 -11 -6 -21 -18 -12 -18 -13 4 -13 34 0 57
16 81 56 16 25 26 32 33 25 7 -7 5 -16 -6 -29z m-2729 21 c-15 -2 -42 -2 -60
0 -18 2 -6 4 27 4 33 0 48 -2 33 -4z m6359 -165 c26 -24 29 -64 10 -138 -9
-34 -17 -45 -32 -45 -15 0 -21 8 -23 34 -2 19 -10 44 -18 55 -8 11 -14 33 -14
49 0 24 -4 28 -22 25 -18 -2 -24 -12 -29 -42 -4 -22 -14 -45 -23 -51 -9 -7
-16 -24 -16 -39 0 -23 -4 -26 -33 -26 -43 0 -48 5 -35 41 7 21 16 29 34 29 39
0 28 18 -16 25 -24 4 -40 12 -40 21 0 18 -37 38 -45 24 -9 -15 -25 -12 -25 5
0 8 7 15 15 15 8 0 15 6 15 14 0 20 19 24 154 25 110 1 122 -1 143 -21z
m-5557 -9 c0 -5 -7 -9 -15 -9 -15 0 -20 12 -9 23 8 8 24 -1 24 -14z m1546 -14
c54 -8 136 -15 182 -15 95 0 111 -13 71 -57 -21 -22 -30 -24 -73 -19 -26 3
-54 10 -62 16 -7 7 -57 14 -111 17 -54 3 -123 12 -153 19 -30 8 -73 14 -96 14
-56 0 -104 17 -84 30 23 15 216 12 326 -5z m-2370 -17 c-3 -13 -6 -38 -6 -55
0 -48 -18 -40 -25 11 -8 49 -2 66 22 66 11 0 14 -6 9 -22z m294 13 c0 -5 -5
-11 -12 -13 -8 -3 -11 -21 -9 -50 1 -25 -2 -49 -8 -53 -6 -3 -11 -18 -11 -33
0 -37 -10 -48 -47 -56 -26 -6 -34 -4 -43 13 -9 18 -6 27 21 61 31 39 35 65 15
112 -6 14 -1 17 31 21 21 2 44 4 51 5 6 1 12 -2 12 -7z m-185 -11 c-4 -6 -2
-17 5 -24 6 -8 8 -26 4 -40 -12 -48 -24 -38 -24 18 0 33 4 56 11 56 5 0 7 -5
4 -10z m365 -29 c0 -11 5 -23 10 -26 23 -14 7 -25 -35 -25 -42 0 -58 11 -36
24 5 3 7 15 4 26 -5 17 0 20 26 20 24 0 31 -4 31 -19z m110 -21 c24 -24 25
-33 5 -50 -8 -7 -15 -25 -15 -41 0 -16 -4 -29 -9 -29 -5 0 -12 -15 -15 -34 -7
-38 -28 -51 -56 -36 -10 6 -32 10 -48 10 -16 0 -35 7 -42 15 -7 8 -28 15 -47
15 -20 0 -33 4 -31 11 4 12 3 12 75 3 51 -6 57 -5 74 17 10 13 23 47 30 74 6
28 14 53 16 58 8 14 43 7 63 -13z m2510 -1 c152 -30 291 -143 355 -289 17 -37
20 -66 19 -175 -1 -127 -1 -131 -33 -190 -42 -77 -70 -106 -156 -164 -120 -81
-127 -83 -240 -76 -55 4 -108 9 -119 12 -42 12 12 23 110 23 78 0 104 3 114
15 7 8 18 15 25 15 25 0 134 90 173 142 74 101 104 249 65 324 -7 15 -13 36
-13 49 0 12 -7 28 -15 35 -8 7 -15 19 -15 28 0 18 -125 142 -144 142 -8 0 -19
7 -26 15 -7 8 -23 15 -36 15 -12 0 -26 5 -29 10 -10 17 -220 12 -276 -6 -27
-9 -49 -20 -49 -25 0 -5 -8 -9 -19 -9 -10 0 -37 -19 -60 -41 -23 -23 -43 -40
-46 -38 -9 10 24 84 46 102 53 42 116 72 193 88 45 9 88 16 96 14 8 -2 44 -9
80 -16z m518 15 c45 -6 52 -10 52 -29 0 -13 -7 -26 -16 -29 -26 -10 -234 -7
-234 4 0 5 -14 17 -30 25 -17 9 -28 20 -25 25 7 11 172 13 253 4z m-3218 -69
c0 -8 -7 -15 -15 -15 -16 0 -20 12 -8 23 11 12 23 8 23 -8z m-404 -62 c-13
-14 -25 9 -13 28 12 20 12 20 15 -1 2 -12 1 -24 -2 -27z m113 3 c-13 -15 -19
-3 -12 24 6 22 7 22 14 4 3 -10 3 -23 -2 -28z m700 13 c20 -7 42 -14 50 -16
11 -3 10 -6 -4 -17 -10 -7 -15 -18 -11 -25 11 -18 -91 -141 -118 -141 -14 0
-48 55 -39 64 3 3 14 6 23 6 24 0 60 54 60 90 0 26 -4 30 -27 30 -22 0 -25 2
-13 10 20 13 36 12 79 -1z m1664 -16 c-13 -2 -35 -2 -50 0 -16 2 -5 4 22 4 28
0 40 -2 28 -4z m-2529 -12 c3 -5 -1 -12 -10 -15 -23 -9 -54 -7 -54 3 0 18 54
28 64 12z m3691 -11 c4 -6 -25 -9 -82 -8 l-88 2 80 6 c44 3 81 7 82 8 1 1 5
-2 8 -8z m-2969 -31 c3 -6 2 -15 -4 -21 -6 -6 -11 -2 -15 11 -5 22 7 29 19 10z
m2494 -9 c0 -5 -7 -10 -15 -10 -8 0 -15 5 -15 10 0 6 7 10 15 10 8 0 15 -4 15
-10z m62 -47 c15 -15 28 -34 28 -42 0 -10 -12 -3 -35 19 -33 32 -43 50 -28 50
4 0 20 -12 35 -27z m-150 -7 c53 -13 96 -47 133 -106 21 -34 25 -51 25 -119 0
-57 -4 -84 -15 -95 -8 -8 -15 -18 -15 -22 0 -15 -44 -54 -59 -54 -12 0 -11 4
5 18 12 9 25 27 29 40 3 12 11 22 16 22 17 0 10 139 -8 173 -49 86 -147 132
-227 106 -22 -7 -58 -23 -78 -36 -21 -13 -40 -23 -43 -23 -10 0 -5 49 5 55 6
4 8 15 5 26 -4 11 -2 19 4 19 6 0 11 -7 11 -15 0 -12 7 -14 28 -9 38 9 62 23
62 35 0 10 38 6 122 -15z m610 -40 c3 -26 11 -61 17 -78 16 -47 14 -68 -8 -68
-16 0 -22 13 -36 78 -9 42 -19 83 -21 91 -5 15 15 33 31 28 5 -2 13 -25 17
-51z m-3437 -8 c-7 -51 -20 -72 -37 -62 -4 3 -8 16 -8 30 0 14 -13 37 -30 54
l-31 30 57 0 56 0 -7 -52z m2105 43 c0 -12 -28 -22 -34 -12 -3 5 -3 11 1 15 9
9 33 7 33 -3z m-1851 -40 c19 -14 21 -21 13 -37 -6 -10 -13 -27 -16 -36 -9
-30 -44 -22 -51 12 -4 17 -10 30 -13 30 -4 1 -20 12 -37 25 l-30 25 55 0 c38
0 62 -6 79 -19z m3094 -33 c3 -18 9 -52 12 -75 6 -35 5 -43 -8 -43 -18 0 -33
41 -42 118 -7 52 -6 53 13 43 11 -6 22 -25 25 -43z m-3623 -41 c-4 -4 -17 -4
-30 1 l-24 9 22 5 c12 4 22 14 23 25 1 13 3 11 8 -7 5 -14 5 -29 1 -33z m3136
11 c42 -40 61 -106 44 -150 -27 -68 -106 -120 -159 -103 -33 10 -25 25 14 25
19 0 35 3 35 8 0 4 14 15 30 24 26 15 30 22 30 63 0 64 -24 85 -94 85 -51 0
-54 -1 -59 -29 -3 -16 -12 -29 -19 -28 -37 1 -48 -4 -48 -24 0 -25 -23 -21
-28 5 -9 44 71 152 117 159 53 9 105 -4 137 -35z m174 13 c0 -10 7 -24 15 -31
8 -7 15 -20 15 -30 0 -10 7 -23 15 -30 20 -17 19 -42 -4 -72 -12 -15 -18 -33
-15 -45 3 -12 1 -24 -5 -27 -14 -9 -14 -46 -1 -46 17 0 11 -25 -10 -37 -10 -7
-26 -10 -34 -7 -33 13 -30 68 5 79 13 5 18 12 14 24 -3 10 1 24 10 31 8 7 12
16 9 21 -3 5 -9 39 -14 77 -5 37 -12 80 -16 96 -5 21 -4 27 5 22 6 -4 11 -15
11 -25z m-679 -34 c-8 -8 -11 -4 -11 14 0 33 14 47 18 19 2 -12 -1 -27 -7 -33z
m-1921 -10 c0 -27 -43 -72 -59 -62 -17 10 -13 29 10 59 26 32 49 34 49 3z
m540 -15 c0 -16 -76 -82 -95 -82 -4 0 -18 -9 -32 -20 -15 -11 -28 -18 -31 -15
-7 6 35 65 57 81 9 7 27 21 40 33 30 26 61 28 61 3z m1367 -74 c-2 -13 -4 -5
-4 17 -1 22 1 32 4 23 2 -10 2 -28 0 -40z m2712 26 c11 -4 10 -8 -4 -24 -10
-11 -21 -17 -26 -14 -4 2 -17 -1 -29 -8 -15 -10 -20 -23 -20 -55 0 -24 -6 -48
-15 -57 -8 -8 -15 -26 -15 -41 0 -34 -18 -67 -31 -59 -13 8 -4 62 16 101 8 15
15 45 15 66 0 20 5 37 10 37 6 0 10 13 10 29 0 16 5 31 12 33 12 4 51 0 77 -8z
m1751 -54 c11 -30 19 -65 20 -76 0 -12 7 -38 15 -57 8 -20 15 -58 15 -85 0
-45 -6 -58 -67 -141 -68 -93 -93 -109 -113 -71 -13 25 0 53 35 76 14 9 25 21
25 27 0 5 18 27 40 47 42 39 50 69 25 90 -8 7 -15 27 -15 45 0 18 -7 38 -15
45 -9 7 -15 29 -15 54 0 38 -3 43 -32 51 -37 12 -60 41 -41 53 7 4 33 5 59 2
45 -5 46 -6 64 -60z m-3970 48 c0 -7 -5 -20 -10 -28 -8 -12 -10 -9 -10 13 0
15 5 27 10 27 6 0 10 -6 10 -12z m3775 -48 l0 -25 -250 0 c-246 0 -250 0 -253
-21 -2 -11 4 -27 13 -34 8 -7 15 -27 15 -45 0 -25 -11 -42 -54 -83 -30 -29
-56 -52 -59 -52 -3 0 -26 -20 -53 -45 -26 -25 -52 -45 -57 -45 -5 0 -15 -8
-22 -17 -12 -16 -17 -14 -61 22 -82 66 -214 205 -214 225 0 10 11 31 23 46 29
34 57 27 57 -13 0 -50 18 -92 67 -155 73 -96 85 -108 107 -108 21 0 143 112
198 181 l26 34 -36 40 c-60 67 -94 77 -236 71 -165 -7 -152 -7 -331 -3 -88 2
-206 4 -262 5 -93 2 -103 4 -103 20 0 10 3 22 7 25 3 4 338 6 742 5 l736 -3 0
-25z m-4660 0 c52 -7 116 -22 199 -46 26 -8 55 -14 62 -14 8 0 14 -10 14 -25
0 -26 0 -26 -62 -19 -35 3 -70 13 -79 20 -8 8 -33 14 -55 14 -21 0 -48 7 -58
15 -11 8 -34 15 -52 15 -17 0 -37 7 -44 15 -7 8 -23 15 -36 15 -26 0 -40 16
-22 24 7 3 29 3 48 0 19 -3 58 -9 85 -14z m1585 5 c17 -9 30 -20 30 -25 0 -14
-42 -40 -65 -40 -12 0 -26 -5 -31 -10 -6 -6 -28 -12 -49 -13 -21 -2 -40 -8
-43 -15 -6 -18 -59 -15 -66 4 -9 23 20 64 44 64 11 0 34 6 52 14 18 7 47 18
63 24 17 5 31 10 33 11 2 1 16 -6 32 -14z m-3340 -34 c0 -9 -7 -27 -16 -39
-15 -22 -20 -23 -87 -16 -75 7 -114 23 -61 25 16 1 37 1 46 0 10 -1 18 7 20
21 2 18 11 24 38 28 44 7 60 2 60 -19z m-238 4 c0 -5 -5 -11 -11 -13 -6 -2
-11 4 -11 13 0 9 5 15 11 13 6 -2 11 -8 11 -13z m-267 -29 c-11 -8 -23 -12
-28 -9 -13 8 3 23 26 23 20 0 20 0 2 -14z m271 -7 c3 -6 -1 -18 -10 -27 -15
-15 -16 -14 -16 11 0 27 13 36 26 16z m2414 -48 c0 -22 -2 -23 -14 -11 -15 15
-20 33 -17 60 3 25 31 -20 31 -49z m312 44 c0 -5 -5 -11 -11 -13 -6 -2 -11 4
-11 13 0 9 5 15 11 13 6 -2 11 -8 11 -13z m-2368 -30 c27 -25 30 -33 20 -59
-9 -24 -20 -19 -35 17 -7 17 -19 36 -26 40 -13 8 -9 27 6 27 5 0 20 -11 35
-25z m6331 -30 c26 -33 30 -52 15 -75 -9 -13 -14 -11 -33 11 -12 15 -31 29
-42 32 -15 4 -14 5 7 6 15 0 29 5 32 10 3 4 -86 11 -197 14 -211 5 -284 17
-192 28 28 4 126 6 218 5 l168 -2 24 -29z m-735 -5 c26 -26 25 -48 -2 -77 -27
-29 -35 -29 -64 3 -28 29 -31 56 -8 78 21 22 50 20 74 -4z m-3516 -35 c28 -49
114 -145 131 -145 6 0 20 -9 30 -20 15 -17 16 -20 3 -20 -9 0 -21 7 -28 15 -7
8 -18 15 -26 15 -7 0 -36 23 -64 50 -27 28 -50 57 -50 64 0 8 -7 19 -15 26
-18 15 -20 43 -3 38 6 -2 16 -13 22 -23z m2804 13 c-5 -16 -41 -22 -74 -14
-42 11 -26 26 27 26 36 0 49 -4 47 -12z m-4991 -14 c2 -7 -28 -15 -79 -22
-126 -17 -254 -26 -245 -17 4 5 44 19 90 31 88 24 227 29 234 8z m4773 -6 c0
-19 -2 -20 -10 -8 -13 19 -13 30 0 30 6 0 10 -10 10 -22z m-2205 -26 c-21 -5
-40 12 -30 28 5 8 13 6 27 -7 18 -16 19 -18 3 -21z m919 -64 c9 -12 14 -24 12
-26 -6 -6 -56 29 -56 39 0 17 29 9 44 -13z m1236 14 c0 -4 29 -38 65 -76 73
-77 88 -109 57 -125 -22 -12 -40 10 -120 135 -35 56 -40 74 -17 74 8 0 15 -4
15 -8z m-3150 -33 c0 -20 -41 -79 -55 -79 -26 0 -26 20 -1 45 15 14 26 30 26
35 0 6 7 10 15 10 8 0 15 -5 15 -11z m-1481 -26 c20 -15 41 -32 46 -39 6 -6
53 -44 106 -83 105 -78 98 -66 139 -236 7 -27 14 -57 17 -66 4 -15 -36 -69
-51 -69 -3 0 -6 9 -6 20 0 11 -4 20 -9 20 -14 0 -21 -43 -10 -56 7 -8 6 -16
-3 -25 -8 -7 -12 -26 -10 -46 3 -20 0 -33 -7 -33 -6 0 -11 10 -11 23 0 23 -27
53 -65 72 -15 8 -22 26 -29 73 -8 54 -13 63 -33 68 -14 4 -41 -1 -61 -9 -54
-23 -101 -20 -123 6 -10 12 -18 27 -19 34 0 22 -62 64 -89 61 -35 -4 -37 -28
-7 -89 36 -71 33 -129 -4 -84 -7 8 -19 15 -26 15 -25 0 -15 -36 16 -58 22 -17
35 -39 47 -82 9 -32 21 -58 27 -57 6 1 10 -10 8 -26 -2 -22 2 -30 18 -34 15
-4 20 -12 18 -30 -2 -13 -6 -23 -10 -23 -5 0 -26 0 -47 0 -33 0 -46 7 -86 47
-46 48 -47 48 -105 45 -44 -3 -58 0 -57 10 1 30 -4 48 -13 48 -5 0 -10 -9 -10
-20 0 -13 -7 -20 -20 -20 -21 0 -27 14 -11 24 5 3 7 15 4 26 -4 16 0 20 21 20
25 0 26 3 26 50 0 48 19 74 21 28 l0 -23 9 23 c5 12 9 73 9 135 0 191 -1 187
19 187 9 0 28 -9 40 -19 22 -16 24 -26 30 -146 3 -89 8 -122 14 -106 4 13 7
44 6 70 -1 25 -1 68 0 96 2 46 3 48 18 33 14 -13 21 -14 37 -5 15 9 21 9 24 0
3 -7 16 -13 29 -13 14 0 22 4 19 10 -3 6 -14 10 -25 10 -10 0 -20 7 -24 15 -3
8 -16 15 -29 15 -14 0 -30 7 -37 15 -7 8 -18 15 -26 15 -31 0 -124 77 -124
102 0 32 107 61 136 37 17 -14 39 -19 94 -23 19 -1 52 -9 74 -19 73 -32 83
-21 27 29 -65 58 -58 72 38 83 8 0 30 -11 50 -26z m1615 21 c20 -8 20 -28 0
-59 -35 -53 -70 -20 -42 40 12 26 17 29 42 19z m804 -1 c-10 -2 -26 -2 -35 0
-10 3 -2 5 17 5 19 0 27 -2 18 -5z m-103 -73 c3 -5 -1 -10 -9 -10 -8 0 -18 5
-21 10 -3 6 1 10 9 10 8 0 18 -4 21 -10z m3445 -131 l0 -140 -75 -79 -75 -79
0 -1184 c0 -1287 5 -1637 26 -1637 6 0 15 12 18 26 4 14 12 24 19 21 17 -5 20
-42 5 -59 -35 -38 -48 -81 -48 -156 l0 -77 18 30 c12 20 17 43 14 71 -2 24 1
45 7 48 6 4 11 23 11 42 0 19 4 34 9 34 5 0 12 16 15 35 4 19 12 35 18 35 6 0
9 14 6 34 -2 23 0 32 8 29 14 -5 26 24 19 47 -4 13 -1 17 12 16 10 0 19 7 21
19 2 11 10 23 17 28 8 4 13 21 13 37 -1 29 -2 30 -20 14 -10 -10 -18 -22 -18
-29 0 -17 -72 -86 -84 -82 -6 2 -10 21 -9 43 1 21 4 159 5 306 2 146 6 270 11
274 7 8 9 -12 12 -226 3 -168 2 -162 23 -118 13 27 21 35 29 27 7 -7 12 11 17
61 8 77 5 90 -18 71 -18 -15 -25 6 -20 59 1 19 3 41 3 48 1 6 10 12 21 12 24
0 27 -26 6 -49 -12 -14 -11 -18 9 -33 22 -17 25 -17 40 -2 17 17 13 63 -6 75
-10 6 -6 117 10 229 6 41 10 102 10 135 l0 60 -52 -56 c-54 -58 -97 -83 -97
-56 0 34 13 77 24 77 6 0 17 15 25 33 8 17 29 46 47 63 30 29 60 105 35 90 -6
-4 -11 -12 -11 -17 0 -21 -52 -78 -66 -72 -18 7 -18 48 1 67 8 8 15 21 15 30
0 23 -19 30 -27 9 -7 -19 -24 -34 -33 -28 -5 3 -6 268 0 425 l3 85 9 -65 c5
-36 7 -94 5 -130 -2 -36 -1 -99 3 -140 4 -41 3 -79 -2 -84 -11 -14 -10 -36 2
-36 6 0 10 5 10 11 0 7 8 18 18 25 16 13 16 15 -1 28 -12 9 -16 22 -12 42 3
16 7 99 9 184 2 85 5 156 5 158 4 10 21 -2 28 -20 11 -32 11 -28 12 -181 1
-106 4 -138 14 -135 8 3 13 37 14 114 1 60 4 173 7 252 3 78 3 142 0 142 -8 0
-44 -40 -44 -50 0 -5 -6 -10 -14 -10 -8 0 -16 -7 -20 -15 -3 -8 -12 -15 -20
-15 -8 0 -17 -10 -19 -22 -2 -13 -5 3 -6 35 -1 37 3 56 9 52 6 -3 13 2 17 12
3 10 12 25 20 35 11 12 11 18 2 23 -7 5 -19 -1 -29 -15 l-17 -23 -5 29 c-3 16
-2 74 2 129 l7 100 2 -75 c1 -81 14 -119 25 -78 3 12 9 68 13 122 5 82 8 95
17 75 8 -20 11 -13 17 51 3 41 6 140 6 220 l-1 145 -3 -130 c-3 -153 -7 -175
-31 -175 -36 0 -54 69 -50 188 3 94 1 109 -15 122 -34 29 -13 84 62 164 36 39
73 70 82 69 18 -2 38 64 40 135 l2 47 10 -55 c5 -30 10 -129 11 -220 l1 -165
-30 -5 c-28 -5 -30 -8 -33 -54 -4 -56 10 -79 28 -46 9 17 14 19 26 9 12 -10
14 -150 14 -961 0 -615 -4 -956 -10 -968 -8 -15 -17 -18 -44 -13 l-34 5 12
-36 c11 -35 28 -46 41 -26 3 6 13 10 21 10 21 0 21 -583 -1 -620 -8 -14 -17
-32 -21 -40 -4 -8 -19 -33 -33 -55 -36 -56 -49 -77 -61 -100 -6 -11 -19 -33
-30 -50 -11 -16 -24 -40 -29 -51 -5 -12 -13 -23 -18 -25 -9 -4 -47 -71 -90
-161 -29 -60 -50 -78 -65 -56 -6 10 -4 1742 3 2843 1 94 -2 263 -6 377 l-7
206 -50 54 c-62 67 -88 107 -88 136 0 19 15 8 84 -63 46 -47 90 -85 97 -85 8
0 42 26 76 58 l61 57 7 115 c5 84 11 120 22 132 9 10 18 18 20 18 1 0 3 -63 3
-141z m-3935 110 c10 -15 -1 -23 -20 -15 -9 3 -13 10 -10 16 8 13 22 13 30 -1z
m1551 -14 c15 -14 24 -28 21 -32 -8 -7 -57 35 -57 49 0 13 7 10 36 -17z
m-1550 -71 c-10 -27 -25 -3 -19 31 6 28 7 29 16 8 5 -12 7 -30 3 -39z m4004
-56 c0 -48 -4 -89 -9 -93 -17 -10 -23 37 -16 123 9 108 25 90 25 -30z m-2371
66 c33 -17 37 -37 8 -42 -11 -2 -21 6 -26 21 -5 14 -16 27 -23 30 -7 3 -8 6
-2 6 6 1 25 -6 43 -15z m2164 -14 c26 -20 43 -77 32 -109 -9 -31 -105 -59
-105 -31 0 6 9 10 19 10 23 0 36 16 21 25 -5 3 -10 22 -10 41 0 24 -5 34 -15
34 -10 0 -15 -10 -15 -27 0 -16 -8 -37 -16 -48 -15 -20 -15 -20 -30 0 -20 26
-9 74 24 103 31 27 62 28 95 2z m-6033 -5 c-9 -10 -10 -31 -6 -64 9 -66 -6
-72 -28 -11 -18 51 -16 70 10 70 8 0 14 5 14 10 0 6 5 10 11 10 8 0 8 -5 -1
-15z m3977 3 c18 -7 33 -16 33 -20 0 -12 -32 -44 -50 -50 -15 -5 -50 20 -50
35 0 5 6 4 14 -2 11 -9 16 -9 22 0 4 7 0 17 -9 24 -9 7 -14 15 -10 18 9 9 11
9 50 -5z m-1087 -13 c30 0 73 3 95 5 34 4 40 2 40 -14 0 -16 -13 -22 -64 -35
-58 -13 -71 -13 -144 2 -90 19 -92 20 -84 41 5 13 16 14 54 8 26 -4 73 -7 103
-7z m874 -4 c4 -5 1 -22 -5 -38 -11 -28 -11 -28 -21 -6 -16 34 8 74 26 44z
m-3864 -113 c0 -81 -2 -90 -13 -68 -7 15 -21 25 -35 25 -12 0 -22 3 -22 8 -1
80 0 87 20 87 10 0 24 9 30 20 6 11 13 20 15 20 3 0 5 -42 5 -92z m3900 67 c0
-10 10 -15 28 -15 15 0 38 -9 52 -19 l24 -19 -24 -21 c-14 -11 -31 -20 -37
-21 -7 0 -13 -4 -13 -10 0 -5 -7 -10 -15 -10 -8 0 -15 -6 -16 -12 0 -10 -2
-10 -6 0 -2 6 -11 12 -19 12 -8 0 -14 5 -14 11 0 5 -13 15 -30 20 -41 15 -38
29 6 26 26 -1 39 3 48 17 8 14 8 20 -1 23 -18 7 -16 33 2 33 8 0 15 -7 15 -15z
m284 -2 c10 -24 -32 -65 -64 -61 -34 4 -39 36 -9 59 30 23 65 24 73 2z m-2024
-12 c-1 -4 -9 -16 -20 -29 -15 -19 -23 -21 -39 -13 -32 17 -16 47 25 47 19 0
34 -2 34 -5z m-300 -32 c0 -5 -17 -9 -37 -9 l-38 0 25 20 c24 18 50 12 50 -11z
m1960 12 c0 -12 -29 -23 -41 -15 -18 10 -9 24 16 24 14 0 25 -4 25 -9z m-2142
-81 c-35 -53 -57 -67 -85 -52 -14 8 -12 12 18 27 41 21 75 56 85 87 6 19 9 20
12 6 2 -10 -12 -40 -30 -68z m1781 51 c18 -18 19 -20 2 -35 -10 -9 -23 -16
-29 -16 -14 0 -16 16 -3 24 5 3 7 15 4 26 -7 25 2 25 26 1z m811 0 c0 -25 -9
-30 -42 -24 -23 4 -26 8 -17 24 13 26 59 26 59 0z m-535 -21 c9 -28 -13 -54
-31 -39 -15 12 -19 41 -7 52 13 13 32 7 38 -13z m-1755 -4 c0 -8 -4 -18 -10
-21 -5 -3 -10 3 -10 14 0 12 5 21 10 21 6 0 10 -6 10 -14z m2108 -3 c27 -6 28
-18 2 -45 l-20 -22 -45 22 c-25 12 -45 25 -45 30 0 12 53 31 70 25 8 -3 25 -8
38 -10z m-2292 -58 c-21 -32 -43 -42 -59 -26 -9 10 -4 19 22 43 40 36 65 25
37 -17z m294 29 c11 -13 10 -19 -7 -36 -26 -25 -43 -16 -43 23 0 22 5 29 19
29 10 0 24 -7 31 -16z m230 4 c0 -7 -7 -26 -15 -42 -8 -15 -15 -37 -15 -47 0
-25 -44 -74 -58 -65 -7 4 -12 25 -12 46 0 35 3 40 28 46 38 9 52 23 52 50 0
13 5 24 10 24 6 0 10 -6 10 -12z m1896 -19 c3 -6 -2 -20 -13 -31 -16 -15 -28
-18 -56 -13 -35 7 -36 7 -20 31 11 17 24 24 49 24 18 0 36 -5 40 -11z m-4116
-39 c0 -16 -4 -32 -10 -35 -6 -4 -10 10 -10 35 0 25 4 39 10 35 6 -3 10 -19
10 -35z m3729 21 c39 -30 6 -55 -40 -31 -16 9 -17 14 -6 30 14 24 16 24 46 1z
m166 -22 c42 -25 41 -43 -2 -47 -23 -2 -38 4 -57 23 -46 46 -6 62 59 24z
m-1997 -28 c9 -5 27 -13 38 -17 34 -14 14 -54 -25 -54 -17 0 -34 6 -38 13 -4
8 -23 22 -40 32 -18 11 -33 23 -33 27 0 11 76 10 98 -1z m722 -53 c0 -111 11
-404 15 -433 3 -18 -1 -39 -8 -50 -14 -18 -15 -18 -53 1 l-39 19 4 80 c2 44 4
81 6 83 1 1 10 0 19 -4 15 -6 15 -7 -1 -19 -14 -11 -15 -20 -7 -61 6 -34 14
-50 27 -52 15 -3 17 5 17 62 0 36 5 76 11 88 16 37 -4 78 -38 78 -20 0 -24 3
-14 9 8 5 20 7 27 4 15 -5 26 88 22 185 -2 34 0 62 5 62 4 0 7 -24 7 -52z
m561 -507 c4 -488 6 -472 -56 -457 -26 7 -27 9 -21 48 4 27 1 58 -10 91 -14
42 -16 73 -10 186 5 97 12 143 23 160 14 23 14 25 -7 41 -22 17 -23 21 -16
126 12 181 20 242 28 215 10 -35 28 -15 28 32 0 23 3 60 7 82 l6 40 13 -61 c8
-40 13 -206 15 -503z m1090 507 c43 -24 46 -41 7 -46 -27 -3 -41 10 -52 46 -9
27 -4 28 45 0z m-1458 -344 c2 -183 1 -338 -4 -345 -5 -9 -11 -6 -19 13 -7 14
-23 32 -36 39 -30 16 -31 31 -1 27 19 -3 22 2 25 34 3 31 -2 42 -30 67 -27 24
-31 32 -20 43 7 7 20 13 30 13 13 0 17 8 15 30 -1 17 -2 48 -4 70 -1 22 3 110
9 195 6 85 12 157 12 160 0 2 4 0 9 -5 5 -6 11 -159 14 -341z m-685 275 c4
-22 -34 -63 -53 -55 -10 3 -15 18 -15 41 0 35 1 36 32 33 20 -2 34 -9 36 -19z
m2253 -17 c48 -43 18 -69 -46 -40 -25 11 -34 28 -15 28 6 0 10 9 10 20 0 27
14 25 51 -8z m-200 -11 c19 -16 21 -22 12 -32 -10 -10 -17 -9 -33 6 -20 19
-27 45 -11 45 5 0 19 -9 32 -19z m-508 -132 c38 -45 48 -79 22 -79 -21 0 -42
23 -103 113 -29 43 -50 83 -46 88 6 10 44 -26 127 -122z m-371 86 c0 -5 -5
-11 -11 -13 -6 -2 -11 4 -11 13 0 9 5 15 11 13 6 -2 11 -8 11 -13z m-2844 -28
c16 -27 16 -29 0 -38 -10 -6 -18 -16 -18 -22 0 -7 -8 -19 -18 -28 -9 -8 -27
-28 -40 -43 -12 -16 -25 -26 -28 -23 -3 3 -8 44 -11 91 l-5 85 39 4 c58 6 63
4 81 -26z m3822 -22 c0 -7 -9 -20 -20 -30 -20 -18 -21 -18 -40 3 -26 27 -25
36 3 55 20 13 24 13 40 -1 9 -8 17 -20 17 -27z m-2455 15 c6 -10 -19 -65 -35
-75 -6 -4 -17 -1 -25 5 -11 9 -11 18 -4 38 15 38 49 56 64 32z m2177 -7 c16
-14 25 -43 14 -43 -2 0 -11 -3 -20 -6 -10 -4 -16 -1 -16 9 0 9 -7 20 -16 25
-17 10 -11 32 8 32 6 0 20 -7 30 -17z m-570 -37 c-2 -5 -9 -1 -14 8 -5 9 -6
21 -2 28 9 14 25 -22 16 -36z m-3608 12 c3 -13 6 -27 6 -33 -1 -15 -30 27 -30
42 0 22 17 15 24 -9z m1400 8 c-7 -19 -34 -29 -34 -12 0 7 3 16 7 19 12 13 32
7 27 -7z m117 -3 c-4 -10 -14 -33 -22 -50 -14 -34 -23 -40 -34 -23 -9 14 33
90 50 90 10 0 12 -5 6 -17z m-255 -32 c-9 -10 -16 -23 -16 -29 0 -15 -17 -25
-24 -14 -3 5 3 18 12 28 10 10 22 28 26 39 6 14 10 16 13 7 3 -7 -2 -21 -11
-31z m2254 -17 c0 -17 -22 -14 -28 4 -2 7 3 12 12 12 9 0 16 -7 16 -16z
m-1810 -12 c0 -25 -19 -42 -47 -42 -31 0 -31 37 0 50 34 14 47 12 47 -8z
m2558 6 c16 -16 15 -34 -5 -80 -17 -39 -27 -46 -38 -28 -3 6 -24 10 -46 10
-53 0 -51 18 9 69 51 44 62 47 80 29z m-618 -22 c0 -18 -16 -29 -30 -21 -13 8
-1 35 16 35 8 0 14 -6 14 -14z m-3220 -45 c20 -18 28 -31 21 -35 -6 -4 -14 0
-17 8 -3 9 -11 16 -18 16 -6 0 -19 9 -29 20 -27 32 6 25 43 -9z m1870 20 c0
-11 -29 -35 -35 -29 -10 9 7 38 21 38 8 0 14 -4 14 -9z m-442 -39 l9 -27 14
29 c16 33 28 40 47 27 11 -6 9 -15 -7 -42 -12 -19 -26 -45 -32 -59 -10 -25
-11 -25 -25 -5 -10 14 -28 21 -55 22 -22 1 -46 6 -54 13 -18 15 -8 40 16 40
11 0 27 9 36 19 20 24 39 17 51 -17z m-1328 -1 c0 -17 -18 -21 -24 -6 -3 9 0
15 9 15 8 0 15 -4 15 -9z m4183 -68 c61 -78 117 -167 117 -188 0 -7 4 -17 10
-20 16 -10 10 -105 -6 -105 -8 0 -14 -8 -14 -17 0 -13 -3 -14 -11 -6 -9 9 -8
16 5 28 22 23 20 42 -9 69 -14 13 -25 28 -25 34 0 6 -6 15 -12 19 -7 4 -18 17
-25 28 -77 128 -123 209 -123 216 0 5 9 9 20 9 12 0 39 -25 73 -67z m-3277 41
c-3 -9 -6 -18 -6 -20 0 -2 -12 -4 -26 -4 l-26 0 23 20 c29 24 43 25 35 4z
m694 -4 c17 -9 18 -14 8 -36 -14 -31 -55 -31 -50 1 7 47 12 51 42 35z m-520
-7 c0 -13 -54 -69 -72 -76 -26 -9 -32 10 -8 25 11 7 20 17 20 23 0 6 10 15 23
21 28 14 37 16 37 7z m740 -18 c0 -18 -5 -25 -20 -25 -21 0 -24 8 -14 34 10
25 34 19 34 -9z m527 -82 c-2 -16 -4 -5 -4 22 0 28 2 40 4 28 2 -13 2 -35 0
-50z m1200 50 c5 -15 -32 -39 -72 -47 l-30 -6 25 20 c14 11 32 26 40 35 16 16
32 15 37 -2z m579 -71 c32 -37 66 -74 76 -82 12 -10 16 -23 12 -37 -6 -22 -24
-33 -24 -15 0 5 -20 31 -45 58 -43 48 -45 48 -45 22 0 -16 5 -28 10 -28 6 0
10 -7 10 -15 0 -8 3 -15 8 -15 17 0 76 -125 66 -142 -14 -22 -35 -2 -62 57
-17 35 -53 87 -80 115 -79 81 -90 62 -19 -32 33 -44 35 -100 4 -106 -13 -3
-17 1 -15 13 3 16 -38 37 -98 52 -12 3 -27 16 -33 29 -6 13 -15 24 -21 24 -5
0 -10 5 -10 10 0 6 7 10 15 10 22 0 19 37 -5 62 l-20 22 -1 -25 -1 -24 -8 25
c-16 50 -14 52 41 45 46 -7 51 -5 56 15 5 19 11 21 39 17 29 -5 34 -3 34 13 0
35 55 3 116 -68z m-2336 11 c8 -23 11 -45 7 -49 -13 -13 -97 34 -97 54 0 26
21 43 50 40 19 -2 28 -12 40 -45z m1224 21 c15 -21 15 -29 4 -54 -13 -31 -34
-45 -42 -31 -8 12 5 111 14 111 4 0 15 -11 24 -26z m-1710 -2 c10 -17 -6 -50
-31 -63 -22 -12 -26 -11 -34 4 -6 10 -22 17 -39 17 -43 0 -37 18 8 25 20 3 44
10 52 15 19 11 37 12 44 2z m246 -36 c0 -23 -70 -106 -89 -106 -10 0 -24 7
-31 15 -16 19 -5 49 15 41 8 -3 15 -2 15 3 0 4 10 20 23 34 23 27 67 36 67 13z
m812 -133 c7 -9 6 -14 -6 -19 -9 -4 -18 -5 -20 -3 -1 2 0 38 3 79 l6 75 3 -60
c2 -32 8 -65 14 -72z m1008 88 c0 -34 -34 -81 -59 -81 -9 0 -26 7 -37 15 -19
15 -19 15 1 13 48 -3 55 1 55 35 0 36 6 47 27 47 8 0 13 -11 13 -29z m-791
-28 c0 -27 3 -111 7 -189 l6 -141 -31 -13 c-34 -14 -57 -5 -28 11 14 8 17 25
17 97 0 127 12 282 21 282 5 0 8 -21 8 -47z m-304 -20 c-4 -27 -11 -56 -16
-65 -10 -18 -38 -14 -40 6 0 6 -2 24 -2 40 -2 36 -22 44 -37 15 -10 -18 -9
-24 4 -31 21 -12 11 -28 -16 -28 -16 0 -19 5 -14 23 3 12 6 31 6 43 0 20 24
29 114 43 4 0 5 -20 1 -46z m-648 23 c-18 -14 -18 -16 2 -57 12 -24 21 -52 21
-62 0 -19 -1 -19 -18 -4 -10 10 -23 17 -29 17 -6 0 -13 19 -17 41 -7 45 12 79
43 79 14 -1 13 -3 -2 -14z m2183 -11 c-8 -9 -8 -15 0 -20 18 -11 10 -30 -25
-52 -46 -29 -68 -32 -73 -10 -3 13 3 17 27 17 27 0 31 4 33 28 0 15 2 32 3 37
2 6 3 13 4 17 0 3 10 4 21 1 15 -4 18 -9 10 -18z m-2052 -33 c21 -14 -14 -101
-45 -108 -36 -10 -47 8 -23 38 11 15 20 35 20 45 0 32 20 42 48 25z m3562
-210 c0 -135 -3 -173 -12 -170 -10 4 -14 47 -16 164 -3 167 2 219 19 193 5 -7
9 -92 9 -187z m-1079 175 c-1 -12 -15 -9 -19 4 -3 6 1 10 8 8 6 -3 11 -8 11
-12z m-1077 -41 c14 -23 14 -26 -2 -44 -24 -28 -80 -48 -94 -34 -8 8 -4 13 15
17 19 5 28 16 33 38 11 56 23 61 48 23z m1525 -4 c18 -33 -2 -44 -94 -49 -103
-7 -99 -4 -245 -164 -79 -85 -100 -115 -100 -138 0 -16 18 -104 40 -195 39
-158 59 -206 90 -206 5 0 13 -6 17 -12 4 -7 16 -17 25 -23 54 -32 178 -121
178 -127 0 -10 -27 -10 -32 0 -4 10 -102 75 -155 103 -13 7 -23 16 -23 21 0 4
-4 8 -9 8 -15 0 -78 44 -90 63 -6 9 -14 45 -18 80 -3 34 -9 67 -13 72 -4 6
-11 33 -14 60 -4 28 -13 64 -20 80 -8 17 -16 53 -20 81 -8 65 4 82 201 291 32
34 67 63 78 66 11 3 59 5 107 6 75 1 89 -2 97 -17z m-819 -1 c23 -7 21 -8 -17
-15 -45 -8 -87 0 -78 15 7 10 58 10 95 0z m-1434 -37 c27 -34 27 -36 11 -70
-11 -21 -24 -34 -36 -34 -17 0 -19 5 -14 35 4 26 2 36 -11 41 -9 3 -16 16 -16
28 0 48 30 48 66 0z m-1334 3 c-6 -7 -12 -33 -15 -57 l-4 -45 -1 51 c-2 50 3
64 21 64 5 0 5 -5 -1 -13z m1158 -46 c0 -38 -6 -56 -24 -78 l-24 -28 -36 38
c-27 29 -33 42 -27 55 5 9 12 25 15 34 3 9 17 18 33 21 65 10 63 11 63 -42z
m1424 4 c27 -14 63 -25 80 -26 38 -1 120 -26 90 -28 -63 -3 -224 48 -224 71 0
11 -1 11 54 -17z m-2456 -40 c2 -11 11 -28 20 -38 14 -16 14 -19 2 -27 -20
-13 -200 -13 -200 -1 0 6 10 9 23 9 12 -1 37 -1 56 0 32 2 33 3 18 20 -21 22
-23 56 -4 49 8 -3 20 -1 28 4 22 14 53 6 57 -16z m3476 19 c9 -4 16 -18 16
-33 0 -34 -7 -42 -29 -31 -9 5 -35 13 -59 18 -35 8 -44 7 -49 -4 -3 -8 -12
-14 -21 -14 -22 0 -202 -181 -202 -203 0 -11 7 -45 15 -76 8 -31 16 -98 18
-149 4 -87 11 -110 37 -112 3 0 19 -13 37 -28 74 -63 74 -63 135 -56 52 6 58
5 58 -12 0 -10 -10 -28 -21 -41 l-22 -22 -37 29 c-21 17 -43 30 -49 30 -6 0
-11 5 -11 10 0 6 -6 10 -12 11 -7 0 -40 19 -73 42 -59 42 -60 43 -68 102 -5
33 -15 83 -22 110 -52 198 -53 192 70 315 101 101 107 105 157 111 76 9 114
10 132 3z m-677 -56 c-5 -15 -46 -13 -61 2 -7 7 3 10 28 10 26 0 36 -4 33 -12z
m-347 -43 c37 -15 63 -35 81 -64 28 -46 24 -48 -18 -7 -21 20 -42 36 -48 36
-5 1 -26 14 -45 30 -19 17 -40 30 -47 30 -7 0 -13 5 -13 10 0 6 17 2 38 -9 20
-11 44 -23 52 -26z m-2168 18 c12 -11 18 -30 18 -58 0 -49 15 -65 71 -80 l38
-10 -32 -42 c-36 -47 -57 -55 -57 -20 0 12 -7 31 -15 41 -8 11 -15 28 -15 38
0 10 -4 18 -10 18 -5 0 -10 22 -10 49 l0 48 -50 -5 c-52 -5 -66 7 -32 27 26
16 73 13 94 -6z m2638 -47 c0 -19 -66 -73 -99 -81 -14 -4 -39 -12 -56 -20 -70
-30 -84 -23 -58 28 9 18 21 27 38 27 23 0 73 18 125 45 34 18 50 18 50 1z
m530 -31 c7 -8 20 -15 30 -15 23 0 88 -65 96 -96 20 -77 -37 -168 -101 -162
-40 4 -38 22 3 26 33 3 43 18 17 28 -11 4 -15 21 -15 55 0 51 -8 60 -30 34
-19 -23 -60 -19 -60 6 0 26 18 61 42 77 25 18 23 32 -4 32 -47 0 -123 -74
-134 -129 -4 -16 -17 -37 -30 -46 -15 -10 -24 -26 -25 -43 -1 -19 -7 -8 -20
36 -11 35 -16 68 -12 76 4 7 39 41 78 75 61 54 74 61 111 61 25 0 47 -6 54
-15z m-3284 -42 c10 -16 43 -75 72 -133 30 -58 57 -112 61 -120 5 -8 16 -29
25 -47 9 -17 16 -38 16 -46 0 -8 7 -20 15 -27 23 -19 18 -40 -20 -76 -19 -18
-35 -40 -35 -49 0 -8 -7 -18 -15 -21 -8 -4 -15 -13 -15 -21 0 -14 -48 -90 -90
-143 -19 -24 -20 -24 -20 -4 0 26 48 134 59 134 5 0 11 14 15 31 5 28 8 30 23
18 15 -13 16 -11 9 14 -9 36 1 52 20 36 13 -11 15 -4 12 47 -3 50 -6 59 -20
56 -13 -2 -18 4 -18 18 0 12 -4 19 -9 16 -10 -7 -21 16 -22 47 0 21 -1 21 -9
2 -7 -17 -9 -15 -9 12 -1 28 -21 60 -21 33 0 -6 -4 -9 -9 -6 -4 3 -6 17 -4 30
3 15 -1 32 -11 41 -9 9 -16 23 -16 32 0 13 -3 13 -15 3 -8 -7 -24 -10 -36 -7
-12 3 -56 0 -98 -8 -42 -7 -128 -15 -191 -16 -97 -3 -115 -2 -115 11 0 8 13
21 28 28 31 15 324 36 375 27 27 -5 32 -3 32 13 0 35 -24 45 -77 34 -27 -6
-111 -10 -188 -10 -95 1 -153 -3 -178 -13 -47 -16 -67 -3 -50 34 10 22 19 25
110 31 54 4 116 11 138 16 22 4 90 8 151 9 109 1 110 1 130 -26z m1878 -30
c33 -21 71 -47 84 -59 13 -11 41 -32 62 -45 22 -13 40 -30 40 -36 0 -7 -22
-29 -50 -50 -49 -37 -50 -38 -50 -93 0 -49 -7 -66 -55 -149 -30 -51 -55 -96
-55 -99 0 -3 -6 -13 -14 -21 -8 -9 -17 -28 -21 -42 -6 -23 -1 -31 29 -55 20
-16 36 -37 36 -48 0 -18 -19 -83 -46 -156 -34 -93 -25 -117 51 -142 31 -10 44
-22 59 -53 20 -43 42 -115 55 -180 5 -22 13 -60 19 -85 32 -131 32 -142 6
-187 -27 -48 -30 -81 -9 -109 8 -10 15 -30 15 -44 0 -31 9 -44 38 -59 16 -9
22 -21 22 -46 0 -30 -11 -46 -75 -110 -41 -42 -75 -83 -75 -91 0 -9 16 -40 36
-70 34 -51 36 -58 30 -107 -4 -29 -14 -72 -21 -97 -8 -25 -20 -67 -26 -93 -7
-27 -17 -54 -24 -60 -9 -9 -280 -11 -1111 -7 l-1099 5 -6 35 c-6 39 -50 135
-88 195 -14 22 -30 48 -36 57 -18 30 -88 131 -132 190 -24 31 -43 61 -43 67 0
5 12 11 26 13 27 3 29 7 68 123 8 22 17 53 20 68 4 16 19 47 34 70 37 58 50
79 61 102 20 39 86 129 101 136 8 4 34 12 57 18 36 10 45 18 64 59 90 193 97
201 155 202 31 0 36 20 42 160 l5 124 40 54 c29 39 46 52 61 50 21 -3 21 -7
22 -273 1 -307 1 -302 13 -289 17 19 32 134 41 319 6 105 14 207 19 228 5 21
30 65 55 97 44 56 45 59 32 87 -48 96 -58 145 -32 160 18 10 136 184 136 200
0 7 7 13 17 13 15 0 16 -32 9 -415 -8 -474 -8 -474 65 -330 72 142 70 138 82
126 7 -7 7 -78 -2 -238 -11 -205 -10 -232 4 -260 9 -18 21 -35 26 -39 7 -4 10
-130 8 -367 -2 -270 0 -362 9 -365 7 -2 44 29 83 70 39 40 121 125 183 188
l113 115 6 219 c4 121 11 224 16 229 13 13 18 -12 28 -142 5 -69 12 -106 20
-109 7 -2 16 5 19 15 18 61 97 216 109 214 6 0 11 -46 13 -108 2 -88 6 -113
22 -133 13 -17 22 -22 29 -15 7 7 11 127 11 335 1 179 5 331 9 339 7 10 13 11
30 2 11 -7 21 -15 21 -19 0 -4 18 -27 40 -51 21 -25 63 -78 92 -118 31 -42 59
-72 68 -70 13 2 16 44 22 277 11 404 18 554 27 563 9 9 44 -39 81 -108 26 -50
46 -78 55 -77 16 2 23 76 24 237 1 155 6 195 23 195 6 0 38 -17 72 -37z
m-1544 8 c0 -6 -4 -13 -10 -16 -5 -3 -10 -15 -10 -26 0 -10 -4 -19 -9 -19 -5
0 -20 -20 -32 -45 -23 -46 -59 -87 -59 -67 0 6 21 41 46 77 25 36 43 72 41 80
-3 7 -1 16 6 19 19 7 27 7 27 -3z m-1170 -11 c0 -5 -7 -10 -15 -10 -8 0 -15 5
-15 10 0 6 7 10 15 10 8 0 15 -4 15 -10z m4760 -121 c0 -37 -4 -49 -15 -49
-11 0 -15 12 -15 48 0 27 3 52 6 55 15 14 24 -7 24 -54z m-3026 -4 c1 -25 -2
-51 -6 -58 -4 -7 -8 -7 -8 -2 -7 96 -5 123 8 111 2 -3 5 -25 6 -51z m-1428 8
c-11 -11 -19 6 -11 24 8 17 8 17 12 0 3 -10 2 -21 -1 -24z m1550 6 c15 -17 16
-40 8 -266 l-9 -248 -34 -1 c-39 0 -52 -19 -25 -38 16 -12 17 -30 11 -237 -19
-623 -18 -619 -39 -630 -40 -22 -48 -6 -48 95 0 60 4 96 11 98 14 5 21 155 8
163 -13 9 -11 148 2 182 7 15 12 71 12 124 0 90 -1 97 -26 122 -15 14 -27 33
-27 41 0 21 22 66 32 66 4 0 7 33 6 73 -3 69 -2 72 21 75 20 3 23 0 18 -18 -3
-12 0 -34 6 -48 11 -24 13 -21 19 43 10 92 9 368 -2 404 -7 25 -6 27 16 23 12
-2 30 -13 40 -23z m1574 -6 c16 -53 39 -113 57 -147 9 -15 16 -51 17 -78 1
-44 -2 -51 -21 -59 -22 -8 -23 -6 -23 50 0 40 -5 63 -15 71 -8 7 -15 23 -15
35 0 13 -7 25 -15 29 -8 3 -15 14 -15 24 0 11 -7 25 -15 32 -8 7 -15 28 -15
46 0 29 3 34 24 34 20 0 27 -8 36 -37z m-1086 1 c12 -31 7 -399 -6 -412 -34
-34 -62 14 -49 85 5 27 8 110 6 186 -4 115 -2 137 10 137 8 0 15 5 15 10 0 16
17 12 24 -6z m-2293 -81 c-9 -16 -10 -16 -11 -1 0 9 3 25 7 35 7 16 8 17 11 1
2 -10 -1 -25 -7 -35z m353 -4 c-5 -18 -15 -34 -23 -37 -11 -4 -12 4 -6 34 9
49 15 58 28 45 7 -7 7 -21 1 -42z m1720 -88 c10 -170 6 -231 -16 -253 -34 -34
-46 -23 -54 49 -7 68 1 318 11 334 3 4 16 3 29 -2 22 -10 24 -18 30 -128z
m2696 110 c0 -10 -7 -24 -15 -31 -17 -14 -21 -60 -5 -60 6 0 15 12 21 28 9 22
12 24 19 11 6 -10 2 -29 -11 -57 -25 -49 -39 -54 -39 -13 0 20 -6 32 -19 36
-21 6 -19 37 4 65 7 8 15 23 18 33 8 22 27 13 27 -12z m-4543 -51 c-5 -19 -12
-61 -16 -92 -7 -61 -13 -74 -30 -63 -16 9 -13 83 4 113 8 15 20 47 26 72 9 36
13 41 19 25 4 -11 3 -35 -3 -55z m392 21 c23 -18 43 -46 51 -70 11 -35 11 -43
-4 -66 -14 -21 -24 -25 -65 -25 -31 0 -53 5 -61 15 -7 8 -19 15 -26 15 -8 0
-14 6 -14 14 0 7 -6 19 -14 25 -8 7 -11 22 -8 38 4 24 3 25 -21 19 -39 -9 -45
13 -11 41 45 35 124 33 173 -6z m1562 -104 c-13 -13 -15 53 -3 93 5 19 8 13
10 -29 2 -30 -2 -59 -7 -64z m1785 25 c-8 -8 -76 53 -76 68 0 8 16 -2 40 -25
22 -21 38 -41 36 -43z m-3990 -39 c-11 -11 -19 6 -11 24 8 17 8 17 12 0 3 -10
2 -21 -1 -24z m447 -61 c8 -17 8 -25 -1 -34 -9 -9 -12 -8 -12 4 0 8 -2 31 -5
49 -3 19 -3 27 1 19 3 -8 10 -25 17 -38z m410 8 c7 -12 -2 -32 -34 -81 -68
-101 -99 -157 -113 -204 -4 -11 -15 -31 -26 -45 -16 -20 -22 -22 -29 -11 -5 8
-7 29 -4 46 3 19 -1 44 -11 63 l-16 31 38 21 c45 25 86 90 116 183 7 23 64 20
79 -3z m-663 -51 c0 -10 -4 -21 -10 -24 -14 -9 -34 40 -26 62 7 17 8 17 22 -1
8 -11 14 -28 14 -37z m2716 16 c10 -8 36 -15 56 -15 42 0 68 -8 68 -22 0 -5
-37 -8 -86 -6 -88 3 -103 10 -90 43 7 19 27 19 52 0z m-2265 -36 c-12 -13 -21
-19 -21 -14 0 11 32 46 38 41 2 -3 -5 -15 -17 -27z m2879 -15 c0 -7 -7 -17
-15 -22 -13 -7 -13 -14 -4 -42 7 -19 16 -39 20 -44 5 -6 9 -23 9 -39 0 -44
-32 -31 -45 18 -5 22 -16 50 -22 62 -19 32 -16 64 9 90 21 23 23 23 35 7 7
-10 13 -23 13 -30z m-3274 -29 c-6 -37 -5 -44 7 -39 8 3 17 -2 21 -11 10 -27
-2 -35 -31 -20 -24 12 -27 20 -25 52 2 31 0 35 -8 20 -11 -17 -30 -15 -30 3 0
9 46 37 64 39 4 1 5 -19 2 -44z m351 18 c5 -15 -32 -26 -63 -19 -32 8 -31 24
4 29 39 6 55 4 59 -10z m2373 -30 c24 -11 24 -12 -12 -12 -40 -1 -53 10 -43
37 6 15 8 15 18 2 7 -9 23 -21 37 -27z m-2622 -130 l57 -57 80 -7 80 -6 -68
-1 c-73 -2 -107 -14 -107 -37 0 -10 10 -15 31 -15 17 0 28 -4 24 -10 -3 -5
-17 -10 -30 -10 -13 0 -27 5 -30 10 -3 6 -14 10 -24 10 -11 0 -22 10 -26 23
-4 13 -8 17 -12 10 -2 -7 -9 -13 -15 -13 -7 0 -8 20 -4 59 5 46 3 61 -9 71
-15 12 -20 30 -9 30 3 0 31 -26 62 -57z m1746 41 c3 -9 6 -24 6 -34 0 -23 -47
-80 -66 -80 -25 0 -16 58 14 96 30 38 37 41 46 18z m2634 -282 c-2 -160 -7
-252 -13 -252 -11 0 -20 483 -10 509 4 9 9 11 16 4 6 -6 8 -106 7 -261z
m-3942 187 c3 -6 1 -16 -5 -22 -6 -6 -11 -21 -11 -34 0 -29 -33 -46 -71 -38
-26 6 -43 35 -20 35 18 0 80 45 81 58 0 15 16 16 26 1z m3106 -41 c44 -13 52
-25 62 -84 11 -77 -6 -82 -354 -100 -106 -6 -214 2 -206 14 2 4 66 9 143 10
76 2 140 6 142 8 3 2 -1 10 -7 16 -9 9 -8 16 5 30 12 13 31 18 74 18 58 0 89
7 89 19 0 10 -253 13 -265 4 -5 -5 -10 -17 -10 -28 0 -16 -8 -21 -43 -23 -24
-2 -50 2 -58 9 -8 7 -14 7 -14 1 0 -10 -87 -23 -102 -15 -4 2 2 13 14 25 l22
22 -25 7 c-13 4 -76 12 -139 18 -63 7 -144 21 -180 31 l-65 20 155 -8 c186 -8
553 -5 630 7 80 12 89 12 132 -1z m-594 -140 c-5 -16 -48 -24 -48 -10 0 11 17
20 38 21 8 1 12 -5 10 -11z m-3017 -33 l34 -15 -40 4 c-22 3 -44 5 -48 6 -11
0 2 20 12 20 5 0 24 -7 42 -15z m304 -107 c68 -33 76 -48 46 -98 -5 -8 -17
-32 -27 -52 -11 -23 -26 -38 -37 -38 -28 0 -32 28 -7 55 13 14 20 32 18 47 -3
20 -10 24 -58 29 -30 3 -73 16 -95 28 -22 11 -48 21 -59 21 -32 0 -11 11 23
12 17 1 37 8 43 16 17 20 90 10 153 -20z m-282 -13 c-4 -15 -36 -12 -41 3 -3
9 3 13 19 10 13 -1 23 -7 22 -13z m3500 -77 c11 -68 32 -133 45 -143 21 -16
12 -109 -10 -113 -16 -3 -18 5 -18 57 0 34 -4 69 -9 79 -17 35 -31 89 -31 126
0 44 16 40 23 -6z m-378 -60 c5 -18 3 -28 -4 -28 -6 0 -11 6 -11 13 0 6 -3 23
-6 37 -5 17 -4 22 4 15 6 -5 14 -22 17 -37z m-3208 -2 l25 -24 -41 -86 c-24
-49 -48 -86 -56 -86 -8 0 -15 7 -15 15 0 20 -16 19 -24 -2 -4 -10 -1 -20 9
-25 21 -12 19 -40 -2 -36 -10 2 -17 11 -15 20 1 9 -4 18 -13 22 -19 7 -19 43
0 62 8 9 15 30 15 49 0 20 6 35 15 39 18 7 20 57 3 75 -24 25 71 3 99 -23z
m2969 12 c4 -14 1 -25 -10 -33 -9 -7 -16 -15 -16 -19 0 -14 -41 -46 -51 -40
-7 4 2 18 21 36 24 21 31 35 27 53 -5 32 19 34 29 3z m539 -52 c-5 -22 -9 -67
-10 -99 -2 -75 -15 -87 -49 -47 -14 17 -26 36 -26 41 0 5 16 26 35 46 29 31
34 43 30 65 -7 31 1 52 17 42 6 -4 7 -22 3 -48z m-3405 -10 c0 -7 -7 -19 -15
-26 -8 -7 -15 -20 -15 -30 0 -10 -6 -23 -14 -29 -7 -6 -16 -25 -20 -41 -3 -17
-10 -30 -16 -30 -15 0 -12 43 5 66 8 10 15 27 15 37 0 39 60 91 60 53z m3230
-41 c0 -14 -7 -28 -15 -31 -11 -5 -15 -22 -15 -68 0 -70 -3 -76 -31 -69 -14 4
-17 8 -9 13 7 4 13 27 15 51 5 78 55 172 55 104z m-3105 -52 c-3 -15 -19 -43
-34 -62 -16 -20 -30 -40 -32 -46 -2 -5 -26 -43 -52 -82 -43 -64 -51 -72 -68
-63 -23 13 -25 40 -4 40 11 0 15 11 15 36 0 31 3 35 20 29 16 -5 20 -2 20 14
0 12 5 21 10 21 6 0 15 11 20 25 5 14 14 25 20 25 5 0 10 9 10 20 0 10 6 23
13 27 8 4 16 16 20 26 3 9 16 17 28 17 18 0 20 -4 14 -27z m-475 -30 c0 -5 -5
-15 -10 -23 -8 -12 -10 -11 -10 8 0 12 5 22 10 22 6 0 10 -3 10 -7z m256 -59
c-3 -9 -6 -21 -6 -27 0 -8 -3 -8 -10 -1 -12 12 -3 44 12 44 6 0 7 -7 4 -16z
m-228 -13 c11 -7 11 -9 -2 -14 -20 -8 -48 2 -40 14 7 11 25 11 42 0z m3307
-39 c-3 -3 -26 -7 -52 -8 -42 -1 -45 0 -28 12 10 8 27 14 37 14 10 0 21 7 25
17 5 14 8 13 15 -7 5 -13 6 -25 3 -28z m588 8 c9 -35 -39 -70 -96 -70 -42 0
-48 -2 -43 -18 5 -16 0 -17 -63 -14 -39 2 -77 -1 -87 -7 -16 -8 -11 -10 26
-11 27 0 40 -4 35 -9 -6 -6 -91 -4 -215 3 -144 10 -179 14 -118 15 69 1 99 6
140 25 29 13 89 32 133 41 44 9 98 21 120 27 22 5 56 13 75 17 20 4 44 12 55
18 23 13 31 10 38 -17z m-3795 -7 c-4 -22 -22 -20 -26 1 -2 10 3 16 13 16 10
0 15 -7 13 -17z m-301 -9 c21 -9 53 -22 71 -30 18 -7 47 -20 65 -27 17 -8 52
-22 77 -32 124 -48 242 -107 248 -123 2 -7 -5 -16 -16 -19 -12 -3 -23 -15 -25
-27 -3 -20 -4 -20 -14 4 -6 14 -21 30 -34 36 -13 6 -45 21 -70 33 -25 11 -55
21 -66 21 -11 0 -26 7 -33 15 -7 8 -25 15 -41 15 -16 0 -29 5 -29 10 0 6 -10
10 -22 10 -13 0 -36 7 -52 15 -15 8 -36 15 -46 15 -10 0 -23 7 -30 15 -7 8
-19 15 -26 15 -14 0 -20 51 -7 63 8 9 7 9 50 -9z m255 4 c-9 -9 -15 -9 -24 0
-9 9 -7 12 12 12 19 0 21 -3 12 -12z m3416 -137 c25 -15 -18 -22 -92 -14 -71
8 -71 8 -26 14 69 9 104 9 118 0z m451 -81 c28 -24 22 -46 -16 -61 -15 -6 -41
-17 -58 -24 -37 -17 -95 -30 -114 -26 -8 2 -21 -5 -27 -14 -10 -13 -20 -16
-41 -10 -15 5 -32 9 -38 9 -12 1 -15 9 -15 41 0 20 6 25 35 31 19 3 39 12 46
20 6 7 27 16 48 20 20 4 47 13 61 20 37 19 91 16 119 -6z m132 -115 c19 -14
34 -30 33 -35 -1 -6 -2 -14 -2 -20 -1 -5 -27 -17 -57 -25 -30 -9 -55 -21 -55
-26 0 -15 -30 -10 -36 6 -4 8 -16 15 -29 15 -12 0 -28 -7 -35 -15 -7 -8 -19
-15 -28 -15 -8 0 -24 -7 -34 -17 -24 -21 -35 -9 -18 21 25 48 139 117 221 135
3 0 21 -10 40 -24z m-4111 0 c14 -8 42 -14 63 -15 20 0 37 -4 37 -9 0 -5 15
-12 34 -15 25 -5 49 -24 95 -75 33 -38 61 -72 61 -75 0 -11 -29 -6 -102 17
-40 13 -126 32 -191 42 -70 11 -116 23 -114 29 7 20 70 28 126 17 30 -6 70
-11 90 -10 35 0 34 1 -19 19 -98 33 -143 43 -240 49 -92 6 -118 18 -68 33 46
12 202 8 228 -7z m4450 -80 c14 -8 32 -17 40 -21 45 -22 90 -56 90 -69 0 -8
-13 -16 -32 -19 -18 -3 -67 -10 -109 -16 -79 -11 -115 -26 -184 -73 -36 -24
-65 -35 -65 -23 0 3 11 17 25 32 14 15 25 32 25 38 0 6 19 24 42 40 23 17 36
32 29 34 -7 2 -21 -4 -31 -13 -10 -9 -29 -15 -42 -14 -26 4 -49 -10 -108 -65
-21 -20 -44 -36 -50 -36 -5 0 -10 -3 -10 -8 0 -4 -25 -27 -56 -51 -31 -25 -55
-40 -53 -35 3 5 11 23 18 39 7 17 18 39 23 51 22 47 121 135 188 166 124 57
211 72 260 43z m-900 -23 c0 -18 -18 -42 -31 -42 -12 0 -17 38 -6 49 17 17 37
13 37 -7z m435 -42 c-3 -5 -13 -10 -21 -10 -8 0 -12 5 -9 10 3 6 13 10 21 10
8 0 12 -4 9 -10z m-45 -25 c0 -3 -8 -13 -18 -22 -66 -63 -82 -75 -82 -64 0 14
77 91 91 91 5 0 9 -2 9 -5z m-3924 -109 c3 -8 17 -16 32 -19 45 -9 108 -63
141 -120 34 -60 39 -87 15 -87 -11 0 -13 -6 -9 -19 6 -21 -18 -91 -32 -91 -18
1 -63 51 -63 70 0 19 -4 20 -37 14 -21 -3 -40 -7 -43 -8 -3 0 -7 3 -10 9 -3 5
8 12 24 15 33 6 41 18 25 40 -7 10 -12 11 -15 4 -3 -6 -16 -9 -29 -6 -21 4
-25 0 -26 -19 -1 -21 -2 -21 -6 -4 -3 11 -16 30 -29 42 -13 12 -24 27 -24 33
0 13 23 13 37 -1 6 -6 16 -8 22 -5 16 10 13 33 -4 40 -8 3 -15 10 -15 16 0 6
-11 26 -25 44 -39 51 -32 64 33 65 19 1 35 -5 38 -13z m-220 -72 c55 -38 65
-54 60 -96 -3 -30 0 -38 15 -43 23 -8 36 -52 20 -68 -8 -8 -17 -5 -34 11 -27
26 -93 55 -127 56 -20 1 -26 7 -28 29 -2 15 -7 27 -12 27 -4 0 -11 7 -14 16
-5 12 -1 14 15 9 16 -5 20 -3 17 6 -3 8 -17 14 -33 14 -20 0 -30 7 -36 23 -13
35 -4 42 60 42 46 0 66 -5 97 -26z m580 16 c15 -6 33 -18 41 -28 40 -51 58
-142 27 -142 -8 0 -12 5 -9 10 3 6 0 13 -9 16 -8 3 -27 23 -42 45 -14 21 -33
39 -40 39 -8 0 -14 9 -14 20 0 22 -29 27 -47 9 -16 -16 -43 -3 -43 21 0 18 6
20 54 20 30 0 67 -5 82 -10z m3728 -29 c-10 -10 -21 -17 -23 -15 -6 6 20 34
32 34 6 0 2 -8 -9 -19z m383 -27 c12 -8 28 -14 36 -14 7 0 24 -11 36 -24 16
-17 20 -30 16 -49 -7 -24 -5 -26 36 -29 32 -2 45 -8 47 -20 3 -16 -5 -18 -70
-18 -40 0 -80 5 -88 10 -13 8 -12 10 3 10 29 0 19 18 -19 30 -30 10 -37 10
-48 -5 -9 -12 -19 -15 -34 -11 -32 11 -19 23 33 30 55 9 63 34 11 34 -19 0
-39 3 -45 7 -12 7 -15 58 -4 69 9 9 63 -3 90 -20z m-4994 -9 c-1 -5 -12 -12
-25 -15 -20 -5 -21 -7 -5 -13 30 -11 18 -24 -23 -24 -37 0 -40 2 -40 28 0 15
6 30 13 33 20 8 82 2 80 -9z m4856 -12 c-7 -10 -15 -20 -16 -22 -2 -2 -3 5 -3
17 0 14 6 22 16 22 14 0 15 -3 3 -17z m28 -69 c-9 -9 -28 6 -21 18 4 6 10 6
17 -1 6 -6 8 -13 4 -17z m-4917 -39 c-7 -8 -16 -12 -21 -9 -13 8 -1 24 18 24
13 0 13 -3 3 -15z m300 -10 c0 -8 -4 -15 -10 -15 -5 0 -10 7 -10 15 0 8 5 15
10 15 6 0 10 -7 10 -15z"/>
<path d="M3450 7228 c0 -9 5 -20 10 -23 6 -4 17 -21 25 -38 l15 -32 -5 35 c-6
38 -45 89 -45 58z"/>
<path d="M5870 7055 c0 -8 12 -22 28 -32 15 -10 32 -25 39 -33 19 -24 16 6 -4
38 -28 43 -63 58 -63 27z"/>
<path d="M5998 5975 c-4 -4 -4 -13 -2 -20 3 -7 -2 -28 -11 -45 -14 -26 -15
-38 -5 -58 18 -41 31 -12 28 62 -2 37 -6 65 -10 61z"/>
<path d="M2187 5904 c-4 -4 -7 -14 -7 -23 0 -11 3 -12 11 -4 6 6 10 16 7 23
-2 6 -7 8 -11 4z"/>
<path d="M2303 5852 c-13 -2 -23 -7 -23 -12 0 -13 -90 -23 -105 -10 -10 9 -13
-2 -14 -55 -1 -59 1 -65 19 -65 13 0 24 10 30 26 13 32 13 34 -2 30 -7 -1 -10
-1 -5 1 4 3 7 11 7 19 0 20 47 18 59 -3 10 -17 10 -17 11 -1 0 11 5 15 14 12
8 -3 17 -1 21 5 3 7 -2 11 -14 11 -12 0 -21 5 -21 10 0 6 12 10 28 10 36 0 61
15 35 21 -10 3 -28 3 -40 1z"/>
<path d="M2470 5801 c0 -5 -3 -16 -6 -25 -5 -13 1 -16 25 -16 l32 0 -18 25
c-18 25 -33 32 -33 16z"/>
<path d="M2335 5733 c-4 -13 -12 -23 -19 -23 -17 0 -38 -38 -25 -46 6 -3 11
-4 12 -3 1 2 12 19 25 37 13 18 21 38 18 45 -2 7 -8 2 -11 -10z"/>
<path d="M6335 5920 c-7 -11 17 -40 35 -40 6 0 10 10 8 22 -3 24 -32 36 -43
18z"/>
<path d="M7259 5811 c7 -5 17 -15 22 -22 6 -10 9 -8 9 9 0 16 -6 22 -22 22
-17 0 -19 -3 -9 -9z"/>
<path d="M7401 5756 c23 -39 45 -51 53 -30 10 26 7 32 -26 48 -45 23 -50 20
-27 -18z"/>
<path d="M7752 5411 c2 -7 7 -12 11 -12 12 1 9 15 -3 20 -7 2 -11 -2 -8 -8z"/>
<path d="M7042 698 c3 -7 15 -15 29 -16 13 -2 28 -10 32 -18 9 -16 37 -19 37
-4 0 6 -8 14 -17 17 -10 4 -24 13 -31 20 -17 17 -55 17 -50 1z"/>
<path d="M1918 4180 c4 -27 2 -30 -24 -30 -16 0 -38 7 -48 15 -11 8 -26 15
-34 15 -9 0 -6 -7 9 -17 48 -36 74 -46 111 -45 28 1 40 -3 48 -19 7 -11 18
-18 25 -15 8 3 17 1 20 -4 4 -6 12 -10 18 -10 7 1 5 6 -5 13 -9 7 -18 26 -20
42 -2 21 -15 37 -43 57 -52 35 -63 35 -57 -2z"/>
<path d="M1822 4053 c-22 -9 -2 -23 34 -23 38 0 46 15 12 24 -26 6 -28 6 -46
-1z"/>
<path d="M2086 3951 c-4 -6 -3 -19 3 -28 9 -17 10 -17 17 0 8 21 -10 45 -20
28z"/>
<path d="M7722 3156 c0 -25 4 -48 9 -52 5 -3 9 1 10 8 4 58 2 82 -8 85 -7 3
-11 -11 -11 -41z"/>
<path d="M7694 3076 c-8 -22 3 -33 18 -18 9 9 9 15 0 24 -9 9 -13 7 -18 -6z"/>
<path d="M7652 1380 c-14 -24 -16 -60 -2 -60 6 0 10 11 10 24 0 13 7 26 15 30
8 3 15 10 15 16 0 17 -25 11 -38 -10z"/>
<path d="M7628 927 c-24 -58 -22 -67 7 -32 23 28 34 75 18 75 -5 0 -16 -19
-25 -43z"/>
<path d="M4648 3568 c-3 -7 -2 -24 2 -38 l7 -25 8 28 c8 29 -8 61 -17 35z"/>
<path d="M3050 2820 c20 -13 50 -13 50 0 0 6 -15 10 -32 10 -25 0 -29 -3 -18
-10z"/>
<path d="M6205 1970 c-46 -11 -11 -20 70 -17 39 1 70 6 70 12 0 12 -97 16
-140 5z"/>
<path d="M6390 960 c0 -5 7 -10 15 -10 8 0 15 5 15 10 0 6 -7 10 -15 10 -8 0
-15 -4 -15 -10z"/>
<path d="M2165 570 c-16 -7 -11 -9 22 -9 23 -1 45 4 48 9 8 12 -42 12 -70 0z"/>
<path d="M0 46 c0 -40 3 -46 21 -46 18 0 20 5 17 42 -2 31 -8 44 -20 46 -15 3
-18 -4 -18 -42z"/>
</g>
</svg>
