<?xml version="1.0" standalone="no"?>
<!DOCTYPE svg PUBLIC "-//W3C//DTD SVG 20010904//EN"
 "http://www.w3.org/TR/2001/REC-SVG-20010904/DTD/svg10.dtd">
<svg version="1.0" xmlns="http://www.w3.org/2000/svg"
 width="300.000000pt" height="300.000000pt" viewBox="0 0 300.000000 300.000000"
 preserveAspectRatio="xMidYMid meet">
<metadata>
Created by potrace 1.10, written by Peter Selinger 2001-2011
</metadata>
<g transform="translate(0.000000,300.000000) scale(0.050000,-0.050000)"
fill="#000000" stroke="none">
<path d="M2487 5462 c-34 -21 -91 -75 -127 -119 -109 -135 -243 -157 -385 -62
-58 38 -56 34 18 -37 138 -135 276 -137 443 -6 41 32 97 64 124 71 l50 14 -42
-37 c-23 -20 -65 -78 -94 -128 -83 -146 -202 -173 -334 -75 -30 22 -72 38 -93
34 -40 -8 -65 -97 -27 -97 12 0 17 8 11 19 -27 44 37 41 86 -4 29 -27 71 -57
93 -66 86 -35 -56 -34 -160 2 -162 55 -228 32 -408 -139 -253 -240 -454 -256
-563 -43 -48 93 -136 171 -196 171 -14 0 2 -24 36 -53 35 -29 85 -95 112 -148
142 -280 501 -310 738 -61 69 73 145 82 168 19 15 -41 17 -41 31 -5 10 27 1
49 -32 76 l-46 37 110 -15 c362 -51 467 -8 609 250 45 82 98 153 117 156 42 8
45 -40 6 -102 -51 -83 -55 -210 -5 -220 24 -4 17 -7 -17 -6 -41 1 -60 -8 -60
-28 0 -20 -37 -38 -117 -54 -64 -13 -128 -34 -142 -45 -30 -25 -275 -145 -371
-182 -39 -15 -169 -124 -293 -245 -260 -252 -316 -275 -471 -194 -47 25 -108
53 -136 63 l-50 19 55 -52 c70 -66 69 -73 -7 -46 -34 11 -116 76 -182 144
l-121 122 11 -80 c5 -44 17 -98 25 -120 36 -95 -90 58 -131 159 -31 77 -66
121 -132 168 -108 76 -120 170 -28 218 49 26 49 26 -20 21 -139 -12 -146 -150
-13 -274 33 -30 56 -79 64 -132 17 -113 111 -274 199 -341 187 -143 599 -215
743 -130 l77 45 -40 -44 c-94 -104 -302 -152 -436 -102 -43 17 -47 14 -39 -27
19 -100 -165 -75 -274 37 -45 48 -92 74 -149 83 -45 7 -95 24 -111 36 -23 19
-25 17 -7 -15 12 -22 51 -53 87 -70 42 -21 85 -67 118 -130 91 -168 302 -227
461 -128 288 178 404 197 143 22 -166 -110 -167 -112 -25 -97 209 22 336 81
472 219 177 180 370 292 218 127 -33 -36 -73 -82 -89 -104 -34 -45 -36 -46
149 73 143 92 190 94 280 15 58 -51 77 -58 110 -40 101 54 125 29 70 -74 -39
-73 -49 -115 -42 -180 5 -47 3 -85 -5 -85 -23 0 -81 71 -81 98 0 42 -50 12
-56 -34 -6 -36 -14 -39 -57 -23 -64 25 -67 24 -67 -10 0 -25 -14 -25 -105 2
-125 38 -281 43 -319 12 -14 -12 -78 -41 -140 -64 -77 -29 -149 -78 -224 -152
-129 -127 -148 -130 -332 -49 -327 143 -697 37 -850 -244 -121 -221 -53 -500
196 -802 133 -162 148 -200 105 -265 -36 -55 -113 -65 -150 -20 -25 31 -13 71
21 71 11 0 15 -9 8 -20 -17 -28 48 -50 73 -25 64 64 -80 148 -181 106 -244
-101 -219 -408 43 -543 78 -40 108 -141 50 -165 -14 -5 -2 -11 26 -11 159 -5
131 199 -40 287 -78 41 -129 138 -109 208 15 50 16 48 27 -26 31 -218 412
-222 554 -6 163 248 202 470 117 679 -93 230 -58 349 139 464 107 63 130 66
79 10 -30 -33 -37 -66 -31 -147 5 -82 -1 -108 -25 -118 -18 -6 -32 -34 -32
-61 0 -46 11 -62 89 -128 17 -14 31 -51 31 -83 0 -31 19 -117 41 -190 61 -196
-20 -361 -195 -400 -78 -17 -124 -150 -77 -223 79 -120 31 -611 -69 -711 l-57
-57 94 -1 93 0 -50 -43 -50 -42 53 13 c29 7 69 19 89 26 28 11 32 6 21 -22
-13 -34 -11 -34 34 -5 58 38 77 25 60 -42 -9 -33 -6 -45 9 -37 20 13 84 -57
84 -91 0 -9 -79 -17 -175 -19 l-175 -3 130 -15 c173 -19 3759 -19 3900 0 68
10 -157 18 -590 22 -566 6 -637 10 -370 18 434 14 283 41 -231 41 l-366 0 -45
65 c-108 158 -188 255 -208 255 -42 0 -150 131 -150 183 0 62 -38 97 -180 164
-172 81 -340 225 -340 290 0 30 -14 75 -32 100 -30 42 -29 50 19 119 66 96 93
170 93 255 0 80 -5 78 87 39 58 -24 76 -45 94 -115 24 -87 87 -223 126 -273
18 -22 25 8 33 130 11 180 60 230 106 109 16 -44 32 -58 54 -49 16 8 94 12
173 9 84 -2 148 5 156 18 7 11 6 21 -4 21 -118 0 -61 51 60 53 80 2 170 13
200 25 51 20 59 15 108 -59 50 -75 55 -78 89 -47 33 30 42 27 134 -52 54 -47
160 -118 236 -158 123 -64 138 -79 138 -130 0 -123 -267 -197 -405 -112 l-66
40 13 -50 c23 -93 -48 -57 -103 52 -47 93 -57 101 -105 89 -30 -7 -81 -15
-115 -17 -64 -5 -225 -91 -269 -143 -45 -55 165 -228 294 -242 27 -3 51 -9 54
-12 2 -4 19 -31 38 -61 45 -72 173 -108 276 -78 40 12 91 22 113 22 22 0 51
13 65 30 14 16 39 30 55 30 17 0 69 31 115 69 83 68 164 110 280 144 47 14 74
46 126 148 l67 131 -114 119 c-124 129 -234 271 -221 283 28 29 504 61 532 36
17 -14 47 -29 68 -33 108 -20 130 -356 36 -539 -34 -65 -58 -118 -55 -118 3 0
45 14 92 30 95 34 148 13 85 -33 -129 -95 -114 -192 58 -389 111 -126 130
-125 168 7 18 63 42 126 53 140 12 15 16 84 11 162 -7 96 -2 147 17 174 35 47
35 149 -1 200 -41 59 -152 420 -152 496 0 52 -23 92 -111 188 l-110 123 -74
-31 c-76 -32 -129 -27 -352 35 -79 22 -99 92 -52 181 27 49 -10 372 -53 473
-63 148 -30 444 50 444 28 0 74 12 102 26 46 23 53 20 91 -35 61 -91 140 -86
136 9 l-4 70 56 -69 c62 -75 81 -72 196 38 55 52 55 55 5 164 -64 142 -46 454
31 510 21 16 28 38 19 66 -8 26 2 66 29 109 60 98 54 196 -19 279 -33 38 -60
87 -60 109 0 64 -38 148 -60 134 -11 -7 -20 -4 -20 7 0 10 -11 23 -25 28 -17
7 -25 -12 -25 -61 0 -103 -33 -96 -87 18 -52 111 -152 190 -263 209 l-70 11
55 -31 c60 -35 115 -126 115 -189 0 -34 -14 -27 -85 44 -92 92 -196 133 -337
135 -49 0 -124 13 -168 29 l-80 27 103 -93 104 -94 -134 -3 c-73 -1 -190 -9
-260 -17 -112 -13 -133 -10 -185 28 -32 24 -58 38 -58 32 0 -30 74 -118 134
-159 l67 -46 -69 -11 c-118 -19 -358 -174 -271 -174 l69 0 -90 -53 c-49 -29
-130 -68 -180 -88 l-90 -35 90 -23 c155 -40 198 -58 147 -59 -62 -3 -161 -92
-210 -190 -53 -104 -51 -102 -85 -73 -37 30 -104 -2 -122 -59 -37 -116 -64 42
-51 292 3 49 -17 84 -98 170 -116 124 -123 146 -44 129 54 -12 59 -8 79 73 12
48 41 107 64 131 39 42 40 49 11 89 -17 25 -41 96 -53 160 -23 117 -34 132
-69 97 -41 -40 -169 24 -169 85 0 181 -221 280 -393 176z m260 -63 c54 -43 73
-29 28 20 -20 21 -20 24 0 13 14 -8 34 -31 45 -51 23 -44 -2 -44 -80 -2 -27
16 -77 34 -110 42 l-60 15 62 2 c36 1 85 -16 115 -39z m233 -238 c0 -8 -25
-27 -55 -42 -30 -15 -61 -31 -68 -34 -35 -18 -24 67 10 87 40 23 113 15 113
-11z m67 -51 c-35 -26 -34 -27 10 -16 38 10 46 5 39 -26 -4 -21 -23 -37 -42
-35 -19 1 -35 -12 -36 -30 0 -18 -5 -24 -10 -12 -5 11 -42 18 -83 14 -57 -6
-68 -2 -45 13 26 19 26 21 -2 22 -18 0 -59 -19 -90 -43 -42 -32 -49 -33 -24
-7 46 50 304 184 313 164 4 -9 -10 -29 -30 -44z m1738 -154 c91 -106 63 -103
-75 7 -71 57 -130 107 -130 111 0 26 161 -67 205 -118z m-1867 9 c-11 -66 7
-171 22 -135 12 27 18 30 19 10 1 -27 4 -27 21 0 16 26 19 25 20 -6 0 -19 14
-57 32 -84 63 -96 15 -91 -79 9 -53 55 -86 101 -74 101 11 0 21 19 21 41 0 23
-9 36 -20 29 -12 -7 -15 -23 -7 -36 7 -14 1 -13 -15 2 -24 23 -22 31 11 55 44
33 52 35 49 14z m-973 -24 c-47 -7 -112 -33 -144 -57 -65 -48 -91 -56 -70 -22
30 49 143 98 219 95 l80 -2 -85 -14z m2489 -30 l56 -49 -60 8 c-33 4 -67 8
-76 9 -9 0 -11 10 -4 22 9 13 -6 16 -43 8 -45 -10 -51 -7 -27 10 23 17 12 20
-50 12 -59 -9 -69 -6 -40 7 77 37 185 25 244 -27z m-1354 -21 c39 -15 66 -28
60 -30 -46 -14 -78 -13 -69 2 10 16 -23 26 -86 23 -14 0 -25 7 -25 17 0 24 36
20 120 -12z m1395 -169 c-221 -140 -255 -339 -99 -579 111 -169 111 -395 1
-414 -15 -2 -45 -10 -67 -18 -36 -12 -36 -11 -5 9 103 67 86 136 -69 286 -155
150 -199 319 -116 445 l40 60 0 -110 c1 -118 53 -259 125 -335 23 -25 36 -51
29 -58 -8 -7 9 -43 36 -79 28 -36 51 -86 52 -112 1 -40 4 -38 20 14 30 92 9
171 -80 309 -93 144 -117 237 -88 345 11 42 13 76 3 76 -39 0 -13 96 38 144
67 62 93 72 194 74 l79 2 -93 -59z m297 27 l68 -33 -85 -54 c-88 -56 -114 -93
-164 -231 -23 -65 -28 -70 -29 -30 -1 57 62 208 96 229 13 8 18 22 11 32 -6
10 3 13 20 7 23 -9 28 -4 19 20 -22 57 -155 5 -178 -69 -8 -23 -19 -37 -25
-30 -7 6 8 39 33 73 41 55 42 59 7 40 -80 -42 -99 -164 -52 -318 5 -19 -4 -11
-21 16 -123 200 90 447 300 348z m-1930 -70 l88 -81 -100 76 c-55 41 -104 78
-108 81 -5 3 1 6 12 6 12 0 60 -37 108 -82z m1316 51 c25 -25 -31 -32 -152
-19 -102 11 -126 19 -96 32 38 16 229 6 248 -13z m846 17 c-17 -7 7 -45 73
-115 102 -107 254 -327 237 -343 -5 -5 -47 51 -95 124 -48 73 -126 172 -174
220 -81 81 -96 130 -39 126 16 -1 16 -4 -2 -12z m-2315 -45 c61 -41 109 -111
110 -161 0 -16 -15 0 -33 37 -64 130 -210 165 -404 94 -127 -45 -125 -23 2 26
136 52 249 54 325 4z m2640 -12 c21 -22 27 -49 18 -85 -16 -70 -27 -81 -27
-29 0 23 -8 45 -17 48 -26 10 -49 97 -26 97 11 0 34 -14 52 -31z m-73 -109 c0
-40 -3 -42 -10 -10 -6 22 -19 51 -30 64 -11 13 -13 35 -4 49 19 31 46 -31 44
-103z m-2583 29 c49 -49 36 -129 -15 -98 -10 7 -23 -1 -29 -17 -18 -46 -131
-39 -144 9 -8 31 -15 34 -27 14 -13 -20 -18 -17 -18 13 -1 39 -2 39 -31 1 -16
-22 -29 -28 -29 -13 0 115 205 179 293 91z m1547 40 c0 -68 -103 -141 -155
-110 -30 17 -28 20 18 20 57 1 108 47 88 80 -8 12 1 21 18 21 17 0 31 -5 31
-11z m594 -51 c-49 -40 -72 -74 -65 -95 5 -18 1 -46 -11 -63 -16 -23 -18 -20
-8 15 7 25 7 45 1 45 -7 0 -20 -20 -30 -45 -12 -30 -19 -34 -20 -13 -2 47 83
164 140 192 76 39 74 31 -7 -36z m-866 4 c10 -15 -208 -46 -225 -31 -11 10
119 45 171 47 24 1 49 -6 54 -16z m974 -40 c-78 -73 -84 -162 -14 -215 153
-117 -6 -272 -166 -163 -38 25 -73 58 -78 73 -6 20 6 18 44 -7 28 -19 66 -29
83 -22 18 6 26 3 19 -8 -14 -23 50 -27 81 -5 32 22 51 85 27 85 -68 0 -115
127 -77 206 20 43 20 43 -10 5 -35 -43 -42 -142 -11 -161 11 -7 20 -23 20 -35
0 -12 -13 -5 -29 16 -43 59 -92 7 -52 -56 25 -41 25 -43 -6 -18 -42 35 -42 71
-1 113 23 22 30 52 22 101 -14 84 -8 89 203 147 4 1 -21 -24 -55 -56z m-2820
-33 c-70 -27 -158 -68 -195 -91 -37 -23 -67 -36 -67 -30 0 20 156 115 234 143
135 48 160 29 28 -22z m916 -29 c40 0 102 -60 101 -98 0 -27 -3 -27 -21 3 -11
19 -55 53 -98 75 -42 22 -84 50 -92 63 -8 13 7 9 33 -10 26 -18 61 -33 77 -33z
m-123 -5 c-3 -14 10 -24 29 -22 19 1 33 -8 30 -20 -2 -13 15 -22 39 -22 27 1
39 -8 33 -24 -8 -20 -20 -21 -53 -4 -66 34 -113 80 -101 100 15 25 29 21 23
-8z m2212 -40 c29 -71 112 -156 87 -90 -18 49 0 44 27 -7 18 -34 18 -40 -2
-27 -19 11 -22 6 -12 -19 7 -20 13 -40 13 -45 0 -5 7 -5 16 0 9 6 17 -9 19
-33 l3 -44 -34 42 c-109 136 -140 184 -152 233 -17 75 1 69 35 -10z m-3086
-38 c-103 -53 -220 -137 -321 -229 -196 -181 -254 -211 -419 -220 l-131 -7
132 28 c182 38 278 91 376 208 90 108 257 229 377 273 151 55 144 28 -14 -53z
m1946 12 c-13 -33 -39 -38 -56 -11 -6 10 0 24 14 30 14 7 -2 8 -35 2 l-60 -10
50 28 c56 32 105 9 87 -39z m-67 -207 c-137 -201 -189 -243 -308 -254 l-82 -7
75 19 c139 36 409 350 418 486 2 34 5 31 11 -11 7 -42 -20 -96 -114 -233z
m-1255 175 c19 -10 44 -38 56 -62 19 -40 17 -39 -19 5 -35 45 -54 50 -180 50
-77 0 -134 6 -126 13 37 35 195 31 269 -6z m405 -57 c-7 11 -4 20 6 20 27 0
64 -94 62 -156 l-2 -54 -16 50 c-15 48 -16 48 -18 5 -1 -25 -10 -45 -20 -45
-10 0 -14 17 -8 38 5 21 1 43 -10 50 -12 7 -16 -5 -9 -31 8 -32 4 -39 -14 -28
-19 12 -22 5 -12 -26 16 -49 -2 -89 -31 -72 -13 8 -11 23 3 41 18 21 18 28 0
28 -13 0 -18 9 -11 20 7 11 4 34 -6 52 -17 30 -19 30 -31 -1 -7 -19 -4 -28 7
-21 23 14 16 -61 -8 -84 -8 -9 -14 -7 -11 4 9 44 -2 72 -23 59 -15 -9 -14 1 2
31 18 35 18 49 -1 67 -19 17 -21 17 -11 -2 19 -33 -3 -66 -36 -53 -21 8 -20
26 5 97 l31 88 88 -49 c48 -27 81 -40 74 -28z m821 46 c-5 -14 1 -27 15 -28
18 -1 18 -3 0 -11 -13 -5 -19 -23 -13 -38 6 -16 2 -29 -9 -29 -15 0 -64 99
-64 129 0 1 18 2 40 2 25 0 37 -10 31 -25z m1168 -79 c21 -68 33 -80 68 -73
33 8 29 1 -17 -29 -70 -45 -77 -37 -101 127 -16 114 11 101 50 -25z m-772 -95
c51 -119 24 -109 -36 13 -34 71 -47 121 -38 147 13 33 17 29 28 -22 7 -33 28
-95 46 -138z m-1704 148 c11 0 17 -11 12 -25 -5 -14 6 -37 23 -51 27 -22 26
-23 -12 -5 -24 12 -72 21 -106 21 -34 0 -82 -9 -106 -21 -43 -20 -43 -20 -5
10 21 17 51 31 66 31 15 0 22 8 16 18 -14 23 29 42 66 30 14 -4 35 -8 46 -8z
m1245 -32 c21 -54 13 -77 -14 -40 -23 32 -26 30 -25 -19 1 -59 -58 -87 -77
-37 -6 16 1 28 17 28 15 0 32 -11 38 -25 5 -14 11 -5 11 20 1 25 -8 45 -20 45
-16 0 -15 9 2 30 32 39 53 38 68 -2z m-1788 -210 c-82 -45 -164 -94 -182 -110
-17 -15 -38 -28 -47 -28 -34 0 143 127 239 172 160 76 154 55 -10 -34z m507
67 c5 -8 -34 -15 -87 -15 -53 0 -92 7 -87 15 5 8 44 15 87 15 43 0 82 -7 87
-15z m1245 -13 c2 -1 -14 -29 -35 -62 l-37 -60 0 54 c0 30 -15 63 -35 75 -27
15 -18 17 35 8 39 -7 71 -14 72 -15z m225 -78 c6 86 42 68 40 -20 -2 -97 22
-155 100 -242 l53 -59 -66 45 c-84 58 -165 217 -161 316 l3 76 14 -80 c8 -44
16 -60 17 -36z m1232 -89 c-11 -87 -18 -100 -37 -74 -13 17 -41 34 -63 37 -65
10 -49 80 21 92 33 6 60 23 62 40 1 17 -2 20 -6 7 -5 -12 -26 -18 -48 -12 -23
6 -57 -6 -82 -27 -41 -38 -42 -38 -18 8 14 25 50 51 83 57 35 7 60 25 60 45 1
20 9 13 21 -17 11 -27 14 -97 7 -156z m-1555 122 c13 -33 -18 -101 -41 -92
-20 8 -11 36 9 30 10 -3 18 12 18 34 0 21 -16 42 -35 47 -33 9 -33 10 1 12 19
1 41 -13 48 -31z m-1214 -15 c-38 -15 -87 -34 -108 -43 -28 -11 -34 -9 -23 9
20 32 88 59 151 60 43 0 40 -3 -20 -26z m2558 -172 c-1 -16 -18 6 -39 50 -21
44 -37 94 -37 110 1 17 18 -6 39 -50 21 -44 37 -93 37 -110z m-2958 95 c-60
-35 -189 -140 -285 -232 -190 -184 -241 -201 -65 -23 60 61 100 113 90 117
-31 10 86 98 203 153 152 70 188 61 57 -15z m547 0 c-15 -81 -77 -187 -119
-203 -20 -8 -12 11 20 49 29 34 57 86 64 116 26 119 56 152 35 38z m676 28
c-40 -30 -48 -57 -53 -163 -4 -91 0 -117 14 -92 11 19 14 59 7 88 -9 40 -7 46
8 24 40 -59 0 -192 -45 -148 -33 34 -37 -136 -3 -173 19 -21 26 -39 15 -39
-42 0 -70 60 -60 125 6 36 19 124 30 197 23 154 52 218 100 218 28 -1 25 -8
-13 -37z m1589 -5 c10 1 17 -7 16 -18 -6 -62 -12 -65 -38 -20 -30 53 -41 109
-12 63 9 -14 24 -26 34 -25z m-2316 -11 c-11 -56 -69 -80 -121 -51 -44 25 -44
25 2 -15 48 -42 35 -60 -42 -56 -25 1 -29 8 -14 27 13 15 14 29 2 36 -44 28
-70 -48 -31 -93 34 -40 32 -40 -17 3 -45 40 -50 54 -30 78 74 90 266 144 251
71z m156 -52 c-19 32 -6 31 79 -4 105 -44 94 -99 -16 -80 -99 16 -181 46 -135
48 25 1 25 5 2 19 -15 10 -21 28 -13 41 11 17 26 14 56 -13 23 -20 35 -25 27
-11z m1247 -120 c70 -74 116 -135 103 -135 -39 0 -267 237 -251 261 7 12 15
19 17 15 2 -3 61 -67 131 -141z m-553 63 c-23 -24 -52 -37 -64 -29 -49 30 -13
62 77 69 22 1 18 -10 -13 -40z m1429 -59 c54 -107 34 -168 -66 -197 -115 -34
-114 -36 -97 145 l13 151 63 -25 c34 -14 73 -48 87 -74z m-1707 69 c31 -12 46
-108 17 -108 -55 1 -165 47 -165 69 0 43 82 64 148 39z m629 -88 c24 -33 36
-60 25 -60 -11 0 -39 27 -62 60 -23 33 -35 60 -25 60 10 0 37 -27 62 -60z
m1274 1 c10 17 19 16 31 -4 28 -44 21 -73 -22 -87 -22 -7 -40 -26 -40 -43 0
-16 -9 -24 -20 -17 -33 20 -23 42 31 67 51 23 52 71 1 51 -15 -6 -33 5 -40 24
-11 27 -8 29 16 10 21 -18 32 -18 43 -1z m-1266 -90 c538 -118 637 -134 820
-138 130 -2 236 -33 115 -33 -22 0 -40 -9 -40 -20 0 -42 -421 -1 -729 71
l-121 28 140 -8 140 -9 -120 30 c-66 16 -138 25 -160 20 -22 -5 -121 7 -220
27 -128 26 -160 37 -110 40 66 3 64 5 -39 33 -108 29 -149 48 -104 48 12 0
205 -40 428 -89z m1496 -42 c33 -53 38 -78 22 -94 -17 -17 -23 -12 -23 20 0
54 -18 65 -75 43 -55 -21 -39 -86 18 -71 49 12 49 -39 0 -66 -41 -22 -123 45
-123 100 1 24 4 24 20 -1 17 -26 19 -26 20 2 0 17 22 43 50 58 38 20 44 33 27
53 -14 18 -15 27 -1 27 11 0 41 -32 65 -71z m-1921 -50 c0 -49 -44 -105 -61
-78 -9 15 -8 43 3 63 21 39 58 49 58 15z m-473 -40 c-27 -27 -167 -81 -167
-64 0 21 146 100 167 89 9 -5 9 -16 0 -25z m101 -22 c-44 -50 -180 -116 -238
-116 -29 0 177 120 268 156 5 2 -9 -16 -30 -40z m901 -115 c287 -61 566 -209
659 -352 27 -41 11 -33 -76 37 -204 166 -339 230 -612 285 -159 33 -306 89
-328 125 -8 13 26 5 75 -16 49 -21 176 -56 282 -79z m31 78 c-39 -12 -23 -17
70 -22 110 -5 112 -6 32 -13 -114 -10 -202 10 -161 36 16 10 47 18 69 17 33
-2 31 -5 -10 -18z m-981 -123 c-109 -138 -178 -293 -186 -420 l-6 -100 -113
-46 -114 -47 -48 58 c-27 31 -59 89 -72 127 -13 39 -36 71 -52 71 -38 0 -36
33 3 48 20 7 26 4 17 -12 -10 -15 -4 -19 19 -10 25 10 45 -11 84 -88 70 -139
99 -124 179 88 36 96 94 218 128 270 69 106 86 92 19 -16 -38 -60 -177 -373
-177 -397 0 -4 18 -3 40 3 22 6 35 2 29 -8 -6 -10 -23 -18 -36 -18 -14 0 -43
-13 -64 -30 -32 -24 -25 -24 43 3 79 30 83 36 95 132 15 127 106 319 203 431
105 120 111 90 9 -39z m1364 22 c-26 -21 -62 -39 -80 -38 -26 0 -23 9 14 40
26 21 62 39 80 38 26 0 23 -9 -14 -40z m-798 -59 c10 0 11 11 3 24 -8 13 18 3
59 -22 75 -46 250 -101 323 -102 32 0 27 8 -23 38 -34 22 -70 50 -78 63 -18
30 5 17 115 -62 43 -31 115 -59 170 -67 53 -7 110 -22 126 -34 24 -16 22 -18
-12 -9 -22 6 -121 16 -220 21 -268 15 -437 70 -508 163 -24 32 -24 33 0 12 15
-14 36 -25 45 -25z m-1490 -62 c5 -21 17 -38 27 -38 9 0 11 15 4 33 -9 24 -5
29 12 18 14 -8 19 -30 12 -47 -7 -18 -6 -26 2 -19 18 18 68 -22 67 -52 0 -13
-13 -6 -30 16 -16 21 -29 28 -29 15 0 -14 -24 -8 -65 16 -39 22 -100 37 -152
37 -85 -2 -91 -22 -13 -44 22 -6 4 -7 -40 -1 -58 7 -72 4 -50 -11 17 -11 24
-21 17 -21 -8 0 -29 -6 -49 -13 -25 -10 -30 -7 -19 12 12 19 7 20 -22 5 -20
-11 -46 -23 -57 -27 -10 -4 -21 -19 -23 -34 -2 -15 -11 -33 -19 -40 -8 -7 -8
4 -1 24 10 29 6 35 -18 25 -18 -6 -26 -3 -19 8 20 32 -23 23 -50 -10 -20 -24
-19 -30 5 -30 47 0 86 -57 58 -85 -17 -17 -23 -15 -23 11 0 43 -57 45 -73 3
-7 -18 -1 -42 13 -55 21 -19 23 -17 14 11 -7 19 -4 35 7 35 10 0 19 -19 19
-41 0 -78 -70 -38 -72 41 -4 120 184 274 372 307 51 10 59 8 30 -6 -22 -10
-30 -19 -17 -20 12 0 52 -7 90 -14 l67 -13 -40 46 -40 46 47 -25 c26 -14 52
-42 58 -63z m1100 42 c3 -16 -21 -45 -53 -63 -58 -33 -105 29 -68 89 17 27
115 6 121 -26z m-890 -89 c41 -59 75 -119 75 -133 0 -36 -22 -10 -108 127 -93
146 -67 150 33 6z m481 47 c-20 -35 -70 -100 -112 -145 -61 -67 -55 -54 29 62
113 155 141 183 83 83z m-468 -187 c34 -69 61 -138 61 -153 -1 -16 -28 30 -61
100 -32 70 -64 123 -70 117 -6 -7 -1 -33 11 -58 22 -45 22 -45 -8 -8 -18 22
-27 53 -21 68 6 16 -4 52 -23 81 -33 52 -33 52 8 16 22 -20 69 -93 103 -163z
m885 127 c-35 -7 -79 -24 -98 -38 -19 -14 -5 3 32 39 56 53 71 59 97 37 27
-22 23 -27 -31 -38z m-1163 -40 c0 -11 -9 -15 -20 -8 -11 7 -20 4 -20 -7 0
-28 57 -44 72 -20 7 11 29 16 50 11 21 -6 38 0 39 13 1 62 59 -65 59 -131 0
-42 7 -75 15 -74 41 7 85 -4 85 -20 0 -10 -18 -14 -40 -8 -28 8 -45 -3 -59
-37 -10 -26 -19 -36 -20 -22 -1 15 -16 10 -41 -15 -69 -69 -220 -32 -220 54 0
21 -9 23 -39 7 -21 -12 -55 -20 -75 -20 -32 2 -32 4 4 19 27 12 30 18 10 19
-18 1 -9 12 20 27 34 17 52 44 56 87 7 70 -38 103 -77 55 -20 -24 -19 -27 8
-16 18 7 33 2 33 -10 0 -12 -11 -22 -25 -22 -17 -1 -15 -7 5 -21 25 -18 23
-20 -10 -15 -71 11 -55 124 19 133 67 7 111 -37 111 -111 0 -25 10 -46 21 -46
12 0 16 9 9 20 -18 30 9 24 41 -9 33 -32 38 -83 10 -100 -10 -6 -24 -3 -31 9
-7 11 -1 20 13 20 18 0 19 6 3 22 -29 29 -66 6 -66 -39 0 -71 117 -117 152
-60 9 14 5 18 -9 9 -45 -28 -22 26 27 64 39 31 50 57 48 117 -2 65 -4 69 -16
27 -18 -66 -103 -69 -132 -5 -11 25 -30 45 -44 45 -37 0 -52 39 -25 71 24 29
59 22 59 -13z m1217 -4 c16 -20 8 -31 -37 -48 -44 -17 -60 -16 -67 4 -21 55
64 92 104 44z m-2197 -33 c35 -10 2 -17 -110 -24 -575 -36 -649 -536 -117
-791 201 -97 247 -145 260 -274 l8 -82 -40 100 c-26 64 -65 116 -107 145 -73
49 -127 61 -65 14 65 -49 21 -33 -112 42 -297 168 -409 398 -299 615 47 91 35
97 -18 9 -75 -123 -39 -349 76 -480 53 -61 6 -65 -57 -4 -326 313 114 866 581
730z m689 -30 c-38 -57 -32 -184 7 -176 15 4 21 -3 14 -15 -7 -11 8 -29 34
-39 26 -11 33 -19 15 -20 -48 -2 -113 54 -127 109 -14 54 37 190 71 190 10 0
4 -22 -14 -49z m2638 -8 c46 -20 131 -75 190 -122 58 -46 109 -81 112 -78 3 4
14 24 26 45 18 35 22 33 34 -24 8 -36 4 -78 -8 -98 -19 -29 -21 -23 -12 34 9
58 8 62 -8 24 -20 -45 -21 -44 -131 45 -319 260 -524 258 -945 -9 -58 -36
-110 -61 -117 -55 -11 11 215 165 331 224 149 78 372 83 528 14z m-751 13 c13
-13 24 -43 24 -66 0 -23 -11 -53 -24 -66 -13 -13 -43 -24 -66 -24 -23 0 -53
11 -66 24 -13 13 -24 43 -24 66 0 23 11 53 24 66 13 13 43 24 66 24 23 0 53
-11 66 -24z m-289 -33 c32 -35 29 -36 -69 -34 -86 1 -109 -6 -140 -46 -46 -59
-51 -30 -6 34 18 25 45 41 60 35 15 -6 27 -4 25 4 -5 34 6 44 50 44 26 0 62
-17 80 -37z m1010 -43 c171 -78 346 -237 339 -308 -7 -71 -86 -102 -109 -42
-14 36 24 86 47 63 8 -9 3 -23 -12 -32 -18 -11 -20 -20 -4 -30 28 -17 62 4 62
39 0 33 -159 173 -182 159 -8 -5 -22 1 -30 14 -10 16 -5 18 14 7 17 -10 21 -9
11 2 -9 10 -25 19 -35 21 -10 1 -28 3 -39 5 -12 1 -16 11 -9 22 7 12 -2 14
-22 6 -23 -9 -30 -5 -20 10 9 16 3 19 -20 10 -20 -7 -30 -5 -23 6 7 12 -38 21
-111 24 -68 2 -150 10 -182 16 -39 8 -53 5 -43 -10 8 -13 2 -17 -16 -10 -32
12 -103 -20 -277 -127 -62 -38 -124 -66 -137 -61 -28 9 274 191 379 228 111
40 317 34 419 -12z m-3127 0 c39 -17 39 -17 -2 -19 -23 0 -75 -23 -115 -50
-39 -27 -77 -41 -83 -31 -6 10 14 32 44 48 51 28 52 30 13 31 -182 4 -274
-289 -155 -494 54 -92 47 -111 -14 -40 -159 185 -155 424 7 508 125 64 228 80
305 47z m2176 -76 c64 -67 66 -93 16 -205 -21 -47 -35 -95 -30 -107 29 -76
-70 -66 -135 14 -131 161 -140 174 -123 173 9 0 55 -49 102 -109 61 -75 96
-104 119 -95 26 10 25 14 -10 27 -51 19 -72 51 -45 68 11 7 20 -2 20 -19 0
-37 31 -41 46 -6 72 175 75 185 45 146 -29 -36 -31 -36 -31 -3 0 29 -10 34
-52 23 -37 -9 -47 -6 -37 11 9 14 0 35 -20 50 -21 15 -31 39 -24 57 19 49 101
36 159 -25z m-2142 7 c-47 -15 -99 -38 -115 -52 -17 -14 -35 -19 -42 -13 -21
21 122 94 183 93 55 -2 53 -4 -26 -28z m2758 -29 c-40 -37 -58 -70 -50 -90 18
-47 74 -41 59 6 -28 89 113 76 146 -13 17 -48 20 -50 21 -11 5 114 150 144
239 48 77 -83 91 -105 121 -176 42 -102 93 -138 162 -112 65 25 105 -18 46
-51 -68 -38 -172 22 -218 127 l-26 60 -1 -77 c-2 -127 -172 -258 -251 -193
-35 29 -40 113 -8 124 11 4 3 24 -20 45 -42 37 -42 37 -42 -27 0 -196 -233
-232 -342 -54 -21 34 -38 54 -38 44 0 -32 83 -152 105 -152 12 0 16 -6 8 -13
-71 -72 -201 276 -133 359 11 13 44 54 74 92 47 59 143 119 193 121 10 1 -11
-25 -45 -57z m-3435 -27 c-18 -36 -41 -119 -49 -185 l-15 -120 4 130 c3 86 17
149 41 185 50 75 60 69 19 -10z m209 -10 c-38 -74 -40 -216 -3 -318 8 -22 6
-30 -5 -21 -10 9 -29 45 -42 80 -24 63 -24 63 -15 -26 7 -66 5 -79 -9 -50 -50
105 -21 272 64 365 55 61 56 57 10 -30z m1077 -98 c190 -25 284 -29 398 -14
82 10 149 11 149 3 0 -9 -14 -16 -31 -16 -17 0 -25 -10 -18 -21 9 -15 -12 -17
-64 -9 -57 10 -69 8 -47 -8 22 -16 -3 -21 -100 -22 -193 0 -348 22 -316 45 17
12 3 14 -42 7 -78 -14 -120 -44 -141 -100 -12 -32 -16 -34 -26 -7 -13 34 35
101 85 120 17 7 -46 12 -140 13 -117 1 -161 -5 -140 -18 25 -16 23 -19 -10
-19 -59 0 -109 34 -69 46 16 6 43 14 59 20 58 19 207 13 453 -20z m1871 5 c25
16 1 -69 -30 -108 -31 -39 -122 -21 -131 25 -7 34 -3 36 24 13 46 -38 93 -12
95 52 0 31 6 45 11 31 6 -14 20 -20 31 -13z m-2156 -117 c42 -66 -46 -150
-135 -128 -62 16 -91 97 -52 144 34 41 158 30 187 -16z m872 -8 c0 -39 -57
-58 -86 -28 -19 18 -16 21 9 11 18 -7 39 -3 46 9 7 11 -1 21 -19 21 -18 0 -27
9 -21 19 17 27 71 3 71 -32z m-130 18 c-11 -8 -20 -42 -20 -75 0 -84 -91 -97
-142 -20 -42 64 -115 61 -124 -5 -5 -30 4 -45 23 -45 40 0 60 34 28 47 -15 6
-10 11 11 11 49 3 38 -85 -12 -94 -85 -17 -132 114 -55 155 56 30 71 27 140
-31 34 -29 75 -47 91 -41 41 16 38 53 -5 54 -32 0 -31 3 4 30 21 16 48 29 60
29 14 -1 14 -6 1 -15z m2443 -56 c-7 -16 -30 -29 -52 -29 -38 0 -38 1 5 45 45
46 67 38 47 -16z m-1898 12 c47 -22 85 -45 85 -52 0 -21 -95 8 -165 51 -83 51
-31 51 80 1z m-1058 -28 c-62 -26 -152 -70 -200 -97 -133 -77 -222 -101 -286
-76 -84 32 -52 71 52 64 70 -5 128 11 268 74 99 44 202 80 229 80 34 1 14 -14
-63 -45z m653 -52 c0 -116 -447 -201 -607 -114 -89 48 -70 61 36 23 47 -16
101 -29 119 -29 17 1 -12 15 -65 32 -54 16 -93 34 -88 39 5 5 34 0 64 -11 107
-41 275 -25 392 36 116 60 149 66 149 24z m201 -21 c0 -30 -9 -37 -40 -29 -23
6 -9 -8 29 -29 39 -22 79 -40 90 -40 11 -1 -2 12 -30 28 -67 38 -52 37 90 -9
66 -21 102 -39 80 -40 -33 -1 -35 -5 -10 -21 25 -16 22 -19 -12 -20 -54 0
-202 52 -265 93 l-47 31 57 36 c31 21 57 38 58 39 0 0 0 -17 0 -39z m609 -190
c0 -200 -22 -279 -51 -187 -18 57 -18 270 0 353 27 121 51 42 51 -166z m68 45
c-41 -243 -46 -251 -40 -74 4 164 17 219 49 219 9 0 5 -65 -9 -145z m272 75
c0 -42 -93 -97 -135 -80 -28 12 -22 19 31 33 36 10 71 32 77 48 14 37 27 37
27 -1z m887 -64 c-65 -88 -199 -145 -341 -145 -102 -1 -125 -7 -135 -38 -18
-55 7 -102 46 -89 27 10 29 7 7 -16 -19 -20 -34 -22 -60 -6 -55 35 -53 102 5
155 l52 48 -56 16 c-30 8 -77 13 -105 11 -27 -2 -68 10 -90 27 -38 30 -37 30
14 8 42 -17 62 -17 83 0 21 18 45 16 100 -7 142 -59 347 -19 442 88 57 64 91
19 38 -52z m-1534 -118 c-9 -146 -6 -169 20 -160 21 8 17 -4 -12 -41 -47 -60
-51 -118 -17 -232 l24 -80 23 67 c13 41 38 70 61 74 31 5 33 3 8 -14 -19 -13
-34 -66 -40 -146 l-11 -126 -44 83 c-80 152 -90 246 -51 509 41 281 53 302 39
66z m820 -192 c90 -96 167 -209 167 -247 0 -7 -39 39 -87 104 -48 64 -116 143
-150 176 -71 66 -95 156 -71 266 15 72 17 69 27 -58 10 -126 16 -138 114 -241z
m857 149 c0 -256 -38 -329 -126 -241 -38 38 -28 59 16 32 65 -42 86 1 70 150
l-14 129 -123 -48 c-173 -67 -296 -167 -206 -167 17 0 56 -23 87 -51 l56 -51
-70 41 c-149 87 -306 -60 -205 -190 8 -11 -1 -2 -22 20 -91 99 111 351 340
424 97 31 197 115 197 166 0 1 0 -96 0 -214z m-2240 2 c-42 -145 -121 -227
-218 -227 -76 0 -91 -20 -43 -59 16 -13 32 -48 36 -77 l7 -54 23 50 c22 48 23
48 24 6 1 -52 -64 -94 -119 -76 -25 8 -55 -3 -83 -29 -57 -53 -159 -54 -207
-1 -25 28 -43 34 -60 20 -25 -21 -70 51 -70 112 0 69 -61 148 -116 151 -46 2
-47 4 -10 11 68 13 145 -53 146 -124 1 -84 31 -129 49 -73 8 24 7 53 -1 66 -8
14 -6 18 7 10 11 -7 26 0 31 15 6 15 34 27 62 27 55 0 152 54 152 84 0 10 14
32 31 50 35 34 38 33 -110 42 -73 4 -121 41 -121 94 0 35 -4 36 -33 12 -29
-23 -32 -23 -24 3 19 58 113 50 102 -9 -7 -35 1 -54 24 -63 45 -18 92 27 54
50 -15 9 -19 22 -9 28 29 18 73 -19 60 -52 -8 -20 4 -33 37 -39 57 -11 60 -4
19 38 -17 17 -24 41 -16 54 10 15 17 12 22 -12 10 -52 75 -42 123 18 28 36 41
43 41 21 0 -34 -52 -94 -81 -94 -11 0 -19 -18 -19 -40 0 -28 11 -38 39 -34 53
8 57 13 112 147 33 82 48 102 48 67 0 -123 -131 -300 -222 -300 -68 0 -150
-65 -104 -82 25 -11 11 -16 -47 -17 -163 -2 -185 -162 -24 -175 78 -7 126 23
147 92 14 42 10 46 -27 37 -23 -6 -37 -3 -31 7 13 21 76 24 95 5 8 -7 4 -25
-7 -38 -24 -29 8 -59 41 -39 43 27 20 93 -40 116 -85 32 -64 62 54 74 149 16
198 75 250 302 16 72 27 93 32 63 4 -25 -8 -96 -26 -158z m-735 159 c-19 -5
-35 -22 -35 -38 0 -41 55 -57 90 -28 33 27 40 6 12 -37 -23 -37 -110 -21 -118
23 -11 55 11 94 50 92 34 -2 34 -3 1 -12z m1073 -211 c37 -24 55 -17 66 25 12
46 46 54 46 11 0 -89 -142 -98 -170 -11 -11 36 -16 37 -43 10 -48 -48 -114
-32 -150 37 -22 42 -22 42 17 8 52 -46 100 -44 130 5 24 38 26 38 54 -15 15
-30 38 -62 50 -70z m-1146 15 c13 -49 30 -90 39 -90 8 0 11 16 6 36 -11 43 41
94 74 73 17 -10 16 -18 -3 -30 -45 -28 -2 -47 51 -23 41 18 47 17 38 -7 -15
-39 28 -89 76 -89 21 0 46 20 56 45 17 42 19 43 20 4 3 -94 -93 -118 -155 -39
-42 53 -110 70 -92 23 17 -45 -88 -15 -123 34 -27 39 -41 153 -19 153 5 0 20
-40 32 -90z m1989 -11 c47 -39 34 -65 -26 -50 -66 17 -101 44 -127 99 -17 36
-17 38 6 10 34 -41 116 -85 131 -70 6 7 2 12 -10 12 -28 0 -49 58 -30 87 10
15 17 7 21 -21 4 -23 19 -54 35 -67z m316 21 c-13 -67 23 -128 66 -112 15 6
27 2 27 -9 0 -40 -80 -17 -112 32 -27 41 -29 60 -11 100 30 67 45 62 30 -11z
m1139 29 c50 -9 70 -21 57 -34 -23 -23 -188 1 -173 25 6 9 -1 22 -15 28 -14 6
-7 8 15 3 22 -5 74 -15 116 -22z m166 -19 c-39 -36 -51 -63 -43 -95 6 -25 5
-33 -2 -18 -10 23 -15 23 -29 0 -13 -20 -17 -17 -18 14 0 48 33 95 90 126 61
33 61 28 2 -27z m162 -35 c62 -70 70 -91 46 -135 -26 -49 -106 -53 -142 -5
-22 30 -22 31 2 10 63 -56 162 4 100 61 -21 19 -23 16 -12 -15 13 -38 13 -38
-27 -2 -31 28 -46 31 -68 13 -42 -35 -57 23 -20 76 38 54 70 53 121 -3z
m-4554 -128 c110 -93 144 -217 92 -337 -25 -58 -26 -57 -18 40 10 124 -35 215
-148 300 -207 156 -207 156 -94 101 56 -27 132 -74 168 -104z m3585 140 c-14
-6 -25 -25 -25 -43 0 -25 5 -27 24 -8 13 13 42 24 65 24 34 -1 36 -4 11 -20
-26 -17 -26 -19 3 -20 17 0 42 -11 53 -26 19 -22 -103 -33 -178 -17 -41 10 6
124 49 121 15 -1 14 -5 -2 -11z m-1115 -127 c-32 -33 -47 -60 -34 -60 31 0 31
-53 1 -72 -16 -10 -20 -4 -12 17 21 53 -9 58 -63 10 -43 -38 -46 -39 -22 -5
51 72 147 170 168 170 11 0 -6 -27 -38 -60z m305 -47 c-57 -46 -168 -70 -144
-31 16 26 175 97 189 84 6 -5 -15 -29 -45 -53z m-168 32 c25 -41 -40 -110 -72
-77 -24 24 -34 25 -42 7 -5 -14 -11 -6 -11 17 -3 62 94 103 125 53z m-441 -38
c-9 -23 -5 -29 12 -19 17 11 21 0 15 -41 -6 -31 -11 -66 -12 -77 -1 -11 -10
-6 -21 10 -22 34 -26 127 -7 147 22 22 26 15 13 -20z m1570 -144 c47 -73 98
-152 115 -175 41 -57 -27 -131 -71 -78 -22 26 -20 29 12 17 26 -9 16 11 -32
64 -38 43 -54 65 -35 51 21 -17 35 -19 35 -6 0 12 -9 27 -20 34 -12 7 -15 21
-9 31 6 11 1 19 -11 19 -12 0 -16 10 -8 23 9 14 5 18 -9 9 -13 -8 -23 -41 -23
-72 0 -69 -48 -101 -144 -97 l-66 3 63 8 c35 5 79 28 99 52 20 24 24 33 8 19
-45 -40 -70 -29 -31 14 39 43 28 110 -22 129 -36 14 -92 -23 -76 -50 6 -10 2
-18 -10 -18 -11 0 -21 26 -21 58 0 61 -45 114 -79 93 -32 -20 -25 -51 9 -38
17 6 30 1 30 -11 0 -12 -13 -22 -30 -22 -36 0 -40 -33 -5 -47 20 -8 20 -10 0
-11 -42 -3 -76 91 -45 127 32 40 112 40 127 1 7 -16 31 -30 54 -30 24 0 71
-20 106 -44 68 -48 61 -31 -36 82 l-41 47 41 -25 c22 -13 79 -84 125 -157z
m952 -23 c19 -71 61 -200 93 -285 66 -172 59 -224 -30 -247 -101 -25 -163 70
-132 200 20 82 22 151 8 272 -10 90 -12 167 -3 173 9 5 11 20 3 33 -8 16 -6
17 7 4 10 -11 35 -78 54 -150z m-3902 44 c24 -5 34 7 34 40 1 35 5 39 18 18
25 -38 5 -82 -36 -82 -47 0 -82 40 -80 89 2 34 4 33 16 -9 8 -27 29 -53 48
-56z m2803 -22 c42 -68 -80 -112 -132 -47 -24 32 -24 32 8 8 43 -34 99 -16 83
26 -13 33 22 44 41 13z m-2817 -157 c6 6 0 33 -13 58 l-25 47 48 -40 c26 -22
52 -42 57 -46 6 -3 -3 -14 -19 -24 -24 -15 -25 -23 -5 -43 20 -20 25 -18 25 8
0 24 10 30 35 21 31 -12 32 -9 7 21 -15 19 -22 40 -15 47 7 7 13 3 13 -9 0
-12 25 -31 55 -42 37 -13 43 -20 19 -21 -20 -1 -32 -10 -26 -19 6 -10 48 -15
93 -13 55 3 75 -2 62 -15 -12 -12 -47 -22 -80 -23 -32 -1 -54 -10 -49 -19 6
-10 -19 -11 -56 -4 -82 17 -198 132 -197 196 0 37 6 33 30 -23 16 -37 35 -63
41 -57z m588 -156 c0 -24 -13 -55 -30 -69 -68 -57 74 -260 182 -260 175 0 438
-281 425 -453 -4 -48 -5 -87 -3 -87 2 0 36 19 75 42 76 45 92 34 38 -25 -42
-47 -3 -50 79 -8 59 31 90 7 69 -53 -5 -14 8 -47 28 -73 59 -77 33 -83 -382
-83 -498 0 -649 -26 -241 -41 l290 -11 -390 -4 -390 -4 -48 85 c-75 131 -153
220 -241 275 -50 30 -81 64 -81 88 0 22 -19 60 -43 85 -65 70 -79 330 -21 393
22 24 44 66 47 94 6 44 21 52 137 71 139 23 183 42 308 132 l79 58 57 -54 c31
-30 56 -74 56 -98z m-1544 104 c75 2 81 -1 49 -24 -72 -50 -156 -44 -187 14
-20 38 -19 41 15 26 20 -10 76 -17 123 -16z m849 -12 c-63 -52 -56 -72 10 -32
53 32 54 32 15 -3 -22 -20 -37 -55 -34 -77 6 -45 -65 -149 -101 -149 -13 0 -6
12 14 27 39 28 11 68 -29 43 -11 -7 -26 1 -32 19 -7 17 -20 26 -30 20 -10 -6
-18 7 -18 30 0 25 18 50 45 60 34 14 37 19 10 20 -19 0 -53 -17 -75 -39 -46
-46 -52 -28 -9 29 21 28 50 38 100 34 39 -2 90 9 114 26 61 43 74 38 20 -8z
m3353 -133 c44 -56 36 -97 -32 -149 -34 -27 -35 -27 -1 13 44 51 45 70 3 54
-21 -7 -41 2 -54 25 -20 36 -21 36 -36 -2 -14 -35 -15 -34 -18 11 -3 46 -4 47
-20 10 -14 -32 -17 -34 -19 -6 -4 94 114 124 177 44z m-939 -146 c28 -67 -9
-170 -84 -235 -42 -37 -42 -37 1 25 91 131 94 276 6 229 -22 -12 -51 -20 -66
-19 -23 1 76 55 107 57 6 1 23 -25 36 -57z m-2559 -485 c-25 -11 -24 -15 6
-28 58 -23 83 17 56 92 -12 36 -21 124 -20 197 2 137 32 107 36 -36 1 -37 21
-106 44 -152 33 -66 38 -93 21 -123 -19 -33 -22 -30 -25 23 -2 43 -5 49 -12
20 -22 -86 -109 -119 -186 -70 -21 13 -5 16 50 9 65 -8 71 -6 35 10 -47 20
-60 69 -25 91 11 7 22 91 24 186 l4 174 11 -190 c9 -157 6 -192 -19 -203z
m1614 232 c171 -79 218 -209 75 -209 -37 0 -71 7 -77 16 -5 9 16 13 47 8 130
-19 95 78 -57 156 -61 32 -139 82 -172 111 l-60 53 70 -44 c39 -23 117 -64
174 -91z m1336 105 c11 1 47 7 80 15 51 11 54 10 23 -10 -20 -13 -78 -33 -130
-46 -116 -29 -134 -80 -50 -147 31 -25 45 -46 31 -46 -81 0 -148 146 -89 194
19 16 24 23 10 16 -14 -7 -25 -4 -25 5 0 34 26 44 78 31 28 -7 60 -12 72 -12z
m270 17 c0 -5 -41 -37 -91 -72 -51 -35 -88 -67 -82 -72 5 -5 51 22 103 62 51
39 103 71 115 71 11 0 -14 -25 -57 -56 -132 -96 -197 -135 -182 -110 11 17 -5
21 -61 14 l-75 -10 60 29 c33 16 78 44 100 62 37 31 36 31 -24 2 -35 -17 -86
-31 -113 -31 -27 0 -54 -11 -60 -25 -6 -16 -10 -14 -11 7 -2 31 115 72 244 86
31 3 66 16 79 29 23 23 55 31 55 14z m-512 -23 c19 -7 32 -35 31 -65 l-1 -53
-27 60 c-27 59 -28 59 -31 10 -2 -27 -8 -39 -13 -25 -6 14 -19 20 -29 14 -26
-17 -22 19 6 47 28 28 24 27 64 12z m1507 -94 c36 -24 65 -51 65 -60 0 -19
-22 -7 -130 73 -90 66 -36 55 65 -13z m25 -115 c0 -65 -43 -219 -59 -210 -18
12 22 251 43 251 9 0 16 -19 16 -41z m-3981 -238 c26 -16 25 -20 -5 -30 -98
-32 -96 -32 -74 9 24 45 37 48 79 21z m1722 -41 c41 -22 159 -184 159 -219 0
-11 -25 -20 -55 -19 -34 2 -42 6 -20 12 53 14 50 23 -71 166 l-57 67 -88 -43
c-108 -53 -119 -41 -14 15 88 46 96 47 146 21z m-1697 -49 c-47 -15 -108 -42
-137 -61 -29 -19 -45 -23 -37 -10 27 44 140 100 200 99 55 -2 53 -4 -26 -28z
m165 -106 c96 -131 93 -146 -34 -142 -100 4 -101 4 -20 12 106 9 105 17 -1
132 -67 71 -78 93 -51 93 20 0 68 -42 106 -95z"/>
<path d="M4345 4694 c-66 -45 -94 -86 -69 -102 8 -5 44 27 81 70 36 43 63 77
59 77 -3 -1 -35 -21 -71 -45z"/>
<path d="M4122 4263 c-3 -48 58 -156 122 -215 l63 -58 -68 83 c-37 45 -78 113
-92 150 -13 37 -25 55 -25 40z"/>
<path d="M2381 3114 c-2 -31 77 -167 113 -195 34 -27 34 -26 3 11 -18 22 -51
76 -74 120 -23 44 -42 73 -42 64z"/>
<path d="M3433 3167 c-23 -24 -14 -82 15 -93 43 -17 96 31 81 72 -13 34 -70
46 -96 21z"/>
<path d="M3792 2958 c-153 -181 55 -513 219 -349 51 51 72 153 24 117 -40 -31
-189 -32 -207 -2 -44 70 -31 101 24 58 79 -62 167 -9 168 101 0 56 -48 113
-68 80 -7 -11 -1 -24 13 -29 18 -7 16 -19 -10 -46 -50 -52 -105 -15 -105 69 0
76 5 76 -58 1z m188 -330 c0 -21 -11 -28 -32 -20 -17 7 -46 12 -65 12 -28 1
-29 3 -3 20 46 30 100 23 100 -12z"/>
<path d="M4166 2964 c-50 -32 -70 -127 -33 -167 37 -41 127 -49 161 -15 16 16
21 8 19 -28 -2 -28 -9 -47 -16 -42 -7 4 -34 0 -59 -9 l-47 -17 45 -24 c136
-73 212 127 94 245 -41 41 -110 43 -110 4 0 -19 12 -25 33 -17 22 8 30 4 23
-16 -17 -51 -86 -33 -86 22 0 39 13 52 60 62 l60 13 -60 2 c-33 1 -71 -4 -84
-13z"/>
<path d="M4180 2604 c0 -42 53 -49 118 -15 79 41 79 41 -28 41 -60 0 -90 -9
-90 -26z"/>
<path d="M1333 2787 c-51 -51 26 -140 91 -105 45 24 48 98 5 98 -23 0 -28 -12
-18 -42 9 -31 6 -40 -14 -33 -15 5 -26 28 -25 52 1 43 -14 55 -39 30z"/>
<path d="M5381 1750 c-1 -44 -7 -114 -14 -155 -8 -50 -5 -75 10 -75 13 0 23
14 23 30 0 31 24 40 47 17 7 -8 -1 -29 -18 -48 -35 -39 3 -68 61 -46 35 13 41
109 7 102 -13 -3 -44 54 -69 125 -45 129 -45 130 -47 50z"/>
<path d="M1302 4852 c-30 -36 -22 -116 13 -127 16 -5 23 8 20 35 -8 68 53 97
105 50 41 -37 41 -37 24 11 -22 59 -123 78 -162 31z"/>
</g>
</svg>
