<?xml version="1.0" standalone="no"?>
<!DOCTYPE svg PUBLIC "-//W3C//DTD SVG 20010904//EN"
 "http://www.w3.org/TR/2001/REC-SVG-20010904/DTD/svg10.dtd">
<svg version="1.0" xmlns="http://www.w3.org/2000/svg"
 width="300.000000pt" height="300.000000pt" viewBox="0 0 300.000000 300.000000"
 preserveAspectRatio="xMidYMid meet">
<metadata>
Created by potrace 1.10, written by Peter Selinger 2001-2011
</metadata>
<g transform="translate(0.000000,300.000000) scale(0.100000,-0.100000)"
fill="#000000" stroke="none">
<path d="M1481 2858 c-10 -26 2 -56 25 -65 11 -4 14 -35 14 -164 l0 -159 41 0
c22 0 38 -4 35 -8 -3 -5 -56 -12 -119 -15 -197 -12 -222 -18 -199 -53 5 -9 36
-9 114 -2 59 6 115 8 123 4 34 -13 1 -26 -63 -26 -37 0 -91 -3 -119 -6 l-53
-7 0 -42 c0 -42 0 -43 -47 -55 -27 -6 -64 -21 -85 -32 l-36 -21 45 -31 c25
-17 53 -42 62 -55 13 -20 6 -18 -37 13 -29 21 -73 44 -99 52 -84 25 -111 14
-47 -21 68 -37 147 -131 168 -201 6 -19 2 -22 -42 -26 -27 -3 -78 -18 -113
-35 -89 -41 -222 -173 -174 -173 9 0 15 -9 15 -22 0 -13 4 -29 9 -37 6 -9 3
-27 -9 -50 -10 -20 -22 -57 -25 -83 -8 -55 -3 -58 60 -29 47 22 85 60 113 116
13 23 21 33 22 22 0 -36 -29 -86 -72 -118 -24 -19 -45 -38 -45 -42 -1 -5 -5
-12 -9 -15 -4 -4 -4 -1 1 7 6 10 2 12 -16 6 -13 -3 -32 -9 -41 -11 -20 -6 -24
-19 -33 -108 l-7 -69 47 39 c64 52 138 136 187 212 42 64 65 76 60 30 -4 -31
11 -43 28 -23 10 12 14 12 26 0 12 -11 11 -20 -7 -62 -35 -83 -145 -237 -217
-305 -65 -61 -121 -90 -123 -64 0 6 -4 2 -9 -9 -8 -19 -9 -19 -9 2 -1 12 -5
24 -10 27 -5 4 -14 30 -21 58 -7 36 -23 67 -50 100 l-40 47 0 231 c1 231 1
232 25 256 13 13 32 24 42 24 11 1 5 7 -17 18 -47 23 -61 63 -34 99 11 15 35
32 53 38 l33 11 -41 19 c-23 10 -55 33 -70 51 l-29 32 -21 -29 c-12 -16 -42
-39 -67 -52 l-45 -23 36 -13 c40 -14 67 -56 58 -90 -3 -12 -19 -29 -36 -38
l-31 -15 27 -14 c34 -19 47 -43 47 -93 0 -39 2 -41 30 -41 17 0 30 -4 30 -10
0 -5 -13 -10 -30 -10 -40 0 -42 -30 -2 -31 l27 -1 -27 -10 -28 -10 0 -189 0
-189 -23 0 c-40 0 -47 -18 -47 -123 l0 -99 35 -31 35 -31 0 -327 0 -328 33 -3
32 -3 -32 -15 c-38 -17 -48 -60 -14 -60 27 0 38 -38 16 -59 -15 -15 -17 -15
-31 3 -7 11 -15 18 -17 15 -6 -8 -37 -80 -37 -84 0 -3 151 -5 335 -5 l335 1 0
47 c-1 41 -2 45 -14 30 -7 -10 -19 -18 -27 -18 -11 0 -11 -2 1 -10 11 -7 11
-10 2 -10 -7 0 -11 -4 -8 -9 3 -5 -1 -11 -9 -15 -8 -3 -15 0 -15 6 0 7 -4 7
-13 -1 -23 -18 -27 -2 -27 103 0 86 2 97 13 81 9 -11 19 -15 27 -10 8 5 11 4
6 -3 -3 -6 -1 -22 5 -36 l12 -25 43 47 43 47 1 -113 0 -113 142 4 c141 4 143
4 149 28 7 24 7 24 8 -3 l1 -28 80 0 79 0 3 110 3 110 37 -30 c21 -17 42 -29
47 -26 5 3 7 -4 4 -16 -5 -19 0 -17 25 12 l31 35 1 -89 c0 -83 -1 -88 -16 -70
-8 10 -13 13 -9 7 4 -9 -2 -12 -18 -11 -14 1 -23 7 -20 13 2 6 -8 17 -22 23
-24 11 -25 11 -25 -28 l0 -40 390 0 389 0 -18 43 c-40 93 -86 329 -112 572
l-12 110 -81 80 c-45 44 -140 134 -211 200 -142 132 -191 193 -252 311 -55
106 -60 124 -35 124 11 0 27 -10 35 -22 16 -23 16 -22 16 19 1 23 5 44 10 48
6 3 29 -27 52 -67 75 -129 295 -328 412 -371 17 -6 18 -3 11 35 -9 52 -12 77
-13 101 -1 11 -10 21 -21 24 -24 6 -27 23 -4 23 14 0 16 8 11 50 -4 34 -1 58
8 77 17 31 19 71 6 92 -7 11 -10 10 -15 -6 -4 -11 -19 -35 -36 -53 -22 -25
-39 -33 -75 -37 -25 -3 -48 -10 -51 -14 -3 -5 -13 -9 -22 -9 -15 0 -15 2 -2
11 12 9 11 10 -7 6 -13 -3 -23 -2 -23 1 0 4 -11 12 -25 19 -19 8 -23 8 -19 0
4 -7 -9 3 -29 22 -36 33 -68 104 -66 145 0 13 6 6 15 -19 17 -49 66 -110 103
-129 71 -37 142 -24 195 34 l35 39 -15 53 c-9 29 -20 61 -25 70 -12 23 -11 26
7 30 24 4 -37 81 -98 125 -75 54 -148 76 -270 81 -62 2 -108 8 -108 14 0 6 12
33 26 62 30 61 83 118 142 153 23 14 42 27 42 29 0 2 -14 4 -31 4 -19 0 -28
-4 -24 -11 4 -6 1 -9 -6 -8 -38 6 -128 -58 -167 -118 -17 -27 -39 -78 -48
-113 -9 -36 -20 -67 -24 -70 -5 -3 -13 -21 -18 -40 l-10 -35 -1 42 c-3 143 89
310 192 345 l30 11 -21 17 c-12 10 -51 26 -87 35 l-65 18 0 61 c0 59 10 140
25 199 9 33 -6 36 -37 5 -17 -17 -20 -18 -15 -4 4 10 7 20 7 22 0 3 14 11 31
18 26 11 36 26 61 89 19 51 35 76 48 80 26 7 36 33 20 52 -16 19 -50 2 -50
-25 0 -10 -18 -40 -40 -65 -22 -25 -40 -50 -40 -56 0 -5 -4 -9 -10 -9 -16 0
-12 56 5 70 8 7 15 18 15 25 0 7 -7 18 -15 25 -21 18 -48 -6 -41 -35 4 -15 -2
-29 -18 -44 -22 -21 -23 -21 -47 -3 -13 11 -42 25 -64 33 -22 7 -46 17 -52 22
-18 13 -16 57 4 79 13 15 14 23 5 43 -16 34 -69 36 -81 3z m199 -404 c0 -2
-17 -4 -37 -3 -29 0 -33 2 -18 8 18 7 55 4 55 -5z m-150 -34 c0 -5 -4 -10 -10
-10 -5 0 -10 5 -10 10 0 6 5 10 10 10 6 0 10 -4 10 -10z m-160 -10 c0 -5 -2
-10 -4 -10 -3 0 -8 5 -11 10 -3 6 -1 10 4 10 6 0 11 -4 11 -10z m317 3 c-4 -3
-10 -3 -14 0 -3 4 0 7 7 7 7 0 10 -3 7 -7z m-7 -27 c0 -3 -4 -8 -10 -11 -5 -3
-10 -1 -10 4 0 6 5 11 10 11 6 0 10 -2 10 -4z m-33 -13 c-4 -3 -10 -3 -14 0
-3 4 0 7 7 7 7 0 10 -3 7 -7z m-273 -105 c10 -29 32 -73 49 -98 21 -30 25 -40
11 -30 -39 31 -73 89 -88 153 -11 47 8 29 28 -25z m78 18 c19 -11 32 -36 24
-44 -9 -9 -64 19 -88 45 l-23 25 35 -7 c19 -4 42 -12 52 -19z m197 -2 c-14
-17 -78 -48 -85 -41 -10 9 31 48 59 55 39 11 44 8 26 -14z m-969 -254 c0 -5
-14 -10 -31 -10 -17 0 -28 4 -24 10 3 6 17 10 31 10 13 0 24 -4 24 -10z m818
-122 c3 -69 -14 -73 -20 -4 -3 36 -8 42 -53 66 -34 18 -51 34 -53 49 -4 22 -1
22 60 -13 l63 -35 3 -63z m135 93 c-3 -10 -22 -27 -44 -36 -21 -10 -39 -23
-39 -29 0 -6 -6 -2 -12 8 -6 11 -7 21 -2 23 5 2 27 14 49 28 49 30 55 30 48 6z
m-973 -57 c0 -21 -4 -33 -10 -29 -17 10 -11 65 7 65 2 0 3 -16 3 -36z m785
-24 c3 -5 1 -10 -4 -10 -6 0 -11 5 -11 10 0 6 2 10 4 10 3 0 8 -4 11 -10z m39
-89 c24 -23 40 -31 43 -24 5 15 102 87 108 81 2 -2 -6 -15 -18 -28 -12 -14
-35 -40 -50 -59 -28 -34 -80 -51 -70 -23 3 7 1 12 -3 10 -16 -5 -114 86 -114
105 0 17 3 17 33 -4 17 -12 49 -38 71 -58z m510 58 c-3 -5 -10 -7 -15 -3 -5 3
-7 10 -3 15 3 5 10 7 15 3 5 -3 7 -10 3 -15z m-907 -15 c5 -14 -35 -26 -43
-13 -8 14 6 30 24 27 8 -2 17 -8 19 -14z m-420 -51 c-4 -3 -7 0 -7 7 0 7 3 10
7 7 3 -4 3 -10 0 -14z m614 -32 c38 -39 41 -91 5 -91 -32 0 -44 20 -17 27 27
7 27 17 -1 43 -27 25 -54 26 -61 1 -3 -14 -11 -17 -29 -14 -33 6 -46 -22 -15
-32 22 -6 22 -6 -3 -18 -14 -6 -27 -12 -29 -14 -3 -2 6 -18 19 -36 21 -29 22
-30 2 -13 -27 23 -46 79 -37 107 23 70 113 92 166 40z m590 16 c9 -7 22 -23
29 -37 l13 -24 -32 27 c-19 15 -45 27 -61 27 -30 0 -91 -44 -87 -62 1 -6 -4
-13 -10 -15 -25 -9 -13 39 16 68 24 23 38 29 73 29 24 0 50 -6 59 -13z m-1198
-24 c-7 -2 -19 -2 -25 0 -7 3 -2 5 12 5 14 0 19 -2 13 -5z m410 -12 c4 0 7 -5
7 -11 0 -6 -35 -10 -85 -10 -75 0 -96 6 -81 21 4 4 137 4 159 0z m903 -14 c4
-4 -2 -7 -14 -7 -11 0 -23 4 -26 8 -6 10 30 9 40 -1z m240 2 c3 -5 -46 -9
-110 -9 -74 0 -116 4 -116 10 0 13 218 12 226 -1z m-856 -19 c0 -5 -4 -10 -10
-10 -5 0 -10 5 -10 10 0 6 5 10 10 10 6 0 10 -4 10 -10z m310 0 c0 -5 -4 -10
-10 -10 -5 0 -10 5 -10 10 0 6 5 10 10 10 6 0 10 -4 10 -10z m187 -7 c-4 -3
-10 -3 -14 0 -3 4 0 7 7 7 7 0 10 -3 7 -7z m-639 -21 c2 -7 -3 -12 -12 -12 -9
0 -16 7 -16 16 0 17 22 14 28 -4z m182 -3 c0 -5 -4 -9 -10 -9 -5 0 -10 7 -10
16 0 8 5 12 10 9 6 -3 10 -10 10 -16z m230 1 c0 -5 -4 -10 -10 -10 -5 0 -10 5
-10 10 0 6 5 10 10 10 6 0 10 -4 10 -10z m-102 -17 c5 -17 -26 -29 -40 -15 -6
6 -7 15 -3 22 9 14 37 9 43 -7z m-78 -3 c0 -5 -2 -10 -4 -10 -3 0 -8 5 -11 10
-3 6 -1 10 4 10 6 0 11 -4 11 -10z m130 0 c0 -5 -4 -10 -10 -10 -5 0 -10 5
-10 10 0 6 5 10 10 10 6 0 10 -4 10 -10z m610 -51 l0 -62 -21 28 c-21 26 -21
28 -6 61 9 19 19 34 22 34 3 0 5 -28 5 -61z m-900 27 c0 -3 -5 -8 -12 -12 -7
-4 -8 -3 -4 4 7 12 16 16 16 8z m497 -18 c-3 -8 -6 -5 -6 6 -1 11 2 17 5 13 3
-3 4 -12 1 -19z m-20 5 c-4 -3 -10 -3 -14 0 -3 4 0 7 7 7 7 0 10 -3 7 -7z
m-90 -10 c-4 -3 -10 -3 -14 0 -3 4 0 7 7 7 7 0 10 -3 7 -7z m-719 -59 c-12
-25 -64 -51 -77 -39 -2 3 15 23 40 46 45 42 60 39 37 -7z m239 40 c-3 -3 -12
-4 -19 -1 -8 3 -5 6 6 6 11 1 17 -2 13 -5z m40 -1 c-4 -3 -10 -3 -14 0 -3 4 0
7 7 7 7 0 10 -3 7 -7z m928 -74 l14 -27 -39 19 c-43 21 -44 22 -54 62 l-7 29
36 -28 c20 -15 43 -40 50 -55z m115 58 c0 -16 -14 -35 -40 -56 -29 -23 -40
-28 -40 -17 0 14 66 96 76 96 2 0 4 -10 4 -23z m-890 3 c0 -5 -4 -10 -10 -10
-5 0 -10 5 -10 10 0 6 5 10 10 10 6 0 10 -4 10 -10z m250 0 c0 -5 -4 -10 -10
-10 -5 0 -10 5 -10 10 0 6 5 10 10 10 6 0 10 -4 10 -10z m100 -20 c0 -5 -4
-10 -10 -10 -5 0 -10 5 -10 10 0 6 5 10 10 10 6 0 10 -4 10 -10z m-300 -10 c0
-5 -4 -10 -9 -10 -6 0 -13 5 -16 10 -3 6 1 10 9 10 9 0 16 -4 16 -10z m155 0
c-3 -5 -10 -10 -16 -10 -5 0 -9 5 -9 10 0 6 7 10 16 10 8 0 12 -4 9 -10z
m-111 -21 c-3 -5 -10 -7 -15 -3 -5 3 -7 10 -3 15 3 5 10 7 15 3 5 -3 7 -10 3
-15z m61 11 c3 -5 -1 -10 -10 -10 -9 0 -13 5 -10 10 3 6 8 10 10 10 2 0 7 -4
10 -10z m165 -10 c0 -5 -4 -10 -10 -10 -5 0 -10 5 -10 10 0 6 5 10 10 10 6 0
10 -4 10 -10z m-321 -34 c9 -10 8 -16 -4 -26 -19 -16 -41 1 -32 24 8 20 21 20
36 2z m266 -11 c0 -28 -29 -25 -33 3 -3 19 0 23 15 20 10 -2 18 -12 18 -23z
m-118 -23 c7 -4 15 -24 18 -42 5 -34 5 -34 -5 -6 -5 16 -15 33 -22 37 -16 10
-47 -8 -57 -33 -6 -17 -9 -18 -14 -6 -14 37 44 73 80 50z m-287 -6 c0 -3 -4
-8 -10 -11 -5 -3 -10 -1 -10 4 0 6 5 11 10 11 6 0 10 -2 10 -4z m530 -6 c0 -5
-2 -10 -4 -10 -3 0 -8 5 -11 10 -3 6 -1 10 4 10 6 0 11 -4 11 -10z m-883 -17
c-4 -3 -10 -3 -14 0 -3 4 0 7 7 7 7 0 10 -3 7 -7z m378 -13 c3 -5 -1 -10 -9
-10 -9 0 -16 5 -16 10 0 6 4 10 9 10 6 0 13 -4 16 -10z m479 -11 c-3 -5 -10
-7 -15 -3 -5 3 -7 10 -3 15 3 5 10 7 15 3 5 -3 7 -10 3 -15z m463 15 c-3 -3
-12 -4 -19 -1 -8 3 -5 6 6 6 11 1 17 -2 13 -5z m-905 -66 c-15 -15 -26 -4 -18
18 5 13 9 15 18 6 9 -9 9 -15 0 -24z m408 7 c0 -8 -4 -15 -9 -15 -13 0 -22 16
-14 24 11 11 23 6 23 -9z m-203 -12 c-4 -3 -10 -3 -14 0 -3 4 0 7 7 7 7 0 10
-3 7 -7z m-316 -83 c2 -14 12 -34 22 -44 9 -11 17 -27 17 -35 0 -9 9 -29 20
-46 19 -29 20 -48 20 -398 0 -290 -3 -368 -12 -365 -7 3 -28 29 -45 58 -23 38
-33 48 -33 33 0 -12 -15 -42 -34 -66 -19 -25 -32 -48 -29 -50 3 -3 -3 -4 -14
-2 -10 2 -20 4 -22 4 -2 1 3 9 12 19 15 16 17 67 20 453 1 239 5 442 8 451 3
10 14 26 25 36 19 19 19 19 30 -2 7 -11 14 -32 15 -46z m179 55 c0 -8 -7 -15
-15 -15 -8 0 -15 7 -15 15 0 8 7 15 15 15 8 0 15 -7 15 -15z m280 0 c0 -8 -4
-15 -10 -15 -5 0 -10 7 -10 15 0 8 5 15 10 15 6 0 10 -7 10 -15z m-150 -2 c0
-3 -7 -15 -17 -25 -9 -10 -11 -18 -6 -18 6 0 16 7 23 15 16 19 33 5 24 -19 -3
-9 -15 -21 -25 -26 -15 -8 -22 -5 -35 15 -16 24 -16 27 1 45 18 20 35 26 35
13z m795 -3 c3 -5 2 -10 -4 -10 -5 0 -13 5 -16 10 -3 6 -2 10 4 10 5 0 13 -4
16 -10z m-875 -20 c0 -5 -2 -10 -4 -10 -3 0 -8 5 -11 10 -3 6 -1 10 4 10 6 0
11 -4 11 -10z m180 6 c0 -3 -4 -8 -10 -11 -5 -3 -10 -1 -10 4 0 6 5 11 10 11
6 0 10 -2 10 -4z m261 -16 c10 -6 19 -19 19 -28 0 -10 7 -27 15 -38 22 -29 22
-826 0 -844 -12 -10 -16 -7 -25 16 -21 57 -35 84 -42 84 -5 0 -8 -6 -8 -13 0
-8 -14 -33 -31 -57 -28 -39 -30 -45 -18 -69 23 -45 22 -47 -10 -17 l-31 30 0
373 c0 361 1 373 20 383 16 9 24 6 41 -14 l21 -24 23 26 23 26 -22 27 -21 27
-22 -27 c-29 -35 -40 -20 -15 21 11 18 26 54 32 81 13 49 19 54 51 37z m-1191
-80 c0 -5 -18 -10 -40 -10 -22 0 -40 5 -40 10 0 6 18 10 40 10 22 0 40 -4 40
-10z m-17 -77 c-13 -2 -33 -2 -45 0 -13 2 -3 4 22 4 25 0 35 -2 23 -4z m281
-98 c21 -41 35 -145 20 -145 -21 1 -31 19 -51 90 -11 41 -23 83 -28 93 -16 37
40 1 59 -38z m-264 25 c0 -5 -18 -10 -40 -10 -22 0 -40 5 -40 10 0 6 18 10 40
10 22 0 40 -4 40 -10z m778 -93 c2 -46 0 -57 -13 -57 -12 0 -15 13 -15 61 0
81 24 77 28 -4z m712 -59 c0 -16 -3 -19 -11 -11 -6 6 -8 16 -5 22 11 17 16 13
16 -11z m-1422 -46 l23 -18 -21 -190 c-12 -104 -30 -229 -40 -279 l-18 -90 -1
308 c-1 339 -5 319 57 269z m862 -62 l0 -90 -97 0 -98 1 -38 44 -38 45 37 45
36 45 99 0 99 0 0 -90z m-668 6 c-6 -48 -12 -46 -12 5 0 22 4 38 8 35 4 -3 6
-21 4 -40z m1222 -31 c-13 -21 -10 -55 5 -55 4 0 5 -15 3 -34 l-4 -34 -29 54
-28 54 24 37 c14 19 25 41 26 47 0 6 5 -2 9 -18 6 -20 5 -35 -6 -51z m-504 14
c0 -5 -4 -9 -10 -9 -5 0 -10 7 -10 16 0 8 5 12 10 9 6 -3 10 -10 10 -16z m536
-44 c-3 -9 -11 -13 -16 -10 -8 5 -8 11 -1 19 6 7 9 15 7 18 -1 3 2 2 7 -3 5
-4 7 -15 3 -24z m-708 -203 c2 -97 1 -111 -13 -106 -13 5 -15 -10 -15 -108 0
-95 -3 -115 -15 -115 -13 0 -15 32 -15 228 l0 227 28 -7 27 -7 3 -112z m685
65 c-13 -22 -107 -117 -115 -117 -4 0 -8 8 -8 19 0 22 107 124 121 115 5 -3 6
-11 2 -17z m-617 -107 c2 -46 9 -90 16 -99 10 -13 10 -14 -2 -3 -20 17 -28 15
-33 -10 -2 -13 -5 4 -7 37 -1 33 -4 80 -6 105 -4 55 2 78 17 63 6 -6 13 -48
15 -93z m665 53 c13 -16 12 -17 -3 -4 -10 7 -18 15 -18 17 0 8 8 3 21 -13z
m-644 -45 c-3 -8 -6 -5 -6 6 -1 11 2 17 5 13 3 -3 4 -12 1 -19z m708 12 c3 -5
4 -10 1 -10 -3 0 -8 5 -11 10 -3 6 -4 10 -1 10 3 0 8 -4 11 -10z m-115 -25 c0
-9 -6 -12 -15 -9 -8 4 -12 10 -9 15 8 14 24 10 24 -6z m-593 -32 c-4 -3 -7 0
-7 7 0 7 3 10 7 7 3 -4 3 -10 0 -14z m593 -13 c0 -5 -7 -10 -16 -10 -8 0 -12
5 -9 10 3 6 10 10 16 10 5 0 9 -4 9 -10z m-593 -27 c-4 -3 -7 0 -7 7 0 7 3 10
7 7 3 -4 3 -10 0 -14z m593 -64 c0 -38 -2 -41 -22 -34 -13 3 -36 10 -53 14
-25 6 -27 8 -12 14 10 4 27 2 38 -3 21 -12 28 3 8 16 -8 4 -3 12 12 20 13 7
25 13 27 14 1 0 2 -19 2 -41z m-250 7 c0 -2 -8 -10 -17 -17 -16 -13 -17 -12
-4 4 13 16 21 21 21 13z m-56 -66 c-10 -16 -20 -27 -22 -25 -5 5 26 55 34 55
3 0 -3 -13 -12 -30z m277 5 c21 -12 34 -13 48 -5 11 5 28 10 38 10 10 -1 1 -7
-21 -15 -26 -9 -46 -11 -63 -4 -13 5 -36 9 -49 9 -14 0 -22 4 -19 10 9 14 31
12 66 -5z m279 2 c0 -2 -10 -12 -21 -23 -22 -19 -22 -19 -8 4 12 19 29 30 29
19z m-600 -32 c0 -8 -2 -15 -4 -15 -2 0 -6 7 -10 15 -3 8 -1 15 4 15 6 0 10
-7 10 -15z m-998 -17 c-9 -9 -15 -9 -24 0 -9 9 -7 12 12 12 19 0 21 -3 12 -12z
m755 -95 c-3 -10 -5 -4 -5 12 0 17 2 24 5 18 2 -7 2 -21 0 -30z m-669 16 c-2
-6 -8 -10 -13 -10 -5 0 -11 4 -13 10 -2 6 4 11 13 11 9 0 15 -5 13 -11z"/>
<path d="M1184 1182 l-22 -27 23 -29 22 -28 21 29 21 29 -22 26 -22 27 -21
-27z"/>
<path d="M1186 1015 c-6 -17 2 -45 14 -45 5 0 11 9 15 20 11 33 -16 57 -29 25z"/>
<path d="M1187 813 c-10 -9 -8 -25 3 -43 8 -13 11 -12 24 5 19 26 -5 60 -27
38z"/>
<path d="M1184 596 c-8 -22 3 -49 19 -43 6 2 12 14 12 27 0 27 -22 39 -31 16z"/>
<path d="M1821 1019 c-9 -16 -10 -24 0 -35 11 -13 14 -13 27 0 12 12 13 17 0
34 l-14 21 -13 -20z"/>
<path d="M1822 808 c-7 -9 -6 -19 4 -33 13 -17 16 -18 24 -5 20 31 -5 65 -28
38z"/>
<path d="M1824 596 c-8 -22 3 -49 19 -43 6 2 12 14 12 27 0 27 -22 39 -31 16z"/>
<path d="M962 950 c0 -14 2 -19 5 -12 2 6 2 18 0 25 -3 6 -5 1 -5 -13z"/>
<path d="M1411 866 l-33 -34 26 -35 c32 -41 35 -43 103 -46 89 -4 93 0 93 80
l0 69 -78 0 c-76 0 -79 -1 -111 -34z m159 -36 c0 -5 -18 -10 -40 -10 -22 0
-40 5 -40 10 0 6 18 10 40 10 22 0 40 -4 40 -10z"/>
<path d="M1132 2798 c-19 -19 -14 -36 17 -52 22 -12 35 -32 55 -88 23 -60 33
-76 59 -88 18 -8 34 -23 35 -33 4 -18 3 -18 -22 -2 -30 20 -32 13 -16 -47 l11
-38 47 7 c26 3 53 10 60 16 17 13 15 56 -3 63 -8 4 -15 16 -15 27 l0 21 22
-21 c13 -14 22 -35 22 -57 1 -33 3 -36 32 -36 63 0 82 62 33 111 -20 20 -20
23 -6 58 28 66 30 81 10 81 -10 0 -42 -14 -72 -30 l-55 -30 -21 20 c-15 15
-21 29 -17 46 5 28 -12 46 -35 37 -18 -7 -17 -43 2 -57 10 -8 13 -19 7 -38 -7
-27 -7 -26 -54 33 -27 33 -48 68 -48 78 0 10 -7 22 -16 25 -20 8 -18 8 -32 -6z
m246 -295 c-4 -22 -22 -20 -26 1 -2 10 3 16 13 16 10 0 15 -7 13 -17z"/>
<path d="M990 2725 c0 -19 0 -37 0 -40 0 -14 -55 -65 -82 -76 l-30 -12 30 -13
c37 -15 79 -70 84 -109 4 -40 22 -34 29 10 7 41 41 81 84 100 l30 12 -28 8
c-36 10 -75 58 -89 111 -15 53 -28 57 -28 9z m30 -120 c0 -19 -20 -29 -32 -17
-8 8 -7 16 2 26 14 17 30 12 30 -9z"/>
<path d="M2031 2733 c3 -43 0 -77 -7 -70 -3 3 -17 -7 -30 -22 -13 -16 -36 -32
-51 -36 l-28 -7 34 -16 c43 -21 72 -60 80 -108 8 -47 31 -58 31 -14 0 34 20
79 44 99 9 7 13 18 9 24 -3 5 -1 7 5 4 5 -4 21 -3 34 2 l23 9 -28 7 c-15 4
-38 20 -51 36 -13 15 -27 25 -30 22 -3 -4 -6 7 -6 23 0 40 -10 74 -22 74 -5 0
-8 -12 -7 -27z m28 -139 c-6 -7 -17 -10 -25 -7 -17 6 -18 15 -2 31 17 17 43
-5 27 -24z"/>
<path d="M650 2690 c-7 -17 -24 -39 -37 -47 l-24 -16 22 -15 c22 -15 54 -80
45 -90 -3 -2 -8 3 -12 12 -8 22 -56 46 -90 46 l-26 0 31 -29 c17 -16 31 -33
31 -38 0 -4 -15 -20 -34 -35 -19 -15 -39 -43 -45 -61 -12 -34 -44 -57 -81 -57
-31 0 -24 -15 13 -28 17 -6 56 -39 85 -72 l53 -60 -26 -10 c-14 -6 -40 -10
-58 -10 l-31 0 34 -28 c19 -16 39 -44 46 -63 l12 -34 16 37 c9 20 13 44 10 52
-8 22 6 20 32 -5 l22 -20 15 43 c9 24 16 35 16 25 1 -27 31 -87 43 -87 6 0 8
11 6 24 -3 15 0 27 8 30 9 4 14 -3 14 -18 0 -13 9 -34 20 -47 17 -21 19 -22
20 -5 0 10 16 34 35 53 19 19 35 37 35 39 0 2 -11 4 -24 4 -14 0 -37 5 -51 10
l-27 10 57 65 c36 41 69 68 89 74 27 7 29 9 11 16 -11 4 -32 11 -47 17 -14 5
-32 23 -39 39 -6 17 -27 44 -45 62 -19 17 -34 35 -34 40 0 5 14 22 31 38 l31
29 -27 0 c-33 0 -64 -16 -88 -44 l-19 -21 7 30 c3 17 19 42 35 57 29 26 29 28
10 38 -11 6 -28 27 -38 46 l-19 36 -13 -32z m25 -70 c-5 -8 -11 -8 -17 -2 -6
6 -7 16 -3 22 5 8 11 8 17 2 6 -6 7 -16 3 -22z m-25 -164 c0 -25 -5 -35 -20
-39 -11 -3 -29 -21 -41 -41 -15 -26 -28 -36 -45 -36 -21 0 -24 3 -18 28 11 48
39 86 74 104 47 24 50 23 50 -16z m88 4 c17 -11 32 -21 32 -23 0 -3 -20 0 -45
6 -26 6 -45 16 -45 24 0 18 20 16 58 -7z m-91 -75 c-7 -16 -37 -21 -37 -5 0
10 32 31 39 25 2 -2 1 -11 -2 -20z m103 -19 c0 -12 -5 -7 -19 24 -11 24 -11
24 3 6 9 -11 16 -24 16 -30z m-70 -19 c0 -8 -3 -17 -7 -20 -9 -9 -34 13 -27
24 8 14 34 11 34 -4z m95 -4 c-11 -3 -23 -10 -27 -17 -5 -7 -8 -7 -8 0 0 16
11 24 34 23 20 -1 20 -1 1 -6z m-150 -63 c3 -5 4 -10 1 -10 -3 0 -8 5 -11 10
-3 6 -4 10 -1 10 3 0 8 -4 11 -10z"/>
<path d="M2208 2474 c-5 -4 -8 -16 -8 -26 0 -35 -29 -76 -62 -87 l-32 -11 34
-18 c38 -19 60 -53 60 -94 0 -16 5 -28 10 -28 6 0 10 12 10 28 0 41 22 75 59
94 l33 17 -34 14 c-34 14 -54 45 -60 95 -2 13 -6 20 -10 16z"/>
<path d="M1095 2401 c-4 -13 -21 -29 -38 -36 l-32 -13 27 -11 c15 -5 33 -22
41 -37 l14 -27 7 27 c4 16 17 31 34 37 27 11 27 11 5 19 -12 5 -28 21 -36 36
-14 28 -14 28 -22 5z"/>
<path d="M1946 2396 c-3 -14 -17 -28 -33 -34 l-28 -10 28 -11 c15 -6 33 -23
39 -38 11 -28 12 -28 16 -5 2 13 16 31 32 40 28 16 28 16 6 27 -11 6 -25 20
-31 33 -13 28 -21 28 -29 -2z"/>
<path d="M2123 2149 c-16 -16 -5 -39 17 -39 25 0 35 18 20 35 -15 18 -22 19
-37 4z"/>
<path d="M920 2085 c-6 -8 -9 -19 -5 -25 3 -5 -1 -13 -9 -16 -22 -8 -20 -31 4
-56 46 -50 126 -18 114 45 -7 40 -13 49 -29 43 -8 -3 -19 2 -26 10 -10 12 -13
12 -25 -3 -13 -17 -14 -17 -8 0 7 21 1 22 -16 2z"/>
<path d="M2050 2086 c0 -8 -9 -21 -21 -29 -20 -15 -20 -15 -1 -21 11 -4 23
-17 26 -29 l7 -22 9 23 c5 12 17 25 25 28 14 6 13 9 -5 21 -11 8 -20 21 -20
29 0 8 -4 14 -10 14 -5 0 -10 -6 -10 -14z"/>
<path d="M2300 2063 c0 -28 -36 -71 -63 -76 -20 -3 -19 -5 11 -16 35 -14 52
-37 52 -70 0 -12 5 -21 10 -21 6 0 10 13 10 28 0 32 21 55 60 67 24 7 23 8
-10 19 -26 8 -38 19 -45 43 -13 40 -25 53 -25 26z"/>
<path d="M2322 1108 c2 -6 21 -22 41 -35 l37 -23 0 25 c0 18 -7 28 -26 35 -34
13 -57 13 -52 -2z"/>
<path d="M2385 990 c3 -5 0 -7 -8 -4 -30 11 -25 -14 9 -47 l36 -34 -8 40 c-8
47 -12 55 -25 55 -6 0 -7 -4 -4 -10z"/>
</g>
</svg>
