<?xml version="1.0" standalone="no"?>
<!DOCTYPE svg PUBLIC "-//W3C//DTD SVG 20010904//EN"
 "http://www.w3.org/TR/2001/REC-SVG-20010904/DTD/svg10.dtd">
<svg version="1.0" xmlns="http://www.w3.org/2000/svg"
 width="300.000000pt" height="523.000000pt" viewBox="0 0 300.000000 523.000000"
 preserveAspectRatio="xMidYMid meet">
<metadata>
Created by potrace 1.10, written by Peter Selinger 2001-2011
</metadata>
<g transform="translate(0.000000,523.000000) scale(0.050000,-0.050000)"
fill="#000000" stroke="none">
<path d="M1990 10032 c-390 -124 -542 -376 -518 -863 11 -212 7 -282 -20 -375
-52 -178 -203 -319 -239 -224 -19 48 -112 37 -131 -15 -44 -117 97 -210 282
-188 307 36 558 265 687 626 106 300 304 454 419 327 34 -38 33 -42 -68 -132
-211 -190 -274 -472 -163 -725 41 -92 44 -116 24 -171 -33 -94 -30 -107 38
-143 52 -26 58 -36 37 -61 -56 -68 -99 -74 -155 -22 -204 193 -462 190 -543
-5 -15 -36 -55 -70 -120 -99 -195 -88 -369 -288 -431 -493 -51 -170 -74 -490
-38 -530 27 -30 28 -54 10 -162 -40 -228 -44 -240 -71 -230 -94 36 -230 -72
-230 -181 0 -31 -18 -83 -40 -116 -51 -77 -51 -180 0 -281 33 -63 37 -90 20
-137 -30 -88 -25 -123 30 -188 60 -71 77 -539 23 -613 -32 -44 -113 49 -113
129 0 124 -173 208 -309 152 -207 -87 -140 -432 84 -432 80 0 229 -186 214
-267 -21 -116 3 -165 163 -332 133 -139 145 -159 110 -171 -192 -60 -135 -370
67 -370 77 0 171 71 171 129 0 16 24 46 53 65 l53 35 177 -187 c210 -221 236
-320 119 -453 -127 -145 -198 -476 -132 -616 22 -47 29 -89 20 -118 -12 -36
-27 -482 -48 -1441 -1 -31 -19 -80 -42 -108 -22 -28 -40 -77 -40 -108 0 -48
-22 -72 -145 -155 -233 -158 -306 -263 -245 -356 l31 -47 486 0 c576 0 553 -9
553 214 0 77 -10 170 -23 206 -19 54 -18 70 7 88 61 45 76 101 43 164 -39 74
-20 175 112 603 122 397 141 499 141 776 0 194 5 227 38 257 21 19 44 57 51
83 18 75 29 67 283 -204 l238 -252 25 -173 c14 -94 65 -320 114 -502 110 -409
123 -495 89 -589 -23 -63 -22 -80 10 -139 28 -53 31 -76 14 -108 -35 -66 -28
-355 9 -393 48 -47 1210 -47 1258 0 102 103 -41 260 -377 411 -143 65 -163 81
-174 137 -7 34 -30 81 -50 104 -34 37 -38 88 -45 535 l-7 495 65 92 c52 75 66
114 68 199 2 71 21 145 60 224 103 214 93 575 -21 743 -43 64 -48 92 -48 285
l0 214 85 -130 c98 -152 384 -457 451 -482 66 -25 140 19 263 156 543 606 815
1590 822 2982 3 542 25 488 -248 622 -418 207 -914 256 -1363 136 -109 -30
-207 -54 -216 -54 -56 0 -143 296 -183 623 -38 308 -37 297 -3 297 31 0 56
-93 100 -373 27 -175 110 -404 161 -446 41 -34 271 53 271 102 0 118 -108 223
-218 214 -93 -8 -112 20 -39 61 109 61 236 -31 288 -208 29 -99 32 -103 92
-94 187 28 -98 540 -376 676 -87 43 -115 69 -145 138 -74 168 -302 111 -302
-75 0 -42 -36 -44 -88 -5 -35 27 -33 33 56 132 151 168 341 606 290 670 -47
58 -408 98 -610 68 -157 -24 -368 -91 -368 -116 2 -58 37 -67 152 -43 137 29
437 36 571 13 92 -16 93 -17 77 -75 -24 -83 -122 -279 -110 -219 37 181 36
200 -4 200 -41 0 -108 -229 -100 -338 2 -26 -6 -51 -18 -56 -15 -5 -17 21 -6
88 45 265 46 331 7 323 -28 -5 -44 -44 -71 -163 -34 -157 -74 -245 -51 -114
40 232 41 284 1 277 -30 -6 -44 -39 -67 -152 -36 -181 -60 -191 -34 -14 15 95
14 136 -4 154 -34 34 -64 -5 -77 -103 -16 -118 -37 -118 -29 0 9 129 -57 145
-91 23 -19 -68 -21 -70 -23 -20 -4 79 -66 72 -132 -15 -54 -71 -170 -100 -201
-50 -7 11 10 20 40 20 78 0 157 88 140 156 -32 130 -144 164 -225 69 l-47 -55
14 90 c42 282 203 446 438 446 148 0 370 -137 370 -228 0 -10 41 -18 90 -18
107 0 110 15 28 130 -62 87 -182 182 -283 225 -42 19 -55 38 -55 83 0 33 -14
73 -31 90 -17 17 -44 76 -60 131 -100 335 -499 541 -839 433z m440 -187 c94
-49 192 -148 239 -242 36 -71 23 -120 -14 -53 -60 108 -270 268 -314 240 -10
-6 -24 -2 -31 10 -7 11 -21 20 -31 20 -10 0 -4 -17 14 -38 19 -22 47 -34 65
-27 18 6 25 4 17 -5 -8 -9 1 -29 20 -45 19 -15 24 -22 10 -15 -126 63 -393 40
-487 -42 -17 -16 -37 -23 -43 -16 -11 11 -46 -40 -56 -82 -12 -52 -47 -109
-74 -119 -21 -8 -26 -2 -16 23 7 19 6 28 -3 19 -9 -9 -16 -39 -17 -66 -1 -47
1 -48 26 -14 24 33 26 26 18 -53 -9 -80 -7 -85 14 -40 31 67 131 164 154 149
11 -6 19 -2 19 10 0 11 11 21 25 21 14 -1 -11 -33 -55 -73 -44 -39 -69 -66
-56 -59 14 8 3 -44 -27 -122 -33 -90 -53 -187 -57 -286 -7 -145 -10 -153 -90
-235 -98 -101 -134 -110 -89 -22 55 105 72 303 47 530 -28 244 -11 328 92 470
147 202 476 278 700 162z m361 -466 c19 -31 2 -41 -89 -53 -90 -12 -110 15
-37 50 59 28 109 29 126 3z m-295 -744 c-3 -25 -19 -45 -36 -45 -16 0 -33 20
-36 45 -5 35 3 45 36 45 33 0 41 -10 36 -45z m200 -433 c140 -42 283 -84 319
-91 58 -13 101 -91 49 -91 -110 0 -644 191 -644 230 0 39 -17 42 276 -48z
m-688 -187 c283 -143 491 -560 435 -874 -53 -305 -286 -444 -519 -309 -337
195 -526 262 -669 240 -80 -13 -109 46 -51 104 13 13 22 61 19 106 -16 271
173 498 492 590 14 4 25 21 25 38 0 162 89 196 268 105z m700 -208 l304 -93
115 77 c115 76 115 76 155 36 70 -70 -205 -241 -335 -208 -177 44 -467 143
-467 159 0 8 -21 26 -46 40 -60 32 -115 114 -64 95 19 -7 171 -55 338 -106z
m1083 -51 c77 -52 123 -116 84 -116 -32 0 -175 116 -175 141 0 29 22 23 91
-25z m-445 -151 c5 -8 15 -58 23 -110 l13 -95 -59 0 c-78 0 -163 -98 -163
-187 0 -78 49 -153 100 -153 55 0 63 28 19 66 -71 61 -36 194 50 194 127 0
152 -157 41 -263 -38 -37 -110 -107 -160 -157 l-90 -89 0 119 c0 149 -20 270
-43 270 -9 0 -17 -238 -17 -530 0 -602 20 -550 -187 -501 -144 35 -135 22
-104 141 50 198 -11 423 -160 588 -38 42 -69 88 -69 101 0 36 116 -39 182
-119 32 -38 58 -58 58 -45 0 40 34 29 106 -35 70 -60 94 -60 94 2 0 38 -120
141 -211 181 -125 54 -244 168 -151 143 58 -15 122 29 122 84 0 61 -29 79 -67
40 -40 -40 -53 -38 -53 9 0 67 76 92 137 46 68 -50 78 -130 24 -184 -51 -51
-51 -61 -2 -61 53 0 121 76 121 135 0 126 -103 215 -235 202 l-80 -8 -25 97
c-32 125 -46 123 230 33 l240 -78 140 87 c150 94 163 100 176 77z m518 -229
c-46 -46 -28 -81 37 -72 47 7 59 2 55 -22 -4 -18 -30 -35 -59 -38 -92 -11
-158 131 -82 174 45 25 83 -8 49 -42z m766 -357 c216 -25 389 -77 588 -176
l147 -73 -12 -530 c-31 -1345 -253 -2123 -776 -2719 l-94 -107 -122 128 c-165
172 -440 588 -328 496 31 -26 31 -24 9 18 -13 25 -32 40 -42 34 -10 -6 -28 7
-40 29 -14 26 -14 41 -1 41 11 0 14 14 8 32 -9 23 -17 25 -28 7 -59 -96 -328
759 -378 1201 -12 105 -23 467 -26 805 l-5 615 140 58 c340 141 614 181 960
141z m-1150 -17 c0 -10 -31 -38 -70 -62 -58 -36 -70 -55 -70 -111 0 -51 -7
-65 -29 -57 -34 13 -161 -122 -161 -170 0 -55 42 -35 117 55 l73 87 0 -114 c0
-106 -2 -111 -34 -79 -32 32 -38 29 -109 -54 l-76 -87 0 184 c-1 161 3 183 31
172 20 -7 48 7 75 40 77 93 253 229 253 196z m-2200 -122 c0 -27 13 -40 40
-40 28 0 40 13 40 43 0 40 3 41 35 12 26 -24 44 -27 72 -11 29 16 36 15 29 -5
-5 -15 -38 -36 -73 -48 -78 -26 -63 -51 31 -51 41 0 79 15 100 39 37 43 71 36
53 -11 -8 -20 2 -34 30 -42 131 -34 35 -61 -182 -51 -261 11 -265 13 -236 122
23 86 61 113 61 43z m1275 -45 c161 -174 191 -564 48 -611 -21 -7 -22 0 -5 32
62 116 8 284 -126 394 -65 53 -87 83 -73 97 15 15 28 14 45 -3 13 -13 36 -24
50 -24 37 0 32 61 -7 90 -18 13 -27 34 -19 47 21 33 40 29 87 -22z m-163 -233
c99 -60 148 -195 115 -317 -20 -76 -47 -50 -47 46 0 106 -21 154 -106 244 -69
73 -55 83 38 27z m-815 -82 c24 0 43 9 43 20 0 11 10 20 21 20 12 0 19 -25 15
-55 l-6 -55 -230 -1 c-266 -1 -267 0 -238 55 20 37 35 40 138 29 91 -9 121 -5
142 19 23 29 28 29 49 0 13 -18 43 -32 66 -32z m400 -195 c83 -104 84 -105 60
-198 -18 -71 -18 -101 0 -130 20 -32 14 -50 -36 -113 -96 -120 -204 -344 -199
-413 3 -33 -21 -140 -53 -237 -44 -133 -53 -184 -37 -210 40 -64 -26 -241
-102 -273 -36 -15 -78 -46 -95 -70 -30 -42 -30 -42 -43 26 -7 38 -26 80 -41
93 -21 16 -24 37 -11 69 11 31 8 63 -11 99 -18 36 -22 69 -10 100 10 25 33
124 52 219 25 128 43 175 70 183 74 24 128 233 80 309 -13 21 -2 48 40 95 86
99 110 208 69 331 -31 97 -31 100 9 128 22 16 55 79 73 140 l32 112 35 -78
c19 -42 73 -124 118 -182z m-882 55 c229 -140 183 -462 -84 -588 -131 -63
-131 -63 -131 -11 0 30 25 52 88 80 234 104 269 384 59 472 -38 15 -77 23 -86
17 -24 -14 -47 24 -31 50 20 33 115 23 185 -20z m2114 -8 c28 11 33 4 28 -34
-11 -77 -105 -67 -114 11 -5 50 -2 55 23 35 16 -14 44 -19 63 -12z m-1721
-135 c27 -12 60 -48 73 -80 31 -73 9 -101 -23 -30 -13 29 -50 64 -81 78 -55
24 -77 55 -38 55 11 0 41 -10 69 -23z m-448 -37 c50 -50 50 -81 0 -145 -57
-73 -115 -82 -172 -25 -83 83 -33 210 82 210 28 0 68 -18 90 -40z m1492 -41
c336 -57 528 -100 528 -119 0 -71 -19 -75 -196 -39 -96 20 -282 51 -414 70
-252 35 -283 47 -263 98 15 40 60 39 345 -10z m788 -47 c0 -10 -172 -112 -189
-112 -42 0 2 60 64 85 76 31 125 42 125 27z m-754 -191 c66 -22 118 -31 125
-20 12 21 89 27 89 7 0 -6 -17 -33 -37 -58 l-37 -47 -164 66 c-239 97 -221
137 24 52z m-1161 -142 c69 -57 93 -114 62 -145 -10 -11 -108 54 -195 129 -18
15 19 77 46 77 7 0 46 -28 87 -61z m831 44 c33 -21 11 -78 -38 -94 -53 -17
-48 -69 7 -69 61 1 105 31 105 74 0 48 66 40 206 -24 113 -52 148 -150 59
-166 -29 -6 -32 4 -23 53 21 101 -42 115 -195 43 -152 -72 -204 -75 -246 -15
-27 38 -35 40 -51 15 -32 -50 -23 -73 49 -128 76 -58 131 -67 131 -22 0 17 14
30 30 30 17 0 30 -13 30 -30 0 -16 11 -30 26 -30 14 0 41 -18 59 -40 36 -41
155 -57 155 -20 0 11 -12 20 -27 20 -78 0 -143 153 -75 176 20 7 24 -1 16 -24
-17 -43 52 -112 113 -112 55 0 103 49 121 125 24 102 58 63 43 -50 -24 -189
-26 -192 -126 -207 -187 -28 -536 26 -629 96 -31 24 -31 33 10 128 100 231
178 316 250 271z m994 -23 c7 -11 32 -21 56 -21 l44 -2 -43 -17 c-24 -9 -49
-27 -56 -39 -8 -12 -90 -21 -202 -21 l-189 0 0 60 0 60 189 0 c104 0 194 -9
201 -20z m-2020 -167 c44 -33 -20 -522 -73 -555 -78 -50 -84 -29 -69 246 16
312 47 378 142 309z m-174 -133 c11 -184 -23 -429 -61 -436 -36 -7 -55 420
-22 505 25 67 77 24 83 -69z m275 -168 c-32 -172 -85 -341 -60 -192 6 39 20
124 31 190 23 143 38 196 51 183 6 -5 -4 -87 -22 -181z m655 -92 c-13 -48 49
-80 75 -38 14 23 23 21 46 -11 25 -34 36 -36 81 -16 34 16 52 17 52 4 0 -41
-131 -79 -201 -59 -92 27 -94 13 -4 -26 130 -55 156 -57 210 -14 l52 40 60
-60 c89 -89 283 -68 283 31 0 37 -15 37 -53 -1 -67 -67 -207 -10 -207 84 0 41
34 30 46 -14 15 -60 70 -71 130 -26 117 84 131 79 118 -43 -15 -152 -14 -151
-210 -151 -156 1 -279 20 -509 82 -76 20 -107 87 -49 109 14 6 27 33 30 61 4
59 19 88 43 88 10 0 13 -18 7 -40z m-1447 -69 c29 -34 12 -103 -30 -119 -69
-26 -124 42 -88 109 24 46 84 51 118 10z m741 -302 l0 -51 -185 6 c-175 6
-185 9 -191 51 -7 44 -2 45 185 45 l191 0 0 -51z m667 -19 c14 -36 76 -39 109
-6 33 33 55 3 24 -34 -44 -53 -180 -23 -180 41 0 38 32 37 47 -1z m1152 -276
c1 -193 7 -237 32 -247 47 -18 52 -3 54 171 1 89 10 162 20 162 9 0 12 9 5 20
-7 11 -2 20 11 20 14 0 20 -19 14 -48 -6 -34 -1 -45 17 -38 18 6 24 -4 18 -32
-4 -23 -1 -42 7 -42 8 0 17 -38 20 -85 8 -146 71 -234 97 -135 15 56 75 50
102 -10 l23 -50 -499 0 c-275 0 -500 5 -500 11 0 7 10 30 22 52 l21 41 46 -43
c72 -67 101 -37 130 136 37 214 96 230 99 27 3 -230 100 -256 105 -28 3 94 6
109 12 51 7 -80 45 -122 87 -96 10 6 19 117 19 245 1 149 8 220 19 194 9 -22
18 -146 19 -276z m-827 146 c77 -85 288 -124 288 -53 0 18 -19 23 -60 17 -68
-10 -160 40 -160 86 0 42 26 37 55 -10 14 -22 43 -40 65 -40 22 0 51 18 65 40
52 84 102 51 89 -60 -18 -148 -14 -146 -242 -135 -275 13 -567 112 -540 183 9
22 32 20 131 -14 l120 -41 53 54 c65 65 51 68 136 -27z m1228 50 c13 -16 19
-44 12 -63 -8 -21 4 -49 32 -75 l45 -42 -46 -7 c-59 -8 -56 -12 -79 112 -19
107 -9 129 36 75z m-2405 -123 c120 -74 119 -157 -1 -307 l-40 -50 15 50 c8
28 19 82 24 120 l9 70 -64 -69 c-59 -63 -64 -65 -51 -20 8 27 19 76 25 109
l11 60 -58 -65 c-74 -84 -90 -82 -54 4 43 103 21 126 -54 58 -50 -45 -48 2 2
52 44 44 156 38 236 -12z m661 -51 c56 -56 29 -121 -44 -108 -66 13 -74 6
-365 -297 -295 -308 -337 -341 -361 -279 -8 23 86 129 326 370 334 334 387
371 444 314z m442 -1087 c749 -759 1107 -1142 1154 -1232 l32 -62 -57 41 c-31
22 -88 73 -126 112 -43 45 -74 64 -82 50 -20 -32 -124 40 -110 76 6 15 2 23
-8 16 -28 -16 -1510 1475 -1517 1527 -4 24 4 43 17 43 14 0 20 20 14 50 -16
85 2 68 683 -621z m1332 596 c11 -8 31 -35 45 -60 l25 -45 -590 0 c-324 0
-590 7 -590 16 0 41 56 82 120 90 130 14 970 14 990 -1z m-570 -475 c38 -148
43 -195 24 -214 -41 -41 -28 -134 28 -190 l52 -52 -47 -117 c-58 -147 -37
-155 -274 100 -177 190 -198 220 -172 246 16 16 44 109 61 207 39 223 29 210
165 210 l115 0 48 -190z m752 67 c27 13 54 23 59 23 5 0 9 -53 9 -118 0 -115
-2 -119 -59 -132 -89 -19 -141 18 -141 101 0 64 -8 73 -110 123 -71 35 -110
67 -110 89 0 30 22 25 151 -37 130 -61 158 -68 201 -49z m-1252 76 c0 -35
-189 -122 -221 -102 -17 10 11 34 83 71 124 65 138 68 138 31z m941 -154 c67
-35 50 -81 -21 -56 -33 12 -60 34 -60 49 0 33 28 36 81 7z m67 -235 c74 -33
76 -37 44 -69 -30 -30 -41 -31 -88 -8 -36 18 -96 24 -182 18 -157 -12 -164 30
-11 67 136 32 148 32 237 -8z m-1364 -224 c264 -288 264 -339 -6 -480 -95 -49
-195 -105 -223 -124 -114 -76 -312 215 -273 402 51 250 142 358 322 380 7 1
88 -79 180 -178z m1780 28 c62 -178 40 -387 -64 -612 l-26 -54 -82 55 c-45 31
-124 80 -176 109 -219 126 -237 381 -30 446 24 7 58 28 74 46 173 187 242 189
304 10z m-1837 -751 c-40 -45 -215 -177 -234 -177 -19 0 -175 204 -165 215 5
5 44 -19 87 -54 90 -71 119 -67 255 36 83 63 121 50 57 -20z m1555 26 c27 -21
77 -52 113 -71 64 -33 84 -78 45 -102 -28 -17 -170 88 -210 155 -37 64 -16 71
52 18z m-1772 -383 c18 0 28 -7 23 -15 -5 -8 -23 -150 -41 -315 -18 -165 -43
-335 -56 -378 -22 -70 -20 -80 18 -111 55 -45 166 -225 152 -247 -6 -10 -51
28 -100 84 -80 91 -98 102 -170 102 -75 0 -80 3 -66 45 19 62 22 125 26 582
l4 398 88 -73 c49 -39 103 -72 122 -72z m1804 -12 l4 -98 -27 70 c-36 90 -38
146 -6 135 15 -5 27 -49 29 -107z m-1675 -39 c-11 -66 -33 -194 -49 -286 -15
-92 -33 -173 -41 -180 -7 -7 -8 19 -1 57 6 39 25 169 43 290 18 121 37 227 43
236 22 37 24 -5 5 -117z m1333 36 c23 -16 98 -581 79 -600 -24 -24 -36 20 -83
298 -59 354 -59 344 4 302z m307 -130 c41 25 41 22 41 -314 0 -204 8 -344 20
-351 48 -30 18 -70 -51 -70 -58 0 -91 -19 -178 -101 -59 -56 -112 -94 -118
-84 -12 19 93 183 142 220 32 24 10 340 -48 692 l-13 78 82 -48 c70 -40 89
-43 123 -22z m-1526 -5 c-2 -27 -9 -50 -16 -50 -7 0 -12 -11 -12 -25 3 -59 -6
-95 -22 -95 -18 0 5 165 28 201 19 31 25 22 22 -31z m-327 -976 c89 -105 110
-213 24 -127 -35 35 -193 113 -229 113 -32 0 -25 28 20 76 59 64 84 56 185
-62z m1972 49 l41 -57 -80 -32 c-79 -31 -81 -30 -112 18 -69 105 78 174 151
71z m-2124 -246 c51 -49 56 -67 25 -103 -11 -13 -31 -40 -45 -60 -21 -31 -50
-35 -214 -30 l-189 6 177 115 c206 133 186 127 246 72z m2436 -86 l220 -108
-210 -1 c-218 -2 -364 43 -328 101 8 14 5 18 -8 10 -39 -24 -49 29 -13 68 53
58 98 49 339 -70z"/>
<path d="M1840 7950 c-29 -76 -26 -84 40 -107 290 -101 419 -555 206 -723
-137 -107 -386 -2 -386 164 0 74 47 156 90 156 48 0 53 -37 11 -79 -116 -116
67 -282 220 -200 145 77 127 329 -34 491 -73 73 -77 75 -84 31 -4 -30 -17 -43
-40 -38 -18 4 -29 20 -25 36 27 99 -22 166 -55 76 -45 -123 -45 -154 2 -168
163 -49 235 -125 235 -248 0 -101 -135 -156 -168 -69 -8 22 2 28 43 24 121
-13 67 139 -69 197 -188 79 -410 -6 -489 -190 -51 -118 -53 -114 95 -139 137
-23 370 -129 472 -215 175 -146 407 72 405 381 -1 256 -101 435 -332 592
l-117 80 -20 -52z m-220 -602 c0 -89 -76 -145 -151 -111 -27 12 -49 36 -49 53
0 34 31 40 50 10 20 -32 84 -23 98 13 7 17 3 44 -9 59 -28 33 -7 70 32 55 17
-7 29 -38 29 -79z"/>
<path d="M1613 7767 c-7 -8 -13 -34 -13 -59 0 -60 -40 -83 -53 -31 -16 58 -85
11 -166 -112 -81 -122 -77 -140 14 -67 41 33 118 71 171 85 76 21 98 36 107
76 6 28 15 67 20 86 10 35 -50 51 -80 22z"/>
<path d="M2120 6859 c0 -52 66 -46 76 6 5 24 -6 35 -35 35 -28 0 -41 -13 -41
-41z"/>
<path d="M3321 7251 c-31 -37 -14 -91 29 -91 45 0 61 58 26 93 -26 25 -32 25
-55 -2z"/>
<path d="M2935 7066 c-43 -48 -44 -74 -4 -107 48 -40 79 5 57 82 -18 62 -19
62 -53 25z"/>
<path d="M2804 6763 c-30 -19 105 -199 151 -202 49 -2 24 86 -44 152 -77 75
-72 72 -107 50z"/>
<path d="M2834 6532 c-17 -42 120 -166 150 -136 19 19 9 40 -44 94 -75 77 -91
83 -106 42z"/>
<path d="M4017 6510 c-376 -196 -439 -792 -107 -1006 253 -162 555 -175 714
-30 59 53 47 110 -19 91 -451 -126 -780 449 -474 826 134 163 80 220 -114 119z"/>
<path d="M4981 5748 c-148 -175 -423 -498 -611 -718 -187 -220 -369 -435 -404
-478 l-64 -78 57 -112 c130 -258 437 -700 523 -753 14 -9 19 162 16 529 -3
373 -11 542 -26 542 -14 1 -15 6 -2 15 26 19 31 85 7 85 -11 0 -12 11 -3 25 8
14 16 44 16 68 0 41 418 551 640 780 55 57 102 109 105 116 19 48 27 118 21
201 l-6 97 -269 -319z"/>
<path d="M914 6147 c-20 -20 -17 -83 4 -96 35 -22 84 14 78 56 -6 43 -56 67
-82 40z"/>
<path d="M1751 3195 c-5 -14 -12 -43 -15 -65 -4 -22 -20 -40 -36 -40 -38 0
-52 -70 -17 -92 20 -12 14 -29 -29 -74 -58 -60 -36 -138 22 -80 13 13 30 17
37 9 8 -7 4 -24 -9 -37 -36 -36 -29 -83 16 -111 38 -24 40 -20 41 70 0 111 31
361 50 410 9 25 3 35 -19 35 -19 0 -37 -11 -41 -25z"/>
<path d="M1871 3096 c-27 -91 -45 -456 -23 -456 40 0 283 130 322 172 109 117
-12 312 -158 256 -54 -21 -41 -91 14 -77 57 14 105 -35 84 -86 -12 -31 -16
-30 -32 12 -17 45 -73 50 -63 6 7 -30 -21 -29 -52 2 -20 20 -29 19 -44 -5 -16
-27 -18 -27 -19 0 0 65 43 180 75 198 28 15 29 23 7 50 -47 56 -80 35 -111
-72z"/>
<path d="M3693 3190 c-37 -27 -36 -29 5 -82 23 -29 42 -70 42 -91 0 -21 11
-55 24 -76 75 -119 -82 -211 -189 -111 -60 57 -65 74 -34 131 24 46 79 52 79
9 0 -44 35 -36 50 11 32 100 -89 131 -188 47 -122 -102 -52 -251 152 -328 131
-49 132 -48 171 111 33 131 20 289 -28 367 -31 49 -35 50 -84 12z"/>
<path d="M3635 2926 c-71 -18 -15 -117 59 -102 44 8 60 75 23 98 -15 10 -31
16 -37 15 -5 -1 -26 -6 -45 -11z"/>
<path d="M2813 9027 c-18 -18 -16 -71 4 -103 26 -40 83 -7 74 43 -4 24 -9 50
-10 58 -1 19 -50 20 -68 2z"/>
<path d="M2630 8979 c-8 -12 -5 -32 6 -43 27 -27 90 -4 79 29 -11 33 -68 43
-85 14z"/>
<path d="M2524 8956 c-82 -82 9 -172 116 -115 68 36 68 37 17 38 -39 1 -56 14
-65 51 -14 55 -32 62 -68 26z"/>
</g>
</svg>
