<?xml version="1.0" standalone="no"?>
<!DOCTYPE svg PUBLIC "-//W3C//DTD SVG 20010904//EN"
 "http://www.w3.org/TR/2001/REC-SVG-20010904/DTD/svg10.dtd">
<svg version="1.0" xmlns="http://www.w3.org/2000/svg"
 width="300.000000pt" height="300.000000pt" viewBox="0 0 300.000000 300.000000"
 preserveAspectRatio="xMidYMid meet">
<metadata>
Created by potrace 1.10, written by Peter Selinger 2001-2011
</metadata>
<g transform="translate(0.000000,300.000000) scale(0.100000,-0.100000)"
fill="#000000" stroke="none">
<path d="M596 2670 c-38 -26 -69 -40 -90 -40 -18 0 -37 -5 -44 -12 -9 -9 -12
-127 -12 -468 0 -443 -1 -456 -20 -473 -22 -18 -26 -47 -10 -63 7 -7 -6 -52
-41 -140 l-51 -130 -77 1 c-88 1 -111 -7 -111 -38 0 -31 18 -47 51 -47 21 0
26 -4 22 -18 -2 -10 3 -24 11 -31 9 -8 16 -24 16 -38 0 -67 83 -155 159 -168
109 -18 221 76 221 188 0 9 5 17 11 17 7 0 9 10 7 25 -4 21 -1 25 19 25 17 0
27 -8 34 -28 5 -15 30 -66 53 -113 l44 -85 -110 -152 c-104 -145 -111 -152
-136 -145 -43 13 -180 5 -211 -12 -69 -35 -121 -114 -129 -195 -5 -61 29 -150
73 -188 l33 -30 -74 -7 c-41 -4 -76 -10 -79 -15 -6 -9 67 -16 365 -35 441 -27
494 -27 810 -9 215 13 461 19 835 19 518 2 644 7 614 26 -8 5 -33 9 -55 9
l-41 0 -7 46 c-12 92 -11 97 29 90 25 -5 35 -3 35 6 0 33 -31 371 -40 438 -10
68 -9 76 8 90 11 8 31 35 45 60 l27 46 -21 18 c-11 9 -18 24 -15 32 3 8 1 22
-4 32 -5 9 -14 36 -20 60 -12 47 -50 92 -96 112 -28 12 -31 18 -33 64 -1 45
-7 59 -46 112 -14 19 8 38 34 29 11 -3 32 -28 47 -55 31 -57 66 -76 121 -65
l38 7 -30 12 c-41 18 -51 32 -64 95 -14 67 -34 101 -76 129 -49 34 -94 38
-149 14 l-47 -21 36 -46 c37 -49 46 -98 21 -112 -8 -4 -23 -25 -34 -45 -17
-30 -20 -47 -15 -88 3 -27 10 -50 16 -50 5 0 -9 -20 -32 -46 -36 -38 -41 -50
-36 -74 3 -15 2 -30 -2 -33 -5 -3 -8 -22 -8 -41 1 -29 -1 -34 -12 -24 -11 9
-13 50 -11 198 2 180 3 187 21 182 19 -5 20 -1 13 84 -8 112 -46 318 -56 307
-18 -19 -60 -281 -60 -371 0 -30 2 -32 20 -22 20 11 20 8 20 -180 0 -115 -4
-190 -10 -190 -5 0 -14 -10 -21 -21 -13 -24 4 -99 21 -99 6 0 10 -48 10 -114
0 -113 0 -114 -25 -118 -21 -5 -31 5 -83 91 l-59 96 -6 210 c-5 210 -16 280
-39 257 -7 -7 -16 -81 -22 -179 l-11 -167 -107 179 -108 180 28 6 c15 4 62 12
105 19 l77 13 0 78 c0 77 -1 79 -24 79 -57 0 -56 -5 -56 215 0 125 4 206 10
210 13 8 13 155 0 155 -5 0 -10 30 -12 67 l-3 67 -50 13 c-37 9 -59 10 -82 2
-31 -10 -33 -13 -33 -58 0 -26 -2 -50 -5 -53 -3 -2 -27 0 -55 6 l-49 10 -3 70
-3 70 -49 12 c-41 11 -53 10 -82 -4 -31 -14 -34 -20 -34 -58 0 -24 -5 -46 -10
-49 -6 -4 -10 39 -10 121 0 100 -3 125 -12 116 -7 -7 -20 -12 -30 -12 -11 0
-27 -13 -36 -30 -9 -16 -24 -31 -32 -34 -11 -3 -11 -4 3 -5 9 0 17 -6 17 -12
0 -6 11 -8 28 -5 45 10 53 -3 50 -80 l-3 -69 -45 -16 c-35 -13 -47 -14 -55 -4
-19 23 -89 34 -119 18 l-26 -14 0 61 c0 33 -4 60 -10 60 -5 0 -10 -6 -10 -14
0 -7 -13 -19 -29 -26 -17 -7 -31 -21 -33 -35 -5 -21 -2 -23 29 -18 l33 6 0
-45 c0 -33 -4 -45 -15 -45 -8 0 -128 114 -266 254 -138 139 -258 253 -267 253
-9 0 -43 -18 -76 -40z m64 -13 c-13 -7 -27 -23 -31 -37 -6 -23 -7 -23 -8 -3
-1 25 23 53 47 53 12 0 9 -4 -8 -13z m48 -22 c-3 -3 -9 2 -12 12 -6 14 -5 15
5 6 7 -7 10 -15 7 -18z m-148 -9 c0 -2 -8 -10 -17 -17 -16 -13 -17 -12 -4 4
13 16 21 21 21 13z m533 -361 c261 -269 252 -264 -62 40 -91 89 -191 184 -221
212 -30 28 -61 66 -67 84 -13 33 -12 32 38 -16 28 -28 168 -171 312 -320z
m-368 334 c11 -17 -1 -21 -15 -4 -8 9 -8 15 -2 15 6 0 14 -5 17 -11z m-198
-26 c-4 -3 -7 0 -7 7 0 7 3 10 7 7 3 -4 3 -10 0 -14z m118 7 c3 -5 4 -10 1
-10 -3 0 -8 5 -11 10 -3 6 -4 10 -1 10 3 0 8 -4 11 -10z m74 -36 c-14 -13 -17
-13 -30 3 -13 16 -12 17 3 4 15 -11 19 -11 24 3 4 9 9 14 12 11 3 -3 -1 -12
-9 -21z m175 -125 c5 -5 -2 -5 -16 -1 -35 9 -88 52 -88 69 0 8 -5 11 -12 7 -7
-4 -8 -3 -4 5 4 6 2 20 -5 29 -8 9 16 -10 51 -42 36 -33 69 -63 74 -67z m-383
-74 c11 -38 36 -104 54 -145 29 -63 41 -114 75 -321 45 -279 46 -290 24 -355
-16 -48 -20 -128 -9 -165 6 -18 3 -20 -36 -17 l-44 3 -46 125 c-33 88 -44 130
-38 142 13 25 11 54 -6 68 -13 11 -15 69 -14 424 1 287 4 396 11 361 5 -27 18
-81 29 -120z m335 64 c17 -28 -7 -13 -47 28 l-44 47 42 -33 c24 -18 45 -37 49
-42z m-91 -119 l156 -155 -35 -32 c-44 -41 -93 -51 -150 -29 -67 26 -103 71
-119 146 -12 62 -32 89 -39 53 -3 -15 -24 49 -54 157 -3 12 5 15 41 15 44 0
46 -2 200 -155z m25 95 c30 -30 52 -55 49 -55 -2 0 -29 25 -59 55 -30 30 -52
55 -49 55 2 0 29 -25 59 -55z m10 30 c0 4 15 -4 33 -18 36 -28 73 -39 70 -21
-7 36 55 -12 225 -176 106 -102 192 -189 192 -194 0 -5 -10 -1 -22 10 l-21 19
18 -30 c17 -27 17 -28 1 -14 -9 9 -18 23 -20 32 -3 23 -20 41 -125 129 -53 44
-73 58 -46 32 28 -27 75 -70 104 -95 38 -32 51 -48 42 -53 -8 -5 -54 34 -136
117 -67 68 -122 119 -121 113 1 -6 55 -65 119 -130 86 -85 123 -116 135 -111
9 3 13 3 9 -1 -4 -4 12 -28 35 -53 24 -25 36 -40 29 -33 -19 15 -35 16 -25 0
5 -7 2 -9 -8 -5 -29 10 -29 -6 -1 -37 34 -37 4 -16 -52 36 -23 22 -34 38 -25
38 8 0 -7 22 -35 52 l-50 53 48 -45 c26 -24 47 -40 47 -35 0 5 13 -4 30 -20
16 -16 32 -26 35 -23 3 3 -10 18 -30 34 -70 56 -336 307 -356 336 -12 16 -27
27 -34 24 -7 -2 -34 19 -61 47 -27 28 -39 43 -26 33 12 -11 22 -16 22 -11z
m873 -42 c4 -2 6 -160 5 -351 -1 -194 -4 -305 -8 -252 l-6 95 -4 -67 c-4 -57
-7 -66 -20 -58 -13 8 -16 55 -19 296 -2 220 0 285 9 279 8 -5 10 -25 5 -66 -4
-36 -3 -59 3 -59 5 0 14 -15 20 -32 8 -27 10 -16 9 67 0 76 -2 89 -7 55 l-7
-45 -1 38 c-1 21 2 46 7 56 12 22 -1 44 -25 39 -18 -3 -19 -21 -24 -348 l-5
-345 -3 358 -2 359 33 -7 c17 -4 35 -9 40 -12z m-23 -23 c0 -5 -2 -10 -4 -10
-3 0 -8 5 -11 10 -3 6 -1 10 4 10 6 0 11 -4 11 -10z m303 -37 c4 -2 6 -160 5
-351 l-2 -347 -6 337 c-5 345 -8 369 -44 355 -14 -6 -16 -50 -19 -344 l-2
-338 -3 353 -2 354 33 -7 c17 -4 35 -9 40 -12z m-875 -208 c-6 -7 -191 179
-197 198 -2 7 43 -34 100 -90 57 -56 100 -105 97 -108z m849 188 c-4 -3 -10
-3 -14 0 -3 4 0 7 7 7 7 0 10 -3 7 -7z m-567 -38 c34 -13 34 -14 8 -14 -16 -1
-28 -7 -28 -13 0 -10 -3 -9 -9 1 -7 11 -9 11 -14 0 -3 -8 -6 -2 -6 14 -1 30 0
31 49 12z m177 8 c-4 -3 -10 -3 -14 0 -3 4 0 7 7 7 7 0 10 -3 7 -7z m-34 -23
c-3 -12 -8 -19 -11 -16 -5 6 5 36 12 36 2 0 2 -9 -1 -20z m437 -24 c0 -22 -3
-36 -7 -33 -3 4 -12 2 -20 -4 -10 -9 -13 -3 -13 34 0 40 3 46 20 44 16 -1 20
-8 20 -41z m-505 14 c-3 -5 -14 -10 -23 -11 -14 0 -14 -2 2 -8 16 -6 10 -10
-30 -20 -48 -13 -129 -22 -121 -15 3 3 159 59 175 63 2 1 0 -3 -3 -9z m349
-20 c31 -6 56 -14 53 -16 -2 -2 -27 1 -56 7 -28 6 -58 8 -66 5 -9 -3 -15 1
-15 10 0 9 6 14 13 11 7 -2 39 -10 71 -17z m41 -35 l40 -12 -61 2 c-34 2 -72
6 -85 10 -23 8 -23 8 -4 16 21 7 42 4 110 -16z m-321 -21 c3 -8 2 -12 -4 -9
-6 3 -10 10 -10 16 0 14 7 11 14 -7z m281 -13 c39 -11 63 -19 55 -20 -20 0
-130 26 -138 33 -9 10 9 7 83 -13z m62 2 c-4 -3 -10 -3 -14 0 -3 4 0 7 7 7 7
0 10 -3 7 -7z m-460 -10 c-4 -3 -10 -3 -14 0 -3 4 0 7 7 7 7 0 10 -3 7 -7z
m544 -63 c-6 -28 -10 -115 -9 -193 l2 -142 6 110 6 110 2 -131 c2 -124 1 -132
-18 -137 -19 -5 -20 0 -20 173 0 192 8 288 21 255 7 -18 8 -17 9 5 1 14 4 19
7 13 2 -7 0 -36 -6 -63z m-574 54 c-3 -3 -12 -4 -19 -1 -8 3 -5 6 6 6 11 1 17
-2 13 -5z m-355 -61 l48 -47 0 -202 0 -202 -35 -6 -35 -7 0 -63 c0 -66 6 -76
50 -76 11 0 19 -9 22 -25 4 -20 -17 -58 -96 -174 -55 -81 -110 -160 -122 -175
l-20 -28 -32 60 c-18 33 -39 78 -46 99 -13 36 -12 40 5 51 39 25 13 86 -32 75
-27 -7 -37 95 -15 156 24 68 20 145 -19 377 -19 114 -35 212 -35 216 0 5 18
-4 40 -18 72 -48 180 -43 230 11 13 14 28 25 34 25 6 0 32 -21 58 -47z m755
40 c-4 -3 -10 -3 -14 0 -3 4 0 7 7 7 7 0 10 -3 7 -7z m-286 -123 c5 51 5 49 7
-25 1 -45 -2 -85 -8 -91 -5 -5 -11 -50 -13 -99 -1 -50 -3 7 -3 125 0 138 2
183 6 125 5 -86 6 -87 11 -35z m336 113 c-4 -3 -10 -3 -14 0 -3 4 0 7 7 7 7 0
10 -3 7 -7z m-278 -195 c-1 -133 -4 -168 -9 -129 -5 30 -7 66 -6 80 2 14 -3
32 -11 40 -10 9 -13 25 -9 44 3 16 7 48 8 71 1 23 4 6 8 -39 l6 -80 2 98 c1
53 4 97 7 97 3 0 4 -82 4 -182z m274 165 c13 -8 7 -137 -7 -156 -12 -16 -17
-13 -55 36 -33 44 -41 62 -41 97 l0 42 48 -7 c26 -4 50 -9 55 -12z m-426 -10
c-4 -3 -10 -3 -14 0 -3 4 0 7 7 7 7 0 10 -3 7 -7z m376 -151 c7 -9 5 -11 -8
-6 -14 6 -16 4 -10 -6 5 -9 4 -11 -4 -6 -6 4 -9 12 -5 17 3 5 0 8 -8 7 -8 -2
-14 9 -16 32 l-4 35 23 -30 c12 -17 27 -36 32 -43z m-256 -49 c-4 -3 -7 0 -7
7 0 7 3 10 7 7 3 -4 3 -10 0 -14z m228 7 c3 -5 4 -10 1 -10 -3 0 -8 5 -11 10
-3 6 -4 10 -1 10 3 0 8 -4 11 -10z m-368 -7 c-4 -3 -10 -3 -14 0 -3 4 0 7 7 7
7 0 10 -3 7 -7z m-40 -10 c-4 -3 -10 -3 -14 0 -3 4 0 7 7 7 7 0 10 -3 7 -7z
m-48 -29 c10 -9 -35 -3 -49 6 -11 8 -7 9 15 4 17 -4 32 -8 34 -10z m38 10 c-3
-3 -12 -4 -19 -1 -8 3 -5 6 6 6 11 1 17 -2 13 -5z m170 -56 c-2 -13 -4 -3 -4
22 0 25 2 35 4 23 2 -13 2 -33 0 -45z m-120 35 c-4 -3 -10 -3 -14 0 -3 4 0 7
7 7 7 0 10 -3 7 -7z m-40 -9 c-3 -3 -12 -4 -19 -1 -8 3 -5 6 6 6 11 1 17 -2
13 -5z m180 -46 c-2 -13 -4 -5 -4 17 -1 22 1 32 4 23 2 -10 2 -28 0 -40z
m-224 35 c-7 -2 -19 -2 -25 0 -7 3 -2 5 12 5 14 0 19 -2 13 -5z m1054 -10 c-4
-3 -7 0 -7 7 0 7 3 10 7 7 3 -4 3 -10 0 -14z m-1100 1 c-3 -3 -12 -4 -19 -1
-8 3 -5 6 6 6 11 1 17 -2 13 -5z m-50 -11 c-4 -3 -10 -3 -14 0 -3 4 0 7 7 7 7
0 10 -3 7 -7z m1140 -45 c-3 -7 -5 -2 -5 12 0 14 2 19 5 13 2 -7 2 -19 0 -25z
m-1220 -70 c-2 -18 -4 -6 -4 27 0 33 2 48 4 33 2 -15 2 -42 0 -60z m706 62 c4
0 7 -13 7 -30 0 -41 -27 -39 -62 4 -16 19 -28 37 -28 39 0 3 17 1 38 -4 20 -5
40 -9 45 -9z m504 -57 c-3 -10 -5 -2 -5 17 0 19 2 27 5 18 2 -10 2 -26 0 -35z
m-592 27 c3 -5 4 -10 1 -10 -3 0 -8 5 -11 10 -3 6 -4 10 -1 10 3 0 8 -4 11
-10z m-1217 -35 c-3 -3 -9 2 -12 12 -6 14 -5 15 5 6 7 -7 10 -15 7 -18z m2022
10 c0 -8 -2 -15 -4 -15 -2 0 -6 7 -10 15 -3 8 -1 15 4 15 6 0 10 -7 10 -15z
m33 -5 c-3 -11 -7 -20 -9 -20 -2 0 -4 9 -4 20 0 11 4 20 9 20 5 0 7 -9 4 -20z
m-1053 0 c18 -7 11 -8 -25 -5 l-50 5 50 -15 50 -14 -49 4 c-54 6 -56 -3 -4
-15 33 -8 33 -8 -9 -9 -41 -1 -43 0 -43 29 0 26 3 30 28 29 15 -1 38 -5 52 -9z
m100 -10 c-6 -11 -13 -20 -16 -20 -2 0 0 9 6 20 6 11 13 20 16 20 2 0 0 -9 -6
-20z m890 -14 c0 -5 -7 -3 -15 4 -8 7 -12 17 -9 22 7 10 24 -9 24 -26z m100
30 c0 -3 -5 -8 -12 -12 -7 -4 -8 -3 -4 4 7 12 16 16 16 8z m-1260 -16 c-8 -5
-26 -9 -40 -9 -23 1 -23 2 5 9 43 11 52 11 35 0z m349 -6 c29 -21 79 -99 456
-720 l18 -29 -27 30 c-14 17 -35 46 -46 65 -10 19 -35 57 -54 85 -19 27 -32
53 -29 57 2 5 0 8 -5 8 -5 0 -22 24 -37 53 -16 28 -33 55 -39 59 -6 4 -7 8 -3
8 4 0 3 6 -3 13 -12 14 -105 162 -174 279 -53 89 -80 104 -124 71 -34 -25
-262 -387 -233 -369 19 12 12 -4 -18 -42 -16 -20 -75 -111 -131 -202 -56 -91
-106 -169 -112 -175 -6 -5 0 8 13 30 45 76 128 210 176 285 26 41 48 84 49 95
0 11 20 49 43 85 23 36 70 111 103 168 34 56 65 102 70 102 5 0 6 5 2 12 -4 6
-3 8 3 5 6 -4 21 5 33 18 28 29 38 31 69 9z m261 6 c0 -5 -8 -10 -17 -10 -15
0 -16 2 -3 10 19 12 20 12 20 0z m-173 -6 c-3 -3 -12 -4 -19 -1 -8 3 -5 6 6 6
11 1 17 -2 13 -5z m-532 -14 c-16 -4 -41 -8 -55 -8 -22 0 -22 1 5 8 17 4 41 8
55 8 22 0 22 -1 -5 -8z m598 3 c-7 -2 -21 -2 -30 0 -10 3 -4 5 12 5 17 0 24
-2 18 -5z m-5 -19 c46 -6 52 -9 39 -21 -11 -12 -26 -12 -73 -5 -32 5 -48 10
-34 12 25 2 25 2 -5 16 -27 13 -27 14 -5 10 14 -3 49 -8 78 -12z m75 9 c-7 -2
-21 -2 -30 0 -10 3 -4 5 12 5 17 0 24 -2 18 -5z m-760 -10 c-7 -2 -19 -2 -25
0 -7 3 -2 5 12 5 14 0 19 -2 13 -5z m97 -9 c-36 -17 -148 -28 -133 -14 9 9
102 27 143 28 22 1 21 -1 -10 -14z m496 -89 c95 -142 116 -183 102 -191 -7 -4
-10 -4 -6 1 4 4 -4 21 -17 37 -14 16 -25 38 -25 48 0 11 -8 24 -19 29 -15 8
-18 7 -17 -8 0 -9 9 -26 19 -35 10 -10 29 -40 42 -66 14 -27 30 -52 36 -56 7
-4 9 -3 6 3 -3 5 0 10 7 10 8 0 12 -6 9 -13 -2 -6 1 -15 8 -20 8 -5 10 -3 4 6
-5 8 -4 11 3 6 6 -4 9 -12 7 -19 -5 -13 27 -68 41 -70 11 -1 106 -158 100
-165 -3 -2 -12 10 -21 28 -9 18 -19 29 -22 27 -8 -8 37 -68 47 -62 4 3 27 -28
51 -68 23 -39 49 -83 58 -96 31 -48 -22 -5 -59 48 -36 51 -78 85 -48 39 59
-90 88 -138 83 -138 -2 0 -21 25 -41 55 -37 56 -46 65 -40 43 1 -7 1 -10 -1
-5 -3 4 -9 5 -14 2 -5 -4 -6 0 -3 8 3 8 0 18 -7 23 -8 4 -10 3 -5 -4 4 -7 5
-12 3 -12 -3 0 -18 21 -33 48 -15 26 -34 58 -42 72 l-14 25 22 -25 c16 -18 20
-20 16 -7 -4 11 -2 16 5 12 6 -4 8 -14 4 -23 -3 -9 -3 -13 1 -9 4 4 16 -5 26
-20 32 -49 19 -14 -20 55 -60 104 -84 142 -88 142 -3 0 0 -9 6 -21 7 -11 9
-27 6 -35 -3 -8 -2 -12 3 -9 5 3 13 0 17 -6 5 -8 3 -9 -6 -4 -10 6 -12 4 -6
-11 13 -34 -9 -2 -87 127 -77 126 -87 146 -65 133 7 -4 8 -3 4 5 -4 6 -11 9
-16 6 -14 -9 -22 15 -10 30 9 11 6 21 -14 48 -28 36 -33 53 -14 41 7 -4 2 9
-10 30 -24 41 -27 50 -12 41 6 -4 7 1 3 11 -4 11 -8 13 -11 6 -2 -7 -8 -10
-13 -6 -5 3 -9 1 -9 -5 0 -5 5 -13 10 -16 6 -3 10 -11 10 -17 0 -7 -6 -6 -15
2 -24 20 -17 3 21 -50 20 -27 34 -55 32 -61 -2 -6 -30 28 -62 76 -32 49 -55
93 -52 102 8 20 28 5 21 -16 -3 -10 1 -24 10 -31 18 -15 20 1 3 19 -11 10 -9
12 7 9 16 -2 20 2 20 24 -1 33 -4 36 71 -77z m227 98 c-7 -2 -21 -2 -30 0 -10
3 -4 5 12 5 17 0 24 -2 18 -5z m334 -30 c-3 -10 -5 -4 -5 12 0 17 2 24 5 18 2
-7 2 -21 0 -30z m-1210 20 c-4 -3 -10 -3 -14 0 -3 4 0 7 7 7 7 0 10 -3 7 -7z
m926 0 c-7 -2 -19 -2 -25 0 -7 3 -2 5 12 5 14 0 19 -2 13 -5z m-543 -13 c22
-7 21 -8 -12 -9 -21 -1 -38 4 -38 9 0 11 14 11 50 0z m505 0 c17 -4 24 -8 18
-9 -7 0 -13 -8 -13 -16 0 -9 -9 -15 -25 -15 -18 0 -25 5 -25 20 0 11 -5 20
-11 20 -5 0 -7 -4 -4 -10 3 -6 -1 -7 -10 -3 -13 5 -14 7 -3 14 15 10 31 10 73
-1z m74 -42 c-1 -55 -5 -50 -11 15 -2 20 0 37 4 37 4 0 7 -24 7 -52z m-752 36
c-3 -3 -12 -4 -19 -1 -8 3 -5 6 6 6 11 1 17 -2 13 -5z m-270 -21 c-4 -3 -7 0
-7 7 0 7 3 10 7 7 3 -4 3 -10 0 -14z m216 10 c-7 -2 -19 -2 -25 0 -7 3 -2 5
12 5 14 0 19 -2 13 -5z m-50 -10 c-7 -2 -19 -2 -25 0 -7 3 -2 5 12 5 14 0 19
-2 13 -5z m655 0 c-10 -2 -26 -2 -35 0 -10 3 -2 5 17 5 19 0 27 -2 18 -5z
m-711 -9 c-3 -3 -12 -4 -19 -1 -8 3 -5 6 6 6 11 1 17 -2 13 -5z m336 -1 c-7
-2 -19 -2 -25 0 -7 3 -2 5 12 5 14 0 19 -2 13 -5z m-396 -9 c-3 -3 -12 -4 -19
-1 -8 3 -5 6 6 6 11 1 17 -2 13 -5z m783 -4 c11 -7 8 -10 -15 -9 -16 0 -39 4
-50 9 -16 7 -14 9 15 9 19 0 42 -4 50 -9z m-1315 -171 c5 -16 1 -19 -28 -19
-20 0 -37 4 -39 10 -1 5 -1 49 0 97 l4 88 28 -78 c16 -43 32 -87 35 -98z
m1455 151 c24 -8 24 -8 -5 -8 -16 0 -50 3 -75 7 l-45 8 50 1 c28 0 61 -4 75
-8z m-193 -7 c-4 -3 -10 -3 -14 0 -3 4 0 7 7 7 7 0 10 -3 7 -7z m503 3 c0 -3
-5 -8 -12 -12 -7 -4 -8 -3 -4 4 7 12 16 16 16 8z m-1885 -91 c-6 -71 -8 -75
-31 -75 -13 0 -24 3 -24 8 0 13 54 151 58 147 3 -2 1 -38 -3 -80z m1105 30
c-16 -24 -30 -45 -30 -48 0 -6 43 -1 62 8 10 4 15 12 11 18 -4 6 -1 7 7 2 9
-6 12 -4 8 7 -4 9 0 15 8 15 12 0 11 -4 -2 -24 -8 -13 -54 -90 -101 -171 -89
-152 -110 -184 -99 -145 4 12 2 24 -4 28 -6 3 -8 10 -5 15 3 4 -5 6 -17 2 -25
-6 -25 -7 45 95 35 51 55 70 67 68 10 -2 21 3 24 11 4 9 2 12 -5 8 -8 -4 -8 0
0 15 7 11 17 20 23 18 6 -1 12 3 15 9 2 6 -3 11 -12 11 -8 0 -15 -3 -15 -6 0
-3 -10 -17 -21 -31 -11 -14 -18 -18 -14 -10 7 17 -28 -19 -63 -65 -31 -40 -20
-20 62 113 38 61 73 109 77 106 5 -3 -4 -25 -21 -49z m170 34 c0 -6 -4 -7 -10
-4 -5 3 -10 11 -10 16 0 6 5 7 10 4 6 -3 10 -11 10 -16z m193 14 c-7 -2 -21
-2 -30 0 -10 3 -4 5 12 5 17 0 24 -2 18 -5z m65 -10 c-10 -2 -26 -2 -35 0 -10
3 -2 5 17 5 19 0 27 -2 18 -5z m562 -4 c0 -6 -9 -13 -20 -16 -11 -3 -20 -10
-20 -16 0 -6 -3 -7 -7 -4 -7 8 25 47 39 47 4 0 8 -5 8 -11z m-497 -6 c-7 -2
-21 -2 -30 0 -10 3 -4 5 12 5 17 0 24 -2 18 -5z m-478 -53 c3 -5 4 -10 1 -10
-3 0 -8 5 -11 10 -3 6 -4 10 -1 10 3 0 8 -4 11 -10z m-127 -32 c-8 -13 -25
-41 -38 -63 -13 -22 -33 -51 -45 -65 -19 -21 -50 -70 -123 -190 -34 -55 9 0
67 88 35 50 65 92 67 92 2 0 -17 -33 -42 -72 -25 -40 -97 -160 -161 -265 -64
-106 -120 -193 -124 -193 -4 0 12 32 37 72 24 40 44 75 44 79 0 12 -34 3 -38
-11 -3 -8 0 -10 9 -5 8 5 10 4 6 0 -4 -5 -13 -10 -21 -11 -10 -1 -11 5 -2 30
19 54 98 176 109 169 5 -3 7 -1 3 5 -9 14 94 183 107 175 6 -3 7 -1 3 5 -4 6
7 33 23 59 21 34 37 48 52 48 12 0 24 7 26 15 4 13 3 13 -7 0 -10 -13 -11 -13
-7 0 2 8 9 15 15 15 6 0 19 10 27 23 9 12 19 22 22 22 3 0 -1 -10 -9 -22z
m1052 18 c0 -3 -4 -8 -10 -11 -5 -3 -10 -1 -10 4 0 6 5 11 10 11 6 0 10 -2 10
-4z m-2023 -48 c-3 -8 -6 -5 -6 6 -1 11 2 17 5 13 3 -3 4 -12 1 -19z m2020
-25 c-4 -3 -10 -3 -14 0 -3 4 0 7 7 7 7 0 10 -3 7 -7z m-2229 -10 c-10 -2 -28
-2 -40 0 -13 2 -5 4 17 4 22 1 32 -1 23 -4z m172 -9 c0 -10 -13 -14 -50 -14
-35 0 -50 4 -50 13 0 9 16 14 50 15 37 1 50 -3 50 -14z m32 -18 c2 -19 0 -32
-4 -30 -8 5 -12 64 -4 64 2 0 6 -15 8 -34z m201 27 c-35 -2 -91 -2 -125 0 -35
2 -7 3 62 3 69 0 97 -1 63 -3z m97 -3 c0 -5 -2 -10 -4 -10 -3 0 -8 5 -11 10
-3 6 -1 10 4 10 6 0 11 -4 11 -10z m-102 -17 c-32 -2 -86 -2 -120 0 -35 2 -9
3 57 3 66 0 94 -1 63 -3z m1226 -1 c3 -5 -1 -9 -9 -9 -8 0 -12 4 -9 9 3 4 7 8
9 8 2 0 6 -4 9 -8z m-862 -113 c-32 -52 -62 -100 -67 -108 -5 -9 -4 -12 3 -7
6 3 28 34 48 69 49 80 74 113 74 96 0 -35 -113 -194 -130 -184 -4 3 -13 -2
-20 -10 -7 -8 -17 -15 -22 -15 -5 0 6 21 24 48 19 26 59 86 89 135 29 48 55
83 57 78 1 -4 -23 -51 -56 -102z m1122 35 c4 -53 3 -73 -7 -77 -9 -3 -11 15
-9 75 2 44 5 78 6 76 2 -1 6 -35 10 -74z m381 46 c-3 -5 -12 -10 -18 -10 -7 0
-6 4 3 10 19 12 23 12 15 0z m-2152 -17 c-7 -2 -21 -2 -30 0 -10 3 -4 5 12 5
17 0 24 -2 18 -5z m1254 -355 c-1 -68 -3 -13 -3 122 0 135 2 190 3 123 2 -68
2 -178 0 -245z m1057 354 c2 -4 -8 -15 -24 -24 l-29 -16 11 24 c11 23 32 32
42 16z m-2341 -29 c-7 -2 -21 -2 -30 0 -10 3 -4 5 12 5 17 0 24 -2 18 -5z
m244 0 c-20 -2 -52 -2 -70 0 -17 2 0 4 38 4 39 0 53 -2 32 -4z m992 -149 c6
-111 5 -154 -5 -172 -10 -20 -13 -1 -16 125 -3 146 0 209 9 199 3 -2 8 -71 12
-152z m361 136 c6 -11 8 -20 6 -20 -3 0 -10 9 -16 20 -6 11 -8 20 -6 20 3 0
10 -9 16 -20z m582 -13 c-24 -25 -31 -63 -9 -51 9 6 9 4 1 -7 -6 -8 -16 -27
-21 -44 -9 -27 -10 -24 -8 25 1 30 -2 65 -6 78 -8 20 -7 21 10 12 14 -7 22 -6
31 5 7 9 15 13 18 10 3 -3 -4 -15 -16 -28z m168 3 c-8 -5 -19 -10 -25 -10 -5
0 -3 5 5 10 8 5 20 10 25 10 6 0 3 -5 -5 -10z m-2075 -11 c5 -7 -15 -8 -66 -3
-41 3 -76 8 -78 10 -2 2 28 4 67 4 39 0 74 -5 77 -11z m326 -72 c-28 -41 -58
-74 -66 -74 -8 0 -12 4 -9 9 3 5 10 6 15 2 6 -3 9 2 7 12 -2 10 3 19 9 19 7 0
29 24 48 53 20 28 38 52 41 52 3 0 -18 -33 -45 -73z m571 -214 c-9 -104 -9
-101 -9 92 0 182 1 192 9 108 6 -56 6 -134 0 -200z m-462 221 c-26 -47 -29
-58 -18 -72 12 -15 11 -16 -4 -3 -15 11 -19 11 -23 -1 -3 -7 -15 -14 -26 -15
-19 -2 -19 -1 -2 21 10 13 36 46 58 75 21 28 41 51 43 51 2 0 -10 -25 -28 -56z
m1669 52 c-2 -1 -17 -10 -32 -20 -27 -16 -27 -16 -16 1 6 11 20 20 31 20 11 1
19 1 17 -1z m-2109 -16 c0 -6 -10 -14 -22 -19 -25 -9 -70 -2 -63 9 3 5 -7 11
-22 13 -16 2 2 5 40 6 40 0 67 -3 67 -9z m928 -142 l-2 -143 -6 125 c-5 117
-3 160 6 160 2 0 3 -64 2 -142z m69 -85 c-1 -43 -3 -8 -3 77 0 85 2 120 3 78
2 -43 2 -113 0 -155z m-1123 182 l17 -30 -20 24 c-12 13 -21 28 -21 34 0 12 0
11 24 -28z m2056 15 c-6 -11 -13 -20 -16 -20 -2 0 0 9 6 20 6 11 13 20 16 20
2 0 0 -9 -6 -20z m-394 -5 c-1 -8 -5 -17 -8 -21 -5 -4 -4 16 1 34 3 9 9 -1 7
-13z m583 11 c-2 -2 -14 -9 -26 -15 -19 -10 -22 -9 -17 4 4 8 15 15 27 15 11
0 18 -2 16 -4z m-1645 -202 l-37 -58 -28 32 -29 32 63 94 62 94 3 -68 c3 -64
0 -72 -34 -126z m299 129 c6 -34 -31 -99 -47 -83 -8 8 -7 14 5 23 9 7 14 19
12 27 -4 12 -3 12 5 2 7 -11 10 -11 15 3 4 9 3 13 -3 10 -6 -3 -10 -1 -10 6 0
7 -16 -14 -36 -47 -64 -106 -76 -103 -14 4 67 116 45 93 -42 -44 -74 -116
-133 -200 -161 -229 -16 -17 0 11 121 203 107 170 116 181 133 167 9 -9 19
-28 22 -42z m-815 31 c-9 -10 -24 -14 -33 -10 -23 9 -9 26 23 26 24 0 25 -1
10 -16z m17 -14 c-16 -16 -36 -30 -44 -29 -11 0 -10 3 4 8 11 5 29 18 39 30
11 11 21 21 24 21 3 0 -7 -13 -23 -30z m495 26 c0 -3 -5 -8 -12 -12 -7 -4 -8
-3 -4 4 7 12 16 16 16 8z m642 -142 c-7 -13 -15 -7 -40 35 -19 30 -32 65 -32
84 0 30 2 29 41 -35 29 -49 38 -72 31 -84z m422 84 c-9 -59 -14 -60 -14 -5 0
26 5 47 10 47 6 0 8 -16 4 -42z m203 35 c-4 -3 -10 -3 -14 0 -3 4 0 7 7 7 7 0
10 -3 7 -7z m376 0 c-7 -2 -19 -2 -25 0 -7 3 -2 5 12 5 14 0 19 -2 13 -5z
m-1663 -7 c0 -3 -5 -8 -12 -12 -7 -4 -8 -3 -4 4 7 12 16 16 16 8z m741 -34
c-13 -25 -14 -35 -2 -27 5 3 13 0 17 -6 5 -8 3 -9 -6 -4 -8 5 -11 3 -8 -6 3
-8 10 -13 16 -12 8 2 9 -5 2 -22 -19 -51 -43 -90 -48 -77 -2 7 4 25 13 40 l16
27 -20 -24 c-12 -13 -21 -32 -21 -42 0 -11 -7 -22 -15 -25 -8 -4 -12 -11 -8
-17 3 -5 1 -7 -5 -3 -5 3 -20 -10 -32 -29 -31 -50 -33 -43 -6 18 76 167 110
237 113 233 3 -2 0 -13 -6 -24z m169 8 c6 -11 8 -20 6 -20 -3 0 -10 9 -16 20
-6 11 -8 20 -6 20 3 0 10 -9 16 -20z m727 5 c0 -8 -4 -15 -9 -15 -10 0 -11 14
-1 23 9 10 10 9 10 -8z m-1749 -30 c0 -14 -4 -28 -9 -31 -5 -3 -6 3 -2 12 5
12 3 15 -6 9 -10 -6 -11 -3 -2 14 15 27 19 27 19 -4z m85 -172 c-4 -11 -25 5
-70 54 -101 108 -108 143 -9 44 53 -53 82 -89 79 -98z m1657 171 c0 -12 -48
-63 -53 -57 -7 6 33 63 45 63 4 0 8 -3 8 -6z m-150 -38 c0 -3 -5 -8 -12 -12
-7 -4 -8 -3 -4 4 7 12 16 16 16 8z m-1716 -14 c3 -5 -1 -9 -9 -9 -8 0 -12 4
-9 9 3 4 7 8 9 8 2 0 6 -4 9 -8z m464 -99 c-69 -111 -108 -168 -108 -158 0 4
16 34 36 66 19 32 32 63 29 69 -9 15 -26 1 -23 -18 2 -9 -2 -16 -9 -15 -14 3
-37 -33 -29 -46 3 -4 -1 -8 -9 -8 -11 0 -11 6 2 31 17 33 84 136 88 136 2 0 6
-7 9 -16 3 -8 2 -12 -4 -9 -15 9 -34 -35 -21 -48 10 -10 13 -5 10 19 0 4 5 10
12 15 7 4 14 14 15 22 4 28 37 68 47 58 6 -6 -10 -41 -45 -98z m-499 -15 c-40
-57 -77 -106 -83 -110 -13 -9 -28 1 -20 13 3 5 10 6 16 3 7 -4 8 -2 4 4 -11
18 4 37 16 21 7 -10 8 -8 3 8 -3 12 -1 24 5 28 5 3 10 11 10 16 0 6 -6 7 -12
3 -8 -5 -7 1 3 16 8 13 23 24 33 26 10 1 15 -1 11 -4 -4 -4 -12 -7 -17 -7 -6
0 -13 -6 -16 -14 -3 -8 0 -11 7 -7 7 5 9 1 5 -8 -12 -32 5 -14 50 55 26 39 50
68 53 65 3 -3 -27 -51 -68 -108z m1631 105 c-1 -26 -30 -196 -34 -201 -3 -3
-6 19 -6 49 0 30 -3 78 -6 107 -7 51 -6 52 20 52 14 0 26 -3 26 -7z m-971
-175 c1 -5 -42 -8 -94 -8 -52 0 -95 3 -95 6 0 3 23 44 52 90 l52 86 43 -84
c23 -46 42 -86 42 -90z m-645 154 c3 -5 -1 -9 -9 -9 -8 0 -12 4 -9 9 3 4 7 8
9 8 2 0 6 -4 9 -8z m1806 4 c0 -3 -5 -8 -12 -12 -7 -4 -8 -3 -4 4 7 12 16 16
16 8z m-1734 -39 c-2 -12 -9 -21 -16 -19 -7 2 -10 -3 -7 -12 8 -20 -3 -28 -20
-15 -15 13 -18 -1 -3 -19 6 -6 7 -10 4 -7 -4 3 -13 -3 -21 -13 -12 -16 -13
-16 -6 2 5 14 3 17 -6 11 -8 -4 -6 4 4 19 9 14 22 23 28 19 6 -4 8 0 4 10 -4
11 1 20 14 27 11 6 16 16 13 22 -4 7 -3 8 4 4 7 -4 10 -17 8 -29z m1083 -50
c22 -37 41 -70 41 -72 0 -3 -36 -5 -80 -5 -44 0 -80 2 -80 5 0 10 71 147 74
144 2 -2 22 -34 45 -72z m528 41 c-3 -7 -5 -2 -5 12 0 14 2 19 5 13 2 -7 2
-19 0 -25z m-130 -180 c-2 -35 -3 -7 -3 62 0 69 1 97 3 63 2 -35 2 -91 0 -125z
m160 140 c-3 -7 -5 -2 -5 12 0 14 2 19 5 13 2 -7 2 -19 0 -25z m-332 12 c3 -5
4 -10 1 -10 -3 0 -8 5 -11 10 -3 6 -4 10 -1 10 3 0 8 -4 11 -10z m302 -22 c-3
-8 -6 -5 -6 6 -1 11 2 17 5 13 3 -3 4 -12 1 -19z m-1487 -8 c6 -11 8 -25 4
-32 -6 -10 -33 25 -34 45 0 15 20 6 30 -13z m1234 -52 c15 -27 25 -48 22 -48
-6 0 -66 95 -66 105 0 13 14 -5 44 -57z m-1315 20 c-20 -39 -51 -79 -56 -74
-5 5 54 96 63 96 3 0 -1 -10 -7 -22z m-209 6 c0 -8 -19 -13 -24 -6 -3 5 1 9 9
9 8 0 15 -2 15 -3z m80 2 c0 -3 -5 -8 -12 -12 -7 -4 -8 -3 -4 4 7 12 16 16 16
8z m340 -10 c0 -3 -5 -8 -12 -12 -7 -4 -8 -3 -4 4 7 12 16 16 16 8z m1357 -13
c-4 -3 -7 0 -7 7 0 7 3 10 7 7 3 -4 3 -10 0 -14z m-292 -3 c3 -5 4 -10 1 -10
-3 0 -8 5 -11 10 -3 6 -4 10 -1 10 3 0 8 -4 11 -10z m-1238 -45 c-4 -10 -47
-21 -47 -11 0 3 5 17 12 31 11 25 13 26 25 9 7 -10 12 -23 10 -29z m1530 3
c-3 -8 -6 -5 -6 6 -1 11 2 17 5 13 3 -3 4 -12 1 -19z m-644 5 c-112 -2 -294
-2 -405 0 -112 1 -21 2 202 2 223 0 314 -1 203 -2z m244 1 c-3 -3 -12 -4 -19
-1 -8 3 -5 6 6 6 11 1 17 -2 13 -5z m56 -1 c-7 -2 -19 -2 -25 0 -7 3 -2 5 12
5 14 0 19 -2 13 -5z m-990 -18 c-3 -9 -8 -14 -10 -11 -3 3 -2 9 2 15 9 16 15
13 8 -4z m1414 -127 c-2 -29 -3 -8 -3 47 0 55 1 79 3 53 2 -26 2 -71 0 -100z
m-1901 104 c-17 -16 -18 -16 -5 5 7 12 15 20 18 17 3 -2 -3 -12 -13 -22z
m-136 11 c-61 -10 -92 -28 -134 -74 -42 -47 -45 -48 -35 -19 18 51 98 99 164
98 26 -1 27 -1 5 -5z m788 -5 c-3 -8 -24 -14 -54 -15 -44 -1 -45 0 -14 6 l35
8 -35 5 c-29 4 -26 5 18 6 39 2 53 -1 50 -10z m42 8 c0 -3 -5 -8 -12 -12 -7
-4 -8 -3 -4 4 7 12 16 16 16 8z m223 -7 c-16 -16 -149 -17 -165 -1 -9 9 9 12
82 12 71 0 91 -3 83 -11z m40 -4 c-3 -9 -8 -14 -10 -11 -3 3 -2 9 2 15 9 16
15 13 8 -4z m256 -1 c-17 -20 -205 -18 -213 3 -4 10 19 13 111 13 104 0 114
-2 102 -16z m141 6 c0 -5 -11 -10 -25 -10 -14 0 -25 5 -25 10 0 6 11 10 25 10
14 0 25 -4 25 -10z m279 7 c-2 -1 -17 -13 -34 -27 -22 -18 -25 -20 -12 -4 9
11 15 23 12 25 -2 3 5 6 17 6 11 1 19 1 17 0z m-1599 -11 c0 -3 -5 -8 -12 -12
-7 -4 -8 -3 -4 4 7 12 16 16 16 8z m947 -13 c-4 -3 -7 0 -7 7 0 7 3 10 7 7 3
-4 3 -10 0 -14z m683 7 c0 -5 -6 -10 -14 -10 -8 0 -17 -7 -20 -16 -3 -8 -11
-12 -17 -8 -8 4 -9 3 -5 -5 4 -6 0 -14 -8 -17 -9 -3 -13 -10 -10 -15 3 -5 1
-9 -4 -9 -6 0 -9 -6 -9 -12 1 -7 -2 -34 -7 -60 -11 -64 15 -142 63 -187 20
-18 27 -29 15 -23 -32 17 -86 82 -80 97 3 8 0 15 -6 17 -14 5 -13 92 2 148 15
56 100 141 100 100z m157 -7 c-4 -3 -7 0 -7 7 0 7 3 10 7 7 3 -4 3 -10 0 -14z
m-2097 -7 c0 -2 -8 -10 -17 -17 -16 -13 -17 -12 -4 4 13 16 21 21 21 13z m627
-3 c-4 -3 -10 -3 -14 0 -3 4 0 7 7 7 7 0 10 -3 7 -7z m561 -8 c-11 -11 -107
-17 -135 -9 -23 7 -13 10 52 14 81 5 93 4 83 -5z m-593 -5 c-3 -5 -16 -15 -28
-21 -19 -9 -19 -8 3 10 28 23 34 26 25 11z m142 2 c6 -4 -10 -7 -36 -8 -87 -1
-138 -58 -152 -169 l-7 -60 1 73 c1 89 20 125 80 152 43 20 93 25 114 12z
m183 -2 c0 -13 -60 -13 -80 0 -11 7 -2 10 33 10 26 0 47 -4 47 -10z m560 -1
c0 -7 -31 -8 -97 -3 -54 4 -100 8 -102 10 -2 2 41 4 97 4 65 0 102 -4 102 -11z
m135 1 c-28 -12 -47 -12 -40 0 3 6 18 10 33 9 24 0 25 -1 7 -9z m317 -7 c-8
-3 -22 -19 -33 -37 -10 -17 -19 -26 -19 -19 0 16 51 75 59 67 3 -4 0 -9 -7
-11z m-1622 3 c0 -3 -5 -8 -12 -12 -7 -4 -8 -3 -4 4 7 12 16 16 16 8z m457
-13 c-4 -3 -7 0 -7 7 0 7 3 10 7 7 3 -4 3 -10 0 -14z m1329 -10 c-10 -10 -19
5 -10 18 6 11 8 11 12 0 2 -7 1 -15 -2 -18z m-1343 -4 c42 -22 67 -52 61 -72
-4 -13 -2 -17 5 -13 7 5 8 1 4 -9 -5 -13 -7 -14 -14 -3 -6 9 -9 9 -9 1 0 -7
-11 -1 -25 12 -34 35 -78 33 -117 -5 -27 -27 -30 -36 -25 -71 7 -50 -3 -43
-13 8 l-8 38 -1 -33 c0 -18 6 -46 14 -62 9 -17 13 -30 11 -30 -12 0 -36 61
-36 90 0 39 37 96 75 115 21 10 25 15 12 15 -11 0 -33 -15 -50 -32 -17 -19
-28 -25 -24 -15 4 11 3 16 -4 12 -5 -4 -7 -16 -4 -28 5 -18 4 -19 -5 -7 -10
12 -11 12 -5 -5 5 -16 4 -17 -6 -8 -9 9 -8 18 5 37 39 61 128 69 188 17 17
-14 29 -19 26 -11 -7 23 -54 52 -95 60 -32 7 -34 8 -10 9 16 0 38 -4 50 -10z
m852 2 l-40 -5 55 -6 c37 -5 4 -7 -98 -8 -100 -1 -151 1 -147 8 4 6 -17 10
-57 9 -56 -1 -59 -3 -28 -10 21 -5 -31 -6 -125 -3 -177 5 -318 14 -324 20 -2
2 178 3 400 2 222 -1 386 -4 364 -7z m223 -22 c-6 -16 -12 -28 -14 -26 -5 5
13 57 20 57 3 0 0 -14 -6 -31z m-1548 1 c-6 -11 -16 -20 -22 -20 -6 0 -3 9 7
20 10 11 20 20 22 20 2 0 -1 -9 -7 -20z m582 -47 c11 -24 17 -47 14 -50 -3 -4
-6 -1 -6 6 0 7 -5 9 -11 6 -6 -4 -10 -1 -8 6 3 27 -1 38 -28 70 -26 30 -26 31
-4 20 12 -7 32 -33 43 -58z m-632 47 c-8 -5 -25 -10 -37 -10 -13 0 -23 -4 -23
-10 0 -5 -7 -10 -16 -10 -10 0 -14 6 -11 14 4 11 -4 16 -31 19 -20 2 1 4 48 5
58 1 80 -1 70 -8z m220 0 c0 -6 -30 -10 -70 -10 -40 0 -70 4 -70 10 0 6 30 10
70 10 40 0 70 -4 70 -10z m71 -32 c-11 -18 -21 -29 -21 -25 0 13 33 67 38 62
3 -2 -5 -19 -17 -37z m1446 -180 c-1 -40 -3 -8 -3 72 0 80 2 112 3 73 2 -40 2
-106 0 -145z m-362 189 c55 -2 -87 -3 -315 -3 -228 0 -359 3 -290 6 117 5 374
4 605 -3z m-1197 -4 c-21 -2 -55 -2 -75 0 -21 2 -4 4 37 4 41 0 58 -2 38 -4z
m-451 -35 c-3 -8 -6 -5 -6 6 -1 11 2 17 5 13 3 -3 4 -12 1 -19z m-40 -5 c-4
-3 -7 0 -7 7 0 7 3 10 7 7 3 -4 3 -10 0 -14z m818 7 c-3 -5 -13 -10 -21 -10
-9 0 -29 -13 -45 -29 -19 -19 -29 -24 -29 -15 0 24 47 64 75 64 15 0 24 -4 20
-10z m332 -32 c-5 -24 -23 -61 -38 -84 -16 -24 -26 -49 -23 -60 9 -34 -25 -60
-83 -63 -29 -1 -53 0 -53 4 0 3 7 20 16 38 18 34 24 134 11 180 l-7 27 94 0
94 0 -11 -42z m133 -5 c1 -62 27 -120 75 -161 l37 -33 -113 1 c-63 0 -123 0
-134 -2 -14 -2 -20 3 -20 17 0 11 7 20 15 20 11 0 16 13 17 45 2 25 8 71 14
103 l12 57 48 0 49 0 0 -47z m607 15 c-3 -7 -5 -2 -5 12 0 14 2 19 5 13 2 -7
2 -19 0 -25z m60 5 c-4 -3 -7 0 -7 7 0 7 3 10 7 7 3 -4 3 -10 0 -14z m-1917
-64 c0 -34 7 -73 15 -89 9 -17 13 -30 10 -30 -2 0 -14 18 -25 40 -21 42 -29
157 -10 145 6 -3 10 -33 10 -66z m547 49 c-3 -8 -6 -5 -6 6 -1 11 2 17 5 13 3
-3 4 -12 1 -19z m-87 2 c0 -14 -367 -14 -375 0 -4 7 60 10 184 10 121 0 191
-4 191 -10z m-433 -77 c-2 -16 -4 -3 -4 27 0 30 2 43 4 28 2 -16 2 -40 0 -55z
m613 36 c0 -22 5 -50 11 -62 10 -21 10 -21 -5 -3 -9 11 -16 29 -16 40 0 12 -3
31 -6 44 -4 13 -2 22 5 22 6 0 11 -17 11 -41z m135 21 c4 -6 -1 -7 -11 -3 -11
4 -22 -1 -30 -12 -8 -10 -14 -14 -14 -9 0 26 42 44 55 24z m102 -12 c-3 -8 -6
-5 -6 6 -1 11 2 17 5 13 3 -3 4 -12 1 -19z m-806 -5 c13 -16 12 -17 -3 -4 -17
13 -22 21 -14 21 2 0 10 -8 17 -17z m367 10 c-16 -2 -28 -9 -28 -14 0 -5 -25
-9 -55 -9 -30 0 -55 4 -55 10 0 5 -47 11 -107 13 -60 1 -22 3 82 3 105 1 178
-1 163 -3z m173 -140 c9 -11 10 -14 1 -9 -19 12 -39 57 -46 106 -5 40 -4 39
13 -17 10 -34 24 -70 32 -80z m299 66 c-13 -53 -61 -112 -84 -103 -8 3 2 19
30 48 33 32 45 53 50 87 4 24 9 38 12 31 2 -7 -2 -35 -8 -63z m27 24 c-3 -10
-5 -2 -5 17 0 19 2 27 5 18 2 -10 2 -26 0 -35z m860 -17 c7 -22 25 -54 39 -73
l25 -33 -141 0 -141 0 35 30 c19 17 42 51 52 76 l17 45 50 -3 c48 -3 51 -4 64
-42z m-1349 18 c-7 -6 -329 -6 -336 1 -3 3 73 5 168 5 95 0 171 -3 168 -6z
m412 -4 c5 8 7 3 7 -14 -2 -22 -4 -24 -13 -11 -6 8 -14 12 -18 8 -4 -4 -4 1 0
12 5 13 9 15 12 6 4 -11 6 -11 12 -1z m1084 -35 l17 -30 -20 24 c-12 13 -21
28 -21 34 0 12 0 11 24 -28z m-1397 8 c-4 -3 -7 0 -7 7 0 7 3 10 7 7 3 -4 3
-10 0 -14z m1729 -18 c10 -53 -11 -95 -47 -95 -16 0 -29 3 -29 8 0 13 55 121
62 121 4 1 10 -15 14 -34z m-1669 8 c-4 -3 -7 0 -7 7 0 7 3 10 7 7 3 -4 3 -10
0 -14z m-409 0 c-26 -2 -71 -2 -100 0 -29 2 -8 3 47 3 55 0 79 -1 53 -3z m225
0 c-29 -2 -78 -2 -110 0 -32 2 -8 3 52 3 61 0 87 -1 58 -3z m407 3 c0 -3 -5
-8 -12 -12 -7 -4 -8 -3 -4 4 7 12 16 16 16 8z m83 -53 c-41 -84 -170 -121
-239 -68 -16 12 -12 12 21 -1 83 -34 190 10 216 88 7 22 15 36 17 29 2 -6 -5
-28 -15 -48z m1207 26 c0 -5 -4 -9 -8 -9 -5 0 -9 7 -9 15 0 8 4 12 9 9 4 -3 8
-9 8 -15z m-1440 -60 c14 -12 18 -17 10 -13 -24 11 -61 47 -72 69 -5 11 0 8
14 -8 13 -16 34 -37 48 -48z m-187 26 c9 -20 17 -38 17 -40 0 -3 -27 -5 -60
-5 -52 0 -59 2 -54 18 5 13 4 14 -4 3 -5 -7 -15 -10 -21 -7 -6 4 -11 2 -11 -3
0 -6 -16 -11 -36 -11 l-35 0 33 40 c32 38 35 40 94 40 59 0 61 -1 77 -35z
m122 -35 l40 -45 -42 40 c-24 21 -43 43 -43 49 0 5 1 7 3 5 1 -2 20 -24 42
-49z m1695 36 c0 -3 -5 -8 -12 -12 -7 -4 -8 -3 -4 4 7 12 16 16 16 8z m-243
-23 c-4 -3 -10 -3 -14 0 -3 4 0 7 7 7 7 0 10 -3 7 -7z m-1340 -30 c-4 -3 -10
-3 -14 0 -3 4 0 7 7 7 7 0 10 -3 7 -7z m70 0 c-4 -3 -10 -3 -14 0 -3 4 0 7 7
7 7 0 10 -3 7 -7z m1486 -21 c-18 -5 -27 3 -18 17 4 7 10 7 20 -2 11 -10 11
-13 -2 -15z m-1413 4 c0 -3 -5 -8 -12 -12 -7 -4 -8 -3 -4 4 7 12 16 16 16 8z
m-103 -43 c-4 -3 -10 -3 -14 0 -3 4 0 7 7 7 7 0 10 -3 7 -7z"/>
<path d="M906 2372 c-3 -5 7 -20 22 -33 14 -13 21 -17 14 -8 -6 9 -10 18 -7
21 3 3 -1 11 -9 17 -8 7 -17 8 -20 3z m19 -12 c3 -5 4 -10 1 -10 -3 0 -8 5
-11 10 -3 6 -4 10 -1 10 3 0 8 -4 11 -10z"/>
<path d="M1035 2260 c10 -11 20 -20 23 -20 3 0 -3 9 -13 20 -10 11 -20 20 -23
20 -3 0 3 -9 13 -20z"/>
<path d="M1213 1975 c0 -19 33 -49 41 -37 3 5 -5 19 -18 31 -17 16 -23 18 -23
6z m28 -22 c13 -16 12 -17 -3 -4 -10 7 -18 15 -18 17 0 8 8 3 21 -13z"/>
<path d="M1631 2095 c-10 -23 -11 -61 -3 -170 l10 -140 -3 149 c-2 81 -2 146
1 143 3 -2 9 -49 13 -103 l8 -99 1 80 c0 44 -3 100 -7 125 l-8 45 -12 -30z"/>
<path d="M1373 2203 c4 -3 10 -3 14 0 3 4 0 7 -7 7 -7 0 -10 -3 -7 -7z"/>
<path d="M1734 1368 c-4 -7 -3 -8 4 -4 12 7 16 16 8 16 -3 0 -8 -5 -12 -12z"/>
<path d="M1767 1323 c-4 -3 -1 -15 4 -26 12 -21 79 -92 79 -82 0 14 -54 84
-61 79 -5 -3 -6 1 -3 9 6 16 -9 31 -19 20z"/>
<path d="M1939 1115 c14 -30 40 -61 41 -50 0 6 -12 24 -26 40 -14 17 -21 21
-15 10z"/>
<path d="M1525 1360 c-4 -6 -10 -8 -15 -5 -5 3 -8 -4 -7 -15 2 -25 1 -25 21 5
9 14 14 25 12 25 -3 0 -8 -5 -11 -10z"/>
<path d="M1439 1278 c-8 -18 -14 -35 -14 -38 0 -3 -3 -10 -7 -16 -4 -6 -9 -21
-12 -35 -2 -13 -7 -33 -11 -44 -4 -11 2 -5 14 13 12 18 18 38 15 44 -4 6 -3 8
3 5 5 -3 23 18 41 48 28 50 25 71 -5 35 -11 -13 -12 -13 -7 3 11 30 -3 18 -17
-15z"/>
<path d="M1318 1318 c-7 -17 15 -19 29 -3 4 4 3 5 -4 2 -6 -4 -13 -2 -15 5 -3
8 -6 6 -10 -4z"/>
<path d="M1294 1278 c-4 -7 -3 -8 4 -4 7 4 12 9 12 12 0 8 -9 4 -16 -8z"/>
<path d="M1274 1248 c-4 -7 -3 -8 4 -4 12 7 16 16 8 16 -3 0 -8 -5 -12 -12z"/>
<path d="M1240 1190 c-6 -11 -8 -20 -6 -20 3 0 10 9 16 20 6 11 8 20 6 20 -3
0 -10 -9 -16 -20z"/>
<path d="M1214 1148 c-4 -7 -3 -8 4 -4 12 7 16 16 8 16 -3 0 -8 -5 -12 -12z"/>
<path d="M1190 1110 c-6 -11 -8 -20 -6 -20 3 0 10 9 16 20 6 11 8 20 6 20 -3
0 -10 -9 -16 -20z"/>
<path d="M1164 1068 c-4 -7 -3 -8 4 -4 12 7 16 16 8 16 -3 0 -8 -5 -12 -12z"/>
<path d="M1130 968 c-66 -87 -66 -87 -43 -83 10 1 17 8 15 15 -1 6 10 28 26
48 34 44 66 92 60 92 -2 0 -28 -33 -58 -72z"/>
<path d="M1750 1000 c0 -7 3 -10 7 -7 3 4 3 10 0 14 -4 3 -7 0 -7 -7z"/>
<path d="M1770 970 c0 -7 3 -10 7 -7 3 4 3 10 0 14 -4 3 -7 0 -7 -7z"/>
<path d="M706 813 c-6 -14 -5 -15 5 -6 7 7 10 15 7 18 -3 3 -9 -2 -12 -12z"/>
<path d="M1055 610 c-16 -7 -13 -9 16 -9 21 -1 48 -10 63 -22 14 -11 26 -16
26 -10 0 26 -74 54 -105 41z"/>
<path d="M1144 348 c-4 -7 -3 -8 4 -4 7 4 12 9 12 12 0 8 -9 4 -16 -8z"/>
</g>
</svg>
