<?xml version="1.0" standalone="no"?>
<!DOCTYPE svg PUBLIC "-//W3C//DTD SVG 20010904//EN"
 "http://www.w3.org/TR/2001/REC-SVG-20010904/DTD/svg10.dtd">
<svg version="1.0" xmlns="http://www.w3.org/2000/svg"
 width="300.000000pt" height="300.000000pt" viewBox="0 0 300.000000 300.000000"
 preserveAspectRatio="xMidYMid meet">
<metadata>
Created by potrace 1.10, written by Peter Selinger 2001-2011
</metadata>
<g transform="translate(0.000000,300.000000) scale(0.100000,-0.100000)"
fill="#000000" stroke="none">
<path d="M1310 2800 l-25 -8 27 -1 c15 -1 30 4 33 9 7 11 0 11 -35 0z"/>
<path d="M1398 2803 c12 -2 32 -2 45 0 12 2 2 4 -23 4 -25 0 -35 -2 -22 -4z"/>
<path d="M1548 2803 c12 -2 30 -2 40 0 9 3 -1 5 -23 4 -22 0 -30 -2 -17 -4z"/>
<path d="M1658 2793 c7 -3 16 -2 19 1 4 3 -2 6 -13 5 -11 0 -14 -3 -6 -6z"/>
<path d="M2190 2786 c-7 -9 -10 -39 -9 -74 2 -59 2 -59 -57 -128 -32 -38 -119
-142 -193 -231 -125 -151 -136 -161 -148 -143 -12 17 -10 25 26 70 33 42 81
141 81 169 0 14 -154 158 -189 176 -75 38 -303 96 -319 81 -3 -4 9 -24 26 -45
39 -48 39 -62 6 -130 -18 -36 -43 -64 -76 -88 -41 -30 -48 -40 -44 -59 6 -21
-1 -27 -52 -53 -33 -16 -73 -42 -91 -57 l-32 -26 21 52 c25 63 19 74 -53 95
-55 16 -73 10 -79 -28 -2 -16 -11 -23 -34 -25 -29 -3 -33 0 -54 53 -18 45 -21
63 -13 88 7 25 5 43 -12 85 -22 53 -22 53 -37 30 -16 -23 -16 -23 -28 21 -8
32 -14 41 -22 33 -8 -8 -8 -19 1 -38 6 -15 9 -29 6 -32 -3 -3 -5 0 -5 6 0 7
-5 12 -11 12 -5 0 -8 -4 -4 -9 3 -5 1 -12 -4 -15 -5 -4 -15 10 -21 30 -8 23
-16 32 -22 26 -6 -6 -4 -21 6 -41 14 -26 14 -31 2 -31 -9 0 -13 -8 -10 -22 2
-13 -5 -4 -16 20 -12 23 -28 42 -36 42 -13 0 -11 -7 7 -37 17 -28 18 -34 6
-24 -22 17 -22 3 0 -21 19 -22 1 -25 -21 -3 -21 21 -28 19 -22 -7 3 -13 3 -17
0 -10 -3 6 -10 12 -15 12 -6 0 -5 -9 1 -21 7 -11 10 -23 7 -25 -2 -3 -12 11
-21 31 -9 19 -21 35 -26 35 -15 0 -12 -12 10 -45 16 -25 17 -31 5 -35 -20 -7
40 -100 65 -100 19 0 38 -19 67 -71 l20 -35 -30 -17 c-23 -14 -28 -22 -23 -40
14 -47 23 -132 15 -143 -10 -13 0 -56 12 -48 5 3 9 3 9 -1 0 -13 -111 -452
-120 -472 -7 -18 -4 -26 19 -46 60 -50 187 -63 205 -20 6 12 24 25 40 30 28 8
32 15 54 93 19 71 29 91 60 119 20 19 62 58 94 88 l56 54 16 -48 c13 -40 15
-75 7 -136 -1 -4 -8 -7 -18 -5 -11 2 -33 -21 -64 -66 -44 -63 -47 -72 -34 -86
21 -23 19 -39 -8 -49 -13 -5 -39 -30 -58 -56 -47 -65 -83 -99 -138 -129 -139
-75 -348 -75 -477 0 l-42 24 -37 -41 c-21 -23 -49 -67 -64 -98 -24 -51 -26
-67 -26 -176 0 -114 2 -123 32 -187 17 -37 50 -87 74 -113 l42 -46 29 28 29
28 38 -40 c21 -22 42 -49 48 -59 9 -17 14 -15 63 22 57 44 199 117 208 107 10
-10 -142 -171 -180 -191 -16 -8 -28 -19 -28 -24 0 -6 -18 -28 -40 -50 -22 -22
-40 -49 -40 -60 0 -11 -5 -20 -11 -20 -5 0 -2 -13 8 -30 9 -16 25 -30 34 -30
11 0 18 -10 21 -30 4 -26 2 -29 -26 -32 -20 -2 -31 -9 -31 -18 0 -13 114 -15
959 -18 528 -1 964 2 968 6 19 19 -9 45 -86 83 -125 60 -165 106 -185 209 -7
36 -20 98 -28 138 -15 70 -15 73 6 90 l21 17 -30 93 c-17 50 -30 106 -30 123
0 22 -5 32 -20 36 -13 3 -20 14 -20 28 0 12 -7 28 -15 35 -22 18 -5 34 68 60
144 53 271 155 359 290 27 41 56 79 64 83 13 8 13 12 0 32 -24 37 -17 115 9
115 16 0 49 44 60 80 4 14 15 30 24 37 13 10 14 15 3 32 -14 24 -11 25 41 10
27 -7 37 -15 37 -30 0 -22 9 -22 144 -2 l39 5 -84 44 c-46 24 -85 44 -86 44
-2 0 -3 -8 -3 -18 0 -27 -8 -31 -43 -22 -18 4 -44 11 -59 14 -26 6 -28 10 -28
61 0 49 3 57 29 76 28 20 29 24 17 48 -8 14 -17 46 -21 71 -20 121 -84 271
-158 370 -22 30 -78 94 -124 142 -83 86 -103 118 -103 164 0 27 -12 31 -30 10z
m45 -134 c-9 -9 -25 11 -25 31 1 21 1 21 15 -3 7 -14 12 -27 10 -28z m-755
-13 l28 -32 -29 -40 c-33 -46 -35 -54 -14 -77 17 -19 8 -28 -69 -83 -34 -23
-33 -31 9 -73 39 -39 49 -60 12 -25 -13 12 -34 24 -47 26 -57 11 -56 50 3 105
78 71 112 157 82 204 -24 36 -10 33 25 -5z m135 -10 c28 -10 73 -33 100 -50
45 -29 48 -33 30 -41 -16 -6 -14 -7 8 -3 15 3 27 1 27 -5 0 -10 -21 -14 -47
-11 -7 1 -13 -3 -13 -9 0 -5 7 -10 15 -10 8 0 19 -9 25 -19 8 -16 5 -21 -23
-30 l-32 -11 25 20 c28 22 15 27 -14 5 -10 -7 -15 -18 -12 -23 3 -5 -6 -14
-20 -21 -34 -15 -43 -13 -20 4 11 8 17 15 13 15 -12 0 -118 -73 -113 -77 2 -3
16 3 30 12 14 10 26 15 26 12 0 -3 -17 -15 -37 -28 -64 -38 -93 -70 -94 -103
-1 -29 -2 -28 -24 19 -12 28 -34 62 -48 77 l-24 26 48 32 c45 29 149 135 149
153 0 4 -15 -3 -34 -15 -19 -13 -30 -26 -24 -29 11 -7 -15 -19 -43 -19 -27 0
-24 8 22 69 22 29 39 54 37 56 -2 1 -16 10 -33 19 l-30 17 39 -6 c22 -4 62
-15 91 -26z m699 -36 c108 -117 156 -193 195 -310 25 -75 28 -158 6 -167 -12
-4 -15 3 -15 31 0 57 -29 161 -66 239 -31 66 -80 138 -154 227 -49 57 -26 44
34 -20z m-25 -42 c63 -63 88 -97 121 -164 71 -148 90 -309 40 -349 -19 -16
-20 -19 -6 -24 25 -10 46 -58 46 -104 0 -35 -3 -41 -17 -36 -25 7 -593 131
-673 146 -36 7 -69 17 -75 21 -12 12 11 11 58 -2 30 -8 42 -7 59 6 12 8 29 15
38 15 8 -1 3 -7 -12 -16 -35 -19 -36 -28 -2 -21 15 3 42 -2 61 -10 51 -21 64
-10 21 17 -21 12 -36 26 -33 31 3 4 -6 16 -20 25 -14 9 -25 22 -25 30 0 7 -14
21 -30 31 -17 9 -29 21 -28 25 6 16 380 458 388 458 5 0 45 -36 89 -79z
m-1418 6 c-8 -8 -11 -7 -11 4 0 20 13 34 18 19 3 -7 -1 -17 -7 -23z m-36 -24
c9 -21 33 -74 55 -117 21 -44 36 -84 33 -89 -3 -5 -13 8 -23 30 -27 60 -81
176 -92 196 -5 11 -5 17 2 17 5 0 17 -17 25 -37z m57 -35 c-8 -8 -9 -5 -6 13
5 19 4 21 -5 9 -9 -13 -11 -13 -11 1 0 26 14 32 24 9 6 -14 6 -24 -2 -32z
m-82 3 c-1 -15 -20 -35 -27 -28 -4 5 -1 12 6 16 10 7 11 14 1 32 -11 23 -10
23 4 5 9 -11 16 -22 16 -25z m-33 -26 c1 -25 0 -45 -3 -45 -2 0 -11 14 -19 30
-14 27 -14 31 0 36 8 3 12 10 9 15 -3 5 -2 9 3 9 4 0 9 -20 10 -45z m1033 30
c15 -18 13 -20 -16 -29 -17 -5 -23 -2 -27 16 -6 23 -6 23 10 3 15 -20 15 -20
8 3 -7 25 6 29 25 7z m-1090 -29 c-1 -5 4 -13 12 -18 10 -7 9 -8 -5 -6 -10 2
-17 7 -17 12 1 5 -4 13 -12 18 -10 7 -9 8 5 6 10 -2 17 -7 17 -12z m10 -88 c0
-20 -27 -4 -47 26 -16 24 -19 36 -10 45 8 8 17 0 33 -27 13 -20 24 -40 24 -44z
m1115 72 c3 -5 -1 -10 -9 -10 -30 0 -217 -103 -261 -144 -51 -48 -58 -82 -29
-139 17 -32 17 -32 -3 -14 -36 32 -57 153 -23 132 5 -3 8 0 5 7 -6 19 179 136
263 166 36 14 50 14 57 2z m-1095 -34 c-1 -5 4 -13 12 -18 10 -7 9 -8 -5 -6
-10 2 -17 7 -17 12 1 5 -4 13 -12 18 -10 7 -9 8 5 6 10 -2 17 -7 17 -12z m103
-68 c14 -32 23 -58 19 -58 -4 0 -22 33 -40 73 -18 39 -26 65 -19 57 8 -8 26
-41 40 -72z m21 21 c15 -34 24 -64 22 -67 -3 -3 -10 7 -15 21 -6 15 -20 44
-31 67 -11 22 -16 40 -12 40 5 0 21 -28 36 -61z m-204 41 c0 -5 -7 -7 -15 -4
-8 4 -15 8 -15 10 0 2 7 4 15 4 8 0 15 -4 15 -10z m176 -128 c-6 -5 -56 105
-56 122 1 6 14 -18 31 -53 16 -35 27 -66 25 -69z m999 106 c-4 -13 -14 -34
-23 -47 -15 -25 -15 -25 -23 -4 -4 12 -13 24 -20 28 -15 10 27 44 54 45 14 0
17 -5 12 -22z m-200 2 c-3 -5 -11 -10 -16 -10 -6 0 -7 5 -4 10 3 6 11 10 16
10 6 0 7 -4 4 -10z m-843 -66 c29 -51 33 -64 21 -64 -5 0 -23 28 -42 61 -19
36 -27 60 -20 57 8 -2 26 -27 41 -54z m-107 36 c3 -6 -1 -7 -9 -4 -18 7 -21
14 -7 14 6 0 13 -4 16 -10z m396 -11 c44 -20 44 -20 9 -14 -19 3 -41 12 -50
20 -19 20 -10 19 41 -6z m-295 -106 c-6 -6 -56 92 -56 109 1 7 15 -13 31 -46
17 -32 28 -60 25 -63z m977 81 c4 -21 1 -25 -14 -21 -12 3 -19 0 -19 -9 0 -8
-4 -14 -10 -14 -5 0 -9 -3 -8 -7 3 -14 -13 -53 -22 -53 -11 0 -70 34 -70 40 0
6 122 90 131 90 4 0 9 -12 12 -26z m-723 -4 c0 -5 -2 -10 -4 -10 -3 0 -8 5
-11 10 -3 6 -1 10 4 10 6 0 11 -4 11 -10z m70 -21 c0 -10 -12 -11 -34 -3 -25
10 -19 22 9 16 14 -2 25 -8 25 -13z m242 -8 c44 -28 138 -134 138 -156 0 -5
-33 24 -72 66 -46 47 -87 81 -110 90 -21 7 -38 17 -38 21 0 17 38 7 82 -21z
m282 14 c-4 -8 -10 -15 -15 -15 -23 0 -20 -33 6 -60 l28 -29 -29 -35 c-16 -19
-34 -35 -41 -35 -18 -1 -33 33 -33 76 0 32 6 43 42 75 49 43 49 43 42 23z
m-624 0 c0 -3 -16 -11 -35 -19 -19 -8 -35 -20 -35 -25 0 -15 9 -14 26 4 18 17
34 20 34 5 0 -6 -19 -19 -42 -29 -24 -11 -74 -33 -112 -50 -42 -19 -64 -25
-56 -16 18 21 8 28 -24 16 -35 -14 -34 1 2 16 15 6 72 32 127 57 98 45 115 51
115 41z m333 -61 c44 -36 109 -118 97 -122 -6 -2 -37 21 -71 51 -70 63 -113
87 -161 87 l-33 1 35 18 c31 17 39 18 68 5 19 -7 48 -25 65 -40z m-253 26 c12
-8 12 -10 -5 -10 -11 0 -27 5 -35 10 -12 8 -12 10 5 10 11 0 27 -5 35 -10z
m-10 -30 c23 0 23 -1 -8 -33 -18 -18 -29 -37 -25 -42 5 -4 3 -5 -3 -2 -6 4
-19 -2 -29 -13 -10 -11 -15 -20 -11 -20 4 0 -5 -20 -19 -43 -14 -24 -25 -51
-25 -59 0 -18 74 -88 93 -88 7 0 18 9 25 20 16 27 32 25 32 -3 0 -12 7 -32 15
-44 16 -22 42 -21 91 5 48 25 221 71 255 68 21 -3 61 -7 90 -11 51 -6 56 -5
89 25 28 25 37 28 45 17 5 -8 15 -12 22 -10 6 2 14 -1 18 -6 3 -6 15 -11 26
-11 22 0 23 -4 8 -32 -9 -17 -6 -25 18 -51 24 -28 25 -29 2 -9 -53 46 -44 25
22 -56 23 -28 2 -19 -33 14 -20 18 -41 34 -46 34 -5 0 -9 16 -10 35 -2 63 -17
70 -56 28 -25 -26 -26 -26 -45 -9 -19 18 -22 18 -46 2 -19 -12 -30 -14 -39 -7
-6 5 -21 10 -31 9 -11 0 -28 3 -37 6 -20 9 -60 -27 -52 -48 3 -9 -10 -25 -38
-44 -66 -45 -92 -77 -85 -103 4 -13 1 -29 -5 -36 -17 -21 -2 -16 91 29 47 23
90 44 95 46 5 3 5 -1 1 -8 -8 -14 -143 -80 -162 -80 -7 0 -13 -7 -13 -15 0 -9
-11 -20 -24 -24 -27 -11 -39 -34 -25 -48 6 -6 2 -16 -11 -28 -11 -10 -20 -24
-20 -32 0 -7 -11 -13 -24 -13 -32 0 -53 -25 -36 -45 15 -18 5 -35 -21 -35 -10
0 -19 -6 -19 -12 0 -7 -7 0 -15 16 -8 15 -15 33 -15 38 0 17 71 108 80 103 5
-3 17 6 28 20 16 20 20 37 17 75 -5 61 -38 140 -59 140 -9 0 -16 -3 -16 -8 0
-4 -11 -14 -24 -22 -13 -8 -56 -44 -95 -79 -55 -50 -74 -74 -82 -105 -5 -23
-15 -53 -21 -68 -9 -23 -12 -25 -24 -14 -7 8 -19 16 -25 18 -8 3 -4 29 11 87
19 69 21 86 10 106 -10 19 -8 41 18 139 23 86 28 124 22 146 -7 26 -5 32 21
51 16 11 34 30 40 42 9 21 9 21 -5 3 -8 -10 -21 -16 -28 -14 -7 3 -21 -4 -30
-15 -10 -11 -18 -16 -18 -12 0 5 -11 -2 -24 -14 -13 -12 -27 -21 -32 -19 -5 2
-20 -7 -33 -19 -26 -24 -37 -24 -28 1 9 23 160 107 169 93 5 -8 9 -6 14 6 4
10 12 16 20 13 7 -3 18 2 24 10 10 11 9 14 -2 14 -11 0 -14 8 -11 28 9 53 12
56 31 38 10 -9 29 -16 42 -16z m670 10 c-6 -11 -13 -20 -16 -20 -2 0 0 9 6 20
6 11 13 20 16 20 2 0 0 -9 -6 -20z m-762 -37 c-2 -10 -46 -43 -98 -74 -84 -49
-95 -54 -98 -37 -5 30 16 48 103 89 92 44 98 45 93 22z m226 5 c22 -9 24 -14
13 -26 -10 -13 -9 -14 13 -3 22 11 22 9 -5 -13 -34 -30 -27 -34 13 -9 26 17
27 17 12 -2 -14 -17 -13 -18 5 -11 17 6 16 3 -5 -17 l-25 -24 -28 29 c-32 32
-64 42 -107 36 -17 -3 -30 -3 -30 -2 0 2 17 15 37 29 41 27 69 31 107 13z m79
-12 c12 -10 15 -16 7 -21 -6 -4 -12 -5 -13 -4 -2 2 -9 12 -16 22 -16 20 -3 22
22 3z m373 -51 c-28 -25 -52 -42 -55 -39 -7 7 80 83 94 83 6 0 -12 -20 -39
-44z m89 25 c3 -5 1 -10 -6 -10 -7 0 -31 -16 -55 -35 -59 -49 -62 -44 -6 10
50 47 57 51 67 35z m-385 -63 c0 -14 -39 23 -52 48 -8 14 -2 12 21 -9 17 -17
31 -34 31 -39z m-598 -26 c2 -35 8 -57 19 -64 14 -11 14 -14 -2 -30 -17 -18
-17 -18 -24 3 -9 29 -12 161 -3 152 4 -4 9 -32 10 -61z m548 38 c0 -5 -11 -9
-25 -9 -22 0 -24 2 -13 19 9 15 15 17 25 9 7 -6 13 -14 13 -19z m425 -4 c-16
-13 -34 -24 -38 -25 -5 0 -6 -4 -3 -8 9 -15 -10 -33 -29 -26 -16 6 -12 13 26
45 24 21 51 39 59 39 9 0 3 -10 -15 -25z m-605 5 c11 -7 6 -10 -21 -10 -22 0
-46 -8 -60 -20 l-24 -20 28 10 c30 10 74 13 48 3 -11 -4 -11 -7 0 -14 10 -6 7
-13 -12 -29 -17 -15 -19 -20 -6 -16 26 8 21 -7 -16 -42 l-33 -32 -33 34 c-34
35 -34 35 -16 63 48 76 100 102 145 73z m660 -5 c0 -2 -12 -12 -27 -20 -16 -9
-19 -13 -8 -9 77 26 82 9 6 -20 -39 -15 -43 -15 -32 -2 8 9 10 16 5 16 -12 1
35 40 47 40 5 0 9 -2 9 -5z m752 -35 c2 -14 6 -29 10 -35 4 -6 -10 -9 -37 -7
-34 3 -42 7 -38 21 3 13 52 51 60 47 1 -1 3 -13 5 -26z m-1042 -20 c7 0 9 8 5
22 -7 20 -5 21 46 15 29 -4 57 -12 63 -18 8 -9 0 -10 -31 -6 -24 3 -43 2 -43
-3 0 -10 36 -20 71 -20 15 0 33 -7 40 -16 12 -15 7 -16 -61 -9 -41 4 -76 11
-78 16 -7 18 -21 8 -27 -20 -12 -56 -55 -14 -55 55 0 20 44 22 52 2 4 -10 12
-18 18 -18z m-328 5 c-4 -11 -7 -51 -6 -89 1 -50 -2 -64 -9 -51 -5 10 -7 49
-4 88 3 42 1 64 -4 55 -13 -23 -18 -97 -9 -130 5 -15 5 -30 0 -33 -14 -8 -23
61 -17 116 7 60 12 68 37 66 16 -1 18 -6 12 -22z m28 -1 c-6 -14 -10 -39 -10
-55 0 -16 -4 -29 -10 -29 -5 0 -10 8 -10 18 0 30 20 92 30 92 6 0 6 -10 0 -26z
m212 -9 c0 -19 1 -41 2 -47 1 -7 -6 -14 -15 -16 -11 -2 -18 7 -23 29 -11 54
-8 69 14 69 16 0 20 -7 22 -35z m-176 9 c-3 -9 -6 -29 -6 -45 0 -16 -4 -29
-10 -29 -11 0 -14 73 -3 83 12 13 25 7 19 -9z m39 -49 c0 -43 -4 -65 -11 -65
-14 0 -23 54 -16 98 9 58 27 36 27 -33z m46 13 l1 -53 9 40 c5 21 7 45 5 52
-3 7 1 13 8 13 9 0 13 -16 15 -49 1 -46 -1 -50 -28 -59 -16 -6 -32 -8 -35 -5
-3 4 -6 30 -6 60 0 40 4 53 15 53 11 0 15 -13 16 -52z m-423 20 c-3 -7 -15
-14 -29 -16 -23 -2 -23 -2 -5 13 24 18 39 20 34 3z m942 7 c0 -2 -10 -10 -22
-16 -21 -11 -22 -11 -9 4 13 16 31 23 31 12z m-930 -45 c0 -5 -21 -10 -47 -9
-36 0 -43 3 -28 9 28 12 75 12 75 0z m1666 -6 c18 -14 18 -15 -6 -7 -14 4 -46
8 -72 7 -26 -1 -45 3 -42 8 9 14 99 9 120 -8z m-976 -4 c15 0 21 -3 14 -10
-12 -12 -114 -1 -114 13 0 6 15 7 38 3 20 -3 48 -6 62 -6z m-747 -67 c-8 -32
-17 -60 -19 -62 -2 -2 -9 8 -15 23 -7 15 -18 25 -26 22 -15 -6 -16 4 -4 38 9
23 25 32 63 35 15 1 15 -4 1 -56z m43 40 c-2 -10 -23 -90 -46 -178 -46 -181
-48 -190 -56 -183 -8 8 89 378 99 378 4 0 6 -8 3 -17z m339 -16 c0 -26 -20
-25 -23 2 -3 16 1 22 10 19 7 -3 13 -12 13 -21z m-41 -3 c9 -23 7 -36 -3 -30
-12 8 -21 46 -11 46 4 0 11 -7 14 -16z m635 4 c11 -11 12 -10 6 1 -6 11 -3 13
16 8 13 -4 30 -7 36 -7 7 0 -5 -24 -27 -52 -22 -29 -40 -56 -40 -60 0 -5 -5
-8 -10 -8 -13 0 15 57 43 88 11 12 16 22 10 22 -6 0 -13 -6 -16 -12 -3 -9 -12
-6 -28 10 -24 23 -14 32 10 10z m691 -8 c9 -17 8 -20 -10 -20 -13 0 -20 7 -20
20 0 11 4 20 10 20 5 0 14 -9 20 -20z m-832 -50 c-13 -76 -32 -92 -23 -20 6
47 22 87 31 78 1 -2 -2 -28 -8 -58z m126 35 c11 -8 16 -18 12 -22 -3 -4 -16 3
-28 15 -25 25 -13 29 16 7z m174 0 c1 -1 -2 -14 -7 -29 -13 -32 -5 -33 20 -2
13 16 25 22 42 19 l24 -5 -19 -36 c-10 -20 -18 -49 -18 -65 0 -16 -4 -26 -10
-22 -5 3 -10 25 -10 47 0 53 -12 41 -21 -20 l-6 -47 -14 33 c-8 19 -19 30 -26
27 -13 -4 -12 12 3 65 4 16 -30 -21 -46 -49 -15 -27 -21 -6 -9 30 18 52 37 70
68 62 14 -3 27 -7 29 -8z m-173 -43 c-3 -3 -18 7 -33 23 l-27 28 33 -23 c18
-12 31 -25 27 -28z m-355 28 c0 -5 -5 -10 -11 -10 -8 0 -7 -5 1 -15 11 -13 15
-13 21 -3 5 7 9 11 10 8 0 -3 2 -13 4 -24 2 -10 31 -54 65 -97 62 -80 74 -125
19 -73 -29 28 -39 51 -16 38 7 -4 9 -3 4 2 -5 5 -14 9 -20 9 -6 0 -26 22 -45
48 -29 40 -33 51 -21 58 12 7 11 9 -2 9 -23 0 -41 24 -33 44 7 18 24 22 24 6z
m150 -22 c0 -6 -7 -5 -15 2 -8 7 -15 17 -15 22 0 6 7 5 15 -2 8 -7 15 -17 15
-22z m-90 -5 c-1 -27 -1 -27 -15 -9 -14 19 -12 36 6 36 5 0 9 -12 9 -27z m135
-3 c-4 -12 -9 -19 -12 -17 -3 3 -2 15 2 27 4 12 9 19 12 17 3 -3 2 -15 -2 -27z
m875 14 c0 -9 -7 -14 -17 -12 -25 5 -28 28 -4 28 12 0 21 -6 21 -16z m-952 -6
c19 -19 14 -29 -8 -16 -20 13 -27 28 -12 28 4 0 13 -5 20 -12z m-762 -23 c15
-24 15 -32 -13 -142 -27 -110 -30 -115 -46 -99 -26 27 -20 170 7 160 19 -7 58
40 50 61 -7 17 -8 17 -21 -1 -11 -15 -13 -15 -13 -2 0 9 6 18 13 21 6 2 9 8 5
12 -12 12 -28 -5 -28 -31 0 -26 9 -31 28 -12 8 8 12 8 12 1 0 -16 -28 -36 -40
-28 -14 9 -13 72 3 78 22 9 26 7 43 -18z m1264 -11 c-6 -14 -10 -37 -10 -52 0
-20 -3 -23 -12 -14 -9 9 -8 21 1 52 6 22 16 40 21 40 6 0 6 -10 0 -26z m70 18
c0 -2 -5 -12 -11 -24 -6 -11 -13 -43 -16 -71 -3 -29 -7 -54 -9 -56 -9 -10 -3
90 6 115 6 15 8 29 6 32 -3 3 -10 -8 -16 -23 -6 -15 -13 -26 -16 -23 -2 3 0
17 5 31 7 17 17 25 31 24 11 -1 20 -3 20 -5z m245 -37 c28 -7 29 -8 8 -15 -22
-9 -183 37 -183 51 0 4 33 -1 73 -11 39 -10 86 -21 102 -25z m-829 24 c10 -17
-23 -46 -38 -31 -8 8 -8 15 2 27 15 18 26 19 36 4z m948 5 c9 -3 16 -13 16
-21 0 -10 -6 -13 -16 -9 -9 3 -18 6 -20 6 -2 0 -4 7 -4 15 0 17 2 18 24 9z
m-1067 -71 c-8 -8 -38 48 -31 59 4 6 13 -3 21 -22 7 -18 12 -35 10 -37z m179
23 c-3 -17 -8 -42 -11 -56 -3 -15 2 -9 14 15 11 22 20 32 20 23 1 -10 -6 -33
-16 -52 l-16 -35 -33 41 c-31 39 -31 43 -17 65 19 28 32 15 26 -25 -4 -25 -3
-24 11 6 8 18 12 40 9 49 -5 12 -3 14 6 8 9 -5 11 -19 7 -39z m537 7 c-9 -23
-13 -52 -10 -77 4 -26 2 -35 -4 -25 -12 19 -11 96 1 120 19 34 29 20 13 -18z
m-353 -53 c7 0 22 7 32 17 17 15 20 15 42 -6 13 -13 32 -21 42 -19 10 2 28 -7
41 -19 16 -16 34 -23 63 -23 27 0 40 -4 40 -14 0 -10 33 -15 148 -20 169 -8
206 -18 197 -56 -6 -25 -50 -73 -76 -82 -11 -4 -12 -9 -1 -27 10 -17 9 -29 -7
-71 -46 -120 -140 -223 -259 -282 l-69 -34 -157 314 -157 315 12 43 13 44 41
-40 c22 -22 47 -40 55 -40z m40 55 c-7 -8 -16 -15 -21 -15 -5 0 -1 9 8 20 9
11 19 17 21 15 3 -3 -1 -11 -8 -20z m390 8 c0 -15 -23 -43 -35 -43 -9 0 -15
-14 -18 -37 -3 -34 -4 -33 -5 10 -2 60 11 87 38 80 11 -3 20 -7 20 -10z m-844
-34 c-2 -34 -7 -44 -30 -56 l-27 -14 3 37 c2 21 8 39 14 41 7 2 10 -6 6 -23
-3 -19 -1 -25 7 -20 6 4 11 20 11 35 0 24 7 41 16 41 1 0 1 -19 0 -41z m904
14 c0 -2 -5 -13 -10 -24 -13 -23 -35 -26 -26 -3 5 14 4 15 -9 4 -17 -14 -19
-7 -5 20 6 12 17 16 30 13 11 -3 20 -7 20 -10z m-372 -11 c6 -18 -15 -14 -22
4 -4 10 -1 14 6 12 6 -2 14 -10 16 -16z m582 -11 c19 -16 32 -33 28 -37 -10
-9 -69 16 -63 26 3 5 0 12 -6 16 -7 4 -9 3 -5 -4 6 -10 -69 -82 -86 -82 -10 0
-10 51 0 65 8 11 72 44 87 44 6 0 26 -13 45 -28z m-1080 -14 c0 -5 -4 -5 -10
-2 -5 3 -10 14 -10 23 0 15 2 15 10 2 5 -8 10 -19 10 -23z m661 -24 c-9 -16
-10 -16 -11 4 0 12 3 30 7 40 7 16 8 16 11 -4 2 -12 -1 -30 -7 -40z m263 3
c-8 -51 -12 -56 -29 -32 -12 16 -12 21 1 33 19 19 18 29 -1 13 -12 -10 -15 -9
-15 7 0 26 7 32 31 26 16 -5 18 -11 13 -47z m401 33 c25 -11 45 -23 43 -25 -7
-7 -98 27 -98 37 0 12 1 12 55 -12z m-1435 -41 c-1 -28 -2 -30 -11 -15 -6 10
-8 25 -5 33 9 24 16 16 16 -18z m740 11 c0 -5 -12 -9 -27 -9 -27 1 -27 1 -9
15 19 14 36 12 36 -6z m160 -9 c0 -16 -4 -30 -10 -30 -5 0 -10 14 -10 30 0 17
5 30 10 30 6 0 10 -13 10 -30z m355 10 c0 -7 -6 -15 -12 -17 -8 -3 -13 4 -13
17 0 13 5 20 13 18 6 -3 12 -11 12 -18z m-311 4 c9 -3 16 -17 16 -31 0 -30
-20 -21 -21 10 -1 20 -2 20 -9 -3 l-8 -25 -1 28 c-1 29 0 30 23 21z m220 -57
c-3 -18 -12 -40 -18 -49 -11 -15 -14 -14 -39 11 l-26 28 36 26 c43 31 57 26
47 -16z m-1634 -58 c-25 -102 -29 -113 -36 -107 -3 3 4 43 16 89 25 102 29
113 36 107 3 -3 -4 -43 -16 -89z m640 89 c0 -2 -9 -30 -19 -63 -18 -56 -21
-60 -47 -57 -16 2 -29 4 -30 5 -1 1 1 17 3 35 4 22 13 36 27 42 12 4 28 15 35
24 11 13 31 22 31 14z m338 -304 c166 -331 176 -368 80 -278 -73 68 -135 116
-189 148 -34 19 -48 35 -56 61 -7 22 -8 37 -1 41 5 3 7 13 4 21 -7 16 20 74
40 86 14 8 8 37 -7 37 -5 0 -14 -11 -19 -25 -5 -14 -14 -25 -20 -25 -13 0 -13
17 0 25 9 6 15 55 6 55 -17 0 -36 -15 -36 -27 0 -8 -6 -13 -12 -11 -19 7 -19
70 0 98 9 14 17 30 18 35 1 16 26 65 33 65 3 0 75 -138 159 -306z m732 286 c0
-5 -14 -10 -31 -10 -17 0 -28 4 -24 10 3 6 17 10 31 10 13 0 24 -4 24 -10z
m-1845 -32 c-7 -31 -25 -63 -25 -43 0 12 23 75 28 75 2 0 1 -15 -3 -32z m789
-25 c-15 -48 -21 -60 -29 -52 -7 8 28 109 36 104 4 -3 1 -26 -7 -52z m1031 27
c17 -7 15 -9 -12 -9 -18 -1 -33 4 -33 9 0 12 17 12 45 0z m-953 -63 c-8 -30
-23 -31 -17 0 l5 28 -12 -25 c-8 -16 -20 -24 -30 -22 -21 4 -22 9 -7 50 l11
32 27 -23 c17 -13 26 -29 23 -40z m-200 23 c-4 -29 -16 -39 -25 -22 -6 10 11
52 21 52 5 0 7 -13 4 -30z m1133 10 c18 -8 17 -9 -7 -9 -16 -1 -28 4 -28 9 0
12 8 12 35 0z m-1175 -16 c0 -11 -5 -14 -16 -10 -9 3 -21 6 -27 6 -16 0 14 20
31 20 6 0 12 -7 12 -16z m-593 -35 c37 -23 34 -34 -12 -43 l-30 -6 29 14 c17
8 24 16 18 20 -7 4 -21 2 -32 -4 -13 -7 -20 -7 -20 0 0 5 8 10 17 10 15 0 14
2 -3 15 -29 22 -6 18 33 -6z m593 -1 c33 -6 60 -16 60 -21 0 -4 -8 -6 -17 -3
-10 2 -44 10 -75 16 -32 6 -58 16 -58 22 0 5 7 8 15 5 8 -4 41 -12 75 -19z
m1140 2 c0 -13 -11 -13 -30 0 -12 8 -11 10 8 10 12 0 22 -4 22 -10z m-1012
-25 c12 -12 -12 -45 -32 -45 -19 0 -23 5 -22 30 1 28 4 30 26 25 14 -4 27 -8
28 -10z m995 5 c8 0 8 -3 1 -10 -12 -12 -44 -3 -44 12 0 6 7 7 16 4 9 -3 21
-6 27 -6z m-1117 -21 c3 -5 -1 -9 -8 -9 -23 0 -58 12 -58 19 0 10 59 1 66 -10z
m234 11 c0 -5 -19 -10 -42 -10 -23 0 -38 -3 -34 -7 4 -4 22 -6 41 -5 19 2 35
-2 35 -8 0 -5 -22 -10 -50 -10 -47 0 -50 2 -50 25 0 23 3 25 50 25 28 0 50 -4
50 -10z m-890 -4 c0 -3 -4 -8 -10 -11 -5 -3 -10 -1 -10 4 0 6 5 11 10 11 6 0
10 -2 10 -4z m618 -68 c-11 -16 -27 -32 -34 -35 -8 -3 -12 -9 -9 -13 3 -5 1
-11 -5 -15 -5 -3 -10 3 -10 13 0 27 -27 36 -35 11 -4 -10 -11 -19 -17 -19 -6
0 -7 7 -3 18 4 9 8 23 8 30 1 16 17 15 37 -3 17 -15 50 -11 50 6 0 4 -6 6 -12
4 -7 -3 -21 8 -30 24 -20 37 -8 43 44 23 l37 -15 -21 -29z m92 52 c0 -5 -9
-10 -20 -10 -11 0 -20 5 -20 10 0 6 9 10 20 10 11 0 20 -4 20 -10z m1040 -15
c0 -16 -9 -19 -34 -9 -20 8 -11 24 15 24 10 0 19 -7 19 -15z m-1686 -17 c21
-5 60 -6 85 -3 34 5 42 4 31 -4 -33 -23 -190 -3 -190 25 0 3 8 3 18 -1 9 -4
35 -11 56 -17z m1708 -28 c15 0 28 -4 28 -10 0 -5 -10 -10 -22 -10 -29 0 -108
36 -108 48 0 6 17 1 37 -9 21 -10 50 -19 65 -19z m-1762 -3 c0 -7 -5 -18 -11
-24 -8 -8 5 -14 47 -23 81 -17 85 -18 39 -19 -48 -1 -125 32 -125 53 0 33 11
46 31 35 10 -5 19 -15 19 -22z m714 27 c9 -3 16 -12 16 -20 0 -17 -40 -19 -41
-1 0 10 -2 10 -6 0 -8 -20 -23 -15 -23 7 0 20 22 26 54 14z m59 -1 c-7 -2 -13
-16 -13 -29 0 -17 6 -24 20 -24 11 0 20 -4 20 -10 0 -18 -39 -10 -50 10 -14
26 -4 60 18 59 11 0 12 -3 5 -6z m137 -8 c10 -12 10 -18 0 -29 -14 -18 -40
-10 -40 13 0 32 20 40 40 16z m-431 -16 c-16 -10 -23 -4 -14 10 3 6 11 8 17 5
6 -4 5 -9 -3 -15z m367 11 c8 0 14 -5 14 -11 0 -6 -7 -9 -15 -5 -9 3 -15 0
-15 -9 0 -8 -4 -15 -10 -15 -5 0 -10 9 -10 20 0 18 -3 19 -20 10 -12 -6 -20
-7 -20 -1 0 11 29 20 48 15 8 -2 20 -4 28 -4z m-717 -14 c35 4 35 4 8 -7 -30
-12 -117 -4 -117 11 0 4 16 4 36 0 20 -5 53 -6 73 -4z m71 10 c0 -3 -4 -8 -10
-11 -5 -3 -10 -1 -10 4 0 6 5 11 10 11 6 0 10 -2 10 -4z m420 -86 c-21 -42
-36 -60 -45 -56 -8 3 -17 1 -20 -4 -3 -5 -21 -2 -40 7 -19 9 -32 20 -29 25 3
4 15 1 27 -7 12 -8 25 -15 29 -15 4 0 19 23 34 51 14 28 28 49 30 46 3 -3 -4
-24 -16 -47 -12 -23 -19 -44 -16 -47 2 -3 19 23 36 57 17 34 34 60 36 57 3 -3
-9 -33 -26 -67z m333 45 c-3 -8 -10 -15 -15 -15 -6 0 -5 -7 2 -15 11 -13 10
-14 -4 -9 -19 7 -19 6 -6 39 5 14 14 24 20 20 5 -3 7 -12 3 -20z m-806 3 c-16
-10 -117 -10 -117 0 0 4 29 7 64 7 36 0 59 -3 53 -7z m339 -9 c-1 -29 21 -36
29 -10 3 12 11 21 17 21 16 0 -17 -45 -36 -48 -18 -4 -31 20 -22 43 8 21 13
19 12 -6z m1219 11 c3 -5 15 -10 26 -10 24 0 24 -6 -3 -47 -29 -42 -38 -42
-38 1 0 19 -4 38 -10 41 -5 3 -10 10 -10 16 0 12 27 12 35 -1z m-1005 -10 c0
-5 -10 -10 -22 -10 -19 0 -20 2 -8 10 19 13 30 13 30 0z m193 -52 l6 -37 -45
27 c-24 15 -43 31 -41 37 6 17 44 17 50 1 7 -19 -4 -21 -21 -4 -6 6 -14 9 -17
7 -2 -3 9 -13 24 -22 l29 -17 -5 32 c-3 21 -1 29 5 23 5 -5 12 -27 15 -47z
m777 3 c0 -59 -126 -199 -229 -254 -72 -40 -75 -27 -4 21 98 67 190 179 209
255 8 33 24 18 24 -22z m-1200 -12 c0 -5 -11 -2 -25 7 -14 9 -25 20 -25 25 0
5 11 2 25 -7 14 -9 25 -20 25 -25z m270 16 c0 -9 -7 -30 -16 -46 -8 -17 -13
-33 -10 -36 6 -6 36 63 36 83 0 8 4 14 9 14 16 0 -18 -99 -55 -167 -19 -35
-37 -63 -39 -63 -3 0 -4 21 -4 48 1 26 3 39 6 30 2 -10 8 -18 13 -18 5 0 5 12
0 28 -14 45 -18 132 -6 132 7 0 10 -20 9 -52 -1 -50 0 -46 13 30 3 23 10 32
24 32 11 0 20 -7 20 -15z m-300 -61 c39 -26 70 -54 70 -62 0 -13 -3 -12 -13 2
-13 17 -17 14 -58 -40 -32 -43 -52 -60 -72 -62 -15 -2 -27 1 -27 7 0 5 12 11
27 13 20 2 35 16 60 58 20 32 25 43 11 27 -44 -53 -70 -82 -58 -64 7 9 11 19
9 20 -2 2 -18 13 -35 25 -29 20 -32 20 -36 4 -3 -9 -1 -26 3 -37 4 -11 8 -14
8 -7 1 7 6 10 12 7 7 -5 3 -16 -12 -31 -12 -13 -26 -21 -32 -17 -5 3 -3 10 7
15 14 8 14 12 -3 47 -18 35 -18 40 -5 67 18 33 54 74 66 74 4 0 40 -21 78 -46z
m492 21 c4 -20 2 -23 -8 -14 -7 6 -10 17 -7 25 7 20 10 18 15 -11z m-139 -37
c-11 -124 -51 -243 -113 -332 -29 -43 -31 -45 -48 -28 -16 16 -15 20 22 75 41
62 63 72 26 13 -12 -20 -17 -36 -11 -36 17 0 59 92 45 97 -8 3 -6 18 6 51 10
26 24 76 31 112 11 53 14 61 20 40 6 -20 7 -17 8 18 1 23 5 42 10 42 4 0 6
-24 4 -52z m250 -80 c15 -11 27 -26 27 -34 0 -10 -19 -5 -70 21 -46 23 -70 31
-70 22 0 -7 39 -32 86 -55 l86 -43 -6 27 c-6 24 1 20 65 -37 92 -82 131 -129
135 -163 2 -23 -3 -30 -31 -42 -46 -19 -54 -18 -47 8 3 12 7 17 10 10 5 -16
22 -5 22 14 0 22 -29 17 -63 -12 -41 -34 -49 -13 -11 27 15 16 26 31 23 33 -2
3 -38 9 -79 14 l-75 8 45 11 45 11 -40 1 -40 1 45 31 45 31 -80 -6 c-108 -9
-146 -16 -139 -28 3 -5 25 -9 48 -7 75 3 85 -2 63 -37 -11 -19 31 -48 72 -49
36 0 37 -1 27 -27 -8 -22 -6 -31 9 -47 13 -15 21 -18 31 -10 7 6 14 6 18 1 8
-13 -41 -44 -61 -40 -9 2 -20 17 -25 34 -5 21 -17 35 -37 44 -55 23 -63 -5
-34 -131 13 -61 14 -86 5 -155 -16 -124 -60 -193 -149 -239 l-48 -24 -5 42
c-3 23 -11 52 -18 63 -14 26 -79 84 -93 84 -6 0 3 16 20 36 71 80 111 173 111
255 0 46 -16 99 -30 99 -14 0 -37 -37 -55 -90 -25 -74 -88 -172 -138 -215 -46
-40 -63 -45 -47 -14 16 28 4 69 -18 69 -10 0 -31 -13 -47 -30 -15 -16 -40 -32
-54 -35 -14 -3 -62 -35 -106 -70 -84 -67 -94 -72 -126 -54 -17 9 -34 1 -107
-47 -129 -84 -157 -117 -172 -194 -13 -68 4 -92 59 -86 20 2 70 7 111 11 41 4
93 9 115 12 103 13 525 8 680 -9 307 -33 277 -36 -412 -37 -588 -1 -662 1
-657 14 9 22 -15 73 -37 80 -12 4 -19 16 -19 31 0 19 34 59 136 160 74 75 142
150 149 168 15 35 45 50 150 76 28 7 54 17 59 21 6 5 15 -4 23 -21 6 -17 20
-33 29 -37 31 -12 106 41 229 162 134 132 163 171 196 260 13 33 23 61 24 63
1 1 12 -1 24 -6 21 -7 21 -9 7 -21 -24 -20 -2 -41 42 -41 42 0 188 54 157 58
-11 1 -59 -9 -107 -22 -49 -13 -88 -21 -88 -18 0 4 27 18 60 32 33 14 60 28
60 33 0 4 -34 7 -76 7 -66 0 -75 2 -72 17 2 10 14 24 28 31 23 13 23 13 3 9
-19 -4 -23 -1 -23 19 0 30 5 30 57 0 24 -14 45 -21 48 -16 3 5 -17 22 -44 37
-28 16 -51 32 -51 36 0 5 25 -5 56 -23 31 -17 58 -29 61 -26 3 2 -22 19 -56
35 -34 17 -61 38 -61 46 0 13 146 -63 223 -117z m-399 70 c-7 -53 -40 -161
-61 -203 -38 -74 -123 -182 -202 -258 l-87 -82 -162 -49 c-113 -34 -185 -62
-237 -93 l-76 -44 -26 31 c-14 17 -51 44 -81 59 l-56 28 58 37 c32 20 134 75
227 121 93 47 194 100 224 120 30 19 55 32 55 29 0 -11 -23 -50 -43 -71 -29
-32 -15 -29 49 12 49 32 55 33 49 15 -6 -19 1 -16 49 16 31 20 66 52 77 71 11
18 25 31 30 28 5 -4 6 2 2 11 -4 11 -2 15 4 11 6 -4 10 1 9 11 0 9 5 16 12 14
8 -1 11 2 7 8 -3 5 7 27 24 47 16 21 33 51 37 66 7 29 9 31 55 41 l26 6 -14
-48 c-8 -26 -21 -61 -28 -79 -8 -18 -10 -35 -5 -38 14 -9 70 167 70 222 0 2 5
3 10 3 6 0 8 -17 4 -42z m-74 4 c0 -4 -11 -8 -25 -8 -14 0 -25 4 -25 8 0 4 11
8 25 8 14 0 25 -4 25 -8z m-110 -87 c-22 -36 -18 -49 6 -17 7 9 14 12 14 5 0
-16 -28 -43 -46 -43 -12 0 -12 5 2 33 18 35 34 57 41 57 3 0 -5 -16 -17 -35z
m-234 -35 c-28 -43 -28 -73 1 -84 23 -9 31 4 10 15 -9 6 -17 18 -17 27 0 15 2
15 11 2 9 -12 10 -12 5 3 -8 25 4 43 16 26 7 -11 8 -11 7 1 -1 8 3 26 10 40
10 23 11 21 6 -16 -6 -50 12 -80 44 -71 23 6 27 -3 10 -20 -6 -6 -19 -9 -28
-6 -12 4 -13 3 -2 -5 7 -5 9 -12 4 -15 -11 -7 -28 4 -36 23 -4 9 -6 4 -4 -10
1 -19 8 -26 29 -28 22 -3 31 4 50 37 20 36 38 52 38 35 0 -17 -63 -94 -77 -94
-22 0 -110 57 -117 76 -6 16 5 42 37 86 31 42 33 24 3 -22z m-506 -26 c88 -36
219 -44 322 -19 40 9 75 21 78 25 3 4 20 12 39 18 33 12 33 11 18 -6 -25 -28
-21 -55 16 -91 48 -50 74 -64 114 -63 29 1 33 -1 24 -12 -7 -8 -28 -16 -49
-18 -28 -4 -40 0 -53 16 -17 20 -17 20 -70 -13 -54 -34 -88 -52 -292 -151
-128 -62 -230 -133 -225 -158 2 -9 14 -22 26 -28 22 -11 22 -12 6 -28 -16 -16
-18 -16 -45 9 -15 15 -42 55 -61 89 -32 60 -33 63 -33 186 0 114 2 130 26 180
30 62 65 104 83 96 6 -2 40 -17 76 -32z m963 -30 c-10 -22 -35 -65 -55 -96
-21 -31 -38 -61 -38 -65 0 -16 -137 -140 -185 -168 l-50 -29 66 70 c86 90 152
181 190 261 25 52 34 63 49 58 10 -3 21 -1 25 5 16 26 14 -1 -2 -36z m-279
-23 c-26 -43 -52 -76 -58 -71 -7 8 58 109 67 103 4 -2 0 -17 -9 -32z m903 -38
c-9 -9 -20 -13 -24 -9 -4 4 -1 11 7 16 25 16 35 11 17 -7z m-492 -287 c-20
-61 -64 -127 -110 -163 -43 -34 -44 -49 -4 -57 95 -19 156 -157 80 -181 -29
-9 -26 -25 4 -25 82 0 207 85 250 170 46 92 51 254 11 371 -15 44 -15 45 20
23 16 -11 23 -23 19 -33 -4 -9 3 -22 16 -32 l22 -17 -21 -11 c-20 -11 -21 -14
-8 -39 7 -15 16 -52 20 -82 12 -90 15 -97 40 -93 19 4 24 -2 34 -34 6 -21 14
-57 18 -80 3 -23 13 -44 21 -48 11 -4 14 -14 10 -33 -3 -15 0 -35 8 -46 10
-13 11 -25 4 -43 -5 -13 -9 -45 -9 -70 l0 -45 -32 6 c-188 34 -563 58 -773 51
-156 -6 -431 -31 -447 -41 -15 -10 -8 61 11 102 20 43 69 88 165 148 54 35 59
36 76 21 23 -21 36 -14 145 70 44 34 94 65 111 69 18 4 37 18 48 36 16 28 36
40 36 23 0 -16 -43 -79 -68 -99 -41 -33 -10 -38 54 -8 107 51 210 184 246 320
l13 49 3 -64 c2 -41 -3 -83 -13 -115z m-215 114 c-30 -42 -115 -117 -181 -160
-71 -46 -75 -47 -81 -22 -4 14 8 25 51 48 31 16 92 63 136 105 49 47 83 73 87
66 4 -6 -2 -23 -12 -37z m750 33 c-1 -11 -210 -112 -210 -102 0 10 80 58 145
86 55 24 65 27 65 16z m16 -108 c20 -64 16 -102 -5 -48 -10 27 -11 27 -5 -6 5
-25 3 -32 -7 -29 -8 3 -13 15 -11 26 2 12 -2 22 -8 22 -7 0 -9 -7 -6 -16 4
-12 1 -14 -14 -9 -18 6 -19 4 -11 -19 9 -23 7 -25 -36 -40 -61 -21 -60 -21
-67 20 -4 19 -9 41 -12 47 -4 11 59 45 114 62 18 5 23 12 18 28 -5 22 -5 22
11 2 15 -20 15 -20 8 3 -3 12 -2 22 2 22 5 0 18 -29 29 -65z m-218 -32 c-6 -7
-12 -13 -13 -13 -2 0 -5 6 -8 13 -3 7 3 13 14 13 13 0 15 -3 7 -13z m31 -73
l12 -59 72 26 c40 14 84 32 99 39 17 9 29 10 33 4 9 -15 -196 -97 -214 -85 -5
2 -11 24 -15 47 -4 24 -9 53 -13 66 -3 12 -1 22 5 22 5 0 15 -27 21 -60z m156
20 c3 -5 -1 -10 -9 -10 -9 0 -16 5 -16 10 0 6 4 10 9 10 6 0 13 -4 16 -10z
m25 -75 c0 -3 -17 -21 -39 -40 -38 -35 -57 -81 -41 -100 5 -5 8 -14 7 -20 -1
-5 8 -14 21 -20 26 -11 27 -18 7 -35 -17 -14 -10 -59 13 -76 11 -8 14 -22 10
-51 -7 -49 3 -67 30 -59 14 5 21 1 25 -14 3 -11 13 -20 24 -20 10 0 36 -9 58
-20 l39 -20 -127 0 -128 0 5 32 c13 84 17 166 8 172 -6 3 -8 15 -5 27 3 12 -2
31 -14 47 -19 25 -33 78 -37 130 -1 19 9 26 64 46 71 26 80 29 80 21z m26 -96
l11 -49 -39 -11 c-22 -5 -45 -8 -51 -6 -7 3 0 8 16 12 15 4 27 14 27 21 0 12
-4 12 -21 4 -11 -6 -25 -9 -32 -7 -7 3 3 11 21 18 17 8 32 17 32 21 0 10 -3
10 -36 -2 -24 -9 -25 -9 -14 5 7 8 19 15 26 15 8 0 14 8 14 18 1 11 6 6 15
-13 l15 -30 -6 35 c-9 52 9 26 22 -31z m23 -121 c5 -21 6 -38 1 -38 -4 0 -13
17 -19 38 l-11 37 5 -41 c5 -38 3 -42 -21 -48 -15 -4 -29 -4 -32 -1 -3 3 4 8
16 12 12 3 22 12 22 20 0 11 -4 11 -21 3 -11 -7 -23 -9 -26 -6 -3 3 6 11 20
17 15 7 24 16 20 22 -3 6 2 16 13 24 10 7 20 10 21 6 1 -4 6 -25 12 -45z m-5
-70 c-4 -7 -3 -8 5 -4 7 4 20 -2 31 -16 24 -29 25 -38 2 -38 -9 0 -34 -11 -55
-25 -20 -14 -37 -21 -37 -16 0 13 63 61 81 61 12 0 11 2 -1 10 -8 5 -17 5 -20
0 -3 -5 -19 -11 -35 -15 l-30 -7 24 20 c13 11 21 24 17 31 -4 6 -1 11 9 11 10
0 13 -5 9 -12z m58 -98 c-16 -10 -32 -24 -35 -32 -2 -7 -8 -9 -13 -5 -12 11
53 70 67 61 6 -3 -2 -14 -19 -24z m63 -13 c24 -19 3 -32 -27 -17 -21 10 -22
10 -5 -3 24 -19 5 -32 -22 -15 -19 11 -19 14 -4 30 19 22 33 23 58 5z m101
-47 c38 -15 28 -17 -46 -11 -57 5 -63 8 -45 18 20 13 42 11 91 -7z"/>
<path d="M1529 2568 l-22 -33 31 29 c34 32 37 36 23 36 -5 0 -20 -15 -32 -32z"/>
<path d="M1555 2461 c-3 -6 -27 -22 -53 -36 -26 -13 -41 -24 -33 -25 9 0 11
-8 6 -27 l-7 -28 32 30 c39 37 74 84 67 91 -3 3 -8 0 -12 -5z"/>
<path d="M1522 2372 c-30 -25 -43 -52 -24 -52 9 0 65 70 60 75 -2 2 -18 -9
-36 -23z"/>
<path d="M2205 2551 c23 -26 82 -71 72 -54 -4 6 -26 26 -50 44 -28 23 -36 26
-22 10z"/>
<path d="M2290 2472 c0 -5 14 -21 32 -38 l31 -29 -28 38 c-28 38 -35 44 -35
29z"/>
<path d="M2360 2392 c0 -5 10 -17 22 -28 l21 -19 -18 28 c-18 28 -25 33 -25
19z"/>
<path d="M878 2243 c-32 -14 -58 -30 -58 -34 0 -5 27 4 60 21 33 17 60 32 60
35 0 6 4 8 -62 -22z"/>
<path d="M1248 2283 c7 -3 16 -2 19 1 4 3 -2 6 -13 5 -11 0 -14 -3 -6 -6z"/>
<path d="M1290 2270 c8 -5 20 -10 25 -10 6 0 3 5 -5 10 -8 5 -19 10 -25 10 -5
0 -3 -5 5 -10z"/>
<path d="M880 2170 c-19 -11 -29 -19 -23 -20 7 0 27 9 45 20 42 25 24 25 -22
0z"/>
<path d="M1170 2220 c12 -8 12 -10 1 -10 -8 0 -12 -2 -9 -5 3 -3 13 -2 22 1
14 5 15 9 4 15 -7 5 -17 9 -23 9 -5 0 -3 -5 5 -10z"/>
<path d="M1208 2206 c-17 -13 -14 -26 5 -26 6 0 7 3 4 7 -4 3 -2 12 4 20 14
16 9 16 -13 -1z"/>
<path d="M1240 2149 c0 -5 5 -7 10 -4 6 3 10 8 10 11 0 2 -4 4 -10 4 -5 0 -10
-5 -10 -11z"/>
<path d="M1025 2030 c10 -11 25 -20 34 -20 12 0 9 6 -9 20 -33 26 -48 26 -25
0z"/>
<path d="M2523 2083 c9 -2 23 -2 30 0 6 3 -1 5 -18 5 -16 0 -22 -2 -12 -5z"/>
<path d="M1471 2073 c7 -10 15 -20 16 -22 2 -2 3 5 3 17 0 14 -6 22 -16 22
-14 0 -15 -3 -3 -17z"/>
<path d="M852 1970 c0 -14 2 -19 5 -12 2 6 2 18 0 25 -3 6 -5 1 -5 -13z"/>
<path d="M821 1964 c0 -11 3 -14 6 -6 3 7 2 16 -1 19 -3 4 -6 -2 -5 -13z"/>
<path d="M2435 1800 c-16 -11 -25 -20 -19 -20 11 0 64 39 54 40 -3 0 -18 -9
-35 -20z"/>
<path d="M1437 1697 c-11 -29 -9 -43 4 -30 6 6 9 19 7 29 -3 18 -4 18 -11 1z"/>
<path d="M1455 1600 c3 -5 8 -10 11 -10 2 0 4 5 4 10 0 6 -5 10 -11 10 -5 0
-7 -4 -4 -10z"/>
<path d="M1288 1558 c5 -5 16 -8 23 -6 8 3 3 7 -10 11 -17 4 -21 3 -13 -5z"/>
<path d="M1416 1334 c-4 -9 -4 -19 -1 -22 2 -3 7 3 11 12 4 9 4 19 1 22 -2 3
-7 -3 -11 -12z"/>
<path d="M1063 1398 c-25 -28 -43 -62 -43 -80 1 -7 7 -2 15 12 8 14 14 21 15
16 0 -5 8 -1 19 8 18 16 20 16 39 -8 16 -22 22 -23 31 -12 9 11 6 19 -19 36
l-30 22 -20 -24 c-26 -31 -25 -14 1 23 24 35 21 38 -8 7z"/>
<path d="M1474 1280 c-7 -30 -10 -57 -9 -59 6 -6 26 80 23 97 -2 9 -8 -8 -14
-38z"/>
<path d="M1671 1316 c10 -9 89 -46 89 -41 0 5 -75 45 -86 45 -4 0 -5 -2 -3 -4z"/>
<path d="M1555 1270 c-13 -6 -15 -9 -5 -9 8 0 22 4 30 9 18 12 2 12 -25 0z"/>
<path d="M1270 1298 c0 -7 -11 -39 -24 -70 -29 -70 -13 -66 20 6 26 55 30 76
14 76 -5 0 -10 -6 -10 -12z"/>
<path d="M1260 1150 c0 -5 5 -10 10 -10 6 0 10 5 10 10 0 6 -4 10 -10 10 -5 0
-10 -4 -10 -10z"/>
<path d="M1206 1075 c-57 -87 -185 -209 -240 -230 -25 -10 -49 -15 -53 -12 -3
4 6 11 19 16 14 5 36 25 49 43 l24 33 -40 -31 c-22 -18 -48 -41 -59 -53 -10
-11 -55 -32 -100 -46 -91 -29 -266 -112 -266 -126 0 -12 -5 -14 90 34 47 23
150 63 229 87 l144 45 79 73 c70 67 178 196 178 215 0 20 -21 1 -54 -48z"/>
<path d="M945 934 c-30 -23 -185 -113 -308 -178 -60 -32 -107 -59 -105 -61 2
-2 61 26 133 61 71 36 137 63 146 62 8 -2 49 27 90 64 69 63 90 87 44 52z"/>
<path d="M574 831 c-116 -58 -154 -81 -141 -86 9 -4 24 -2 32 5 8 7 76 45 152
86 76 40 133 74 127 74 -6 0 -82 -36 -170 -79z"/>
<path d="M650 827 c-41 -19 -97 -46 -125 -61 -39 -21 -44 -26 -22 -23 26 4 26
3 12 -13 -20 -22 -21 -47 0 -27 8 8 64 45 125 82 60 37 110 69 110 71 0 10
-32 1 -100 -29z"/>
<path d="M2056 875 c4 -8 8 -15 10 -15 2 0 4 7 4 15 0 8 -4 15 -10 15 -5 0 -7
-7 -4 -15z"/>
<path d="M1928 800 c2 -17 9 -33 15 -37 6 -4 8 2 4 18 -4 13 -7 30 -7 37 0 6
-4 12 -8 12 -5 0 -7 -14 -4 -30z"/>
<path d="M2080 603 c0 -4 5 -15 10 -23 8 -13 10 -13 10 2 0 9 -4 20 -10 23 -5
3 -10 3 -10 -2z"/>
<path d="M1210 2780 c-9 -6 -10 -10 -3 -10 6 0 15 5 18 10 8 12 4 12 -15 0z"/>
<path d="M1248 2783 c7 -3 16 -2 19 1 4 3 -2 6 -13 5 -11 0 -14 -3 -6 -6z"/>
<path d="M1805 2762 c33 -10 78 -26 99 -35 22 -10 41 -16 43 -13 7 6 -121 54
-163 60 -29 5 -23 1 21 -12z"/>
<path d="M1130 2760 c-13 -9 -13 -10 0 -9 8 0 24 4 35 9 20 9 20 9 0 9 -11 0
-27 -4 -35 -9z"/>
<path d="M1073 2740 c-34 -14 -28 -21 7 -9 17 6 30 13 30 15 0 6 -12 4 -37 -6z"/>
<path d="M982 2703 c-18 -8 -31 -18 -28 -20 2 -2 21 5 43 16 45 24 33 28 -15
4z"/>
<path d="M1980 2696 c0 -2 7 -7 16 -10 8 -3 12 -2 9 4 -6 10 -25 14 -25 6z"/>
<path d="M2040 2666 c0 -2 7 -7 16 -10 8 -3 12 -2 9 4 -6 10 -25 14 -25 6z"/>
<path d="M875 2650 c-3 -5 -2 -10 4 -10 5 0 13 5 16 10 3 6 2 10 -4 10 -5 0
-13 -4 -16 -10z"/>
<path d="M540 2392 c-19 -25 -40 -50 -45 -56 -18 -18 -106 -168 -102 -172 2
-2 23 29 47 68 23 40 65 102 92 136 27 35 48 65 46 67 -2 2 -19 -18 -38 -43z"/>
<path d="M375 2139 c-4 -6 -5 -12 -2 -15 2 -3 7 2 10 11 7 17 1 20 -8 4z"/>
<path d="M339 2064 c-11 -26 -18 -49 -16 -51 2 -2 14 19 25 47 11 27 19 50 16
50 -3 0 -14 -21 -25 -46z"/>
<path d="M291 1914 c0 -11 3 -14 6 -6 3 7 2 16 -1 19 -3 4 -6 -2 -5 -13z"/>
<path d="M271 1834 c0 -11 3 -14 6 -6 3 7 2 16 -1 19 -3 4 -6 -2 -5 -13z"/>
<path d="M261 1774 c0 -11 3 -14 6 -6 3 7 2 16 -1 19 -3 4 -6 -2 -5 -13z"/>
<path d="M253 1685 c0 -22 2 -30 4 -17 2 12 2 30 0 40 -3 9 -5 -1 -4 -23z"/>
<path d="M2682 1660 c0 -14 2 -19 5 -12 2 6 2 18 0 25 -3 6 -5 1 -5 -13z"/>
<path d="M2691 1594 c0 -11 3 -14 6 -6 3 7 2 16 -1 19 -3 4 -6 -2 -5 -13z"/>
<path d="M2692 1540 c0 -19 2 -27 5 -17 2 9 2 25 0 35 -3 9 -5 1 -5 -18z"/>
<path d="M253 1470 c0 -30 2 -43 4 -27 2 15 2 39 0 55 -2 15 -4 2 -4 -28z"/>
<path d="M2676 1374 c-4 -31 -5 -59 -2 -61 2 -3 8 21 11 52 4 31 5 58 3 61 -3
2 -8 -21 -12 -52z"/>
<path d="M262 1390 c0 -14 2 -19 5 -12 2 6 2 18 0 25 -3 6 -5 1 -5 -13z"/>
<path d="M268 1333 c5 -21 7 -23 10 -9 2 10 0 22 -6 28 -6 6 -7 0 -4 -19z"/>
<path d="M281 1284 c0 -11 3 -14 6 -6 3 7 2 16 -1 19 -3 4 -6 -2 -5 -13z"/>
<path d="M2662 1275 c0 -16 2 -22 5 -12 2 9 2 23 0 30 -3 6 -5 -1 -5 -18z"/>
<path d="M2651 1224 c0 -11 3 -14 6 -6 3 7 2 16 -1 19 -3 4 -6 -2 -5 -13z"/>
<path d="M2626 1142 c-10 -33 -31 -88 -47 -122 -33 -70 -38 -89 -11 -45 26 42
85 201 80 215 -2 7 -12 -15 -22 -48z"/>
<path d="M2504 874 c-44 -76 -176 -238 -223 -275 l-31 -25 14 -44 14 -45 -4
44 c-4 42 -2 46 60 111 75 80 131 152 179 232 19 32 38 54 42 50 5 -4 5 -1 1
6 -4 6 -9 12 -10 12 -2 0 -21 -30 -42 -66z"/>
<path d="M396 568 c39 -43 98 -97 105 -98 3 0 -24 29 -59 65 -68 68 -98 89
-46 33z"/>
<path d="M2281 454 c0 -11 3 -14 6 -6 3 7 2 16 -1 19 -3 4 -6 -2 -5 -13z"/>
</g>
</svg>
