<?xml version="1.0" standalone="no"?>
<!DOCTYPE svg PUBLIC "-//W3C//DTD SVG 20010904//EN"
 "http://www.w3.org/TR/2001/REC-SVG-20010904/DTD/svg10.dtd">
<svg version="1.0" xmlns="http://www.w3.org/2000/svg"
 width="300.000000pt" height="300.000000pt" viewBox="0 0 300.000000 300.000000"
 preserveAspectRatio="xMidYMid meet">
<metadata>
Created by potrace 1.10, written by Peter Selinger 2001-2011
</metadata>
<g transform="translate(0.000000,300.000000) scale(0.100000,-0.100000)"
fill="#000000" stroke="none">
<path d="M1088 2624 c7 -38 -17 -73 -73 -105 -67 -39 -79 -38 -59 5 11 23 14
45 10 70 -10 50 -26 55 -26 7 0 -56 -30 -86 -141 -140 -80 -39 -101 -55 -144
-108 -27 -34 -53 -62 -56 -62 -4 -1 0 18 8 41 9 25 10 45 5 50 -6 6 -14 -3
-21 -24 -15 -43 -50 -90 -51 -66 0 9 -5 29 -11 45 l-11 28 -13 -42 c-7 -22
-21 -54 -33 -70 -11 -15 -27 -44 -35 -64 -15 -38 -37 -60 -37 -38 0 24 -40
-25 -66 -80 -32 -68 -51 -91 -76 -91 -10 0 -18 -5 -18 -11 0 -6 -9 -22 -19
-35 -18 -23 -19 -28 -5 -66 15 -44 31 -68 45 -68 5 0 9 7 9 15 0 33 33 2 83
-79 22 -35 16 -87 -14 -117 -27 -27 -16 -36 17 -14 l27 17 -5 -66 c-3 -36 -2
-66 2 -66 7 0 30 43 48 90 l9 25 17 -30 16 -30 -2 45 c-1 25 2 51 6 58 4 7 2
12 -7 12 -8 0 -19 6 -25 13 -9 10 -3 12 26 9 34 -3 36 -2 18 12 -17 14 -17 16
-2 31 21 22 21 22 -13 17 -19 -3 -30 1 -34 12 -4 9 -2 16 4 16 6 0 9 7 5 15
-4 11 2 15 21 15 21 0 24 3 15 12 -7 7 -12 16 -12 20 0 12 38 10 62 -3 29 -16
31 -6 6 26 l-22 28 30 -7 c36 -9 64 -40 64 -73 0 -34 -31 -83 -52 -83 -11 0
-18 -7 -18 -20 0 -36 34 -22 65 28 22 34 30 58 29 89 -1 31 3 43 15 46 11 2 7
8 -14 20 l-30 16 31 1 c42 0 66 -29 72 -88 6 -64 -10 -95 -104 -207 -132 -158
-174 -253 -174 -401 0 -107 25 -177 86 -239 48 -49 152 -105 197 -105 20 0 27
-5 27 -19 0 -11 -4 -22 -9 -25 -5 -3 -12 -27 -16 -53 -4 -27 -10 -52 -15 -58
-4 -5 -11 -25 -15 -44 -4 -18 -16 -49 -27 -67 -11 -19 -17 -41 -14 -49 9 -25
-31 -58 -62 -50 -14 3 -57 8 -93 10 -52 3 -76 -1 -105 -16 -21 -10 -44 -19
-50 -19 -21 0 -74 -69 -74 -97 0 -25 1 -25 18 -10 25 23 32 21 32 -8 0 -14 5
-25 10 -25 6 0 10 7 10 15 0 14 29 35 49 35 6 0 11 -11 11 -25 0 -30 4 -31 30
-5 26 26 50 26 50 0 0 -11 5 -20 10 -20 6 0 10 4 10 10 0 15 40 32 58 24 24
-10 194 -13 212 -4 8 5 34 5 58 0 44 -8 53 -1 27 20 -8 7 -15 27 -15 44 0 38
79 148 146 202 24 20 44 42 44 49 0 7 14 18 30 25 31 13 80 63 80 81 0 6 -9 7
-22 3 -21 -6 -21 -5 -9 10 14 16 63 46 76 46 3 0 -2 -14 -11 -32 -24 -46 -15
-126 20 -177 32 -46 112 -91 161 -91 19 0 39 -8 50 -20 10 -11 33 -23 52 -26
25 -5 31 -10 24 -17 -8 -8 -32 -5 -83 8 -102 26 -261 29 -309 4 -50 -25 -89
-74 -89 -112 l0 -30 23 21 c30 28 51 29 42 2 -6 -20 9 -28 20 -10 11 17 25 11
25 -11 0 -21 1 -21 25 5 27 29 51 35 41 10 -11 -27 5 -37 25 -15 25 27 49 27
49 1 0 -25 4 -25 39 1 26 19 32 20 65 8 27 -10 44 -10 65 -2 16 6 35 7 42 2
17 -10 248 -9 277 2 13 5 40 5 62 0 45 -10 50 -1 20 29 -19 19 -38 70 -26 70
3 0 27 -13 53 -29 113 -70 285 -103 421 -82 193 30 327 132 394 300 30 75 32
213 4 286 -39 103 -122 184 -222 214 -32 10 -52 21 -45 25 27 17 8 24 -26 9
-21 -8 -51 -19 -67 -24 -25 -7 -28 -6 -23 11 3 11 4 20 2 20 -2 0 -26 -16 -55
-35 -57 -38 -80 -44 -80 -19 0 11 -10 7 -37 -15 -39 -33 -68 -40 -76 -18 -3 9
-7 9 -19 -1 -21 -17 -32 0 -24 34 5 19 2 24 -11 24 -14 1 -11 6 12 25 17 14
26 25 21 25 -5 0 -3 7 4 15 7 8 22 15 33 15 11 0 17 3 14 7 -12 11 14 33 39
33 13 0 32 8 43 19 15 15 31 18 92 15 110 -4 149 -11 169 -29 10 -9 24 -14 29
-10 6 3 21 -1 33 -9 25 -18 42 -21 33 -6 -9 15 19 12 41 -5 22 -17 38 -20 29
-5 -10 16 38 12 63 -6 12 -8 22 -23 22 -32 0 -15 -2 -15 -10 -2 -7 12 -12 12
-21 3 -17 -17 7 -45 35 -41 17 2 21 10 20 40 -1 33 1 35 17 25 20 -12 49 -65
49 -89 0 -7 -7 -24 -16 -36 -24 -34 9 -29 36 6 18 22 21 36 18 81 -4 47 -10
59 -41 88 -25 22 -47 33 -67 33 -33 0 -36 6 -15 34 32 42 10 142 -36 167 -48
25 -139 1 -139 -37 0 -11 4 -12 19 -4 31 16 59 12 75 -12 35 -50 4 -108 -57
-108 -38 0 -62 13 -53 29 5 7 -5 11 -28 11 -42 0 -68 9 -60 21 4 8 -61 14
-131 12 -11 0 -22 3 -25 7 -9 14 -181 -29 -238 -60 -32 -17 -58 -26 -60 -20
-6 17 -22 11 -22 -9 0 -10 -16 -42 -35 -71 -19 -29 -35 -57 -35 -64 0 -6 -8
-2 -16 9 -14 18 -15 15 -9 -45 4 -36 8 -70 10 -77 2 -6 -1 -13 -8 -16 -15 -5
25 -68 68 -106 20 -17 29 -31 22 -34 -29 -10 11 -22 73 -21 59 0 66 -1 52 -12
-16 -12 -15 -13 3 -14 11 0 36 8 55 19 49 25 84 36 76 22 -11 -17 4 -13 53 16
29 17 46 22 49 15 2 -8 12 -8 32 3 25 13 29 13 45 -5 19 -21 41 -28 30 -10
-10 17 11 11 27 -7 28 -32 45 -87 43 -139 -3 -44 -9 -57 -44 -95 -38 -41 -41
-42 -41 -20 l0 25 -27 -27 c-45 -42 -145 -78 -110 -39 23 26 21 33 -6 23 -41
-16 -134 -24 -153 -13 -17 9 -16 11 8 17 14 4 36 17 47 29 l22 23 -58 7 c-124
14 -249 66 -159 66 20 0 36 3 36 8 0 10 -76 57 -130 80 -25 11 -52 27 -60 36
-13 16 -11 17 24 10 35 -6 37 -5 28 12 -19 35 -67 72 -134 104 -38 18 -68 35
-68 39 0 3 15 6 32 6 18 0 35 5 37 10 7 18 -85 57 -148 62 -68 6 -72 18 -9 28
39 7 41 8 23 21 -24 18 -78 32 -132 36 -67 5 -50 18 22 18 72 0 136 -20 215
-69 57 -35 76 -39 64 -13 -30 68 -4 182 52 232 38 33 70 38 100 15 30 -22 34
-18 34 33 0 63 21 92 66 92 45 0 71 -14 112 -59 l33 -36 -5 37 c-2 20 -15 63
-29 97 -21 51 -22 61 -9 66 36 14 129 -22 259 -101 44 -26 53 -10 15 29 -60
62 -81 158 -42 197 36 36 86 23 154 -40 l45 -41 3 27 c3 26 10 19 98 -84 52
-62 111 -140 130 -174 20 -35 40 -62 45 -60 25 7 -6 165 -56 292 -130 330
-295 522 -553 645 -92 44 -106 54 -87 60 34 10 109 -3 170 -31 70 -32 81 -30
46 6 -44 46 -130 84 -192 84 -29 0 -53 3 -53 7 0 10 -90 20 -180 22 -71 0
-230 -28 -293 -52 -16 -6 -33 -11 -39 -11 -33 0 98 93 170 120 55 21 43 31
-22 19 -71 -13 -149 -52 -242 -119 -46 -33 -88 -60 -94 -60 -7 0 0 16 14 35
47 62 3 40 -62 -31 -33 -36 -66 -63 -71 -59 -17 10 -13 47 9 90 22 44 21 51
-9 36 -36 -20 -73 -79 -78 -125 -6 -51 -26 -65 -55 -39 -20 18 -21 55 -3 96
13 30 -14 19 -35 -15 -26 -43 -26 -117 0 -168 21 -41 53 -66 71 -54 20 12 110
-95 152 -184 37 -77 42 -94 42 -162 0 -57 -6 -87 -23 -125 -39 -84 -117 -152
-201 -175 -36 -9 -47 -9 -67 5 -31 20 -31 41 0 47 19 4 22 1 18 -14 -5 -22 23
-25 32 -3 8 21 -3 45 -20 45 -9 0 -14 12 -14 35 0 20 -9 54 -21 76 -11 23 -18
43 -16 45 6 6 67 -64 67 -76 0 -6 5 -10 11 -10 19 0 1 78 -31 142 -17 32 -30
62 -30 65 0 4 18 -11 41 -32 l41 -40 -7 35 c-11 53 -44 111 -84 149 l-36 34
30 -7 c17 -4 38 -9 48 -12 9 -3 17 -1 17 4 0 12 -89 96 -120 112 l-23 12 30
13 c44 19 50 35 13 35 -43 0 -120 20 -120 32 0 5 12 25 26 44 29 38 24 41 -31
18 -20 -8 -41 -14 -46 -12 -18 6 112 128 164 154 125 63 174 136 137 205 -15
27 -28 24 -22 -7z m-3 -88 c-10 -14 -21 -26 -26 -26 -4 0 -17 -9 -28 -21 -11
-12 -24 -18 -30 -14 -6 3 -11 1 -11 -5 0 -6 -4 -9 -9 -6 -5 3 -12 -1 -15 -10
-3 -8 -10 -13 -15 -10 -5 3 -14 -1 -21 -9 -12 -14 -15 -14 -30 0 -16 14 -18
14 -23 0 -4 -8 -5 -21 -3 -27 1 -7 1 -10 -2 -5 -2 4 -13 12 -25 19 -22 11 -22
11 -3 -11 11 -11 16 -24 13 -28 -4 -3 -7 -2 -7 4 0 6 -7 14 -15 17 -14 5 -14
4 0 -16 8 -13 15 -27 15 -32 0 -6 -7 0 -16 12 -9 13 -26 27 -37 31 -20 7 -16
11 28 33 67 34 115 44 126 27 7 -11 9 -11 9 2 0 8 18 23 40 33 22 10 53 30 68
46 32 33 40 32 17 -4z m452 -46 c-44 -40 -61 -65 -83 -122 -31 -79 -113 -181
-114 -142 0 12 7 28 17 35 19 17 52 87 53 113 0 15 -3 16 -15 6 -9 -7 -19 -9
-23 -5 -4 4 4 15 18 24 13 9 47 35 75 57 45 37 114 84 123 84 2 0 -21 -23 -51
-50z m284 -4 c-12 -14 -171 -96 -187 -96 -4 0 1 10 12 21 19 22 19 22 -2 11
-11 -6 -27 -18 -34 -27 -7 -9 -23 -21 -34 -27 -21 -11 -21 -11 -2 11 11 11 14
21 8 21 -6 0 -21 -14 -34 -30 -13 -18 -30 -29 -40 -28 -9 2 -24 -6 -32 -17
-28 -38 -25 -9 4 37 33 52 57 63 220 99 52 11 99 24 105 30 15 15 29 10 16 -5z
m224 -15 c6 -3 30 -6 55 -7 25 0 54 -5 63 -10 11 -7 -7 -8 -56 -6 -39 2 -76 8
-81 13 -6 5 -28 9 -50 10 -23 0 -50 5 -61 10 -13 6 4 7 50 3 39 -4 75 -9 80
-13z m-160 -11 c3 -5 11 -10 16 -10 6 0 7 5 3 11 -8 13 55 2 70 -12 14 -12
-19 -22 -52 -15 -95 19 -92 20 -92 -3 0 -25 -25 -28 -34 -4 -5 11 -1 22 10 30
21 15 70 17 79 3z m-682 -61 c-3 -17 0 -48 7 -69 14 -43 6 -85 -11 -60 -9 13
-10 13 -6 0 2 -8 10 -15 17 -15 11 0 27 -26 29 -48 2 -19 -38 16 -53 47 -20
42 -21 96 -2 141 18 43 28 45 19 4z m839 -10 c7 -16 20 -29 29 -29 20 0 66
-36 58 -45 -4 -3 -23 4 -43 16 -21 12 -43 18 -53 14 -13 -4 -2 -12 40 -30 60
-24 87 -41 87 -56 0 -5 -24 4 -52 20 -53 30 -144 58 -154 48 -3 -3 23 -14 58
-26 35 -12 83 -33 107 -46 25 -14 47 -22 50 -16 6 9 143 -73 174 -105 49 -52
135 -153 157 -186 14 -21 29 -38 33 -38 5 0 5 -9 2 -20 -4 -12 1 -31 13 -48
31 -43 73 -133 69 -145 -2 -6 -23 26 -47 71 -24 45 -48 82 -52 82 -5 0 -4 -9
2 -19 15 -28 12 -39 -7 -37 -11 0 -27 20 -40 47 -19 41 -73 99 -91 99 -4 0
-37 29 -74 65 -62 60 -159 121 -171 109 -3 -3 -36 8 -74 24 -37 16 -86 36
-108 45 -22 9 -34 16 -27 16 7 1 11 5 8 10 -6 9 -96 26 -196 35 -30 3 -80 2
-110 -4 -30 -5 -84 -14 -120 -20 -36 -5 -78 -15 -94 -20 -16 -6 -31 -9 -33 -7
-2 2 18 26 44 54 51 54 93 76 241 126 78 27 97 30 121 20 23 -8 34 -8 50 3 14
10 35 13 68 9 32 -4 57 -1 73 8 32 17 46 12 62 -24z m-1224 -11 c6 -6 12 -17
12 -24 0 -10 -6 -8 -20 6 -11 11 -28 20 -37 19 -14 0 -13 -2 4 -9 12 -5 27
-19 33 -31 8 -15 9 -19 1 -15 -6 4 -11 0 -11 -11 0 -15 -3 -14 -16 6 -12 17
-24 22 -45 19 -36 -6 -36 -1 -2 34 27 28 50 30 81 6z m541 -29 c13 -24 13 -29
-3 -53 -9 -15 -21 -24 -27 -21 -5 4 -3 13 6 22 9 9 14 22 11 30 -3 8 -6 17 -6
19 0 10 -38 3 -58 -12 -26 -18 -29 -46 -5 -65 15 -12 16 -12 10 5 -11 29 2 56
26 56 19 0 20 -1 3 -13 -14 -10 -15 -17 -7 -40 14 -37 14 -89 -1 -124 l-11
-28 -8 41 c-4 23 -17 56 -28 75 -31 51 -27 79 17 111 44 32 62 31 81 -3z m916
-74 c84 -56 136 -102 85 -75 -14 7 -46 28 -72 46 -27 19 -48 30 -48 25 0 -11
77 -61 143 -92 56 -27 64 -46 10 -24 -95 40 -213 128 -213 159 0 9 3 16 6 16
4 0 44 -25 89 -55z m-1521 39 c9 -3 16 -14 16 -23 0 -14 -7 -17 -30 -13 -25 4
-28 7 -19 23 11 21 11 21 33 13z m-80 -68 c-36 -66 -55 -82 -81 -67 -14 8 -14
10 3 19 10 5 23 9 27 9 4 -1 17 14 29 33 l22 35 -32 -29 c-18 -17 -32 -25 -32
-19 0 12 76 83 89 83 5 0 -7 -29 -25 -64z m-168 -1 c-10 -25 -22 -45 -27 -45
-13 0 -12 4 13 55 27 56 37 50 14 -10z m665 -16 c20 -23 44 -39 57 -39 13 0
26 -8 29 -17 8 -22 43 -69 43 -58 0 5 9 0 20 -10 11 -10 20 -24 20 -31 0 -7
14 -39 31 -71 17 -32 38 -83 46 -113 24 -85 18 -190 -11 -190 -17 0 -46 91
-46 149 -1 65 -40 170 -93 243 -65 91 -78 104 -120 117 -34 12 -57 35 -57 59
0 21 46 -2 81 -39z m-581 16 c0 -27 -7 -30 -30 -15 -13 9 -12 12 4 25 26 19
26 19 26 -10z m259 8 c-20 -25 -73 -72 -81 -73 -8 0 -5 21 5 38 7 10 73 50 86
52 2 0 -3 -8 -10 -17z m-100 -10 c3 -2 -5 -13 -17 -25 -18 -19 -24 -20 -34 -9
-11 11 -10 12 2 6 8 -5 12 -5 8 0 -4 4 -3 15 3 24 6 9 0 3 -15 -12 -14 -15
-26 -23 -26 -16 0 24 32 50 54 43 12 -4 23 -8 25 -11z m-229 -43 c-5 -19 -24
-49 -42 -68 -30 -31 -31 -33 -8 -22 14 6 45 33 69 58 33 35 39 40 26 17 -10
-16 -27 -40 -38 -52 -13 -15 -16 -23 -8 -23 10 0 10 -4 3 -12 -5 -7 -12 -24
-14 -38 -2 -18 -12 -28 -34 -35 -23 -7 -28 -13 -20 -21 8 -9 16 -7 32 7 20 19
20 18 20 -16 0 -38 -2 -40 -40 -25 -20 7 -26 6 -26 -4 0 -9 -7 -12 -21 -9 -14
4 -25 -1 -36 -17 -12 -17 -17 -19 -24 -9 -5 8 -3 17 4 21 8 5 7 8 -5 8 -10 0
-23 -10 -29 -22 -12 -22 -11 -22 6 -8 17 14 18 13 12 -3 -4 -10 -7 -22 -7 -25
0 -4 -20 -16 -45 -27 -25 -11 -45 -24 -45 -30 0 -5 -5 -3 -10 5 -14 22 -11 72
5 94 8 11 18 17 22 13 3 -4 -1 -15 -10 -25 -10 -10 -17 -24 -17 -32 0 -23 29
10 39 44 l9 31 7 -34 8 -33 12 28 c7 16 22 38 34 48 19 17 23 18 34 4 9 -12
17 -13 32 -7 19 9 18 9 -2 5 -15 -3 -23 1 -23 10 0 8 10 19 23 24 12 5 16 9 9
9 -7 1 -10 6 -6 12 5 8 9 8 14 -1 5 -9 18 -1 44 26 19 21 34 39 33 41 -2 1
-21 -6 -43 -16 -43 -21 -113 -71 -100 -71 5 0 -4 -10 -20 -22 -16 -12 -32 -27
-36 -33 -5 -6 -8 -4 -8 5 0 8 36 49 81 90 44 41 94 99 111 128 33 59 43 63 28
12z m215 -29 c-17 -34 -31 -45 -46 -36 -6 4 2 18 20 36 39 37 45 37 26 0z
m-311 -50 c-25 -24 -32 -28 -20 -11 9 14 24 37 34 52 13 22 18 24 20 12 2 -9
-13 -33 -34 -53z m491 60 l40 -7 -55 -8 c-84 -11 -120 -15 -120 -10 0 8 56 33
75 33 11 0 38 -3 60 -8z m987 -24 c54 -14 142 -47 197 -73 55 -25 107 -44 115
-41 10 4 16 1 16 -8 0 -8 -14 -17 -32 -20 -26 -5 -52 3 -118 33 -111 52 -162
69 -267 87 -143 25 -342 16 -467 -21 -21 -6 -21 -6 1 17 12 13 51 30 90 41
102 27 332 20 465 -15z m-1263 -17 c-32 -28 -119 -71 -119 -59 0 5 7 12 16 16
11 4 12 8 4 13 -7 4 14 18 52 33 34 14 65 23 67 21 2 -2 -7 -13 -20 -24z m133
-41 c-18 -16 -38 -29 -45 -29 -6 1 6 16 27 35 22 19 42 32 45 29 3 -3 -9 -19
-27 -35z m1651 27 c30 -12 142 -125 133 -134 -8 -7 -83 48 -131 97 -53 54 -53
59 -2 37z m-1481 -10 c18 -8 44 -24 58 -36 l25 -20 -53 20 c-47 18 -88 27
-129 29 -7 1 -13 4 -13 9 0 14 80 12 112 -2z m-232 -23 c-37 -42 -61 -63 -74
-63 -6 0 -2 8 9 17 20 16 20 16 0 8 -11 -4 -39 -11 -63 -15 -23 -4 -46 -10
-50 -14 -4 -4 10 -5 30 -1 21 4 44 2 55 -4 15 -9 11 -10 -24 -11 -23 0 -48 -3
-56 -6 -11 -4 -15 0 -13 13 2 12 22 25 67 40 58 21 52 22 -31 6 -52 -9 7 17
70 31 34 8 65 17 68 20 3 3 12 6 20 6 12 0 10 -7 -8 -27z m-345 -23 c-9 -18
-19 -30 -21 -27 -3 3 2 19 11 37 9 18 19 30 21 27 3 -3 -2 -19 -11 -37z m1195
9 c79 -40 177 -114 296 -224 102 -94 117 -114 104 -135 -7 -11 -36 12 -127
101 -111 108 -246 210 -340 258 -24 12 -43 24 -43 26 0 14 54 1 110 -26z m340
0 c47 -12 108 -37 135 -54 28 -18 67 -35 86 -39 20 -3 48 -19 64 -36 16 -17
36 -30 45 -30 9 0 26 -10 38 -23 17 -18 19 -26 10 -35 -17 -17 -41 -15 -64 6
-10 10 -28 21 -39 26 -14 5 -10 -3 14 -28 19 -20 43 -38 53 -42 17 -5 26 -34
11 -34 -4 0 -29 21 -55 47 -26 26 -50 44 -53 41 -3 -3 16 -28 43 -54 43 -42
50 -57 57 -102 4 -28 5 -52 2 -52 -19 0 -87 37 -111 61 -30 29 -50 32 -26 4
14 -17 5 -22 -45 -27 -27 -3 -32 2 -53 45 -12 26 -27 47 -32 47 -6 0 -44 31
-85 70 -42 38 -117 97 -167 130 -95 63 -107 75 -35 39 59 -31 125 -76 177
-125 56 -52 98 -58 48 -7 -59 61 -263 183 -305 183 -7 0 -13 4 -13 10 0 19
208 4 300 -21z m-450 -25 c23 -25 40 -48 37 -50 -5 -5 -115 51 -131 67 -16 15
2 10 47 -12 l42 -21 -35 31 c-24 21 -30 30 -19 31 9 0 35 -21 59 -46z m-620
28 c0 -14 -74 -50 -90 -44 -10 4 3 13 35 28 60 27 55 26 55 16z m60 -27 c-19
-7 -44 -14 -55 -14 -20 0 -20 0 -1 14 11 8 36 15 55 14 l36 -1 -35 -13z m-200
-55 c-12 -16 -26 -30 -31 -30 -5 0 -8 -3 -6 -8 1 -4 -8 -18 -19 -30 -28 -30
-97 -28 -102 2 -3 16 1 18 30 13 18 -3 42 -2 53 3 16 7 10 9 -25 11 l-45 2 40
7 40 7 -50 3 -50 3 55 7 c30 4 69 14 85 23 44 24 49 21 25 -13z m197 -6 c23
-13 44 -28 47 -33 8 -12 -87 9 -99 22 -7 7 -4 8 10 3 16 -6 17 -5 8 5 -7 7
-23 13 -35 15 -31 3 -30 3 -23 14 8 13 38 5 92 -26z m100 7 c41 -30 73 -67 73
-85 0 -5 -12 2 -27 16 -42 38 -120 88 -127 81 -3 -4 -6 -1 -6 5 0 22 47 12 87
-17z m533 -52 c6 -11 9 -25 7 -32 -2 -7 1 -19 8 -27 7 -8 16 -26 20 -40 6 -22
1 -19 -39 20 -48 46 -126 141 -126 154 0 13 120 -55 130 -75z m761 51 c31 -25
12 -26 -21 0 -14 11 -20 20 -14 20 7 0 22 -9 35 -20z m-674 -33 c88 -57 164
-141 203 -225 17 -37 40 -84 51 -104 23 -44 24 -68 4 -68 -19 0 -47 54 -35 66
10 10 -39 121 -77 177 -39 55 -30 14 12 -56 41 -69 62 -117 51 -117 -3 0 -26
38 -52 85 -26 47 -61 97 -77 112 -16 16 -28 24 -25 18 2 -5 21 -45 42 -89 57
-119 109 -267 97 -279 -7 -7 -12 -6 -15 4 -40 134 -131 349 -147 349 -10 0 -5
-15 29 -84 15 -31 25 -72 27 -103 1 -28 7 -59 15 -68 20 -24 23 -10 6 24 -19
36 -22 61 -5 44 6 -6 19 -42 30 -81 l18 -69 -25 -54 c-15 -29 -31 -65 -36 -79
-6 -14 -12 -20 -15 -14 -2 6 6 32 17 58 24 57 25 62 6 46 -20 -15 -33 -61 -40
-134 -3 -33 -8 -61 -11 -64 -6 -7 -118 40 -131 55 -29 34 -148 0 -172 -50 -11
-22 -20 -27 -51 -27 -20 0 -42 -5 -49 -12 -20 -20 -14 7 8 35 11 14 30 29 43
33 31 10 92 59 160 132 33 34 66 62 74 62 8 0 27 7 43 15 36 19 66 106 48 139
-6 12 -17 57 -24 101 -19 121 -41 199 -70 243 -21 33 -2 27 73 -21z m655 13
c14 -10 28 -17 31 -13 6 6 68 -44 129 -102 14 -14 31 -40 37 -58 10 -26 -5
-15 -78 63 -50 52 -91 91 -91 85 0 -5 14 -24 32 -42 18 -18 27 -33 21 -33 -7
0 -31 22 -55 50 -43 50 -62 63 -52 35 10 -26 -20 -16 -33 10 -10 23 -9 25 12
25 12 0 34 -9 47 -20z m314 -32 c12 -12 33 -45 48 -73 l27 -50 -38 45 c-21 24
-55 61 -75 81 -21 20 -38 39 -38 43 0 11 54 -21 76 -46z m-1770 23 c51 -23 68
-46 20 -26 -20 8 -57 15 -83 15 -44 1 -47 2 -29 15 26 19 42 19 92 -4z m-399
-84 c-24 -9 -32 -3 -23 18 3 9 10 13 16 10 5 -3 10 2 11 12 1 12 3 10 8 -7 6
-19 3 -27 -12 -33z m329 37 c18 -15 18 -15 -6 -10 -14 3 -33 6 -42 6 -10 0
-18 5 -18 10 0 16 44 12 66 -6z m182 -72 c3 -44 1 -72 -6 -76 -8 -4 -10 8 -9
36 1 24 -2 63 -7 88 -6 36 -5 43 4 33 7 -6 15 -43 18 -81z m-441 65 c3 9 9 9
22 1 16 -10 13 -15 -25 -50 -24 -22 -55 -60 -69 -84 -14 -25 -31 -42 -36 -38
-7 4 -6 10 1 19 8 10 5 14 -15 19 -14 4 -25 11 -25 16 0 5 7 7 15 4 11 -5 14
-1 9 12 -5 17 -4 17 8 4 7 -8 20 -16 28 -18 12 -3 13 -1 3 9 -15 15 -18 33 -4
25 4 -3 22 12 40 34 18 22 27 40 21 40 -5 0 -10 5 -10 11 0 8 6 7 17 -2 12
-11 17 -11 20 -2z m353 -31 c0 -29 71 -155 110 -193 31 -31 38 -43 25 -43 -27
0 -104 83 -111 119 -10 48 -19 45 -21 -7 -5 -126 -38 -347 -55 -366 -12 -14
-10 11 8 104 26 139 16 148 -40 38 -47 -93 -49 -98 -44 -163 7 -76 -11 -77
-19 -2 -7 56 13 118 66 207 67 112 86 221 55 320 -7 23 -6 24 9 11 9 -7 17
-19 17 -25z m140 -18 c0 -5 -4 -6 -10 -3 -6 4 -10 -12 -10 -42 -1 -26 -8 -59
-16 -73 l-15 -25 5 34 c3 18 6 63 6 100 l1 66 19 -24 c11 -13 20 -27 20 -33z
m599 -101 c-1 -12 1 -30 5 -39 24 -67 13 -63 -46 15 -43 57 -88 144 -88 169 0
6 30 -20 66 -56 44 -46 65 -75 63 -89z m-711 131 c-2 -4 6 -14 17 -22 11 -8
17 -18 13 -22 -10 -10 -45 22 -45 41 0 9 4 14 9 13 5 -2 8 -7 6 -10z m159 -36
c18 -26 37 -60 43 -77 11 -28 11 -29 -8 -11 -23 20 -87 136 -75 136 4 0 22
-21 40 -48z m-651 -20 c-4 -3 -11 -1 -17 5 -8 8 -7 17 3 32 13 22 13 22 16 -5
2 -14 1 -28 -2 -32z m419 9 c-3 -6 -12 -8 -18 -5 -7 4 -9 4 -5 -1 9 -9 -9 -35
-23 -35 -16 0 -9 23 13 47 21 23 48 18 33 -6z m-459 -6 c2 -22 0 -23 -19 -13
-20 10 -20 11 -2 24 10 8 19 14 19 14 1 0 2 -11 2 -25z m1974 -4 c0 -14 -18
-23 -30 -16 -6 4 -8 11 -5 16 8 12 35 12 35 0z m-1413 -32 c1 -19 1 -20 -4 -4
-3 11 -10 24 -17 28 -7 6 -6 7 4 4 8 -2 16 -14 17 -28z m1757 -1 c29 -39 79
-158 65 -158 -5 0 -22 29 -38 65 -17 36 -39 79 -51 95 -29 41 -7 38 24 -2z
m-1656 2 c3 -7 0 -10 -7 -6 -16 10 -15 7 19 -62 17 -34 30 -75 30 -90 -1 -26
-2 -25 -22 13 -19 35 -23 50 -27 90 -1 6 -6 3 -11 -5 -7 -11 -9 -1 -7 33 2 44
15 58 25 27z m-192 -46 c-5 -19 -50 -54 -70 -54 -15 0 8 48 36 77 35 36 47 28
34 -23z m688 -73 c4 -6 3 -11 -2 -11 -15 0 -22 27 -21 78 l1 47 8 -51 c4 -29
11 -57 14 -63z m370 64 c14 0 70 -82 84 -124 20 -57 -3 -32 -41 45 -46 93 -59
93 -17 0 17 -38 30 -74 28 -82 -2 -7 -27 37 -55 99 -31 65 -44 101 -32 87 12
-14 26 -25 33 -25z m135 9 c3 -16 1 -17 -13 -5 -19 16 -21 34 -3 29 6 -3 14
-13 16 -24z m-489 -25 c0 -11 5 -17 10 -14 6 3 10 -1 10 -9 0 -33 -18 -23 -28
14 -5 22 -6 37 -1 34 5 -3 9 -14 9 -25z m-137 -59 c4 -37 3 -50 -3 -40 -7 12
-10 8 -11 -15 l-1 -30 -9 35 c-10 40 -1 141 11 119 4 -8 10 -39 13 -69z m-955
-45 l0 -50 -9 40 c-4 22 -8 58 -7 80 0 38 1 39 8 10 4 -16 8 -52 8 -80z m1585
62 c-3 -14 3 -29 16 -41 25 -23 28 -10 4 16 -9 10 -14 21 -10 24 8 8 38 -41
42 -68 1 -13 6 -32 10 -43 4 -11 -4 -4 -18 15 -14 19 -35 43 -46 52 -20 17
-28 57 -15 71 12 12 21 -2 17 -26z m-440 -27 c-3 -3 -8 1 -10 8 -3 6 -9 10
-14 6 -10 -6 -12 9 -2 19 3 4 12 -1 19 -11 7 -9 10 -19 7 -22z m-783 -12 c-20
-47 -50 -67 -114 -76 l-41 -5 36 43 c20 24 42 47 50 51 15 7 70 26 81 28 4 1
-1 -18 -12 -41z m95 17 c0 -10 -6 -20 -12 -22 -8 -3 -13 5 -13 22 0 17 5 25
13 23 6 -3 12 -13 12 -23z m605 -15 c33 21 100 2 100 -29 0 -8 -5 -7 -16 3
-24 24 -77 20 -103 -8 -27 -29 -36 -77 -13 -68 10 3 13 1 8 -6 -4 -7 -14 -12
-22 -12 -22 0 -21 25 4 110 14 49 16 52 21 28 5 -21 9 -25 21 -18z m-159 -77
c-9 -15 -10 -11 -11 19 0 54 14 83 18 36 2 -21 -1 -46 -7 -55z m-431 58 c-12
-23 -29 -35 -37 -27 -3 3 5 14 18 25 30 25 32 26 19 2z m730 -27 c0 -7 -4 -15
-9 -18 -5 -3 -7 -14 -4 -24 2 -10 -5 -26 -17 -37 -18 -17 -37 -20 -106 -20
-46 0 -84 -4 -84 -9 0 -4 -11 -1 -25 8 -19 12 -30 14 -44 6 -32 -16 -48 -11
-21 7 14 9 40 30 58 46 37 35 42 29 11 -14 -11 -16 -18 -29 -15 -29 2 0 12 -3
20 -6 13 -5 15 -2 9 12 -6 17 -5 17 10 5 13 -10 36 -12 87 -9 89 7 107 21 105
84 -2 42 -1 45 11 29 8 -10 14 -24 14 -31z m-690 23 c0 -19 -48 -85 -70 -97
-28 -15 -25 2 4 29 14 13 30 36 36 52 13 30 30 39 30 16z m896 -42 c14 -30 24
-67 22 -82 -2 -23 -8 -15 -27 42 -13 39 -26 76 -28 83 -3 6 -2 12 1 12 4 0 18
-25 32 -55z m-271 21 c23 -34 5 -66 -35 -66 -44 0 -64 44 -34 74 23 23 51 20
69 -8z m1191 -22 c19 -46 17 -78 -2 -34 -30 68 -35 82 -23 74 6 -3 17 -21 25
-40z m-1789 -11 c-3 -10 -5 -2 -5 17 0 19 2 27 5 18 2 -10 2 -26 0 -35z m53
28 c0 -20 -27 -48 -36 -38 -4 3 -4 18 0 32 7 29 36 34 36 6z m279 -32 c-16
-46 -29 -59 -29 -28 0 24 28 75 36 66 2 -2 -1 -19 -7 -38z m-352 -36 c-2 -16
-4 -5 -4 22 0 28 2 40 4 28 2 -13 2 -35 0 -50z m-146 4 c-13 -13 -15 1 -4 30
7 17 8 17 11 -1 2 -10 -1 -23 -7 -29z m-79 -20 c-15 -33 -20 -36 -47 -32 -26
5 -27 4 -7 -5 41 -18 26 -38 -45 -60 -38 -11 -76 -23 -86 -26 -16 -5 -15 0 7
43 41 78 58 92 128 106 34 7 64 13 65 12 1 -1 -5 -18 -15 -38z m538 30 c0 -7
-7 -22 -15 -33 -12 -16 -14 -17 -15 -2 0 23 11 48 21 48 5 0 9 -6 9 -13z
m-340 -26 c0 -11 -7 -27 -16 -36 -14 -13 -19 -14 -25 -3 -5 7 -9 20 -9 28 0
12 2 12 9 2 6 -10 10 -9 14 7 7 26 27 28 27 2z m293 -9 c-3 -12 -12 -22 -20
-22 -14 0 -11 10 10 38 13 17 17 11 10 -16z m-238 -19 c-7 -42 -30 -83 -46
-83 -6 0 -7 5 -4 10 7 11 -8 14 -18 4 -12 -12 6 -34 29 -34 34 0 30 -14 -11
-33 -91 -43 -160 -143 -153 -223 3 -47 -12 -59 -41 -31 -11 10 -13 9 -9 -3 3
-8 17 -16 31 -18 15 -2 27 -8 27 -14 0 -6 -11 -8 -25 -6 -33 7 -32 -4 8 -45
37 -40 102 -62 156 -53 47 7 107 52 136 100 19 31 25 36 25 20 0 -34 -55 -100
-102 -123 -86 -41 -190 -19 -240 51 -17 25 -24 49 -26 105 -7 127 37 207 169
309 33 25 66 58 74 75 21 40 29 37 20 -8z m-188 -21 c1 -23 -1 -32 -6 -23 -5
7 -14 10 -20 7 -8 -5 -7 -12 4 -22 19 -20 20 -41 1 -25 -10 9 -15 8 -20 -4 -3
-9 0 -15 9 -15 25 0 28 -22 5 -44 -13 -11 -20 -15 -16 -8 4 6 3 12 -2 12 -11
0 -10 49 1 67 4 6 5 18 2 25 -3 8 3 22 14 32 12 11 17 25 14 34 -4 10 -2 13 3
9 4 -4 10 -25 11 -45z m1103 21 c-1 -24 -2 -26 -11 -10 -5 9 -7 22 -4 27 10
17 15 11 15 -17z m-729 3 c-14 -17 -51 -28 -51 -15 0 5 10 14 23 19 32 13 41
12 28 -4z m-291 -31 c0 -12 -7 -25 -15 -29 -11 -4 -15 2 -15 23 0 15 3 31 6
34 12 11 24 -3 24 -28z m568 20 c23 0 42 -1 42 -2 0 -2 -12 -8 -26 -14 -29
-10 -88 3 -100 23 -4 7 1 7 17 2 13 -5 43 -9 67 -9z m-372 -20 c-13 -14 -31
-25 -41 -25 -16 0 -16 3 5 25 13 14 31 25 41 25 16 0 15 -3 -5 -25z m289 9
c14 -9 25 -25 25 -36 0 -19 -2 -18 -21 6 -15 19 -30 26 -55 26 -19 0 -34 5
-34 10 0 16 58 12 85 -6z m151 -9 c-11 -8 -23 -15 -28 -15 -4 0 -8 -6 -8 -12
0 -23 -81 -88 -109 -88 -23 0 -21 3 22 28 26 16 44 31 41 35 -4 4 1 9 10 13 9
3 14 10 11 15 -6 9 42 38 65 38 11 0 10 -3 -4 -14z m-342 -32 c-35 -57 -76
-74 -43 -18 19 32 49 58 57 50 2 -2 -4 -16 -14 -32z m131 23 c28 5 35 2 45
-16 19 -35 -6 -43 -49 -16 -35 21 -81 24 -81 6 0 -11 32 -29 72 -41 36 -10
104 14 119 42 5 11 14 19 20 19 18 0 -11 -40 -44 -60 -38 -24 -105 -26 -133
-5 -24 18 -35 19 -28 2 3 -8 -2 -19 -10 -26 -18 -15 -56 -5 -56 14 0 17 30 34
48 28 8 -3 10 1 6 11 -3 9 -10 16 -16 16 -5 0 -6 4 -3 10 8 14 69 29 73 18 2
-5 19 -6 37 -2z m-187 -33 c-7 -9 -29 -23 -48 -30 -19 -8 -47 -27 -62 -41 -21
-19 -28 -22 -28 -10 0 21 31 46 90 74 27 13 50 29 51 36 0 11 2 11 6 0 3 -7
-1 -20 -9 -29z m-119 -5 c12 -16 11 -18 -13 -18 -23 0 -25 2 -14 20 7 10 13
18 13 17 0 -1 7 -10 14 -19z m291 -3 c16 -9 19 -14 9 -15 -8 0 -24 7 -35 15
-24 18 -7 19 26 0z m-602 -52 l-3 -47 -90 -48 c-49 -26 -93 -48 -97 -48 -11 0
-10 31 3 87 l12 49 81 26 c44 14 85 26 89 27 4 0 7 -20 5 -46z m1472 29 c0
-22 -34 -52 -58 -52 l-27 1 29 15 c21 12 25 18 16 24 -10 6 -8 9 6 13 30 8 34
7 34 -1z m68 -4 c-3 -7 -15 -14 -29 -15 -13 -1 -18 0 -11 3 6 3 10 10 6 15 -3
5 4 9 16 9 13 0 20 -5 18 -12z m67 1 c-15 -7 -8 -8 25 -4 43 5 44 4 20 -10
-30 -17 -100 -20 -100 -4 0 6 7 9 15 5 8 -3 14 -2 14 2 -3 17 2 22 24 21 21 0
21 -1 2 -10z m365 1 c0 -26 -69 -71 -108 -69 -9 0 3 8 28 17 26 10 49 27 55
40 10 23 25 30 25 12z m-226 -32 c-4 -5 -17 -8 -30 -5 -13 2 -21 0 -17 -6 3
-5 -3 -6 -16 -2 -12 4 -21 2 -21 -4 0 -14 -37 -14 -46 0 -4 8 0 9 15 4 15 -4
21 -3 19 7 -2 7 5 12 15 12 9 -1 17 1 17 5 0 4 16 5 35 3 20 -2 32 -8 29 -14z
m-1279 -5 c29 -14 41 -15 65 -6 17 6 30 7 30 2 0 -14 -41 -31 -63 -25 -30 7
-56 -15 -63 -53 -4 -17 -11 -31 -16 -31 -17 0 0 63 21 81 19 16 19 17 -5 28
-31 14 -57 14 -49 1 3 -6 -1 -7 -10 -4 -8 4 -22 1 -30 -6 -8 -7 -15 -9 -15 -5
0 16 36 34 67 35 18 0 48 -8 68 -17z m915 8 c0 -39 -43 -91 -75 -91 -13 0 -2
19 13 25 19 6 48 55 33 55 -14 0 -108 -79 -115 -96 -4 -9 -9 -14 -12 -11 -12
12 40 69 89 97 55 31 67 35 67 21z m112 -14 c-24 -11 -38 -5 -28 11 3 6 16 8
28 4 l22 -5 -22 -10z m-896 -19 c-9 -12 -16 -20 -16 -16 0 3 -3 13 -6 21 -3
10 1 17 13 19 26 6 27 2 9 -24z m33 -15 c-7 -14 -26 -31 -41 -39 -31 -16 -94
-19 -103 -4 -4 6 11 10 37 10 50 0 85 20 100 59 7 16 12 21 15 13 3 -8 -1 -25
-8 -39z m-211 8 c-7 -9 -13 -17 -14 -19 0 -1 -13 4 -28 12 -18 9 -23 16 -14
19 7 2 22 0 32 -6 15 -7 18 -6 13 6 -4 11 -2 14 9 10 12 -4 12 -8 2 -22z
m1147 19 c-3 -5 -17 -10 -31 -10 -14 0 -22 4 -19 10 3 6 17 10 31 10 14 0 22
-4 19 -10z m225 -5 c8 0 14 -6 13 -12 -2 -7 4 -13 12 -13 8 0 15 -4 15 -10 0
-5 -9 -10 -20 -10 -11 0 -20 7 -20 15 0 8 -5 15 -11 15 -5 0 -7 -4 -4 -10 3
-5 2 -10 -4 -10 -13 0 -32 35 -24 43 3 4 11 3 17 -1 6 -3 18 -7 26 -7z m-1110
-5 c0 -5 -9 -14 -20 -20 -22 -12 -23 -10 -14 14 7 17 34 22 34 6z m-110 -14
c0 -8 -7 -16 -15 -20 -17 -6 -18 -4 -9 18 8 20 24 21 24 2z m900 3 c0 -7 -25
-19 -41 -19 -6 0 -7 5 -3 11 5 9 -1 10 -20 5 -17 -4 -25 -3 -22 3 7 11 86 11
86 0z m-1125 -32 c39 -39 53 -93 35 -137 -7 -17 -19 -30 -26 -30 -16 0 -19 16
-4 25 5 3 9 26 8 51 0 39 -3 45 -19 41 -20 -5 -27 9 -7 15 6 2 8 10 4 17 -5 7
-14 10 -21 7 -7 -2 -16 2 -19 11 -5 12 -15 14 -41 10 -33 -5 -49 6 -22 16 38
16 80 6 112 -26z m1643 9 c22 -13 13 -27 -9 -15 -12 6 -36 9 -53 6 -37 -5 -64
2 -47 13 15 9 92 7 109 -4z m-1970 -50 c-21 -40 -181 -197 -191 -187 -16 16
-26 101 -12 101 7 0 34 11 60 25 55 30 71 27 23 -4 -18 -11 -28 -21 -21 -21 6
0 15 5 18 10 3 6 11 10 17 10 5 0 0 -9 -13 -19 -16 -13 -26 -16 -31 -8 -5 8
-11 7 -21 -1 -7 -7 -18 -8 -22 -4 -5 4 -5 -2 0 -13 4 -11 7 -28 7 -38 -1 -14
5 -12 28 10 15 16 48 46 72 68 52 47 74 77 37 52 -34 -24 -49 -21 -19 4 17 14
10 12 -20 -6 -63 -37 -110 -57 -123 -52 -7 2 12 17 41 33 30 16 77 43 105 60
45 27 54 29 64 16 9 -11 9 -20 1 -36z m452 24 c0 -17 -9 -39 -20 -50 -21 -21
-50 -27 -50 -10 0 6 7 10 16 10 9 0 22 17 31 40 9 22 18 40 20 40 1 0 3 -13 3
-30z m930 22 c0 -11 -22 -32 -32 -32 -5 0 -4 9 2 20 11 20 30 28 30 12z m-126
-73 c-9 -22 -21 -39 -26 -39 -12 0 -10 14 5 29 10 11 10 13 0 7 -7 -4 -13 -2
-13 4 0 6 7 13 15 16 8 4 15 14 15 23 0 25 14 36 18 16 2 -10 -4 -35 -14 -56z
m792 50 c19 -22 19 -22 -1 -11 -11 6 -27 16 -35 22 -13 8 -13 10 1 10 9 0 24
-10 35 -21z m-727 -23 c-7 -14 -17 -26 -22 -26 -5 0 -4 7 3 15 11 13 10 15 -6
9 -14 -4 -13 -1 6 14 30 25 34 22 19 -12z m-1036 -16 c15 -17 27 -38 27 -48 0
-32 -19 -85 -39 -106 -10 -12 -22 -35 -26 -53 -6 -29 -35 -68 -35 -47 0 27 23
84 45 114 34 46 34 98 0 130 -30 29 -77 30 -106 4 -22 -19 -22 -19 -10 3 27
53 97 54 144 3z m207 -22 c-80 -46 -95 -71 -70 -119 10 -17 9 -23 -1 -30 -20
-13 -4 -11 25 2 20 10 30 9 51 -5 14 -9 25 -26 25 -37 0 -15 5 -19 15 -15 8 3
15 1 15 -4 0 -6 5 -10 10 -10 25 0 -28 117 -70 155 -20 18 -20 18 0 32 26 18
38 10 60 -41 26 -58 35 -137 19 -167 -10 -20 -10 -22 2 -13 17 14 146 26 153
15 3 -5 -28 -14 -69 -21 -57 -10 -73 -16 -65 -25 7 -8 4 -26 -9 -56 -33 -76
-29 -118 17 -179 15 -19 36 -49 47 -67 11 -18 24 -32 30 -32 5 0 11 -4 13 -10
7 -21 -78 -3 -113 24 -58 43 -78 105 -61 181 4 20 2 40 -8 59 -14 26 -14 32 0
53 16 24 12 87 -8 125 -9 17 -68 25 -68 10 0 -14 20 -39 20 -25 0 6 5 12 10
12 6 0 10 -10 10 -22 0 -12 -3 -18 -7 -15 -3 4 -12 -2 -20 -13 -19 -26 -35
-25 -61 5 -20 22 -20 25 -4 34 13 7 16 25 17 85 0 41 5 80 10 85 20 20 120 71
140 71 11 0 -14 -19 -55 -42z m-368 7 c-6 -35 23 -77 51 -73 25 3 32 48 8 56
-10 3 -12 0 -8 -11 8 -22 -8 -30 -23 -12 -10 12 -10 18 0 30 16 20 39 19 62
-2 22 -20 23 -42 2 -71 -20 -29 -59 -28 -89 3 -27 26 -31 54 -15 86 14 26 18
24 12 -6z m658 11 l34 -13 -33 -11 c-44 -16 -50 -15 -27 3 18 13 15 14 -27 10
-51 -5 -60 0 -24 15 28 11 35 11 77 -4z m431 -39 c4 -15 4 -39 -1 -54 l-8 -28
-1 32 c-1 17 -6 44 -11 58 -8 20 -7 26 2 23 6 -2 15 -16 19 -31z m-587 2 c39
-31 66 -91 66 -148 0 -42 -3 -51 -21 -56 -27 -9 -44 8 -34 32 8 17 8 17 12 0
8 -32 28 -12 25 24 -6 58 -29 98 -65 115 -26 12 -33 21 -30 35 7 24 14 24 47
-2z m46 0 c0 -14 -16 -11 -29 5 -10 12 -8 13 8 9 12 -3 21 -9 21 -14z m551
-125 c34 -35 33 -42 -2 -24 -29 16 -49 64 -48 117 l1 48 8 -54 c6 -40 16 -61
41 -87z m-393 48 l23 -18 -24 -11 c-22 -10 -24 -16 -20 -56 3 -25 1 -47 -5
-51 -6 -3 -10 8 -10 30 0 40 -29 79 -67 88 -12 3 -26 13 -29 22 -8 21 28 10
70 -21 30 -23 30 -23 43 -3 11 18 10 19 -10 13 -18 -6 -21 -4 -15 10 5 14 2
16 -14 12 -13 -3 -20 0 -20 10 0 10 -6 12 -22 8 -17 -6 -20 -4 -15 9 4 10 1
16 -7 16 -8 0 -16 -6 -19 -12 -2 -7 -8 -10 -12 -6 -4 4 -2 14 4 22 11 13 20
11 69 -14 31 -17 67 -38 80 -48z m-848 31 c-5 -21 -20 -60 -34 -87 -14 -27
-26 -64 -26 -83 0 -18 -3 -33 -7 -33 -13 0 -73 64 -73 77 0 7 15 29 32 49 l32
37 13 -29 c7 -16 12 -23 13 -16 0 7 -5 22 -11 33 -9 18 -5 25 28 54 21 19 39
34 39 35 1 0 -2 -17 -6 -37z m1288 15 c-2 -5 -8 -9 -13 -9 -5 0 -11 4 -13 9
-1 5 4 9 13 9 9 0 14 -4 13 -9z m-358 -17 c24 -7 23 -8 -10 -13 -21 -3 -45 0
-60 8 -25 13 -25 13 10 13 19 -1 46 -4 60 -8z m351 -19 c-16 -5 -41 5 -41 17
0 7 10 6 26 -1 15 -7 21 -14 15 -16z m-1137 -44 c3 -16 4 -28 1 -28 -7 0 -35
65 -35 82 0 19 26 -23 34 -54z m345 53 c17 -11 7 -41 -13 -41 -19 0 -29 17
-22 35 6 17 15 18 35 6z m151 -11 c38 -38 14 -103 -25 -70 -17 14 -20 40 -5
40 6 0 10 -7 10 -15 0 -17 16 -20 24 -6 10 16 -6 41 -30 47 -13 3 -24 10 -24
15 0 16 30 9 50 -11z m1135 -10 c22 -24 15 -54 -13 -58 -16 -2 -25 3 -31 20
-10 23 -10 23 -10 1 -1 -12 4 -25 9 -28 6 -3 10 -11 10 -17 0 -6 -6 -6 -16 2
-19 16 -15 65 6 65 8 0 14 -6 13 -12 -2 -7 4 -13 12 -13 24 0 17 30 -9 40 -33
12 -64 2 -112 -37 -54 -44 -67 -42 -23 3 58 62 126 76 164 34z m-1495 10 c0
-5 -7 -10 -15 -10 -8 0 -15 5 -15 10 0 6 7 10 15 10 8 0 15 -4 15 -10z m1356
1 c-3 -4 -22 -11 -42 -14 -21 -4 -53 -19 -73 -35 -72 -57 -104 -65 -142 -32
-13 10 -19 19 -12 20 6 0 15 -4 18 -10 12 -19 71 -11 91 12 l19 21 -27 -18
c-16 -9 -28 -13 -28 -9 0 14 40 35 51 28 6 -3 18 1 29 11 28 26 130 49 116 26z
m-1455 -48 c7 -16 15 -31 17 -35 2 -5 -1 -8 -7 -8 -9 0 -41 50 -41 65 0 15 18
2 31 -22z m1109 3 c0 -28 24 -56 47 -56 9 0 13 3 9 8 -4 4 -12 7 -18 7 -6 0
-15 11 -19 25 -8 22 -8 23 5 8 7 -10 18 -18 25 -18 6 0 14 -7 17 -15 4 -8 15
-15 25 -15 10 0 19 -5 19 -11 0 -23 -83 -2 -107 26 -24 27 -31 65 -13 65 6 0
10 -11 10 -24z m551 11 c25 -20 46 -59 54 -102 8 -50 -6 -37 -29 28 -10 27
-27 53 -37 60 -19 12 -26 27 -11 27 4 0 14 -6 23 -13z m-1623 -9 c7 -7 12 -19
12 -27 0 -11 -4 -10 -20 4 -21 19 -26 35 -12 35 4 0 13 -5 20 -12z m707 -18
c22 -25 15 -35 -20 -26 -16 4 -25 13 -25 26 0 26 22 26 45 0z m-898 -42 c12
-30 30 -55 53 -70 19 -13 35 -30 36 -38 1 -8 2 -20 2 -27 1 -7 18 -28 39 -48
33 -32 35 -37 21 -53 -15 -17 -48 -84 -48 -97 0 -16 -83 -175 -91 -175 -19 0
-19 28 0 74 11 25 32 90 47 143 31 115 27 130 -45 167 -28 14 -51 23 -51 19 0
-3 -7 0 -15 7 -8 7 -15 24 -15 39 0 26 37 117 44 110 3 -2 13 -25 23 -51z
m302 7 c0 -5 -6 -1 -14 9 -8 10 -11 24 -8 29 6 10 21 -16 22 -38z m446 25 c10
-11 15 -26 11 -35 -7 -20 -47 -16 -54 5 -4 13 -3 13 10 2 11 -9 18 -10 23 -2
9 15 -3 30 -26 30 -11 0 -17 5 -14 10 10 16 30 12 50 -10z m1050 0 c-3 -5 3
-13 12 -19 16 -9 16 -10 2 -11 -9 0 -22 7 -29 15 -9 11 -9 15 -1 15 7 0 9 5 5
12 -4 7 -3 8 5 4 6 -4 9 -11 6 -16z m-545 -59 c43 -27 58 -41 45 -41 -33 0
-135 80 -135 104 0 6 6 4 13 -5 7 -9 42 -35 77 -58z m280 59 c-20 -13 -43 -13
-35 0 3 6 16 10 28 10 18 0 19 -2 7 -10z m94 -2 c-5 -7 -2 -9 8 -5 10 3 25 -5
39 -20 l24 -26 -29 7 c-15 4 -35 14 -43 21 -8 8 -20 15 -26 15 -7 0 -6 4 3 10
21 13 33 12 24 -2z m-1547 -9 c-14 -8 -22 -8 -30 0 -8 8 -3 11 19 11 25 -1 27
-2 11 -11z m193 -21 c0 -19 -2 -20 -10 -8 -13 19 -13 30 0 30 6 0 10 -10 10
-22z m578 8 c32 -17 101 -86 85 -86 -10 0 -123 88 -123 96 0 7 11 4 38 -10z
m172 -12 c44 -24 44 -25 12 -20 -19 3 -45 15 -59 26 -36 28 -7 24 47 -6z m749
12 c7 -8 23 -17 36 -20 14 -4 25 -11 25 -17 0 -6 -9 -8 -22 -3 -31 9 -68 34
-68 45 0 14 16 11 29 -5z m-1664 -6 c-3 -5 -16 -10 -28 -10 -18 0 -19 2 -7 10
20 13 43 13 35 0z m847 -7 c10 -9 18 -24 18 -34 0 -11 5 -16 13 -13 17 6 41
-21 32 -36 -7 -11 -26 -14 -22 -2 1 4 -2 8 -6 9 -13 4 -37 31 -37 43 0 6 -5 8
-10 5 -6 -4 -9 -1 -8 7 2 8 -4 12 -14 10 -20 -3 -24 14 -5 21 19 8 19 8 39
-10z m642 9 c14 -8 -92 -41 -115 -35 -12 3 -24 0 -29 -7 -5 -9 -16 -10 -36 -4
l-29 8 29 4 c23 3 26 6 15 14 -10 6 0 8 31 4 26 -4 51 -1 60 5 12 8 10 9 -10
5 -14 -3 -32 -1 -40 4 -15 10 106 12 124 2z m322 -43 c8 -16 14 -41 13 -56 0
-23 -3 -20 -15 18 -7 26 -21 52 -29 59 -8 7 -15 17 -15 22 0 16 30 -12 46 -43z
m-1747 29 c8 3 12 -1 9 -9 -3 -8 -17 -15 -32 -16 -16 -1 -24 2 -20 9 4 6 -2 8
-17 4 -23 -7 -23 -6 -5 8 12 10 25 12 35 7 9 -5 22 -6 30 -3z m1561 -12 c0 -8
3 -23 6 -33 5 -16 4 -16 -10 1 -18 22 -21 46 -6 46 6 0 10 -6 10 -14z m40 -22
c0 -8 -4 -14 -10 -14 -5 0 -10 9 -10 21 0 11 5 17 10 14 6 -3 10 -13 10 -21z
m-920 1 c16 -19 0 -19 -26 0 -16 12 -16 14 -3 15 9 0 22 -7 29 -15z m530 -5
c3 -4 14 -10 25 -13 11 -2 1 -5 -23 -6 -26 -1 -41 3 -37 9 3 5 0 7 -8 4 -8 -3
-20 2 -27 11 -13 15 -10 16 26 9 21 -4 41 -10 44 -14z m415 -7 c-4 -10 -10
-28 -12 -40 -6 -25 -23 -31 -23 -8 0 21 22 65 33 65 5 0 6 -8 2 -17z m-1425 2
c0 -3 -7 -17 -16 -30 -9 -14 -14 -32 -10 -40 3 -9 2 -13 -4 -10 -6 3 -10 -5
-10 -19 0 -14 -4 -26 -10 -26 -19 0 -3 85 23 118 9 12 27 17 27 7z m107 -36
c-9 -11 -37 -35 -64 -53 -44 -28 -68 -62 -89 -121 -6 -17 -8 -18 -11 -3 -9 36
59 136 115 169 20 11 41 28 46 37 6 11 11 13 13 5 3 -7 -2 -22 -10 -34z m1367
25 c3 -8 2 -13 -3 -10 -5 3 -12 -2 -16 -12 -3 -9 -5 -17 -3 -18 2 0 -2 -7 -9
-15 -6 -8 -14 -32 -18 -54 -9 -55 10 -26 26 37 12 51 24 61 34 28 6 -20 -33
-101 -55 -115 -6 -3 -10 -12 -10 -18 1 -7 16 6 35 28 35 40 35 40 25 9 -10
-29 -100 -128 -100 -109 0 4 7 17 17 27 12 13 16 34 14 76 -2 65 11 116 35
143 21 23 20 23 28 3z m-894 -39 c75 -23 133 -81 128 -127 -2 -26 3 -38 24
-56 56 -48 59 -153 6 -206 -35 -35 -51 -26 -17 10 23 24 23 26 6 39 -10 7 -28
31 -39 52 -20 38 -35 53 -52 53 -4 0 -6 -9 -3 -21 3 -13 1 -19 -6 -16 -22 7
-13 42 11 45 28 4 62 -23 62 -49 0 -13 5 -16 16 -12 13 5 15 2 9 -15 -4 -16
-2 -22 8 -22 21 0 28 37 14 78 -9 27 -27 46 -68 74 -31 20 -71 55 -89 78 -116
147 -348 92 -351 -84 l-1 -51 -13 30 c-36 79 0 174 80 211 40 19 201 12 275
-11z m951 -6 c14 -20 23 -50 25 -83 l4 -51 -14 47 c-7 26 -24 63 -36 82 -27
44 -10 48 21 5z m-1645 -18 c-26 -28 -18 -37 9 -11 18 17 25 20 25 9 0 -19
-48 -62 -60 -54 -6 4 -10 14 -10 24 0 24 43 78 48 62 2 -7 -3 -20 -12 -30z
m-66 -53 c0 -13 -49 17 -72 44 -33 38 -18 39 27 2 25 -20 45 -41 45 -46z m885
46 c8 -13 12 -24 8 -24 -10 0 -53 42 -53 51 0 15 29 -2 45 -27z m-875 -5 c17
-30 11 -34 -15 -9 -14 13 -25 27 -25 31 0 14 30 -2 40 -22z m651 -1 c45 -15
86 -44 100 -71 10 -20 8 -19 -17 4 -44 41 -88 59 -141 59 -132 0 -187 -136
-94 -229 43 -43 82 -55 134 -40 40 11 85 52 93 86 23 91 -86 139 -126 55 -18
-38 -25 -39 -45 -8 -29 44 17 106 78 106 68 0 119 -54 119 -127 0 -52 -20 -85
-72 -120 -64 -44 -172 -20 -222 49 -32 46 -33 139 -1 184 41 58 118 78 194 52z
m1109 -66 c0 -52 -12 -90 -34 -104 -32 -22 -36 6 -4 31 18 16 21 28 20 86 0
45 3 64 9 54 5 -8 9 -38 9 -67z m-773 28 c15 -9 11 -10 -17 -5 -19 3 -44 15
-55 26 l-20 21 37 -16 c21 -8 46 -20 55 -26z m708 1 c13 -59 -44 -134 -136
-182 -63 -32 -57 -15 12 35 77 56 99 88 99 144 0 47 15 49 25 3z m-1454 3
c-17 -14 -35 -23 -40 -20 -5 3 -15 -2 -22 -12 -13 -15 -12 -16 4 -3 9 7 17 9
17 3 0 -12 -30 -38 -30 -26 -1 5 -7 -2 -15 -16 -19 -34 -19 -7 0 30 15 28 75
69 103 70 8 0 0 -12 -17 -26z m-155 -30 c-9 -8 -16 -25 -16 -37 -1 -20 -2 -19
-16 6 -16 30 -10 52 7 27 9 -13 10 -13 6 0 -2 8 3 23 12 34 14 16 16 16 19 2
2 -9 -4 -23 -12 -32z m436 -16 c-8 -8 -7 -20 4 -46 14 -35 14 -35 -6 -17 -25
23 -27 75 -3 75 13 0 14 -3 5 -12z m439 -41 c10 -18 22 -48 25 -67 9 -49 39
-105 69 -128 30 -24 93 -48 148 -57 51 -8 47 -24 -5 -18 -126 14 -212 81 -233
183 -4 19 -14 51 -22 70 -14 32 -16 33 -24 15 -9 -19 -9 -18 -5 2 2 13 0 26
-5 29 -5 3 -9 10 -9 15 0 18 41 -12 61 -44z m-923 21 c18 -18 15 -26 -18 -43
-20 -10 -33 -28 -41 -55 -7 -22 -16 -40 -20 -40 -5 0 -7 -6 -5 -12 1 -7 1 -10
-1 -5 -3 4 -13 7 -24 7 -29 0 -23 19 9 27 l27 7 -25 6 -25 7 28 11 c28 12 39
36 10 25 -30 -11 -4 17 30 32 31 15 31 15 5 11 -16 -2 -28 0 -28 5 0 4 12 12
28 17 36 14 36 14 50 0z m56 -30 c-8 -50 -24 -74 -24 -36 0 28 16 78 25 78 3
0 2 -19 -1 -42z m1011 -22 l70 -14 -61 -1 c-48 -1 -68 4 -94 22 -19 12 -35 28
-38 36 -3 8 6 5 24 -8 16 -11 61 -27 99 -35z m-411 18 c31 -30 13 -74 -30 -74
-22 0 -52 26 -41 36 3 3 14 0 26 -8 15 -9 23 -10 32 -1 15 15 5 43 -15 43 -10
0 -13 -6 -9 -17 6 -16 5 -16 -10 -4 -13 10 -15 17 -6 27 15 18 34 18 53 -2z
m-494 -3 c0 -9 -71 -41 -90 -41 -26 0 -5 18 38 32 26 9 48 17 50 17 1 1 2 -3
2 -8z m291 -14 c-13 -13 -26 -3 -16 12 3 6 11 8 17 5 6 -4 6 -10 -1 -17z
m-441 -17 c0 -5 -6 -10 -14 -10 -8 0 -22 -24 -32 -57 -11 -31 -24 -58 -30 -60
-12 -4 21 103 38 125 12 14 38 16 38 2z m480 0 c8 -5 11 -12 8 -16 -4 -4 2
-20 13 -36 12 -16 24 -27 27 -24 3 3 -3 15 -12 25 -10 11 -16 24 -15 30 2 5
19 -7 36 -29 l33 -38 -34 2 c-40 4 -56 12 -56 32 0 9 -5 12 -11 8 -9 -5 -10 1
-5 21 6 25 5 27 -8 16 -15 -13 -23 -2 -9 12 8 9 15 9 33 -3z m330 0 c11 -7 0
-10 -37 -10 -29 0 -53 5 -53 10 0 13 70 13 90 0z m236 -76 c21 -27 48 -61 62
-76 21 -23 23 -28 9 -28 -23 0 -76 23 -102 44 -19 16 -18 16 20 10 33 -6 38
-5 29 7 -60 79 -78 99 -91 99 -13 0 -13 -3 -3 -15 8 -9 9 -15 2 -15 -18 0 -24
20 -12 35 16 19 38 4 86 -61z m587 60 c4 -1 10 -2 15 -3 4 -1 0 -5 -8 -11 -9
-5 -19 -5 -27 2 -17 14 -17 32 0 21 6 -4 15 -8 20 -9z m-1068 -24 c10 -11 24
-20 32 -20 7 0 13 -4 13 -10 0 -19 -27 -10 -55 20 -16 17 -24 30 -18 30 5 0
18 -9 28 -20z m889 8 c-15 -28 -38 -48 -53 -48 -9 0 -2 11 19 30 39 33 44 35
34 18z m146 -3 c7 -8 8 -15 2 -15 -5 0 -15 7 -22 15 -7 8 -8 15 -2 15 5 0 15
-7 22 -15z m84 -6 c-31 -34 -66 -47 -153 -58 -45 -6 -100 -15 -122 -21 -24 -7
-45 -7 -56 -2 -19 11 33 24 179 46 49 8 100 22 120 34 43 27 56 27 32 1z
m-1624 -2 c0 -8 -11 -19 -25 -25 -29 -13 -32 -6 -8 20 19 21 33 23 33 5z m-60
-11 c0 -8 -4 -18 -10 -21 -5 -3 -10 3 -10 14 0 12 5 21 10 21 6 0 10 -6 10
-14z m1007 -20 c-4 -9 2 -17 14 -21 10 -4 19 -10 19 -15 0 -14 -38 1 -57 23
-17 19 -17 20 0 14 9 -4 17 -2 17 3 0 6 3 10 6 10 3 0 4 -7 1 -14z m229 -113
c75 -35 181 -43 238 -19 45 19 58 15 24 -8 -97 -63 -274 -23 -385 87 -71 69
-67 81 6 18 32 -28 85 -63 117 -78z m-501 96 c11 -2 26 0 33 5 19 12 27 -1 12
-19 -10 -12 -8 -16 14 -25 28 -10 31 -17 16 -40 -9 -13 -11 -13 -20 0 -5 8
-11 19 -13 24 -2 5 -12 4 -23 -2 -14 -8 -26 -6 -44 4 -25 15 -25 15 11 10 32
-4 36 -2 32 15 -4 15 -9 17 -19 8 -18 -14 -34 -3 -34 24 0 13 3 17 8 11 4 -7
16 -13 27 -15z m611 6 c-11 -8 -31 -15 -45 -14 -23 0 -23 1 9 13 47 18 59 18
36 1z m-171 -16 c16 -16 -19 -9 -40 7 -19 16 -19 16 5 9 14 -4 29 -11 35 -16z
m-1287 -38 c1 -22 -2 -42 -8 -46 -6 -4 -10 6 -10 24 0 21 -5 31 -15 31 -16 0
-20 12 -8 23 3 4 13 7 22 7 11 0 17 -11 19 -39z m69 7 c-39 -56 -57 -73 -57
-56 0 9 15 32 32 51 36 39 50 41 25 5z m1387 -4 c54 -9 120 -14 147 -12 38 4
47 2 39 -7 -6 -7 -23 -15 -38 -18 -26 -5 -276 28 -294 39 -16 10 4 26 26 20
11 -3 65 -12 120 -22z m276 -33 c-15 -29 -32 -27 -21 2 5 12 13 31 17 42 7 19
8 19 11 -2 3 -12 -1 -31 -7 -42z m-120 37 c0 -3 -9 -6 -20 -5 -11 1 -20 5 -20
9 0 3 9 6 20 5 11 -1 20 -5 20 -9z m86 -40 c-9 -12 -16 -18 -16 -13 0 5 -7 -1
-16 -13 -25 -36 -35 -25 -12 14 15 26 23 32 29 22 6 -9 9 -7 9 8 0 26 14 41
18 20 2 -9 -4 -26 -12 -38z m-1093 7 c46 -24 67 -45 44 -45 -9 0 -29 11 -46
26 -16 14 -34 25 -38 24 -4 -1 -9 7 -11 17 -2 10 0 14 5 8 4 -6 25 -19 46 -30z
m-640 -1 c-6 -17 -63 -49 -63 -35 0 5 10 13 21 16 15 5 18 9 9 15 -9 6 -8 10
6 18 23 13 35 6 27 -14z m815 12 c-24 -18 -23 -29 1 -16 26 13 52 14 31 0 -12
-8 -12 -10 5 -10 18 -1 17 -2 -4 -11 -13 -5 -21 -12 -18 -15 3 -4 25 3 47 14
33 16 41 17 38 5 -2 -8 -21 -21 -42 -28 -21 -8 -42 -18 -46 -24 -9 -15 -115
-42 -137 -35 -15 5 -16 4 -3 -5 13 -9 12 -11 -6 -11 -11 0 -28 6 -39 13 -16
12 -14 14 21 12 62 -2 176 36 159 53 -3 3 0 11 6 19 14 16 5 17 -21 1 -10 -7
-22 -9 -26 -5 -12 12 14 57 33 57 17 -1 17 -1 1 -14z m-71 -46 c33 -30 30 -40
-7 -20 -20 10 -46 50 -34 50 3 0 22 -13 41 -30z m323 7 c0 -27 9 -39 22 -31 5
3 4 12 -2 20 -7 7 -10 19 -7 26 3 8 10 1 16 -16 19 -49 -1 -73 -33 -40 -18 17
-22 64 -6 64 6 0 10 -10 10 -23z m420 12 c-11 -7 -5 -9 23 -6 20 3 37 1 37 -5
0 -5 5 -6 10 -3 6 3 10 2 10 -3 0 -17 -88 -8 -107 11 -16 16 -16 17 12 17 24
0 27 -2 15 -11z m-1480 -29 c0 -23 -35 -44 -58 -35 -15 6 -14 9 7 26 12 10 27
16 32 13 5 -3 9 0 9 5 0 6 2 11 5 11 3 0 5 -9 5 -20z m1040 -23 c0 -5 -7 -4
-15 3 -8 7 -15 20 -15 29 1 13 3 13 15 -3 8 -11 15 -24 15 -29z m118 8 c34
-36 38 -45 23 -45 -5 0 -24 18 -41 40 -39 49 -25 53 18 5z m534 -15 c-18 -17
-40 -30 -50 -30 -10 0 -28 -7 -40 -16 -20 -14 -22 -14 -22 0 0 13 12 21 23 15
5 -4 86 41 92 51 3 5 12 10 18 10 7 0 -3 -14 -21 -30z m-1682 -15 c-7 -8 -22
-16 -34 -16 -17 -1 -17 -2 -3 -6 9 -2 17 -9 17 -14 0 -5 -28 5 -62 22 -35 18
-57 34 -51 36 7 3 26 -5 43 -17 28 -20 31 -20 60 -5 16 8 30 21 31 28 0 9 2 9
6 -1 3 -7 -1 -19 -7 -27z m877 28 c-22 -6 -12 -23 14 -23 25 0 43 -44 29 -69
-5 -10 -19 -21 -31 -24 -21 -6 -21 -5 2 19 24 26 20 52 -11 62 -7 3 -10 0 -6
-7 11 -17 -6 -13 -34 9 -14 11 -20 20 -13 20 6 0 15 -4 18 -10 3 -5 11 -10 17
-10 7 0 7 4 -1 13 -13 16 -5 28 18 26 13 -1 12 -2 -2 -6z m83 -60 c0 -22 -16
-15 -31 15 -23 46 -23 48 5 23 14 -14 26 -30 26 -38z m168 38 c3 -8 -1 -12 -9
-9 -7 2 -15 10 -17 17 -3 8 1 12 9 9 7 -2 15 -10 17 -17z m72 3 c0 -14 -3 -14
-15 -4 -8 7 -15 14 -15 16 0 2 7 4 15 4 8 0 15 -7 15 -16z m71 -11 c26 -16 38
-33 23 -33 -12 0 -64 34 -64 42 0 12 9 10 41 -9z m83 8 c9 -14 -45 -24 -58
-10 -8 9 -6 10 12 6 12 -3 22 -1 22 4 0 12 17 12 24 0z m-1702 -41 c-47 -43
-52 -46 -52 -29 0 18 57 69 77 69 13 0 7 -11 -25 -40z m106 28 c-3 -7 -14 -14
-26 -16 -12 -2 -22 -6 -22 -10 0 -4 -10 -18 -21 -32 l-20 -25 6 25 c4 14 18
35 31 48 27 24 58 30 52 10z m72 6 c0 -11 -28 -33 -34 -26 -4 3 -4 -2 0 -13 7
-18 6 -18 -9 -6 -15 12 -17 12 -11 -4 5 -13 4 -16 -4 -11 -7 4 -12 2 -12 -3 0
-6 5 -11 11 -11 5 0 7 -5 4 -10 -9 -15 -25 -2 -25 21 0 24 43 69 65 69 8 0 15
-3 15 -6z m535 -4 c3 -5 -1 -10 -11 -10 -14 0 -14 -3 -4 -15 11 -13 10 -14 -4
-9 -10 4 -25 -1 -36 -11 -17 -16 -20 -16 -20 -2 0 15 44 57 61 57 4 0 11 -4
14 -10z m85 4 c0 -6 -70 -74 -76 -74 -11 0 -1 22 22 49 23 27 54 42 54 25z
m83 -16 c-11 -13 -26 -32 -32 -43 -11 -18 -12 -17 -6 8 7 36 -1 34 -25 -5 -17
-28 -20 -30 -20 -12 0 31 44 74 76 74 l27 0 -20 -22z m-952 3 c-8 -5 -10 -14
-6 -21 6 -9 4 -11 -4 -6 -7 5 -21 0 -32 -10 -27 -25 -33 -12 -8 19 11 15 30
27 42 27 17 0 19 -3 8 -9z m301 3 c7 -6 -22 -65 -36 -76 -15 -10 -36 3 -36 23
0 34 53 73 72 53z m712 -10 c17 -17 19 -25 10 -47 -9 -24 -46 -9 -38 15 4 14
2 18 -5 14 -17 -11 -13 -46 6 -46 9 0 14 -3 10 -6 -11 -11 -47 7 -47 24 0 20
27 62 40 62 5 0 16 -7 24 -16z m504 -4 c7 -11 8 -20 4 -20 -5 0 -17 9 -27 20
-14 15 -15 20 -4 20 8 0 20 -9 27 -20z m119 -3 c-7 -19 -64 -27 -85 -11 -9 7
-14 16 -9 20 4 4 12 3 18 -3 11 -11 56 -6 65 9 9 14 17 1 11 -15z m203 2 c0
-5 -11 -9 -25 -9 -14 0 -25 -4 -25 -9 0 -11 -31 -24 -39 -16 -11 11 50 53 69
48 11 -3 20 -9 20 -14z m64 -26 c-30 -24 -54 -30 -54 -14 0 5 8 12 19 16 10 3
27 15 37 26 13 14 20 17 23 8 2 -7 -9 -23 -25 -36z m52 9 c-22 -23 -29 -10 -9
18 11 16 18 19 21 11 2 -7 -3 -20 -12 -29z m-696 -3 c0 -17 -33 -39 -58 -39
-15 0 -36 7 -46 15 -11 8 -28 15 -38 15 -10 0 -18 5 -18 10 0 14 15 13 57 -5
61 -26 80 -19 73 24 -1 13 1 13 14 2 9 -8 16 -17 16 -22z m413 12 c-2 -6 6
-11 17 -11 11 0 20 -4 20 -10 0 -15 -27 -12 -44 6 -19 19 -21 38 -3 31 6 -2
11 -10 10 -16z m-1319 -7 c20 -19 20 -28 1 -44 -30 -25 -70 15 -45 45 16 19
25 19 44 -1z m837 -2 c-13 -2 -27 0 -32 5 -6 6 3 7 23 4 28 -4 29 -6 9 -9z
m-96 -22 c3 -6 15 -10 25 -10 10 0 21 -4 24 -9 5 -7 -17 -6 -71 5 -14 2 -21
11 -20 23 1 15 5 17 19 10 9 -5 20 -14 23 -19z m195 -5 c-7 -8 -17 -15 -22
-15 -6 0 -5 7 2 15 7 8 17 15 22 15 6 0 5 -7 -2 -15z m549 -21 c10 -9 -116 -3
-129 6 -10 7 7 8 55 4 39 -4 72 -8 74 -10z"/>
<path d="M1517 2382 c-19 -20 -23 -37 -7 -27 10 6 33 45 27 45 -2 0 -11 -8
-20 -18z"/>
<path d="M1662 2319 c-29 -5 -65 -16 -80 -24 -18 -11 -21 -14 -7 -11 116 28
198 32 215 11 11 -13 3 -15 -66 -16 -87 0 -165 -11 -149 -20 6 -4 42 -2 80 3
75 9 138 4 223 -17 70 -18 67 -2 -5 20 -32 10 -64 27 -73 37 -19 23 -69 29
-138 17z"/>
<path d="M1950 2296 c0 -3 15 -12 33 -20 151 -68 175 -77 163 -57 -10 16 -196
89 -196 77z"/>
<path d="M2171 2127 c28 -21 59 -36 59 -29 0 5 -11 14 -25 20 -24 11 -44 16
-34 9z"/>
<path d="M2075 2070 c44 -21 82 -36 84 -34 5 4 -143 74 -156 74 -4 -1 28 -18
72 -40z"/>
<path d="M1605 2033 c6 -5 35 -26 65 -47 40 -27 46 -29 23 -9 -29 26 -110 77
-88 56z"/>
<path d="M1890 1794 c25 -27 47 -49 50 -47 2 2 -18 25 -45 51 l-49 47 44 -51z"/>
<path d="M1660 2095 c0 -2 33 -18 73 -37 73 -36 172 -105 216 -152 14 -14 34
-26 45 -26 18 1 15 6 -19 36 -59 52 -175 133 -215 151 -35 15 -100 33 -100 28z"/>
<path d="M2025 1995 c22 -19 46 -35 54 -35 8 0 -6 16 -30 35 -57 45 -76 45
-24 0z"/>
<path d="M2135 1760 c10 -11 20 -20 22 -20 2 0 -1 9 -7 20 -6 11 -16 20 -22
20 -6 0 -3 -9 7 -20z"/>
<path d="M545 1930 c3 -6 20 -10 37 -10 38 0 34 5 -10 13 -21 4 -31 3 -27 -3z"/>
<path d="M1465 1951 c21 -22 43 -41 49 -41 13 0 -43 59 -69 72 -11 6 -2 -8 20
-31z"/>
<path d="M1554 1426 c-34 -15 -50 -33 -39 -44 4 -4 10 -1 12 6 3 6 11 12 19
12 8 0 14 5 14 10 0 6 8 10 18 10 9 0 24 5 32 10 24 15 -18 12 -56 -4z"/>
<path d="M1620 1409 c-8 -5 -33 -17 -55 -26 -29 -12 -35 -18 -22 -21 21 -4 79
21 97 43 14 17 3 19 -20 4z"/>
<path d="M1450 1360 c0 -5 9 -10 19 -10 11 0 23 5 26 10 4 6 -5 10 -19 10 -14
0 -26 -4 -26 -10z"/>
<path d="M1480 1843 c0 -6 18 -30 40 -54 21 -24 39 -39 39 -34 0 6 -18 30 -39
54 -22 24 -40 39 -40 34z"/>
<path d="M710 1653 c-22 -9 -43 -33 -36 -40 11 -11 36 -12 36 -2 0 6 5 7 10 4
6 -3 10 -1 10 5 0 6 5 8 10 5 6 -3 10 -1 10 5 0 6 -11 8 -27 5 l-28 -6 25 15
c25 15 19 20 -10 9z"/>
<path d="M1492 1618 c-18 -18 -15 -36 7 -48 25 -13 34 -13 26 0 -4 6 -1 18 7
27 11 15 11 16 -6 10 -14 -6 -17 -4 -12 8 7 18 -5 20 -22 3z"/>
<path d="M625 1523 c-32 -5 -47 -15 -51 -35 -2 -7 -6 -24 -9 -38 -6 -23 -5
-24 8 -7 11 14 16 15 20 5 4 -9 6 -8 6 4 1 9 -5 19 -11 21 -8 4 -7 6 4 6 9 1
19 -7 21 -16 4 -17 5 -17 6 0 0 10 -9 21 -21 26 -22 9 -22 9 7 15 88 20 99 30
20 19z"/>
<path d="M841 1396 c-12 -15 4 -26 37 -26 16 1 16 2 0 14 -10 7 -15 16 -11 19
3 4 2 7 -4 7 -6 0 -16 -6 -22 -14z"/>
<path d="M795 1360 c-7 -11 18 -24 35 -18 6 2 1 9 -9 15 -13 8 -22 9 -26 3z"/>
<path d="M768 1323 c6 -2 12 -12 12 -21 0 -12 3 -13 11 -5 14 14 3 33 -19 32
-11 0 -12 -3 -4 -6z"/>
<path d="M748 1270 c2 -16 6 -30 8 -30 2 0 4 14 4 30 0 17 -4 30 -8 30 -5 0
-7 -13 -4 -30z"/>
<path d="M728 1254 c-2 -5 1 -20 8 -34 8 -14 13 -18 13 -10 -1 24 -15 55 -21
44z"/>
<path d="M716 1145 c9 -14 19 -24 21 -21 6 6 -20 46 -30 46 -4 0 0 -11 9 -25z"/>
<path d="M1276 1449 c3 -5 9 -7 14 -4 5 3 11 -3 14 -12 4 -15 5 -15 3 1 -1 11
-10 20 -20 22 -9 1 -15 -2 -11 -7z"/>
<path d="M577 1368 c-79 -25 -106 -52 -87 -88 13 -24 24 -19 44 21 6 12 18 25
26 27 13 5 13 3 1 -12 -8 -9 -11 -19 -7 -23 3 -3 6 -1 6 6 0 7 5 9 10 6 6 -3
10 1 10 9 0 8 -7 19 -17 24 -14 9 -14 10 5 16 11 4 33 4 49 1 23 -4 24 -4 8 4
-17 8 -17 10 -3 10 9 1 20 6 23 11 3 6 5 10 3 9 -2 0 -34 -10 -71 -21z m-39
-42 c-10 -7 -18 -21 -18 -30 0 -9 -4 -16 -10 -16 -17 0 -11 38 8 49 25 15 40
13 20 -3z"/>
<path d="M656 1024 c-5 -12 2 -26 21 -43 l27 -26 -22 26 c-26 30 -29 47 -4 28
16 -13 16 -13 2 6 -8 11 -15 21 -16 23 -1 2 -5 -5 -8 -14z"/>
<path d="M661 964 c13 -17 26 -30 28 -27 3 2 -8 16 -24 31 l-28 27 24 -31z"/>
<path d="M1560 917 c19 -6 58 -34 86 -63 54 -55 101 -90 110 -82 11 12 -9 57
-38 87 -28 29 -141 73 -179 70 -8 -1 2 -6 21 -12z m120 -52 c20 -24 6 -28 -15
-5 -10 11 -13 20 -8 20 6 0 16 -7 23 -15z"/>
<path d="M1350 900 c-14 -10 -23 -21 -20 -23 3 -2 16 6 30 19 30 29 25 31 -10
4z"/>
<path d="M1500 820 c-8 -5 -12 -11 -9 -14 3 -3 14 1 25 9 21 16 8 20 -16 5z"/>
<path d="M648 429 c-19 -11 -24 -34 -9 -44 5 -3 13 0 17 6 4 8 3 9 -4 5 -17
-11 -14 5 5 26 18 20 16 22 -9 7z"/>
<path d="M707 414 c-10 -10 5 -34 22 -34 14 0 14 2 1 10 -13 9 -13 11 0 20 13
8 13 10 -1 10 -9 0 -18 -3 -22 -6z"/>
</g>
</svg>
