<?xml version="1.0" standalone="no"?>
<!DOCTYPE svg PUBLIC "-//W3C//DTD SVG 20010904//EN"
 "http://www.w3.org/TR/2001/REC-SVG-20010904/DTD/svg10.dtd">
<svg version="1.0" xmlns="http://www.w3.org/2000/svg"
 width="300.000000pt" height="300.000000pt" viewBox="0 0 300.000000 300.000000"
 preserveAspectRatio="xMidYMid meet">
<metadata>
Created by potrace 1.10, written by Peter Selinger 2001-2011
</metadata>
<g transform="translate(0.000000,300.000000) scale(0.100000,-0.100000)"
fill="#000000" stroke="none">
<path d="M2707 2901 c-34 -33 -80 -72 -102 -87 -73 -49 -161 -101 -183 -108
-20 -7 -22 -4 -22 29 0 59 -47 129 -79 117 -9 -3 -47 -34 -86 -69 -38 -35 -75
-63 -81 -63 -7 0 -14 -3 -16 -7 -4 -10 -102 -69 -203 -123 -44 -23 -84 -46
-90 -50 -5 -3 -26 -13 -45 -20 -19 -7 -106 -49 -194 -92 -87 -43 -161 -76
-165 -73 -3 4 -11 66 -18 138 -16 193 -22 215 -69 273 -19 23 -34 45 -34 51 0
13 -40 48 -64 57 -19 7 -53 -23 -132 -119 -56 -68 -133 -141 -294 -278 -74
-63 -150 -135 -168 -159 -35 -45 -90 -152 -95 -184 -5 -33 -17 -44 -52 -44
-109 0 -201 -40 -301 -131 -100 -91 -123 -123 -130 -185 -8 -65 9 -122 49
-169 l34 -39 -19 -33 c-27 -45 -37 -193 -15 -212 26 -21 60 -9 77 27 l16 33
22 -28 c24 -30 28 -48 11 -59 -7 -4 -9 -23 -6 -49 4 -29 2 -48 -8 -61 -14 -18
-14 -18 -30 4 -9 12 -27 22 -40 22 -35 0 -75 -21 -76 -39 -1 -23 2 -74 6 -97
2 -10 4 -28 4 -40 1 -22 95 -131 111 -127 4 1 7 -18 5 -42 -3 -30 1 -50 11
-59 28 -28 9 -55 -24 -35 -30 19 -81 -6 -98 -47 -23 -54 13 -114 69 -114 17 0
78 56 70 64 -13 12 -29 5 -38 -16 -14 -32 -58 -36 -79 -6 -21 30 -20 50 5 82
21 27 60 34 89 16 20 -12 3 -28 -35 -32 -24 -2 -30 -8 -30 -28 0 -16 6 -26 19
-28 15 -3 18 0 13 17 -4 16 0 22 19 27 14 4 31 1 39 -6 10 -8 15 -9 15 -2 0 6
-4 14 -10 17 -12 7 -14 35 -2 35 7 -1 92 -113 92 -124 0 -3 -20 -11 -44 -17
-54 -13 -123 -70 -142 -116 -23 -55 -18 -134 12 -179 63 -93 95 -124 169 -159
65 -32 82 -36 142 -34 137 4 347 -13 373 -30 35 -23 207 -22 275 2 66 23 180
24 231 2 47 -21 117 -20 148 0 20 13 90 16 457 18 l434 3 65 31 c36 17 75 34
86 37 49 14 63 53 40 108 -6 12 5 24 41 48 67 46 107 85 163 160 38 52 53 82
69 149 12 46 21 90 21 99 0 26 -41 53 -77 50 -44 -3 -57 11 -43 46 29 78 -1
162 -72 201 -33 17 -41 18 -73 6 -49 -17 -64 -4 -58 53 5 43 -17 106 -37 106
-23 0 -7 21 25 34 39 17 62 55 50 83 -7 14 -10 11 -14 -17 -11 -66 -88 -74
-127 -14 -17 26 -17 28 3 65 19 35 19 38 3 29 -33 -18 -41 -80 -14 -118 19
-27 16 -32 -28 -42 l-33 -8 38 -1 c53 -1 96 -27 113 -66 22 -54 -7 -105 -60
-105 l-30 0 32 29 c38 35 38 40 11 74 -16 22 -97 57 -103 45 -1 -2 -12 -23
-24 -48 l-23 -45 29 32 c30 34 68 43 90 21 32 -32 -16 -91 -57 -69 -26 15 -42
14 -39 -1 2 -8 -10 -14 -31 -16 l-33 -3 7 53 c15 107 4 148 -40 148 -32 0 -42
-16 -57 -91 -7 -36 -17 -68 -23 -70 -5 -2 -16 17 -24 43 -14 47 -14 49 10 74
22 23 24 35 25 122 1 68 -2 104 -12 119 -22 35 -17 52 19 61 37 10 45 2 62
-68 14 -59 65 -148 89 -156 25 -8 43 12 66 76 17 45 18 63 10 112 -12 76 -30
112 -58 116 -14 2 -22 10 -22 22 0 10 -4 22 -10 25 -21 13 -8 31 49 67 70 44
73 43 101 -61 25 -90 27 -223 3 -298 -15 -47 -15 -56 -3 -64 27 -16 50 -9 63
19 6 15 16 30 20 33 5 4 11 56 14 115 6 141 -19 265 -69 336 -21 29 17 94 81
138 79 53 137 119 177 203 25 51 34 84 33 112 -2 28 7 61 30 109 32 66 54 165
43 196 -8 23 -44 60 -59 60 -17 0 -17 -3 12 84 14 41 25 87 25 103 0 72 -45
153 -85 153 -9 0 -44 -27 -78 -59z m123 -51 c29 -123 -90 -311 -258 -409 -41
-24 -76 -40 -79 -37 -3 3 -23 -8 -44 -25 -22 -17 -39 -26 -39 -21 0 14 54 52
80 57 31 6 149 105 126 105 -5 0 -47 -27 -94 -60 -47 -33 -88 -58 -90 -55 -2
2 3 13 11 25 8 12 13 29 11 38 -3 13 22 30 108 72 62 30 119 54 126 53 17 -1
89 108 102 156 12 43 13 101 2 118 -5 8 -16 1 -35 -22 -39 -48 -235 -176 -404
-263 -77 -39 -145 -72 -149 -72 -5 1 7 14 26 30 50 43 26 37 -34 -9 -28 -21
-62 -44 -76 -51 -24 -12 -24 -12 -8 6 10 10 48 39 85 64 84 57 123 111 130
176 l5 49 -43 -42 c-91 -86 -315 -212 -699 -391 -36 -17 -87 -43 -115 -58 -27
-14 -60 -31 -72 -38 -45 -24 -176 -143 -199 -182 -31 -52 -30 -90 2 -200 39
-135 24 -175 -91 -245 -61 -37 -83 -70 -91 -136 -3 -26 -8 -59 -11 -73 l-5
-25 -9 23 c-8 21 -1 81 16 127 6 17 4 17 -14 -4 -26 -29 -28 -98 -5 -142 17
-34 15 -43 -9 -34 -19 8 -27 36 -27 98 0 72 32 120 105 161 l30 17 -31 -4
c-23 -2 -31 0 -27 10 3 7 1 13 -4 13 -5 0 -18 7 -29 16 -19 15 -19 16 1 10 14
-4 9 4 -15 24 -19 17 -28 30 -20 29 32 -3 60 1 60 10 0 4 -10 6 -22 4 -13 -2
-34 0 -48 6 -23 9 -23 10 13 10 52 1 46 13 -15 32 -52 16 -52 17 -18 18 35 2
35 2 -18 22 -29 12 -51 23 -48 26 3 3 42 0 87 -8 77 -12 80 -14 60 -28 -22
-14 -21 -15 25 -41 l46 -28 -30 -22 c-29 -21 -29 -23 -12 -40 10 -10 19 -23
21 -29 7 -19 69 5 106 41 40 38 40 50 7 152 -13 44 -25 103 -25 133 -1 68 30
118 126 203 69 61 94 92 95 118 0 15 -51 8 -80 -10 -11 -6 -8 -7 9 -2 l24 6
-21 -29 c-23 -32 -111 -108 -117 -101 -2 2 2 17 10 32 8 16 15 35 15 43 0 8
13 19 30 24 16 6 28 15 25 19 -3 4 2 10 10 13 8 4 28 25 45 48 22 31 30 53 30
85 l0 43 -37 -25 c-46 -31 -56 -41 -25 -25 12 6 22 8 22 3 0 -17 -113 -133
-125 -128 -7 2 -18 -8 -25 -22 -8 -16 -14 -22 -17 -14 -3 7 1 20 9 29 10 13 6
12 -14 -2 -25 -18 -41 -44 -18 -30 6 3 10 -1 10 -9 0 -19 -20 -32 -21 -14 0
10 -2 10 -6 0 -6 -16 -120 -92 -137 -92 -18 0 -37 60 -26 81 6 10 50 39 98 65
48 26 104 57 124 70 21 13 40 24 42 24 3 0 -2 -16 -10 -36 -21 -49 -10 -56 12
-8 9 22 18 42 18 45 1 3 24 29 51 57 51 54 76 102 68 133 -4 15 -9 15 -41 -8
-45 -30 -55 -40 -24 -24 13 7 22 8 22 2 0 -12 -109 -131 -120 -131 -17 0 28
93 51 106 13 7 20 13 15 14 -6 0 4 15 21 33 39 41 53 68 53 103 0 27 0 27 -36
-15 -32 -37 -196 -181 -207 -181 -16 0 5 37 51 86 51 55 55 52 8 -6 -12 -14 1
-5 27 20 46 43 83 91 58 76 -6 -4 1 15 15 42 18 34 23 57 19 75 -7 26 -25 38
-25 17 0 -24 -185 -212 -320 -325 -169 -142 -218 -194 -260 -278 -36 -73 -43
-157 -12 -157 11 0 45 -10 78 -21 32 -12 93 -32 134 -44 67 -21 72 -24 47 -30
-21 -6 -62 4 -155 36 -116 40 -135 44 -227 44 -81 0 -109 -4 -146 -21 -47 -22
-109 -75 -109 -94 0 -5 -15 -16 -33 -24 -18 -7 -45 -28 -60 -45 -22 -27 -27
-42 -27 -87 0 -48 4 -58 35 -93 19 -21 45 -41 56 -44 18 -5 20 -2 14 24 -6 25
-3 30 22 40 15 6 61 11 101 12 103 1 126 -17 130 -103 2 -47 -1 -67 -14 -81
-36 -39 -39 -259 -5 -359 27 -80 110 -250 121 -250 5 0 12 5 16 11 10 17 63
-40 74 -79 6 -25 5 -43 -4 -66 l-13 -31 -7 50 c-9 64 -27 89 -59 82 -20 -6
-28 1 -55 46 -44 73 -101 210 -119 287 -19 82 -12 270 12 307 9 13 18 49 19
79 3 51 1 56 -21 65 -27 10 -123 12 -147 3 -10 -4 -16 -18 -16 -40 0 -31 -3
-34 -29 -34 -58 0 -132 74 -145 145 -14 71 31 159 93 185 17 7 32 22 35 36 4
13 11 24 17 24 5 0 27 13 47 29 52 41 120 61 210 61 l77 0 3 42 c7 110 80 210
266 368 169 143 312 286 347 348 13 23 27 42 31 42 13 0 49 -44 54 -67 4 -13
3 -35 -1 -50 l-7 -28 25 23 24 22 11 -25 c7 -14 12 -39 12 -56 0 -16 7 -41 16
-55 11 -17 15 -36 11 -60 -3 -20 -1 -57 5 -83 8 -37 7 -53 -5 -83 -15 -36 -15
-37 6 -40 17 -2 21 -9 19 -30 -3 -33 -42 -49 328 134 319 158 454 239 541 325
l56 55 16 -39 c18 -46 11 -103 -21 -157 -12 -20 -20 -36 -18 -36 3 0 64 34
138 76 156 89 267 171 306 225 l27 38 17 -22 c9 -12 22 -42 28 -67z m-141
-101 c-46 -65 -171 -176 -264 -235 -29 -18 -29 -18 -15 0 8 10 15 24 15 30 2
54 18 76 81 110 36 20 77 43 92 52 21 12 20 10 -7 -13 -18 -15 -52 -37 -74
-48 -22 -11 -48 -31 -56 -45 -16 -25 -16 -25 22 4 21 15 40 26 43 23 3 -2 -18
-22 -46 -43 -52 -39 -63 -52 -32 -35 31 17 192 162 189 171 -2 10 52 59 66 60
5 0 -1 -14 -14 -31z m48 -31 c-21 -49 -62 -93 -112 -122 -57 -31 -58 -14 -2
39 24 22 61 62 82 89 42 51 55 49 32 -6z m-1581 -75 c-19 -33 -43 -70 -54 -83
l-19 -24 -7 22 c-6 19 3 35 51 86 32 35 59 62 61 61 2 -1 -13 -29 -32 -62z
m1054 -17 c-53 -74 -163 -182 -207 -205 -23 -11 -44 -21 -46 -21 -3 0 -4 23
-3 52 l1 51 95 55 c52 30 113 67 135 82 56 39 61 37 25 -14z m193 -78 c-8 -29
-20 -59 -26 -67 -7 -8 -94 -55 -195 -105 -101 -49 -180 -92 -175 -93 5 -2 84
33 176 77 91 44 172 80 179 80 7 0 22 7 32 15 29 22 39 18 31 -12 -14 -61 -48
-114 -91 -144 -59 -40 -56 -24 6 35 37 34 49 52 45 65 -4 12 0 21 11 25 9 4
14 9 11 13 -4 3 -13 0 -22 -7 -8 -7 -15 -9 -15 -4 0 4 -10 -2 -23 -14 -25 -24
-118 -68 -217 -102 -72 -26 -92 -38 -58 -35 34 3 41 -5 22 -26 -9 -10 -14 -19
-10 -19 11 0 160 78 181 95 11 9 -4 4 -33 -10 -94 -46 -66 -21 39 34 55 29
103 50 107 46 4 -3 -16 -28 -43 -54 -28 -27 -57 -58 -65 -69 -8 -12 -26 -24
-40 -26 -14 -3 -63 -18 -110 -34 -47 -16 -106 -32 -133 -36 l-47 -6 16 31 c9
18 14 45 11 64 -3 23 0 38 12 48 9 8 85 51 169 96 214 114 251 138 252 164 0
5 -14 -3 -31 -17 -28 -24 -321 -173 -410 -209 -20 -8 -42 -11 -49 -7 -8 5 78
53 241 133 140 69 257 126 261 126 4 1 0 -23 -9 -51z m454 -46 c-6 -58 -50
-157 -94 -211 l-28 -35 29 19 29 19 -6 -42 c-13 -100 -112 -237 -213 -293 -33
-19 -54 -38 -58 -53 -17 -69 -136 -172 -225 -196 l-44 -11 39 -26 c22 -14 41
-28 44 -30 2 -2 -9 -15 -25 -28 -39 -32 -126 -65 -173 -65 l-37 -1 23 -18 c12
-11 22 -26 22 -35 0 -22 -63 -46 -121 -46 -27 0 -49 -2 -49 -5 0 -3 11 -18 25
-33 l26 -27 -38 -18 c-24 -11 -56 -16 -86 -15 -39 3 -46 0 -41 -12 31 -72 33
-85 12 -93 -12 -4 -29 -5 -39 -2 -27 9 -20 -35 8 -48 13 -6 23 -14 23 -18 0
-4 15 -10 33 -14 17 -3 58 -15 90 -27 l58 -21 26 24 26 24 -5 -32 c-3 -21 0
-34 9 -37 17 -7 19 10 8 57 -5 20 -4 27 8 27 16 0 27 -29 27 -73 0 -20 7 -30
24 -37 13 -5 26 -14 28 -20 2 -8 58 -14 176 -18 136 -4 177 -8 199 -22 26 -16
30 -15 60 2 36 22 52 17 93 -27 31 -33 35 -112 8 -142 -22 -24 -23 -33 -3 -33
20 0 19 -6 -6 -41 -19 -28 -20 -29 -1 -29 10 0 42 7 70 15 29 9 57 13 62 10
15 -9 12 -38 -5 -61 -8 -10 -15 -35 -15 -54 -1 -58 -27 -101 -124 -207 -43
-47 -104 -85 -171 -108 -19 -6 -19 -7 -2 -16 19 -11 47 -60 47 -84 0 -10 -10
-15 -34 -15 -19 0 -38 -5 -42 -11 -3 -6 -30 -22 -58 -35 l-51 -24 -446 0
c-438 0 -447 0 -452 -20 -7 -27 -69 -27 -122 0 -56 28 -180 28 -237 -1 -26
-13 -55 -20 -82 -18 -22 1 -54 -1 -69 -6 -30 -8 -93 7 -133 31 -17 10 -101 16
-329 24 -11 1 -34 -2 -52 -5 -40 -9 -171 50 -200 89 -10 14 -33 42 -50 62 -87
97 -37 228 105 274 42 14 80 20 100 16 28 -4 47 3 103 36 38 23 69 42 69 43 0
0 -15 -1 -34 -3 -45 -5 -83 31 -92 86 -5 33 -12 41 -47 58 -25 11 -48 31 -55
47 -16 34 -7 91 13 83 8 -3 15 -1 17 4 6 17 53 -15 62 -43 8 -22 7 -30 -4 -37
-24 -16 -33 -11 -26 14 6 24 -24 63 -37 49 -25 -24 11 -93 48 -93 32 0 55 -25
55 -60 0 -16 10 -41 23 -56 19 -22 28 -25 55 -19 36 8 38 12 16 43 -19 28 -1
29 27 1 33 -33 22 -77 -28 -114 -98 -71 -124 -83 -160 -74 -43 9 -159 -29
-185 -62 -33 -40 -42 -90 -23 -134 l16 -40 13 24 c13 23 14 22 20 -22 8 -55
55 -111 67 -80 4 10 8 13 8 6 1 -15 58 -58 90 -68 l24 -7 -21 27 c-22 27 -28
68 -16 99 11 29 24 17 24 -22 0 -25 7 -45 18 -54 31 -28 122 -43 257 -43 112
0 132 -2 143 -17 16 -22 32 -23 32 -3 0 10 8 6 25 -10 29 -30 45 -32 38 -5 -3
11 -3 27 1 35 5 13 10 11 30 -12 20 -23 32 -28 70 -27 24 0 57 9 71 18 39 25
219 29 241 5 9 -10 24 -19 34 -22 17 -4 18 -2 8 16 -11 21 -10 21 9 4 25 -22
42 -22 37 0 -5 17 20 18 433 16 470 -3 526 1 565 42 13 14 35 25 51 25 37 0
34 13 -13 51 -22 18 -40 36 -40 40 0 5 19 13 43 20 61 16 129 55 172 99 l38
38 -39 -9 c-22 -4 -52 -8 -69 -8 -41 0 -13 14 45 23 56 9 103 40 129 87 12 20
21 39 21 42 0 3 -23 -6 -51 -21 -45 -23 -63 -26 -138 -25 -71 0 -105 7 -195
37 -117 39 -237 96 -319 151 -40 27 -47 35 -30 35 12 0 25 -4 28 -10 3 -5 11
-10 17 -10 6 0 6 6 -2 15 -27 32 -3 22 49 -21 105 -87 276 -153 418 -161 110
-7 161 8 213 62 35 36 36 54 2 36 -23 -12 -144 -13 -182 -1 -25 8 -25 8 7 15
32 7 73 38 73 55 0 6 -19 10 -42 11 -42 1 -42 1 -16 13 50 22 78 56 78 96 0
20 -6 44 -13 55 -13 17 -14 16 -20 -13 -5 -27 -45 -77 -54 -68 -2 1 4 19 12
39 26 62 21 66 -42 36 -32 -16 -71 -31 -88 -35 l-30 -6 38 28 c20 15 37 30 37
35 0 13 -45 18 -169 18 -157 0 -231 9 -225 26 4 9 -21 23 -75 44 -44 17 -86
31 -93 31 -7 0 -25 7 -40 14 -15 8 -52 18 -83 21 -42 6 -53 10 -45 20 13 15
-19 31 -84 40 -35 6 -44 10 -36 20 5 6 6 15 2 20 -6 7 1 6 58 -11 35 -10 23
21 -22 58 -50 41 -83 60 -91 52 -3 -3 -21 -1 -40 5 l-34 12 12 37 c11 31 18
37 45 38 46 2 50 14 4 14 -59 1 -124 16 -141 33 -14 13 -10 15 33 11 63 -4 65
-5 29 -14 -25 -6 -21 -8 24 -9 l54 -1 -21 23 c-37 39 -24 41 20 3 43 -37 65
-41 33 -6 -9 10 -15 26 -12 35 8 20 44 19 56 -2 21 -36 27 -42 56 -48 24 -5
27 -4 15 5 -28 21 32 0 72 -26 46 -29 57 -31 33 -4 -27 29 -3 24 25 -5 l24
-25 -40 5 c-22 2 -68 14 -102 25 -77 25 -98 17 -38 -15 52 -28 137 -45 184
-38 l33 5 -22 24 c-33 35 -117 87 -128 79 -12 -7 -111 26 -111 37 0 20 29 16
113 -13 77 -28 106 -33 179 -34 47 0 90 3 93 7 4 4 -13 28 -39 52 -25 25 -46
47 -46 49 0 2 23 0 51 -4 59 -9 133 2 185 29 l36 18 -39 26 c-21 14 -57 35
-81 47 -23 12 -42 23 -42 25 0 2 19 1 43 -1 65 -8 150 14 204 51 42 29 128
125 119 133 -2 2 -23 -1 -47 -7 -24 -5 -65 -12 -92 -16 -26 -3 -45 -9 -42 -15
4 -5 -14 -9 -41 -9 -74 0 -27 24 98 50 65 14 168 53 214 83 54 34 118 105 149
167 15 29 24 54 22 56 -2 3 -31 -9 -63 -25 -32 -16 -85 -37 -117 -47 -44 -14
-54 -20 -40 -25 16 -7 17 -8 1 -8 -10 -1 -18 -5 -18 -10 0 -5 -8 -7 -17 -5
-10 2 -31 0 -48 -6 -26 -8 -24 -9 15 -4 54 7 46 -8 -15 -28 -22 -7 -40 -19
-40 -26 0 -7 -11 -22 -25 -33 l-25 -20 25 12 c14 6 34 21 45 33 11 12 16 15
10 7 -7 -11 -1 -10 21 4 51 33 96 74 90 84 -3 5 5 12 18 15 13 3 32 9 43 13
30 11 -24 -43 -93 -93 -72 -52 -181 -107 -197 -101 -7 3 -2 9 11 14 13 5 23
13 22 17 -1 4 13 26 31 49 19 23 34 46 34 52 0 5 16 14 36 20 20 5 42 15 50
21 8 6 41 26 74 44 121 68 226 202 250 320 l7 34 -49 -44 c-50 -45 -354 -210
-387 -210 -37 0 -5 50 42 64 12 4 22 12 22 18 0 6 3 8 7 5 3 -4 -4 -18 -17
-32 -13 -14 -20 -25 -15 -25 15 0 199 102 245 135 25 19 72 61 105 94 57 58
60 60 68 39 5 -13 6 -47 4 -76z m-1788 2 c1 -16 -5 -39 -13 -50 -13 -17 -13
-13 -3 29 13 57 4 69 -27 36 -18 -19 -21 -30 -16 -54 l8 -30 1 31 c1 27 31 73
31 48 0 -40 -25 -87 -63 -116 -23 -18 -36 -26 -30 -17 7 9 9 20 5 24 -4 5 -1
4 7 0 11 -6 13 -4 8 9 -5 11 -3 15 5 10 8 -5 9 -2 5 9 -3 9 -2 19 3 22 6 4 10
13 10 21 0 20 -18 2 -45 -43 -10 -17 -24 -29 -31 -26 -7 3 -18 -15 -29 -46 -9
-28 -21 -51 -26 -51 -12 0 -2 38 14 58 7 9 6 11 -7 6 -9 -3 -16 -13 -16 -21 0
-8 -4 -12 -9 -8 -16 9 -24 -15 -10 -31 6 -8 10 -16 8 -17 -2 -1 -12 -9 -22
-17 -17 -12 -18 -11 -12 16 5 22 4 25 -4 14 -6 -8 -11 -11 -11 -6 0 5 -9 1
-20 -9 -11 -10 -23 -16 -26 -13 -3 3 48 53 113 111 65 58 134 121 153 141 30
32 35 34 42 19 3 -10 7 -32 7 -49z m112 -52 c-6 -22 -20 -51 -31 -64 -22 -27
-27 -11 -5 18 20 27 18 44 -5 44 -11 0 -20 -4 -20 -10 0 -5 7 -7 15 -3 13 5
14 2 4 -20 -6 -14 -20 -28 -30 -30 -11 -3 -19 -11 -19 -19 0 -10 2 -10 10 2 5
8 12 11 16 7 9 -8 -16 -38 -26 -32 -4 3 -11 -2 -14 -11 -3 -8 -10 -13 -15 -10
-5 3 -15 -1 -22 -10 -13 -16 -89 -58 -89 -49 0 15 3 20 12 17 6 -1 29 13 53
32 23 20 45 32 49 28 4 -3 4 2 0 12 -5 14 -4 17 4 12 7 -4 12 -2 12 3 0 6 -5
11 -11 11 -5 0 -7 5 -4 10 4 6 -28 -12 -71 -40 -66 -43 -104 -60 -104 -46 0 2
40 29 88 59 48 30 115 73 147 95 32 23 61 40 63 38 2 -2 -2 -22 -7 -44z m749
-11 c0 -50 -11 -70 -51 -91 -25 -14 -24 -11 6 30 14 19 25 44 25 57 0 26 -3
27 -32 12 -15 -8 -18 -17 -14 -35 7 -27 -18 -80 -42 -89 -24 -9 -25 2 -4 37
10 18 22 45 26 59 5 23 57 68 79 69 4 0 7 -22 7 -49z m-109 -42 c-9 -21 -10
-22 -11 -4 -1 19 -2 18 -10 -2 -5 -13 -14 -23 -20 -23 -6 0 -8 4 -5 10 3 5 0
7 -8 4 -21 -8 -110 -124 -95 -124 6 0 1 -12 -13 -26 l-24 -26 41 17 c27 10 63
15 105 13 l64 -3 1 -53 c1 -29 4 -55 7 -59 3 -3 41 4 85 16 43 11 82 21 86 21
11 0 -55 -90 -101 -137 -54 -54 -78 -51 -58 8 16 45 8 55 -37 46 -20 -4 -19
-4 6 -6 27 -1 28 -3 22 -33 -4 -18 -15 -50 -25 -70 -16 -33 -16 -37 -2 -41 9
-2 5 -3 -9 -1 -14 1 -43 -2 -66 -7 -22 -6 -57 -9 -78 -7 l-38 3 21 27 c22 27
51 29 51 2 0 -8 9 -14 20 -14 11 0 20 4 20 10 0 11 60 44 61 33 0 -5 7 10 15
31 18 50 10 56 -70 56 -85 0 -58 14 54 29 52 7 106 15 119 18 20 5 22 3 13
-13 -6 -11 -18 -28 -26 -39 -16 -19 -16 -19 -10 8 3 15 2 27 -3 27 -8 0 -34
-91 -28 -98 2 -2 26 27 54 64 27 38 48 70 46 72 -1 2 -22 -2 -45 -8 -23 -6
-60 -8 -82 -5 -32 6 -37 9 -27 21 15 18 9 18 -40 -4 -22 -10 -38 -22 -34 -25
3 -4 -1 -7 -10 -7 -28 0 -19 17 15 31 18 7 26 15 18 17 -9 3 -6 10 11 23 23
17 23 18 4 25 -11 5 -41 -1 -77 -14 -64 -23 -79 -16 -23 11 40 19 120 23 130
6 4 -5 -1 -20 -12 -31 -18 -21 -18 -21 5 -9 14 7 22 21 22 36 0 24 -3 25 -59
25 -33 0 -72 -5 -86 -10 -19 -7 -39 -7 -66 1 -39 12 -54 39 -21 39 10 0 27 7
39 15 30 21 88 96 69 89 -9 -3 -16 -11 -16 -17 0 -6 -3 -8 -6 -4 -7 7 -80 -28
-89 -43 -13 -21 -127 -72 -138 -61 -12 12 -7 15 208 125 88 44 161 78 163 75
1 -3 -2 -17 -7 -30z m813 -60 c-38 -39 -97 -91 -131 -117 -74 -56 -183 -117
-183 -103 0 5 9 12 20 16 11 3 19 10 17 14 -1 4 17 35 41 69 35 51 55 68 110
96 37 18 94 49 127 68 33 19 62 33 64 31 3 -2 -26 -35 -65 -74z m90 24 c-30
-48 -136 -143 -160 -143 -5 0 32 40 81 90 49 49 91 87 93 85 2 -2 -4 -16 -14
-32z m-934 -18 c0 -17 -66 -75 -86 -75 -16 0 -17 -2 35 67 23 30 51 35 51 8z
m132 -45 c25 -26 29 -36 24 -63 -4 -17 -11 -36 -18 -42 -8 -7 -9 -5 -4 9 4 10
1 34 -5 53 -15 48 -47 58 -107 34 l-47 -19 40 -7 c22 -3 47 -7 55 -8 18 -3 25
-71 11 -107 -8 -21 -10 -16 -10 32 -1 31 -5 59 -9 62 -5 3 -27 7 -49 8 -43 3
-51 20 -20 43 9 7 13 16 9 20 -4 5 -2 5 5 2 6 -4 22 -3 35 2 39 16 58 12 90
-19z m-1016 -36 c19 -18 24 -31 20 -50 -4 -13 -3 -24 2 -24 5 0 9 -21 9 -47 1
-37 0 -41 -5 -19 -10 44 -32 45 -32 2 0 -20 -3 -36 -8 -36 -4 0 -7 20 -7 45 0
30 4 45 13 45 9 0 11 7 7 21 -5 16 -4 19 5 14 9 -6 11 -4 5 6 -18 32 -39 49
-59 48 -20 -1 -20 -2 -1 -6 25 -6 45 -22 45 -36 0 -5 -10 -2 -22 9 -22 19 -22
19 1 -11 14 -18 18 -31 11 -33 -6 -2 -17 4 -24 13 -7 10 -18 15 -24 11 -7 -4
-12 -3 -12 3 0 5 5 13 10 16 8 5 8 11 0 20 -8 10 -7 16 7 24 26 15 31 14 59
-15z m986 9 c13 -12 18 -30 18 -69 0 -76 -18 -78 -22 -2 l-3 63 -45 4 c-35 2
-41 5 -25 11 32 14 57 11 77 -7z m-1104 -31 c50 -33 67 -107 32 -142 -11 -11
-16 -20 -12 -20 5 0 17 9 27 20 19 21 24 62 11 95 -8 20 -7 20 8 1 25 -31 20
-74 -13 -107 -32 -32 -65 -37 -96 -13 -19 15 -19 15 10 9 23 -4 25 -3 10 4
-52 23 -78 95 -55 151 14 33 30 33 78 2z m1581 -29 c-42 -64 -88 -111 -122
-130 -25 -13 -28 -13 -20 0 4 9 29 34 56 57 50 45 52 47 37 70 -8 13 -12 12
-27 -4 -10 -10 -13 -16 -8 -13 6 3 16 2 23 -2 7 -4 -13 -28 -55 -66 -58 -52
-73 -60 -129 -71 -35 -6 -64 -10 -64 -8 0 2 41 24 91 50 50 25 89 48 86 50 -3
3 -24 -4 -47 -16 -23 -12 -44 -20 -46 -18 -2 2 26 19 62 37 36 18 63 35 60 38
-2 2 -13 0 -23 -6 -11 -5 -55 -19 -98 -30 -61 -16 -81 -18 -86 -9 -11 18 1 23
147 62 71 18 140 39 154 44 41 18 42 14 9 -35z m-1159 32 c0 -23 -55 -106 -77
-118 -16 -8 -46 -24 -68 -36 -57 -30 -75 -26 -29 7 21 16 45 36 53 45 7 9 18
14 25 10 8 -4 8 -3 0 6 -9 10 -18 9 -42 -3 -19 -10 -33 -12 -37 -6 -3 5 21 23
54 39 51 26 60 28 65 14 4 -9 -1 -24 -10 -35 -10 -10 -14 -21 -11 -24 3 -4 15
9 26 27 14 23 17 37 10 45 -7 9 -5 15 8 23 20 12 33 14 33 6z m224 -31 c12
-32 5 -109 -14 -148 -11 -23 -42 -63 -69 -90 l-49 -48 -12 36 c-16 50 -15 118
4 154 17 34 102 112 121 112 7 0 16 -7 19 -16z m-750 -62 c-4 -36 -2 -57 10
-80 9 -18 12 -32 7 -32 -15 0 -41 54 -41 84 0 23 19 76 27 76 2 0 1 -22 -3
-48z m927 33 c40 -21 69 -71 69 -118 0 -127 -141 -188 -232 -100 -15 15 -28
36 -28 47 0 17 4 15 20 -12 45 -73 133 -80 190 -15 29 33 32 41 27 87 -3 40
-11 55 -36 78 -36 33 -102 38 -139 12 -12 -8 -22 -11 -22 -5 0 37 97 53 151
26z m159 -4 c0 -10 -54 -31 -78 -31 -21 0 -6 13 31 27 40 15 47 15 47 4z
m-157 -52 c85 -92 -45 -228 -134 -140 -49 49 -36 135 25 165 40 21 74 13 109
-25z m-576 6 c3 -9 -2 -22 -13 -30 -25 -19 -40 -19 -24 0 10 12 7 13 -20 5
-27 -8 -31 -7 -28 8 2 10 13 17 26 16 12 0 22 3 22 8 0 14 30 8 37 -7z m243
-14 c0 -5 -16 -28 -35 -51 -32 -39 -35 -47 -32 -94 4 -42 10 -58 37 -84 18
-18 34 -31 36 -29 2 2 -5 30 -16 62 -11 32 -20 70 -20 84 0 17 -3 22 -10 15
-7 -7 -5 -26 5 -59 15 -50 13 -77 -3 -34 -20 55 -21 84 -2 109 l20 25 0 -33
c0 -18 11 -60 25 -95 14 -34 32 -88 41 -119 13 -51 13 -61 0 -80 -15 -24 -16
-44 -3 -65 5 -7 4 -20 -1 -29 -6 -11 -11 -13 -16 -5 -4 6 -2 11 4 11 6 0 8 5
4 11 -12 20 -23 -13 -12 -35 10 -20 10 -20 -7 -6 -17 14 -18 13 -12 -4 7 -17
6 -17 -9 -5 -16 13 -16 12 -6 -8 13 -24 1 -40 -20 -27 -8 5 -9 1 -5 -12 7 -18
6 -18 -9 1 -16 19 -16 19 -10 -7 8 -33 1 -36 -14 -8 -6 11 -7 26 -3 33 4 6 8
17 9 24 1 6 11 24 23 40 11 15 27 53 35 83 11 42 15 48 15 25 1 -32 -39 -128
-58 -139 -6 -4 -8 -12 -5 -18 12 -19 73 105 74 148 0 32 -57 160 -67 151 -3
-3 3 -29 12 -57 18 -53 15 -130 -4 -154 -6 -7 -7 -17 -3 -21 4 -5 2 -5 -4 -2
-6 3 -18 -8 -28 -25 -14 -23 -17 -43 -13 -82 5 -50 5 -51 -9 -21 l-15 30 6
-35 c4 -27 3 -32 -7 -22 -6 6 -15 31 -19 54 l-6 43 -2 -38 c0 -21 4 -48 10
-59 8 -15 8 -19 -1 -13 -6 4 -16 17 -21 29 -8 17 -9 14 -5 -14 l5 -35 -19 35
-19 35 5 -35 c4 -26 3 -31 -5 -20 -21 29 -12 66 21 91 70 53 87 71 107 112 26
54 26 78 1 160 -26 83 -34 161 -19 190 10 20 69 87 76 87 2 0 3 -4 3 -9z m810
-11 l25 0 -25 -20 c-25 -21 -91 -53 -96 -47 -2 1 9 21 24 44 17 27 30 39 36
33 6 -6 21 -10 36 -10z m-930 -20 c-8 -5 -22 -10 -30 -10 -9 0 -16 -10 -16
-25 -2 -21 1 -25 18 -19 14 4 18 2 14 -5 -4 -6 -14 -11 -22 -11 -8 0 -14 -7
-14 -15 0 -8 6 -15 13 -15 8 0 9 -2 1 -8 -8 -5 -5 -30 11 -86 39 -133 40 -143
9 -171 -31 -29 -43 -26 -37 9 3 16 -3 36 -20 58 -34 45 -41 72 -22 88 25 21
17 32 -10 14 -14 -9 -28 -14 -32 -11 -3 4 -14 2 -24 -4 -11 -5 -19 -7 -19 -3
0 13 35 33 57 34 12 0 25 5 28 10 3 6 -1 10 -10 10 -11 0 -14 6 -9 25 8 34
-16 25 -39 -14 -18 -31 -71 -61 -109 -61 -12 0 -41 5 -62 11 -53 15 -30 29 47
29 34 0 71 7 90 16 l32 17 -45 13 c-28 8 -60 28 -84 53 -56 57 -37 64 20 7 41
-40 53 -46 90 -46 41 0 67 14 42 23 -10 3 -10 7 1 21 13 15 12 16 -13 6 -34
-13 -36 -13 -36 3 0 6 35 24 78 38 81 28 130 37 102 19z m1455 1 c3 -6 -11
-21 -32 -35 -48 -33 -67 -34 -28 -1 17 13 35 29 40 34 13 13 13 13 20 2z
m-1639 -17 c-3 -9 -6 -31 -6 -49 0 -29 -3 -32 -21 -28 -18 5 -20 11 -14 39 3
21 2 34 -4 34 -6 0 -8 -6 -5 -14 3 -8 0 -17 -7 -22 -8 -4 -10 -3 -5 4 5 8 0
12 -13 12 -28 0 -27 18 2 24 84 18 80 18 73 0z m1371 -41 c-56 -72 -84 -99
-120 -112 -48 -19 -53 -12 -12 15 52 35 105 85 100 94 -3 4 5 10 16 13 14 4
20 11 16 21 -5 13 5 20 36 25 5 0 -12 -25 -36 -56z m-12 28 c5 -8 -22 -16
-125 -35 -14 -2 -2 -4 27 -3 29 1 54 -2 55 -7 2 -5 -28 -32 -66 -59 -57 -41
-80 -51 -128 -56 -67 -8 -78 -15 -49 -30 13 -7 22 -8 26 -1 8 12 125 13 125 1
0 -14 -88 -91 -117 -102 -15 -6 -55 -7 -95 -3 -43 4 -68 3 -68 -3 0 -6 26 -13
59 -17 32 -4 61 -9 64 -13 4 -3 21 -7 38 -8 55 -5 55 -20 -2 -59 -53 -35 -53
-35 -137 -30 -55 4 -82 2 -78 -4 3 -6 23 -13 44 -17 41 -7 113 -44 119 -61 4
-12 -74 -41 -84 -31 -3 4 8 10 26 13 17 4 34 11 37 16 7 12 -27 3 -70 -18 -19
-9 -34 -11 -45 -4 -15 9 -15 9 1 10 9 0 20 4 23 10 4 6 -4 6 -21 -1 -16 -5
-46 -7 -69 -3 -38 6 -39 7 -15 16 14 5 55 8 93 6 71 -3 84 3 40 20 -60 22 -93
31 -88 22 7 -11 -47 -40 -75 -40 l-21 0 21 27 c14 18 19 35 15 50 -4 19 1 27
29 44 36 21 66 59 66 83 0 8 23 31 50 51 28 20 50 44 51 53 1 10 2 24 3 32 2
8 3 23 4 33 2 13 11 17 45 17 l42 0 -30 -25 -30 -24 50 14 c64 19 154 54 139
55 -6 0 -31 -7 -54 -15 -24 -8 -45 -13 -47 -11 -3 2 27 15 66 27 39 13 69 24
68 26 -2 1 -30 -1 -63 -6 -118 -18 -154 -20 -154 -12 0 6 8 12 18 14 9 2 7 3
-6 2 -45 -5 -31 14 15 21 27 3 93 14 148 24 127 22 123 22 130 11z m-1509 -26
c20 -15 13 -18 -23 -9 -13 4 -23 10 -23 15 0 14 24 11 46 -6z m972 9 c47 -13
10 -58 -59 -70 l-34 -5 41 19 c67 32 67 46 1 38 -60 -6 -72 -2 -34 14 27 11
54 12 85 4z m-33 -33 c-12 -11 -85 -26 -85 -17 0 6 55 24 80 25 9 1 10 -2 5
-8z m230 -1 c13 -20 -56 -113 -72 -97 -3 4 4 18 16 31 12 13 22 32 21 42 -1
11 -2 22 -1 27 2 10 29 9 36 -3z m-1452 -12 c32 2 38 0 26 -8 -10 -5 -35 -12
-58 -14 -22 -2 -51 -11 -65 -20 -33 -21 -42 -20 -25 2 8 9 -7 0 -33 -21 -27
-21 -48 -35 -48 -30 -1 4 -8 -4 -16 -19 -15 -29 -34 -37 -34 -15 1 15 29 66
30 53 0 -6 14 3 32 20 17 16 27 22 23 14 -7 -12 -5 -12 11 1 27 23 68 44 60
30 -10 -16 5 -13 29 5 11 8 21 11 22 7 2 -5 22 -7 46 -5z m155 -21 c45 -14 46
-27 3 -27 -21 0 -23 2 -11 10 27 18 -5 10 -88 -20 -45 -16 -86 -29 -90 -28 -4
1 -22 -6 -40 -16 -46 -24 -52 -14 -8 14 20 12 36 24 36 26 0 12 -24 -1 -76
-41 -31 -25 -68 -45 -81 -45 -49 0 -30 14 125 91 51 25 75 31 130 32 49 0 59
2 37 7 -27 7 -28 8 -5 9 14 0 44 -5 68 -12z m1242 2 c0 -20 -21 -49 -35 -49
-7 0 -15 -5 -17 -11 -3 -8 -10 -5 -22 6 -16 17 -15 19 21 41 43 26 53 29 53
13z m-547 -11 c-13 -22 -12 -38 3 -38 22 0 17 -16 -11 -34 -28 -18 -45 -14
-45 11 0 10 6 14 20 10 17 -4 19 -1 15 20 -5 29 1 43 16 43 6 0 7 -6 2 -12z
m41 -6 c2 -4 1 -14 -4 -22 -7 -11 -12 -12 -21 -3 -6 6 -8 16 -5 22 8 13 23 14
30 3z m-638 -22 c16 0 23 -4 18 -11 -4 -7 -23 -9 -51 -5 -28 4 -42 2 -38 -4 4
-6 -21 -10 -67 -9 -72 1 -72 1 -38 14 19 7 47 10 62 8 14 -3 34 0 45 6 10 6
24 8 31 6 8 -3 25 -5 38 -5z m701 -52 c59 -80 59 -78 19 -78 -20 0 -36 4 -36
10 0 5 8 7 18 3 12 -4 10 1 -8 19 -45 47 -52 58 -38 59 10 0 10 2 1 6 -15 5
-18 33 -4 33 5 0 26 -24 48 -52z m-695 -5 c32 -16 58 -31 58 -35 0 -13 -38 -9
-52 5 -7 8 -48 17 -91 20 -99 9 -138 27 -54 25 32 0 61 2 64 6 9 9 12 8 75
-21z m1171 14 c13 -1 -2 -17 -48 -51 -65 -47 -138 -76 -193 -76 -21 0 -22 2
-8 15 8 8 20 15 26 15 6 0 8 5 4 11 -3 6 6 24 22 40 27 29 70 38 108 23 13 -5
12 -9 -8 -25 -32 -25 -44 -24 -20 2 19 22 19 22 -3 10 -12 -6 -25 -16 -28 -21
-3 -6 -11 -10 -16 -10 -6 0 -7 5 -3 11 4 6 -3 6 -17 -2 -24 -13 -24 -13 11
-19 38 -7 61 1 102 35 l27 23 -31 6 c-17 3 -46 6 -64 6 -19 0 -34 3 -34 8 0 6
113 6 173 -1z m-1443 -17 c0 -56 -105 -97 -130 -50 -10 18 -8 19 19 14 23 -5
32 -2 40 15 7 12 17 21 23 21 22 0 -20 -45 -48 -51 l-29 -7 28 -1 c29 -1 67
29 67 53 0 12 8 19 28 25 1 1 2 -8 2 -19z m926 -138 c-30 -44 -34 -62 -8 -39
13 12 28 15 53 11 25 -4 39 -1 48 10 24 28 33 18 26 -26 -15 -92 -60 -140
-126 -137 -24 2 -54 0 -66 -5 -14 -4 -23 -3 -23 2 0 14 56 32 99 32 20 0 46 8
58 18 23 17 22 17 -25 17 -26 -1 -53 -5 -60 -9 -25 -15 -26 6 -2 24 18 14 35
18 61 13 20 -3 45 0 55 6 11 6 14 11 6 11 -7 0 -11 4 -8 9 3 4 -6 6 -19 3 -14
-2 -31 1 -39 7 -11 10 -21 6 -45 -18 -18 -17 -36 -31 -42 -31 -5 0 -7 -11 -3
-24 4 -19 1 -25 -20 -30 -17 -4 -26 -13 -26 -26 0 -13 -7 -20 -19 -20 -23 0
-33 -13 -26 -32 7 -18 68 -40 89 -32 26 10 19 34 -11 35 -16 0 -37 4 -48 8
-18 7 -16 9 11 15 17 4 42 3 55 -3 17 -6 35 -5 57 5 28 11 32 11 32 -2 0 -9
-13 -21 -28 -26 -16 -6 -33 -21 -38 -32 -5 -12 -19 -22 -31 -24 -13 -2 -23
-10 -23 -17 0 -8 -9 -19 -21 -26 -17 -9 -32 -6 -83 20 -38 19 -65 26 -70 21
-5 -5 -8 -11 -5 -12 50 -31 90 -46 110 -41 21 6 23 5 10 -10 -20 -26 -47 -21
-107 19 -30 20 -58 33 -62 30 -9 -10 49 -55 81 -62 49 -11 29 -22 -50 -26 -48
-3 -90 0 -108 7 -29 12 -28 12 18 9 55 -3 60 6 15 27 -18 9 -27 18 -21 22 6 4
27 -5 48 -19 20 -14 42 -23 48 -21 16 5 -87 65 -119 69 -23 3 -17 6 31 17 113
25 216 95 256 172 25 49 25 124 -1 196 -22 63 -19 86 5 30 38 -91 41 -167 9
-229 -14 -26 -13 -28 6 -28 15 0 20 7 20 25 0 14 8 29 21 35 15 9 19 18 15 35
-4 14 0 27 9 35 15 13 12 30 -6 30 -6 0 -8 -4 -4 -9 3 -5 0 -13 -6 -17 -12 -7
-11 -3 7 63 4 16 1 23 -15 28 -27 8 -27 23 2 53 l22 24 29 -62 28 -61 -26 -37z
m325 143 c0 -5 -9 -11 -21 -13 -15 -3 -18 1 -14 13 7 17 35 17 35 0z m-66 -12
c19 -9 35 -20 35 -24 0 -8 -91 -48 -129 -55 -23 -5 -32 -2 -40 14 -16 30 -16
30 37 19 37 -8 54 -7 76 5 l28 15 -63 13 c-47 10 -58 15 -43 21 31 12 61 10
99 -8z m645 -5 c-34 -29 -137 -75 -185 -84 l-40 -7 45 42 c40 38 49 41 86 38
29 -3 48 1 65 14 35 27 61 24 29 -3z m-1696 -10 c38 -7 53 -14 44 -19 -19 -12
-166 -11 -173 1 -3 6 4 10 17 11 22 0 22 1 3 9 -31 13 40 12 109 -2z m948 0
c55 -12 86 -28 54 -28 -26 0 -110 22 -120 31 -13 12 2 11 66 -3z m-1328 -4 c9
-3 13 -10 10 -15 -3 -5 3 -12 13 -16 10 -3 29 -15 42 -25 24 -18 24 -18 2 -18
-12 0 -35 9 -50 21 -29 21 -78 23 -74 2 1 -6 -4 -17 -12 -23 -16 -13 -21 -75
-7 -84 5 -3 6 9 4 25 -3 21 2 37 18 53 16 18 18 25 8 30 -7 3 3 4 22 1 19 -3
40 -13 47 -21 10 -14 21 -15 70 -6 32 5 46 10 31 11 -15 0 -30 5 -33 11 -4 6
5 8 22 4 44 -9 55 -9 105 0 59 10 97 2 132 -30 15 -14 26 -27 24 -29 -6 -7
-171 16 -190 26 -12 6 -24 7 -31 1 -7 -5 -32 -12 -55 -16 -77 -12 -145 -56
-154 -101 -7 -33 -48 42 -48 88 0 49 13 73 53 97 37 23 31 22 51 14z m519 -17
c93 -49 116 -80 41 -53 -21 8 -38 19 -36 26 1 6 -1 9 -6 6 -4 -2 -21 6 -38 19
-37 31 -16 32 39 2z m-47 -33 c19 -9 34 -19 34 -23 0 -11 -140 5 -153 18 -9 9
-2 11 33 6 32 -4 39 -3 25 4 -19 9 -19 10 3 10 13 1 39 -6 58 -15z m1770 -31
c34 -81 45 -132 51 -234 5 -86 2 -117 -12 -163 -10 -31 -20 -56 -24 -56 -3 0
-6 71 -6 158 -1 143 -3 163 -27 232 -19 53 -23 79 -16 88 15 17 16 16 34 -25z
m-957 5 c11 -29 -2 -38 -51 -38 -41 0 -41 0 -32 24 4 11 14 14 29 10 15 -4 24
0 28 10 9 22 16 20 26 -6z m-671 -43 l37 -36 -39 16 c-21 8 -41 15 -45 15 -3
0 1 5 9 10 13 8 13 10 -2 10 -9 0 -20 5 -23 10 -15 24 29 7 63 -25z m785 28
c4 -3 -5 -21 -19 -40 l-25 -33 22 0 c12 0 19 3 16 6 -4 4 1 20 11 36 14 25 22
29 46 24 16 -3 38 -6 49 -6 11 0 17 -3 13 -7 -6 -6 -21 -10 -75 -16 -14 -2
-26 -8 -29 -15 -4 -14 14 -16 23 -2 4 7 13 7 26 0 15 -9 26 -5 56 17 l36 28
-29 6 c-22 5 -16 7 26 8 l54 1 -34 -29 c-61 -51 -116 -74 -163 -67 -93 13 -98
16 -62 40 30 20 32 36 5 36 -11 0 -20 5 -20 10 0 11 63 14 73 3z m-859 -33
c30 -28 35 -56 9 -45 -10 4 -36 14 -58 21 -22 8 -51 23 -64 33 l-24 19 56 -2
c44 -1 61 -7 81 -26z m-360 4 c4 -9 5 -18 4 -19 -2 -2 -42 -5 -89 -6 -68 -3
-83 -2 -70 8 46 32 145 42 155 17z m46 -19 c16 -17 19 -25 9 -25 -19 0 -34 12
-42 33 -9 24 6 21 33 -8z m77 -2 c33 -36 63 -84 63 -102 0 -8 -23 15 -52 52
-29 39 -54 63 -58 57 -5 -7 -11 -6 -20 5 -24 29 38 18 67 -12z m68 1 c31 -20
33 -39 3 -24 -22 11 -22 10 -4 -4 10 -9 22 -13 27 -11 4 3 9 -1 12 -7 2 -7 7
-10 11 -6 4 3 0 20 -9 37 -23 45 0 38 35 -10 29 -41 45 -77 38 -85 -10 -9
-133 75 -133 90 0 9 -7 21 -15 26 -11 7 -11 10 -2 10 7 0 24 -7 37 -16z m282
-29 c20 -8 34 -18 30 -21 -3 -3 -25 3 -49 14 -50 24 -35 29 19 7z m1205 -12
c-44 -21 -34 -28 13 -8 21 8 40 13 42 11 9 -8 -55 -35 -98 -42 l-44 -6 40 30
c22 18 49 31 60 31 15 1 11 -4 -13 -16z m-1582 -48 c5 -13 8 -34 8 -47 -1 -13
-1 -36 0 -52 2 -29 3 -29 17 -10 10 13 14 15 15 5 0 -15 -28 -51 -40 -51 -4 0
-7 6 -7 13 -4 78 -16 145 -29 164 -15 24 -15 24 6 13 11 -6 25 -22 30 -35z
m375 -13 c7 -23 6 -23 -18 -7 -27 17 -43 45 -26 45 6 0 7 6 3 13 -4 6 2 3 14
-8 11 -11 23 -31 27 -43z m-101 13 l-5 30 25 -28 c24 -26 35 -67 19 -67 -16 0
-73 47 -82 68 -18 38 -13 38 19 2 l30 -35 -6 30z m787 20 c0 -5 -9 -16 -20
-24 -21 -14 -23 -10 -12 37 2 8 32 -4 32 -13z m117 2 c28 0 52 -3 52 -7 0 -14
-134 -100 -165 -105 -17 -4 -48 1 -70 9 l-40 16 57 -6 c53 -6 62 -4 107 25 61
39 81 61 57 61 -10 0 -14 -5 -10 -11 8 -13 -28 -4 -66 18 l-25 14 25 -8 c14
-4 49 -7 78 -6z m-734 -49 c-12 -19 -54 10 -54 38 0 11 7 9 30 -7 16 -12 27
-26 24 -31z m675 29 c34 -14 31 -21 -14 -45 -15 -7 -27 -6 -45 4 l-25 14 27
-6 c15 -3 34 -2 43 4 16 8 15 10 -4 15 -12 3 -19 1 -15 -4 6 -10 -19 -12 -29
-2 -7 7 11 33 23 33 4 0 22 -6 39 -13z m-1065 -24 c3 -8 3 -20 -1 -25 -3 -6
-2 -8 4 -5 6 4 15 -11 22 -32 13 -44 14 -76 1 -46 -11 26 -12 -2 -1 -30 7 -17
9 -16 15 12 4 18 12 36 18 39 11 7 3 -40 -14 -86 -12 -33 -20 -19 -47 87 -12
45 -24 89 -27 97 -4 12 -2 15 9 10 9 -3 18 -12 21 -21z m-231 3 c3 -7 0 -19
-6 -25 -14 -14 -38 5 -30 25 7 18 29 18 36 0z m327 -16 c0 -4 7 -15 16 -26 15
-18 15 -18 11 9 -3 18 0 26 7 24 17 -5 19 -50 4 -87 l-14 -33 -32 43 c-18 25
-32 56 -32 72 0 26 2 27 20 16 11 -7 20 -15 20 -18z m-285 0 c-3 -5 -1 -10 4
-10 14 0 14 -26 0 -52 -9 -17 -13 -18 -20 -7 -12 20 -11 53 3 67 15 15 21 16
13 2z m1975 -42 c20 -92 25 -152 12 -144 -7 4 -12 22 -12 39 0 18 -7 59 -15
90 -18 68 -18 67 -6 67 5 0 14 -24 21 -52z m-780 21 c11 -6 8 -8 -12 -9 -35 0
-59 10 -52 21 6 10 36 4 64 -12z m749 -31 c7 -29 14 -84 16 -123 5 -77 -2 -55
-24 77 -6 37 -14 74 -17 83 -3 8 -2 15 3 15 5 0 15 -24 22 -52z m-2029 14 c0
-10 -9 -23 -20 -30 -17 -10 -20 -10 -20 4 0 23 20 55 31 49 5 -4 9 -14 9 -23z
m630 18 c-8 -5 -10 -10 -5 -10 6 0 -15 -11 -46 -24 -117 -47 -219 -120 -259
-182 l-28 -44 -7 27 c-3 16 -18 43 -31 60 -18 24 -23 37 -16 50 8 14 13 9 32
-28 12 -24 24 -45 25 -47 2 -2 22 17 46 43 24 26 62 58 86 72 37 22 41 27 32
45 -6 11 -8 23 -4 26 8 8 25 -19 19 -30 -7 -11 4 -10 29 4 27 14 119 47 132
47 6 1 3 -4 -5 -9z m1369 -42 c14 -62 27 -186 18 -177 -4 3 -12 41 -18 85 -6
43 -15 84 -21 89 -7 7 -9 -1 -4 -25 15 -80 18 -115 10 -107 -7 7 -15 36 -38
152 -3 17 -3 24 0 18 8 -19 35 -16 28 2 -4 8 -2 15 3 15 5 0 15 -24 22 -52z
m-1266 -20 c3 -21 2 -38 -2 -38 -11 0 -21 49 -14 67 7 18 9 15 16 -29z m-693
12 c0 -13 -12 -28 -30 -38 -29 -17 -50 -56 -50 -95 0 -27 19 -10 25 23 9 45
25 46 25 2 0 -34 -5 -45 -26 -59 -25 -16 -27 -16 -40 2 -31 42 -8 114 50 155
50 35 46 34 46 10z m1680 5 c11 -13 7 -15 -31 -14 l-44 1 30 13 c17 8 31 14
31 15 1 0 7 -7 14 -15z m-1110 -5 c0 -5 -10 -10 -22 -11 -21 0 -21 -1 -4 -8
19 -7 19 -8 1 -15 -32 -12 -39 17 -7 31 34 15 32 15 32 3z m-752 -9 c11 -6 11
-24 1 -94 -12 -80 -15 -87 -36 -87 -13 0 -23 5 -23 10 0 6 8 10 18 10 11 0 17
8 18 23 0 12 4 47 8 77 5 37 4 50 -3 41 -5 -8 -13 -41 -16 -73 -4 -32 -11 -58
-16 -58 -11 0 -11 3 1 76 16 90 19 94 48 75z m341 -39 c-2 -15 0 -33 4 -39 4
-7 1 -26 -8 -42 -8 -17 -15 -35 -15 -41 0 -6 23 -40 50 -76 28 -36 50 -69 50
-75 0 -5 5 -9 12 -9 9 0 9 3 0 12 -17 17 -15 33 3 18 14 -12 20 -7 16 14 -1 5
17 29 41 53 23 24 43 51 44 61 4 70 4 70 29 70 13 0 22 -4 19 -9 -3 -5 0 -9 5
-9 6 0 11 2 11 4 0 2 3 12 7 21 5 14 2 16 -18 10 -13 -4 -21 -4 -16 0 13 15
52 12 60 -4 4 -10 5 -5 2 11 -3 15 -1 29 4 32 8 6 21 -50 20 -89 0 -18 -1 -18
-9 3 -5 12 -14 22 -20 22 -13 0 -52 -22 -63 -35 -5 -6 -7 -3 -3 8 3 9 1 17 -4
17 -6 0 -10 -6 -10 -14 0 -8 -3 -22 -7 -32 -6 -16 -4 -16 25 1 26 16 36 17 69
7 34 -11 40 -9 63 13 31 30 40 31 40 8 0 -10 -12 -26 -25 -36 -21 -15 -31 -16
-69 -6 -40 10 -49 9 -78 -9 -18 -12 -45 -33 -58 -48 -20 -22 -16 -20 24 9 51
39 83 45 143 28 26 -8 35 -6 49 10 9 10 24 19 33 19 11 0 8 -6 -11 -23 -14
-12 -29 -32 -33 -45 -8 -29 -48 -27 -54 3 -4 25 -19 35 -52 35 -32 0 -64 -35
-73 -80 l-6 -35 19 32 c23 36 59 59 72 46 5 -5 -11 -28 -37 -53 -46 -44 -64
-75 -64 -109 0 -9 -21 -54 -46 -99 l-46 -81 -45 92 c-43 87 -46 96 -46 177 0
80 0 81 -6 25 -6 -63 -14 -57 -26 23 -5 28 -3 42 4 42 6 0 11 5 11 11 0 5 -5
7 -11 3 -8 -5 -9 8 -5 42 3 27 6 60 6 74 1 24 19 70 27 70 3 0 3 -12 2 -28z
m376 -12 c28 -29 29 -54 1 -31 -11 9 -15 9 -20 -1 -3 -7 -4 -4 -1 8 3 12 -1
26 -8 33 -12 9 -14 2 -11 -41 l3 -53 -10 43 c-11 44 -7 72 9 72 4 0 21 -13 37
-30z m606 -26 c30 -26 56 -48 58 -50 2 -2 -25 -4 -62 -4 -57 0 -70 3 -94 26
-21 20 -23 24 -8 18 41 -14 75 -16 75 -4 0 9 4 9 17 -1 15 -13 13 -15 -18 -20
l-34 -6 32 -2 c48 -2 48 13 1 53 -24 20 -38 36 -32 36 5 0 35 -21 65 -46z
m659 -16 c0 -10 -4 -18 -10 -18 -15 0 -32 40 -25 58 6 15 8 15 21 -2 8 -11 14
-28 14 -38z m-41 -13 c40 -46 47 -130 14 -167 -21 -24 -26 -23 -46 11 -17 30
-22 67 -11 95 10 27 24 7 24 -34 0 -38 13 -60 24 -41 11 17 -11 98 -32 119
-22 22 -30 52 -13 52 5 0 23 -16 40 -35z m-704 -51 c38 -59 50 -67 43 -29 -5
24 -3 25 42 25 37 0 58 -7 96 -32 46 -32 86 -78 67 -78 -5 0 -35 15 -66 34
-61 37 -70 36 -34 -2 l22 -24 -22 6 c-16 5 -26 2 -35 -13 -18 -29 -38 -26 -78
9 -29 24 -32 29 -15 30 28 0 9 13 -57 39 -32 13 -63 30 -70 39 -12 13 -9 14
25 8 31 -6 37 -5 31 6 -6 10 -3 9 10 -1 9 -8 15 -20 12 -28 -3 -7 1 -13 10
-13 13 0 10 9 -11 46 -37 63 -13 46 30 -22z m637 4 c-6 -24 -21 -33 -34 -20
-7 7 -6 20 3 40 11 26 15 28 25 14 6 -8 9 -24 6 -34z m-1457 -47 c17 -55 29
-59 40 -11 7 32 50 90 66 90 17 0 9 -17 -13 -29 -13 -6 -15 -9 -5 -7 9 3 17 1
17 -5 0 -6 -9 -13 -20 -16 -12 -3 -28 -24 -40 -50 -11 -24 -24 -42 -29 -39 -5
4 -11 1 -13 -4 -3 -10 -88 101 -88 116 0 14 33 -22 57 -63 14 -24 27 -42 29
-40 10 9 -21 74 -44 93 -17 14 -23 26 -19 38 6 16 8 16 27 -2 11 -10 27 -42
35 -71z m-224 -5 c1 -32 -1 -60 -4 -62 -3 -3 -17 11 -32 30 l-27 36 28 29 c16
17 30 29 31 27 2 -2 4 -29 4 -60z m707 23 c32 -12 27 -19 -11 -12 -23 3 -37 0
-46 -11 -15 -18 -8 -21 18 -7 19 11 61 4 61 -10 0 -5 -6 -7 -12 -5 -7 1 -10 1
-5 -1 4 -3 7 -12 7 -20 0 -10 -6 -13 -17 -8 -10 3 -44 13 -77 20 -68 16 -82
25 -39 25 17 0 36 7 43 15 10 12 9 15 -4 15 -10 0 -14 5 -11 11 7 10 47 5 93
-12z m231 -15 c12 -19 21 -37 21 -38 0 -11 -108 29 -125 46 -20 20 -20 20 0
10 11 -5 26 -7 34 -4 8 3 11 0 7 -7 -4 -6 -3 -11 3 -11 6 0 15 9 21 20 6 11
12 20 14 20 2 0 13 -16 25 -36z m701 6 c20 -20 27 -60 13 -73 -5 -6 -53 74
-53 89 0 11 22 2 40 -16z m-856 -22 c-4 -13 -13 -45 -19 -73 -7 -27 -13 -41
-14 -30 -1 17 -3 18 -11 5 -14 -21 -13 18 1 76 9 33 16 44 31 44 16 0 18 -4
12 -22z m-864 -23 c0 -7 14 -27 30 -43 32 -33 37 -56 19 -96 -16 -35 -31 -22
-23 19 5 30 2 38 -26 64 -27 24 -31 34 -26 56 7 26 26 26 26 0z m1113 -18 c24
-18 58 -39 75 -46 36 -15 44 -36 10 -25 -60 18 -146 75 -140 92 5 17 6 16 55
-21z m571 12 c33 -26 36 -74 5 -84 -57 -18 -105 34 -74 81 19 29 35 30 69 3z
m-935 -15 c29 -9 51 -17 48 -20 -2 -2 -15 -1 -28 4 -13 5 -50 12 -81 16 -32 4
-58 12 -58 16 0 11 40 5 119 -16z m235 5 c19 -15 26 -30 26 -56 0 -31 -2 -34
-15 -23 -9 7 -13 20 -10 27 6 17 -11 53 -26 53 -6 0 -8 -4 -4 -9 3 -5 1 -12
-5 -16 -5 -3 -10 -11 -10 -17 0 -7 4 -7 13 0 10 9 13 3 14 -26 1 -28 -1 -32
-8 -19 -6 9 -17 17 -25 17 -8 0 -13 4 -9 9 3 5 1 12 -5 16 -15 9 -12 25 4 19
8 -3 16 3 19 15 7 27 -3 26 -38 -1 -24 -19 -25 -22 -10 -31 14 -8 15 -11 4
-18 -41 -26 -53 11 -18 55 25 32 66 34 103 5z m-436 -7 c-8 -19 -118 -113
-118 -101 0 14 97 109 112 109 5 0 8 -3 6 -8z m492 -11 c5 -11 10 -30 10 -43
0 -30 -28 -70 -42 -62 -6 4 -8 2 -4 -4 8 -14 -32 -42 -50 -35 -8 3 -11 10 -7
16 4 6 0 8 -9 4 -10 -3 -28 8 -49 30 l-34 36 31 -22 c68 -49 163 0 137 69 -12
33 0 41 17 11z m-400 -9 c0 -8 -73 -33 -79 -26 -8 7 7 16 41 24 18 4 34 8 36
9 1 1 2 -2 2 -7z m648 -12 c18 -11 39 -20 48 -20 8 0 12 -4 9 -10 -3 -5 -24
-10 -45 -10 -21 0 -42 5 -45 10 -3 6 -1 10 6 10 7 0 5 8 -6 20 -23 26 -9 26
33 0z m483 4 c11 -14 9 -19 -11 -35 -32 -24 -53 -25 -41 -1 5 9 12 25 15 35 7
21 20 22 37 1z m-1017 -16 c57 -17 131 -93 146 -149 27 -98 -11 -195 -97 -249
-151 -96 -343 10 -343 190 0 66 21 114 67 157 21 19 29 31 19 27 -14 -5 -17
-4 -12 5 5 7 14 10 22 7 7 -3 30 1 51 9 48 17 95 18 147 3z m347 2 c16 -9 17
-13 7 -25 -11 -12 -15 -11 -25 3 -24 30 -16 40 18 22z m854 -27 c-3 -21 -8
-48 -11 -60 -2 -13 0 -23 5 -23 6 0 13 27 17 60 4 33 11 60 16 60 10 0 5 -60
-9 -117 -5 -23 -19 -29 -39 -15 -14 8 3 132 18 132 5 0 6 -17 3 -37z m-1956 4
c7 -10 7 -17 0 -24 -8 -8 -5 -23 12 -52 27 -49 17 -67 -17 -28 -18 21 -24 40
-24 73 0 45 9 54 29 31z m-159 -110 c6 -43 9 -81 6 -84 -8 -8 -24 66 -31 137
-7 86 9 51 25 -53z m23 45 c4 -32 11 -69 17 -83 9 -20 10 -17 6 21 -3 25 -8
64 -12 88 -4 28 -3 42 5 42 6 0 11 -15 11 -33 0 -18 10 -71 21 -117 21 -81 21
-84 3 -98 -18 -13 -17 -14 6 -8 22 6 23 6 7 -5 -26 -16 -50 7 -26 24 13 10 14
17 6 37 l-10 25 -7 -30 -7 -30 -11 40 c-13 49 -32 152 -32 177 0 43 18 5 23
-50z m1600 38 c5 -4 -4 -11 -19 -14 -28 -7 -84 10 -84 26 0 10 90 0 103 -12z
m-309 -6 c17 -45 -52 -149 -111 -168 -36 -11 -34 26 2 45 27 14 65 72 79 122
7 21 22 22 30 1z m69 -13 c16 -14 38 -41 49 -60 17 -27 18 -35 7 -41 -17 -11
-26 -5 -45 33 -9 18 -29 46 -45 63 -25 25 -27 31 -12 31 10 0 31 -11 46 -26z
m64 -4 c36 -40 53 -69 53 -93 0 -14 -3 -14 -15 -4 -9 7 -13 15 -11 17 5 5 -3
15 -32 48 -7 8 -10 20 -6 26 4 7 3 9 -3 6 -6 -4 -18 2 -28 13 -15 16 -15 20
-3 20 8 0 28 -15 45 -33z m-193 17 c22 -8 8 -34 -19 -34 -18 0 -22 4 -18 20 6
21 12 24 37 14z m271 -14 l30 -20 -36 0 c-35 0 -66 20 -52 33 11 11 27 8 58
-13z m-1253 -7 c2 -32 3 -38 10 -48 9 -15 8 -94 -2 -100 -10 -6 -22 24 -14 36
12 20 11 59 -2 70 -16 13 -19 59 -4 59 6 0 11 -8 12 -17z m353 -40 c-10 -20
-20 -68 -23 -105 -3 -37 -7 -68 -9 -68 -14 0 -63 44 -63 56 0 13 2 13 16 0 32
-32 47 -9 19 28 -17 23 -20 40 -5 31 6 -3 10 4 10 16 0 21 1 21 13 6 11 -15
12 -14 13 13 1 28 31 76 42 65 3 -2 -3 -21 -13 -42z m1083 20 c43 -7 49 -20
13 -28 -17 -3 -45 1 -70 11 -44 17 -46 40 -2 29 14 -3 41 -9 59 -12z m-328
-53 c0 -4 -6 -10 -14 -13 -11 -5 -15 3 -14 34 l0 40 14 -27 c8 -14 14 -30 14
-34z m-1150 25 c13 -35 2 -83 -22 -91 -23 -7 -43 10 -53 46 l-7 25 25 -24 c23
-21 27 -22 33 -7 3 9 4 23 0 31 -5 14 2 45 10 45 3 0 9 -11 14 -25z m1003 16
c4 -1 3 -10 -3 -21 -8 -15 -18 -19 -38 -15 -19 4 -22 3 -9 -3 17 -7 17 -10 4
-20 -12 -10 -16 -9 -21 3 -8 22 21 64 42 60 9 -2 21 -4 25 -4z m91 -62 c-23
-26 -28 -18 -9 17 8 16 16 36 16 44 1 8 4 2 6 -13 3 -18 -2 -36 -13 -48z m314
39 c45 -28 25 -36 -35 -13 -32 13 -41 20 -32 26 20 13 28 11 67 -13z m-1518
-29 c0 -20 11 -40 35 -63 30 -29 34 -39 29 -65 -6 -30 -27 -41 -39 -21 -3 6
-15 10 -26 10 -12 0 -17 5 -14 10 8 14 11 93 3 105 -3 6 -8 22 -12 37 -5 22
-3 26 9 22 9 -4 15 -18 15 -35z m1720 25 c44 -13 51 -18 37 -26 -21 -11 -79 5
-97 28 -16 18 -6 18 60 -2z m-264 -21 c16 -12 27 -24 24 -27 -8 -7 -90 31 -90
42 0 15 36 7 66 -15z m-433 3 c14 -36 19 -109 8 -115 -8 -5 -4 -11 12 -18 20
-10 23 -8 22 15 0 20 7 27 29 33 16 4 39 18 52 30 13 12 24 17 24 10 0 -9 5
-9 21 0 38 20 81 29 76 16 -2 -6 -18 -14 -35 -18 -17 -3 -43 -14 -57 -23 -14
-9 -25 -13 -25 -9 0 4 -19 -12 -43 -35 -31 -31 -46 -39 -57 -32 -8 5 -22 10
-30 10 -8 0 -4 -6 10 -13 22 -11 25 -19 27 -77 1 -36 8 -81 17 -101 18 -42
100 -119 127 -119 11 0 19 -4 19 -10 0 -5 8 -10 18 -10 11 0 6 -6 -13 -15 -16
-9 -37 -24 -47 -35 -9 -11 -21 -20 -27 -20 -6 0 -11 -4 -11 -10 0 -5 -4 -10
-9 -10 -4 0 -11 21 -15 46 -3 25 -14 58 -25 72 -10 15 -24 44 -32 65 -7 21
-21 45 -31 54 -17 15 -17 13 1 -28 12 -24 21 -55 21 -68 0 -26 -59 -91 -84
-91 -11 0 -5 10 19 31 28 25 35 38 35 69 0 52 -20 106 -32 88 -8 -10 -9 -9 -4
4 3 10 -4 34 -15 53 -25 41 -44 48 -23 8 7 -16 14 -40 14 -55 0 -18 7 -29 20
-33 23 -7 27 -25 6 -25 -20 0 -156 70 -156 80 0 5 18 3 40 -5 22 -8 40 -13 40
-12 0 1 -4 17 -9 35 -5 17 -6 32 -1 32 10 0 20 -26 20 -55 0 -13 5 -27 10 -30
13 -8 13 14 -1 53 -9 26 -6 40 16 94 15 35 27 68 27 75 1 7 13 10 32 7 29 -4
29 -3 -4 7 -31 10 -33 12 -15 20 20 8 20 8 0 9 -14 2 -11 5 10 10 30 8 30 8 4
9 -41 2 -29 46 12 50 4 1 9 -5 12 -13z m645 -5 c15 -10 37 -21 48 -25 12 -4
29 -15 38 -25 16 -18 16 -20 -10 -40 -27 -21 -60 -29 -50 -12 3 5 -6 12 -19
15 -14 4 -23 11 -20 15 3 5 -8 12 -24 16 -16 3 -36 14 -45 24 -16 17 -16 19 2
23 11 3 40 -11 76 -39 53 -41 60 -43 74 -29 15 15 15 16 0 16 -9 0 -23 6 -30
13 -7 6 -30 20 -51 30 -21 9 -35 22 -32 27 8 14 13 13 43 -9z m-1433 -79 c-1
-1 -9 0 -17 3 -20 8 -39 51 -31 71 5 13 12 6 29 -27 12 -24 21 -45 19 -47z
m1603 47 c-8 -5 -32 -5 -53 -2 -36 6 -37 6 -14 18 27 15 93 -1 67 -16z m-421
-25 c87 -66 112 -189 57 -279 -30 -49 -120 -112 -146 -102 -7 3 1 10 19 17 22
8 30 16 26 27 -5 14 -7 14 -15 0 -4 -9 -28 -23 -52 -32 -38 -15 -50 -15 -83
-5 -49 17 -82 42 -115 91 -50 74 -45 168 11 231 24 27 29 29 34 14 5 -11 3
-15 -5 -10 -7 4 -8 3 -4 -4 4 -6 14 -8 22 -5 10 4 6 -8 -11 -33 -24 -35 -26
-45 -21 -94 4 -30 7 -63 8 -72 1 -9 4 -15 7 -13 2 3 17 -7 33 -20 35 -29 100
-48 137 -40 15 3 42 15 61 27 19 12 38 22 42 23 3 0 10 4 15 9 5 5 3 6 -4 2
-17 -9 -16 -5 2 30 8 16 15 45 15 65 0 19 6 41 13 49 10 12 9 12 -5 1 -15 -11
-18 -11 -18 0 0 8 -14 31 -31 52 -32 39 -30 49 5 20 20 -17 20 -17 6 1 -13 17
-13 19 0 14 8 -2 19 -19 24 -36 5 -18 15 -32 22 -32 24 0 -22 74 -58 93 -18
10 -25 12 -15 4 9 -8 17 -16 17 -19 0 -9 -74 0 -78 10 -4 12 -99 -4 -126 -22
-27 -17 -50 -8 -36 14 6 8 10 11 10 6 0 -5 7 -3 15 4 8 7 15 9 15 5 0 -4 7 -2
15 5 19 15 112 15 131 -1 11 -9 14 -8 14 5 0 16 -10 20 -42 17 -10 -1 -18 3
-18 9 0 19 70 2 107 -26z m184 -11 c21 -24 39 -39 39 -35 0 4 6 0 13 -8 7 -8
29 -15 49 -15 21 -1 35 1 33 3 -5 6 107 62 124 62 11 0 10 -5 -4 -20 -22 -25
-9 -26 19 -2 19 16 30 17 106 7 l85 -10 -45 -18 c-50 -19 -125 -22 -163 -8
-19 7 -34 5 -62 -9 -20 -10 -70 -24 -111 -31 -41 -6 -74 -15 -74 -18 0 -14 23
-29 36 -24 8 3 14 1 14 -3 0 -5 16 -27 36 -49 20 -22 31 -32 24 -22 -7 9 -11
20 -8 22 3 3 21 -16 42 -41 36 -48 45 -51 25 -11 -5 12 13 -3 41 -33 34 -36
45 -45 34 -25 -14 24 -5 18 41 -25 33 -30 52 -46 44 -35 -45 58 -33 59 28 3
41 -38 44 -40 28 -13 l-19 30 35 -30 c19 -17 45 -39 59 -50 l25 -20 -24 28
c-29 32 -15 36 22 7 14 -11 45 -32 69 -45 51 -29 32 -32 -50 -9 -143 42 -321
147 -444 263 -38 35 -68 59 -68 53 0 -6 -7 -9 -15 -6 -20 8 -18 -6 5 -36 23
-30 26 -48 5 -30 -8 7 -15 9 -15 5 0 -16 71 -103 129 -158 36 -34 61 -67 61
-79 0 -14 -5 -18 -16 -14 -9 3 -19 6 -24 6 -12 0 -103 97 -118 126 -7 13 -10
29 -7 34 3 5 -6 25 -20 46 -14 20 -25 35 -25 33 0 -8 41 -124 65 -184 25 -63
49 -164 41 -173 -9 -8 -56 28 -56 43 0 7 -14 23 -30 35 -17 12 -28 26 -24 31
7 11 -24 109 -35 109 -4 0 -13 11 -19 24 -8 18 -7 34 4 67 20 57 24 104 12
146 -8 29 -6 37 8 47 16 12 16 13 0 19 -10 4 -15 11 -12 15 3 5 -16 18 -41 31
-52 25 -53 33 -2 25 25 -4 42 -16 58 -39 20 -29 62 -50 75 -37 3 2 -17 22 -45
43 -27 22 -49 41 -49 43 0 2 12 3 26 2 17 0 40 -16 65 -43z m589 -36 c-26 -12
-70 -22 -105 -23 -33 -2 -53 -1 -44 2 8 3 21 14 29 24 12 17 26 20 90 19 l75
-1 -45 -21z m-841 -5 c99 -50 105 -176 11 -239 -59 -41 -140 -21 -186 46 -44
65 -23 148 48 191 41 25 82 25 127 2z m-912 -34 l42 -42 10 25 c7 20 10 21 16
7 3 -9 -1 -31 -11 -49 -16 -31 -18 -32 -28 -15 -6 11 -28 38 -48 61 -21 23
-38 45 -38 49 0 14 17 4 57 -36z m1887 -8 c-27 -28 -103 -40 -185 -29 -61 7
-117 25 -107 34 1 1 46 -2 98 -7 84 -9 101 -8 150 9 30 10 57 17 59 16 3 -2
-4 -12 -15 -23z m-476 -1 c2 -9 -8 -30 -22 -45 -33 -39 -101 -41 -140 -5 -30
28 -26 43 4 16 20 -18 21 -18 14 1 -7 17 -6 17 9 5 9 -7 14 -17 11 -22 -12
-20 57 -8 83 15 24 21 26 26 13 41 -13 15 -12 17 5 14 11 -3 21 -12 23 -20z
m165 -7 c10 -10 15 -21 13 -23 -3 -3 16 -6 42 -7 35 -1 51 -8 67 -26 22 -26
74 -47 114 -45 21 1 18 3 -12 10 -45 11 -77 26 -77 38 0 12 50 2 90 -19 19
-10 54 -24 78 -31 63 -18 37 -33 -62 -33 -56 -1 -89 3 -98 12 -10 10 -6 11 22
7 32 -4 32 -4 -6 8 -23 6 -48 17 -55 23 -8 6 -38 20 -68 30 -29 10 -56 25 -58
31 -3 7 -15 13 -27 13 -11 0 -32 3 -46 7 l-25 7 25 7 c43 12 66 10 83 -9z
m-1973 -59 c18 -32 50 -80 72 -107 36 -45 37 -51 23 -65 -15 -15 -20 -13 -52
24 -19 22 -53 71 -76 109 -39 66 -40 69 -22 82 10 8 20 14 21 14 1 0 17 -26
34 -57z m1924 23 c43 -18 72 -36 65 -38 -8 -3 2 -8 21 -12 19 -5 50 -18 67
-29 33 -22 44 -40 21 -32 -7 2 -32 9 -56 15 -23 6 -40 15 -37 20 4 6 -3 10
-15 10 -11 0 -56 14 -100 31 -55 21 -77 34 -74 44 4 10 16 9 57 -10 85 -37
107 -38 32 -1 -90 44 -80 45 19 2z m418 4 c-24 -23 -42 -30 -72 -30 -56 0 -59
18 -3 26 27 3 59 13 73 20 38 20 38 16 2 -16z m-2120 -37 c9 -10 23 -35 32
-56 14 -35 14 -38 -1 -35 -17 3 -20 9 -47 71 -17 39 -9 48 16 20z m296 -41
c35 -51 39 -68 20 -75 -8 -3 -6 -6 4 -6 21 -1 39 29 33 57 -3 19 -2 19 23 6
15 -8 36 -14 47 -14 28 0 37 -9 57 -52 16 -35 16 -38 -2 -60 l-19 -23 5 25 6
25 -19 -22 c-13 -16 -31 -22 -68 -24 -51 -2 -115 16 -115 32 0 13 13 11 38 -7
24 -16 52 -13 52 6 0 7 -9 9 -22 5 -22 -6 -22 -5 3 17 28 25 45 58 29 58 -6 0
-10 -9 -10 -19 0 -12 -11 -23 -29 -29 -28 -10 -30 -9 -40 21 -5 18 -13 49 -17
70 -5 29 -9 35 -19 27 -10 -8 -15 -8 -20 1 -7 10 10 28 25 29 3 0 20 -21 38
-48z m1119 -27 c152 -181 347 -276 598 -292 l100 -6 -45 -21 c-88 -39 -267
-13 -410 59 -110 56 -315 242 -305 276 3 10 1 20 -5 24 -12 8 -13 38 -1 33 5
-1 36 -34 68 -73z m-1529 18 c10 -10 25 -34 33 -53 7 -19 19 -41 26 -49 17
-16 0 -41 -28 -41 -17 0 -18 5 -13 40 5 30 3 44 -8 53 -23 18 -52 67 -40 67 5
0 19 -8 30 -17z m365 -110 l6 -38 -14 30 c-8 17 -17 46 -22 65 l-7 35 -6 -30
c-6 -24 -8 -26 -14 -13 -5 11 -1 26 11 41 l18 25 11 -39 c6 -21 14 -55 17 -76z
m1505 69 c42 -21 105 -49 140 -62 34 -12 61 -24 59 -27 -11 -10 -222 79 -277
116 -32 22 3 9 78 -27z m-1208 13 c0 -25 -28 -81 -33 -65 -27 82 -27 77 4 78
18 0 29 -4 29 -13z m1310 -7 c30 -5 60 -14 65 -18 6 -5 31 -11 55 -14 l45 -6
-40 10 c-57 15 -66 30 -14 23 56 -7 87 -22 69 -33 -7 -5 25 -11 75 -15 91 -8
95 -18 12 -28 -61 -8 -172 13 -273 52 -90 35 -127 57 -79 46 16 -4 54 -11 85
-17z m-1262 -44 c-5 6 -8 14 -8 20 0 5 19 -11 42 -35 41 -44 41 -44 48 -19 6
24 6 25 17 4 16 -28 1 -48 -29 -41 -27 7 -98 69 -98 87 0 7 7 4 18 -7 9 -10
14 -14 10 -9z m8 -96 c5 -30 12 -39 37 -47 46 -17 86 -13 119 10 35 25 49 15
46 -36 l-1 -30 -4 30 c-6 39 -17 49 -33 30 -11 -13 -10 -14 4 -9 13 5 16 0 16
-25 0 -43 28 -42 32 2 2 21 -3 40 -16 55 -14 16 -17 25 -9 33 17 17 39 -24 42
-81 2 -46 0 -50 -21 -51 -17 -1 -19 -2 -5 -6 9 -2 15 -9 12 -14 -8 -12 -52
-12 -60 0 -7 12 -135 55 -142 48 -3 -4 2 -13 10 -21 12 -12 17 -13 20 -3 3 7
6 5 6 -5 1 -10 3 -18 5 -18 2 0 13 -3 23 -6 16 -6 16 -5 -2 9 -28 23 -7 21 40
-3 22 -11 34 -20 27 -20 -7 0 -11 -3 -11 -7 3 -20 -3 -21 -36 -7 -20 8 -41 12
-47 8 -7 -5 -8 -2 -3 6 5 9 2 10 -15 5 -27 -9 -93 3 -85 15 3 5 18 4 36 -2 16
-6 33 -8 36 -4 3 3 -8 9 -25 12 -33 7 -36 11 -26 38 8 22 24 20 24 -3 0 -10 7
-22 16 -25 14 -5 15 -4 4 9 -7 9 -10 18 -7 22 4 3 3 11 -2 17 -4 6 -11 30 -15
53 -3 24 -15 58 -26 75 -11 18 -20 40 -20 48 1 26 50 -63 56 -102z m-391 65
c14 -21 45 -54 70 -73 24 -19 42 -36 40 -39 -14 -13 -155 114 -155 139 0 21
21 8 45 -27z m1005 -37 c-11 -30 -35 -47 -27 -20 3 11 9 35 13 54 6 32 7 33
15 12 5 -12 4 -33 -1 -46z m-1031 19 c13 -19 45 -51 72 -72 27 -20 49 -38 49
-40 0 -14 -35 5 -78 43 -37 32 -52 41 -50 29 2 -10 -3 -20 -11 -23 -8 -2 -11
0 -8 5 3 5 -4 10 -16 10 -21 2 -22 2 -3 -13 11 -8 29 -11 39 -8 15 5 17 3 12
-7 -5 -8 -5 -11 0 -7 4 4 21 0 38 -8 21 -12 26 -18 17 -24 -10 -6 -8 -9 6 -14
10 -3 1 -3 -22 -1 -71 8 -182 65 -168 86 3 5 22 -4 42 -20 37 -28 109 -58 118
-48 3 3 -8 8 -25 12 -16 3 -49 20 -72 37 l-42 30 27 26 c23 23 28 25 36 12 14
-22 12 -34 -4 -21 -8 7 -17 8 -19 3 -3 -4 3 -13 13 -20 14 -9 21 -8 31 4 9 11
8 18 -5 32 -17 20 -21 32 -8 32 4 0 18 -16 31 -35z m551 -3 c0 -18 -10 -38
-25 -52 l-26 -24 -27 27 c-14 15 -22 27 -15 27 6 0 16 -7 23 -15 12 -14 15
-14 31 1 11 10 19 28 19 41 0 12 5 23 10 23 6 0 10 -13 10 -28z m-170 -40 c0
-7 -6 -12 -12 -9 -7 2 -30 -11 -51 -29 -20 -19 -44 -34 -52 -34 -7 0 -27 -14
-44 -32 -24 -26 -39 -32 -74 -34 -24 -1 -53 -7 -65 -13 -11 -6 -33 -11 -48
-11 -26 0 -25 2 20 30 27 17 59 29 74 28 41 -2 72 11 72 32 0 12 10 20 35 24
24 5 50 22 78 52 38 40 43 43 54 27 7 -9 13 -23 13 -31z m610 11 c0 -15 -10
-37 -22 -50 -33 -35 -44 -28 -13 9 15 18 24 39 22 50 -3 10 -1 18 4 18 5 0 9
-12 9 -27z m78 7 c17 -28 4 -50 -15 -25 -14 21 -17 45 -5 45 4 0 13 -9 20 -20z
m-888 -22 c33 2 34 1 16 -13 -27 -20 -48 -19 -80 6 -35 27 -34 46 2 23 15 -10
42 -17 62 -16z m780 18 c0 -8 -10 -27 -23 -42 l-24 -27 -31 19 c-34 20 -45 42
-13 24 32 -17 57 -12 69 15 13 28 22 32 22 11z m94 -43 c11 -20 15 -23 16 -10
0 32 20 17 20 -16 0 -26 -6 -37 -25 -47 -14 -7 -25 -17 -25 -21 0 -4 -15 0
-32 9 -18 9 -60 17 -93 19 -33 2 -54 0 -47 -3 6 -3 10 -10 6 -15 -3 -5 2 -9
10 -9 9 0 16 4 16 8 0 4 9 8 20 9 12 1 20 -4 20 -13 0 -20 30 -30 41 -13 7 12
11 11 26 -3 27 -28 9 -32 -62 -14 -36 9 -76 14 -90 10 -23 -6 -23 -5 -13 30
11 35 13 36 58 36 25 0 68 -7 94 -16 43 -15 49 -15 63 -1 10 10 11 17 4 21 -6
4 -11 0 -11 -8 0 -9 -4 -16 -10 -16 -5 0 -10 9 -10 19 0 11 -5 23 -12 27 -7 4
-8 3 -4 -4 8 -13 -6 -17 -17 -5 -6 5 30 53 39 53 2 0 10 -12 18 -27z m231 -48
c38 -13 40 -13 50 10 8 19 12 20 23 9 9 -10 10 -19 3 -33 -9 -15 -17 -18 -44
-12 -60 14 -127 60 -127 88 0 7 12 0 28 -17 15 -17 45 -37 67 -45z m-1395 14
c0 -4 -5 -11 -12 -15 -7 -5 -8 -3 -3 6 5 8 4 11 -3 7 -6 -5 -8 0 -5 13 3 11 0
20 -6 20 -6 0 -8 -8 -4 -17 5 -17 5 -17 -13 0 -17 15 -17 19 -4 27 11 7 20 4
33 -11 9 -12 17 -25 17 -30z m1864 35 c33 -9 98 -17 144 -18 80 -1 82 -2 50
-14 -21 -9 -61 -13 -113 -10 -68 3 -86 7 -120 31 -46 32 -43 32 39 11z m-1879
-58 c11 -2 23 4 26 13 6 13 9 11 17 -9 9 -21 17 -15 14 11 -1 4 23 -3 53 -14
30 -11 55 -23 55 -28 0 -10 -60 7 -74 21 -14 14 -26 12 -26 -5 0 -9 6 -12 15
-9 10 4 15 0 15 -15 l0 -22 -32 23 c-33 23 -73 39 -53 20 32 -28 100 -77 109
-77 6 -1 23 -5 38 -9 16 -5 41 -4 59 3 43 15 53 5 29 -29 -11 -15 -20 -36 -21
-47 0 -15 -2 -15 -11 4 -13 28 -40 37 -84 28 -31 -5 -34 -4 -34 18 0 17 -17
36 -62 70 -93 69 -110 85 -103 97 3 6 15 -1 28 -16 12 -14 31 -26 42 -28z
m935 -3 c0 -14 -4 -22 -10 -18 -6 4 -26 -7 -46 -24 -19 -17 -43 -31 -54 -31
-27 0 -50 -11 -50 -24 0 -6 -14 -20 -30 -31 -22 -14 -32 -31 -36 -57 -6 -37
-8 -38 -50 -38 -24 0 -44 5 -44 10 0 6 5 10 11 10 19 0 -32 35 -101 70 -36 18
-59 35 -52 37 6 3 10 9 6 14 -6 10 9 12 19 3 4 -4 33 -8 66 -10 53 -2 109 -19
99 -29 -2 -2 -30 3 -63 11 -75 17 -87 17 -55 -1 15 -9 19 -15 10 -15 -8 0 4
-9 26 -19 23 -10 44 -23 47 -28 4 -5 20 -8 37 -5 31 4 55 33 47 55 -3 7 -10 0
-16 -15 -7 -18 -18 -28 -31 -28 -19 0 -18 3 11 40 31 38 62 55 86 48 15 -5
109 59 127 87 20 30 46 23 46 -12z m-1046 13 c48 -1 56 -18 16 -33 -16 -6 -30
-7 -30 -2 0 18 -36 27 -78 19 -43 -8 -51 -3 -30 18 8 8 25 10 48 5 19 -4 53
-7 74 -7z m606 9 c0 -17 -42 -85 -53 -85 -29 0 -57 13 -57 26 0 8 4 14 10 14
5 0 26 11 46 25 36 24 54 31 54 20z m907 -56 c6 -23 23 -25 23 -3 0 11 5 14
16 10 25 -10 51 2 59 27 5 17 10 6 21 -47 8 -38 12 -71 10 -73 -2 -3 -18 3
-35 11 -36 19 -41 20 -41 4 0 -7 -5 -31 -11 -53 -11 -37 -12 -38 -26 -20 -20
27 -49 84 -58 115 l-7 25 23 -21 c13 -12 34 -27 47 -33 19 -10 22 -9 22 9 0
19 4 21 30 15 22 -5 30 -3 30 7 0 8 -14 14 -35 15 -25 1 -35 -3 -35 -13 0 -8
-5 -14 -12 -14 -13 0 -88 69 -88 81 0 15 63 -25 67 -42z m-1668 -5 c-9 -11
-15 -12 -27 -2 -13 11 -14 10 -8 -10 4 -13 3 -22 -3 -22 -6 0 -17 -12 -25 -27
l-15 -28 -1 28 c0 39 15 64 53 88 28 16 32 17 35 4 2 -9 -2 -23 -9 -31z m131
17 c0 -7 -34 -18 -78 -23 -6 -1 -11 -6 -10 -12 4 -16 -23 -76 -33 -76 -5 0 -9
5 -9 10 0 6 -5 10 -11 10 -8 0 -8 -4 0 -14 9 -11 9 -22 -2 -48 l-14 -33 -7 38
c-6 32 -2 44 24 81 16 25 37 52 46 60 16 17 94 23 94 7z m120 -19 c23 -18 23
-19 4 -47 -15 -23 -20 -25 -22 -12 -3 15 -6 14 -22 -5 l-19 -23 -1 38 c0 20
-4 37 -9 37 -5 0 -8 -14 -7 -32 1 -41 -25 -50 -42 -13 -6 14 -19 25 -29 25
-14 0 -13 -4 7 -24 24 -26 22 -56 -4 -52 -9 1 -19 5 -22 9 -4 4 -14 7 -23 7
-13 0 -13 -1 0 -12 13 -12 13 -19 -2 -61 -11 -35 -18 -44 -23 -32 -13 35 -5
87 22 135 23 42 33 51 62 56 19 3 44 9 55 14 31 14 51 11 75 -8z m1283 4 c4
-10 -6 -16 -34 -20 -32 -5 -42 -13 -59 -46 -22 -43 -26 -80 -9 -97 7 -7 -1
-20 -28 -43 -21 -18 -28 -27 -16 -21 30 15 373 15 427 -1 22 -6 44 -14 48 -17
4 -3 -119 -6 -272 -6 -154 0 -280 3 -280 8 0 4 4 7 8 7 4 0 27 14 50 31 34 24
40 34 31 45 -19 23 16 134 44 134 6 0 23 9 37 20 30 23 46 25 53 6z m372 -26
c33 -16 67 -30 75 -30 9 0 24 -6 35 -14 11 -7 22 -13 25 -13 8 1 61 -35 57
-39 -11 -11 -197 72 -197 88 0 5 -4 7 -8 4 -4 -2 -19 4 -32 15 -35 26 -24 24
45 -11z m10 -48 c28 -17 57 -32 65 -34 8 -2 18 -7 21 -12 4 -5 17 -10 30 -11
39 -4 40 -5 35 -14 -4 -5 2 -7 11 -5 10 3 36 -7 58 -21 l40 -26 -35 7 c-19 3
-53 14 -75 23 -22 10 -53 21 -68 25 -39 9 -167 88 -161 98 3 4 0 8 -5 8 -6 0
-11 5 -11 11 0 7 8 6 23 -3 12 -9 45 -29 72 -46z m-542 33 c9 -4 17 -11 17
-17 0 -5 -5 -6 -12 -2 -15 10 -148 21 -148 13 0 -9 60 -20 71 -13 5 3 9 0 9
-5 0 -6 -10 -11 -22 -12 -14 0 -4 -6 24 -15 40 -12 74 -34 53 -34 -9 0 -158
52 -165 57 -2 2 2 8 10 13 8 6 11 10 7 10 -5 0 -5 5 -1 11 7 12 122 7 157 -6z
m-1044 -37 c16 -45 15 -63 -3 -49 -9 7 -17 8 -20 2 -3 -5 -1 -11 5 -13 17 -6
1 -46 -23 -59 -16 -9 -24 -8 -36 5 -14 14 -14 18 8 41 20 21 22 28 10 35 -12
7 -12 11 0 27 12 15 11 15 -9 -2 -27 -22 -20 -4 12 32 24 27 42 21 56 -19z
m358 21 c37 -14 13 -29 -33 -19 -26 6 -37 4 -50 -11 -12 -13 -24 -17 -38 -13
-18 6 -19 5 -7 -10 9 -11 10 -16 2 -16 -7 0 -18 -15 -26 -32 l-14 -33 -1 37
c0 28 7 43 27 63 15 14 36 25 45 25 10 0 18 5 18 10 0 13 41 13 77 -1z m866 0
c56 -26 60 -97 6 -124 -75 -39 -139 57 -75 112 31 26 36 27 69 12z m322 -55
c17 -12 55 -34 85 -50 44 -22 50 -29 33 -32 -41 -6 -186 78 -177 103 6 16 12
14 59 -21z m-1134 16 c25 -14 24 -27 -2 -35 -14 -5 -25 -1 -36 12 -14 17 -14
17 -9 0 4 -11 -1 -20 -11 -24 -9 -4 -19 -1 -21 5 -2 7 -8 9 -13 6 -6 -3 -17 0
-25 7 -12 10 -13 9 -8 -5 9 -23 -16 -68 -33 -61 -8 2 -11 0 -8 -5 3 -5 -1 -22
-9 -37 l-15 -28 -1 36 c0 22 11 52 29 82 29 44 32 46 83 50 29 2 54 4 56 5 2
1 12 -3 23 -8z m444 1 c-2 -4 -26 -8 -52 -8 -67 -1 -76 -5 -91 -33 -7 -14 -22
-36 -33 -50 l-21 -25 6 35 c4 19 19 47 34 61 24 24 35 27 94 27 37 0 66 -3 63
-7z m51 -33 c-10 -5 -28 -7 -42 -4 -13 4 -24 2 -24 -3 0 -12 -52 -11 -68 2 -7
5 -15 7 -19 4 -3 -4 2 -9 11 -13 9 -3 16 -12 16 -19 0 -14 -39 -52 -41 -39 -1
5 -5 -9 -8 -31 l-7 -40 -14 28 c-13 27 -12 33 12 75 26 46 27 47 86 52 33 3
64 8 67 12 4 4 17 2 28 -4 19 -10 19 -11 3 -20z m579 -18 c-3 -5 0 -12 6 -16
8 -4 9 -3 5 4 -9 15 -1 15 25 1 11 -5 16 -15 13 -21 -4 -6 -3 -8 4 -4 6 3 38
-7 71 -23 34 -16 59 -25 55 -20 -3 5 19 9 50 9 31 0 56 -4 56 -9 0 -14 -49
-22 -115 -18 -63 4 -156 43 -223 94 -31 23 -32 26 -15 38 15 11 22 10 45 -7
16 -11 26 -23 23 -28z m-1585 29 c0 -22 -22 -50 -36 -45 -10 4 -14 -2 -14 -20
0 -40 57 -59 129 -44 77 16 195 10 199 -10 2 -13 -17 -15 -131 -13 -74 1 -153
7 -177 13 -41 11 -42 12 -37 46 4 25 2 34 -9 34 -14 0 -20 31 -7 43 11 11 83
8 83 -4z m1430 -45 c0 -14 35 -28 49 -19 5 3 12 1 16 -5 9 -15 -48 -12 -70 4
-11 8 -25 12 -32 9 -14 -6 -16 9 -7 45 l6 22 19 -21 c11 -12 19 -28 19 -35z
m-1210 31 c26 -32 -16 -74 -54 -53 -16 9 -22 49 -9 61 12 12 50 7 63 -8z m390
-15 c21 -21 26 -45 11 -54 -5 -3 -7 -16 -4 -29 5 -18 3 -20 -8 -9 -7 6 -26 12
-42 12 -27 0 -29 2 -25 34 2 19 1 33 -3 30 -4 -2 -10 0 -14 5 -6 11 22 30 48
31 9 0 26 -9 37 -20z m490 6 c16 -20 9 -56 -13 -70 -13 -8 -20 -8 -27 4 -8 12
-10 12 -16 -3 -3 -9 -10 -17 -16 -17 -5 0 -6 5 -3 11 9 14 -3 59 -16 59 -6 0
-6 -7 1 -20 16 -30 2 -45 -23 -23 -11 10 -17 12 -13 6 10 -18 -9 -16 -24 2 -7
8 -17 15 -23 15 -5 0 -3 -8 6 -18 14 -16 14 -19 -7 -38 -13 -11 -28 -18 -34
-16 -6 2 -12 -5 -15 -15 -3 -11 -5 -6 -6 12 -1 28 20 71 42 86 5 4 31 10 58
13 26 4 51 11 54 16 9 15 61 12 75 -4z m-574 -41 c7 -30 -1 -44 -17 -28 -6 6
-17 9 -24 7 -6 -3 -18 2 -25 11 -7 8 -17 15 -23 15 -5 0 -3 -8 6 -18 21 -23
22 -36 2 -28 -8 3 -15 1 -15 -5 0 -6 -5 -7 -10 -4 -6 4 -10 3 -9 -2 5 -30 -2
-35 -22 -14 -20 22 -20 23 -3 44 33 40 47 47 91 47 37 0 43 -3 49 -25z m224
-39 c0 -2 2 -10 5 -18 4 -10 -9 -13 -55 -13 -33 0 -60 1 -60 2 0 23 18 33 61
33 27 0 49 -2 49 -4z m-149 -33 c13 -15 12 -16 -8 -11 -15 4 -23 2 -23 -7 0
-15 -32 -25 -60 -18 -26 7 -26 23 0 23 11 0 23 7 26 15 8 20 48 19 65 -2z
m-115 -51 c-9 -8 -46 20 -46 35 0 13 5 12 25 -7 14 -13 23 -25 21 -28z"/>
<path d="M2572 2527 c-62 -32 -110 -62 -107 -67 3 -5 36 9 74 31 38 22 75 37
83 34 13 -5 77 50 67 58 -2 2 -55 -23 -117 -56z"/>
<path d="M1062 2280 c-35 -21 -69 -41 -75 -44 -9 -3 -8 -7 2 -14 8 -6 11 -17
8 -26 -8 -20 67 29 98 64 l20 23 -25 -12 c-19 -10 -17 -5 10 18 46 40 38 38
-38 -9z"/>
<path d="M1270 2260 c0 -5 -3 -9 -7 -9 -22 4 -35 -3 -30 -15 3 -7 0 -20 -6
-27 -7 -8 5 2 26 20 40 38 42 41 27 41 -5 0 -10 -4 -10 -10z"/>
<path d="M1106 2609 c-27 -32 -36 -60 -13 -41 14 12 50 72 43 72 -2 0 -16 -14
-30 -31z"/>
<path d="M2100 2559 c-41 -32 -80 -59 -86 -59 -7 0 -15 -7 -18 -16 -3 -8 -10
-12 -16 -9 -5 3 -10 -1 -10 -10 0 -14 8 -13 46 10 60 35 47 13 -14 -25 -26
-16 -42 -30 -37 -30 17 0 56 29 118 89 50 48 105 112 95 110 -2 0 -37 -27 -78
-60z"/>
<path d="M2353 2511 c-11 -10 -100 -59 -198 -110 -97 -52 -174 -95 -172 -98
11 -10 397 203 397 219 0 11 -2 10 -27 -11z"/>
<path d="M1700 1417 c0 -8 10 -22 23 -31 22 -16 22 -16 0 -6 -32 15 -42 12
-13 -5 17 -9 29 -10 37 -3 9 7 20 2 40 -18 39 -39 16 -41 -57 -4 -52 26 -61
28 -58 14 3 -19 103 -77 150 -88 26 -6 27 -5 16 25 -18 51 -138 152 -138 116z"/>
<path d="M2585 2341 c-16 -10 -39 -28 -49 -40 -11 -11 -28 -21 -38 -21 -23 0
-72 -46 -63 -60 3 -5 -13 -23 -36 -40 -23 -16 -39 -30 -34 -30 15 0 130 88
195 148 69 65 74 74 25 43z"/>
<path d="M730 2243 c0 -5 14 -16 31 -26 30 -17 31 -18 13 -32 -18 -13 -18 -13
1 -12 23 2 34 -38 15 -57 -9 -8 -11 -5 -8 13 2 14 -3 26 -11 29 -10 3 -12 -1
-8 -17 7 -26 1 -27 -13 -1 -7 14 -7 26 -1 39 13 23 -13 51 -30 34 -17 -17 13
-85 44 -103 26 -14 29 -14 43 4 18 26 18 56 -2 84 -16 23 -74 58 -74 45z"/>
<path d="M1367 2169 c-21 -17 -44 -44 -52 -59 -18 -35 -20 -140 -3 -140 6 0 9
3 6 6 -3 3 13 23 36 44 44 41 66 91 66 149 0 17 -3 31 -8 31 -4 0 -24 -14 -45
-31z m33 -35 c0 -30 -14 -60 -43 -91 -23 -25 -47 -32 -27 -8 10 12 10 15 -1
16 -11 0 -11 2 -1 6 10 4 10 8 1 19 -8 10 -8 14 0 14 10 0 15 -14 12 -33 -1
-5 3 -6 8 -3 10 7 33 68 30 82 -3 16 1 24 11 24 6 0 10 -12 10 -26z"/>
<path d="M1514 2138 c-25 -12 -44 -48 -44 -84 0 -31 42 -74 72 -74 28 0 71 28
63 41 -4 5 -1 9 4 9 25 0 6 83 -23 102 -24 16 -24 7 -1 -17 36 -35 33 -68 -10
-94 -19 -11 -18 -12 5 -6 24 6 24 5 6 -9 -30 -25 -62 -19 -85 13 -33 47 -24
88 27 115 30 17 19 20 -14 4z"/>
<path d="M1510 2100 c-21 -21 -23 -29 -14 -54 5 -13 10 -12 35 6 15 12 26 25
23 30 -3 5 -15 2 -25 -8 -17 -15 -19 -15 -19 -1 0 21 40 33 51 16 13 -21 11
-26 -23 -53 -18 -14 -28 -26 -21 -26 6 0 19 -3 29 -7 11 -4 15 -3 10 5 -3 6 3
16 14 22 13 7 20 21 20 38 0 52 -43 69 -80 32z"/>
<path d="M2040 1845 c0 -8 -12 -21 -27 -29 -28 -15 -27 -15 29 -16 60 0 85 14
43 24 -14 4 -25 13 -25 21 0 8 -4 15 -10 15 -5 0 -10 -7 -10 -15z"/>
<path d="M2082 1848 c7 -19 62 -22 78 -4 15 19 7 20 -20 4 -16 -10 -24 -10
-41 0 -18 11 -20 11 -17 0z"/>
<path d="M1957 1788 c-7 -4 12 -8 41 -8 28 0 52 2 52 4 0 8 -81 11 -93 4z"/>
<path d="M1927 1721 c3 -12 1 -21 -4 -21 -5 0 -18 -7 -29 -15 -17 -14 -15 -14
26 -9 25 4 54 11 65 16 14 5 9 6 -15 2 -26 -4 -31 -3 -20 5 8 6 23 11 33 11 9
0 17 5 17 10 0 6 -8 10 -17 10 -10 0 -28 3 -40 6 -18 5 -21 3 -16 -15z"/>
<path d="M2030 1669 c-24 -16 -41 -29 -37 -29 8 0 73 33 97 49 13 10 13 11 0
10 -8 0 -35 -14 -60 -30z"/>
<path d="M551 1951 c-8 -5 -21 -7 -30 -4 -14 4 -14 3 -1 -6 12 -9 13 -11 1
-11 -8 0 -12 -2 -9 -5 3 -3 25 4 49 15 27 12 36 20 24 20 -11 0 -26 -4 -34 -9z"/>
<path d="M1405 1859 c-4 -6 3 -17 15 -26 16 -11 20 -22 16 -39 -3 -12 -1 -26
5 -29 20 -13 21 4 4 54 -16 50 -27 61 -40 40z"/>
<path d="M1250 1477 c0 -14 60 -47 85 -47 28 0 26 21 -4 31 -17 6 -31 15 -31
20 0 5 -11 9 -25 9 -14 0 -25 -6 -25 -13z"/>
<path d="M1141 1460 c-28 -11 -40 -20 -32 -25 7 -4 18 -2 24 4 6 6 19 11 28
11 16 0 36 18 28 24 -2 1 -24 -5 -48 -14z"/>
<path d="M743 1739 c10 -6 21 -8 24 -5 3 3 12 -1 20 -9 8 -8 20 -15 26 -14 21
0 -34 32 -61 35 -23 3 -24 1 -9 -7z"/>
<path d="M550 1230 c0 -49 20 -128 49 -192 l28 -60 35 63 c33 60 65 182 56
210 -2 7 -24 -11 -48 -39 l-43 -52 -34 50 c-18 27 -36 50 -38 50 -3 0 -5 -13
-5 -30z m51 -110 c5 28 6 25 7 -20 1 -52 1 -54 -13 -30 -8 14 -14 45 -13 70
l1 45 7 -50 c6 -49 6 -49 11 -15z m79 13 c0 -27 -7 -57 -15 -67 -14 -19 -15
-18 -15 16 0 20 -3 43 -6 52 -3 9 -1 16 4 16 6 0 13 -12 15 -27 2 -16 3 -9 1
15 -2 23 1 42 6 42 6 0 10 -21 10 -47z m-40 -51 c0 -26 -5 -54 -10 -62 -7 -10
-10 5 -10 53 0 43 4 66 10 62 6 -3 10 -27 10 -53z"/>
<path d="M1947 1244 c-11 -11 5 -34 24 -34 12 0 19 7 19 20 0 19 -28 28 -43
14z"/>
<path d="M922 1189 c-13 -5 -20 -13 -17 -19 4 -7 13 -7 26 0 23 13 76 16 106
6 13 -4 28 -4 35 0 32 20 -104 32 -150 13z"/>
<path d="M1090 1169 c0 -15 70 -81 82 -77 12 4 -18 44 -52 68 -19 14 -30 17
-30 9z"/>
<path d="M843 1138 c-77 -80 -82 -186 -12 -272 64 -76 165 -96 258 -50 75 38
111 96 111 178 0 60 -12 97 -26 83 -4 -4 -2 -24 4 -44 15 -49 0 -115 -33 -151
-14 -15 -25 -31 -25 -35 0 -5 -7 -7 -15 -3 -8 3 -15 2 -15 -2 0 -5 -22 -16
-48 -25 -46 -17 -52 -17 -98 -1 -44 14 -115 68 -111 83 0 3 -7 21 -17 40 -13
24 -17 47 -13 75 7 64 10 68 52 104 22 19 39 37 38 41 -4 15 -22 8 -50 -21z"/>
<path d="M980 1145 c14 -8 32 -14 41 -15 23 0 49 -33 49 -60 l0 -24 -28 27
c-17 16 -47 31 -73 36 -43 9 -43 9 -9 10 27 1 31 4 20 11 -24 15 -56 12 -81
-10 l-24 -19 40 -2 c22 0 51 -4 65 -8 22 -6 20 -8 -19 -14 -54 -9 -84 -25 -75
-39 4 -6 3 -8 -4 -4 -6 3 -14 1 -18 -5 -4 -8 -3 -9 4 -5 16 10 15 -6 0 -24 -7
-8 -1 -4 14 9 40 35 48 17 9 -21 -18 -18 -30 -37 -26 -45 3 -8 5 -25 5 -38 0
-12 6 -25 13 -28 9 -3 12 4 9 28 -2 18 2 43 8 56 13 23 13 22 27 -14 9 -20 19
-37 25 -37 5 0 7 -4 3 -9 -3 -5 0 -13 6 -17 8 -4 9 -3 5 5 -6 9 0 10 21 5 48
-11 62 -23 28 -24 -26 -1 -27 -2 -12 -11 20 -12 78 3 96 25 8 10 0 12 -39 12
-27 -1 -55 5 -62 12 -10 10 -2 11 42 7 83 -8 125 34 100 100 l-10 26 -30 -33
-30 -33 5 30 c2 17 8 46 14 65 8 33 9 34 10 7 1 -16 -4 -37 -9 -48 -6 -10 -8
-19 -6 -19 3 0 13 14 21 31 15 28 15 33 1 55 -20 29 -59 49 -111 57 -39 6 -39
6 -15 -8z m64 -107 c9 -12 16 -31 16 -42 0 -28 -39 -66 -67 -66 -52 0 -82 72
-46 112 23 26 78 24 97 -4z m86 -70 c0 -13 -43 -48 -59 -48 -10 1 -5 7 12 16
15 8 27 17 27 20 0 2 -9 0 -19 -6 -34 -18 -37 -11 -6 18 27 24 44 24 45 0z"/>
<path d="M954 1025 c-15 -23 -15 -27 0 -50 30 -45 86 -28 86 27 0 49 -59 65
-86 23z m61 -25 c0 -18 -6 -26 -21 -28 -26 -4 -40 24 -23 45 18 21 44 11 44
-17z"/>
<path d="M845 1054 c-17 -42 -20 -90 -5 -99 9 -5 16 41 11 69 -1 5 10 22 25
37 27 28 27 29 6 29 -16 0 -26 -10 -37 -36z"/>
<path d="M900 902 c0 -22 34 -52 58 -52 l27 1 -26 14 c-15 8 -29 21 -33 30 -6
15 -26 21 -26 7z"/>
<path d="M1393 927 c-21 -26 -26 -40 -13 -32 9 5 10 1 6 -16 -6 -21 -6 -22 4
-6 7 10 9 21 6 24 -3 3 2 11 11 18 10 7 12 14 6 18 -6 4 -15 1 -20 -6z"/>
<path d="M1360 826 c0 -37 4 -55 10 -51 6 4 9 26 5 52 -7 66 -15 66 -15 -1z"/>
<path d="M1390 759 c0 -5 -4 -7 -10 -4 -18 11 -11 -6 23 -52 17 -25 43 -50 57
-55 43 -18 90 -26 90 -17 0 5 -6 10 -12 10 -7 1 -17 2 -23 4 -5 1 -15 3 -22 3
-7 1 -22 12 -33 25 -18 19 -20 19 -14 3 5 -14 4 -17 -4 -12 -7 4 -12 16 -12
27 0 11 -5 17 -10 14 -12 -7 -30 34 -23 53 3 6 2 12 -1 12 -3 0 -6 -5 -6 -11z"/>
<path d="M1690 689 c0 -5 -4 -8 -8 -5 -13 8 -32 -8 -24 -21 5 -8 16 -3 35 13
19 16 23 24 13 24 -9 0 -16 -5 -16 -11z"/>
<path d="M1880 697 c0 -23 134 -157 145 -145 3 2 -29 37 -70 78 -41 41 -75 71
-75 67z"/>
<path d="M1535 940 l-30 -6 25 -7 c14 -3 39 -3 55 2 30 8 30 8 5 12 -14 3 -38
2 -55 -1z"/>
<path d="M1483 910 c-12 -5 -29 -22 -37 -39 -18 -35 -20 -45 -6 -36 6 3 10 -3
10 -15 0 -12 -4 -18 -10 -15 -16 10 -12 -7 11 -44 20 -33 20 -33 77 -26 31 4
67 13 80 21 12 8 22 10 22 5 0 -5 -10 -13 -22 -17 l-23 -8 25 -6 c31 -8 47 3
66 48 18 44 18 54 -1 22 -14 -25 -14 -25 -15 15 0 30 -3 36 -10 25 -8 -13 -10
-12 -11 5 -1 11 -1 27 0 35 0 10 -1 11 -5 3 -4 -10 -11 -10 -27 2 -28 20 -76
19 -99 -2 -10 -9 -18 -11 -18 -5 0 6 10 18 22 26 25 18 8 21 -29 6z m-1 -62
c-2 -10 -8 -18 -13 -18 -15 0 -24 33 -11 38 7 2 12 11 13 20 0 14 2 13 8 -3 4
-11 6 -28 3 -37z m123 17 c30 -29 31 -45 4 -79 -36 -46 -119 -22 -119 34 0 27
43 70 70 70 12 0 32 -11 45 -25z m-121 -103 c-4 -11 -3 -13 3 -5 6 8 13 8 27
-2 17 -13 16 -14 -12 -13 -36 1 -61 40 -39 62 10 12 13 11 19 -5 4 -11 5 -27
2 -37z m166 -13 c-14 -25 -15 -24 -14 11 2 50 5 56 15 32 6 -15 5 -30 -1 -43z"/>
<path d="M1528 859 c-24 -14 -23 -52 3 -75 19 -17 23 -17 47 -3 33 18 39 44
16 70 -19 21 -40 24 -66 8z m56 -15 c9 -8 16 -19 16 -24 0 -14 -41 -39 -56
-33 -19 7 -28 42 -14 58 16 19 35 19 54 -1z"/>
<path d="M1540 835 c-10 -11 -10 -19 -2 -27 15 -15 44 -2 40 19 -4 23 -22 27
-38 8z"/>
<path d="M1596 910 c6 -6 19 -13 28 -14 10 -1 26 -16 37 -32 19 -27 20 -28 14
-4 -9 33 -24 46 -60 54 -22 6 -27 5 -19 -4z"/>
<path d="M1520 710 c-11 -7 0 -9 38 -8 30 1 55 5 57 8 6 10 -80 10 -95 0z"/>
<path d="M276 828 c24 -46 55 -90 61 -84 6 6 -59 116 -70 116 -4 0 0 -15 9
-32z"/>
<path d="M361 698 c13 -18 25 -26 27 -19 4 13 -25 51 -40 51 -5 0 1 -14 13
-32z"/>
<path d="M899 674 c-12 -15 -12 -17 0 -9 11 6 13 4 8 -8 -5 -13 0 -17 22 -17
17 0 31 6 35 16 4 12 1 14 -13 9 -12 -4 -23 0 -29 10 -8 15 -10 15 -23 -1z"/>
<path d="M1910 745 c14 -17 28 -34 31 -38 4 -5 10 -3 14 4 6 8 4 10 -4 5 -8
-5 -11 -3 -9 5 1 8 0 14 -4 14 -3 0 -16 9 -29 20 -23 19 -23 19 1 -10z"/>
<path d="M1967 693 c-4 -6 2 -18 13 -28 11 -10 20 -15 20 -10 0 4 15 -10 33
-30 20 -22 37 -34 40 -28 4 6 0 16 -8 23 -8 7 -15 10 -15 7 0 -4 -17 12 -38
35 -22 23 -42 37 -45 31z"/>
<path d="M2130 565 c0 -18 22 -34 38 -28 10 4 13 2 8 -5 -5 -8 -1 -10 10 -5
12 4 15 3 10 -5 -5 -8 -1 -10 10 -5 14 5 13 8 -8 19 -14 7 -31 14 -39 16 -8 2
-17 8 -21 13 -5 7 -8 6 -8 0z"/>
<path d="M2241 501 c-9 -6 3 -15 43 -30 70 -26 74 -26 51 -1 -13 14 -25 18
-44 14 -18 -4 -22 -3 -13 4 11 7 10 10 -3 16 -20 7 -17 8 -34 -3z"/>
<path d="M2368 458 c18 -18 25 -19 59 -10 l38 11 -45 -5 c-29 -3 -40 -2 -32 4
10 7 7 11 -13 14 l-27 6 20 -20z"/>
<path d="M2475 440 l-50 -7 55 -1 c30 0 64 3 75 8 18 8 18 9 -5 8 -14 -1 -47
-4 -75 -8z"/>
<path d="M1150 532 c8 -5 39 -15 69 -22 29 -7 62 -21 72 -31 13 -13 20 -15 25
-7 4 7 3 13 -3 15 -6 2 -9 13 -6 23 4 15 0 20 -13 20 -15 0 -16 -2 -5 -9 10
-7 10 -10 1 -16 -7 -4 -15 -3 -19 2 -3 6 -26 13 -51 16 -25 3 -55 9 -65 12
-15 5 -17 4 -5 -3z"/>
<path d="M1822 388 c-34 -34 6 -96 50 -79 31 12 40 34 28 66 -7 19 -17 25 -38
25 -15 0 -33 -5 -40 -12z m56 -29 c4 -20 -28 -34 -39 -18 -11 18 1 40 20 37 9
-2 17 -10 19 -19z"/>
<path d="M730 326 c0 -8 4 -17 8 -20 13 -8 35 11 28 23 -10 16 -36 14 -36 -3z"/>
<path d="M2405 1130 c-8 -12 20 -24 35 -15 5 3 10 10 10 16 0 12 -37 12 -45
-1z"/>
</g>
</svg>
