<?xml version="1.0" standalone="no"?>
<!DOCTYPE svg PUBLIC "-//W3C//DTD SVG 20010904//EN"
 "http://www.w3.org/TR/2001/REC-SVG-20010904/DTD/svg10.dtd">
<svg version="1.0" xmlns="http://www.w3.org/2000/svg"
 width="300.000000pt" height="300.000000pt" viewBox="0 0 300.000000 300.000000"
 preserveAspectRatio="xMidYMid meet">
<metadata>
Created by potrace 1.10, written by Peter Selinger 2001-2011
</metadata>
<g transform="translate(0.000000,300.000000) scale(0.100000,-0.100000)"
fill="#000000" stroke="none">
<path d="M1490 2870 c-27 -27 -25 -44 5 -68 25 -20 25 -21 25 -176 0 -135 2
-156 16 -156 9 0 12 5 8 13 -6 10 -4 10 7 0 7 -7 29 -13 49 -13 34 0 36 2 33
28 -3 18 4 40 21 65 15 22 20 37 13 37 -11 0 -18 -8 -67 -70 l-19 -25 -1 33
c0 17 4 32 9 32 15 0 21 31 10 52 -18 34 4 44 50 23 24 -10 50 -15 65 -11 36
9 46 -28 14 -53 -21 -18 -24 -18 -30 -3 -5 12 -7 9 -7 -10 -1 -18 -6 -28 -16
-28 -20 0 -30 -46 -15 -65 7 -8 29 -15 49 -15 39 0 69 -14 53 -24 -5 -3 -65
-2 -132 4 -107 8 -345 -2 -358 -15 -2 -2 -1 -13 3 -25 5 -15 12 -19 23 -15 30
12 285 16 377 6 50 -5 91 -8 92 -7 1 1 6 28 12 61 5 33 12 74 16 90 l7 30 -31
-33 c-31 -32 -31 -32 -31 -8 0 27 33 56 62 56 10 0 18 7 18 15 0 34 52 143 71
148 26 7 35 35 17 53 -20 21 -48 7 -48 -23 0 -15 -14 -41 -32 -62 -18 -20 -41
-47 -50 -61 l-17 -25 0 41 c-1 29 4 44 15 48 9 3 14 15 12 28 -2 17 -10 23
-28 23 -21 0 -25 -5 -25 -32 0 -20 -8 -41 -22 -55 -20 -20 -24 -20 -40 -6 -27
23 -79 48 -102 48 -31 0 -44 58 -20 86 25 27 24 49 -3 68 -29 20 -34 20 -58
-4z m90 -242 c10 -21 14 -38 9 -38 -5 0 -19 -10 -31 -22 -19 -19 -21 -19 -14
-2 10 23 10 25 2 94 -7 59 -9 61 34 -32z m119 -129 c9 -27 9 -30 -4 -19 -8 7
-15 9 -15 4 0 -5 -4 -2 -10 6 -5 9 -5 19 2 27 14 18 15 17 27 -18z"/>
<path d="M1130 2796 c-16 -21 -6 -44 24 -56 22 -8 43 -48 70 -136 4 -14 18
-24 36 -28 21 -4 34 -14 40 -32 15 -39 4 -42 -32 -8 -19 18 -29 23 -25 12 3
-9 11 -35 17 -57 l11 -41 47 7 c53 7 72 18 72 43 0 20 -23 43 -33 33 -4 -3 -7
11 -7 33 l1 39 30 -34 c25 -27 30 -40 27 -67 -4 -32 -2 -34 27 -34 65 0 84 65
31 111 l-23 20 24 46 c12 26 23 55 23 65 0 17 -2 17 -51 -2 -28 -10 -60 -27
-70 -36 -18 -16 -20 -16 -42 4 -17 16 -22 30 -19 52 5 34 -18 50 -43 30 -20
-16 -19 -25 3 -47 20 -19 29 -83 12 -83 -5 0 -10 4 -10 10 0 5 -20 34 -44 63
-24 30 -46 65 -48 78 -4 28 -30 36 -48 15z m300 -152 c-6 -14 -8 -30 -5 -34 3
-5 -4 -8 -15 -7 -25 2 -27 32 -2 46 9 6 13 11 8 11 -17 0 -76 -51 -76 -66 0
-15 -25 -19 -34 -5 -15 24 63 78 116 80 15 1 16 -3 8 -25z m-50 -138 c0 -16
-26 -39 -38 -34 -15 5 6 48 23 48 8 0 15 -6 15 -14z"/>
<path d="M989 2738 c-3 -76 -6 -88 -23 -107 -10 -11 -22 -18 -26 -16 -4 3 -22
0 -39 -6 -32 -11 -33 -29 -2 -29 10 0 30 -9 44 -20 15 -12 30 -21 34 -21 4 0
8 -9 9 -22 1 -12 2 -37 3 -54 1 -23 6 -33 17 -33 14 0 16 8 11 45 -4 36 0 52
17 77 11 17 28 34 36 36 8 3 0 -11 -18 -32 -17 -20 -32 -42 -32 -48 0 -6 10 4
23 23 13 20 36 38 55 44 37 11 43 34 10 37 -43 2 -47 3 -55 12 -5 5 -2 6 6 1
10 -5 12 -4 7 4 -4 6 -11 9 -16 6 -5 -3 -16 5 -24 17 -19 26 -21 42 -4 32 8
-5 9 -2 5 10 -4 10 -7 31 -7 47 0 42 -30 39 -31 -3z m30 -154 c-14 -14 -17
-14 -29 0 -10 13 -10 19 0 32 12 14 15 14 29 0 14 -15 14 -17 0 -32z"/>
<path d="M2030 2736 c0 -13 -3 -32 -7 -42 -4 -12 -3 -15 5 -10 8 5 10 2 6 -8
-3 -9 -10 -14 -14 -11 -4 3 -7 -3 -6 -12 0 -10 -4 -18 -11 -18 -6 0 -15 -4
-20 -9 -5 -5 -2 -6 6 -1 10 5 12 4 7 -4 -4 -6 -13 -10 -19 -9 -7 1 -25 -1 -40
-5 -36 -10 -24 -31 13 -23 22 4 34 -1 54 -21 15 -15 26 -34 25 -42 -5 -52 2
-91 16 -91 9 0 15 9 15 24 0 13 3 32 7 42 4 12 3 15 -6 10 -9 -6 -8 1 1 25 8
17 25 39 38 48 l25 15 -25 -29 -25 -29 29 22 c16 12 37 22 47 22 30 0 32 19 2
27 -15 4 -33 6 -40 5 -6 -1 -15 3 -19 9 -5 8 -3 9 6 4 9 -5 11 -4 6 4 -4 6
-11 9 -16 6 -9 -5 -24 11 -33 38 -5 12 -3 16 5 11 8 -5 9 -2 5 10 -4 10 -7 29
-7 42 0 15 -6 24 -15 24 -9 0 -15 -9 -15 -24z m29 -152 c-14 -14 -17 -14 -29
0 -10 13 -10 19 0 32 12 14 15 14 29 0 14 -15 14 -17 0 -32z"/>
<path d="M649 2692 c-6 -19 -26 -42 -43 -53 -18 -11 -24 -19 -15 -19 22 0 56
-39 65 -75 l7 -30 -37 33 c-28 24 -46 32 -74 32 l-37 -1 27 -15 c15 -8 33 -24
39 -35 9 -18 6 -25 -24 -50 -20 -16 -40 -44 -47 -63 -11 -33 -43 -56 -80 -56
-33 0 -31 -18 3 -24 25 -5 49 -24 91 -71 l57 -65 -26 -10 c-14 -6 -40 -10 -56
-10 -16 0 -29 -4 -29 -10 0 -5 6 -10 13 -10 20 0 54 -41 63 -73 4 -17 10 -25
15 -20 17 17 27 69 17 86 -13 25 8 21 34 -5 14 -14 18 -23 10 -26 -7 -2 -12
-11 -12 -20 0 -29 21 3 40 60 l17 53 7 -40 c8 -43 45 -104 46 -73 0 9 -5 18
-12 20 -15 5 -3 25 24 39 17 9 19 8 14 -9 -4 -11 1 -38 10 -59 l16 -38 9 30
c9 32 43 75 59 75 6 0 10 5 10 10 0 6 -13 10 -30 10 -16 0 -40 5 -53 11 -24
11 -24 12 43 80 42 42 76 69 89 69 36 0 23 17 -19 24 -33 5 -43 12 -60 45 -11
22 -34 54 -52 70 -27 25 -31 34 -22 48 6 10 20 22 32 28 30 13 28 25 -4 25
-31 0 -62 -16 -86 -44 l-17 -21 -1 24 c0 13 14 37 34 57 32 32 33 35 15 44
-10 6 -28 27 -38 48 l-20 37 -12 -33z m30 -56 c9 -11 8 -15 -5 -20 -20 -8 -39
7 -30 23 10 15 21 14 35 -3z m-29 -182 c0 -27 -4 -35 -14 -31 -8 3 -23 -4 -34
-16 -18 -19 -20 -28 -12 -62 8 -36 31 -65 52 -65 4 0 8 -13 8 -30 0 -17 -5
-30 -12 -30 -25 0 -77 40 -93 70 -15 30 -15 30 10 30 15 0 24 4 20 10 -3 6
-17 10 -31 10 -21 0 -24 3 -19 23 16 57 31 80 64 103 49 33 61 31 61 -12z m77
16 c38 -23 68 -64 58 -80 -5 -9 -10 -9 -18 -1 -18 18 -28 12 -17 -9 6 -12 21
-20 35 -20 16 0 25 -6 25 -16 0 -12 -7 -15 -26 -11 -18 3 -27 0 -31 -12 -3 -9
-15 -27 -27 -40 l-21 -24 25 16 c42 29 47 18 7 -18 -45 -41 -54 -43 -59 -12
-2 15 8 32 29 53 41 39 42 68 3 104 -21 19 -30 37 -30 59 0 36 4 37 47 11z
m-87 -95 c-16 -19 -30 -19 -30 0 0 17 33 38 38 24 2 -5 -2 -16 -8 -24z m40
-20 c13 -16 6 -35 -15 -35 -18 0 -28 17 -21 35 7 19 20 19 36 0z"/>
<path d="M2200 2455 c0 -43 -28 -85 -61 -92 -35 -7 -49 -23 -20 -23 35 0 72
-41 78 -88 3 -23 9 -42 13 -42 4 0 10 19 13 42 6 44 42 88 73 88 26 0 15 17
-16 23 -32 7 -60 49 -60 92 0 14 -4 25 -10 25 -5 0 -10 -11 -10 -25z"/>
<path d="M1090 2396 c-9 -19 -24 -32 -37 -34 -28 -4 -30 -22 -3 -22 12 0 28
-13 38 -29 l18 -30 11 30 c7 19 18 29 32 29 28 0 36 18 9 22 -14 2 -29 16 -38
34 l-16 30 -14 -30z"/>
<path d="M1947 2400 c-5 -21 -14 -31 -32 -36 -29 -7 -34 -24 -7 -24 23 0 42
-19 42 -42 0 -10 5 -18 10 -18 6 0 10 8 10 18 0 23 19 42 42 42 26 0 22 17 -6
24 -15 4 -28 17 -34 36 -14 38 -18 38 -25 0z"/>
<path d="M1330 2361 c-44 -6 -45 -7 -48 -47 -3 -41 -4 -42 -49 -53 -25 -7 -63
-21 -85 -32 l-40 -20 45 -29 c93 -59 157 -186 157 -313 0 -56 -1 -60 -16 -45
-9 8 -19 44 -24 79 -11 93 -44 162 -103 214 -27 25 -61 48 -75 52 -24 6 -24 7
-7 13 16 6 14 9 -16 15 -19 3 -51 5 -70 3 l-34 -4 30 -12 c60 -25 81 -38 122
-79 40 -39 72 -92 87 -140 7 -21 4 -23 -27 -23 -90 0 -216 -71 -283 -159 -28
-36 -32 -47 -20 -49 9 -2 16 -13 16 -26 0 -42 20 -47 51 -13 38 43 37 16 -3
-39 -36 -50 -51 -56 -42 -16 4 15 4 24 0 21 -4 -4 -8 -18 -10 -31 -1 -13 -5
-28 -8 -33 -3 -6 -9 -32 -13 -59 l-8 -49 29 7 c74 19 140 87 165 171 12 40 29
61 29 36 0 -28 -42 -136 -64 -165 -44 -58 -146 -106 -146 -70 0 10 -2 15 -5
12 -8 -7 -23 -97 -17 -102 2 -3 19 5 36 18 52 38 63 41 31 7 -16 -17 -39 -34
-51 -37 -19 -5 -40 -51 -29 -63 2 -2 25 14 51 35 65 54 166 174 200 239 22 41
31 51 41 43 20 -16 16 -30 -28 -94 -57 -81 -131 -161 -211 -229 -38 -31 -68
-63 -68 -71 0 -12 4 -12 21 -4 33 18 234 216 265 262 16 24 32 45 35 48 3 3
11 15 17 27 8 14 18 20 32 16 26 -7 26 -13 -11 -86 -56 -111 -136 -222 -213
-294 -73 -70 -80 -83 -45 -83 17 0 42 -51 59 -122 l8 -33 1 36 c1 20 -6 53
-14 73 -15 36 -15 36 10 36 l25 0 -1 -117 c-1 -68 -4 -105 -8 -88 -6 25 -8 20
-15 -35 -4 -36 -11 -82 -17 -102 -10 -40 -30 -63 -22 -26 2 13 -8 1 -24 -27
-15 -27 -32 -49 -38 -49 -13 1 -61 89 -71 129 -7 28 -5 27 39 -20 l45 -50 17
39 c25 60 30 169 11 251 -30 126 -71 157 -71 52 0 -49 -5 -69 -23 -94 -31 -44
-11 -42 26 2 l29 36 11 -39 c13 -42 15 -137 4 -162 -20 -43 -71 1 -93 79 -14
50 -18 56 -40 53 l-24 -4 27 29 c15 15 32 41 37 56 13 34 14 124 2 131 -5 3
-15 30 -21 58 -9 37 -25 66 -52 96 l-39 43 1 157 c1 86 1 184 1 217 l-1 60
-35 0 c-32 0 -35 -3 -35 -27 0 -24 4 -28 30 -28 17 0 30 -4 30 -10 0 -5 -13
-10 -30 -10 -20 0 -30 -5 -30 -15 0 -10 10 -15 30 -15 17 0 30 -4 30 -9 0 -13
-35 -20 -51 -11 -12 7 -14 -22 -11 -186 l3 -194 -23 0 c-41 0 -48 -17 -48
-123 l0 -99 35 -31 35 -31 0 -328 0 -328 35 0 35 0 2 304 3 304 39 -34 38 -33
-21 -188 c-12 -103 -29 -232 -39 -285 l-16 -98 -37 0 c-21 0 -39 3 -42 8 -2 4
-2 1 0 -6 1 -8 3 -25 3 -39 0 -21 3 -23 14 -14 24 20 58 -4 54 -37 -4 -33 -45
-44 -65 -16 -7 10 -14 16 -15 13 -2 -2 -13 -23 -25 -46 l-21 -43 339 0 339 0
0 56 c0 49 -2 55 -15 44 -9 -7 -13 -21 -10 -31 4 -12 1 -21 -9 -25 -9 -3 -13
-10 -10 -15 3 -5 -5 -8 -18 -8 -13 1 -30 0 -38 -2 -12 -3 -15 13 -18 100 -3
96 -1 103 15 97 11 -4 5 6 -15 27 -29 30 -31 35 -17 47 13 11 15 69 15 463 l0
451 27 39 26 38 18 -57 c10 -32 15 -62 12 -67 -3 -6 -2 -7 4 -4 6 4 19 -13 29
-36 10 -23 24 -46 31 -52 10 -8 13 -100 13 -404 l1 -394 -29 -31 c-36 -40 -64
-84 -60 -97 2 -6 19 10 38 35 18 25 37 46 42 46 4 0 8 -49 8 -110 l0 -110 230
0 230 0 0 110 c0 61 3 110 7 110 4 0 20 -12 37 -28 l30 -27 -18 30 c-10 17
-27 40 -38 51 -18 20 -19 40 -18 400 0 208 4 381 9 384 18 12 61 99 75 154 8
32 20 64 27 70 9 8 10 8 5 -1 -4 -7 -3 -13 2 -13 12 0 32 -45 32 -73 0 -17 2
-19 10 -7 5 8 11 12 14 9 3 -3 6 -207 6 -453 l1 -447 -30 -35 c-33 -37 -65
-93 -58 -100 3 -3 15 11 27 30 22 36 48 50 36 20 -3 -9 -6 -52 -6 -96 0 -63
-3 -78 -12 -70 -7 5 -24 12 -38 14 -14 1 -25 8 -26 13 0 6 -5 21 -11 35 -6 14
-13 34 -15 45 -3 11 -7 -13 -9 -53 l-4 -72 393 0 c215 0 392 1 392 3 0 2 -9
21 -19 43 -40 82 -91 344 -117 599 -8 85 -25 107 -199 264 -230 208 -281 268
-366 434 -40 79 -48 101 -38 108 22 14 27 11 44 -21 9 -16 22 -30 31 -30 8 0
12 -4 9 -10 -16 -26 156 -219 285 -321 45 -35 109 -81 142 -102 l59 -38 -3 27
c-2 20 -11 30 -33 37 -67 23 -255 183 -353 302 -40 50 -81 99 -90 110 -9 11
-16 23 -14 28 1 4 -2 7 -7 7 -9 0 -7 43 4 61 5 7 20 -12 40 -49 75 -140 217
-286 356 -365 46 -25 84 -45 86 -43 2 2 1 21 -3 43 -5 31 -10 40 -23 36 -43
-10 -271 140 -248 164 4 4 22 -7 40 -24 17 -16 46 -39 62 -50 31 -21 156 -75
161 -70 2 2 0 16 -4 32 -7 23 -16 30 -54 40 -51 13 -128 59 -128 76 0 6 3 9 8
7 45 -23 122 -58 141 -63 23 -7 24 -6 17 42 -4 36 -2 58 9 79 16 31 18 67 6
99 -7 17 -8 15 -14 -11 -13 -67 -80 -114 -161 -114 -94 0 -173 70 -197 174
-15 69 -7 108 10 46 32 -113 104 -183 186 -182 52 1 95 21 124 58 26 33 26 60
1 126 -24 63 -23 58 -5 58 26 0 16 18 -42 78 -92 93 -197 132 -353 132 -89 0
-90 1 -61 67 28 60 97 130 161 163 l55 29 -45 0 c-25 1 -52 -4 -60 -9 -8 -5
-11 -10 -5 -10 5 0 -8 -9 -30 -21 -90 -46 -165 -165 -165 -262 0 -35 -19 -92
-20 -62 0 6 -8 1 -16 -10 -15 -19 -16 -15 -11 55 3 41 15 101 27 132 26 69
106 162 156 180 19 6 34 15 34 19 0 7 -96 44 -142 55 -26 6 -28 10 -28 53 l0
46 -198 1 c-108 1 -217 -1 -242 -5z m190 -171 l0 -161 -27 15 c-34 17 -96 81
-113 116 l-13 25 23 -20 c22 -19 22 -19 -3 21 -25 40 -47 103 -47 136 0 17 3
18 148 26 l32 2 0 -160z m208 107 c4 -30 54 -77 82 -77 29 0 34 -20 10 -37
-39 -27 -100 -134 -128 -224 -24 -80 -30 -90 -64 -109 -21 -12 -38 -24 -38
-28 -1 -4 -16 -25 -35 -46 l-35 -39 -25 23 c-31 29 -33 50 -2 24 20 -17 20
-17 -2 8 -13 15 -28 25 -32 22 -13 -8 -11 -18 10 -40 10 -11 24 -30 30 -42 17
-32 32 -27 66 21 24 35 30 39 33 22 3 -12 -7 -29 -26 -46 -17 -15 -32 -35 -34
-46 -5 -26 -43 -24 -43 3 -1 18 -72 94 -89 94 -13 0 25 -60 45 -71 16 -8 18
-14 9 -22 -8 -9 -14 -8 -21 6 -6 9 -15 15 -20 11 -13 -7 8 -34 27 -34 24 0 83
-45 84 -64 0 -15 -5 -17 -27 -12 -16 4 -44 18 -63 32 -19 13 -37 19 -38 14 -5
-14 17 -40 34 -40 8 0 14 -7 14 -15 0 -8 -7 -15 -15 -15 -8 0 -15 7 -15 15 0
11 -7 14 -25 9 -19 -5 -25 -2 -25 10 0 9 4 16 9 16 13 0 20 35 9 54 -5 9 -5
16 -1 16 4 0 6 33 3 74 l-5 75 21 -20 c19 -18 34 -17 34 2 0 4 -15 17 -34 28
-19 12 -36 32 -38 46 -3 14 -3 25 -1 25 10 0 70 -45 109 -82 l40 -38 42 38
c23 21 58 47 77 58 28 15 35 24 35 49 0 17 5 36 12 43 9 9 9 18 0 37 -14 31
-51 33 -110 5 -50 -24 -59 -25 -41 -4 8 9 15 51 17 103 4 85 5 88 27 83 26 -5
72 17 100 47 16 18 17 27 8 50 -10 28 -9 28 16 22 18 -5 27 -15 29 -34z m-404
-22 c3 -31 15 -78 25 -105 11 -28 17 -50 15 -50 -3 0 -18 10 -34 22 -29 21
-30 24 -30 105 0 94 14 111 24 28z m330 14 c-20 -22 -66 -49 -84 -49 -21 0 11
41 43 55 49 22 64 19 41 -6z m-374 -88 c0 -43 4 -52 29 -70 16 -12 38 -21 48
-21 19 0 43 -18 43 -32 0 -4 -8 -8 -18 -8 -11 0 -27 -9 -37 -20 -10 -11 -22
-20 -27 -20 -5 0 -20 25 -34 56 -14 31 -27 54 -30 51 -3 -3 -15 3 -27 13 -61
51 -71 61 -60 56 6 -4 14 -2 18 4 3 5 14 10 24 10 10 0 24 7 31 15 25 30 40
17 40 -34z m228 -296 c2 -39 -1 -65 -7 -65 -15 0 -31 35 -31 68 0 25 -8 35
-55 63 -41 24 -55 39 -55 56 0 22 2 21 73 -17 l72 -39 3 -66z m160 113 c-2
-16 -18 -30 -55 -48 -49 -23 -52 -27 -53 -62 0 -42 -8 -68 -21 -68 -5 0 -9 29
-9 64 l0 65 63 34 c76 42 79 43 75 15z m-288 -69 c0 -11 -4 -19 -10 -19 -5 0
-10 5 -10 11 0 6 -6 9 -14 6 -10 -4 -14 0 -13 12 2 25 47 15 47 -10z m-230
-61 c-11 -24 -20 -51 -20 -61 0 -11 -12 -22 -30 -28 -16 -6 -30 -15 -30 -21 0
-6 7 -8 15 -4 17 6 18 4 9 -18 -5 -13 -23 -16 -95 -16 -49 0 -89 2 -89 5 0 14
52 85 76 104 38 30 52 26 15 -5 -18 -14 -36 -35 -42 -45 -8 -16 -6 -19 11 -19
11 0 20 6 20 14 0 19 27 39 40 31 8 -5 6 -13 -6 -26 -16 -18 -16 -19 4 -19 12
0 22 4 22 10 0 5 14 16 30 25 17 9 30 23 30 33 0 21 36 82 49 82 6 0 1 -19 -9
-42z m96 4 c0 -26 -3 -29 -33 -30 -39 -2 -44 19 -11 42 33 23 44 20 44 -12z
m599 18 c4 -6 10 -8 15 -5 5 3 33 -20 63 -50 30 -30 60 -55 68 -55 8 0 33 18
54 40 21 22 43 40 47 40 16 0 -22 -58 -54 -84 l-33 -26 37 0 c31 0 35 3 31 20
-3 11 0 20 6 20 6 0 16 -9 23 -20 8 -12 23 -20 38 -20 l25 1 -27 22 c-33 27
-35 37 -8 37 13 0 28 -12 38 -30 13 -23 25 -30 56 -32 22 -2 41 -7 43 -13 2
-6 -56 -9 -164 -8 -108 1 -169 6 -171 12 -2 6 6 11 17 11 18 0 15 6 -21 42
-24 24 -49 41 -57 40 -23 -6 -71 20 -71 38 0 29 31 43 45 20z m156 -29 c-14
-14 -18 -14 -31 -1 -12 11 -13 16 -3 18 7 2 13 8 13 13 0 5 8 4 19 -2 17 -11
17 -13 2 -28z m-911 -11 c0 -24 -26 -38 -42 -22 -16 16 -2 42 22 42 13 0 20
-7 20 -20z m260 -24 c0 -8 5 -16 12 -18 8 -3 8 -10 -4 -26 -8 -12 -18 -19 -21
-15 -11 10 -8 73 3 73 6 0 10 -6 10 -14z m337 -23 c4 -11 -3 -24 -22 -40 -25
-22 -29 -23 -38 -8 -6 12 -3 23 14 41 26 28 37 30 46 7z m-402 -34 c24 -23 29
-37 29 -69 -2 -75 -55 -120 -124 -103 -39 9 -80 61 -80 100 0 62 64 119 120
107 14 -3 38 -18 55 -35z m570 27 c77 -32 85 -137 15 -184 -46 -31 -94 -25
-132 18 -16 17 -28 36 -28 43 0 8 4 7 10 -3 8 -12 10 -10 10 8 0 13 -4 20 -10
17 -13 -8 -13 31 1 56 11 22 66 59 87 59 7 0 28 -7 47 -14z m-169 -67 c8 -14
-11 -33 -25 -25 -11 7 -4 36 9 36 5 0 12 -5 16 -11z m582 -48 c10 -28 7 -41
-8 -41 -11 0 -31 50 -25 61 11 17 23 9 33 -20z m-124 8 c10 -11 -15 -49 -33
-49 -11 0 -23 -4 -26 -10 -3 -5 -13 -10 -20 -10 -19 0 -51 60 -37 69 11 7 109
7 116 0z m-1120 -5 c21 -8 5 -39 -24 -47 -22 -6 -25 5 -10 34 12 21 12 21 34
13z m946 -34 c0 -40 -5 -45 -34 -34 -20 8 -20 18 0 49 23 36 34 31 34 -15z
m233 -24 c2 -31 1 -59 -2 -61 -7 -7 -41 26 -41 40 0 18 30 88 36 82 2 -2 6
-30 7 -61z m-588 -1 c-39 -36 -58 -40 -63 -13 -2 9 11 21 35 31 61 25 70 19
28 -18z m78 8 c9 -9 -13 -34 -24 -27 -14 8 -11 34 4 34 8 0 17 -3 20 -7z
m-717 -59 c-6 -22 -84 -89 -93 -80 -8 8 19 51 56 87 37 37 47 35 37 -7z m1214
-75 c0 -18 -2 -19 -30 -4 -36 19 -58 50 -66 96 l-6 34 51 -53 c28 -29 51 -62
51 -73z m98 79 c-5 -23 -14 -48 -20 -56 -12 -14 -68 -46 -68 -38 0 27 71 132
91 135 4 1 3 -18 -3 -41z m-534 -6 c5 -9 -30 -44 -61 -61 -13 -6 -23 -19 -23
-27 0 -10 -8 -15 -22 -13 -41 4 -78 -21 -78 -53 0 -15 -5 -28 -11 -28 -5 0 -8
-4 -5 -9 7 -10 -16 -21 -44 -21 -21 0 -50 40 -50 69 0 11 -9 25 -21 31 -11 7
-19 14 -16 17 3 2 14 -1 26 -9 18 -11 23 -10 38 6 10 10 12 16 5 11 -15 -8
-87 38 -96 61 -5 12 -1 12 24 -1 35 -18 61 -19 58 -2 -2 6 4 12 12 12 9 0 14
-7 12 -17 -2 -10 3 -18 12 -18 8 0 12 -7 10 -17 -3 -12 4 -22 21 -30 33 -15
71 0 79 29 4 16 10 19 30 14 19 -5 29 -1 38 14 7 11 18 20 25 20 7 0 13 7 13
15 0 16 15 20 24 7z m46 -14 c0 -32 -14 -56 -35 -66 -17 -8 -22 -17 -18 -31 3
-12 9 -21 14 -21 18 0 8 -28 -11 -33 -12 -3 -20 -14 -20 -25 0 -13 -9 -22 -25
-26 -17 -4 -25 -13 -25 -27 0 -14 -5 -19 -17 -17 -26 5 -29 38 -4 38 27 0 49
35 61 99 5 29 17 59 25 67 8 9 20 24 25 35 12 21 30 26 30 7z m-498 -39 c10
-10 15 -25 12 -33 -3 -9 -1 -38 6 -65 10 -41 17 -52 45 -66 23 -10 32 -20 29
-30 -9 -22 -34 -18 -34 5 0 15 -8 22 -29 26 -22 5 -30 13 -35 35 -4 20 -10 27
-21 23 -10 -4 -15 0 -15 10 0 9 7 16 16 16 11 0 14 5 10 16 -3 9 -6 20 -6 25
0 5 -7 9 -15 9 -17 0 -35 38 -28 57 6 15 37 1 65 -28z m36 11 c9 -15 19 -19
36 -14 16 4 25 1 30 -11 7 -19 0 -35 -15 -35 -11 0 -79 63 -79 74 0 13 16 5
28 -14z m89 -106 c7 -10 13 -23 13 -30 0 -7 3 -19 6 -28 5 -13 2 -14 -25 -5
-17 6 -31 15 -31 20 0 5 -7 9 -15 9 -15 0 -48 53 -39 63 10 10 79 -12 91 -29z
m257 -2 c-21 -33 -55 -61 -71 -62 -7 0 -13 -4 -13 -10 0 -5 -4 -10 -10 -10
-13 0 -13 37 0 45 6 4 8 16 4 28 -3 12 -3 19 1 15 4 -4 14 0 23 8 8 9 23 13
33 11 11 -3 22 -1 25 4 3 5 10 7 15 3 6 -3 3 -16 -7 -32z m-354 -122 c26 -50
85 -117 111 -125 15 -5 19 -16 19 -51 0 -24 -4 -44 -8 -44 -16 0 -98 59 -134
96 -46 48 -99 160 -106 222 l-5 47 51 -52 c28 -29 61 -71 72 -93z m500 97 c0
-46 -61 -168 -110 -221 -38 -41 -116 -96 -137 -96 -4 0 -7 20 -5 45 2 25 7 45
11 45 21 0 93 78 117 125 14 30 43 69 63 87 20 17 37 35 37 40 3 18 4 19 14
13 6 -3 10 -21 10 -38z m-280 -79 l20 -22 -27 -28 -27 -28 -23 22 c-27 26 -28
35 -6 60 21 24 38 23 63 -4z m-83 -69 l53 -42 56 37 c55 37 96 46 58 13 -10
-10 -33 -30 -50 -45 -64 -57 -60 -56 -98 -32 -41 25 -86 75 -86 96 0 21 8 18
67 -27z m-777 -44 c0 -23 -4 -25 -43 -25 -43 0 -67 13 -67 37 0 9 17 13 55 13
52 0 55 -1 55 -25z m400 -519 l0 -545 -72 0 c-39 0 -75 2 -79 5 -4 2 -4 18 1
34 8 27 6 31 -16 36 -40 10 -56 -2 -52 -38 l3 -33 -79 -3 -79 -3 6 27 c2 15 1
40 -3 55 -6 19 -4 38 5 56 16 32 45 139 45 165 0 25 19 32 46 17 22 -11 27
-10 51 13 l26 26 -24 31 c-28 35 -32 36 -53 16 -10 -10 -17 -12 -21 -4 -7 11
3 117 12 132 3 5 19 -7 35 -27 16 -20 37 -36 46 -36 21 0 55 35 86 90 22 38
24 40 29 18 3 -13 6 -125 7 -251 0 -125 5 -238 10 -250 5 -13 9 170 9 471 1
343 4 492 12 492 6 0 17 7 25 15 9 8 13 15 9 15 -3 0 -3 5 0 10 3 6 8 10 11
10 2 0 4 -245 4 -544z m-340 497 c0 -8 10 -35 21 -61 16 -35 20 -58 16 -94 -8
-67 -22 -88 -57 -88 -15 0 -35 -2 -43 -6 -10 -3 -16 5 -21 28 -4 18 -3 34 2
36 39 13 47 31 48 109 3 122 2 117 19 103 8 -7 15 -19 15 -27z m1252 -7 c4 -6
8 -227 9 -491 1 -264 5 -466 9 -450 4 17 8 67 9 113 1 85 5 91 42 71 19 -10
19 -12 5 -34 -19 -29 -21 -81 -3 -92 42 -27 141 -44 149 -25 2 5 17 15 33 23
22 11 30 21 29 39 -1 35 -14 60 -29 60 -7 0 -16 11 -19 25 -6 24 -9 25 -91 25
l-85 0 0 47 c0 44 4 50 56 100 30 29 58 53 62 53 3 0 22 -16 42 -35 l35 -34
-5 132 c-5 120 -7 134 -27 155 -25 24 -29 38 -12 44 6 2 12 16 12 31 1 15 4
27 7 27 3 -1 38 -34 78 -74 80 -79 91 -105 92 -206 l0 -55 -35 -1 -35 -1 0 93
c0 104 -11 144 -37 143 -11 0 -13 -3 -5 -6 9 -3 12 -53 12 -199 0 -120 4 -193
9 -189 6 3 13 26 17 51 5 37 9 44 25 39 10 -3 27 -1 39 5 15 8 21 8 25 -2 7
-21 15 -70 21 -133 5 -58 4 -59 -12 -37 -9 12 -20 22 -24 22 -3 0 -21 -22 -38
-49 -32 -49 -34 -81 -5 -81 8 0 12 -4 9 -9 -3 -5 3 -19 13 -32 l19 -23 -7 39
c-5 31 -11 41 -29 43 -29 4 -29 20 1 24 18 2 23 10 25 40 4 49 20 49 24 1 2
-30 8 -38 28 -44 l25 -6 -27 -11 c-22 -9 -28 -18 -28 -44 0 -30 1 -31 14 -13
8 11 12 23 10 27 -7 10 8 10 23 0 12 -8 43 -93 43 -119 0 -10 -62 -13 -275
-12 l-275 0 0 523 c0 287 3 525 6 529 8 7 37 -3 46 -17z m-1312 -46 c0 -26 -4
-30 -27 -30 -14 0 -35 8 -46 18 -12 9 -17 11 -12 3 5 -9 3 -12 -6 -9 -21 7
-23 36 -2 41 10 3 35 5 56 6 35 1 37 -1 37 -29z m818 8 c8 -8 15 -8 27 2 13
11 15 8 15 -18 0 -43 -9 -62 -31 -62 -20 0 -39 35 -39 71 0 22 10 25 28 7z
m-133 -50 c39 -25 47 -58 15 -58 -27 0 -25 -15 6 -39 23 -18 25 -25 17 -44
-10 -22 -11 -21 -32 13 -11 19 -23 40 -25 45 -2 6 -7 6 -12 2 -4 -4 3 -28 16
-52 l24 -44 -24 -26 c-14 -15 -26 -21 -30 -15 -5 9 -6 177 -1 228 1 16 6 16
46 -10z m335 -101 c0 -68 -3 -126 -6 -129 -6 -7 -20 6 -71 65 -23 26 -33 32
-33 21 0 -16 -2 -16 -20 1 -19 18 -20 17 -20 -3 0 -13 -6 -22 -15 -22 -11 0
-15 11 -15 36 0 35 1 35 33 29 l32 -6 -33 22 c-31 20 -32 22 -16 40 9 11 29
19 43 19 14 0 44 11 66 24 22 13 43 25 48 25 4 1 7 -54 7 -122z m398 85 c21
-21 45 -41 55 -45 12 -4 17 -17 17 -42 0 -19 6 -44 13 -55 10 -17 9 -22 -2
-29 -18 -12 -7 -70 20 -105 l20 -26 -25 -33 c-14 -19 -26 -44 -26 -56 0 -16
-9 -6 -30 35 -30 56 -30 57 -11 78 22 24 37 66 23 66 -18 0 -62 -68 -62 -98 0
-9 11 -34 25 -54 30 -44 31 -54 7 -67 -10 -5 -27 -26 -37 -45 -11 -20 -23 -36
-27 -36 -5 0 -8 124 -8 275 0 151 2 275 5 275 3 0 23 -17 43 -38z m-1418 -22
c0 -37 -23 -40 -57 -8 -32 30 -29 38 17 38 38 0 40 -2 40 -30z m783 -16 c33
-16 34 -19 32 -63 -3 -43 -5 -46 -34 -49 -30 -3 -31 -2 -31 40 0 24 -3 53 -6
66 -7 26 -5 27 39 6z m152 -229 l0 -95 -101 0 c-97 0 -101 1 -125 28 -64 71
-63 62 -18 115 l41 47 101 0 102 0 0 -95z m53 24 c-2 -30 -22 -57 -31 -42 -3
4 -2 23 0 41 7 42 34 44 31 1z m-307 -108 c23 -21 30 -35 26 -50 -3 -12 -1
-19 4 -15 5 3 9 -106 9 -265 l0 -271 -25 0 -25 0 0 253 c-1 224 -2 250 -15
233 -15 -19 -15 -19 -17 5 -4 61 -2 139 4 139 4 0 21 -13 39 -29z m337 -57
c-2 -49 -7 -68 -15 -66 -10 1 -13 -51 -13 -238 l0 -240 -25 0 -24 0 -3 250
c-3 260 -6 278 -45 263 -12 -5 -12 -7 -1 -14 10 -6 14 -59 16 -236 2 -125 1
-237 -2 -249 -5 -18 -12 -22 -34 -20 l-27 3 -3 272 c-2 251 2 295 23 261 10
-16 36 -11 33 6 -2 11 11 25 34 38 21 11 45 28 55 37 27 24 34 9 31 -67z
m-225 8 c16 -7 18 -27 19 -252 1 -333 4 -305 -32 -306 l-30 -1 0 283 c0 297
-1 293 43 276z m902 -66 c12 -12 12 -16 0 -26 -21 -18 -50 5 -32 25 15 18 16
18 32 1z m-1520 -96 c8 0 15 -4 15 -10 0 -5 -9 -10 -20 -10 -12 0 -20 -7 -20
-17 -1 -17 -1 -17 -11 0 -5 9 -17 17 -24 17 -8 0 -15 5 -15 10 0 6 6 10 14 10
8 0 18 10 22 22 l7 23 8 -23 c5 -12 15 -22 24 -22z m1340 -112 c24 -11 24 -12
8 -30 -17 -19 -17 -19 9 -8 15 7 35 9 45 6 17 -7 17 -8 0 -18 -18 -9 -18 -10
0 -24 17 -13 17 -13 -5 -14 -12 0 -37 -6 -56 -14 -27 -11 -36 -11 -57 0 -13 7
-34 13 -47 14 -14 0 -21 4 -16 11 4 7 21 9 42 5 21 -3 32 -2 26 4 -5 5 -22 11
-38 14 -37 7 -43 14 -21 22 10 4 26 2 36 -5 12 -7 19 -7 19 -1 0 5 -4 10 -10
10 -28 0 -3 27 37 39 1 1 14 -4 28 -11z m-873 -40 c3 -7 2 -23 0 -36 -4 -18
-7 -20 -13 -10 -12 18 -11 58 0 58 5 0 11 -5 13 -12z m-409 -162 c9 -22 -18
-40 -33 -22 -6 9 -9 20 -5 26 9 15 32 12 38 -4z"/>
<path d="M1360 2308 c0 -24 57 -133 80 -153 23 -20 23 -20 16 0 -19 48 -19 56
3 62 30 8 26 17 -14 31 -18 7 -45 27 -60 43 -14 17 -25 25 -25 17z"/>
<path d="M1410 2303 c19 -8 45 -24 58 -36 19 -18 22 -18 22 -4 0 30 -37 57
-77 56 l-38 -1 35 -15z"/>
<path d="M1210 1777 c0 -32 -8 -38 -31 -24 -16 10 -21 9 -29 -3 -7 -11 -3 -17
16 -24 l25 -8 -22 -24 c-28 -30 -14 -52 19 -28 16 11 21 21 16 40 -5 18 -2 24
11 24 13 0 16 -6 13 -25 -7 -32 28 -68 42 -45 14 22 12 28 -11 35 -16 5 -18
10 -8 21 6 8 18 14 27 14 13 0 12 3 -3 20 -14 15 -21 17 -32 9 -8 -8 -13 -8
-13 -1 0 6 6 13 13 15 9 4 8 8 -3 16 -23 16 -30 13 -30 -12z"/>
<path d="M1803 1783 c-3 -8 -3 -17 1 -20 3 -3 -3 -14 -14 -23 -12 -11 -18 -24
-14 -34 3 -9 1 -23 -6 -31 -8 -10 -9 -15 -2 -15 6 0 14 5 17 10 3 6 10 10 14
10 12 0 9 -34 -3 -42 -6 -4 5 -7 24 -7 19 1 27 3 18 6 -10 2 -18 14 -18 26 0
16 3 18 12 9 17 -17 33 -15 18 3 -17 21 -5 51 14 36 10 -8 16 -9 21 -1 10 16
-3 29 -25 23 -22 -6 -29 22 -7 30 6 2 8 8 4 13 -5 5 -15 1 -23 -10 -16 -22
-19 -14 -5 13 8 13 6 18 -5 18 -9 0 -18 -7 -21 -14z"/>
<path d="M1530 1449 c0 -7 -8 -18 -17 -25 -11 -8 -13 -13 -6 -14 17 0 53 32
47 42 -8 12 -24 10 -24 -3z"/>
<path d="M856 444 c-7 -19 1 -34 19 -34 21 0 28 19 15 35 -16 19 -26 19 -34
-1z"/>
<path d="M924 405 c-3 -8 -3 -19 1 -25 10 -16 32 -12 40 8 5 14 4 15 -6 5 -17
-17 -29 -16 -29 1 0 8 8 17 18 19 16 4 16 5 -1 6 -10 0 -20 -6 -23 -14z"/>
<path d="M790 325 c-27 -28 -22 -46 17 -72 19 -13 24 -11 47 12 l26 26 -27 30
c-15 16 -31 29 -34 29 -3 0 -16 -11 -29 -25z m40 -11 c0 -8 8 -14 17 -14 15 0
15 -1 1 -12 -9 -7 -17 -18 -19 -25 -3 -7 -12 -3 -26 12 -15 18 -18 25 -7 25 8
0 14 9 14 21 0 11 5 17 10 14 6 -3 10 -13 10 -21z"/>
<path d="M2126 578 c-47 -55 -46 -67 4 -28 l40 31 12 -26 c8 -18 8 -29 1 -36
-16 -16 -37 -1 -23 16 24 28 -9 23 -36 -7 -27 -28 -27 -30 -5 -18 20 10 26 10
35 -2 14 -19 64 -29 70 -14 2 7 9 5 17 -5 15 -18 49 -32 49 -21 0 4 -25 30
-55 58 -30 28 -55 56 -55 63 0 7 4 9 10 6 6 -3 7 1 4 9 -10 26 -31 18 -68 -26z"/>
<path d="M2130 211 c0 -28 19 -36 36 -17 8 9 9 11 2 6 -17 -14 -28 -12 -28 4
0 8 8 17 18 19 13 4 11 5 -5 6 -17 1 -23 -5 -23 -18z"/>
<path d="M2254 205 c-4 -9 -2 -21 4 -27 15 -15 44 -1 40 19 -4 23 -36 29 -44
8z"/>
<path d="M2163 801 c-9 -15 -9 -23 2 -37 13 -17 14 -16 15 19 0 43 -1 44 -17
18z"/>
<path d="M1411 863 l-31 -37 32 -33 c31 -32 35 -33 108 -33 l75 0 -1 68 -2 67
-75 3 -75 3 -31 -38z m124 7 c4 -6 -6 -10 -22 -10 -33 0 -53 -16 -53 -41 0
-19 20 -29 56 -29 13 0 24 -4 24 -10 0 -5 -20 -10 -43 -10 -51 0 -86 27 -64
49 9 11 9 14 -1 18 -10 4 -9 9 4 24 18 21 88 27 99 9z m43 -42 c-5 -14 -61
-23 -85 -14 -27 11 -2 26 43 26 32 0 44 -4 42 -12z"/>
<path d="M1474 500 c0 -91 2 -128 3 -82 2 45 2 119 0 165 -1 45 -3 8 -3 -83z"/>
<path d="M2119 2144 c-11 -14 -10 -18 6 -30 16 -12 21 -12 32 -1 16 15 7 47
-12 47 -7 0 -19 -7 -26 -16z"/>
<path d="M624 2084 c-24 -24 -56 -45 -74 -49 l-34 -7 37 -13 c48 -16 64 -30
71 -61 8 -32 -17 -74 -43 -74 -31 0 -32 -13 -1 -26 16 -7 35 -24 42 -39 8 -19
19 -25 43 -25 24 0 35 6 43 25 7 15 27 32 45 40 28 12 30 14 12 20 -38 12 -50
22 -59 49 -13 35 18 77 67 91 l36 10 -44 18 c-25 11 -57 33 -72 50 l-28 32
-41 -41z m76 -57 c0 -9 -12 -11 -40 -9 -48 5 -43 22 6 22 21 0 34 -5 34 -13z
m-20 -80 c0 -40 -8 -51 -27 -36 -14 12 -18 51 -6 62 17 18 33 5 33 -26z"/>
<path d="M901 2074 c-12 -15 -21 -33 -21 -40 0 -26 23 -62 47 -73 34 -16 47
-14 77 10 32 25 37 86 8 112 -30 27 -87 22 -111 -9z m47 -1 c-2 -11 3 -18 12
-18 9 0 14 7 12 20 -3 17 -2 18 10 5 7 -8 20 -20 28 -28 13 -11 12 -12 -8 -7
-21 6 -22 5 -16 -34 5 -28 3 -41 -5 -41 -7 0 -11 8 -9 18 2 10 -3 17 -12 17
-8 0 -14 -8 -14 -18 1 -10 -3 -16 -10 -14 -6 3 -10 10 -8 16 1 6 -5 11 -13 11
-8 0 -15 5 -15 10 0 6 8 10 18 8 10 -2 17 3 17 12 0 8 -8 14 -17 14 -10 -1
-18 2 -18 7 0 5 7 9 16 9 8 0 13 4 10 9 -5 8 3 15 22 20 2 1 2 -7 0 -16z"/>
<path d="M2050 2081 c0 -12 -9 -23 -22 -27 l-23 -7 23 -10 c12 -6 22 -18 22
-29 0 -10 5 -18 10 -18 6 0 10 7 10 15 0 9 12 21 26 27 25 12 25 12 4 20 -12
4 -24 17 -27 28 -7 26 -23 26 -23 1z"/>
<path d="M2300 2070 c0 -37 -23 -71 -52 -77 -34 -7 -37 -23 -4 -23 28 0 56
-33 56 -67 0 -13 5 -23 10 -23 6 0 10 13 10 28 0 31 27 62 53 62 9 0 19 5 22
10 3 6 -3 10 -14 10 -30 0 -61 35 -61 70 0 17 -4 30 -10 30 -5 0 -10 -9 -10
-20z"/>
<path d="M1184 1181 l-22 -26 23 -29 22 -28 21 29 20 28 -22 26 -21 27 -21
-27z"/>
<path d="M1813 1181 l-20 -27 21 -26 21 -27 23 25 22 26 -24 28 -23 28 -20
-27z"/>
<path d="M1182 1020 c-10 -16 -10 -24 0 -40 7 -11 15 -20 18 -20 3 0 11 9 18
20 10 16 10 24 0 40 -7 11 -15 20 -18 20 -3 0 -11 -9 -18 -20z"/>
<path d="M1822 1019 c-10 -16 -10 -24 1 -40 14 -19 15 -19 30 5 15 22 15 25
-1 39 -16 15 -19 14 -30 -4z"/>
<path d="M2377 1024 c-3 -4 -1 -16 5 -28 10 -18 9 -19 -3 -9 -8 6 -20 8 -27 4
-8 -5 1 -19 29 -47 l41 -39 -7 50 c-7 49 -25 82 -38 69z"/>
<path d="M1791 895 c0 -59 3 -74 10 -57 5 13 13 20 19 17 6 -4 10 13 10 45 0
29 -4 49 -9 45 -6 -3 -14 3 -20 12 -8 13 -10 -2 -10 -62z"/>
<path d="M1182 809 c-12 -18 -11 -24 2 -37 15 -15 17 -15 32 0 13 13 14 19 2
37 -7 11 -15 21 -18 21 -3 0 -11 -10 -18 -21z"/>
<path d="M1824 812 c-9 -14 -8 -22 2 -36 12 -17 14 -17 29 -3 13 14 14 20 3
37 -16 25 -20 25 -34 2z"/>
<path d="M1791 685 c0 -68 2 -77 13 -63 7 10 16 15 19 11 4 -3 7 19 7 51 0 33
-4 55 -9 51 -6 -3 -14 3 -20 12 -8 14 -10 -2 -10 -62z"/>
<path d="M1184 596 c-8 -22 3 -49 19 -43 6 2 12 14 12 27 0 27 -22 39 -31 16z"/>
<path d="M1824 596 c-8 -22 3 -49 19 -43 6 2 12 14 12 27 0 27 -22 39 -31 16z"/>
<path d="M1790 505 c0 -36 3 -46 10 -35 5 8 10 24 10 35 0 11 -5 27 -10 35 -7
11 -10 1 -10 -35z"/>
<path d="M1197 504 c-4 -20 -18 -54 -33 -75 l-26 -38 25 -30 c14 -17 28 -36
31 -43 5 -11 7 -11 12 0 3 7 17 26 31 43 l25 30 -26 37 c-27 39 -33 58 -17 47
6 -3 6 7 1 26 -13 44 -16 45 -23 3z"/>
<path d="M1840 507 c0 -13 -14 -45 -30 -71 l-31 -48 25 -28 c13 -16 27 -35 30
-42 5 -10 7 -10 12 0 4 8 19 28 34 46 l28 31 -29 35 c-30 35 -38 57 -17 44 8
-5 9 -2 5 10 -4 10 -7 24 -7 32 0 8 -4 14 -10 14 -5 0 -10 -10 -10 -23z"/>
</g>
</svg>
