<?xml version="1.0" standalone="no"?>
<!DOCTYPE svg PUBLIC "-//W3C//DTD SVG 20010904//EN"
 "http://www.w3.org/TR/2001/REC-SVG-20010904/DTD/svg10.dtd">
<svg version="1.0" xmlns="http://www.w3.org/2000/svg"
 width="300.000000pt" height="523.000000pt" viewBox="0 0 300.000000 523.000000"
 preserveAspectRatio="xMidYMid meet">
<metadata>
Created by potrace 1.10, written by Peter Selinger 2001-2011
</metadata>
<g transform="translate(0.000000,523.000000) scale(0.100000,-0.100000)"
fill="#000000" stroke="none">
<path d="M995 5016 c-70 -22 -119 -53 -166 -103 -86 -92 -102 -147 -93 -328 5
-106 4 -141 -10 -188 -26 -89 -101 -160 -120 -112 -8 22 -53 19 -66 -4 -29
-56 44 -108 137 -98 155 16 283 132 348 314 16 43 39 93 53 111 49 67 122 91
157 52 17 -19 16 -21 -34 -66 -77 -70 -105 -130 -105 -229 0 -62 5 -92 24
-133 20 -47 22 -58 12 -86 -17 -47 -15 -54 19 -72 l31 -16 -23 -24 c-28 -30
-40 -30 -68 0 -36 39 -137 79 -180 72 -38 -6 -91 -53 -91 -81 0 -9 -25 -27
-55 -42 -69 -32 -147 -101 -181 -159 -36 -62 -52 -119 -64 -236 -9 -89 -8
-104 6 -119 14 -16 15 -27 4 -91 -16 -100 -19 -109 -38 -107 -66 6 -112 -28
-112 -83 0 -18 -9 -46 -20 -63 -11 -17 -20 -47 -20 -68 0 -40 22 -93 41 -99 8
-3 7 -13 -5 -35 -22 -44 -20 -66 9 -101 24 -29 25 -35 25 -163 0 -74 -5 -141
-10 -149 -14 -23 -60 25 -60 63 0 20 -11 40 -34 63 -40 40 -83 45 -134 14 -84
-51 -61 -182 36 -205 56 -14 146 -99 131 -126 -14 -27 -11 -72 7 -99 9 -14 46
-55 82 -92 l66 -67 -26 -10 c-94 -36 -64 -181 37 -181 38 0 85 35 85 64 0 9
12 23 27 33 l26 17 89 -93 c87 -92 88 -94 88 -143 0 -41 -5 -56 -29 -83 -64
-73 -99 -239 -66 -308 12 -25 15 -46 10 -65 -4 -15 -11 -175 -16 -357 -4 -181
-8 -343 -9 -359 0 -16 -10 -40 -21 -54 -12 -15 -19 -37 -17 -53 2 -24 -6 -33
-72 -77 -116 -75 -156 -131 -126 -177 l16 -25 244 0 c288 0 276 -5 276 107 0
38 -5 85 -11 103 -11 29 -9 35 8 49 30 24 36 50 17 79 -21 31 -10 88 52 288
60 195 74 268 74 397 0 94 3 114 19 131 10 12 23 34 28 49 l9 29 124 -132 125
-133 12 -83 c7 -46 33 -161 59 -256 46 -171 55 -246 39 -315 -6 -25 -3 -35 13
-49 19 -16 20 -20 6 -45 -20 -40 -19 -182 2 -203 13 -14 56 -16 314 -16 258 0
301 2 314 16 21 21 20 42 -4 81 -24 40 -80 77 -184 124 -72 32 -81 39 -87 68
-4 18 -16 42 -26 54 -19 21 -20 39 -22 280 -2 165 1 257 7 257 22 0 55 72 54
119 0 32 9 64 30 108 54 110 50 293 -7 377 -19 29 -23 49 -27 145 -2 61 -1
111 2 111 4 0 14 -16 24 -36 36 -76 223 -284 256 -284 60 0 215 182 298 352
158 324 230 698 232 1218 1 129 1 240 1 246 -1 19 -220 122 -306 144 -181 48
-418 34 -601 -37 -13 -5 -39 43 -68 130 -18 54 -52 335 -41 345 16 16 33 -36
54 -160 21 -126 57 -234 86 -258 16 -14 135 27 135 46 0 30 -29 83 -54 99 -19
13 -37 16 -66 11 -32 -5 -40 -3 -40 9 0 18 30 35 62 35 55 0 104 -57 122 -141
5 -22 10 -25 37 -21 31 5 31 5 25 51 -15 113 -127 257 -230 296 -28 11 -46 24
-46 34 0 9 -9 31 -20 49 -15 24 -27 32 -48 32 -48 0 -70 -23 -96 -104 -6 -17
-8 -18 -24 -2 -10 9 -24 16 -30 16 -19 0 -15 5 36 58 27 27 64 80 84 118 47
90 82 202 68 219 -11 13 -90 31 -180 40 -67 7 -186 -10 -257 -37 -58 -21 -57
-21 -43 -48 9 -17 12 -17 52 -2 48 17 246 23 311 9 43 -9 43 -4 0 -120 -18
-48 -41 -85 -77 -124 l-52 -56 -93 32 c-52 18 -112 41 -134 52 l-39 21 31 26
c39 33 60 102 31 102 -10 0 -27 -16 -38 -35 -12 -19 -32 -37 -46 -41 -36 -9
-76 3 -76 22 0 12 6 15 25 10 36 -9 90 43 80 76 -20 64 -83 80 -110 28 -9 -16
-18 -30 -21 -30 -11 0 8 114 23 145 56 111 187 160 289 107 40 -20 94 -74 94
-93 0 -5 23 -9 50 -9 l51 0 -15 29 c-24 45 -100 116 -150 140 -39 18 -46 25
-46 50 0 16 -7 37 -15 45 -9 9 -23 38 -31 65 -49 168 -249 271 -419 217z m210
-90 c56 -26 131 -101 141 -141 11 -43 -1 -38 -42 17 -54 73 -123 109 -207 109
-35 0 -77 -5 -93 -12 -38 -17 -104 -68 -104 -81 0 -5 20 7 45 27 27 23 51 35
60 31 9 -3 18 0 21 7 5 15 124 21 124 6 0 -5 7 -9 15 -9 40 0 145 -107 145
-148 0 -10 -7 -28 -16 -40 -15 -21 -18 -22 -33 -8 -10 9 -32 21 -49 27 -28 10
-40 8 -87 -15 -30 -15 -65 -40 -79 -57 -27 -32 -42 -38 -32 -13 3 8 2 13 -2
10 -9 -6 -43 -81 -69 -151 -13 -36 -39 -71 -93 -127 -58 -59 -73 -79 -61 -83
25 -10 -47 -44 -94 -45 l-39 0 44 45 c27 27 47 41 51 34 11 -18 49 46 60 103
6 31 8 106 4 183 -4 79 -2 143 4 164 23 75 98 151 176 179 55 19 155 14 210
-12z m195 -241 c0 -8 -12 -17 -27 -21 -16 -3 -36 -8 -45 -11 -27 -7 -22 26 5
37 35 14 67 12 67 -5z m-146 -354 c10 -16 -5 -41 -24 -41 -23 0 -34 16 -26 35
6 16 42 20 50 6z m-78 -45 c16 -12 17 -17 6 -28 -11 -11 -16 -10 -28 6 -26 36
-14 48 22 22z m34 -106 c0 -4 -7 -13 -15 -20 -13 -11 -15 -8 -15 13 0 19 4 25
15 21 8 -4 15 -10 15 -14z m304 -125 c25 -5 36 -13 36 -24 0 -10 -2 -20 -5
-23 -11 -10 -330 86 -340 102 -3 4 -3 15 1 23 4 12 29 7 138 -29 74 -23 150
-46 170 -49z m-233 -11 c100 -35 234 -65 264 -60 22 4 36 2 44 -8 9 -11 4 -18
-26 -37 -69 -43 -64 -43 -291 30 -77 25 -90 26 -114 4 -10 -9 -21 -14 -24 -11
-3 3 9 16 26 28 17 12 35 33 40 46 11 28 22 29 81 8z m-293 -29 c156 -73 267
-291 233 -457 -22 -106 -114 -189 -193 -174 -19 3 -58 22 -88 42 -114 74 -214
108 -299 103 -49 -4 -51 -3 -51 22 0 14 3 28 6 32 3 3 8 33 10 66 2 33 13 80
23 104 36 83 121 159 198 175 31 6 37 13 48 48 22 75 30 78 113 39z m717 -91
c2 -21 7 -55 10 -76 8 -44 6 -45 -25 -18 -21 18 -21 21 -8 42 14 20 14 25 0
45 -12 19 -12 26 -2 38 17 20 21 14 25 -31z m-367 -14 c86 -27 160 -50 165
-50 5 0 32 16 58 35 56 40 63 41 89 17 19 -18 18 -19 -52 -65 -40 -26 -82 -47
-93 -47 -11 0 -77 18 -147 39 -105 32 -131 44 -157 72 -29 33 -38 49 -25 49 3
0 76 -22 162 -50z m565 -35 c46 -35 65 -71 30 -58 -28 10 -93 67 -93 81 0 19
11 15 63 -23z m-662 -36 c11 -5 17 -14 14 -20 -10 -15 -23 -11 -35 11 -12 23
-7 25 21 9z m634 -19 c0 -7 -6 -15 -12 -17 -8 -3 -13 4 -13 17 0 13 5 20 13
18 6 -3 12 -11 12 -18z m-193 -22 c0 -13 1 -29 0 -37 0 -8 4 -25 9 -38 8 -21
6 -23 -25 -23 -67 0 -110 -91 -70 -148 15 -22 48 -30 58 -14 3 5 -4 16 -15 25
-21 19 -25 67 -7 85 21 21 66 14 84 -13 25 -39 10 -71 -72 -150 -41 -39 -74
-76 -74 -81 0 -28 19 -17 95 52 63 57 86 85 92 112 l9 37 23 -43 c12 -24 28
-45 36 -49 26 -9 16 -31 -19 -43 -18 -6 -43 -21 -55 -34 l-23 -24 5 -354 c3
-310 7 -367 26 -468 12 -63 26 -128 31 -145 58 -191 90 -277 137 -370 30 -60
64 -122 74 -137 28 -38 23 -43 -12 -13 -30 24 -33 25 -50 9 -10 -9 -21 -24
-24 -33 -8 -25 -109 -21 -162 7 -69 36 -113 28 -113 -21 0 -17 -5 -45 -12 -63
-10 -28 -9 -36 5 -52 9 -10 17 -21 17 -24 0 -4 -23 -11 -52 -17 -28 -7 -56
-16 -62 -20 -8 -7 -12 5 -13 35 -2 63 -40 172 -65 185 -11 6 -16 15 -12 19 5
5 88 10 184 12 103 2 183 8 194 14 17 10 16 12 -10 17 -16 3 -163 5 -327 4
-163 -1 -297 -1 -297 1 0 2 7 16 15 33 l16 30 292 -1 293 -2 13 -29 c13 -30
31 -39 31 -15 0 21 -40 66 -59 66 -26 0 -31 9 -20 34 18 40 -2 88 -47 112 -21
12 -42 19 -46 17 -5 -2 -8 10 -8 26 0 38 6 38 41 5 26 -24 31 -26 58 -14 40
16 43 29 18 95 -26 72 -59 92 -89 55 -14 -17 -19 -35 -16 -62 2 -21 0 -38 -4
-38 -5 0 -8 10 -9 23 0 12 -3 31 -6 42 -3 11 -9 49 -13 85 -11 92 -41 274 -46
279 -8 8 -4 -53 10 -179 8 -69 18 -159 21 -200 16 -182 20 -205 35 -205 10 0
14 9 13 28 -2 25 1 28 24 25 19 -2 28 -12 39 -43 7 -22 14 -41 14 -42 0 -2
-117 -3 -260 -3 -143 0 -260 3 -260 8 0 4 5 23 10 43 8 28 17 38 36 42 23 4
25 2 22 -27 -4 -38 28 -51 36 -14 15 69 67 460 63 465 -3 3 -9 -11 -12 -31 -9
-44 -15 -45 -37 -5 -18 30 -17 30 8 52 20 17 27 35 31 72 9 97 -1 90 117 90
87 0 108 3 123 18 10 10 27 24 37 31 11 7 17 20 14 28 -7 17 -80 58 -104 58
-24 0 -7 17 42 42 50 25 69 49 61 80 -3 11 -2 31 3 43 5 13 11 79 14 147 6
139 10 169 29 183 24 18 46 57 40 71 -8 21 -23 17 -23 -5 0 -11 -14 -28 -34
-40 -31 -19 -34 -25 -39 -88 -4 -38 -7 -114 -7 -170 l0 -103 -37 -15 c-85 -36
-78 -53 -75 187 4 218 -2 318 -19 318 -5 0 -9 -111 -9 -270 0 -148 -1 -270 -2
-270 -2 0 -28 7 -58 15 -30 8 -67 15 -82 15 -33 0 -32 -3 -12 46 12 28 15 59
12 114 -5 87 -39 161 -95 211 -24 21 -32 33 -25 44 6 12 17 7 54 -27 25 -24
51 -52 57 -63 9 -17 10 -18 11 -2 0 25 14 21 53 -13 35 -30 47 -30 47 1 0 16
-87 89 -106 89 -17 0 -104 65 -104 78 0 15 12 16 28 0 17 -17 62 9 62 37 0 12
-3 24 -6 28 -10 10 -34 -4 -34 -20 0 -19 -24 -11 -28 10 -2 9 9 23 23 33 25
16 27 16 53 -3 34 -25 40 -65 13 -92 -27 -27 -26 -31 3 -31 29 0 56 38 56 79
0 44 -51 91 -99 91 -20 0 -42 -5 -49 -12 -7 -7 -12 -9 -12 -5 0 12 -2 21 -16
67 -8 25 -14 48 -14 51 0 7 157 -41 217 -66 34 -14 35 -14 111 35 42 27 80 49
85 49 4 1 8 -9 9 -21z m261 -85 c4 -3 -1 -15 -10 -25 -23 -26 -2 -49 28 -30
25 16 37 7 23 -16 -25 -39 -94 -15 -94 33 0 33 34 58 53 38z m-203 -25 c0 -16
-3 -19 -11 -11 -6 6 -8 16 -5 22 11 17 16 13 16 -11z m-1130 -198 c0 -4 -6
-12 -13 -19 -16 -13 -37 4 -37 31 0 15 3 16 25 6 14 -6 25 -14 25 -18z m1705
19 c117 -14 182 -32 283 -81 l82 -40 0 -192 c0 -204 -20 -490 -44 -621 -50
-279 -136 -521 -242 -680 -40 -60 -144 -185 -154 -185 -4 0 -38 33 -76 73
-156 164 -266 380 -339 666 -53 207 -58 263 -59 624 l-1 338 70 30 c161 68
307 89 480 68z m-1653 -89 c17 0 19 4 14 25 -7 27 11 36 20 10 7 -18 41 -20
47 -2 2 6 7 9 11 6 15 -14 -8 -39 -40 -45 -46 -8 -43 -24 4 -24 26 0 45 7 57
20 24 26 37 25 33 -2 -2 -15 3 -24 15 -26 10 -2 17 3 17 12 0 12 5 13 23 7 15
-6 21 -16 19 -32 -1 -12 -3 -24 -5 -25 -1 -1 -27 2 -57 7 -30 4 -92 8 -138 8
l-83 1 7 48 c8 53 27 76 32 37 2 -17 10 -25 24 -25z m615 -2 c67 -72 90 -191
55 -272 -21 -47 -50 -66 -38 -23 28 92 6 157 -67 204 -23 15 -44 29 -46 30 -3
2 3 11 13 21 16 16 18 16 27 0 11 -19 34 -24 44 -9 3 6 -4 19 -16 30 -12 11
-18 24 -14 30 9 16 19 14 42 -11z m-224 -67 c50 3 62 -14 15 -22 l-33 -6 35
-15 c49 -23 88 -55 105 -88 15 -29 20 -82 9 -93 -13 -12 -34 6 -34 30 0 36
-26 73 -76 111 -49 36 -54 38 -54 18 0 -8 20 -34 44 -58 51 -49 68 -88 39 -88
-11 0 -31 22 -51 55 -35 57 -53 71 -45 33 l4 -23 -18 23 c-62 81 -71 88 -92
75 -28 -17 -48 -16 -55 2 -3 10 1 15 14 15 21 0 50 35 50 62 0 15 6 14 50 -8
35 -18 64 -25 93 -23z m-471 -33 c-15 -15 -26 -4 -18 18 5 13 9 15 18 6 9 -9
9 -15 0 -24z m621 -19 c55 -48 72 -95 56 -152 -14 -53 -34 -42 -34 20 -1 57
-18 88 -70 130 -19 15 -35 31 -35 36 0 19 42 3 83 -34z m-523 -9 c0 -5 -15
-11 -32 -11 -32 -1 -32 -2 7 -10 66 -13 77 -12 70 11 -5 17 -2 20 20 20 22 0
25 -3 20 -20 -5 -16 -2 -20 14 -20 12 0 21 7 21 15 0 9 9 15 21 15 18 0 20 -4
14 -32 -10 -46 -14 -48 -70 -37 -27 6 -78 8 -113 4 -69 -6 -80 2 -68 50 6 22
12 25 51 25 25 0 45 -4 45 -10z m318 -136 c36 -38 38 -50 17 -101 -14 -33 -14
-38 1 -54 14 -16 13 -21 -20 -63 -49 -65 -97 -169 -95 -208 1 -18 -11 -66 -25
-107 -28 -81 -32 -107 -15 -113 8 -3 6 -22 -7 -62 -15 -48 -23 -60 -51 -71
-19 -8 -38 -26 -44 -42 l-12 -28 -11 41 c-6 23 -17 48 -24 57 -11 12 -11 19
-1 35 10 16 10 25 -4 46 -12 17 -14 32 -8 48 4 13 16 62 26 110 13 64 23 89
36 93 38 12 63 113 38 153 -9 15 -6 23 19 48 52 52 62 133 25 192 -8 13 -13
24 -11 25 41 21 50 36 75 127 2 9 15 -7 31 -39 15 -29 42 -68 60 -87z m-450
36 c83 -51 98 -175 29 -249 -25 -26 -136 -85 -145 -77 -14 14 21 57 58 72 60
24 90 65 90 124 0 39 -5 54 -29 79 -28 29 -44 36 -83 32 -18 -2 -25 19 -11 32
13 13 58 7 91 -13z m200 -6 c46 -6 52 -9 52 -31 0 -23 -1 -23 -30 -8 -46 24
-89 14 -101 -24 -4 -9 -10 -5 -23 13 -34 52 -12 63 102 50z m3 -65 c30 -16 48
-66 38 -103 -5 -18 -5 -32 1 -36 5 -3 -2 -22 -17 -42 l-26 -37 -32 25 c-19 14
-43 26 -54 27 -12 1 -21 5 -21 10 0 23 33 106 41 101 5 -3 6 2 3 10 -3 9 -10
16 -15 16 -5 0 -1 9 9 19 20 22 45 26 73 10z m-227 -21 c22 -32 20 -55 -9 -83
-29 -30 -58 -32 -85 -5 -41 41 -13 110 45 110 24 0 39 -7 49 -22z m829 -33
c181 -33 177 -31 177 -62 0 -22 -3 -25 -27 -19 -16 3 -115 20 -220 38 -189 32
-193 33 -193 57 0 23 1 24 60 18 34 -4 125 -18 203 -32z m317 -3 c0 -12 -19
-27 -55 -45 -66 -32 -65 -32 -65 -7 0 11 8 23 18 26 9 3 35 14 57 24 22 10 41
19 43 19 1 1 2 -7 2 -17z m-586 -31 c3 -5 22 -12 41 -15 26 -5 35 -12 33 -24
-1 -9 3 -27 10 -39 16 -28 0 -31 -44 -8 -16 8 -36 12 -45 10 -12 -4 -18 3 -22
31 -4 21 -4 41 -1 46 7 11 21 10 28 -1z m187 -64 c45 -15 71 -20 81 -13 9 5
23 6 33 2 17 -6 17 -8 -3 -22 -12 -8 -22 -22 -22 -30 0 -12 -3 -13 -22 0 -13
7 -56 26 -95 41 -70 27 -93 45 -55 45 9 0 47 -11 83 -23z m-537 -110 c16 -22
17 -29 6 -42 -11 -13 -17 -11 -50 19 -20 18 -46 38 -56 44 -18 10 -18 11 0 31
l19 21 31 -24 c17 -12 39 -35 50 -49z m394 58 c10 -9 -11 -45 -29 -50 -25 -8
-25 -35 2 -35 31 0 59 18 53 35 -15 38 13 34 144 -22 18 -8 15 -72 -4 -80 -23
-9 -40 13 -24 32 10 12 10 18 0 30 -18 21 -43 19 -100 -10 -60 -30 -94 -32
-113 -4 -14 20 -16 20 -25 3 -12 -22 2 -54 22 -54 8 0 16 -7 20 -15 8 -23 43
-18 49 6 7 25 33 20 29 -6 -2 -9 1 -14 6 -11 5 3 19 -6 31 -21 20 -22 29 -25
73 -21 27 3 54 10 61 17 9 9 4 10 -20 5 -18 -3 -44 -4 -57 0 -27 7 -57 52 -49
74 7 19 33 14 33 -7 0 -20 35 -51 57 -51 24 0 53 39 53 71 0 24 4 30 18 27 19
-4 19 -49 1 -120 -8 -32 -14 -38 -45 -44 -61 -11 -205 2 -276 26 -38 13 -68
26 -68 29 0 22 46 119 76 161 30 41 40 49 58 44 11 -4 23 -8 24 -9z m487 -15
c3 -5 19 -7 35 -3 19 3 30 1 30 -6 0 -6 -9 -11 -20 -11 -10 0 -28 -9 -38 -20
-17 -18 -29 -20 -108 -18 l-89 3 -3 33 -3 32 95 0 c52 0 98 -4 101 -10z
m-1020 -20 c3 -5 -3 -10 -14 -10 -12 0 -21 5 -21 10 0 6 6 10 14 10 8 0 18 -4
21 -10z m-141 -61 c-4 -6 -11 -6 -20 2 -21 17 -17 31 6 19 11 -6 18 -15 14
-21z m155 4 l21 -18 -20 -115 c-28 -165 -27 -160 -56 -160 l-26 0 7 128 c4 70
8 133 11 141 3 9 -1 11 -12 7 -8 -3 -18 -6 -20 -6 -2 0 -4 -61 -4 -135 0 -128
-1 -135 -20 -135 -19 0 -20 7 -20 128 0 70 4 133 8 139 8 12 75 41 98 42 7 1
21 -7 33 -16z m128 -48 c2 -1 -3 -9 -10 -18 -11 -14 -14 -14 -30 9 l-19 25 29
-7 c15 -4 29 -8 30 -9z m-63 -14 c3 -5 -4 -59 -16 -120 -15 -78 -26 -111 -36
-111 -10 0 -12 8 -8 28 9 37 36 195 36 205 0 10 18 9 24 -2z m286 -86 c0 -8
-7 -15 -15 -15 -9 0 -12 6 -9 15 4 8 10 15 15 15 5 0 9 -7 9 -15z m30 -55 c0
-35 25 -42 33 -9 6 23 27 17 27 -7 0 -8 9 -14 20 -14 11 0 20 5 20 10 0 6 10
10 23 10 21 -1 20 -2 -11 -30 -37 -34 -44 -35 -102 -15 -38 13 -41 13 -30 0 7
-8 35 -22 62 -30 53 -16 77 -10 98 23 8 12 13 13 16 5 17 -40 47 -63 83 -63
40 0 81 23 81 46 0 18 -8 18 -26 -1 -16 -16 -61 -20 -80 -7 -11 7 -34 45 -34
56 0 3 9 6 20 6 13 0 20 -7 20 -20 0 -30 45 -30 70 -1 8 10 25 21 38 24 22 5
23 4 16 -41 -14 -94 -12 -92 -116 -92 -86 1 -265 34 -284 52 -3 4 2 34 12 68
19 64 44 81 44 30z m-724 -45 c11 -43 -34 -73 -64 -43 -27 27 -6 68 35 68 16
0 24 -7 29 -25z m51 -66 c14 -14 6 -39 -12 -39 -18 0 -28 17 -21 35 6 18 18
19 33 4z m607 -42 c-3 -9 -10 -17 -15 -17 -11 0 -12 34 -2 44 11 11 24 -9 17
-27z m431 -24 c-9 -48 -12 -51 -29 -27 -12 16 -12 21 7 40 30 30 30 29 22 -13z
m-717 -7 l3 -26 -99 0 c-80 0 -101 3 -106 15 -13 35 2 40 102 38 96 -2 97 -2
100 -27z m-263 -2 c9 -14 14 -28 11 -32 -7 -6 -56 37 -56 50 0 18 29 6 45 -18z
m595 2 c0 -21 27 -27 44 -11 18 19 36 19 36 2 0 -37 -68 -51 -102 -20 -24 21
-23 43 2 43 11 0 20 -6 20 -14z m-550 -51 c0 -22 -40 -40 -51 -24 -13 20 -11
23 14 35 26 12 37 9 37 -11z m270 -28 c0 -6 -12 -1 -49 20 -2 2 2 10 9 18 12
15 15 14 26 -7 8 -13 13 -26 14 -31z m420 35 c0 -27 51 -70 85 -73 52 -4 75 1
75 14 0 9 -11 12 -36 9 -27 -3 -41 1 -60 19 -29 27 -31 49 -4 49 13 0 20 -7
20 -19 0 -24 36 -34 55 -14 8 8 15 19 15 24 0 5 12 9 26 9 23 0 25 -3 20 -27
-3 -16 -8 -45 -12 -65 l-6 -38 -91 0 c-98 0 -220 27 -275 60 -23 14 -29 24
-25 39 6 25 4 25 45 2 18 -10 47 -22 64 -26 28 -5 35 -2 54 24 24 34 50 41 50
13z m640 -7 c5 -14 7 -31 4 -39 -3 -8 5 -25 18 -38 l23 -23 -29 -3 c-38 -5
-44 3 -52 71 -6 49 -4 57 10 57 9 0 21 -11 26 -25z m-1078 -54 c9 -8 14 -89 6
-97 -4 -3 -16 4 -27 15 -36 36 -52 25 -95 -63 -15 -31 -31 -56 -36 -56 -19 0
-21 22 -3 53 11 18 22 42 25 54 11 41 -10 34 -36 -12 -15 -25 -32 -45 -37 -45
-6 0 -8 -7 -5 -16 6 -14 4 -15 -9 -4 -9 7 -12 16 -7 19 14 10 62 114 56 120
-4 3 -16 -7 -28 -23 -32 -44 -66 -80 -66 -70 0 5 12 31 26 58 30 56 23 74 -12
32 -31 -36 -43 -26 -22 18 l16 33 124 -5 c68 -2 126 -7 130 -11z m202 -37 c32
-31 5 -76 -31 -53 -20 12 -55 -19 -262 -235 -62 -65 -92 -79 -99 -46 -1 9 69
87 165 183 172 170 194 185 227 151z m146 -27 c46 -14 104 -25 150 -26 41 -1
76 -4 77 -5 2 -2 -4 -17 -13 -35 -11 -21 -14 -45 -11 -68 5 -30 1 -42 -23 -70
-17 -19 -30 -40 -30 -48 0 -20 28 -45 53 -46 46 -2 75 -6 91 -12 16 -6 15 -10
-7 -37 -14 -16 -28 -43 -32 -60 -4 -16 -10 -30 -15 -30 -16 0 -21 19 -11 38
13 24 -12 62 -40 62 -25 0 -97 -36 -126 -63 -13 -11 -26 -17 -30 -14 -5 4 -39
38 -76 75 -77 77 -75 81 43 63 82 -13 116 -4 126 34 10 40 -15 58 -93 66 -38
4 -92 11 -122 15 -36 5 -52 4 -48 -3 8 -13 104 -32 185 -37 35 -2 66 -6 68 -9
3 -2 -1 -17 -8 -31 -10 -24 -16 -27 -42 -22 -17 3 -61 8 -98 12 -56 6 -71 11
-94 35 -19 20 -30 25 -35 17 -5 -7 -21 -1 -51 22 -23 19 -45 35 -47 37 -7 5
43 48 51 46 5 -2 8 3 8 11 0 16 41 29 63 20 8 -3 13 -13 10 -23 -7 -27 21 -43
100 -57 101 -18 157 -17 179 3 41 37 10 83 -55 83 -23 0 -74 6 -114 14 -63 12
-75 12 -94 -2 -21 -15 -21 -15 -4 12 10 14 15 35 12 47 -4 16 -2 20 11 16 9
-3 51 -17 92 -30z m308 -9 c-6 -18 -28 -21 -28 -4 0 9 7 16 16 16 9 0 14 -5
12 -12z m-674 -37 c3 -5 -17 -30 -44 -55 -28 -26 -50 -50 -50 -54 0 -4 -9 -13
-19 -19 -17 -11 -23 -9 -40 14 -26 32 -28 54 -2 24 25 -28 44 -20 83 38 40 59
60 73 72 52z m431 -29 c83 -6 90 -9 87 -27 -2 -11 -8 -24 -12 -29 -8 -8 -248
19 -258 29 -2 2 4 15 13 28 14 23 20 24 48 16 18 -6 73 -13 122 -17z m-49
-382 c509 -517 668 -690 650 -707 -4 -4 -37 23 -74 60 -37 37 -71 67 -75 67
-4 0 2 -9 14 -21 23 -23 20 -36 -6 -22 -8 5 -206 199 -439 431 -433 433 -439
440 -379 448 8 2 18 6 21 10 4 4 -1 4 -10 1 -10 -4 -18 -2 -18 2 0 9 21 21 30
18 3 -1 131 -130 286 -287z m194 82 c0 -26 -107 -77 -126 -61 -12 10 -5 18 43
45 66 38 83 41 83 16z m240 -73 c18 -73 21 -95 12 -110 -19 -30 -14 -68 14
-95 l25 -26 -23 -64 c-13 -35 -25 -63 -28 -62 -3 2 -52 54 -109 116 -91 100
-101 114 -87 125 11 8 22 43 31 102 8 50 15 93 15 98 0 4 28 7 63 7 l63 0 24
-91z m283 55 c69 -35 73 -36 99 -21 l28 16 0 -64 c0 -61 -1 -64 -28 -70 -16
-3 -41 -1 -56 5 -23 8 -27 15 -24 42 3 31 -1 35 -54 63 -37 19 -58 36 -58 48
0 24 11 22 93 -19z m-513 -64 c0 -23 -44 -55 -65 -46 -23 9 -18 29 13 48 37
22 52 22 52 -2z m450 5 c36 -19 40 -45 7 -45 -33 0 -62 23 -54 44 8 20 11 20
47 1z m454 -74 c-2 -2 -13 8 -25 23 -11 14 -27 33 -35 40 -8 8 -14 18 -14 23
0 4 18 -12 39 -37 21 -25 37 -47 35 -49z m-1184 -34 c0 -4 -4 -6 -9 -3 -5 3
-27 -1 -50 -9 -31 -11 -41 -11 -42 -2 -4 40 -4 103 -1 110 5 10 102 -82 102
-96z m293 36 c-2 -10 -11 -27 -19 -38 -11 -15 -18 -17 -31 -9 -27 17 -26 32 4
48 37 20 52 20 46 -1z m497 -3 c0 -6 16 -18 35 -27 35 -17 42 -27 26 -37 -5
-3 -25 10 -45 28 -37 36 -43 46 -26 46 6 0 10 -5 10 -10z m451 -43 c3 -5 22
-9 42 -10 27 -2 33 -5 25 -14 -17 -21 -41 -15 -76 16 -34 31 -45 53 -14 30 9
-8 20 -18 23 -22z m-476 -4 c39 -19 42 -25 20 -43 -13 -11 -20 -11 -40 0 -17
9 -44 11 -89 6 -42 -4 -67 -3 -71 4 -25 41 111 66 180 33z m-679 -113 c103
-106 107 -112 99 -149 -8 -38 -36 -62 -125 -106 -41 -20 -83 -45 -94 -54 -17
-15 -22 -12 -83 53 l-66 69 6 51 c13 114 47 178 110 206 23 11 47 20 53 20 6
0 51 -41 100 -90z m857 72 c46 -50 61 -186 31 -278 -18 -54 -43 -114 -48 -114
-2 0 -26 15 -53 33 -28 17 -71 44 -97 60 -83 48 -95 129 -29 187 18 17 39 30
45 30 6 0 20 11 32 25 22 26 85 75 96 75 4 0 14 -8 23 -18z m-200 -41 c8 -8 2
-21 -20 -43 -18 -18 -39 -49 -48 -68 l-16 -35 5 32 c7 41 -11 53 -25 16 -14
-37 -5 -97 25 -162 20 -44 25 -49 31 -32 3 11 1 29 -4 40 -18 33 -12 37 14 9
13 -15 38 -35 55 -45 17 -9 28 -23 26 -29 -5 -14 33 -51 92 -89 39 -26 54 -56
33 -69 -15 -9 -112 73 -125 106 -9 20 -16 26 -21 19 -11 -19 2 -54 36 -89 23
-25 29 -36 20 -45 -8 -8 -5 -17 10 -33 21 -22 21 -32 20 -238 -1 -139 2 -217
9 -221 5 -3 10 -14 10 -24 0 -14 -7 -16 -35 -13 -33 4 -40 -1 -90 -54 -43 -46
-57 -56 -64 -45 -6 9 -4 22 4 35 17 25 7 81 -56 341 -53 217 -47 200 -63 186
-11 -9 -15 -3 -20 36 -4 27 -9 56 -12 65 -5 15 -1 16 26 7 17 -6 56 -28 87
-49 56 -38 79 -41 98 -10 9 14 -19 72 -54 112 -17 20 -29 42 -26 50 4 9 -13
36 -41 67 l-47 52 12 52 c6 29 20 67 31 85 22 35 17 41 -12 15 -17 -15 -18
-15 -12 14 3 17 1 39 -4 50 -10 18 -7 19 65 17 42 -2 80 -7 86 -13z m-168
-128 c-4 -16 -9 -41 -12 -58 -6 -37 -6 -37 -27 -29 -22 8 -20 37 4 59 11 10
22 26 25 36 10 30 18 22 10 -8z m-321 -34 c-6 -11 -34 -12 -34 -1 0 4 -3 18
-7 32 l-6 25 26 -24 c15 -13 24 -28 21 -32z m-399 -169 c-3 -10 11 -32 39 -59
43 -42 44 -43 72 -27 16 9 48 30 71 48 47 35 58 34 40 -2 -12 -25 -114 -109
-132 -110 -16 0 -93 81 -103 110 -9 23 -11 24 -18 6 -5 -13 0 -32 14 -57 20
-34 20 -37 4 -43 -9 -3 -23 -9 -31 -12 -13 -6 -12 42 5 159 6 37 7 38 25 21
11 -10 17 -25 14 -34z m305 -40 c0 -53 -3 -67 -19 -77 -11 -7 -22 -29 -26 -55
-4 -24 -20 -92 -36 -153 -92 -344 -101 -387 -90 -412 13 -29 14 -56 2 -51 -5
2 -28 27 -51 56 -40 51 -44 54 -82 50 -39 -4 -40 -3 -34 25 3 16 6 140 6 274
l0 245 47 -52 c38 -43 50 -50 70 -45 16 4 22 2 18 -5 -4 -6 -12 -54 -20 -108
-26 -198 -27 -202 -12 -202 10 0 20 45 37 173 17 122 28 175 39 184 25 20 30
15 21 -19 -5 -18 -19 -87 -30 -153 -36 -210 -52 -275 -66 -275 -10 0 -14 13
-14 39 0 22 -4 43 -10 46 -6 4 -10 -6 -10 -24 0 -16 -3 -36 -6 -45 -4 -11 3
-20 23 -28 15 -7 31 -17 35 -23 12 -17 5 -47 90 370 19 93 38 159 49 174 23
28 19 37 -9 22 -31 -16 -34 -13 -12 9 25 25 36 68 22 90 -11 19 5 42 38 52 23
8 30 -11 30 -82z m790 -21 c0 -18 -2 -20 -15 -9 -13 11 -13 15 -3 21 18 12 18
12 18 -12z m-902 -81 c-3 -7 -13 -15 -24 -16 -10 -2 -29 -13 -41 -24 -12 -11
-27 -18 -33 -16 -7 2 10 18 36 35 54 35 68 39 62 21z m838 -32 c12 -10 16 -18
9 -25 -7 -6 -16 -1 -28 15 -20 27 -11 32 19 10z m-979 -628 c47 -49 51 -55 39
-76 l-12 -23 -24 27 c-28 29 -90 64 -115 64 -13 0 -12 5 7 30 12 17 29 30 38
30 9 0 39 -24 67 -52z m982 28 c26 -27 21 -46 -11 -46 -12 0 -40 -20 -65 -46
-25 -25 -45 -44 -47 -42 -1 1 -10 15 -19 30 l-17 27 53 50 c28 28 59 51 68 51
8 0 26 -11 38 -24z m-173 -32 c25 7 25 6 10 -16 -22 -31 -20 -44 12 -77 25
-27 29 -28 52 -15 39 21 42 17 20 -26 -17 -33 -18 -43 -8 -60 13 -20 36 -27
116 -33 96 -9 45 -17 -100 -17 -135 0 -157 2 -162 16 -8 22 0 30 16 17 17 -13
47 -8 66 10 18 19 10 59 -19 88 -29 29 -37 14 -11 -21 31 -41 29 -60 -8 -60
-32 0 -33 1 -35 130 0 19 -3 40 -6 45 -3 6 -9 18 -12 28 -6 16 -5 16 18 1 16
-10 34 -14 51 -10z m-713 -20 c-16 -25 -17 -25 -30 -8 -13 17 -11 20 14 25 15
4 29 7 31 8 1 0 -5 -11 -15 -25z m-1 -66 c5 -37 -14 -108 -29 -108 -8 0 -11
-4 -8 -10 3 -5 15 -10 27 -10 17 0 18 -2 8 -15 -9 -11 -35 -15 -101 -15 -53 0
-89 4 -89 10 0 6 8 10 19 10 10 0 30 9 45 21 28 22 34 56 15 90 -10 19 -8 20
23 14 26 -5 38 -2 52 14 24 27 34 26 38 -1z m-151 -27 c35 -34 39 -43 29 -60
-10 -19 -20 -21 -118 -21 -59 0 -117 -3 -129 -6 -13 -4 -23 -2 -22 2 0 11 169
122 186 123 7 1 31 -17 54 -38z m1168 -11 c55 -27 105 -50 110 -50 5 0 15 -7
22 -17 13 -15 10 -16 -41 -10 -30 4 -110 7 -177 7 -104 0 -123 2 -123 15 0 16
85 105 100 105 5 0 54 -22 109 -50z m201 -102 c0 -15 -8 -18 -42 -18 l-41 0
22 23 c14 16 19 30 15 43 -6 16 -3 15 19 -5 15 -14 27 -33 27 -43z m-1620 20
c22 -27 17 -38 -16 -38 -29 0 -42 24 -24 45 16 20 18 19 40 -7z"/>
<path d="M1026 4850 c-76 -24 -136 -99 -149 -190 l-6 -35 18 40 c24 53 99 121
148 134 91 24 126 22 174 -9 24 -17 47 -30 51 -30 18 0 -9 34 -49 61 -49 34
-132 47 -187 29z"/>
<path d="M866 4772 c-21 -41 -31 -102 -16 -102 7 0 10 7 6 15 -3 8 -1 15 5 15
6 0 8 4 5 8 -2 4 4 27 14 50 21 46 9 58 -14 14z"/>
<path d="M1026 4749 c-26 -17 -58 -48 -72 -68 -28 -41 -59 -134 -68 -206 l-6
-50 25 54 c14 29 25 57 25 61 0 26 82 167 107 183 7 4 18 13 25 20 7 7 22 18
33 25 20 11 20 11 -1 12 -11 0 -42 -14 -68 -31z"/>
<path d="M920 3988 c0 -7 -3 -23 -6 -34 -4 -17 0 -23 18 -27 80 -20 168 -143
168 -233 0 -141 -126 -212 -220 -124 -23 22 -30 37 -30 67 0 41 22 83 45 83
24 0 26 -19 5 -40 -27 -27 -25 -56 6 -85 36 -33 76 -32 114 3 59 53 48 149
-27 226 -35 36 -38 37 -41 18 -4 -23 -26 -30 -37 -12 -4 6 -1 17 5 25 15 18 6
45 -14 45 -12 0 -29 -52 -31 -94 0 -5 21 -15 47 -23 57 -16 88 -52 88 -103 0
-55 -47 -89 -78 -58 -23 23 -14 38 18 32 27 -6 30 -4 30 18 0 13 -10 34 -22
46 -92 85 -272 34 -294 -83 -4 -24 -12 -35 -28 -38 -11 -2 -3 -5 19 -6 91 -3
228 -57 292 -114 17 -15 30 -18 60 -12 95 17 145 84 147 195 1 123 -47 211
-161 295 -68 49 -73 51 -73 33z m-110 -289 c16 -28 -5 -77 -36 -85 -36 -9 -64
4 -64 32 0 28 8 31 25 7 7 -9 19 -14 29 -10 18 7 22 43 4 49 -15 5 -1 28 17
28 8 0 19 -9 25 -21z"/>
<path d="M818 3888 c-9 -7 -18 -24 -20 -37 -4 -32 -25 -39 -30 -10 -3 20 -7
18 -50 -25 -26 -27 -51 -61 -57 -77 l-10 -30 40 35 c23 20 62 40 90 47 28 7
51 19 53 28 21 76 17 94 -16 69z"/>
<path d="M1171 3585 c-13 -57 -62 -129 -93 -138 -22 -6 -24 -37 -3 -37 9 0 19
8 22 18 4 9 15 23 25 30 26 19 54 79 62 135 10 64 2 60 -13 -8z"/>
<path d="M1610 3742 c-25 -15 -57 -35 -70 -44 -33 -24 -45 -23 -88 9 l-37 27
27 -29 c15 -17 32 -43 38 -59 l10 -28 41 46 c23 26 59 56 80 66 20 11 40 24
44 30 8 14 7 13 -45 -18z"/>
<path d="M1661 3626 c-16 -19 -7 -46 14 -46 22 0 30 29 13 46 -13 13 -16 13
-27 0z"/>
<path d="M1468 3535 c-22 -29 -22 -39 -3 -55 25 -21 39 1 29 43 l-9 35 -17
-23z"/>
<path d="M1402 3381 c-10 -6 -4 -19 25 -54 40 -49 57 -57 67 -31 4 9 -9 29
-35 55 -22 21 -41 39 -42 39 -1 0 -8 -4 -15 -9z"/>
<path d="M1607 3350 c-39 -41 -46 -60 -23 -60 16 0 76 71 76 89 0 20 -16 11
-53 -29z"/>
<path d="M1420 3262 c0 -10 14 -31 30 -47 23 -22 33 -26 42 -17 9 9 4 20 -22
47 -38 39 -50 43 -50 17z"/>
<path d="M1601 3246 c-21 -22 -31 -41 -28 -50 9 -24 19 -19 50 23 46 66 32 83
-22 27z"/>
<path d="M1437 3193 c-11 -10 -8 -51 3 -58 24 -15 60 -15 60 -1 0 10 -9 14
-27 13 -24 -2 -28 2 -28 26 1 30 1 30 -8 20z"/>
<path d="M1621 3173 c0 -12 -9 -27 -18 -32 -17 -10 -17 -10 0 -11 20 0 31 20
24 47 -4 15 -5 14 -6 -4z"/>
<path d="M1650 2805 c-14 -16 -7 -89 11 -115 7 -11 8 5 4 53 -5 54 -4 67 7 67
8 0 15 -8 15 -17 -1 -64 4 -103 13 -103 13 0 13 86 0 111 -13 23 -33 25 -50 4z"/>
<path d="M1480 2480 c0 -233 2 -270 15 -270 13 0 15 37 15 270 0 233 -2 270
-15 270 -13 0 -15 -37 -15 -270z"/>
<path d="M1546 2693 c-4 -32 -5 -164 -2 -293 4 -186 7 -235 18 -235 10 0 13
48 14 240 1 259 -3 345 -16 345 -4 0 -11 -26 -14 -57z"/>
<path d="M1439 2733 c0 -5 -3 -17 -5 -28 -3 -11 -8 -138 -11 -282 -5 -240 -4
-263 11 -263 14 0 16 28 16 290 0 160 -2 290 -5 290 -3 0 -5 -3 -6 -7z"/>
<path d="M1714 2558 c4 -24 10 -54 13 -66 5 -20 2 -23 -13 -20 -12 2 -20 13
-22 28 -1 14 -5 41 -8 60 -5 29 -7 32 -16 16 -11 -19 -2 -84 14 -103 14 -17
43 -16 58 2 9 11 9 27 0 70 -14 66 -36 77 -26 13z"/>
<path d="M2086 3469 c-70 -10 -206 -51 -261 -79 -45 -23 -39 -21 103 26 110
37 277 63 294 46 7 -7 -14 -12 -58 -16 -91 -8 -215 -38 -286 -69 l-58 -26 2
-133 2 -133 3 127 c3 84 8 129 16 136 7 5 55 24 108 41 71 23 116 32 180 34
l84 2 3 -187 2 -187 -70 -81 c-38 -45 -70 -86 -70 -91 0 -22 23 -4 94 73 l76
81 0 224 0 223 -52 -1 c-29 -1 -79 -5 -112 -10z"/>
<path d="M2070 3272 c-92 -30 -153 -81 -191 -158 -32 -67 -34 -188 -3 -255 48
-103 157 -171 274 -172 72 0 141 24 174 62 28 31 9 47 -36 32 -48 -16 -125 2
-185 42 -124 83 -140 269 -34 389 40 46 41 73 1 60z m-76 -114 c-29 -64 -27
-197 4 -259 32 -65 75 -107 140 -137 55 -25 56 -26 29 -33 -37 -10 -111 10
-171 45 -57 33 -102 100 -112 164 -13 87 29 201 92 251 36 28 41 20 18 -31z"/>
<path d="M2601 3008 c-27 -36 -187 -227 -321 -383 -165 -191 -265 -309 -297
-349 l-31 -40 20 -40 c43 -85 134 -224 200 -307 37 -48 68 -93 68 -100 1 -17
46 34 99 111 125 179 224 480 266 809 9 69 15 136 14 150 -1 14 1 37 5 52 4
14 6 49 4 78 l-3 53 -24 -34z m-1 -173 c-6 -7 -12 -27 -12 -44 -1 -17 -5 -31
-9 -31 -5 0 -4 -11 1 -25 5 -14 6 -25 2 -25 -4 0 -8 -15 -8 -32 -1 -18 -4 -44
-7 -58 -3 -14 -8 -41 -11 -60 -5 -32 -10 -57 -21 -100 -2 -8 -4 -21 -4 -28 -1
-8 -6 -10 -13 -6 -10 5 -10 4 -1 -6 9 -10 9 -19 -3 -41 -8 -16 -12 -29 -9 -29
4 0 3 -6 -2 -12 -8 -13 -9 -18 -12 -39 0 -5 -6 -7 -12 -3 -8 4 -8 1 -1 -12 10
-21 5 -47 -8 -39 -4 3 -11 -2 -14 -11 -4 -9 -2 -13 5 -8 8 5 8 1 0 -13 -6 -11
-7 -23 -4 -27 3 -3 1 -6 -6 -6 -7 0 -9 -4 -6 -10 3 -5 1 -10 -5 -10 -6 0 -8
-4 -5 -10 3 -5 0 -10 -7 -11 -8 0 -9 -2 -2 -5 8 -3 7 -15 -4 -39 -9 -19 -19
-32 -24 -29 -4 3 -5 -2 -2 -10 3 -9 2 -16 -4 -16 -6 0 -12 6 -15 13 -3 6 -4 2
-4 -10 1 -12 6 -19 12 -16 5 4 -1 -6 -15 -22 -14 -16 -19 -25 -13 -21 7 4 5
-6 -5 -23 -9 -17 -20 -31 -24 -31 -5 0 -8 -7 -8 -15 0 -8 -5 -15 -11 -15 -5 0
-7 -5 -4 -10 3 -6 -1 -13 -9 -16 -9 -3 -16 -12 -16 -19 0 -18 -27 -38 -34 -26
-4 6 -7 88 -7 184 1 142 -2 174 -13 174 -8 0 -12 -6 -8 -15 4 -11 1 -13 -8 -7
-9 5 -11 4 -6 -4 4 -6 12 -9 17 -6 5 4 9 1 9 -4 0 -6 -6 -11 -14 -11 -8 0 -17
-4 -20 -9 -4 -5 3 -7 13 -4 16 4 19 -1 18 -39 0 -23 -5 -46 -11 -50 -8 -5 -7
-8 1 -8 12 0 10 -30 -2 -50 -3 -6 -1 -10 6 -10 8 0 8 -4 1 -13 -7 -8 -7 -18
-2 -27 12 -20 1 -33 -16 -19 -7 6 -11 16 -7 22 3 5 1 7 -4 4 -6 -4 -16 0 -23
8 -7 8 -9 15 -5 15 5 0 0 9 -10 20 -10 11 -23 17 -29 13 -6 -4 -5 0 2 9 15 18
0 34 -20 22 -7 -4 -8 -3 -4 4 4 7 2 12 -4 12 -6 0 -9 4 -5 9 3 6 -4 15 -15 21
-11 6 -18 15 -15 21 4 5 -1 12 -9 15 -9 3 -16 14 -16 25 0 10 -9 23 -20 29
-27 14 -26 18 16 65 20 22 70 81 112 130 42 50 115 135 163 190 48 55 133 154
190 220 73 84 105 114 107 102 2 -10 -2 -24 -8 -32z"/>
<path d="M2230 2301 c0 -5 -8 -12 -17 -14 -14 -4 -12 -5 5 -6 13 -1 22 5 22
14 0 8 -2 15 -5 15 -3 0 -5 -4 -5 -9z"/>
<path d="M2224 2263 c4 -7 3 -13 -2 -13 -5 0 -9 -7 -9 -15 0 -8 5 -11 10 -8 6
4 8 -1 4 -11 -4 -9 -3 -14 2 -11 11 6 8 52 -4 63 -4 4 -5 1 -1 -5z"/>
<path d="M1823 2855 c0 -22 2 -30 4 -17 2 12 2 30 0 40 -3 9 -5 -1 -4 -23z"/>
<path d="M1878 2720 c-35 -35 -35 -35 -41 -12 -5 20 -11 -68 -8 -113 4 -43 46
-203 72 -275 36 -100 40 -67 4 43 -18 56 -42 139 -52 185 l-19 82 48 54 c26
30 48 57 48 60 0 15 -24 3 -52 -24z"/>
<path d="M2210 1782 c0 -5 7 -15 15 -22 8 -7 15 -8 15 -2 0 5 -7 15 -15 22 -8
7 -15 8 -15 2z"/>
<path d="M1279 3325 c17 -34 31 -51 31 -39 0 7 -9 22 -21 35 -16 19 -18 20
-10 4z"/>
<path d="M696 3096 c3 -8 13 -17 21 -21 14 -5 14 -7 -1 -18 -14 -11 -13 -12
10 -14 19 -1 23 1 13 8 -8 5 -9 9 -3 9 5 0 15 -5 22 -12 9 -9 12 -8 12 4 0 18
-45 58 -66 58 -7 0 -11 -6 -8 -14z"/>
<path d="M457 3073 c-4 -3 -7 -15 -7 -25 0 -14 6 -19 23 -16 29 4 38 48 9 48
-10 0 -22 -3 -25 -7z"/>
<path d="M586 2759 c-3 -17 -5 -43 -5 -58 1 -14 5 -2 10 28 10 58 6 83 -5 30z"/>
<path d="M1070 2340 c8 -5 22 -10 30 -10 13 0 13 1 0 10 -8 5 -22 10 -30 10
-13 0 -13 -1 0 -10z"/>
<path d="M557 2298 c32 -32 49 -34 38 -6 -6 14 -46 38 -63 38 -4 0 8 -14 25
-32z"/>
<path d="M720 2051 c-24 -7 -24 -8 6 -12 24 -4 31 -2 27 8 -3 7 -6 13 -7 12 0
-1 -12 -4 -26 -8z"/>
<path d="M1146 1615 c4 -8 12 -15 20 -15 20 0 17 7 -6 20 -16 9 -18 8 -14 -5z"/>
<path d="M1194 1571 c11 -11 23 -21 28 -21 14 0 -1 19 -25 31 -22 12 -22 12
-3 -10z"/>
<path d="M1341 1423 c1 -5 27 -30 58 -58 l56 -49 -55 57 c-55 58 -61 63 -59
50z"/>
<path d="M1486 1266 c3 -8 14 -16 25 -19 25 -7 24 -3 -6 17 -19 13 -23 13 -19
2z"/>
<path d="M877 1603 c-4 -3 -7 -19 -7 -35 0 -22 -4 -28 -17 -26 -12 2 -19 -4
-21 -19 -2 -16 2 -23 12 -23 24 0 19 -14 -15 -39 -25 -18 -28 -25 -18 -37 10
-13 14 -12 30 2 22 19 26 5 8 -27 -8 -16 -7 -25 7 -40 26 -28 33 -23 27 20 -5
38 10 181 23 214 6 17 -15 25 -29 10z"/>
<path d="M943 1573 c-18 -41 -32 -259 -17 -251 5 2 36 16 69 31 99 46 127 85
99 138 -25 49 -104 64 -104 20 0 -14 6 -17 29 -13 64 9 60 -72 -4 -103 -57
-26 -82 0 -69 72 8 48 21 74 46 94 20 15 19 16 -6 33 l-27 17 -16 -38z"/>
<path d="M1013 1460 c6 -24 -5 -26 -23 -5 -16 19 -36 4 -27 -19 7 -19 38 -21
55 -4 15 15 16 48 1 48 -6 0 -9 -9 -6 -20z"/>
<path d="M1840 1595 c-11 -13 -9 -19 7 -38 20 -21 28 -46 40 -112 10 -61 -55
-82 -106 -34 -21 20 -26 44 -15 73 8 22 44 21 44 -1 0 -16 2 -16 15 -2 39 39
-27 76 -73 42 -68 -50 -49 -112 48 -160 36 -18 69 -31 74 -30 16 5 45 126 40
165 -7 50 -34 112 -49 112 -7 0 -18 -7 -25 -15z"/>
<path d="M1812 1452 c-10 -7 -10 -11 2 -21 19 -16 51 -10 51 9 0 17 -33 24
-53 12z"/>
<path d="M1749 1100 c-1 -8 -1 -31 0 -52 l3 -36 -34 11 c-18 7 -46 22 -61 33
-26 21 -94 41 -104 30 -3 -2 18 -16 45 -30 47 -24 51 -29 56 -68 29 -227 38
-286 46 -306 7 -17 5 -32 -10 -60 -30 -55 -25 -58 25 -15 l44 38 1 148 c0 107
-3 146 -11 141 -8 -5 -10 -45 -6 -133 3 -69 2 -135 -2 -146 -13 -29 -18 -7
-26 97 -3 48 -12 123 -19 168 -7 44 -11 82 -8 85 2 2 21 -7 41 -20 65 -45 82
-28 55 56 -18 58 -33 82 -35 59z"/>
<path d="M1602 1000 c-1 -14 6 -52 14 -85 l14 -60 -6 56 c-3 32 -9 70 -14 85
-8 28 -8 28 -8 4z"/>
<path d="M820 938 c0 -61 2 -109 4 -107 9 11 15 219 6 219 -6 0 -10 -45 -10
-112z"/>
<path d="M812 760 c0 -19 2 -27 5 -17 2 9 2 25 0 35 -3 9 -5 1 -5 -18z"/>
<path d="M920 328 c-20 -22 -26 -38 -12 -38 4 0 15 14 24 30 20 36 16 38 -12
8z"/>
<path d="M736 333 c-30 -16 -32 -20 -11 -20 8 0 15 4 15 9 0 5 5 6 10 3 6 -3
10 0 10 7 0 11 2 10 9 0 7 -11 9 -11 14 0 7 18 -13 19 -47 1z"/>
<path d="M1860 350 c0 -13 46 -43 59 -38 6 1 -5 13 -24 26 -19 12 -35 18 -35
12z"/>
<path d="M1308 4534 c-39 -21 -35 -26 7 -8 73 30 173 7 162 -37 -4 -15 0 -19
24 -19 26 0 28 2 17 19 -33 54 -149 79 -210 45z"/>
<path d="M1405 4509 c-8 -12 2 -59 13 -59 20 1 30 18 25 43 -5 27 -26 36 -38
16z"/>
<path d="M1262 4479 c-33 -52 4 -90 59 -61 l34 17 -27 3 c-16 2 -28 9 -28 15
0 7 -6 20 -13 29 -12 15 -14 15 -25 -3z"/>
<path d="M1315 4490 c-4 -7 -3 -16 3 -22 14 -14 45 -2 40 15 -6 16 -34 21 -43
7z"/>
<path d="M1456 4308 c-3 -7 -7 -33 -10 -58 -3 -25 -8 -60 -12 -77 -5 -26 -3
-33 10 -33 8 0 18 10 21 23 14 67 24 140 19 148 -8 13 -24 11 -28 -3z"/>
<path d="M1516 4308 c-6 -19 -26 -154 -26 -173 0 -9 5 -15 12 -13 11 4 46 138
47 181 1 19 -28 24 -33 5z"/>
<path d="M1575 4298 c-32 -146 -35 -221 -8 -186 9 12 43 166 43 196 0 21 -29
13 -35 -10z"/>
<path d="M1397 4303 c-3 -5 -8 -34 -11 -65 -6 -47 -5 -58 7 -58 9 0 17 14 21
38 4 20 9 49 12 65 4 20 2 27 -10 27 -8 0 -17 -3 -19 -7z"/>
<path d="M1636 4298 c-9 -31 -26 -121 -26 -136 0 -14 2 -14 14 -2 13 14 46
114 46 139 0 15 -30 14 -34 -1z"/>
</g>
</svg>
