<?xml version="1.0" standalone="no"?>
<!DOCTYPE svg PUBLIC "-//W3C//DTD SVG 20010904//EN"
 "http://www.w3.org/TR/2001/REC-SVG-20010904/DTD/svg10.dtd">
<svg version="1.0" xmlns="http://www.w3.org/2000/svg"
 width="300.000000pt" height="300.000000pt" viewBox="0 0 300.000000 300.000000"
 preserveAspectRatio="xMidYMid meet">
<metadata>
Created by potrace 1.10, written by Peter Selinger 2001-2011
</metadata>
<g transform="translate(0.000000,300.000000) scale(0.100000,-0.100000)"
fill="#000000" stroke="none">
<path d="M606 2674 c-31 -23 -63 -38 -89 -41 -23 -3 -48 -10 -54 -16 -10 -7
-13 -113 -13 -466 0 -444 -1 -457 -20 -474 -22 -19 -26 -47 -9 -64 8 -8 -4
-47 -41 -140 l-53 -129 -76 1 c-89 1 -111 -7 -111 -39 0 -35 22 -48 67 -41 30
5 34 4 21 -5 -22 -14 -23 -33 -3 -50 8 -7 15 -24 15 -38 0 -14 11 -44 25 -68
93 -159 324 -118 351 62 3 24 10 44 15 44 19 0 8 41 -13 51 -19 8 -18 9 11 4
18 -3 39 -5 46 -5 7 0 16 -12 19 -26 9 -34 44 -109 73 -157 14 -22 20 -43 16
-51 -4 -7 -54 -76 -111 -154 -98 -135 -105 -142 -130 -135 -43 13 -180 5 -211
-12 -114 -58 -160 -205 -100 -320 14 -28 39 -59 57 -70 17 -11 31 -22 32 -25
0 -3 -35 -6 -78 -8 -108 -5 -125 -7 -129 -18 -2 -5 38 -9 90 -10 50 -1 214 -9
362 -18 351 -21 534 -22 905 -2 325 17 648 23 1030 18 129 -1 249 -1 265 1 17
2 40 0 52 -5 16 -5 21 -4 17 6 -6 14 -56 26 -115 26 -34 0 -37 2 -43 37 -3 21
-6 55 -6 75 0 37 0 37 31 26 16 -6 32 -8 35 -6 5 6 -12 224 -32 393 -15 125
-14 130 4 145 18 14 72 99 72 113 0 4 -6 7 -14 7 -16 0 -31 34 -21 49 3 5 1
12 -4 15 -5 3 -12 23 -16 43 -10 57 -44 101 -100 130 -27 14 -45 28 -39 30 18
6 -2 103 -27 129 -23 25 -20 54 6 54 20 0 65 -44 65 -64 0 -8 14 -26 32 -41
27 -22 39 -26 71 -22 22 3 45 11 51 18 8 9 7 11 -7 6 -32 -12 -66 13 -77 57
-25 100 -32 115 -69 149 -50 45 -97 55 -156 32 -51 -19 -65 -34 -42 -46 24
-14 57 -73 57 -102 0 -16 -8 -30 -19 -36 -10 -6 -24 -24 -29 -41 -6 -16 -16
-30 -21 -30 -7 0 -7 -8 -1 -26 6 -14 10 -39 10 -55 0 -16 5 -29 12 -29 7 0 -5
-18 -26 -39 -33 -33 -39 -47 -42 -93 -8 -100 -10 -117 -19 -125 -4 -4 -5 2 -2
14 3 13 1 26 -4 29 -11 6 -10 384 0 384 4 0 12 -5 19 -12 9 -9 12 -4 12 22 0
102 -47 388 -60 373 -13 -13 -39 -152 -50 -262 -14 -145 -14 -144 10 -131 20
11 20 8 20 -180 0 -115 -4 -190 -10 -190 -5 0 -14 -9 -20 -20 -12 -22 3 -96
20 -102 16 -5 18 -228 3 -228 -6 0 -18 -2 -26 -5 -9 -4 -33 25 -74 92 l-60 99
-5 209 c-6 210 -17 280 -40 257 -7 -7 -16 -81 -22 -179 l-11 -167 -64 109
c-36 61 -85 141 -109 179 -24 37 -42 70 -40 72 2 2 50 11 106 20 l102 17 0 79
c0 76 -1 78 -24 78 -57 0 -56 -5 -56 215 0 125 4 206 10 210 13 8 13 155 0
155 -5 0 -10 30 -12 67 l-3 67 -45 14 c-34 10 -54 10 -82 2 l-38 -11 0 -55 c0
-47 -3 -55 -16 -50 -9 3 -33 9 -54 12 l-39 6 -3 71 -3 71 -49 12 c-41 11 -53
10 -82 -4 -32 -15 -34 -19 -34 -64 0 -26 -4 -48 -10 -48 -6 0 -10 49 -10 127
0 99 -3 124 -12 115 -7 -7 -20 -12 -30 -12 -11 0 -27 -13 -36 -30 -9 -16 -24
-31 -32 -34 -9 -2 -5 -4 7 -5 16 -1 21 -5 16 -17 -5 -14 -3 -15 16 -5 12 7 31
9 41 6 17 -6 20 -16 20 -79 l0 -72 -49 -16 c-37 -12 -51 -13 -54 -4 -3 7 -26
17 -51 23 -36 8 -50 7 -63 -3 -29 -22 -33 -17 -33 46 0 33 -4 60 -10 60 -5 0
-10 -6 -10 -14 0 -7 -13 -19 -30 -26 -16 -7 -30 -16 -30 -20 0 -5 -3 -15 -6
-24 -5 -12 1 -14 30 -9 l36 6 -1 -54 c0 -30 -3 -48 -6 -41 -2 6 -8 10 -12 7
-5 -2 -122 110 -261 250 -139 141 -260 255 -270 255 -9 0 -38 -16 -64 -36z
m96 -21 c10 -9 18 -24 18 -33 0 -9 5 -21 12 -28 14 -14 -4 -62 -25 -62 -17 0
-37 20 -37 38 0 7 -7 20 -15 28 -22 22 -19 43 8 54 13 5 16 9 7 9 -38 2 -51
-40 -23 -71 9 -10 13 -21 9 -26 -12 -11 -36 28 -36 58 0 48 45 67 82 33z
m-110 -38 c-2 -19 -8 -35 -13 -35 -12 0 -11 12 1 44 13 35 17 33 12 -9z m-41
-11 c-12 -15 -21 -32 -21 -38 0 -13 53 -56 68 -56 4 0 26 -18 47 -41 l40 -40
-62 41 c-35 23 -65 45 -68 50 -3 5 -13 6 -21 3 -12 -5 -10 -11 12 -34 15 -16
23 -29 17 -29 -15 0 -48 39 -49 59 -3 48 -4 52 -16 45 -7 -5 3 9 22 29 39 42
62 50 31 11z m815 -622 c-3 -2 -114 103 -248 235 -134 132 -269 263 -300 293
-50 45 -89 99 -88 119 0 3 145 -140 321 -318 176 -178 317 -326 315 -329z
m-741 569 c-7 -12 80 -92 90 -84 4 5 5 3 2 -3 -3 -6 21 -37 53 -69 33 -33 60
-55 60 -49 0 6 -24 33 -52 60 -29 27 -53 52 -53 56 0 3 -3 10 -7 14 -5 4 -8
12 -8 17 0 5 32 -21 72 -57 42 -40 78 -66 89 -64 10 2 31 -10 47 -25 22 -21
32 -25 37 -16 5 7 4 10 -3 5 -11 -6 -27 10 -27 29 0 6 -7 10 -15 10 -9 0 -14
8 -12 18 3 16 -7 21 -33 18 -6 0 -37 26 -70 59 -33 33 -54 60 -47 60 8 0 10 5
6 13 -11 18 142 -127 389 -366 154 -148 219 -206 231 -201 11 4 13 11 7 22 -5
9 -5 22 2 33 16 25 1 49 -30 49 l-28 1 34 14 c18 8 37 15 42 15 13 0 2 -189
-12 -206 -16 -19 -33 -18 -54 6 -19 22 -7 28 14 8 10 -11 11 -10 6 2 -3 8 -47
49 -96 90 -50 41 -136 122 -192 180 -55 58 -95 97 -88 88 8 -10 11 -18 9 -18
-8 0 188 -195 261 -259 39 -35 69 -66 66 -69 -3 -3 -25 14 -50 38 -25 24 -47
41 -51 38 -3 -4 -84 71 -180 165 -136 135 -178 171 -193 166 -14 -6 -46 20
-140 108 -86 81 -118 118 -109 124 13 8 41 -8 33 -20z m-100 -253 c10 -29 30
-78 45 -108 23 -45 36 -103 69 -306 46 -285 47 -295 25 -360 -16 -48 -20 -128
-9 -164 6 -18 2 -20 -37 -20 l-43 0 -48 132 c-34 93 -45 134 -38 141 16 16 13
53 -4 67 -13 11 -15 70 -14 429 l1 416 18 -87 c10 -48 26 -111 35 -140z m325
107 c7 -9 11 -17 8 -20 -2 -2 -35 28 -74 67 l-69 72 61 -52 c34 -28 67 -58 74
-67z m628 70 c4 -15 -12 -34 -29 -35 -13 0 -5 30 10 35 13 5 14 7 1 16 -13 9
-13 10 0 6 8 -2 17 -12 18 -22z m-914 -27 c21 9 36 -3 184 -150 88 -88 158
-166 156 -172 -8 -22 -88 -66 -119 -66 -41 1 -104 31 -139 68 -21 22 -32 48
-40 93 -6 35 -17 64 -25 67 -10 3 -12 -3 -7 -29 12 -60 -10 -9 -38 88 -31 109
-32 120 -11 103 12 -10 22 -10 39 -2z m1099 -75 c4 -2 7 -163 7 -357 l0 -353
-30 5 c-16 2 -30 8 -30 14 0 5 6 8 13 7 27 -3 37 2 37 19 0 14 -2 15 -10 2 -8
-13 -10 -13 -10 2 0 9 -5 20 -12 24 -6 4 -8 3 -4 -4 3 -6 2 -13 -2 -16 -5 -3
-9 7 -10 22 0 15 -1 151 -3 302 l-4 275 -5 -325 -5 -325 -3 363 -2 364 33 -7
c17 -4 35 -9 40 -12z m280 -60 c4 -2 6 -160 5 -351 l-2 -347 -6 250 c-6 279
-21 294 -25 25 l-1 -155 6 145 6 145 1 -197 c1 -188 0 -198 -18 -198 -10 0
-19 4 -19 10 0 5 6 7 14 4 10 -4 14 2 12 20 0 17 -6 24 -13 21 -10 -3 -13 46
-13 225 0 147 4 230 10 230 6 0 10 -8 10 -17 1 -10 7 -3 15 16 8 18 14 52 13
75 l-1 41 -6 -40 c-4 -28 -11 -40 -23 -41 -15 -2 -18 7 -20 45 -2 25 -5 -98
-8 -274 l-5 -320 -3 353 -2 354 33 -7 c17 -4 35 -9 40 -12z m-907 -160 c91
-87 168 -158 172 -158 14 0 92 -67 104 -88 11 -21 11 -21 -18 -3 -46 29 -74
58 -67 69 4 6 1 7 -7 2 -9 -6 -11 -4 -5 6 5 8 5 11 0 7 -4 -4 -15 -3 -24 3 -9
7 15 -19 52 -55 38 -37 66 -70 62 -74 -3 -3 -108 96 -233 221 -125 125 -221
227 -214 227 8 0 88 -71 178 -157z m322 102 c12 -4 20 -11 16 -16 -3 -5 -14
-7 -25 -4 -10 4 -19 2 -19 -3 0 -6 -7 -12 -15 -16 -11 -4 -15 2 -15 25 0 24 4
29 18 25 9 -2 27 -7 40 -11z m198 4 c5 -8 -1 -10 -18 -6 -32 8 -40 0 -27 -26
8 -15 8 -22 -2 -28 -8 -5 -10 -9 -5 -9 5 0 3 -6 -3 -14 -9 -10 -7 -17 6 -27
16 -13 17 -12 4 4 -9 11 -10 17 -2 17 6 0 11 6 11 14 0 8 6 17 13 20 10 5 10
7 0 12 -7 3 -13 13 -12 22 0 10 3 12 5 5 3 -7 12 -9 20 -6 18 7 18 -7 -1 -34
-14 -20 -14 -23 2 -32 17 -10 17 -10 -2 -11 -20 -1 -20 -1 -1 -15 27 -20 13
-30 -26 -19 -31 9 -33 12 -36 63 -2 30 2 59 9 67 14 17 55 19 65 3z m-123 -25
c-7 -3 -10 -11 -7 -18 6 -15 -132 -57 -167 -50 -21 4 -22 3 -4 -5 14 -7 15
-10 5 -10 -8 0 -22 3 -30 9 -13 8 -13 10 0 14 70 27 256 81 203 60z m349 -24
c32 -6 61 -16 64 -22 4 -6 -1 -8 -12 -5 -70 21 -108 27 -124 22 -14 -5 -20 -2
-20 10 0 11 6 15 18 11 9 -2 43 -10 74 -16z m7 -24 c77 -21 74 -26 -13 -22
-81 4 -100 11 -76 26 20 13 25 12 89 -4z m-359 -5 c0 -10 -162 -60 -174 -53
-6 3 26 18 70 33 86 30 104 33 104 20z m10 -26 c0 -7 -162 -56 -168 -51 -6 6
6 11 85 36 60 19 83 23 83 15z m343 -6 c-13 -4 -6 -8 25 -13 45 -8 53 -19 25
-35 -17 -10 -17 -10 1 -11 11 0 17 -3 13 -6 -5 -5 -93 9 -141 23 -15 4 -16 7
-5 14 8 5 21 9 29 9 13 0 13 -1 0 -11 -11 -7 -4 -8 25 -4 30 5 36 4 25 -4 -13
-10 -13 -11 0 -10 8 0 24 4 35 8 15 6 2 11 -52 21 -40 7 -73 16 -73 19 0 4 25
7 56 7 30 0 47 -3 37 -7z m-323 -114 c2 54 5 73 7 48 2 -24 8 -43 13 -43 5 0
6 16 3 35 -4 23 -2 35 6 35 7 0 12 -35 13 -107 l2 -108 6 110 c5 89 6 66 8
-118 1 -158 -1 -226 -9 -222 -5 4 -8 19 -5 33 3 15 1 45 -3 67 -8 38 -9 36
-11 -30 l-3 -70 -7 50 -6 50 -5 -45 c-5 -41 -6 -38 -9 25 l-4 70 -6 -75 c-4
-44 -6 21 -6 160 0 156 2 203 6 140 l6 -95 4 90z m-420 -222 l0 -202 -34 -6
-34 -7 2 -61 c1 -65 7 -77 42 -77 15 0 23 -8 27 -27 4 -21 -16 -56 -105 -187
-61 -89 -117 -167 -124 -175 -11 -13 -20 0 -60 84 l-47 99 21 14 c41 27 20 88
-25 76 -19 -5 -22 -1 -29 52 -5 43 -3 69 10 103 9 25 16 74 16 107 0 52 -61
456 -74 491 -3 6 15 -2 39 -19 77 -54 181 -49 240 12 l29 30 53 -52 53 -52 0
-203z m754 176 c-1 -94 -13 -145 -29 -120 -3 6 -1 11 5 11 6 0 -9 26 -34 58
-39 50 -46 65 -46 104 l0 45 53 -12 52 -12 -1 -74z m-634 -34 c40 -42 70 -79
66 -82 -3 -4 -34 -19 -69 -34 -60 -27 -62 -29 -65 -67 -2 -32 2 -45 22 -65 14
-14 27 -22 30 -19 3 3 6 -10 5 -29 0 -19 -3 -28 -6 -20 -5 11 -7 11 -14 0 -7
-11 -9 -9 -10 6 0 20 0 20 -9 0 -7 -16 -9 -10 -11 25 l-2 45 -7 -50 -7 -50 -4
65 c-5 105 -4 350 2 350 3 0 38 -34 79 -75z m565 -28 c16 -23 29 -46 27 -51
-1 -4 3 -14 9 -22 22 -26 -7 -14 -35 15 -25 26 -53 101 -37 101 3 0 19 -19 36
-43z m-308 -24 c-3 -10 -5 -2 -5 17 0 19 2 27 5 18 2 -10 2 -26 0 -35z m323
-76 c0 -4 -4 -5 -10 -2 -5 3 -10 1 -10 -5 0 -6 -4 -8 -10 -5 -5 3 -10 1 -10
-6 0 -22 -11 -2 -14 25 -2 14 1 26 6 26 5 0 4 10 -2 23 -7 14 0 10 20 -13 16
-19 30 -38 30 -43z m95 -13 c0 -94 0 -94 -43 -73 -20 11 -44 19 -54 19 -9 0
-20 5 -23 10 -7 12 95 118 110 115 6 -1 10 -33 10 -71z m-427 34 l-3 -33 -109
-27 c-127 -31 -198 -43 -176 -30 8 6 75 23 148 38 109 24 132 32 132 46 0 10
-7 18 -16 18 -14 0 -15 -2 -3 -17 12 -15 12 -16 -6 -11 -11 3 -29 9 -40 13
-19 7 -19 7 -2 -7 17 -13 12 -16 -62 -32 -65 -13 -85 -15 -103 -5 -21 11 -22
11 -9 -4 16 -21 11 -21 -23 -3 -25 13 -20 15 116 49 79 19 147 35 151 36 5 0
7 -14 5 -31z m922 -193 c5 -91 12 -140 21 -152 11 -13 11 -15 1 -9 -7 4 -17
18 -22 30 -7 16 -9 17 -9 4 -1 -10 -10 -22 -21 -28 -19 -10 -19 -7 -16 77 3
92 24 228 34 219 3 -3 8 -67 12 -141z m-913 58 c-2 -16 -4 -3 -4 27 0 30 2 43
4 28 2 -16 2 -40 0 -55z m-17 17 c0 -52 -19 -71 -21 -22 l-2 27 -4 -26 c-4
-28 -16 -32 -150 -46 -50 -5 -52 -4 -68 27 -9 18 -13 36 -8 40 4 4 42 13 83
20 41 7 84 16 95 21 11 4 32 8 48 8 26 1 27 -1 27 -49z m363 -11 c32 -9 37
-14 37 -39 0 -42 -25 -39 -66 8 -29 31 -33 34 -31 15 2 -12 7 -26 12 -30 4 -5
5 -2 1 5 -9 16 -1 16 12 -1 8 -10 6 -13 -9 -14 -25 -2 -47 46 -27 59 17 10 26
10 71 -3z m-1283 -54 c17 -21 3 -55 -23 -54 l-22 0 23 9 c28 12 29 40 1 40
-11 0 -17 5 -14 10 9 14 21 12 35 -5z m920 -50 c0 -50 -2 -55 -22 -55 -23 1
-23 1 -3 16 20 16 20 16 0 12 -11 -2 -23 -12 -27 -23 -3 -11 -6 4 -7 37 -1 54
0 57 27 61 15 2 28 5 30 6 1 0 2 -24 2 -54z m83 39 c54 -9 41 -29 -19 -28 -34
1 -43 -1 -29 -6 11 -5 30 -9 43 -9 12 -1 22 -6 22 -12 0 -8 -14 -10 -42 -6
l-43 5 38 -12 c39 -12 40 -25 3 -27 -21 0 -21 -1 -1 -9 17 -7 15 -9 -11 -9
l-31 -1 -2 66 c-2 59 0 65 16 60 10 -3 35 -8 56 -12z m1032 -18 c4 -19 4 -44
0 -56 -7 -21 -9 -20 -30 16 -25 42 -29 53 -18 55 4 1 16 -14 26 -32 16 -29 18
-30 14 -9 -2 14 -8 33 -12 43 -4 10 -3 17 3 17 6 0 14 -15 17 -34z m30 14 c-3
-11 -3 -30 0 -41 7 -21 8 -20 27 10 20 31 29 37 42 24 3 -4 -6 -18 -21 -31
-24 -20 -24 -21 -3 -8 13 9 30 16 37 16 23 0 14 -18 -14 -29 l-28 -11 32 4
c20 4 36 0 44 -10 11 -13 9 -14 -14 -10 -15 3 -38 8 -52 11 -14 3 -26 4 -28 3
-2 -2 -11 3 -19 10 -21 17 -29 82 -10 82 9 0 11 -7 7 -20z m-951 -12 l-19 -21
27 18 c45 28 72 14 125 -68 25 -39 108 -173 183 -297 75 -124 160 -263 189
-310 29 -47 55 -88 58 -92 2 -5 0 -8 -6 -8 -13 0 -70 89 -254 395 -236 393
-234 390 -284 365 -15 -7 -31 -13 -34 -12 -3 0 -6 -5 -6 -12 0 -7 -42 -80 -95
-162 -107 -169 -125 -200 -109 -190 19 12 12 -2 -24 -53 -19 -26 -35 -51 -35
-53 0 -3 11 -18 25 -34 14 -16 25 -38 25 -50 0 -11 -20 -52 -43 -90 -24 -38
-70 -111 -101 -161 -56 -91 -69 -103 -81 -83 -3 5 -13 6 -22 3 -19 -8 -28 -23
92 167 51 80 97 155 104 168 22 41 3 23 -30 -30 -44 -72 -175 -269 -194 -292
-8 -11 -17 -17 -20 -14 -3 3 25 52 63 109 118 181 185 290 179 295 -2 3 -39
-50 -80 -118 -89 -144 -137 -216 -137 -206 0 7 210 355 242 400 10 15 18 33
16 40 -1 7 14 38 33 68 20 30 68 111 109 180 99 171 99 170 112 170 6 0 3 -10
-8 -22z m986 15 c0 -5 -7 -17 -15 -27 -15 -20 -20 -10 -9 18 6 16 24 22 24 9z
m-1252 -28 c2 -29 -6 -32 -22 -9 -10 13 -19 14 -57 5 -40 -10 -41 -10 -6 -6
25 2 37 0 37 -9 0 -15 -177 -50 -203 -41 -10 4 -17 2 -17 -4 0 -6 -7 -11 -15
-11 -8 0 -15 7 -15 16 0 11 -6 15 -20 11 -11 -3 -20 -2 -20 2 0 6 277 67 320
70 10 1 16 -9 18 -24z m487 5 c84 -11 178 -28 208 -36 14 -4 17 -15 15 -57
l-2 -52 -3 47 c-2 26 -10 48 -17 51 -8 3 -78 15 -157 27 -79 13 -148 27 -154
32 -7 7 -3 8 10 5 11 -3 56 -11 100 -17z m-487 -54 c-4 -4 -311 -56 -326 -56
-24 0 -11 15 16 17 75 7 294 51 284 57 -7 4 -12 11 -12 17 0 5 9 0 21 -12 11
-11 19 -22 17 -23z m389 -57 c35 -51 109 -170 165 -264 105 -175 243 -397 293
-473 15 -23 25 -45 22 -48 -3 -4 -16 9 -28 27 -11 19 -19 26 -15 17 3 -10 4
-18 3 -18 -2 0 -27 38 -57 84 -30 47 -61 87 -69 91 -10 4 -11 2 -4 -7 26 -35
104 -160 101 -163 -8 -8 -37 24 -57 63 -20 39 -41 49 -41 19 0 -7 4 -6 10 3 5
8 10 11 10 5 0 -5 -4 -16 -8 -23 -6 -9 -12 -5 -21 15 -29 64 -388 652 -433
710 -12 15 36 67 55 61 7 -2 40 -47 74 -99z m162 78 c82 -13 136 -27 139 -34
2 -7 -3 -13 -12 -13 -9 0 -16 5 -16 10 0 6 -4 10 -10 10 -5 0 -10 -9 -10 -21
0 -16 -4 -19 -20 -14 -11 3 -20 2 -20 -3 0 -5 20 -13 45 -16 25 -4 45 -12 45
-17 0 -6 -12 -8 -27 -5 -16 3 -64 10 -108 16 -105 14 -125 19 -125 29 0 5 19
7 43 5 l42 -3 -44 9 c-52 11 -72 26 -22 16 18 -3 42 -6 52 -6 11 0 19 -6 19
-14 0 -8 9 -18 20 -21 35 -11 68 33 38 51 -6 4 -8 3 -5 -2 3 -5 -3 -10 -13
-10 -14 0 -16 3 -8 13 13 16 4 17 -22 3 -12 -6 -43 -7 -77 -3 -32 4 -49 9 -38
11 16 4 15 6 -10 17 -43 19 -14 18 144 -8z m-1343 -239 c4 -15 -1 -18 -30 -18
-20 0 -36 3 -37 8 0 4 -2 57 -4 117 l-3 110 34 -100 c19 -54 36 -107 40 -117z
m2123 186 c15 -11 21 -23 17 -37 -3 -11 0 -29 6 -40 18 -35 -9 -9 -32 30 -22
37 -22 38 -1 19 12 -11 21 -14 21 -7 0 6 -15 20 -32 31 -18 11 -26 20 -18 20
9 0 26 -7 39 -16z m-1254 -20 c13 -9 29 -13 35 -9 5 3 10 -1 10 -10 0 -18 -34
-51 -100 -99 -51 -36 -139 -159 -140 -196 0 -20 -2 -22 -10 -10 -9 13 -10 13
-10 -1 0 -8 -9 -25 -20 -37 -11 -12 -20 -30 -20 -42 0 -11 -4 -20 -10 -20 -5
0 -10 9 -10 20 0 11 -6 20 -12 20 -20 0 -38 50 -38 105 0 29 -6 60 -15 73 -14
19 -14 24 0 51 19 38 19 71 -1 100 -22 31 -10 39 63 44 34 2 68 8 75 14 32 27
161 25 203 -3z m163 -7 c-10 -21 -10 -21 7 -7 17 14 18 14 6 -7 -6 -13 -16
-22 -20 -20 -12 3 -74 -83 -66 -91 18 -18 39 -6 63 35 45 74 48 78 54 61 5
-12 -105 -210 -220 -398 -6 -8 -13 -11 -18 -7 -5 4 -3 16 4 27 7 12 8 21 2 25
-6 3 -10 0 -10 -7 0 -7 -7 -2 -16 10 -15 22 -14 26 34 91 28 38 55 78 61 89
11 20 26 23 48 9 6 -4 15 -3 18 3 4 6 1 9 -6 8 -6 -2 -13 2 -16 9 -3 8 3 11
18 8 12 -2 19 -1 15 2 -13 13 -37 11 -43 -3 -3 -8 -9 -11 -14 -9 -5 3 -25 -17
-45 -45 -36 -50 -59 -70 -32 -27 8 12 50 79 93 149 43 70 82 125 87 122 4 -3
3 -15 -4 -27z m-1148 -68 c-5 -41 -10 -82 -10 -91 0 -13 -8 -18 -28 -18 l-29
0 35 95 c20 52 37 93 39 92 1 -2 -1 -37 -7 -78z m1505 44 c61 -9 101 -19 91
-21 -26 -5 -207 18 -226 29 -23 13 10 11 135 -8z m620 -40 c9 -21 14 -49 12
-63 -3 -20 -5 -18 -11 15 l-8 40 -46 -4 -47 -3 24 26 c35 37 58 33 76 -11z
m-998 -28 c-32 -49 -49 -39 -19 11 16 26 29 39 33 32 4 -6 -2 -25 -14 -43z
m-148 -57 c-24 -40 -54 -85 -67 -100 -13 -15 -57 -81 -99 -145 -98 -154 -173
-254 -184 -247 -5 3 -6 -1 -4 -8 3 -8 -2 -22 -11 -33 -14 -18 -15 -18 -10 -2
4 12 2 16 -6 11 -7 -4 -8 -3 -4 5 4 6 12 8 18 5 6 -4 9 -1 6 7 -3 8 7 32 22
54 14 22 59 95 99 163 39 67 76 120 81 117 5 -3 12 0 16 6 4 8 3 9 -4 5 -18
-11 -15 3 9 40 11 19 26 31 31 28 7 -4 8 -2 4 4 -9 14 12 55 24 47 5 -3 12 0
16 6 4 8 3 9 -4 5 -18 -11 -14 5 8 39 21 32 27 27 9 -7 -9 -16 -8 -19 2 -13 9
6 11 3 6 -8 -9 -24 0 -21 14 4 8 15 8 19 0 15 -17 -11 -13 6 9 39 21 32 27 27
9 -8 -7 -15 -2 -12 15 8 14 17 25 34 26 39 0 5 3 6 6 3 4 -3 -13 -39 -37 -79z
m258 30 c11 -13 27 -36 35 -53 19 -37 97 -168 154 -256 23 -36 51 -84 63 -107
l21 -42 -26 11 c-23 8 -31 6 -51 -13 -14 -13 -35 -46 -48 -74 -13 -28 -31 -54
-39 -57 -22 -9 -21 -7 24 81 50 97 58 138 35 182 -17 32 -18 33 -31 15 -8 -10
-11 -28 -8 -38 4 -13 2 -17 -5 -13 -7 5 -8 1 -4 -10 4 -11 8 -13 11 -6 2 7 8
10 13 7 5 -4 6 0 3 8 -3 8 0 18 7 23 7 4 10 3 5 -4 -3 -5 -2 -12 3 -14 13 -4
-103 -233 -118 -233 -6 0 -16 -7 -21 -15 -13 -20 -13 -4 1 23 10 21 9 21 -5 3
-8 -10 -17 -24 -19 -30 -2 -6 -7 -8 -11 -5 -5 5 115 280 141 322 12 19 -12 3
-41 -29 l-33 -36 -41 58 c-36 51 -42 66 -42 110 0 27 -6 58 -13 67 -10 15 -12
-28 -11 -233 0 -138 -3 -253 -8 -256 -4 -3 -8 112 -8 255 0 227 -2 260 -15
255 -8 -4 -15 -1 -15 6 0 17 59 120 69 120 4 0 17 -10 28 -22z m867 -8 c-1
-36 0 -35 -47 -55 l-37 -15 0 44 c0 38 3 45 23 49 56 11 62 8 61 -23z m-2087
-42 c-3 -34 -1 -70 4 -80 7 -12 6 -18 -1 -18 -19 0 -33 45 -21 68 6 11 11 37
11 56 0 20 3 36 6 36 4 0 4 -28 1 -62z m-137 -35 c0 14 9 17 54 17 49 0 54 -2
49 -20 -4 -17 -14 -20 -54 -20 -62 0 -104 17 -87 37 10 12 14 11 24 -9 11 -18
13 -19 14 -5z m2027 -155 c-2 -35 -3 -7 -3 62 0 69 1 97 3 63 2 -35 2 -91 0
-125z m-2087 152 c0 -15 -7 -20 -26 -20 -19 0 -25 4 -21 14 4 9 -1 17 -11 19
-9 3 0 5 21 6 31 1 37 -2 37 -19z m444 5 c-5 -12 -26 -15 -106 -15 -57 0 -97
-4 -94 -9 4 -5 -5 -4 -19 2 -13 7 -20 14 -15 15 6 2 8 8 4 13 -3 5 45 9 115 9
103 0 120 -2 115 -15z m1823 -10 c-15 -14 -33 -25 -39 -25 -14 0 -6 8 29 31
39 25 43 22 10 -6z m-1510 -111 c-82 -128 -82 -129 -69 -120 6 3 34 45 62 91
53 88 78 116 65 74 -10 -31 -87 -150 -108 -168 -9 -7 -17 -19 -17 -25 0 -14
37 30 91 107 22 31 42 57 45 57 3 0 -11 -29 -31 -65 -20 -36 -33 -65 -29 -65
4 0 0 -6 -11 -13 -12 -9 -14 -16 -7 -21 6 -3 16 3 22 14 6 11 7 20 3 20 -4 0
2 7 13 16 10 8 12 13 4 9 -8 -4 -6 1 5 10 11 9 21 20 21 25 1 6 2 14 3 18 0 5
8 9 16 9 8 0 11 -5 8 -11 -11 -17 -104 -161 -107 -163 -1 -1 -2 6 -2 17 0 10
5 16 10 13 5 -3 7 -2 3 3 -6 11 -58 11 -75 0 -13 -8 -16 5 -4 20 4 5 -1 1 -11
-10 -28 -30 -32 -10 -5 26 13 18 55 85 94 147 38 63 70 108 72 99 2 -8 -26
-60 -61 -114z m1116 38 c6 -73 4 -83 -9 -78 -8 3 -12 2 -9 -4 3 -6 2 -10 -2
-10 -5 0 -10 16 -10 37 -1 26 2 32 8 22 8 -11 10 -10 8 6 -2 34 1 119 5 114 2
-2 6 -42 9 -87z m492 79 c-3 -5 5 -12 17 -14 13 -2 7 -3 -13 -2 -25 2 -53 -6
-87 -25 -50 -27 -51 -27 -68 -8 -17 17 -17 18 -1 12 10 -3 29 1 43 11 14 9 28
14 31 12 2 -3 19 1 36 8 38 17 50 18 42 6z m-1025 -282 c0 -184 -3 -248 -11
-243 -8 5 -10 31 -6 80 3 40 1 146 -3 235 -5 89 -7 166 -4 171 19 31 24 -16
24 -243z m1010 217 c-16 -43 -12 -78 14 -126 23 -43 23 -46 8 -73 -23 -39 -56
-33 -59 10 -2 24 3 35 17 43 16 9 18 15 10 30 -14 26 -13 123 2 138 17 17 20
9 8 -22z m-2172 -10 c37 -3 96 -7 132 -8 64 -2 64 -2 -20 -7 -47 -3 -86 -4
-87 -1 -2 3 -51 5 -110 4 -60 -1 -82 1 -50 3 31 2 57 9 57 14 0 6 -9 8 -20 4
-11 -3 -20 -2 -20 4 0 14 44 18 48 5 2 -6 33 -14 70 -18z m2252 19 l25 -14
-25 -1 c-14 0 -36 -7 -48 -16 -24 -17 -29 -6 -12 27 13 22 26 23 60 4z m-1120
-210 c5 -191 2 -267 -10 -260 -6 4 -10 74 -11 173 -1 92 -5 181 -10 197 -4 17
-6 -57 -3 -167 3 -128 1 -199 -6 -203 -7 -4 -11 46 -12 147 l-2 153 -3 -152
c-2 -91 -7 -153 -13 -153 -6 0 -10 82 -9 218 1 122 5 204 9 187 7 -29 8 -29 9
10 1 30 4 36 11 25 8 -12 10 -10 11 10 1 20 3 18 9 -10 l7 -35 3 40 2 40 8
-45 c4 -25 9 -103 10 -175z m1010 188 c0 -16 -9 -41 -20 -58 -24 -36 -27 -57
-4 -29 15 18 15 18 10 -6 -4 -14 -9 -44 -13 -68 -8 -55 -23 -64 -24 -15 l-1
38 -13 -40 -13 -40 -2 35 -2 35 -7 -30 c-4 -21 -12 -30 -26 -30 -16 0 -21 8
-24 40 l-5 40 -6 -45 c-7 -45 -7 -45 -8 15 -2 72 7 113 19 93 6 -8 9 2 9 30 0
42 13 56 24 26 5 -13 12 -12 48 10 54 32 58 32 58 -1z m-1241 -20 c-12 -21
-35 -56 -49 -78 -15 -22 -77 -124 -139 -227 -62 -104 -117 -188 -122 -188 -6
0 -1 16 11 36 12 19 20 37 17 40 -2 3 -15 -11 -27 -30 -23 -39 -38 -49 -20
-15 15 28 23 72 12 65 -5 -3 -15 -19 -22 -36 -12 -29 -48 -45 -37 -16 3 8 -1
20 -9 26 -8 7 -14 20 -14 29 1 10 6 6 16 -12 15 -29 34 -32 42 -7 3 7 0 10 -6
6 -12 -7 -32 23 -32 50 0 16 1 16 20 -1 11 -10 20 -25 20 -34 0 -11 3 -12 12
-3 9 9 -5 30 -63 90 -108 114 -111 119 -92 148 8 13 19 21 24 18 5 -3 9 -2 8
3 -4 21 5 35 58 89 60 62 55 48 -24 -64 -24 -34 -48 -60 -53 -57 -5 3 -11 1
-15 -5 -3 -5 -1 -10 4 -10 14 0 166 -159 167 -174 0 -6 4 -22 8 -35 8 -23 9
-22 37 22 15 25 34 49 40 53 7 4 3 -7 -10 -25 -13 -18 -21 -35 -18 -38 7 -6
42 58 39 70 -1 5 10 25 26 45 15 20 67 97 115 170 48 72 89 132 93 132 3 0 -5
-17 -17 -37z m1365 -4 c-3 -5 -11 -9 -18 -9 -8 0 -19 -7 -26 -15 -13 -16 -40
-21 -40 -7 0 13 62 50 76 45 8 -3 11 -9 8 -14z m-2110 -5 c39 -15 10 -25 -64
-22 -44 2 -80 0 -80 -5 0 -29 63 -117 85 -117 15 0 48 37 68 75 9 17 16 26 17
21 0 -5 -11 -29 -25 -53 -32 -54 -66 -65 -100 -33 -36 34 -85 143 -57 127 4
-3 16 -1 27 4 24 9 107 11 129 3z m-214 -16 l-25 -11 35 -7 35 -7 -38 -2 c-49
-1 -39 -21 11 -21 39 0 34 -15 -8 -23 -23 -4 -23 -4 4 -6 27 -1 66 -33 66 -53
0 -16 -33 -21 -44 -7 -6 8 -22 16 -35 17 -13 2 -33 8 -45 12 -17 7 -18 9 -4 9
17 1 17 2 1 21 -10 11 -24 20 -33 20 -9 0 -11 3 -5 8 6 4 10 16 9 27 -1 30 2
32 53 33 43 1 45 0 23 -10z m2334 -4 c12 -5 6 -11 -24 -26 -22 -11 -37 -24
-34 -29 3 -5 17 0 31 10 19 16 27 18 38 8 10 -10 8 -14 -15 -22 -16 -5 -32
-13 -36 -17 -13 -14 -22 -8 -29 19 -5 21 -1 31 17 45 26 20 30 21 52 12z
m-2114 -18 c0 -27 -16 -36 -64 -36 -40 0 -54 4 -64 20 -12 19 -10 20 58 20 38
0 70 -2 70 -4z m1537 -46 c1 -13 -4 -20 -15 -20 -15 0 -15 2 -2 10 11 7 11 10
2 10 -7 0 -10 5 -7 10 10 16 21 11 22 -10z m-1063 -185 l-36 -57 -30 29 -29
30 63 97 63 97 3 -70 c3 -65 1 -73 -34 -126z m-511 163 c-21 -23 -36 -23 -58
2 -18 19 -17 20 28 18 44 -2 45 -3 30 -20z m1122 -53 c25 -45 34 -72 30 -86
-6 -18 -12 -13 -41 36 -28 46 -46 115 -30 115 2 0 21 -29 41 -65z m1048 44 c4
-15 2 -19 -10 -15 -8 3 -24 6 -36 6 -22 1 -22 1 -3 15 27 21 43 19 49 -6z
m-596 -49 c-3 -65 -17 -65 -17 0 0 28 4 50 10 50 5 0 9 -22 7 -50z m209 5 c0
-35 -3 -44 -14 -40 -7 3 -16 5 -18 5 -11 0 -2 30 9 31 6 0 3 4 -8 9 -11 5 -14
9 -6 9 7 1 11 7 7 16 -3 10 1 15 13 15 14 0 18 -8 17 -45z m-886 23 c0 -27
-13 -58 -21 -52 -16 9 -10 64 6 64 8 0 15 -6 15 -12z m1254 -4 c27 -10 18 -20
-18 -21 -26 -1 -33 3 -29 13 6 15 22 18 47 8z m-304 -19 c0 -8 -4 -15 -10 -15
-5 0 -10 7 -10 15 0 8 5 15 10 15 6 0 10 -7 10 -15z m-980 -47 c25 -58 36
-128 22 -128 -12 0 -66 100 -58 107 2 3 11 -4 18 -16 25 -41 27 -20 3 34 -13
30 -20 55 -16 55 5 0 18 -24 31 -52z m1290 21 c16 -30 8 -31 -13 -3 -10 13
-13 24 -8 24 6 0 15 -9 21 -21z m-30 1 c12 -7 11 -13 -9 -34 -13 -14 -29 -22
-35 -19 -6 4 -1 -6 12 -21 23 -30 29 -52 12 -41 -5 3 -10 2 -10 -4 0 -5 5 -11
11 -13 6 -2 16 -58 23 -133 10 -121 11 -126 17 -70 l6 60 1 -50 c1 -27 5 -95
8 -150 5 -90 4 -98 -9 -75 -23 39 -35 114 -43 265 -4 77 -9 133 -10 125 -2 -8
-5 -32 -9 -53 -3 -21 -10 -35 -16 -32 -5 4 -10 -20 -11 -57 l-1 -63 -6 77 c-4
43 -11 81 -15 85 -5 4 -6 -14 -3 -42 4 -27 9 -105 13 -173 6 -111 5 -122 -10
-116 -18 7 -19 14 -21 217 -1 75 2 137 6 137 4 0 6 6 5 13 0 6 2 13 7 14 4 2
19 14 33 28 l26 26 -21 23 c-21 23 -21 24 -4 54 19 34 29 38 53 22z m-1750
-17 c0 -8 -5 -13 -12 -11 -18 6 -21 25 -3 25 8 0 15 -7 15 -14z m40 1 c0 -9
-5 -14 -12 -12 -18 6 -21 28 -4 28 9 0 16 -7 16 -16z m-157 -34 c-9 -16 -21
-28 -27 -27 -6 1 -10 -6 -8 -15 3 -19 -14 -33 -23 -18 -8 13 54 102 66 95 5
-4 2 -18 -8 -35z m1667 30 c0 -5 -7 -10 -15 -10 -21 0 -19 -18 3 -23 11 -3 8
-5 -9 -6 -31 -1 -48 35 -20 42 29 8 41 7 41 -3z m35 0 c-3 -5 2 -10 11 -10 16
0 16 -1 -2 -14 -16 -13 -20 -13 -27 0 -9 16 -1 34 14 34 6 0 7 -4 4 -10z m73
3 c-18 -4 -26 -33 -10 -33 5 0 17 -7 28 -15 18 -14 18 -16 -11 -42 -17 -16
-26 -25 -21 -20 21 15 28 6 11 -13 -17 -18 -20 -19 -28 -5 -5 10 -4 22 5 33
12 15 11 16 -4 4 -20 -16 -42 -7 -34 14 3 8 0 14 -6 14 -7 0 -7 5 2 14 6 8 19
12 27 9 13 -5 15 -1 11 20 -5 24 -2 27 21 26 17 -1 20 -3 9 -6z m-924 -44 c-3
-5 0 -18 6 -29 6 -11 7 -20 2 -20 -13 0 -43 70 -36 82 5 7 12 5 20 -7 7 -10
11 -22 8 -26z m-824 8 c0 -17 -101 -160 -108 -153 -5 5 96 166 104 166 2 0 4
-6 4 -13z m1556 -41 c-4 -22 -9 -61 -12 -86 -15 -127 -26 -116 -31 29 l-4 108
27 -5 c25 -4 26 -7 20 -46z m-59 -468 c-1 -95 -3 -18 -3 172 0 190 2 267 3
173 2 -95 2 -251 0 -345z m-944 410 l46 -88 -104 0 -103 0 56 90 c30 49 56 89
57 87 1 -1 22 -41 48 -89z m-523 56 c0 -21 -65 -115 -74 -106 -4 4 -7 2 -6 -3
6 -26 0 -39 -11 -28 -9 9 -8 19 6 39 9 14 12 23 6 20 -14 -9 -44 -67 -34 -65
22 4 25 -2 8 -15 -11 -8 -25 -12 -32 -9 -8 3 -1 22 24 59 19 29 40 51 46 47 6
-3 7 -1 3 5 -4 7 5 24 21 39 15 14 21 22 13 18 -13 -8 -13 -6 -1 8 15 19 31
14 31 -9z m1561 -214 c-4 -165 -8 -213 -12 -160 l-5 75 -2 -62 c-1 -34 -7 -65
-13 -69 -9 -5 -10 16 -5 82 7 97 38 375 42 371 1 -1 -1 -108 -5 -237z m49 68
c0 -191 -8 -308 -21 -308 -5 0 -9 108 -9 240 0 207 2 240 15 240 13 0 15 -26
15 -172z m-541 83 c22 -38 41 -72 41 -75 0 -3 -36 -6 -81 -6 -44 0 -79 4 -77
8 19 49 64 142 69 142 4 0 25 -31 48 -69z m576 -12 c12 -62 14 -66 12 -26 -3
56 8 62 17 10 13 -73 20 -353 9 -353 -14 0 -23 34 -24 95 0 28 -5 59 -10 70
-6 13 -8 -10 -6 -73 1 -68 -1 -92 -10 -92 -10 0 -13 52 -13 227 0 124 2 224 5
221 3 -3 12 -39 20 -79z m-1765 22 c-6 -12 -15 -19 -20 -16 -5 3 -17 -6 -26
-20 -9 -13 -20 -22 -25 -19 -5 3 -6 -3 -3 -13 5 -15 4 -16 -6 -3 -10 13 -11
13 -7 -2 3 -9 -1 -24 -9 -35 -12 -16 -13 -16 -8 0 11 30 -1 19 -41 -38 -20
-30 -41 -55 -46 -55 -10 0 100 147 149 199 18 18 29 38 26 45 -4 6 1 4 11 -5
14 -14 15 -21 5 -38z m119 -37 c-14 -23 -24 -32 -29 -24 -4 7 -19 -7 -38 -37
-31 -48 -35 -66 -8 -44 10 8 16 9 21 1 3 -6 22 -17 42 -25 30 -13 33 -17 23
-30 -16 -19 -47 -19 -82 -1 -19 10 -29 11 -37 3 -6 -6 -18 -12 -26 -13 -12 -2
-13 2 -4 17 5 11 14 17 18 14 5 -3 11 2 15 10 3 8 1 15 -4 15 -5 0 18 41 52
90 48 69 64 87 71 75 5 -10 1 -27 -14 -51z m1532 -62 c-6 -53 -14 -143 -17
-199 -4 -58 -11 -103 -17 -103 -12 0 -4 119 20 300 19 144 30 146 14 2z
m-1674 48 c0 -19 -10 -41 -26 -58 -14 -15 -26 -35 -26 -45 -2 -21 -25 -48 -25
-30 0 7 5 15 10 18 6 3 10 11 10 17 0 7 -5 7 -14 -1 -11 -9 -15 -9 -20 1 -3 7
-4 4 -1 -8 6 -22 -28 -63 -38 -47 -7 11 27 66 37 61 4 -2 25 25 48 60 22 34
42 62 43 62 1 0 2 -14 2 -30z m1482 -21 c17 -28 30 -54 27 -56 -5 -6 -66 82
-66 96 0 19 6 12 39 -40z m-1326 -23 c-15 -25 -34 -46 -41 -46 -7 0 4 24 25
56 44 66 57 58 16 -10z m52 -16 c4 -17 11 -28 16 -25 5 4 6 -1 3 -9 -3 -9 -10
-16 -16 -16 -5 0 -6 5 -3 10 4 6 -6 10 -24 10 l-31 0 18 34 c20 39 28 38 37
-4z m141 -7 c-14 -20 -26 -34 -26 -29 0 13 42 78 47 72 3 -2 -7 -22 -21 -43z
m942 2 c-3 -7 -664 -10 -758 -3 -60 4 470 13 633 11 70 -1 126 -4 125 -8z m90
9 c12 -4 22 -13 22 -21 0 -8 7 -21 15 -29 17 -17 20 -34 6 -34 -5 0 -12 8 -15
18 -3 10 -4 6 -3 -8 2 -23 -2 -25 -45 -28 l-48 -3 0 55 c0 51 2 56 23 56 12 0
32 -3 45 -6z m57 -34 c9 -16 12 -30 7 -30 -8 0 -32 42 -32 55 0 13 11 2 25
-25z m-1441 -28 c-29 -24 -94 -107 -94 -121 0 -14 -17 -15 -25 -1 -3 5 3 20
15 32 11 12 18 29 15 39 -3 10 0 21 6 25 9 5 10 2 5 -11 -5 -15 -4 -16 8 -6 9
7 18 22 22 33 4 12 11 17 21 14 11 -5 13 -2 9 10 -10 26 4 38 23 19 15 -15 14
-17 -5 -33z m-177 20 c6 -4 -11 -7 -38 -8 -135 -2 -231 -177 -170 -310 22 -48
41 -65 41 -36 0 11 6 22 13 25 22 8 205 8 211 -1 3 -5 -2 -21 -10 -37 -26 -50
-9 -51 39 -2 46 45 50 47 105 47 53 0 58 -2 74 -31 10 -17 22 -28 28 -24 6 3
7 -1 4 -9 -5 -12 -21 -16 -70 -16 -56 0 -63 2 -58 18 5 13 4 14 -4 3 -5 -7
-15 -10 -21 -7 -6 4 -11 2 -11 -3 0 -6 -12 -11 -27 -11 -16 0 -41 -7 -58 -16
-24 -13 -48 -15 -120 -9 -110 8 -128 12 -121 32 3 8 -5 29 -19 47 -14 18 -28
48 -32 66 -5 29 -7 31 -15 15 -5 -12 -5 -4 -1 20 4 22 8 68 8 102 0 34 2 60 4
57 2 -2 10 4 17 14 9 13 9 19 1 24 -8 5 -6 8 5 8 9 0 32 10 50 23 25 16 50 23
98 24 36 2 70 -1 77 -5z m757 -7 c-5 -11 -21 -15 -68 -14 -35 1 -48 4 -31 7
26 4 28 5 10 12 -14 6 -2 9 37 9 47 1 56 -2 52 -14z m81 4 c4 -6 4 -13 0 -17
-4 -4 -10 -1 -12 6 -4 10 -8 10 -21 0 -12 -10 -14 -10 -8 0 4 6 3 12 -3 12 -5
0 -12 -10 -14 -22 -4 -20 -4 -19 -6 5 -1 24 3 27 28 27 17 0 33 -5 36 -11z
m186 -3 c-6 -7 -9 -21 -5 -30 5 -14 -5 -16 -91 -16 -85 0 -96 2 -85 15 7 8 10
22 6 30 -5 13 9 15 91 15 80 0 94 -2 84 -14z m64 3 c4 -6 4 -13 0 -17 -4 -4
-10 -1 -12 6 -7 19 -21 14 -26 -10 -4 -20 -4 -19 -6 5 -1 21 4 27 18 27 11 0
23 -5 26 -11z m229 -4 c-5 -12 -28 -15 -108 -17 l-101 -2 103 -3 c64 -2 102
-8 102 -14 0 -8 -31 -9 -100 -4 -71 5 -100 4 -100 -4 0 -8 57 -12 183 -13 100
-1 164 -4 142 -7 -34 -5 -28 -6 40 -12 44 -4 -117 -5 -359 -4 -292 3 -442 7
-449 14 -8 8 55 11 214 12 123 0 218 3 211 6 -10 4 -10 8 -1 19 6 7 9 21 5 29
-5 13 11 15 109 15 98 0 114 -2 109 -15z m143 -15 c0 -28 -3 -30 -41 -30 -31
0 -37 3 -28 12 7 7 12 19 11 28 0 11 -2 12 -6 1 -5 -11 -7 -11 -14 0 -8 12
-10 12 -18 0 -7 -11 -9 -11 -14 0 -3 8 -6 3 -6 -10 -1 -17 -4 -22 -11 -15 -6
6 -8 18 -5 26 5 12 22 16 69 17 l63 0 0 -29z m241 -2 c-36 -35 -68 -101 -68
-143 0 -22 -4 -25 -35 -25 -33 0 -35 2 -29 28 13 58 48 117 72 120 28 4 63 32
56 44 -3 4 5 8 17 8 20 0 18 -3 -13 -32z m35 -16 c-51 -46 -82 -135 -64 -186
l10 -31 -5 32 c-11 63 50 193 90 193 5 0 -2 -12 -17 -27 -50 -53 -70 -137 -47
-198 5 -14 22 -41 37 -59 14 -19 28 -44 30 -55 3 -21 2 -21 -26 -7 -45 24 -78
71 -92 131 -17 77 8 172 57 215 52 45 76 38 27 -8z m-1228 17 c-33 -4 -67 -9
-75 -10 -8 -1 -31 -1 -50 1 -32 3 -31 4 15 10 28 4 77 7 110 7 l60 0 -60 -8z
m79 -11 c-5 -8 -2 -9 12 -4 10 4 15 4 12 0 -4 -3 7 -18 23 -31 50 -42 73 -98
74 -178 0 -111 -41 -167 -142 -194 -58 -16 -97 -4 -152 45 -84 76 -102 153
-57 249 38 83 77 107 186 118 19 2 39 5 43 5 5 1 5 -3 1 -10z m166 -8 c0 -5
-22 -10 -49 -10 -28 0 -53 5 -56 10 -4 6 15 10 49 10 31 0 56 -4 56 -10z
m-374 -42 c-20 -24 -43 -51 -51 -60 -8 -10 -26 -18 -40 -18 -18 0 -25 -5 -25
-20 0 -11 7 -20 15 -20 8 0 12 -6 9 -13 -2 -7 -13 -13 -24 -13 -15 0 -18 5
-14 26 13 57 15 60 44 60 26 0 50 22 50 44 0 16 -40 3 -54 -16 -16 -23 -16
-23 -4 5 9 21 18 27 43 27 19 0 39 8 50 20 36 39 37 19 1 -22z m-316 -18 c-6
-11 -15 -20 -20 -20 -5 0 -7 -7 -4 -15 4 -11 2 -13 -9 -9 -9 3 -18 12 -21 21
-4 10 -2 13 7 10 8 -3 20 -1 28 4 10 6 7 9 -11 9 -15 0 -30 -4 -35 -9 -6 -6
-41 -12 -80 -14 l-70 -3 73 -2 c45 -1 72 -6 72 -13 0 -8 -11 -9 -31 -5 -17 3
-53 6 -80 6 -37 0 -49 4 -49 15 0 10 10 15 33 15 l32 1 -30 14 c-28 12 -20 13
88 14 115 1 117 0 107 -19z m215 10 c-3 -5 -40 -10 -81 -10 -48 0 -73 4 -69
10 3 6 40 10 81 10 48 0 73 -4 69 -10z m997 -10 c192 0 298 -4 298 -10 0 -7
-153 -10 -440 -10 -270 0 -440 4 -440 9 0 13 85 19 194 15 49 -2 223 -4 388
-4z m832 -63 c2 -12 7 -38 11 -58 5 -26 2 -39 -10 -49 -14 -11 -18 -11 -32 3
-13 13 -14 19 -4 31 7 8 12 43 13 78 0 61 10 59 22 -5z m-1844 46 c-1 -22 -21
-28 -82 -25 -50 3 -68 7 -68 18 0 11 17 14 75 14 41 0 75 -3 75 -7z m1499 -10
c0 -10 -4 -27 -8 -38 -5 -11 -6 -27 -2 -35 4 -10 8 -5 13 15 4 17 5 6 1 -25
-3 -30 -8 -59 -13 -63 -10 -11 -34 51 -32 82 4 53 43 113 41 64z m-2019 -38
c0 -14 -5 -25 -11 -25 -6 0 -8 9 -4 20 5 16 2 20 -14 20 -23 0 -29 -25 -8 -33
9 -4 9 -6 0 -6 -6 -1 -15 4 -18 9 -12 19 4 40 30 40 20 0 25 -5 25 -25z m1156
9 c-3 -9 -9 -28 -13 -42 -3 -15 -19 -46 -35 -70 -20 -29 -27 -47 -20 -55 6 -8
5 -23 -4 -42 -7 -16 -13 -23 -14 -15 0 9 -3 11 -8 5 -8 -11 -9 -11 -76 -20
l-47 -7 22 43 c23 46 31 139 16 192 l-7 27 96 0 c84 0 95 -2 90 -16z m124 -29
c0 -25 9 -65 21 -90 20 -43 70 -95 90 -95 5 0 9 -3 9 -7 0 -5 -47 -8 -105 -9
-89 0 -105 2 -100 14 4 12 1 12 -19 -2 -41 -26 -63 -21 -63 14 0 17 3 27 6 23
3 -4 14 -9 24 -11 15 -2 17 6 17 57 0 34 5 81 12 106 l12 45 48 0 48 0 0 -45z
m530 15 c0 -11 -3 -20 -7 -21 -110 -11 -118 -15 -139 -65 -7 -18 -26 -46 -41
-65 -17 -20 -28 -45 -28 -63 l0 -31 -102 -2 -103 -3 11 24 c17 36 -7 86 -41
87 -20 0 -21 2 -7 7 16 7 16 9 -4 25 -14 13 -20 26 -16 43 3 19 0 24 -17 25
-20 2 -20 2 2 6 12 2 22 9 22 14 0 5 -10 10 -22 10 l-23 2 23 4 c12 2 22 9 22
14 0 5 97 9 235 9 228 0 235 -1 235 -20z m-1230 -21 c-12 -40 -20 -49 -20 -21
0 26 10 52 20 52 5 0 5 -14 0 -31z m-523 -61 c-2 -18 -4 -6 -4 27 0 33 2 48 4
33 2 -15 2 -42 0 -60z m443 72 c0 -14 -417 -14 -425 0 -4 7 68 10 209 10 137
0 216 -4 216 -10z m-10 -37 c0 -16 -16 -18 -185 -22 -128 -2 -185 0 -185 7 0
7 38 12 103 15 l102 3 -106 2 c-99 2 -107 1 -112 -18 -7 -28 -22 -25 -22 4 l0
25 203 1 c187 1 202 -1 202 -17z m1408 -33 c5 -22 6 -38 2 -35 -5 3 -11 18
-15 35 -5 23 -12 30 -38 33 -32 4 -32 4 4 5 35 2 37 0 47 -38z m-70 -24 c12
-45 83 -129 90 -107 4 12 42 -4 42 -17 0 -15 -48 -12 -54 3 -4 12 -32 15 -158
15 l-153 0 30 19 c37 22 63 60 72 101 5 29 7 30 62 30 l57 0 12 -44z m-1248
12 c0 -13 3 -34 6 -48 4 -20 3 -22 -5 -10 -6 8 -11 25 -11 37 0 31 -11 35 -87
26 -65 -7 -66 -8 -28 -14 25 -4 0 -6 -65 -6 -70 0 -93 2 -70 7 25 5 8 7 -55 7
-77 0 -83 -1 -40 -7 44 -7 41 -8 -27 -6 -51 1 -79 5 -82 13 -4 10 41 13 192
16 108 1 214 3 235 5 32 2 37 -1 37 -20z m1653 -4 c-1 -5 -9 -27 -17 -49 -8
-22 -15 -55 -16 -73 0 -38 -23 -40 -28 -4 -2 12 -10 22 -18 22 -10 0 -12 5 -8
13 5 7 1 6 -10 -2 -17 -14 -16 -15 6 -24 22 -9 22 -9 3 -17 -12 -5 -26 -3 -35
5 -8 7 -21 10 -27 8 -7 -3 -13 0 -13 6 0 6 10 11 23 12 21 1 21 1 -3 9 -25 8
-25 8 5 10 17 1 24 4 16 7 -10 4 -8 9 10 19 23 13 23 13 -11 8 l-35 -6 35 19
c34 18 35 18 38 -1 2 -10 -1 -22 -7 -25 -6 -4 -2 -12 10 -19 19 -12 20 -11 18
33 -2 32 2 49 11 55 18 11 56 6 53 -6z m-1709 -29 c5 -22 4 -26 -4 -15 -5 8
-10 24 -10 34 0 26 6 18 14 -19z m1581 25 c-3 -5 -13 -10 -21 -10 -8 0 -14 5
-14 10 0 6 9 10 21 10 11 0 17 -4 14 -10z m150 -40 c-23 -44 -30 -31 -8 15 10
20 19 32 21 26 2 -5 -4 -24 -13 -41z m49 24 c10 -26 6 -78 -7 -95 -7 -9 -24
-19 -39 -23 -25 -6 -28 -4 -28 18 0 13 7 29 14 36 8 6 20 27 26 46 12 37 24
43 34 18z m-2081 -11 c-29 -2 -77 -2 -105 0 -29 2 -6 3 52 3 58 0 81 -1 53 -3z
m230 0 c-29 -2 -78 -2 -110 0 -32 2 -8 3 52 3 61 0 87 -1 58 -3z m1467 -11 c0
-5 -13 -7 -30 -4 -16 2 -30 6 -30 8 0 2 14 4 30 4 17 0 30 -4 30 -8z m430 -23
c0 -5 -7 -9 -15 -9 -9 0 -12 6 -9 15 6 15 24 11 24 -6z m-394 -31 l29 -33 -32
29 c-31 28 -38 36 -30 36 2 0 16 -15 33 -32z m-1327 -9 c13 -17 43 -44 69 -60
25 -16 43 -29 40 -29 -23 0 -65 26 -106 64 -27 26 -60 46 -77 49 -25 3 -23 4
11 6 34 1 44 -4 63 -30z m1726 11 c3 -5 -3 -10 -15 -10 -12 0 -18 5 -15 10 3
6 10 10 15 10 5 0 12 -4 15 -10z m-1 -36 c23 -22 11 -34 -35 -34 -44 0 -50 11
-17 34 28 20 33 20 52 0z m-1764 -14 l-25 -7 29 -4 c44 -6 45 -28 2 -24 -20 2
-40 6 -46 10 -16 10 12 34 40 34 l25 -1 -25 -8z m329 -6 c-29 -35 -149 -69
-163 -46 -3 6 2 8 13 5 26 -7 95 14 123 37 28 23 46 26 27 4z m1111 6 c0 -5
-10 -10 -22 -10 -19 0 -20 2 -8 10 19 13 30 13 30 0z m75 0 c3 -5 -3 -10 -14
-10 -12 0 -21 5 -21 10 0 6 6 10 14 10 8 0 18 -4 21 -10z m-985 -10 c0 -5 -15
-10 -32 -10 -25 0 -29 3 -18 10 20 13 50 13 50 0z"/>
<path d="M656 2632 c-2 -4 -1 -14 4 -21 11 -19 40 -6 39 16 0 11 -3 13 -6 6
-2 -7 -9 -13 -14 -13 -6 0 -7 5 -4 10 3 6 2 10 -4 10 -5 0 -12 -4 -15 -8z"/>
<path d="M690 2569 c0 -24 23 -21 28 4 2 10 -3 17 -12 17 -10 0 -16 -9 -16
-21z"/>
<path d="M1096 2184 c107 -101 252 -234 257 -234 8 0 -173 170 -244 229 l-64
53 51 -48z"/>
<path d="M1610 2351 c0 -11 5 -23 11 -27 8 -4 9 -27 5 -70 -6 -56 -5 -62 11
-60 15 2 18 13 19 57 2 48 1 50 -6 19 -7 -29 -8 -23 -7 30 2 54 -1 65 -15 68
-13 2 -18 -3 -18 -17z"/>
<path d="M1635 2087 c3 -12 10 -60 14 -107 7 -73 8 -77 10 -30 1 73 -10 160
-21 160 -4 0 -6 -10 -3 -23z"/>
<path d="M1627 1935 c3 -77 7 -142 9 -144 7 -8 2 173 -6 229 -5 35 -6 4 -3
-85z"/>
<path d="M1653 1790 c0 -36 2 -50 4 -32 2 17 2 47 0 65 -2 17 -4 3 -4 -33z"/>
<path d="M1892 2288 c2 -12 11 -24 21 -26 14 -3 18 1 15 20 -2 12 -11 24 -21
26 -14 3 -18 -1 -15 -20z"/>
<path d="M1470 1953 c-2 -46 -4 -93 -4 -105 -1 -12 5 -23 11 -25 19 -7 27 25
14 50 -6 12 -12 54 -14 92 l-3 70 -4 -82z"/>
<path d="M2301 1672 c-13 -107 -14 -170 -2 -157 9 10 26 245 18 245 -2 0 -9
-40 -16 -88z"/>
<path d="M1360 1642 c17 -8 25 -32 11 -32 -5 0 -12 6 -14 13 -3 7 -6 5 -6 -5
-1 -12 6 -18 19 -18 15 0 20 7 20 25 0 19 -5 25 -22 24 -17 0 -19 -2 -8 -7z"/>
<path d="M1294 1003 c-15 -27 -53 -86 -84 -133 -74 -112 -76 -115 -60 -105 8
5 11 3 8 -6 -3 -8 -10 -13 -16 -12 -6 2 -9 -4 -5 -13 4 -11 11 -7 28 18 42 63
77 128 68 128 -4 0 -2 4 6 9 8 5 16 16 17 25 1 8 11 28 22 43 23 34 54 93 48
93 -2 0 -17 -21 -32 -47z m-89 -170 c-34 -53 -45 -67 -45 -60 0 10 51 87 57
87 3 0 -3 -12 -12 -27z"/>
<path d="M1070 1590 c-34 -7 -34 -7 -5 -8 17 0 41 4 55 8 33 11 0 11 -50 0z"/>
<path d="M1620 1587 c0 -4 11 -23 25 -41 33 -43 32 -56 -1 -25 -18 16 -12 3
19 -41 24 -36 46 -74 48 -84 2 -11 12 -20 21 -22 14 -2 12 6 -12 41 -32 46
-37 61 -19 49 13 -7 -4 26 -32 67 -10 15 -16 35 -12 47 4 17 1 21 -16 19 -12
-1 -21 -5 -21 -10z"/>
<path d="M1750 1405 c0 -8 4 -15 9 -15 5 0 25 -28 44 -62 18 -35 37 -61 40
-58 3 3 13 -4 22 -15 12 -15 12 -11 -2 13 -10 19 -25 38 -34 42 -9 5 -26 32
-38 60 -21 48 -41 66 -41 35z"/>
<path d="M1764 1318 c-5 -7 -3 -8 6 -3 10 6 12 4 6 -11 -4 -10 -4 -15 0 -11 4
4 25 -19 46 -50 21 -32 38 -54 38 -49 0 10 -80 136 -86 136 -1 0 -6 -5 -10
-12z"/>
<path d="M1880 1165 c0 -5 11 -30 25 -54 28 -49 30 -55 13 -45 -7 4 -1 -11 12
-34 14 -23 29 -41 34 -41 5 0 17 -12 27 -28 40 -59 17 -6 -35 81 -29 50 -58
100 -64 111 -6 11 -11 16 -12 10z m90 -170 c0 -5 -9 4 -20 20 -11 17 -20 35
-20 40 0 6 9 -3 20 -20 11 -16 20 -34 20 -40z"/>
<path d="M1945 1103 c52 -81 85 -127 85 -120 0 9 -91 147 -98 147 -2 0 4 -12
13 -27z"/>
<path d="M1468 1302 c4 -11 1 -13 -9 -7 -8 4 -11 4 -7 0 5 -5 -3 -28 -17 -51
-19 -32 -22 -45 -13 -50 7 -4 10 -4 6 1 -4 4 1 20 11 34 36 51 51 88 36 88 -7
0 -11 -7 -7 -15z"/>
<path d="M1712 845 c-17 -37 -14 -45 4 -12 9 16 14 31 11 33 -2 2 -9 -7 -15
-21z"/>
<path d="M2497 1404 c-4 -4 -7 -17 -7 -28 1 -19 1 -20 11 -3 11 19 8 43 -4 31z"/>
<path d="M2457 1387 c-3 -8 -1 -20 4 -28 6 -10 9 -7 9 14 0 29 -5 35 -13 14z"/>
<path d="M528 1313 c29 -2 74 -2 100 0 26 2 2 3 -53 3 -55 0 -76 -1 -47 -3z"/>
<path d="M2521 1193 l-13 -28 21 22 c23 24 26 33 13 33 -5 0 -14 -12 -21 -27z"/>
<path d="M2479 1178 c-3 -6 -7 -89 -4 -86 1 2 10 19 20 38 18 34 17 35 0 20
-17 -14 -18 -13 -13 8 5 18 3 31 -3 20z"/>
<path d="M2437 1157 c-11 -29 -9 -43 4 -30 6 6 9 19 7 29 -3 18 -4 18 -11 1z"/>
<path d="M2523 938 l2 -25 26 21 c14 11 22 23 16 25 -5 2 -13 -3 -18 -10 -8
-12 -10 -12 -18 0 -7 10 -9 7 -8 -11z"/>
<path d="M846 854 c-10 -14 -16 -28 -13 -30 2 -3 12 7 21 22 10 14 16 28 13
30 -2 3 -12 -7 -21 -22z"/>
<path d="M2074 737 c-3 -9 -12 -17 -20 -17 -8 0 -14 -9 -14 -20 0 -23 28 -27
36 -5 4 8 12 15 20 15 8 0 14 10 13 23 0 12 -3 16 -6 8 -5 -11 -7 -11 -14 0
-6 11 -9 10 -15 -4z"/>
<path d="M368 695 c-49 -34 -83 -89 -68 -112 9 -15 10 -14 4 7 -3 14 -3 22 1
17 5 -4 18 10 29 30 12 21 37 48 55 60 19 13 30 23 25 23 -5 0 -26 -11 -46
-25z"/>
<path d="M1428 693 c18 -2 45 -2 60 0 15 2 0 4 -33 4 -33 0 -45 -2 -27 -4z"/>
<path d="M1658 643 c18 -2 45 -2 60 0 15 2 0 4 -33 4 -33 0 -45 -2 -27 -4z"/>
<path d="M2147 646 c-3 -8 -1 -17 6 -20 7 -2 4 -5 -5 -5 -21 -1 -24 -17 -4
-24 8 -3 19 8 29 29 16 32 16 34 -2 34 -10 0 -21 -6 -24 -14z"/>
<path d="M2122 563 c5 -26 38 -29 38 -4 0 15 -6 21 -21 21 -14 0 -19 -5 -17
-17z"/>
<path d="M2226 440 c7 -27 52 -80 68 -80 6 0 0 7 -12 16 -12 8 -31 32 -42 52
-14 26 -19 29 -14 12z"/>
<path d="M988 655 c-54 -30 -88 -123 -74 -200 5 -22 23 -54 47 -80 38 -41 42
-43 89 -39 84 6 139 47 159 121 11 41 -1 125 -23 158 -32 49 -140 71 -198 40z
m147 -15 c20 -12 39 -37 49 -60 19 -47 22 -125 5 -114 -7 4 -10 1 -7 -7 14
-40 -65 -106 -115 -96 -18 3 -16 5 7 6 21 1 27 5 22 17 -4 9 5 25 22 40 15 14
21 23 15 19 -15 -7 -16 -4 -7 19 3 9 10 16 16 16 5 0 6 -6 3 -12 -4 -7 3 -2
14 12 11 14 21 32 20 40 0 12 -3 11 -13 -3 -10 -13 -16 -15 -21 -7 -6 9 -10 9
-17 -1 -8 -11 -9 -11 -5 1 2 8 12 14 22 12 19 -4 14 9 -18 46 -11 12 -16 22
-9 22 6 0 20 -12 31 -26 12 -15 21 -22 21 -16 0 6 -4 14 -10 17 -5 3 -10 11
-10 16 0 6 5 7 11 3 8 -4 8 0 0 15 -7 11 -17 21 -23 21 -6 0 -5 -6 3 -17 13
-15 12 -15 -8 -5 -12 7 -39 11 -60 11 l-38 -2 40 -7 c39 -7 40 -7 7 -9 -39 -1
-92 -48 -92 -81 0 -34 27 -76 62 -99 18 -11 31 -21 28 -22 -28 -5 -40 -8 -57
-13 -15 -5 -28 2 -51 28 -78 90 -35 230 71 231 23 0 53 -4 67 -9 19 -6 22 -5
14 3 -6 6 -30 15 -55 20 l-44 9 39 1 c23 1 52 -7 71 -19z m-14 -79 c17 -16 18
-19 5 -24 -10 -4 -16 -1 -16 8 0 33 -72 8 -94 -32 -13 -24 -15 -25 -16 -7 0
23 17 47 45 62 30 17 53 14 76 -7z m-19 -59 c17 -32 17 -32 -7 -48 -18 -12
-28 -13 -44 -4 -26 14 -29 65 -3 79 24 14 33 10 54 -27z"/>
<path d="M1002 603 c-15 -15 -30 -28 -34 -28 -3 0 -10 -4 -15 -9 -5 -5 -3 -6
5 -2 14 8 17 -10 2 -19 -5 -3 -9 -25 -8 -48 l1 -42 4 40 c5 44 48 109 65 99 6
-4 8 -2 4 4 -3 6 2 15 11 21 11 6 13 11 5 11 -7 0 -25 -12 -40 -27z"/>
<path d="M971 499 c0 -19 6 -44 14 -55 22 -29 17 -43 -5 -15 -11 13 -20 19
-20 14 0 -5 14 -22 32 -39 17 -16 28 -23 23 -15 -6 10 -2 11 15 6 19 -6 17 -2
-10 22 -24 22 -35 42 -40 74 -7 43 -8 43 -9 8z"/>
<path d="M1134 424 c-17 -18 -28 -34 -24 -34 7 0 43 38 54 58 12 20 3 13 -30
-24z"/>
<path d="M1043 494 c-3 -8 -1 -20 5 -26 16 -16 42 -2 42 22 0 24 -38 28 -47 4z"/>
<path d="M891 487 c0 -26 5 -62 13 -80 17 -42 76 -93 124 -108 106 -31 215 66
211 191 -1 28 -3 25 -9 -17 -18 -122 -122 -198 -216 -158 -72 30 -104 76 -115
165 l-6 55 -2 -48z"/>
<path d="M688 593 c17 -2 47 -2 65 0 17 2 3 4 -33 4 -36 0 -50 -2 -32 -4z"/>
</g>
</svg>
