<svg xmlns="http://www.w3.org/2000/svg" viewBox="0 0 512 512" role="img" aria-label="Empty Castles hex board">
  <rect width="512" height="512" fill="#f6f1d1"/>
  <polygon points="294.93,53.71 275.46,20.00 236.54,20.00 217.07,53.71 236.54,87.43 275.46,87.43" fill="rgb(209,139,71)" stroke="#aaa" stroke-width="4.58" stroke-linejoin="round"/>
  <polygon points="353.32,87.43 333.86,53.71 294.93,53.71 275.46,87.43 294.93,121.14 333.86,121.14" fill="rgb(232,171,111)" stroke="#aaa" stroke-width="4.58" stroke-linejoin="round"/>
  <polygon points="411.72,121.14 392.25,87.43 353.32,87.43 333.86,121.14 353.32,154.86 392.25,154.86" fill="rgb(255,206,158)" stroke="#aaa" stroke-width="4.58" stroke-linejoin="round"/>
  <polygon points="470.11,154.86 450.65,121.14 411.72,121.14 392.25,154.86 411.72,188.57 450.65,188.57" fill="rgb(209,139,71)" stroke="#aaa" stroke-width="4.58" stroke-linejoin="round"/>
  <polygon points="236.54,87.43 217.07,53.71 178.14,53.71 158.68,87.43 178.14,121.14 217.07,121.14" fill="rgb(232,171,111)" stroke="#aaa" stroke-width="4.58" stroke-linejoin="round"/>
  <polygon points="294.93,121.14 275.46,87.43 236.54,87.43 217.07,121.14 236.54,154.86 275.46,154.86" fill="rgb(255,206,158)" stroke="#aaa" stroke-width="4.58" stroke-linejoin="round"/>
  <polygon points="353.32,154.86 333.86,121.14 294.93,121.14 275.46,154.86 294.93,188.57 333.86,188.57" fill="rgb(209,139,71)" stroke="#aaa" stroke-width="4.58" stroke-linejoin="round"/>
  <polygon points="411.72,188.57 392.25,154.86 353.32,154.86 333.86,188.57 353.32,222.29 392.25,222.29" fill="rgb(232,171,111)" stroke="#aaa" stroke-width="4.58" stroke-linejoin="round"/>
  <polygon points="470.11,222.29 450.65,188.57 411.72,188.57 392.25,222.29 411.72,256.00 450.65,256.00" fill="rgb(255,206,158)" stroke="#aaa" stroke-width="4.58" stroke-linejoin="round"/>
  <polygon points="178.14,121.14 158.68,87.43 119.75,87.43 100.28,121.14 119.75,154.86 158.68,154.86" fill="rgb(255,206,158)" stroke="#aaa" stroke-width="4.58" stroke-linejoin="round"/>
  <polygon points="236.54,154.86 217.07,121.14 178.14,121.14 158.68,154.86 178.14,188.57 217.07,188.57" fill="rgb(209,139,71)" stroke="#aaa" stroke-width="4.58" stroke-linejoin="round"/>
  <polygon points="294.93,188.57 275.46,154.86 236.54,154.86 217.07,188.57 236.54,222.29 275.46,222.29" fill="rgb(232,171,111)" stroke="#aaa" stroke-width="4.58" stroke-linejoin="round"/>
  <polygon points="353.32,222.29 333.86,188.57 294.93,188.57 275.46,222.29 294.93,256.00 333.86,256.00" fill="rgb(255,206,158)" stroke="#aaa" stroke-width="4.58" stroke-linejoin="round"/>
  <polygon points="411.72,256.00 392.25,222.29 353.32,222.29 333.86,256.00 353.32,289.71 392.25,289.71" fill="rgb(209,139,71)" stroke="#aaa" stroke-width="4.58" stroke-linejoin="round"/>
  <polygon points="470.11,289.71 450.65,256.00 411.72,256.00 392.25,289.71 411.72,323.43 450.65,323.43" fill="rgb(232,171,111)" stroke="#aaa" stroke-width="4.58" stroke-linejoin="round"/>
  <polygon points="119.75,154.86 100.28,121.14 61.35,121.14 41.89,154.86 61.35,188.57 100.28,188.57" fill="rgb(209,139,71)" stroke="#aaa" stroke-width="4.58" stroke-linejoin="round"/>
  <polygon points="178.14,188.57 158.68,154.86 119.75,154.86 100.28,188.57 119.75,222.29 158.68,222.29" fill="rgb(232,171,111)" stroke="#aaa" stroke-width="4.58" stroke-linejoin="round"/>
  <polygon points="236.54,222.29 217.07,188.57 178.14,188.57 158.68,222.29 178.14,256.00 217.07,256.00" fill="rgb(255,206,158)" stroke="#aaa" stroke-width="4.58" stroke-linejoin="round"/>
  <polygon points="294.93,256.00 275.46,222.29 236.54,222.29 217.07,256.00 236.54,289.71 275.46,289.71" fill="rgb(209,139,71)" stroke="#aaa" stroke-width="4.58" stroke-linejoin="round"/>
  <polygon points="353.32,289.71 333.86,256.00 294.93,256.00 275.46,289.71 294.93,323.43 333.86,323.43" fill="rgb(232,171,111)" stroke="#aaa" stroke-width="4.58" stroke-linejoin="round"/>
  <polygon points="411.72,323.43 392.25,289.71 353.32,289.71 333.86,323.43 353.32,357.14 392.25,357.14" fill="rgb(255,206,158)" stroke="#aaa" stroke-width="4.58" stroke-linejoin="round"/>
  <polygon points="470.11,357.14 450.65,323.43 411.72,323.43 392.25,357.14 411.72,390.86 450.65,390.86" fill="rgb(209,139,71)" stroke="#aaa" stroke-width="4.58" stroke-linejoin="round"/>
  <polygon points="119.75,222.29 100.28,188.57 61.35,188.57 41.89,222.29 61.35,256.00 100.28,256.00" fill="rgb(255,206,158)" stroke="#aaa" stroke-width="4.58" stroke-linejoin="round"/>
  <polygon points="178.14,256.00 158.68,222.29 119.75,222.29 100.28,256.00 119.75,289.71 158.68,289.71" fill="rgb(209,139,71)" stroke="#aaa" stroke-width="4.58" stroke-linejoin="round"/>
  <polygon points="236.54,289.71 217.07,256.00 178.14,256.00 158.68,289.71 178.14,323.43 217.07,323.43" fill="rgb(232,171,111)" stroke="#aaa" stroke-width="4.58" stroke-linejoin="round"/>
  <polygon points="294.93,323.43 275.46,289.71 236.54,289.71 217.07,323.43 236.54,357.14 275.46,357.14" fill="rgb(255,206,158)" stroke="#aaa" stroke-width="4.58" stroke-linejoin="round"/>
  <polygon points="353.32,357.14 333.86,323.43 294.93,323.43 275.46,357.14 294.93,390.86 333.86,390.86" fill="rgb(209,139,71)" stroke="#aaa" stroke-width="4.58" stroke-linejoin="round"/>
  <polygon points="411.72,390.86 392.25,357.14 353.32,357.14 333.86,390.86 353.32,424.57 392.25,424.57" fill="rgb(232,171,111)" stroke="#aaa" stroke-width="4.58" stroke-linejoin="round"/>
  <polygon points="119.75,289.71 100.28,256.00 61.35,256.00 41.89,289.71 61.35,323.43 100.28,323.43" fill="rgb(232,171,111)" stroke="#aaa" stroke-width="4.58" stroke-linejoin="round"/>
  <polygon points="178.14,323.43 158.68,289.71 119.75,289.71 100.28,323.43 119.75,357.14 158.68,357.14" fill="rgb(255,206,158)" stroke="#aaa" stroke-width="4.58" stroke-linejoin="round"/>
  <polygon points="236.54,357.14 217.07,323.43 178.14,323.43 158.68,357.14 178.14,390.86 217.07,390.86" fill="rgb(209,139,71)" stroke="#aaa" stroke-width="4.58" stroke-linejoin="round"/>
  <polygon points="294.93,390.86 275.46,357.14 236.54,357.14 217.07,390.86 236.54,424.57 275.46,424.57" fill="rgb(232,171,111)" stroke="#aaa" stroke-width="4.58" stroke-linejoin="round"/>
  <polygon points="353.32,424.57 333.86,390.86 294.93,390.86 275.46,424.57 294.93,458.29 333.86,458.29" fill="rgb(255,206,158)" stroke="#aaa" stroke-width="4.58" stroke-linejoin="round"/>
  <polygon points="119.75,357.14 100.28,323.43 61.35,323.43 41.89,357.14 61.35,390.86 100.28,390.86" fill="rgb(209,139,71)" stroke="#aaa" stroke-width="4.58" stroke-linejoin="round"/>
  <polygon points="178.14,390.86 158.68,357.14 119.75,357.14 100.28,390.86 119.75,424.57 158.68,424.57" fill="rgb(232,171,111)" stroke="#aaa" stroke-width="4.58" stroke-linejoin="round"/>
  <polygon points="236.54,424.57 217.07,390.86 178.14,390.86 158.68,424.57 178.14,458.29 217.07,458.29" fill="rgb(255,206,158)" stroke="#aaa" stroke-width="4.58" stroke-linejoin="round"/>
  <polygon points="294.93,458.29 275.46,424.57 236.54,424.57 217.07,458.29 236.54,492.00 275.46,492.00" fill="rgb(209,139,71)" stroke="#aaa" stroke-width="4.58" stroke-linejoin="round"/>
</svg>
