<svg xmlns="http://www.w3.org/2000/svg" viewBox="0 0 512 512" role="img" aria-label="Empty Castles hex board">
  <rect width="512" height="512" fill="rgb(246,241,209)"/>
  <defs>
    <filter id="shadow" x="-20%" y="-20%" width="140%" height="140%">
      <feGaussianBlur in="SourceAlpha" stdDeviation="2.57"/>
      <feOffset dx="-1.03" dy="-1.03" result="offsetblur"/>
      <feFlood flood-color="rgba(0,0,0,0.5)"/>
      <feComposite in2="offsetblur" operator="in"/>
      <feMerge>
        <feMergeNode/>
        <feMergeNode in="SourceGraphic"/>
      </feMerge>
    </filter>
  </defs>
  <polygon points="72.54,172.38 62.89,155.65 43.57,155.65 33.92,172.38 43.57,189.1 62.89,189.1" fill="rgb(209,139,71)" stroke="#aaa" stroke-width="2.05" stroke-linejoin="round"/>
  <polygon points="72.54,205.83 62.89,189.1 43.57,189.1 33.92,205.83 43.57,222.55 62.89,222.55" fill="rgb(232,171,111)" stroke="#aaa" stroke-width="2.05" stroke-linejoin="round"/>
  <polygon points="72.54,239.28 62.89,222.55 43.57,222.55 33.92,239.28 43.57,256 62.89,256" fill="rgb(255,206,158)" stroke="#aaa" stroke-width="2.05" stroke-linejoin="round"/>
  <polygon points="72.54,272.72 62.89,256 43.57,256 33.92,272.72 43.57,289.45 62.89,289.45" fill="rgb(209,139,71)" stroke="#aaa" stroke-width="2.05" stroke-linejoin="round"/>
  <polygon points="72.54,306.17 62.89,289.45 43.57,289.45 33.92,306.17 43.57,322.9 62.89,322.9" fill="rgb(232,171,111)" stroke="#aaa" stroke-width="2.05" stroke-linejoin="round"/>
  <polygon points="72.54,339.62 62.89,322.9 43.57,322.9 33.92,339.62 43.57,356.35 62.89,356.35" fill="rgb(255,206,158)" stroke="#aaa" stroke-width="2.05" stroke-linejoin="round"/>
  <polygon points="101.51,122.21 91.85,105.48 72.54,105.48 62.89,122.21 72.54,138.93 91.85,138.93" fill="rgb(209,139,71)" stroke="#aaa" stroke-width="2.05" stroke-linejoin="round"/>
  <polygon points="101.51,155.65 91.85,138.93 72.54,138.93 62.89,155.65 72.54,172.38 91.85,172.38" fill="rgb(56,175,205)" stroke="#aaa" stroke-width="2.05" stroke-linejoin="round"/>
  <polygon points="101.51,189.1 91.85,172.38 72.54,172.38 62.89,189.1 72.54,205.83 91.85,205.83" fill="rgb(255,206,158)" stroke="#aaa" stroke-width="2.05" stroke-linejoin="round"/>
  <polygon points="101.51,222.55 91.85,205.83 72.54,205.83 62.89,222.55 72.54,239.28 91.85,239.28" fill="rgb(209,139,71)" stroke="#aaa" stroke-width="2.05" stroke-linejoin="round"/>
  <polygon points="101.51,256 91.85,239.28 72.54,239.28 62.89,256 72.54,272.72 91.85,272.72" fill="rgb(232,171,111)" stroke="#aaa" stroke-width="2.05" stroke-linejoin="round"/>
  <polygon points="101.51,289.45 91.85,272.72 72.54,272.72 62.89,289.45 72.54,306.17 91.85,306.17" fill="rgb(255,206,158)" stroke="#aaa" stroke-width="2.05" stroke-linejoin="round"/>
  <polygon points="101.51,322.9 91.85,306.17 72.54,306.17 62.89,322.9 72.54,339.62 91.85,339.62" fill="rgb(209,139,71)" stroke="#aaa" stroke-width="2.05" stroke-linejoin="round"/>
  <polygon points="101.51,356.35 91.85,339.62 72.54,339.62 62.89,356.35 72.54,373.07 91.85,373.07" fill="rgb(232,171,111)" stroke="#aaa" stroke-width="2.05" stroke-linejoin="round"/>
  <polygon points="101.51,389.79 91.85,373.07 72.54,373.07 62.89,389.79 72.54,406.52 91.85,406.52" fill="rgb(255,206,158)" stroke="#aaa" stroke-width="2.05" stroke-linejoin="round"/>
  <polygon points="130.48,105.48 120.82,88.76 101.51,88.76 91.85,105.48 101.51,122.21 120.82,122.21" fill="rgb(232,171,111)" stroke="#aaa" stroke-width="2.05" stroke-linejoin="round"/>
  <polygon points="130.48,138.93 120.82,122.21 101.51,122.21 91.85,138.93 101.51,155.65 120.82,155.65" fill="rgb(255,206,158)" stroke="#aaa" stroke-width="2.05" stroke-linejoin="round"/>
  <polygon points="130.48,172.38 120.82,155.65 101.51,155.65 91.85,172.38 101.51,189.1 120.82,189.1" fill="rgb(139,69,19)" stroke="#aaa" stroke-width="2.05" stroke-linejoin="round" filter="url(#shadow)"/>
  <polygon points="130.48,205.83 120.82,189.1 101.51,189.1 91.85,205.83 101.51,222.55 120.82,222.55" fill="rgb(232,171,111)" stroke="#aaa" stroke-width="2.05" stroke-linejoin="round"/>
  <polygon points="130.48,239.28 120.82,222.55 101.51,222.55 91.85,239.28 101.51,256 120.82,256" fill="rgb(255,206,158)" stroke="#aaa" stroke-width="2.05" stroke-linejoin="round"/>
  <polygon points="130.48,272.72 120.82,256 101.51,256 91.85,272.72 101.51,289.45 120.82,289.45" fill="rgb(209,139,71)" stroke="#aaa" stroke-width="2.05" stroke-linejoin="round"/>
  <polygon points="130.48,306.17 120.82,289.45 101.51,289.45 91.85,306.17 101.51,322.9 120.82,322.9" fill="rgb(232,171,111)" stroke="#aaa" stroke-width="2.05" stroke-linejoin="round"/>
  <polygon points="130.48,339.62 120.82,322.9 101.51,322.9 91.85,339.62 101.51,356.35 120.82,356.35" fill="rgb(175,87,24)" stroke="#aaa" stroke-width="2.05" stroke-linejoin="round" filter="url(#shadow)"/>
  <polygon points="130.48,373.07 120.82,356.35 101.51,356.35 91.85,373.07 101.51,389.79 120.82,389.79" fill="rgb(209,139,71)" stroke="#aaa" stroke-width="2.05" stroke-linejoin="round"/>
  <polygon points="130.48,406.52 120.82,389.79 101.51,389.79 91.85,406.52 101.51,423.24 120.82,423.24" fill="rgb(232,171,111)" stroke="#aaa" stroke-width="2.05" stroke-linejoin="round"/>
  <polygon points="159.44,88.76 149.79,72.03 130.48,72.03 120.82,88.76 130.48,105.48 149.79,105.48" fill="rgb(255,206,158)" stroke="#aaa" stroke-width="2.05" stroke-linejoin="round"/>
  <polygon points="159.44,122.21 149.79,105.48 130.48,105.48 120.82,122.21 130.48,138.93 149.79,138.93" fill="rgb(209,139,71)" stroke="#aaa" stroke-width="2.05" stroke-linejoin="round"/>
  <polygon points="159.44,155.65 149.79,138.93 130.48,138.93 120.82,155.65 130.48,172.38 149.79,172.38" fill="rgb(232,171,111)" stroke="#aaa" stroke-width="2.05" stroke-linejoin="round"/>
  <polygon points="159.44,189.1 149.79,172.38 130.48,172.38 120.82,189.1 130.48,205.83 149.79,205.83" fill="rgb(255,206,158)" stroke="#aaa" stroke-width="2.05" stroke-linejoin="round"/>
  <polygon points="159.44,222.55 149.79,205.83 130.48,205.83 120.82,222.55 130.48,239.28 149.79,239.28" fill="rgb(209,139,71)" stroke="#aaa" stroke-width="2.05" stroke-linejoin="round"/>
  <polygon points="159.44,256 149.79,239.28 130.48,239.28 120.82,256 130.48,272.72 149.79,272.72" fill="rgb(232,171,111)" stroke="#aaa" stroke-width="2.05" stroke-linejoin="round"/>
  <polygon points="159.44,289.45 149.79,272.72 130.48,272.72 120.82,289.45 130.48,306.17 149.79,306.17" fill="rgb(255,206,158)" stroke="#aaa" stroke-width="2.05" stroke-linejoin="round"/>
  <polygon points="159.44,322.9 149.79,306.17 130.48,306.17 120.82,322.9 130.48,339.62 149.79,339.62" fill="rgb(209,139,71)" stroke="#aaa" stroke-width="2.05" stroke-linejoin="round"/>
  <polygon points="159.44,356.35 149.79,339.62 130.48,339.62 120.82,356.35 130.48,373.07 149.79,373.07" fill="rgb(232,171,111)" stroke="#aaa" stroke-width="2.05" stroke-linejoin="round"/>
  <polygon points="159.44,389.79 149.79,373.07 130.48,373.07 120.82,389.79 130.48,406.52 149.79,406.52" fill="rgb(255,206,158)" stroke="#aaa" stroke-width="2.05" stroke-linejoin="round"/>
  <polygon points="159.44,423.24 149.79,406.52 130.48,406.52 120.82,423.24 130.48,439.97 149.79,439.97" fill="rgb(209,139,71)" stroke="#aaa" stroke-width="2.05" stroke-linejoin="round"/>
  <polygon points="188.41,72.03 178.75,55.31 159.44,55.31 149.79,72.03 159.44,88.76 178.75,88.76" fill="rgb(209,139,71)" stroke="#aaa" stroke-width="2.05" stroke-linejoin="round"/>
  <polygon points="188.41,105.48 178.75,88.76 159.44,88.76 149.79,105.48 159.44,122.21 178.75,122.21" fill="rgb(232,171,111)" stroke="#aaa" stroke-width="2.05" stroke-linejoin="round"/>
  <polygon points="188.41,138.93 178.75,122.21 159.44,122.21 149.79,138.93 159.44,155.65 178.75,155.65" fill="rgb(255,206,158)" stroke="#aaa" stroke-width="2.05" stroke-linejoin="round"/>
  <polygon points="188.41,172.38 178.75,155.65 159.44,155.65 149.79,172.38 159.44,189.1 178.75,189.1" fill="rgb(209,139,71)" stroke="#aaa" stroke-width="2.05" stroke-linejoin="round"/>
  <polygon points="188.41,205.83 178.75,189.1 159.44,189.1 149.79,205.83 159.44,222.55 178.75,222.55" fill="rgb(56,175,205)" stroke="#aaa" stroke-width="2.05" stroke-linejoin="round"/>
  <polygon points="188.41,239.28 178.75,222.55 159.44,222.55 149.79,239.28 159.44,256 178.75,256" fill="rgb(255,206,158)" stroke="#aaa" stroke-width="2.05" stroke-linejoin="round"/>
  <polygon points="188.41,272.72 178.75,256 159.44,256 149.79,272.72 159.44,289.45 178.75,289.45" fill="rgb(209,139,71)" stroke="#aaa" stroke-width="2.05" stroke-linejoin="round"/>
  <polygon points="188.41,306.17 178.75,289.45 159.44,289.45 149.79,306.17 159.44,322.9 178.75,322.9" fill="rgb(232,171,111)" stroke="#aaa" stroke-width="2.05" stroke-linejoin="round"/>
  <polygon points="188.41,339.62 178.75,322.9 159.44,322.9 149.79,339.62 159.44,356.35 178.75,356.35" fill="rgb(255,206,158)" stroke="#aaa" stroke-width="2.05" stroke-linejoin="round"/>
  <polygon points="188.41,373.07 178.75,356.35 159.44,356.35 149.79,373.07 159.44,389.79 178.75,389.79" fill="rgb(209,139,71)" stroke="#aaa" stroke-width="2.05" stroke-linejoin="round"/>
  <polygon points="188.41,406.52 178.75,389.79 159.44,389.79 149.79,406.52 159.44,423.24 178.75,423.24" fill="rgb(232,171,111)" stroke="#aaa" stroke-width="2.05" stroke-linejoin="round"/>
  <polygon points="188.41,439.97 178.75,423.24 159.44,423.24 149.79,439.97 159.44,456.69 178.75,456.69" fill="rgb(255,206,158)" stroke="#aaa" stroke-width="2.05" stroke-linejoin="round"/>
  <polygon points="217.38,55.31 207.72,38.59 188.41,38.59 178.75,55.31 188.41,72.03 207.72,72.03" fill="rgb(232,171,111)" stroke="#aaa" stroke-width="2.05" stroke-linejoin="round"/>
  <polygon points="217.38,88.76 207.72,72.03 188.41,72.03 178.75,88.76 188.41,105.48 207.72,105.48" fill="rgb(255,206,158)" stroke="#aaa" stroke-width="2.05" stroke-linejoin="round"/>
  <polygon points="217.38,122.21 207.72,105.48 188.41,105.48 178.75,122.21 188.41,138.93 207.72,138.93" fill="rgb(209,139,71)" stroke="#aaa" stroke-width="2.05" stroke-linejoin="round"/>
  <polygon points="217.38,155.65 207.72,138.93 188.41,138.93 178.75,155.65 188.41,172.38 207.72,172.38" fill="rgb(232,171,111)" stroke="#aaa" stroke-width="2.05" stroke-linejoin="round"/>
  <polygon points="217.38,189.1 207.72,172.38 188.41,172.38 178.75,189.1 188.41,205.83 207.72,205.83" fill="rgb(255,206,158)" stroke="#aaa" stroke-width="2.05" stroke-linejoin="round"/>
  <polygon points="217.38,222.55 207.72,205.83 188.41,205.83 178.75,222.55 188.41,239.28 207.72,239.28" fill="rgb(56,175,205)" stroke="#aaa" stroke-width="2.05" stroke-linejoin="round"/>
  <polygon points="217.38,256 207.72,239.28 188.41,239.28 178.75,256 188.41,272.72 207.72,272.72" fill="rgb(232,171,111)" stroke="#aaa" stroke-width="2.05" stroke-linejoin="round"/>
  <polygon points="217.38,289.45 207.72,272.72 188.41,272.72 178.75,289.45 188.41,306.17 207.72,306.17" fill="rgb(255,206,158)" stroke="#aaa" stroke-width="2.05" stroke-linejoin="round"/>
  <polygon points="217.38,322.9 207.72,306.17 188.41,306.17 178.75,322.9 188.41,339.62 207.72,339.62" fill="rgb(209,139,71)" stroke="#aaa" stroke-width="2.05" stroke-linejoin="round"/>
  <polygon points="217.38,356.35 207.72,339.62 188.41,339.62 178.75,356.35 188.41,373.07 207.72,373.07" fill="rgb(232,171,111)" stroke="#aaa" stroke-width="2.05" stroke-linejoin="round"/>
  <polygon points="217.38,389.79 207.72,373.07 188.41,373.07 178.75,389.79 188.41,406.52 207.72,406.52" fill="rgb(255,206,158)" stroke="#aaa" stroke-width="2.05" stroke-linejoin="round"/>
  <polygon points="217.38,423.24 207.72,406.52 188.41,406.52 178.75,423.24 188.41,439.97 207.72,439.97" fill="rgb(209,139,71)" stroke="#aaa" stroke-width="2.05" stroke-linejoin="round"/>
  <polygon points="217.38,456.69 207.72,439.97 188.41,439.97 178.75,456.69 188.41,473.41 207.72,473.41" fill="rgb(232,171,111)" stroke="#aaa" stroke-width="2.05" stroke-linejoin="round"/>
  <polygon points="246.34,38.59 236.69,21.86 217.38,21.86 207.72,38.59 217.38,55.31 236.69,55.31" fill="rgb(255,206,158)" stroke="#aaa" stroke-width="2.05" stroke-linejoin="round"/>
  <polygon points="246.34,72.03 236.69,55.31 217.38,55.31 207.72,72.03 217.38,88.76 236.69,88.76" fill="rgb(209,139,71)" stroke="#aaa" stroke-width="2.05" stroke-linejoin="round"/>
  <polygon points="246.34,105.48 236.69,88.76 217.38,88.76 207.72,105.48 217.38,122.21 236.69,122.21" fill="rgb(232,171,111)" stroke="#aaa" stroke-width="2.05" stroke-linejoin="round"/>
  <polygon points="246.34,138.93 236.69,122.21 217.38,122.21 207.72,138.93 217.38,155.65 236.69,155.65" fill="rgb(255,206,158)" stroke="#aaa" stroke-width="2.05" stroke-linejoin="round"/>
  <polygon points="246.34,172.38 236.69,155.65 217.38,155.65 207.72,172.38 217.38,189.1 236.69,189.1" fill="rgb(209,139,71)" stroke="#aaa" stroke-width="2.05" stroke-linejoin="round"/>
  <polygon points="246.34,205.83 236.69,189.1 217.38,189.1 207.72,205.83 217.38,222.55 236.69,222.55" fill="rgb(232,171,111)" stroke="#aaa" stroke-width="2.05" stroke-linejoin="round"/>
  <polygon points="246.34,239.28 236.69,222.55 217.38,222.55 207.72,239.28 217.38,256 236.69,256" fill="rgb(255,206,158)" stroke="#aaa" stroke-width="2.05" stroke-linejoin="round"/>
  <polygon points="246.34,272.72 236.69,256 217.38,256 207.72,272.72 217.38,289.45 236.69,289.45" fill="rgb(209,139,71)" stroke="#aaa" stroke-width="2.05" stroke-linejoin="round"/>
  <polygon points="246.34,306.17 236.69,289.45 217.38,289.45 207.72,306.17 217.38,322.9 236.69,322.9" fill="rgb(232,171,111)" stroke="#aaa" stroke-width="2.05" stroke-linejoin="round"/>
  <polygon points="246.34,339.62 236.69,322.9 217.38,322.9 207.72,339.62 217.38,356.35 236.69,356.35" fill="rgb(255,206,158)" stroke="#aaa" stroke-width="2.05" stroke-linejoin="round"/>
  <polygon points="246.34,373.07 236.69,356.35 217.38,356.35 207.72,373.07 217.38,389.79 236.69,389.79" fill="rgb(209,139,71)" stroke="#aaa" stroke-width="2.05" stroke-linejoin="round"/>
  <polygon points="246.34,406.52 236.69,389.79 217.38,389.79 207.72,406.52 217.38,423.24 236.69,423.24" fill="rgb(232,171,111)" stroke="#aaa" stroke-width="2.05" stroke-linejoin="round"/>
  <polygon points="246.34,439.97 236.69,423.24 217.38,423.24 207.72,439.97 217.38,456.69 236.69,456.69" fill="rgb(255,206,158)" stroke="#aaa" stroke-width="2.05" stroke-linejoin="round"/>
  <polygon points="246.34,473.41 236.69,456.69 217.38,456.69 207.72,473.41 217.38,490.14 236.69,490.14" fill="rgb(209,139,71)" stroke="#aaa" stroke-width="2.05" stroke-linejoin="round"/>
  <polygon points="275.31,55.31 265.66,38.59 246.34,38.59 236.69,55.31 246.34,72.03 265.66,72.03" fill="rgb(232,171,111)" stroke="#aaa" stroke-width="2.05" stroke-linejoin="round"/>
  <polygon points="275.31,88.76 265.66,72.03 246.34,72.03 236.69,88.76 246.34,105.48 265.66,105.48" fill="rgb(175,87,24)" stroke="#aaa" stroke-width="2.05" stroke-linejoin="round" filter="url(#shadow)"/>
  <polygon points="275.31,122.21 265.66,105.48 246.34,105.48 236.69,122.21 246.34,138.93 265.66,138.93" fill="rgb(209,139,71)" stroke="#aaa" stroke-width="2.05" stroke-linejoin="round"/>
  <polygon points="275.31,155.65 265.66,138.93 246.34,138.93 236.69,155.65 246.34,172.38 265.66,172.38" fill="rgb(232,171,111)" stroke="#aaa" stroke-width="2.05" stroke-linejoin="round"/>
  <polygon points="275.31,189.1 265.66,172.38 246.34,172.38 236.69,189.1 246.34,205.83 265.66,205.83" fill="rgb(255,206,158)" stroke="#aaa" stroke-width="2.05" stroke-linejoin="round"/>
  <polygon points="275.31,222.55 265.66,205.83 246.34,205.83 236.69,222.55 246.34,239.28 265.66,239.28" fill="rgb(209,139,71)" stroke="#aaa" stroke-width="2.05" stroke-linejoin="round"/>
  <polygon points="275.31,256 265.66,239.28 246.34,239.28 236.69,256 246.34,272.72 265.66,272.72" fill="rgb(232,171,111)" stroke="#aaa" stroke-width="2.05" stroke-linejoin="round"/>
  <polygon points="275.31,289.45 265.66,272.72 246.34,272.72 236.69,289.45 246.34,306.17 265.66,306.17" fill="rgb(255,206,158)" stroke="#aaa" stroke-width="2.05" stroke-linejoin="round"/>
  <polygon points="275.31,322.9 265.66,306.17 246.34,306.17 236.69,322.9 246.34,339.62 265.66,339.62" fill="rgb(209,139,71)" stroke="#aaa" stroke-width="2.05" stroke-linejoin="round"/>
  <polygon points="275.31,356.35 265.66,339.62 246.34,339.62 236.69,356.35 246.34,373.07 265.66,373.07" fill="rgb(232,171,111)" stroke="#aaa" stroke-width="2.05" stroke-linejoin="round"/>
  <polygon points="275.31,389.79 265.66,373.07 246.34,373.07 236.69,389.79 246.34,406.52 265.66,406.52" fill="rgb(255,206,158)" stroke="#aaa" stroke-width="2.05" stroke-linejoin="round"/>
  <polygon points="275.31,423.24 265.66,406.52 246.34,406.52 236.69,423.24 246.34,439.97 265.66,439.97" fill="rgb(139,69,19)" stroke="#aaa" stroke-width="2.05" stroke-linejoin="round" filter="url(#shadow)"/>
  <polygon points="275.31,456.69 265.66,439.97 246.34,439.97 236.69,456.69 246.34,473.41 265.66,473.41" fill="rgb(232,171,111)" stroke="#aaa" stroke-width="2.05" stroke-linejoin="round"/>
  <polygon points="304.28,38.59 294.62,21.86 275.31,21.86 265.66,38.59 275.31,55.31 294.62,55.31" fill="rgb(255,206,158)" stroke="#aaa" stroke-width="2.05" stroke-linejoin="round"/>
  <polygon points="304.28,72.03 294.62,55.31 275.31,55.31 265.66,72.03 275.31,88.76 294.62,88.76" fill="rgb(209,139,71)" stroke="#aaa" stroke-width="2.05" stroke-linejoin="round"/>
  <polygon points="304.28,105.48 294.62,88.76 275.31,88.76 265.66,105.48 275.31,122.21 294.62,122.21" fill="rgb(232,171,111)" stroke="#aaa" stroke-width="2.05" stroke-linejoin="round"/>
  <polygon points="304.28,138.93 294.62,122.21 275.31,122.21 265.66,138.93 275.31,155.65 294.62,155.65" fill="rgb(255,206,158)" stroke="#aaa" stroke-width="2.05" stroke-linejoin="round"/>
  <polygon points="304.28,172.38 294.62,155.65 275.31,155.65 265.66,172.38 275.31,189.1 294.62,189.1" fill="rgb(209,139,71)" stroke="#aaa" stroke-width="2.05" stroke-linejoin="round"/>
  <polygon points="304.28,205.83 294.62,189.1 275.31,189.1 265.66,205.83 275.31,222.55 294.62,222.55" fill="rgb(232,171,111)" stroke="#aaa" stroke-width="2.05" stroke-linejoin="round"/>
  <polygon points="304.28,239.28 294.62,222.55 275.31,222.55 265.66,239.28 275.31,256 294.62,256" fill="rgb(255,206,158)" stroke="#aaa" stroke-width="2.05" stroke-linejoin="round"/>
  <polygon points="304.28,272.72 294.62,256 275.31,256 265.66,272.72 275.31,289.45 294.62,289.45" fill="rgb(209,139,71)" stroke="#aaa" stroke-width="2.05" stroke-linejoin="round"/>
  <polygon points="304.28,306.17 294.62,289.45 275.31,289.45 265.66,306.17 275.31,322.9 294.62,322.9" fill="rgb(232,171,111)" stroke="#aaa" stroke-width="2.05" stroke-linejoin="round"/>
  <polygon points="304.28,339.62 294.62,322.9 275.31,322.9 265.66,339.62 275.31,356.35 294.62,356.35" fill="rgb(255,206,158)" stroke="#aaa" stroke-width="2.05" stroke-linejoin="round"/>
  <polygon points="304.28,373.07 294.62,356.35 275.31,356.35 265.66,373.07 275.31,389.79 294.62,389.79" fill="rgb(209,139,71)" stroke="#aaa" stroke-width="2.05" stroke-linejoin="round"/>
  <polygon points="304.28,406.52 294.62,389.79 275.31,389.79 265.66,406.52 275.31,423.24 294.62,423.24" fill="rgb(232,171,111)" stroke="#aaa" stroke-width="2.05" stroke-linejoin="round"/>
  <polygon points="304.28,439.97 294.62,423.24 275.31,423.24 265.66,439.97 275.31,456.69 294.62,456.69" fill="rgb(255,206,158)" stroke="#aaa" stroke-width="2.05" stroke-linejoin="round"/>
  <polygon points="304.28,473.41 294.62,456.69 275.31,456.69 265.66,473.41 275.31,490.14 294.62,490.14" fill="rgb(209,139,71)" stroke="#aaa" stroke-width="2.05" stroke-linejoin="round"/>
  <polygon points="333.25,55.31 323.59,38.59 304.28,38.59 294.62,55.31 304.28,72.03 323.59,72.03" fill="rgb(232,171,111)" stroke="#aaa" stroke-width="2.05" stroke-linejoin="round"/>
  <polygon points="333.25,88.76 323.59,72.03 304.28,72.03 294.62,88.76 304.28,105.48 323.59,105.48" fill="rgb(255,206,158)" stroke="#aaa" stroke-width="2.05" stroke-linejoin="round"/>
  <polygon points="333.25,122.21 323.59,105.48 304.28,105.48 294.62,122.21 304.28,138.93 323.59,138.93" fill="rgb(209,139,71)" stroke="#aaa" stroke-width="2.05" stroke-linejoin="round"/>
  <polygon points="333.25,155.65 323.59,138.93 304.28,138.93 294.62,155.65 304.28,172.38 323.59,172.38" fill="rgb(232,171,111)" stroke="#aaa" stroke-width="2.05" stroke-linejoin="round"/>
  <polygon points="333.25,189.1 323.59,172.38 304.28,172.38 294.62,189.1 304.28,205.83 323.59,205.83" fill="rgb(255,206,158)" stroke="#aaa" stroke-width="2.05" stroke-linejoin="round"/>
  <polygon points="333.25,222.55 323.59,205.83 304.28,205.83 294.62,222.55 304.28,239.28 323.59,239.28" fill="rgb(209,139,71)" stroke="#aaa" stroke-width="2.05" stroke-linejoin="round"/>
  <polygon points="333.25,256 323.59,239.28 304.28,239.28 294.62,256 304.28,272.72 323.59,272.72" fill="rgb(232,171,111)" stroke="#aaa" stroke-width="2.05" stroke-linejoin="round"/>
  <polygon points="333.25,289.45 323.59,272.72 304.28,272.72 294.62,289.45 304.28,306.17 323.59,306.17" fill="rgb(56,175,205)" stroke="#aaa" stroke-width="2.05" stroke-linejoin="round"/>
  <polygon points="333.25,322.9 323.59,306.17 304.28,306.17 294.62,322.9 304.28,339.62 323.59,339.62" fill="rgb(209,139,71)" stroke="#aaa" stroke-width="2.05" stroke-linejoin="round"/>
  <polygon points="333.25,356.35 323.59,339.62 304.28,339.62 294.62,356.35 304.28,373.07 323.59,373.07" fill="rgb(232,171,111)" stroke="#aaa" stroke-width="2.05" stroke-linejoin="round"/>
  <polygon points="333.25,389.79 323.59,373.07 304.28,373.07 294.62,389.79 304.28,406.52 323.59,406.52" fill="rgb(255,206,158)" stroke="#aaa" stroke-width="2.05" stroke-linejoin="round"/>
  <polygon points="333.25,423.24 323.59,406.52 304.28,406.52 294.62,423.24 304.28,439.97 323.59,439.97" fill="rgb(209,139,71)" stroke="#aaa" stroke-width="2.05" stroke-linejoin="round"/>
  <polygon points="333.25,456.69 323.59,439.97 304.28,439.97 294.62,456.69 304.28,473.41 323.59,473.41" fill="rgb(232,171,111)" stroke="#aaa" stroke-width="2.05" stroke-linejoin="round"/>
  <polygon points="362.21,72.03 352.56,55.31 333.25,55.31 323.59,72.03 333.25,88.76 352.56,88.76" fill="rgb(209,139,71)" stroke="#aaa" stroke-width="2.05" stroke-linejoin="round"/>
  <polygon points="362.21,105.48 352.56,88.76 333.25,88.76 323.59,105.48 333.25,122.21 352.56,122.21" fill="rgb(232,171,111)" stroke="#aaa" stroke-width="2.05" stroke-linejoin="round"/>
  <polygon points="362.21,138.93 352.56,122.21 333.25,122.21 323.59,138.93 333.25,155.65 352.56,155.65" fill="rgb(255,206,158)" stroke="#aaa" stroke-width="2.05" stroke-linejoin="round"/>
  <polygon points="362.21,172.38 352.56,155.65 333.25,155.65 323.59,172.38 333.25,189.1 352.56,189.1" fill="rgb(209,139,71)" stroke="#aaa" stroke-width="2.05" stroke-linejoin="round"/>
  <polygon points="362.21,205.83 352.56,189.1 333.25,189.1 323.59,205.83 333.25,222.55 352.56,222.55" fill="rgb(232,171,111)" stroke="#aaa" stroke-width="2.05" stroke-linejoin="round"/>
  <polygon points="362.21,239.28 352.56,222.55 333.25,222.55 323.59,239.28 333.25,256 352.56,256" fill="rgb(255,206,158)" stroke="#aaa" stroke-width="2.05" stroke-linejoin="round"/>
  <polygon points="362.21,272.72 352.56,256 333.25,256 323.59,272.72 333.25,289.45 352.56,289.45" fill="rgb(209,139,71)" stroke="#aaa" stroke-width="2.05" stroke-linejoin="round"/>
  <polygon points="362.21,306.17 352.56,289.45 333.25,289.45 323.59,306.17 333.25,322.9 352.56,322.9" fill="rgb(56,175,205)" stroke="#aaa" stroke-width="2.05" stroke-linejoin="round"/>
  <polygon points="362.21,339.62 352.56,322.9 333.25,322.9 323.59,339.62 333.25,356.35 352.56,356.35" fill="rgb(255,206,158)" stroke="#aaa" stroke-width="2.05" stroke-linejoin="round"/>
  <polygon points="362.21,373.07 352.56,356.35 333.25,356.35 323.59,373.07 333.25,389.79 352.56,389.79" fill="rgb(209,139,71)" stroke="#aaa" stroke-width="2.05" stroke-linejoin="round"/>
  <polygon points="362.21,406.52 352.56,389.79 333.25,389.79 323.59,406.52 333.25,423.24 352.56,423.24" fill="rgb(232,171,111)" stroke="#aaa" stroke-width="2.05" stroke-linejoin="round"/>
  <polygon points="362.21,439.97 352.56,423.24 333.25,423.24 323.59,439.97 333.25,456.69 352.56,456.69" fill="rgb(255,206,158)" stroke="#aaa" stroke-width="2.05" stroke-linejoin="round"/>
  <polygon points="391.18,88.76 381.52,72.03 362.21,72.03 352.56,88.76 362.21,105.48 381.52,105.48" fill="rgb(255,206,158)" stroke="#aaa" stroke-width="2.05" stroke-linejoin="round"/>
  <polygon points="391.18,122.21 381.52,105.48 362.21,105.48 352.56,122.21 362.21,138.93 381.52,138.93" fill="rgb(209,139,71)" stroke="#aaa" stroke-width="2.05" stroke-linejoin="round"/>
  <polygon points="391.18,155.65 381.52,138.93 362.21,138.93 352.56,155.65 362.21,172.38 381.52,172.38" fill="rgb(232,171,111)" stroke="#aaa" stroke-width="2.05" stroke-linejoin="round"/>
  <polygon points="391.18,189.1 381.52,172.38 362.21,172.38 352.56,189.1 362.21,205.83 381.52,205.83" fill="rgb(255,206,158)" stroke="#aaa" stroke-width="2.05" stroke-linejoin="round"/>
  <polygon points="391.18,222.55 381.52,205.83 362.21,205.83 352.56,222.55 362.21,239.28 381.52,239.28" fill="rgb(209,139,71)" stroke="#aaa" stroke-width="2.05" stroke-linejoin="round"/>
  <polygon points="391.18,256 381.52,239.28 362.21,239.28 352.56,256 362.21,272.72 381.52,272.72" fill="rgb(232,171,111)" stroke="#aaa" stroke-width="2.05" stroke-linejoin="round"/>
  <polygon points="391.18,289.45 381.52,272.72 362.21,272.72 352.56,289.45 362.21,306.17 381.52,306.17" fill="rgb(255,206,158)" stroke="#aaa" stroke-width="2.05" stroke-linejoin="round"/>
  <polygon points="391.18,322.9 381.52,306.17 362.21,306.17 352.56,322.9 362.21,339.62 381.52,339.62" fill="rgb(209,139,71)" stroke="#aaa" stroke-width="2.05" stroke-linejoin="round"/>
  <polygon points="391.18,356.35 381.52,339.62 362.21,339.62 352.56,356.35 362.21,373.07 381.52,373.07" fill="rgb(232,171,111)" stroke="#aaa" stroke-width="2.05" stroke-linejoin="round"/>
  <polygon points="391.18,389.79 381.52,373.07 362.21,373.07 352.56,389.79 362.21,406.52 381.52,406.52" fill="rgb(255,206,158)" stroke="#aaa" stroke-width="2.05" stroke-linejoin="round"/>
  <polygon points="391.18,423.24 381.52,406.52 362.21,406.52 352.56,423.24 362.21,439.97 381.52,439.97" fill="rgb(209,139,71)" stroke="#aaa" stroke-width="2.05" stroke-linejoin="round"/>
  <polygon points="420.15,105.48 410.49,88.76 391.18,88.76 381.52,105.48 391.18,122.21 410.49,122.21" fill="rgb(232,171,111)" stroke="#aaa" stroke-width="2.05" stroke-linejoin="round"/>
  <polygon points="420.15,138.93 410.49,122.21 391.18,122.21 381.52,138.93 391.18,155.65 410.49,155.65" fill="rgb(255,206,158)" stroke="#aaa" stroke-width="2.05" stroke-linejoin="round"/>
  <polygon points="420.15,172.38 410.49,155.65 391.18,155.65 381.52,172.38 391.18,189.1 410.49,189.1" fill="rgb(139,69,19)" stroke="#aaa" stroke-width="2.05" stroke-linejoin="round" filter="url(#shadow)"/>
  <polygon points="420.15,205.83 410.49,189.1 391.18,189.1 381.52,205.83 391.18,222.55 410.49,222.55" fill="rgb(232,171,111)" stroke="#aaa" stroke-width="2.05" stroke-linejoin="round"/>
  <polygon points="420.15,239.28 410.49,222.55 391.18,222.55 381.52,239.28 391.18,256 410.49,256" fill="rgb(255,206,158)" stroke="#aaa" stroke-width="2.05" stroke-linejoin="round"/>
  <polygon points="420.15,272.72 410.49,256 391.18,256 381.52,272.72 391.18,289.45 410.49,289.45" fill="rgb(209,139,71)" stroke="#aaa" stroke-width="2.05" stroke-linejoin="round"/>
  <polygon points="420.15,306.17 410.49,289.45 391.18,289.45 381.52,306.17 391.18,322.9 410.49,322.9" fill="rgb(232,171,111)" stroke="#aaa" stroke-width="2.05" stroke-linejoin="round"/>
  <polygon points="420.15,339.62 410.49,322.9 391.18,322.9 381.52,339.62 391.18,356.35 410.49,356.35" fill="rgb(175,87,24)" stroke="#aaa" stroke-width="2.05" stroke-linejoin="round" filter="url(#shadow)"/>
  <polygon points="420.15,373.07 410.49,356.35 391.18,356.35 381.52,373.07 391.18,389.79 410.49,389.79" fill="rgb(209,139,71)" stroke="#aaa" stroke-width="2.05" stroke-linejoin="round"/>
  <polygon points="420.15,406.52 410.49,389.79 391.18,389.79 381.52,406.52 391.18,423.24 410.49,423.24" fill="rgb(232,171,111)" stroke="#aaa" stroke-width="2.05" stroke-linejoin="round"/>
  <polygon points="449.11,122.21 439.46,105.48 420.15,105.48 410.49,122.21 420.15,138.93 439.46,138.93" fill="rgb(209,139,71)" stroke="#aaa" stroke-width="2.05" stroke-linejoin="round"/>
  <polygon points="449.11,155.65 439.46,138.93 420.15,138.93 410.49,155.65 420.15,172.38 439.46,172.38" fill="rgb(232,171,111)" stroke="#aaa" stroke-width="2.05" stroke-linejoin="round"/>
  <polygon points="449.11,189.1 439.46,172.38 420.15,172.38 410.49,189.1 420.15,205.83 439.46,205.83" fill="rgb(255,206,158)" stroke="#aaa" stroke-width="2.05" stroke-linejoin="round"/>
  <polygon points="449.11,222.55 439.46,205.83 420.15,205.83 410.49,222.55 420.15,239.28 439.46,239.28" fill="rgb(209,139,71)" stroke="#aaa" stroke-width="2.05" stroke-linejoin="round"/>
  <polygon points="449.11,256 439.46,239.28 420.15,239.28 410.49,256 420.15,272.72 439.46,272.72" fill="rgb(232,171,111)" stroke="#aaa" stroke-width="2.05" stroke-linejoin="round"/>
  <polygon points="449.11,289.45 439.46,272.72 420.15,272.72 410.49,289.45 420.15,306.17 439.46,306.17" fill="rgb(255,206,158)" stroke="#aaa" stroke-width="2.05" stroke-linejoin="round"/>
  <polygon points="449.11,322.9 439.46,306.17 420.15,306.17 410.49,322.9 420.15,339.62 439.46,339.62" fill="rgb(209,139,71)" stroke="#aaa" stroke-width="2.05" stroke-linejoin="round"/>
  <polygon points="449.11,356.35 439.46,339.62 420.15,339.62 410.49,356.35 420.15,373.07 439.46,373.07" fill="rgb(56,175,205)" stroke="#aaa" stroke-width="2.05" stroke-linejoin="round"/>
  <polygon points="449.11,389.79 439.46,373.07 420.15,373.07 410.49,389.79 420.15,406.52 439.46,406.52" fill="rgb(255,206,158)" stroke="#aaa" stroke-width="2.05" stroke-linejoin="round"/>
  <polygon points="478.08,172.38 468.43,155.65 449.11,155.65 439.46,172.38 449.11,189.1 468.43,189.1" fill="rgb(209,139,71)" stroke="#aaa" stroke-width="2.05" stroke-linejoin="round"/>
  <polygon points="478.08,205.83 468.43,189.1 449.11,189.1 439.46,205.83 449.11,222.55 468.43,222.55" fill="rgb(232,171,111)" stroke="#aaa" stroke-width="2.05" stroke-linejoin="round"/>
  <polygon points="478.08,239.28 468.43,222.55 449.11,222.55 439.46,239.28 449.11,256 468.43,256" fill="rgb(255,206,158)" stroke="#aaa" stroke-width="2.05" stroke-linejoin="round"/>
  <polygon points="478.08,272.72 468.43,256 449.11,256 439.46,272.72 449.11,289.45 468.43,289.45" fill="rgb(209,139,71)" stroke="#aaa" stroke-width="2.05" stroke-linejoin="round"/>
  <polygon points="478.08,306.17 468.43,289.45 449.11,289.45 439.46,306.17 449.11,322.9 468.43,322.9" fill="rgb(232,171,111)" stroke="#aaa" stroke-width="2.05" stroke-linejoin="round"/>
  <polygon points="478.08,339.62 468.43,322.9 449.11,322.9 439.46,339.62 449.11,356.35 468.43,356.35" fill="rgb(255,206,158)" stroke="#aaa" stroke-width="2.05" stroke-linejoin="round"/>
  <polygon points="72.54,138.93 62.89,122.21 43.57,122.21 33.92,138.93 43.57,155.65 62.89,155.65" fill="#a29bfe" stroke="#aaa" stroke-width="2.05" stroke-linejoin="round"/>
  <polygon points="72.54,373.07 62.89,356.35 43.57,356.35 33.92,373.07 43.57,389.79 62.89,389.79" fill="#50fa7b" stroke="#aaa" stroke-width="2.05" stroke-linejoin="round"/>
  <polygon points="275.31,21.86 265.66,5.14 246.34,5.14 236.69,21.86 246.34,38.59 265.66,38.59" fill="#a29bfe" stroke="#aaa" stroke-width="2.05" stroke-linejoin="round"/>
  <polygon points="275.31,490.14 265.66,473.41 246.34,473.41 236.69,490.14 246.34,506.86 265.66,506.86" fill="#50fa7b" stroke="#aaa" stroke-width="2.05" stroke-linejoin="round"/>
  <polygon points="478.08,138.93 468.43,122.21 449.11,122.21 439.46,138.93 449.11,155.65 468.43,155.65" fill="#a29bfe" stroke="#aaa" stroke-width="2.05" stroke-linejoin="round"/>
  <polygon points="478.08,373.07 468.43,356.35 449.11,356.35 439.46,373.07 449.11,389.79 468.43,389.79" fill="#50fa7b" stroke="#aaa" stroke-width="2.05" stroke-linejoin="round"/>
</svg>
