<?xml version="1.0" standalone="no"?>
<!DOCTYPE svg PUBLIC "-//W3C//DTD SVG 20010904//EN"
 "http://www.w3.org/TR/2001/REC-SVG-20010904/DTD/svg10.dtd">
<svg version="1.0" xmlns="http://www.w3.org/2000/svg"
 width="300.000000pt" height="347.000000pt" viewBox="0 0 300.000000 347.000000"
 preserveAspectRatio="xMidYMid meet">
<metadata>
Created by potrace 1.10, written by Peter Selinger 2001-2011
</metadata>
<g transform="translate(0.000000,347.000000) scale(0.100000,-0.100000)"
fill="#000000" stroke="none">
<path d="M2322 3255 c-63 -29 -97 -64 -128 -130 -37 -78 -32 -120 22 -193 63
-85 51 -95 -16 -12 l-55 67 -42 -30 c-24 -17 -43 -32 -43 -34 0 -2 7 -17 15
-33 15 -28 15 -29 -48 -83 -84 -72 -270 -213 -315 -239 -20 -11 -65 -42 -99
-69 -35 -27 -66 -49 -70 -49 -8 0 -145 228 -158 261 -4 12 17 34 79 83 l86 67
-32 39 c-19 22 -37 35 -43 31 -91 -72 -358 -269 -413 -306 -57 -38 -75 -46
-82 -35 -4 7 -6 18 -4 25 3 6 -16 33 -41 60 -25 26 -60 68 -77 92 -17 23 -35
43 -40 43 -10 0 -155 -107 -163 -120 -3 -5 18 -42 47 -82 29 -41 60 -85 69
-98 13 -20 19 -22 30 -13 12 10 21 2 49 -40 19 -29 48 -66 65 -83 16 -16 39
-47 50 -67 l19 -36 -44 -38 c-86 -75 -114 -86 -191 -79 l-69 6 37 -75 c36 -73
38 -74 60 -60 12 8 24 15 27 15 12 0 78 -103 69 -108 -5 -4 -58 -45 -117 -92
-59 -47 -118 -92 -130 -100 -12 -8 -33 -25 -46 -37 -13 -13 -27 -23 -32 -23
-15 0 -8 -24 18 -62 15 -21 25 -40 23 -41 -2 -1 -25 -19 -51 -40 -42 -34 -52
-37 -107 -37 l-61 0 0 -37 c0 -21 -9 -58 -20 -82 -11 -24 -20 -46 -20 -50 0
-3 38 -6 85 -6 l85 0 10 35 c13 47 25 64 39 56 6 -4 34 9 62 29 56 40 63 39
99 -20 l21 -34 131 100 c72 54 133 97 135 95 4 -4 -85 -167 -264 -490 -52 -92
-93 -169 -91 -170 2 -2 20 -13 40 -25 34 -20 78 -69 78 -86 0 -4 -21 12 -47
34 -62 55 -136 78 -201 61 -57 -14 -103 -41 -137 -81 -14 -17 -25 -27 -25 -22
0 5 5 14 12 21 7 7 8 12 2 12 -14 0 -52 -84 -60 -131 -11 -67 12 -143 62 -198
24 -27 44 -51 44 -54 0 -2 -46 -4 -103 -4 l-102 0 -3 -77 c-3 -69 -5 -76 -23
-76 -48 0 -59 -16 -59 -90 l0 -70 1375 0 1375 0 0 68 c0 75 -9 92 -52 92 -27
0 -28 2 -28 50 0 28 1 51 2 53 1 1 -4 12 -11 24 -11 21 -19 23 -101 23 -50 0
-90 4 -90 8 0 5 14 21 31 38 47 43 79 119 79 184 0 63 -32 146 -52 134 -8 -5
-9 -2 -5 10 4 9 3 15 -2 11 -5 -3 -23 6 -39 20 -92 77 -225 74 -318 -8 -24
-21 -44 -36 -44 -32 0 18 38 59 76 81 24 14 44 29 44 34 0 4 -44 86 -98 181
-54 96 -135 240 -181 321 -46 82 -87 146 -91 143 -10 -6 -22 24 -14 36 3 5 0
8 -6 7 -12 -3 -181 277 -179 297 0 5 7 1 15 -11 l14 -21 46 23 c25 13 72 26
105 30 56 6 71 15 49 29 -20 12 -53 145 -48 196 3 27 3 49 1 49 -3 0 -17 -8
-31 -18 -15 -10 -47 -29 -72 -41 -25 -13 -60 -37 -77 -54 l-33 -31 0 40 c0 44
-19 87 -20 44 0 -20 -5 -16 -26 25 -34 67 -69 103 -129 131 -134 64 -294 -7
-337 -147 -12 -43 -32 -43 -22 -1 11 46 41 96 78 131 l36 35 0 95 0 96 42 -77
42 -76 72 -4 c58 -3 80 -9 120 -33 42 -27 102 -96 117 -137 3 -9 13 -5 33 13
16 14 63 50 104 81 99 74 247 187 339 260 40 32 81 58 91 58 9 0 27 11 40 25
13 14 32 25 42 25 20 0 25 29 7 47 -7 7 10 12 59 15 118 9 212 72 259 175 67
146 18 299 -119 367 -73 36 -189 37 -266 1z m-834 -372 c-2 -10 -10 -18 -18
-18 -8 0 -16 8 -18 18 -2 12 3 17 18 17 15 0 20 -5 18 -17z m677 -179 c16 -24
16 -27 -1 -45 -23 -25 -38 -24 -57 5 -14 21 -14 25 6 45 27 27 31 27 52 -5z
m-120 -90 c16 -25 16 -27 -6 -50 -30 -32 -44 -30 -59 6 -11 27 -10 32 11 50
31 25 34 25 54 -6z m-835 -194 c0 -93 -2 -170 -5 -170 -5 0 -143 204 -147 218
-3 9 130 121 145 122 4 0 7 -76 7 -170z m705 88 c15 -22 14 -24 -10 -45 -33
-29 -39 -29 -60 4 -17 25 -17 27 6 44 32 24 45 24 64 -3z m-141 -103 c16 -24
16 -26 -10 -50 -32 -30 -46 -28 -58 8 -8 22 -6 29 15 46 31 26 33 26 53 -4z
m-233 -208 c71 -47 85 -136 23 -151 -40 -10 -176 -8 -186 2 -5 5 -11 24 -14
43 -9 61 53 127 122 129 12 0 36 -10 55 -23z m-473 -43 c18 -23 32 -44 32 -47
0 -7 -146 -117 -156 -117 -5 0 -24 23 -42 51 -32 48 -33 52 -15 64 10 7 45 34
77 59 33 25 63 43 66 39 4 -5 21 -27 38 -49z m78 -229 c15 -23 15 -27 0 -50
-21 -32 -40 -32 -54 0 -16 35 -15 45 6 61 24 19 29 17 48 -11z m-10 -147 c-67
-119 -126 -214 -126 -205 0 20 160 300 167 293 3 -3 -16 -42 -41 -88z m-96 10
c0 -7 -54 -48 -64 -48 -3 0 -13 14 -22 31 -16 31 -15 32 13 55 l28 23 22 -27
c13 -15 23 -30 23 -34z m-159 -70 c25 -31 24 -41 -12 -67 -33 -25 -33 -24 -60
22 -9 15 -6 24 12 43 28 30 36 30 60 2z m935 -148 c32 -58 67 -123 79 -145 12
-22 66 -121 120 -220 54 -99 104 -189 111 -200 8 -11 14 -25 14 -31 0 -13 -44
-24 -57 -15 -9 7 -147 217 -211 322 -22 37 -65 105 -96 152 l-56 86 0 103 0
103 20 -25 c10 -14 45 -72 76 -130z m-546 73 c0 -29 -4 -43 -8 -35 -5 7 -16
10 -25 6 -14 -5 -16 -2 -10 12 8 22 34 64 39 64 2 0 4 -21 4 -47z m298 -207
l-3 -237 -87 101 c-49 56 -88 106 -88 113 0 29 161 280 172 269 5 -5 7 -115 6
-246z m-390 11 c12 -18 22 -36 22 -40 0 -4 -33 -60 -73 -124 -40 -65 -100
-164 -133 -220 -56 -97 -61 -103 -91 -103 -18 0 -33 5 -33 11 0 6 39 84 86
173 147 274 183 336 192 336 4 0 17 -15 30 -33z m161 -209 c84 -93 213 -243
222 -260 9 -17 4 -18 -71 -18 -78 0 -80 1 -80 24 0 14 -4 28 -10 31 -5 3 -10
1 -10 -6 0 -8 -4 -8 -12 -2 -18 14 -48 12 -48 -3 0 -8 -6 -11 -14 -8 -8 3 -23
-4 -33 -15 -15 -18 -29 -21 -100 -21 -46 0 -83 2 -83 6 0 3 17 31 38 62 21 31
58 91 82 132 41 70 72 119 77 120 2 0 20 -19 42 -42z m466 -129 c42 -66 79
-127 82 -135 4 -11 -10 -14 -81 -14 l-86 0 0 135 c0 74 2 135 4 135 2 0 38
-54 81 -121z m-768 -155 c-3 -3 -12 -4 -19 -1 -8 3 -5 6 6 6 11 1 17 -2 13 -5z
m631 -1 c-10 -2 -28 -2 -40 0 -13 2 -5 4 17 4 22 1 32 -1 23 -4z m259 1 c-3
-3 -12 -4 -19 -1 -8 3 -5 6 6 6 11 1 17 -2 13 -5z m56 -1 c-7 -2 -21 -2 -30 0
-10 3 -4 5 12 5 17 0 24 -2 18 -5z m-316 -39 c4 -13 -24 -27 -37 -19 -5 3 -7
12 -3 21 6 17 34 15 40 -2z m-665 -26 c-15 -15 -26 -4 -18 18 5 13 9 15 18 6
9 -9 9 -15 0 -24z m980 0 c-15 -15 -26 -4 -18 18 5 13 9 15 18 6 9 -9 9 -15 0
-24z m-890 -64 c28 -5 34 -9 25 -18 -17 -16 -82 -46 -101 -46 -8 0 -35 -11
-60 -25 -29 -16 -60 -25 -89 -25 l-45 0 -13 48 c-7 26 -15 53 -17 60 -3 9 28
12 130 12 73 0 150 -3 170 -6z m478 -55 l0 -62 -142 7 c-79 4 -144 8 -144 9
-1 1 -4 23 -6 49 l-5 47 76 4 c42 1 109 4 149 5 l72 2 0 -61z m631 41 c-2 -8
-9 -34 -15 -57 -10 -43 -11 -43 -56 -43 -26 0 -65 9 -88 20 -22 11 -48 20 -57
20 -19 0 -71 25 -103 51 l-23 18 23 4 c13 2 91 4 173 3 128 -1 149 -3 146 -16z
m-1564 -55 c26 -26 34 -41 31 -62 -3 -28 -4 -28 -95 -37 -71 -7 -96 -6 -108 4
-25 21 -18 59 19 96 28 28 42 34 76 34 35 0 48 -6 77 -35z m1883 4 c24 -24 30
-39 28 -63 -3 -27 -7 -32 -43 -38 -22 -4 -68 -7 -102 -7 -58 -1 -63 1 -69 23
-7 29 17 79 48 100 12 9 41 16 64 16 34 0 49 -6 74 -31z m-950 -229 c0 -78 -2
-80 -84 -80 -43 0 -56 4 -73 24 -12 13 -20 26 -18 28 2 2 -4 4 -15 4 -10 0
-16 -4 -14 -8 8 -13 -11 -9 -25 5 -11 10 -12 9 -6 -2 6 -11 2 -13 -19 -7 -22
5 -29 3 -33 -12 -4 -17 -17 -20 -91 -25 -144 -9 -482 -9 -482 1 0 5 12 19 26
33 14 13 37 43 51 67 l25 42 379 -1 379 -1 0 -68z m634 44 c4 -14 27 -48 53
-75 25 -27 44 -49 42 -49 -23 -2 -353 -1 -449 2 l-125 3 -3 73 -3 72 239 0
240 0 6 -26z m-1614 -195 c0 -12 -29 -24 -37 -16 -3 4 -3 13 0 21 6 16 37 11
37 -5z m1865 0 c0 -7 -8 -15 -17 -17 -18 -3 -25 18 -11 32 10 10 28 1 28 -15z
m-960 -9 c0 -8 -8 -16 -17 -18 -13 -2 -18 3 -18 18 0 15 5 20 18 18 9 -2 17
-10 17 -18z"/>
</g>
</svg>
