<?xml version="1.0" standalone="no"?>
<!DOCTYPE svg PUBLIC "-//W3C//DTD SVG 20010904//EN"
 "http://www.w3.org/TR/2001/REC-SVG-20010904/DTD/svg10.dtd">
<svg version="1.0" xmlns="http://www.w3.org/2000/svg"
 width="300.000000pt" height="374.000000pt" viewBox="0 0 300.000000 374.000000"
 preserveAspectRatio="xMidYMid meet">
<metadata>
Created by potrace 1.10, written by Peter Selinger 2001-2011
</metadata>
<g transform="translate(0.000000,374.000000) scale(0.100000,-0.100000)"
fill="#000000" stroke="none">
<path d="M2310 3346 c-105 -28 -189 -110 -221 -218 -12 -37 -27 -72 -35 -76
-28 -16 -64 -76 -64 -109 0 -18 -3 -33 -7 -33 -6 0 -130 -88 -178 -127 -168
-135 -316 -244 -325 -241 -5 2 -36 47 -69 101 l-60 97 46 38 c133 107 138 117
106 175 -36 63 -71 84 -106 65 -12 -6 -119 -84 -237 -172 -118 -89 -220 -165
-227 -169 -7 -5 -37 27 -82 87 -76 103 -107 130 -137 120 -26 -10 -143 -96
-173 -128 -31 -32 -25 -54 38 -142 74 -104 101 -134 122 -134 10 0 26 -12 36
-27 10 -15 39 -48 66 -73 26 -25 47 -54 47 -63 0 -16 -56 -59 -117 -91 -18 -9
-56 -16 -87 -16 -112 0 -134 -35 -75 -123 47 -72 73 -92 116 -92 32 0 38 -3
38 -21 0 -21 -61 -75 -216 -192 -78 -58 -86 -78 -60 -132 12 -24 21 -45 21
-47 0 -2 -15 -12 -32 -23 -25 -15 -51 -20 -104 -20 -99 0 -107 -10 -108 -137
-2 -126 4 -133 112 -133 86 0 103 9 140 70 20 34 82 90 99 90 4 0 21 -14 36
-30 41 -43 62 -39 142 25 22 17 46 35 54 39 22 14 4 -29 -59 -139 -31 -55 -89
-159 -128 -231 -40 -73 -79 -135 -88 -138 -9 -3 -34 -6 -57 -6 -57 0 -154 -47
-196 -95 -41 -47 -69 -108 -77 -168 -7 -49 10 -140 32 -172 25 -35 17 -45 -34
-45 -63 0 -83 -21 -91 -97 -5 -47 -10 -58 -26 -61 -11 -2 -30 -13 -42 -25 -20
-17 -23 -31 -23 -89 0 -60 3 -72 25 -93 l24 -25 1349 0 1349 0 27 21 c24 19
26 27 26 93 0 63 -3 75 -23 94 -13 12 -30 22 -39 22 -20 0 -28 21 -28 74 0 54
-30 86 -83 86 -20 0 -38 4 -42 9 -3 5 5 29 17 53 32 60 33 194 1 253 -49 91
-140 153 -241 164 -64 7 -70 14 -149 161 -22 41 -49 91 -60 110 -27 49 -84
152 -128 235 -21 39 -78 141 -126 228 -49 87 -89 162 -89 167 0 11 93 40 126
40 13 0 35 10 50 23 l27 23 -36 72 c-26 54 -37 91 -42 148 -6 63 -11 78 -31
90 -27 18 -41 13 -123 -52 -54 -42 -76 -48 -64 -18 3 8 78 70 167 137 208 158
273 209 315 246 19 16 39 28 43 25 10 -7 64 26 118 71 21 18 56 36 76 40 97
18 188 90 231 184 117 249 -111 519 -377 447z m177 -41 c60 -18 135 -81 165
-139 14 -27 23 -66 26 -117 4 -66 1 -84 -20 -130 -35 -77 -70 -113 -140 -148
-46 -23 -75 -31 -116 -31 -51 0 -54 1 -49 22 4 15 -1 28 -18 44 -14 13 -25 28
-25 34 0 5 -5 10 -12 10 -6 0 -9 3 -5 6 3 4 0 13 -8 21 -17 16 -20 37 -5 28 6
-3 10 1 10 9 0 9 5 16 11 16 6 0 22 9 36 20 14 11 30 17 36 13 6 -3 7 -1 3 5
-5 8 -29 1 -79 -24 -40 -20 -73 -37 -75 -39 -1 -1 21 -33 50 -72 104 -137 104
-135 84 -147 -10 -6 -34 -22 -54 -36 l-36 -26 -75 99 c-42 55 -89 118 -105
141 -15 22 -39 53 -53 67 l-24 26 23 19 c13 11 27 27 31 37 4 11 16 21 26 24
11 3 21 17 25 36 16 78 30 111 63 148 78 86 195 118 310 84z m-1027 -351 c17
-26 30 -50 28 -55 -2 -4 -77 -62 -167 -129 -90 -66 -191 -142 -225 -169 -101
-80 -266 -201 -274 -201 -13 1 -74 112 -66 119 51 45 134 99 139 91 3 -5 54
28 113 73 59 46 152 116 207 156 55 41 124 94 153 118 30 24 55 43 57 43 2 0
18 -21 35 -46z m612 -143 c-12 -9 -255 -193 -413 -315 l-135 -104 -24 44 c-12
25 -21 46 -19 48 2 2 54 41 114 88 61 46 164 126 230 178 66 51 140 106 164
121 l45 29 23 -42 c13 -23 20 -44 15 -47z m-1257 -61 c47 -63 73 -106 66 -108
-7 -2 -51 -34 -99 -70 -78 -59 -87 -64 -96 -48 -6 10 -40 59 -75 109 l-63 91
23 16 c13 8 53 38 89 67 36 28 68 51 71 50 4 -1 42 -49 84 -107z m1315 0 c7
-17 19 -30 26 -30 8 0 14 -10 14 -22 0 -15 11 -29 31 -40 17 -10 28 -22 24
-27 -6 -11 -279 -221 -441 -341 -92 -68 -101 -77 -95 -100 3 -14 6 -52 5 -85
-2 -115 -81 -219 -190 -251 -125 -36 -241 14 -312 135 -36 61 -37 164 -2 235
25 53 103 121 150 131 16 4 30 9 30 11 0 2 -11 22 -24 43 -29 46 -126 237
-126 249 0 9 90 75 95 70 2 -2 31 -50 65 -107 65 -110 120 -222 120 -246 0
-26 34 -21 57 8 l21 28 32 -46 c31 -45 33 -46 51 -29 19 17 19 18 -7 62 l-26
44 28 24 c16 13 32 23 35 24 3 0 16 -20 28 -45 20 -40 24 -43 42 -32 24 15 24
35 -1 67 -26 34 -25 45 9 69 l29 21 26 -41 c17 -24 31 -37 39 -33 36 21 37 26
12 62 -14 20 -25 41 -25 45 0 9 41 46 51 47 4 0 19 -18 34 -41 l28 -40 21 21
c18 18 19 23 7 43 -8 12 -19 30 -25 39 -8 13 -5 23 14 43 13 14 26 25 30 25 3
0 16 -18 29 -40 24 -42 41 -49 61 -25 10 12 8 21 -14 49 -31 41 -32 52 -9 65
22 12 36 1 53 -39z m-902 -173 c30 -58 33 -68 32 -159 l0 -97 -31 -16 c-36
-19 -89 -124 -89 -178 0 -27 -6 -39 -27 -52 -16 -10 -89 -66 -163 -123 -74
-58 -175 -137 -224 -175 -48 -38 -91 -65 -95 -60 -3 4 -19 22 -34 39 l-27 30
110 83 c60 45 110 85 110 88 0 3 -11 21 -25 39 -14 18 -25 36 -25 40 0 10 41
54 51 54 4 0 19 -20 33 -45 l27 -44 84 62 c46 34 84 66 84 70 1 4 -37 64 -84
132 l-85 124 27 15 c16 8 43 28 61 45 18 17 35 31 37 31 5 0 108 -166 134
-218 17 -33 18 -42 7 -42 -8 0 -22 -7 -30 -16 -9 -8 -16 -12 -16 -7 0 4 -7 -3
-16 -15 -24 -35 -12 -36 34 -2 23 16 45 30 49 30 5 0 6 88 5 196 -4 175 -2
197 14 215 9 10 22 19 28 19 6 0 26 -28 44 -63z m-128 -119 l-1 -83 -29 35
c-55 66 -58 78 -24 105 48 40 54 34 54 -57z m-190 -197 c5 -11 10 -26 10 -34
0 -8 -47 -49 -104 -91 -56 -42 -111 -85 -121 -96 -10 -11 -22 -20 -26 -20 -4
0 -32 35 -61 78 l-53 77 90 0 90 0 74 53 c41 28 78 52 82 52 5 0 13 -9 19 -19z
m1009 -74 c-1 -80 27 -171 61 -202 29 -26 25 -35 -14 -35 -30 0 -116 -23 -168
-45 -12 -5 -18 -3 -18 6 0 8 -16 39 -35 69 -38 59 -42 84 -19 115 11 15 181
161 191 164 1 1 2 -32 2 -72z m-959 -26 c9 -17 4 -25 -36 -55 -51 -39 -71 -44
-80 -21 -4 10 9 29 37 55 50 44 64 48 79 21z m185 -112 c8 -12 -14 -69 -26
-69 -5 0 -15 11 -21 25 -10 21 -8 28 8 40 23 17 31 18 39 4z m-69 -84 c15 -23
15 -28 -2 -70 -11 -25 -35 -63 -55 -84 -21 -21 -40 -49 -44 -62 -3 -13 -13
-37 -20 -54 -8 -16 -16 -38 -19 -47 -3 -9 -67 -66 -142 -127 l-137 -110 -65
97 c-36 53 -81 117 -99 142 l-34 45 23 18 c13 10 35 29 51 43 15 14 27 22 27
16 0 -14 131 -184 137 -178 3 3 -6 24 -22 47 -27 41 -27 42 -8 61 21 20 20 21
79 -60 4 -6 44 23 44 31 0 5 -11 23 -25 41 -32 42 -31 48 5 69 l30 18 20 -33
c11 -18 20 -36 20 -40 0 -15 27 -8 44 11 17 18 16 21 -9 61 -15 23 -25 43 -23
44 2 1 19 14 39 28 l36 27 22 -40 c12 -21 25 -39 28 -39 4 0 46 27 72 46 2 2
-11 20 -28 41 l-31 37 22 23 c28 30 44 29 64 -2z m104 -107 c6 -129 21 -88
-139 -383 -219 -401 -333 -605 -341 -610 -5 -3 -14 4 -20 15 -10 19 -59 50
-80 50 -21 0 -9 -18 20 -30 35 -15 72 -56 102 -114 32 -63 30 -167 -6 -232
-14 -27 -40 -58 -56 -69 -17 -11 -30 -24 -30 -28 0 -5 78 -7 173 -6 l172 2 -4
-81 c-3 -70 -1 -82 13 -82 13 0 16 14 16 86 l0 85 105 -7 105 -7 0 199 0 199
-247 -3 c-238 -3 -246 -2 -230 16 9 10 26 39 37 65 18 41 24 46 44 41 26 -6
45 18 261 343 60 90 109 162 110 160 1 -1 0 -58 -3 -126 l-5 -124 -55 -81
c-103 -151 -112 -164 -112 -167 0 -2 186 -3 412 -1 227 1 447 2 488 2 59 1 71
3 56 12 -11 6 -41 8 -73 5 l-54 -6 -62 97 c-35 53 -78 121 -96 150 l-34 54 27
25 c16 14 32 39 38 54 12 34 19 36 40 12 15 -18 162 -249 225 -353 30 -48 38
-55 65 -55 29 0 33 -4 40 -39 5 -22 17 -46 28 -53 11 -8 20 -18 20 -24 0 -5
-152 -9 -390 -9 l-390 0 0 -196 0 -196 251 4 251 3 -4 -83 c-3 -74 -1 -82 15
-82 17 0 18 8 16 81 l-3 82 177 -2 c97 -1 177 0 177 3 0 2 -15 14 -34 26 -51
31 -86 108 -86 187 0 35 7 80 15 99 23 55 73 113 117 135 22 11 38 23 35 26
-11 10 -49 -9 -81 -42 l-34 -33 -39 71 c-22 40 -64 117 -95 172 -30 55 -97
179 -148 275 -52 96 -120 222 -152 280 -58 104 -58 105 -58 189 0 77 15 151
30 151 10 0 181 -294 340 -585 84 -154 175 -319 201 -366 27 -48 49 -91 49
-98 0 -7 21 -11 56 -11 79 0 128 -17 179 -62 60 -53 85 -108 85 -189 0 -79
-33 -153 -88 -200 l-37 -30 104 2 104 3 -2 -83 -2 -83 48 3 48 3 0 -77 0 -77
-1365 0 -1365 0 -3 75 -3 75 51 0 50 0 0 83 0 82 113 -3 c109 -2 111 -2 87 15
-68 48 -100 103 -107 182 -10 111 39 203 137 254 48 25 63 28 123 25 37 -2 67
0 67 6 0 9 85 166 190 351 31 55 73 129 92 165 20 36 88 157 153 270 65 113
124 220 132 239 23 54 36 24 43 -101z m73 8 c20 -19 50 -37 67 -41 l30 -7 0
-416 0 -417 -70 -1 -70 0 0 458 c0 252 2 458 4 458 2 0 20 -15 39 -34z m395
-146 c-1 -99 0 -180 5 -180 4 0 7 3 7 8 0 4 13 22 28 41 l28 33 33 -66 32 -66
-28 -33 c-117 -139 -239 -286 -296 -359 -38 -49 -72 -88 -75 -88 -11 0 -7 197
5 212 5 7 45 57 87 110 l77 98 -23 37 c-22 37 -23 44 -18 198 l5 159 31 9 c17
5 44 22 60 37 16 16 33 29 37 29 5 1 7 -80 5 -179z m-162 -37 c-1 -150 -2
-150 -67 -40 -31 52 -44 86 -47 122 l-4 50 59 0 59 0 0 -132z m-357 -241 c-49
-65 -179 -251 -179 -257 0 -2 -12 -17 -26 -32 l-27 -28 18 35 c48 95 192 361
219 405 l31 50 3 -58 c3 -56 1 -62 -39 -115z m305 124 c14 -19 35 -57 46 -85
l20 -52 -41 -54 c-64 -85 -69 -78 -69 85 0 77 4 140 9 140 5 0 20 -15 35 -34z
m-914 0 c0 -8 11 -28 25 -44 l25 -30 -55 -44 c-31 -24 -65 -61 -76 -83 l-20
-41 -85 1 -85 0 8 25 c10 32 10 118 0 150 l-8 25 80 -3 c76 -4 83 -2 128 27
52 35 63 38 63 17z m1349 -258 c62 -122 52 -129 -19 -13 -19 32 -45 69 -57 84
-25 28 -27 34 -16 44 18 19 35 -3 92 -115z m-165 -183 c38 -58 65 -109 61
-113 -7 -8 -279 -12 -308 -5 -17 4 -17 6 -2 30 10 14 27 37 40 52 12 14 46 54
74 89 29 34 56 60 60 58 4 -3 38 -53 75 -111z m-534 -59 c0 -52 -1 -54 -29
-58 -60 -9 -65 3 -25 60 20 28 41 52 45 52 5 0 9 -24 9 -54z m-316 -297 c-45
-46 -80 -51 -94 -13 -18 46 -14 49 61 51 l72 1 -39 -39z m329 34 c3 -5 2 -22
0 -40 l-5 -32 -82 0 c-44 0 -92 -4 -106 -10 -19 -7 2 -10 88 -10 110 -1 112
-2 102 -21 -6 -11 -8 -36 -4 -55 l6 -35 -207 0 -207 0 6 28 c4 15 9 35 12 45
3 9 1 17 -5 17 -6 0 -11 5 -11 10 0 6 28 10 64 10 59 0 66 3 101 35 21 19 57
41 79 49 43 15 162 21 169 9z m682 -20 c22 -12 51 -33 64 -47 21 -22 33 -26
85 -26 l61 0 0 -58 0 -57 -340 1 c-187 0 -346 1 -352 2 -10 2 -10 8 -2 26 9
19 8 31 -4 55 l-15 31 155 0 155 0 -2 43 c-1 23 -1 46 -1 51 2 17 154 0 196
-21z m240 16 c12 -12 -17 -69 -36 -69 -18 0 -89 55 -89 70 0 8 116 7 125 -1z
m-480 -24 c0 -19 -8 -20 -109 -23 -111 -3 -131 3 -119 35 4 11 30 13 117 11
103 -3 111 -4 111 -23z m-632 -215 l177 0 0 -30 c0 -41 -5 -41 -240 -39 -58 1
-124 1 -147 0 -35 -1 -43 2 -43 17 0 32 30 64 54 58 11 -3 101 -6 199 -6z
m1107 -22 c10 -17 17 -35 14 -40 -6 -10 -120 -11 -589 -5 l-130 2 0 30 0 30
310 2 c171 2 319 4 330 7 41 7 46 5 65 -26z"/>
<path d="M2278 2725 c-10 -13 -18 -26 -18 -28 0 -2 18 -4 39 -3 l39 1 -20 27
c-10 16 -20 28 -21 28 -1 0 -10 -11 -19 -25z"/>
<path d="M1385 2380 c-4 -6 16 -10 52 -10 41 0 54 3 43 10 -20 13 -87 13 -95
0z"/>
<path d="M1618 2292 c31 -32 58 -57 60 -56 11 6 -13 54 -27 54 -10 0 -30 14
-46 30 -16 17 -32 30 -36 30 -4 0 18 -26 49 -58z"/>
<path d="M1352 2220 c-56 -35 -79 -127 -47 -190 34 -65 134 -91 200 -50 87 54
84 199 -5 245 -41 21 -109 19 -148 -5z m149 -26 c57 -51 60 -116 10 -172 -26
-28 -36 -32 -79 -32 -61 0 -97 26 -112 80 -14 53 -5 84 38 121 31 27 41 31 79
26 24 -2 53 -13 64 -23z"/>
<path d="M1418 2077 c24 -7 36 -7 44 1 9 9 1 12 -32 11 l-45 -1 33 -11z"/>
<path d="M904 985 l-29 -12 48 -6 c49 -7 100 6 67 16 -39 13 -59 13 -86 2z"/>
<path d="M1192 913 c2 -10 10 -17 18 -16 8 2 23 -11 32 -28 14 -24 23 -30 45
-27 22 2 29 9 31 31 2 19 8 27 20 25 9 -2 18 5 20 15 3 13 -3 17 -22 17 -19 0
-26 -5 -26 -19 0 -20 -25 -35 -41 -25 -5 3 -9 14 -9 25 0 15 -7 19 -36 19 -28
0 -35 -3 -32 -17z"/>
<path d="M914 906 c-9 -24 4 -48 23 -44 12 2 18 12 18 28 0 29 -32 41 -41 16z"/>
<path d="M1903 905 c-18 -20 -16 -33 6 -44 26 -15 60 21 41 44 -15 19 -31 19
-47 0z"/>
<path d="M2315 796 c-17 -7 -43 -28 -58 -45 -46 -56 -33 -155 27 -195 14 -9
32 -16 41 -16 11 0 15 -11 15 -45 0 -38 3 -45 20 -45 18 0 20 5 14 39 -6 38
-5 40 27 54 61 26 84 61 84 127 0 51 -4 63 -29 89 -17 17 -46 36 -65 41 -43
12 -39 12 -76 -4z m112 -37 c28 -24 43 -73 33 -109 -30 -104 -141 -119 -191
-26 -27 51 -21 85 22 129 27 26 35 29 74 24 25 -2 52 -11 62 -18z"/>
<path d="M425 781 c-41 -24 -70 -89 -61 -136 8 -41 66 -105 96 -105 17 0 20
-7 20 -45 0 -33 4 -45 15 -45 11 0 15 11 15 40 0 36 3 41 33 54 98 40 114 175
28 233 -42 28 -104 30 -146 4z m125 -18 c70 -41 64 -150 -10 -188 -51 -26 -95
-13 -131 41 -30 46 -25 90 15 130 39 39 80 45 126 17z"/>
<path d="M1420 355 c0 -51 3 -65 15 -65 12 0 15 14 15 65 0 51 -3 65 -15 65
-12 0 -15 -14 -15 -65z"/>
<path d="M516 355 c-7 -18 -32 -20 -39 -2 -4 9 -8 8 -16 -3 -6 -8 -11 -18 -11
-22 0 -11 38 -48 49 -48 18 0 41 31 41 55 0 28 -15 41 -24 20z"/>
<path d="M2317 363 c-11 -11 -8 -48 5 -61 19 -19 55 -14 72 10 14 20 14 24 1
37 -12 12 -18 12 -27 3 -9 -9 -15 -8 -28 3 -9 8 -20 12 -23 8z"/>
<path d="M1592 1510 c-22 -21 -29 -41 -14 -39 11 0 55 59 45 59 -5 0 -19 -9
-31 -20z"/>
<path d="M1692 733 c-32 -13 8 -23 91 -23 65 0 88 3 80 11 -11 11 -148 21
-171 12z"/>
</g>
</svg>
