<?xml version="1.0" encoding="UTF-8"?>
<svg version="1.1" viewBox="0 0 512 640" xmlns="http://www.w3.org/2000/svg">
 <path d="m99 211.54a5 5 0 0 1-4.17-2.24c-22.39-33.66-44.94-70.3-45.17-70.7-0.53-0.87-13.27-21.54-16.91-30.14a5 5 0 0 1 0.25-4.34 37.42 37.42 0 0 1 28.51-17.67 5 5 0 0 1 4.81 2.46l14.68 25.09c1 1.58 23.8 38.54 46.94 73a5 5 0 1 1-8.3 5.57c-23.64-35.23-46.99-73.01-47.22-73.39l-0.06-0.1-13-22.2a27.57 27.57 0 0 0-16.29 10.12c4.41 9 15 26.2 15.11 26.39 0.23 0.37 22.69 36.9 45 70.41a5 5 0 0 1-1.4 6.93 4.94 4.94 0 0 1-2.78 0.81z"/>
 <path d="m83.88 243.39a6.54 6.54 0 0 1-1.25-0.12 6.35 6.35 0 0 1-4.13-2.8l-7.09-10.95a6.62 6.62 0 0 1 1.83-9l69.42-48.11a6.55 6.55 0 0 1 5-1 6.33 6.33 0 0 1 4.13 2.8l7.09 11a6.62 6.62 0 0 1-1.82 9l-69.44 48.01a6.54 6.54 0 0 1-3.74 1.17zm-2.24-16.48 3.25 5 63.75-44.18-3.25-5z"/>
 <path d="m43.51 123.36a5 5 0 0 1-2.7-9.21l24.91-15.95a5 5 0 0 1 5.39 8.42l-24.91 15.95a5 5 0 0 1-2.69 0.79z"/>
 <path d="m229.83 172.5h-10.66a5 5 0 1 1 0-10h10.66a5 5 0 1 1 0 10z" fill="#fff"/>
 <path d="m293.83 172.5h-10.66a5 5 0 0 1 0-10h10.66a5 5 0 0 1 0 10z" fill="#fff"/>
 <path d="m384.81 448.72a5 5 0 0 1-1.73-0.31 189.19 189.19 0 0 0-46.91-10.53 5.0106 5.0106 0 0 1 0.65-10 195.84 195.84 0 0 1 49.71 11.12 5 5 0 0 1-1.72 9.69z"/>
 <path d="m409.56 556.5h-59.89a5 5 0 0 1-3.14-1.11c-0.15-0.12-15.31-12.18-38.94-21.14a5 5 0 0 1 3.54-9.35 170.1 170.1 0 0 1 40.24 21.6h58.19c13.14 0 25.24-8.2 30.83-20.88 3.19-7.24 8.45-26.45-11.61-48.42l-0.81-0.88a5 5 0 0 1 7.28-6.85l0.92 1c16.67 18.26 21.67 40.39 13.37 59.19-7.19 16.34-22.88 26.84-39.98 26.84z"/>
 <path d="m279 526.36a4.62 4.62 0 0 1-0.82-0.07 134.73 134.73 0 0 0-21.72-1.79 138.31 138.31 0 0 0-21.74 1.77 5.0028 5.0028 0 0 1-1.58-9.88 148.69 148.69 0 0 1 23.32-1.89 145.7 145.7 0 0 1 23.34 1.92 5 5 0 0 1-0.8 9.94z"/>
 <path d="m160.5 556.5h-57.06c-17.1 0-32.79-10.54-40-26.85-8.3-18.8-3.3-40.93 13.37-59.19 1.35-1.48 2.78-2.95 4.25-4.35a5 5 0 1 1 6.93 7.2c-1.31 1.26-2.59 2.57-3.79 3.89-20.06 22-14.8 41.18-11.61 48.42 5.61 12.68 17.71 20.88 30.85 20.88h55.44a189.2 189.2 0 0 1 42-21.57 5.0019 5.0019 0 1 1 3.45 9.39 176.92 176.92 0 0 0-40.83 21.18 5 5 0 0 1-3 1z"/>
 <path d="m133.56 446.85a5 5 0 0 1-1.56-9.75 195.33 195.33 0 0 1 44.19-9.2 5.0106 5.0106 0 0 1 0.65 10 188.14 188.14 0 0 0-41.7 8.72 5 5 0 0 1-1.58 0.23z"/>
 <path d="m296.88 400.23a5 5 0 0 1-3.85-1.81c-59.77-72-69.07-129-69.44-131.4a5.0023 5.0023 0 1 1 9.89-1.51c0.05 0.33 2.35 14.42 11.68 36.81 8.66 20.82 25.34 53.28 55.57 89.72a5 5 0 0 1-3.85 8.19z"/>
 <path d="m250.66 403.45a5 5 0 0 1-3.9-1.86c-52.87-65.49-63.57-141.25-64-144.45 0-0.19-1.83-14.7-2.8-19.56a5.001 5.001 0 0 1 9.8-2c1.05 5.23 2.84 19.64 2.91 20.25s10.82 76.21 61.87 139.45a5 5 0 0 1-0.75 7 4.94 4.94 0 0 1-3.13 1.17z"/>
 <path d="m256.5 341a5 5 0 0 1-2.43-0.63 5 5 0 0 1-1.94-6.8c22.44-40.32 26.84-67.75 26.88-68a5 5 0 1 1 9.88 1.51c-0.18 1.19-4.72 29.5-28 71.38a5 5 0 0 1-4.39 2.54z"/>
 <path d="m171.16 380.5a5 5 0 0 1-2.33-0.58l-90.67-48a5 5 0 0 1-2.39-6.05 154 154 0 0 1 62.87-80.58c22.36-14.29 41.06-18.5 41.85-18.68a5 5 0 0 1 2.13 9.77c-0.18 0-18.06 4.08-38.92 17.55-26.64 17.19-45.81 41.12-57 71.18l86.84 46a5 5 0 0 1-2.35 9.42z"/>
 <path d="m341.84 380.5a5 5 0 0 1-2.35-9.42l86.84-46c-11.22-30.06-30.39-54-57-71.18-20.86-13.47-38.74-17.51-38.92-17.55a5 5 0 0 1 2.13-9.77c0.79 0.18 19.53 4.36 41.85 18.68a154 154 0 0 1 62.87 80.58 5 5 0 0 1-2.39 6.05l-90.67 48a5 5 0 0 1-2.36 0.61z"/>
 <path d="m263 445.06a541.15 541.15 0 0 1-87.35-7.25 5 5 0 0 1-3.81-3.22c-8.74-24.21-0.25-44.24 0.12-45.08a5 5 0 0 1 5.48-2.93c0.86 0.16 87.7 15.63 158 0a5 5 0 0 1 5.41 2.37c8.64 14.9 1.34 42.19 0.48 45.25a5 5 0 0 1-3.72 3.53c-24.44 5.5-50.61 7.33-74.61 7.33zm-82.67-16.61c15.53 2.49 90.2 13.19 152.13 0.21 1.82-7.81 4.09-22.32 1.16-31.43-63.19 12.94-135.37 2.87-153.69-0.09a57.08 57.08 0 0 0 0.36 31.31z"/>
 <path d="m176.5 396.5a5 5 0 0 1-4.74-3.42l-16-48a5 5 0 1 1 9.48-3.16l16 48a5 5 0 0 1-3.16 6.32 4.84 4.84 0 0 1-1.58 0.26z"/>
 <path d="m336.5 396.5a4.84 4.84 0 0 1-1.58-0.26 5 5 0 0 1-3.16-6.32l16-48a5 5 0 0 1 9.48 3.16l-16 48a5 5 0 0 1-4.74 3.42z"/>
 <path d="m308.33 556.5h-35.83a5 5 0 0 1-4.63-6.89c15.4-37.61-0.09-107.9-0.25-108.61a5.0013 5.0013 0 0 1 9.76-2.19c0.64 2.84 14.66 66.53 2.18 107.69h24.1c0.95-16.38 3-72.79-11.37-105.81a5.0022 5.0022 0 1 1 9.17-4c7.55 17.33 11.83 42 12.73 73.39a409.37 409.37 0 0 1-0.87 41.83 5 5 0 0 1-4.99 4.59z"/>
 <path d="m240.5 556.5h-35.83a5 5 0 0 1-5-4.58c-0.25-3-6-74.16 11.86-115.22a5.0022 5.0022 0 1 1 9.17 4c-14.37 33-12.32 89.43-11.37 105.81h24.1c-12.43-41.17 1.57-104.86 2.19-107.7a5.0013 5.0013 0 0 1 9.76 2.19c-0.16 0.71-15.63 71-0.25 108.61a5 5 0 0 1-4.63 6.89z"/>
 <path d="m247.16 443.69a5 5 0 0 1-4.88-3.92 103.37 103.37 0 0 1 0-42.51 5.0024 5.0024 0 0 1 9.72 2.37 94.58 94.58 0 0 0 0 38 5 5 0 0 1-3.8 6 5.1 5.1 0 0 1-1.04 0.06z"/>
 <path d="m111.14 494.46a30.57 30.57 0 0 1-24.09-11.63c-5.84-7.65-8.91-17-11.37-26-16.33-59.71 15-120.61 16.39-123.17a5.0007 5.0007 0 0 1 8.86 4.64c-0.31 0.59-30.88 60-15.61 115.89 2.19 8 4.88 16.29 9.68 22.59a20.48 20.48 0 0 0 18.56 7.54 16.29 16.29 0 0 0 13.44-9.84c2.36-5.45 1.82-11.83 1.25-18.59-0.18-2.19-0.37-4.46-0.46-6.7-0.26-6.87-0.33-12.93-0.21-18.54 0.36-17.65 2.22-31.87 5.85-44.76 2.87-10.16 6.61-18.36 11.44-25.07a5.0039 5.0039 0 0 1 8.12 5.85c-4.14 5.74-7.39 12.92-9.93 21.93-3.4 12-5.14 25.48-5.48 42.25-0.11 5.42-0.05 11.29 0.2 18 0.08 2 0.25 4.06 0.44 6.23 0.61 7.34 1.31 15.65-2 23.4a26.17 26.17 0 0 1-21.44 15.79 29.35 29.35 0 0 1-3.64 0.19z"/>
 <path d="m83.56 470.39a5 5 0 0 1-2-9.6c0.65-0.28 14.57-6.22 27.24-8.41 0.9-9.28 6.34-22.08 23-24.44a5 5 0 0 1 1.4 9.9c-6.63 0.94-10.91 4.16-13.1 9.86a22.59 22.59 0 0 0-1.43 8.67 5 5 0 0 1-4.51 5.36c-12 1.16-28.53 8.18-28.7 8.25a4.9 4.9 0 0 1-1.9 0.41z"/>
 <path d="m406.32 494.46a29.47 29.47 0 0 1-3.63-0.22 26.17 26.17 0 0 1-21.44-15.79c-3.35-7.75-2.65-16.06-2-23.39 0.19-2.18 0.36-4.24 0.44-6.24 0.25-6.69 0.31-12.56 0.2-18-0.34-16.77-2.08-30.2-5.48-42.25-2.54-9-5.79-16.19-9.93-21.93a5.0039 5.0039 0 0 1 8.12-5.85c4.83 6.71 8.57 14.91 11.44 25.07 3.63 12.89 5.49 27.11 5.85 44.76 0.12 5.6 0 11.66-0.21 18.54-0.09 2.24-0.28 4.51-0.46 6.71-0.57 6.75-1.11 13.14 1.25 18.58a16.29 16.29 0 0 0 13.47 9.83 20.47 20.47 0 0 0 18.56-7.54c4.8-6.3 7.49-14.58 9.68-22.59 15.3-55.95-15.3-115.29-15.61-115.89a5.0007 5.0007 0 1 1 8.86-4.64c1.34 2.56 32.72 63.46 16.39 123.17-2.45 9-5.53 18.36-11.37 26a30.58 30.58 0 0 1-24.13 11.67z"/>
 <path d="m433.9 470.39a4.9 4.9 0 0 1-2-0.41c-0.17-0.07-16.65-7.09-28.7-8.25a5 5 0 0 1-4.51-5.36c0.11-1.65 0.65-16.38-14.53-18.53a5 5 0 1 1 1.4-9.9c16.7 2.36 22.14 15.16 23 24.44 12.67 2.19 26.59 8.13 27.24 8.41a5 5 0 0 1-2 9.6z"/>
 <path d="m76 430.8a5 5 0 0 1-2.67-9.23c23.72-15 58.81-10.73 60.29-10.54a5 5 0 1 1-1.26 9.92c-0.51-0.06-33.1-3.93-53.69 9.08a5 5 0 0 1-2.67 0.77z"/>
 <path d="m440.83 430.8a5 5 0 0 1-2.7-0.79c-20.36-13.07-52.46-9.1-52.79-9.06a5.0011 5.0011 0 0 1-1.28-9.92c1.47-0.18 36.08-4.45 59.47 10.56a5 5 0 0 1-2.7 9.21z"/>
 <path d="m130.5 262.14a5 5 0 0 1-4.24-2.34c-3.92-6.22-22.76-34.34-23-34.62a5.002 5.002 0 1 1 8.31-5.57c0.78 1.16 19.11 28.52 23.1 34.87a5 5 0 0 1-4.22 7.66z"/>
 <path d="m154.09 247.16a5 5 0 0 1-4.3-2.44l-22-36.85a5.0001 5.0001 0 1 1 8.59-5.12l22 36.85a5 5 0 0 1-4.29 7.56z"/>
 <path d="m53.52 140a5 5 0 0 1-2.68-9.22l25-15.8a5 5 0 1 1 5.34 8.45l-25 15.8a5 5 0 0 1-2.66 0.77z"/>
 <path d="m65.43 158.73a5 5 0 0 1-2.77-9.17l23.52-15.56a5.0006 5.0006 0 1 1 5.52 8.34l-23.52 15.56a5 5 0 0 1-2.75 0.83z"/>
 <path d="m77.19 176.52a5 5 0 0 1-2.77-9.17l23.52-15.57a5.0006 5.0006 0 0 1 5.52 8.34l-23.52 15.57a5 5 0 0 1-2.75 0.83z"/>
 <path d="m89 193.82a5 5 0 0 1-2.76-9.17l23.52-15.57a5 5 0 1 1 5.52 8.33l-23.54 15.59a5 5 0 0 1-2.74 0.82z"/>
 <g stroke="#fff" stroke-linecap="round" stroke-linejoin="round">
  <g transform="translate(0,56)">
   <g>
    <path d="m95.767 488.67c-16.418-4.4182-26.136-18.586-25.094-36.584 0.5185-8.9568 4.2135-18.457 9.9049-25.467l2.5514-3.1425 6.0557 6.0556c4.576 4.576 7.4779 6.478 11.876 7.7842 11.695 3.4731 22.423 1.1696 30.044-6.4514 6.7855-6.7855 8.6591-13.784 7.7842-29.075l-0.66497-11.622 6.2466-1.698c10.417-2.8317 23.825-5.238 29.946-5.3742 5.1869-0.11549 32.548 3.1643 33.386 4.002 0.18577 0.18577-0.66879 3.9637-1.899 8.3954-4.5158 16.267-7.6668 42.029-7.6738 62.739l-4e-3 10.996-8.6316 3.5637c-4.7474 1.96-13.935 6.7185-20.417 10.574l-11.785 7.0107-27.911-0.0719c-20.576-0.053-29.436-0.4823-33.714-1.6337z" stroke-width="4.2026" style="paint-order:stroke fill markers"/>
    <g stroke-width="1.0506">
     <path d="m209.46 489.77c-0.0875-0.33455-0.3087-5.9022-0.49158-12.373-0.83322-29.479 1.3853-55.944 6.3617-75.886 1.0072-4.0362 3.7836-12.935 4.2836-13.73 0.17384-0.27622 1.6616-0.25005 7.5007 0.13192 6.245 0.40852 7.2656 0.53555 7.1562 0.89063-0.27128 0.88056-2.3412 13.496-3.0024 18.298-2.1082 15.312-2.9648 27.196-2.9718 41.229-7e-3 13.745 0.61888 21.809 2.4468 31.536 0.64588 3.4371 2.1717 9.8211 2.458 10.284 0.0774 0.12518-5.197 0.2276-11.721 0.2276h-11.861z" style="paint-order:stroke fill markers"/>
     <path d="m238.62 457.42c-0.29522-3.1411 0.0661-20.971 0.54936-27.11 0.9183-11.665 2.2284-22.16 4.2606-34.13 0.59914-3.529 1.1461-6.6007 1.2154-6.8259 0.11013-0.35766 1.6055-0.39747 11.802-0.31412 6.4216 0.0525 11.717 0.13507 11.768 0.18352 0.3065 0.29183 2.4243 12.824 3.4364 20.335 1.9774 14.675 2.7106 25.052 2.733 38.68 0.01 6.0317-0.0434 11.025-0.1185 11.096-0.0751 0.0711-1.7338-0.0578-3.686-0.28638-6.6967-0.78423-28.146-0.53179-31.307 0.36846-0.38371 0.10931-0.48428-0.19815-0.6534-1.9975z" fill="#fff" style="paint-order:stroke fill markers"/>
     <path d="m280.73 486.79c2.795-10.922 3.9905-22.284 4.0033-38.05 0.0102-12.48-0.57896-22.083-2.1524-35.085-0.76463-6.3183-2.3288-16.82-3.1371-21.062-0.29635-1.5552-0.53882-3.0238-0.53882-3.2634 0-0.37282 0.62029-0.46156 4.3003-0.61515 2.3652-0.0987 5.6617-0.25838 7.3256-0.35479l3.0252-0.1753 0.97006 2.7012c3.8631 10.757 6.917 26.743 8.3923 43.93 1.0822 12.608 1.5058 28.649 1.1205 42.434-0.15777 5.6444-0.36261 10.908-0.4552 11.696l-0.16833 1.4334h-23.604z" style="paint-order:stroke fill markers"/>
     <path d="m346.3 486.87c-2.8022-1.9071-7.164-4.6546-9.6928-6.1054-5.4116-3.1046-14.794-7.7628-19.134-9.4999l-3.0685-1.2281-5e-3 -7.645c-0.0168-27.512-3.327-53.761-9.0159-71.494-0.61898-1.9294-1.0801-3.5534-1.0247-3.6088s1.7532-0.29145 3.7729-0.5246c8.5487-0.98685 18.427-2.5398 25-3.9302 3.5653-0.7542 3.6756-0.76074 6.8478-0.40587 9.1874 1.0278 20.347 3.2092 29.266 5.7208 3.2331 0.91046 10.172 3.091 10.355 3.2539 0.0455 0.0406-0.18414 3.4973-0.5103 7.6816-0.85788 11.006-0.53251 16.399 1.2967 21.492 3.1593 8.7962 9.5168 14.664 18.605 17.171 1.7881 0.49328 2.857 0.57922 7.2834 0.58561 4.7992 7e-3 5.3922-0.0479 7.9181-0.73209 3.3408-0.90493 8.0862-3.1949 10.64-5.1344 2.216-1.6832 5.0441-4.5101 6.2233-6.2206l0.82577-1.1978 0.5167 0.65175c1.4438 1.8212 4.7103 6.9682 5.9117 9.315 3.6824 7.1934 5.1786 13.714 4.8721 21.234-0.28479 6.9888-2.0982 12.816-5.7151 18.365-4.9249 7.5555-11.69 12.435-20.657 14.901l-2.6171 0.71954-62.799 0.1044z" style="paint-order:stroke fill markers"/>
     <path d="m251.49 377.98c-1.3931-6.3753-1.5787-19.578-0.3952-28.111l0.3064-2.2092 6.7224 0.12724c22.303 0.42217 51.369-1.8391 70.685-5.4991l4.7131-0.89306 0.25588 0.97303c1.1236 4.2726 1.3283 13.201 0.4481 19.54-0.62316 4.4875-1.7229 10.275-2.0002 10.526-0.29622 0.26832-9.5288 1.9676-15.365 2.8279-15.548 2.292-28.507 3.1773-49.186 3.3602l-16.012 0.14166z" fill="#fff" style="paint-order:stroke fill markers"/>
     <path d="m236.86 378.13c-17.905-0.98595-36.326-2.8406-54.252-5.4622l-2.2384-0.32737-0.71245-2.9796c-1.9574-8.1863-2.0209-17.932-0.16725-25.687 0.27956-1.1696 0.55525-2.1734 0.61265-2.2308s2.0698 0.18963 4.4719 0.54896c14.68 2.1959 34.307 4.1542 50.647 5.0535 3.0785 0.16941 5.6344 0.34381 5.6798 0.38755 0.0454 0.0437-0.10077 1.783-0.32474 3.8651-0.94906 8.8226-0.70885 20.917 0.52665 26.516 0.0746 0.33788 0.0411 0.59627-0.0744 0.57419-0.11549-0.0221-1.9916-0.13825-4.169-0.25815z" fill="#fff" style="paint-order:stroke fill markers"/>
    </g>
    <g stroke-width="2.1013">
     <path d="m105.28 427.36c-5.5797-1.8221-9.1502-4.9127-12.686-10.981l-2.2273-3.8225 2.0542-0.87213c3.5954-1.5265 13.353-4.2395 18.405-5.117 2.6856-0.46658 5.4462-1.2174 6.1347-1.6686 1.3556-0.88822 1.4478-1.1954 2.2364-7.4486 0.59898-4.7495 2.058-8.1712 4.5871-10.758 3.6151-3.6976 3.5034-3.9038 4.0426 7.4608 0.72336 15.247 0.57684 19.494-0.79646 23.088-2.5449 6.6602-7.8641 10.384-15.278 10.695-2.5356 0.10638-5.0736-0.11967-6.4724-0.57648z" fill="#fff" style="paint-order:stroke fill markers"/>
     <path d="m401.91 427.61c-4.6921-1.1474-9.1836-5.0199-11.332-9.7704-0.96729-2.1388-1.1593-3.6508-1.1905-9.3759-0.0446-8.1878 0.8007-24.027 1.2823-24.027 0.18864 0 1.2434 0.74222 2.344 1.6494 3.0291 2.4969 4.8568 6.7301 5.2854 12.242 0.43804 5.6335 1.5256 7.1681 5.4599 7.7039 5.8752 0.80015 21.422 5.1034 22.661 6.2723 0.50318 0.47489-2.0901 5.4835-4.4333 8.5623-4.019 5.2807-13.304 8.3995-20.076 6.7435z" fill="#fff" style="paint-order:stroke fill markers"/>
     <path d="m425.67 400.65c-2.5529-0.88407-7.3355-2.2876-10.628-3.1189l-5.9864-1.5115-0.94283-3.8356c-1.7374-7.0681-5.2828-12.504-10.372-15.902-1.817-1.2133-4.2625-2.4934-5.4346-2.8445-2.0394-0.61101-2.131-0.7374-2.131-2.9411 0-1.2664-0.16011-3.1032-0.35581-4.0817l-0.3558-1.779 10.595 0.28295c11.848 0.31643 19.033 1.4592 27.141 4.3169 4.1946 1.4784 8.8465 3.5225 8.8465 3.8873 0 0.0708-0.36743 3.2698-0.8165 7.1088-0.85802 7.3349-2.9834 17.663-4.1996 20.407l-0.71773 1.6193z" style="paint-order:stroke fill markers"/>
     <path d="m85.265 396.52c-1.7167-6.8566-2.8505-13.411-3.3722-19.494l-0.37757-4.4029 3.2015-1.4226c9.6921-4.3067 21.327-6.4269 35.269-6.4269h7.5229v3.8397c0 3.1729-0.16595 3.8943-0.95563 4.1544-6.1166 2.0146-11.618 6.5933-14.491 12.061-1.743 3.3172-2.2912 4.9616-3.3722 10.116-0.20058 0.95634-0.66719 1.5017-1.2849 1.5017-1.43 0-10.6 2.459-15.991 4.2884l-4.6952 1.5931z" style="paint-order:stroke fill markers"/>
     <path d="m81.638 357.19c0-15.902 6.722-44.66 15.199-65.026l2.0375-4.895 20.733 10.957c11.403 6.0261 20.901 11.118 21.105 11.315 0.20469 0.19737-0.59556 2.3247-1.7783 4.7274-4.1175 8.3645-8.7183 25.304-10.06 37.039l-0.36379 3.1824-3.9144-0.36512c-9.3286-0.87013-29.001 1.7373-38.519 5.1053l-4.4402 1.5713z" fill="#fff" style="paint-order:stroke fill markers"/>
     <path d="m430.95 359.27c-8.8915-3.328-28.89-6.0039-38.093-5.0971-4.1877 0.41264-3.9801 0.63626-4.6007-4.9563-1.2407-11.181-5.2984-25.577-9.9063-35.145-1.6431-3.4118-2.9121-6.2676-2.8199-6.3462 0.36224-0.30897 40.63-21.535 41.435-21.842 0.97468-0.3709 1.1972 0.0369 4.464 8.1797 5.0323 12.544 9.673 28.438 11.879 40.683 1.9909 11.054 3.3415 26.278 2.3214 26.167-0.22526-0.0245-2.3309-0.76372-4.6793-1.6427z" fill="#fff" style="paint-order:stroke fill markers"/>
     <path d="m235.09 336.54c-12.493-0.61901-38.917-3.3042-50.627-5.1445l-3.9374-0.61884-7.6868-23.06c-5.539-16.617-8.0343-23.387-8.9306-24.229-0.86634-0.81388-1.9451-1.1685-3.5543-1.1685-2.9578 0-4.9912 1.8322-4.9912 4.4974 0 0.99915 1.4712 6.2149 3.2693 11.591s3.2111 9.8319 3.1399 9.9028c-0.10819 0.10775-74.088-38.95-74.549-39.358-0.40659-0.36029 5.7533-13.887 8.9617-19.68 13.671-24.682 33.175-43.711 59.178-57.736 8.8664-4.7824 23.107-10.287 24.084-9.3103 0.27812 0.27812 1.2396 5.773 2.1366 12.211 1.9205 13.784 2.641 17.599 5.46 28.913 10.222 41.025 27.808 79.232 51.799 112.54 0.41206 0.57204 0.53493 0.99273 0.27303 0.93486-0.26188-0.0579-2.0734-0.18436-4.0256-0.28109z" style="paint-order:stroke fill markers"/>
     <path d="m252.37 335.69c-2.4098-2.5552-10.104-13.335-14.897-20.873-16.16-25.412-29.619-56.04-38.139-86.793-3.3374-12.046-7.1034-29.57-6.5063-30.276 0.0974-0.11506 1.0997 0.60093 2.2275 1.5911 5.5126 4.8402 16.245 10.847 24.819 13.891l4.1125 1.46 0.98232 4.1935c3.5786 15.277 12.925 38.557 23.388 58.255 9.1067 17.144 22.909 38.308 35.253 54.055 2.5642 3.271 3.629 5.03 3.1923 5.2733-0.36042 0.2008-7.8429 0.54538-16.628 0.76575l-15.972 0.40065z" fill="#fff" style="paint-order:stroke fill markers"/>
     <path d="m299.47 333.94c-0.782-0.90886-4.082-5.0555-7.3333-9.2148-5.5037-7.0406-5.8601-7.6433-5.1663-8.7372 5.3932-8.5032 15.096-27.175 20.191-38.854 12.183-27.927 20.751-57.925 23.549-82.445 1.2721-11.15 1.9677-13.117 4.4619-12.622 2.931 0.58245 14.15 5.2499 21.024 8.7469 26.587 13.525 48.345 34.904 62.008 60.928 3.4667 6.6029 7.6259 16.175 7.3664 16.954-0.19544 0.58631-74.167 39.875-74.167 39.392 0-0.1658 1.4571-4.7408 3.2381-10.167 3.5559-10.834 3.6424-12.036 1.0238-14.24-1.8431-1.5509-3.6248-1.7167-5.8851-0.54786-1.8793 0.97181-1.5766 0.19171-10.384 26.765-3.6829 11.113-6.8981 20.425-7.145 20.694-0.74771 0.81592-16.828 3.5184-27.265 4.5822-4.0931 0.41718-4.0964 0.41644-5.5174-1.2351z" style="paint-order:stroke fill markers"/>
     <path d="m274.82 300.55c-2.5444-3.8697-6.3739-9.942-8.51-13.494l-3.8839-6.4582 5.157-10.303c8.8456-17.673 15.68-35.109 19.365-49.408l1.5481-6.0068 4.5577-1.6632c8.8432-3.2271 16.219-7.1671 22.851-12.207 1.9522-1.4834 3.625-2.4904 3.7173-2.2378 0.0923 0.25265-0.70135 4.7175-1.7636 9.9218-5.8431 28.626-17.309 60.248-31.422 86.656-2.0873 3.9059-4.5142 8.257-5.393 9.669l-1.598 2.5674z" fill="#fff" style="paint-order:stroke fill markers"/>
     <path d="m252.57 261.78c-5.3764-11.058-9.7299-21.643-13.115-31.887-1.7369-5.256-3.3192-10.255-3.5162-11.11-0.35427-1.5367-0.33551-1.55 1.713-1.2158 10.567 1.724 29.075 1.719 37.43-0.01 1.1164-0.23103 1.5017-0.0976 1.5017 0.52001 0 1.7056-3.9836 13.886-7.3247 22.396-3.8843 9.894-12.268 28.191-12.917 28.191-0.23323 0-1.9303-3.098-3.7712-6.8845z" style="paint-order:stroke fill markers"/>
     <path d="m217.55 196.82c-25.692-4.6525-48.195-20.24-60.987-42.244-1.6318-2.8071-3.1589-5.761-3.3941-6.5653-0.39256-1.3426 2.1526-2.3409 31.094-12.197 17.337-5.9039 33.818-11.296 36.625-11.983 7.0906-1.7333 22.378-1.7203 28.702 0.0238 5.4213 1.4962 32.723 12.411 51.29 20.505l12.924 5.6342-1.9311 3.3838c-10.701 18.748-28.712 33.519-49.067 40.238-12.75 4.2082-32.133 5.5805-45.255 3.2042z" fill="#fff" stroke-width="2.8049" style="paint-order:stroke fill markers"/>
    </g>
    <path d="m123.42 180.88c-4.5018-6.8279-8.2621-12.576-8.3562-12.773-0.15417-0.32337 14.729-10.836 15.341-10.836 0.141 0 1.3172 1.7816 2.6138 3.959 1.2966 2.1775 4.8812 8.2079 7.9659 13.401l5.6085 9.442-2.5004 1.4796c-1.3752 0.81375-4.6247 2.8911-7.2211 4.6164s-4.8435 3.1342-4.9937 3.131c-0.15017-3e-3 -3.9564-5.5923-8.4582-12.42z" stroke-width="2.1013" style="paint-order:stroke fill markers"/>
    <g stroke-width=".52532">
     <path d="m98.123 140c-1.7457-2.6614-3.1733-4.8877-3.1724-4.9473 9.42e-4 -0.0596 0.9378-0.72205 2.0819-1.4722 1.1441-0.75014 4.7948-3.1614 8.1126-5.3584s6.0667-3.9945 6.1088-3.9945c0.042 0 1.4854 2.1195 3.2075 4.71l3.1311 4.71-0.43442 0.32318c-1.0798 0.80328-15.684 10.871-15.767 10.87-0.0516-8.3e-4 -1.5221-2.179-3.2678-4.8405z" fill="#fff" style="paint-order:stroke fill markers"/>
     <path d="m86.869 122.7c-1.3177-2.0489-2.6166-4.0718-2.8864-4.4952l-0.49057-0.76984 8.015-5.2941c4.4082-2.9118 8.0846-5.3468 8.1697-5.4111 0.10506-0.0795 1.0795 1.3058 3.0375 4.3183 1.5856 2.4394 2.8828 4.4915 2.8828 4.5602 0 0.12476-15.875 10.703-16.174 10.778-0.0869 0.0216-1.2361-1.6371-2.5538-3.686z" style="paint-order:stroke fill markers"/>
     <path d="m75.7 105.23c-1.2389-1.9612-2.5673-4.067-2.9519-4.6796l-0.69938-1.1138 8.1181-5.3686c6.7469-4.4618 8.1471-5.337 8.2896-5.1813 0.50777 0.55455 5.8321 9.1607 5.7277 9.2582-0.21497 0.20074-16.064 10.656-16.15 10.653-0.04507-1e-3 -1.0956-1.6072-2.3345-3.5684z" fill="#fff" style="paint-order:stroke fill markers"/>
     <path d="m63.495 85.802c-1.7058-2.7407-3.0671-5.0388-3.025-5.1069 0.09555-0.1546 16.073-10.257 16.235-10.265 0.06506-0.0034 1.4835 2.1639 3.152 4.8162 2.619 4.163 3.0041 4.8431 2.8169 4.9748-0.66348 0.46667-15.98 10.564-16.024 10.564-0.02926 0-1.4489-2.2424-3.1547-4.9831z" style="paint-order:stroke fill markers"/>
     <path d="m53.105 68.779c-1.0348-1.7498-2.0845-3.5193-2.3327-3.9322-0.34457-0.57345-0.41253-0.78585-0.28764-0.89896 0.28366-0.25693 16.043-10.296 16.161-10.294 0.06156 7.61e-4 0.71062 1.0298 1.4424 2.2867 0.73174 1.2569 1.7835 3.0595 2.3373 4.0058l1.0069 1.7205-8.0121 5.066c-4.4066 2.7863-8.1069 5.1024-8.2228 5.1469-0.1599 0.06136-0.66458-0.68654-2.0922-3.1005z" fill="#fff" style="paint-order:stroke fill markers"/>
     <path d="m44.239 53.102c-1.239-2.4226-1.3185-1.9987 0.78398-4.1817 2.8526-2.9619 6.0364-5.113 9.7454-6.5842 1.6006-0.63493 4.4254-1.4244 4.566-1.2761 0.14616 0.15423 2.1683 3.6319 2.1598 3.7142-0.0063 0.06068-14.121 9.1245-15.69 10.076l-0.51226 0.31048z" style="paint-order:stroke fill markers"/>
    </g>
    <path d="m303.63 130.02c-29.571-12.79-47.401-19.501-55.721-20.975-6.2062-1.0994-19.613-0.9442-26.807 0.31027-3.6349 0.63358-19.91 5.7316-39.578 12.398-18.373 6.2263-33.473 11.237-33.555 11.134-0.0836-0.10374-0.52214-2.7424-0.97658-5.8663-1.2502-8.5945-1.0561-35.534 0.29726-41.276 5.5726-23.641 30.61-40.781 74.692-51.135 9.2173-2.1649 14.615-2.093 25.151 0.33512 32.773 7.5536 57.024 20.868 67.482 37.051 6.1612 9.5326 7.6456 17.814 7.0259 39.2-0.25275 8.7177-0.86244 16.315-1.5767 19.642-0.64029 2.9846-1.2377 5.4756-1.327 5.5366-0.0886 0.0615-6.8877-2.7989-15.107-6.3539zm-103.17-24.943c7.639-3.9506 9.183-13.522 3.3071-20.505l-3.6927-4.3887h-20.308c-19.221 0-20.468 0.17164-23.303 3.2096-6.3765 6.8312-5.2134 17.649 2.3386 21.753 5.4571 2.9658 35.886 2.9158 41.659-0.0679zm110.99-3.0845c4.6199-5.3767 4.5924-13.724-0.0616-18.377-3.2836-3.2834-4.0912-3.407-22.299-3.407-10.879 0-20.081 0.63617-21.695 1.4997-3.6806 1.97-6.6671 9.3136-5.7463 14.131 0.40276 2.1079 2.6356 5.4332 4.9609 7.39 4.1484 3.4904 4.5831 3.5499 22.861 3.1078 18.456-0.44588 18.664-0.48696 21.979-4.3448z" stroke-width="2.8049" style="paint-order:stroke fill markers"/>
   </g>
   <path d="m225.98 222.48c-14.155-0.60258-29.201-3.7007-41.188-8.4805-4.2935-1.7118-12.624-6.098-16.584-8.7319-24.13-16.048-39.797-43.595-44.694-78.582-0.50931-3.6392-0.63858-8.5677-0.76936-29.343-0.16398-26.023 1e-3 -30.646 1.3653-38.22 1.345-7.4696 3.6503-15.175 6.5297-21.822l1.3854-3.1979 46.935-0.17096-4.7386 2.4809c-22.462 11.761-35.86 26.705-40.422 45.085-0.49612 1.999-1.0766 4.2077-1.2898 4.9079-0.50402 1.6563-0.51706 29.415-0.0181 36.088 0.93219 12.437 3.7338 22.721 9.2842 34.08 9.0515 18.526 24.314 33.941 43.339 43.773 11.369 5.8761 22.328 9.2701 35.945 11.132 4.6145 0.63101 20.179 0.64277 25.151 0.0192 12.911-1.6209 23.718-4.869 35.067-10.538 16.123-8.0536 29.037-19.466 39.094-34.546 3.0922-4.6365 8.1032-14.802 9.9725-20.228 1.838-5.3361 3.2001-10.888 4.1517-16.925 0.66012-4.1855 0.77192-6.921 0.92163-22.551 0.19135-19.922 0.2185-19.631-2.6711-28.958-5.1034-16.476-18.303-30.42-38.966-41.164l-5.1028-2.6533 46.77-0.01538 1.6422 3.9184c4.2295 10.092 6.6378 20.046 7.5131 31.056 0.63557 7.9978 0.50856 48.841-0.17208 55.325-1.2567 11.967-4.3877 24.403-8.9185 35.426-3.3253 8.0905-8.0927 16.908-11.819 21.862-0.81497 1.083-1.9734 2.6669-2.5752 3.5195-2.0723 2.9387-7.2982 8.6483-10.752 11.748-6.4735 5.8087-12.714 10.069-20.371 13.908-7.0818 3.5497-17.273 7.3106-19.812 7.3106-0.56578 0-1.6382 0.25879-2.3839 0.57526-0.74515 0.31647-3.2413 0.95961-5.5466 1.429-10.459 2.1299-23.534 3.0249-36.268 2.4829z" fill="#fff" stroke-width="1.4027" style="paint-order:stroke fill markers"/>
  </g>
  <path d="m122.11 147.2c-0.14563-9.0754 0.12529-22.29 0.53433-26.087 0.61971-5.7494 1.8853-11.757 3.8216-18.137 1.5827-5.2156 4.8232-13.215 5.4156-13.37 0.22641-0.06016 0.72615-0.8438 1.424-2.2358 3.3082-6.5999 7.898-13.514 13.183-19.859 2.653-3.1855 9.1644-9.7513 12.393-12.497 16.445-13.984 36.704-23.056 58.346-26.128 6.0775-0.86288 8.5671-1.0129 16.675-1.0047 8.2643 0.0063 10.369 0.14424 16.93 1.0933 31.827 4.603 60.153 22.229 77.35 48.13 2.2233 3.3489 3.8145 6.04 5.7117 9.6605 0.82992 1.5834 1.478 2.6105 1.6806 2.6637 0.33363 0.087 1.0279 1.6034 2.9823 6.5143 2.7061 6.8005 4.996 15.507 5.9677 22.69 0.79713 5.8964 1.0861 13.204 1.093 27.657l3e-3 8.702h-10.699l-0.107-5.2393c-0.14156-6.9391-0.36324-8.3415-2.333-14.762-2.9841-9.726-7.6748-17.402-15.288-25.016-6.4557-6.456-14.014-11.776-24.606-17.316-3.927-2.0543-4.4536-2.3716-4.5989-2.771-0.0254-0.07171-1.3606-0.69895-2.9642-1.3898-12.248-5.2761-27.649-9.9028-41.28-12.401-8.2807-1.5177-10.185-1.7393-11.913-1.386-0.71487 0.14627-3.0008 0.55562-5.0798 0.90983-13.757 2.343-27.206 6.1213-40.274 11.314-4.1909 1.6649-6.7833 2.8544-7.0004 3.2112-0.0868 0.14297-2.1676 1.3282-4.6233 2.6337-5.1192 2.7208-7.1594 3.921-11.117 6.5384-11.366 7.5171-19.584 16.212-24.788 26.224-2.2197 4.2702-3.5198 7.9238-5.2785 14.83l-0.72959 2.865-0.24516 11.755h-10.462z" fill="#fff" stroke-width=".70131" style="paint-order:stroke fill markers"/>
  <path d="m502.46 299.87c-10.496-7.134-23.875-12.263-37.543-14.395-8.2185-1.2813-21.069-1.1077-29.866 0.40342l-3.3656 0.57777-6.9857-6.8897c-12.294-12.126-24.481-21.565-39.426-30.539-10.418-6.2556-25.629-13.442-35.903-16.961-2.506-0.85861-4.679-1.6659-4.8292-1.7942-0.15026-0.12782 0.62835-2.1913 1.73-4.5851 1.1015-2.3943 2.3479-5.3385 2.7697-6.5434l0.76658-2.1906 2.6062 2.5015c10.109 9.7005 23.265 16.555 37.154 19.356 6.6479 1.3409 12.293 1.7824 19.58 1.5313 8.8305-0.30377 15.267-1.3215 25.662-4.0579 5.5112-1.4512 10.607-2.4674 16.801-3.3518 6.3272-0.90288 20.912-0.90231 27.338 1e-3 12.988 1.8271 24.011 5.1698 34.628 10.501 4.908 2.4643 11.175 6.178 11.03 6.536-0.053 0.12936-4.1807 11.903-9.1742 26.164-4.994 14.261-9.2583 25.909-9.4772 25.885-0.21888-0.0234-1.792-0.99152-3.4956-2.1498z" fill="#fff" stroke-width="1.4027" style="paint-order:stroke fill markers"/>
 </g>
 <g stroke-width="1.3348">
  <path d="m233.81 268.02c-55.909 0-101.39-43.039-101.39-95.931v-27.848a6.675 6.675 0 1 1 13.35 0v27.848c0 45.536 39.502 82.581 88.041 82.581s88.108-37.046 88.108-82.581l-0.0662-27.527a6.675 6.675 0 0 1 13.35 0l0.0662 27.527c-0.0154 52.892-45.523 95.931-101.46 95.931z"/>
  <path d="m233.79 292.18c-64.012 0-94.583-32.546-108.95-59.834a141.51 141.51 0 0 1-15.686-59.339v-6.5146l-0.0814-34.322c0-65.013 55.962-117.89 124.73-117.89s124.66 52.878 124.66 117.88v34.709l0.10686 6.0342v0.14726a141.4 141.4 0 0 1-15.752 59.339c-14.431 27.26-45.016 59.793-109.03 59.793zm0-264.55c-61.409 0-111.38 46.884-111.38 104.53l0.12111 40.784a129.95 129.95 0 0 0 14.378 53.599c18.449 34.709 51.05 52.291 96.906 52.291 45.856 0 78.483-17.595 96.959-52.291a130.41 130.41 0 0 0 14.431-53.546l-0.107-6.0474v-34.79c-0.02736-57.644-49.955-104.53-111.34-104.53z"/>
  <path d="m509.47 320.65a6.6749 6.6749 0 0 1-4.7661-2.0027c-1.1748-1.1746-29.61-29.129-73.891-18.009a6.6749 6.6749 0 0 1-3.2438-12.949 93.341 93.341 0 0 1 78.763 15.019l18.556-53.039c-10.8-7.369-44.549-26.286-91.113-13.35-33.468 9.3447-56.723 0.56094-70.34-8.3838a71.114 71.114 0 0 1-21.961-22.388 6.6749 6.6749 0 0 1 11.655-6.5008c0.98786 1.7485 23.122 39.381 77.068 24.403 62.744-17.421 105.13 17.181 106.9 18.69a6.6749 6.6749 0 0 1 2.016 7.3287l-23.362 66.749a6.6749 6.6749 0 0 1-4.8455 4.3122 6.755 6.755 0 0 1-1.4418 0.12088z"/>
  <path d="m264.97 430.52a6.6749 6.6749 0 0 1-5.6202-10.253c47.512-74.759 58.605-150.68 58.966-153.21l2.6697-23.936a6.6749 6.6749 0 1 1 13.256 1.4953l-2.67 24.03v0.13348c-0.44028 3.2576-11.294 80.566-60.941 158.65a6.6749 6.6749 0 0 1-5.6604 3.0973z"/>
 </g>
 <g stroke-width="1.3348">
  <path d="m323.01 208.97a6.6749 6.6749 0 0 1-2.7366-0.58742c-0.44042-0.18698-44.054-19.718-66.455-27.647-18.449-6.5284-38.154 0-38.354 0l-70.073 23.856a6.6766 6.6766 0 0 1-4.2986-12.642l70.086-23.856c0.96099-0.3337 24.163-8.0899 47.084 0 22.921 8.0899 65.667 27.247 67.47 28.035a6.6749 6.6749 0 0 1-2.67 12.762z"/>
  <path d="m139.09 157.6a6.6749 6.6749 0 0 1-6.6748-6.6745c0-26.82 17.848-48.567 51.61-62.904a200.06 200.06 0 0 1 49.394-13.35 6.6749 6.6749 0 1 1 1.562 13.256c-0.89453 0.10696-89.19 11.133-89.19 63.011a6.6749 6.6749 0 0 1-6.7016 6.6613z"/>
  <path d="m328.58 157.6a6.6749 6.6749 0 0 1-6.6751-6.6745c0-51.97-88.282-62.904-89.176-63.011a6.6749 6.6749 0 1 1 1.5484-13.256 199.91 199.91 0 0 1 49.394 13.35c33.762 14.337 51.61 36.044 51.61 62.904a6.6749 6.6749 0 0 1-6.7016 6.6878z"/>
 </g>
</svg>
