<?xml version="1.0" encoding="UTF-8"?>
<svg width="620" height="620" enable-background="new 0 0 620 620" version="1.1" viewBox="0 0 620 620" xmlns="http://www.w3.org/2000/svg">
 <g transform="matrix(.1 0 0 -.1 0 620)">
  <path d="m4432 5784c-24-48-67-116-96-153-71-88-243-253-336-322-73-54-345-229-356-229-3 0-20-11-37-24-18-14-58-38-90-55-75-39-102-59-94-67 7-7 138 27 192 51 17 7 50 18 75 25 47 14 213 78 290 112 154 69 267 132 313 176 51 49 114 158 149 257 40 113 71 271 58 296-6 10-14 19-18 19s-27-39-50-86z"/>
  <path d="m5148 5592c-127-104-227-174-328-232-41-23-88-50-105-60-119-67-277-150-289-150-3 0-47-20-98-44-273-129-706-276-933-316-291-52-472-116-608-214-34-24-125-109-202-188-106-108-160-155-218-190-74-43-83-46-194-58-92-10-133-10-198-1-69 11-90 10-133-2-69-21-89-32-150-88-98-90-157-177-212-314-18-44-38-93-45-110-33-80-57-164-52-179 12-29 84-24 532 39 204 29 492 61 812 90 94 9 147-30 136-99-8-54-57-147-101-190-34-34-174-136-187-136-3 0-34-13-68-29s-116-50-182-75c-66-26-174-69-240-96-66-26-149-60-185-73-160-63-210-93-210-126 0-9 12-34 28-56 15-21 52-89 82-149 40-81 60-112 75-114 14-2 48 24 105 80 100 97 192 152 355 215 350 133 788 174 1044 97 172-52 241-128 241-264 0-87-24-210-53-273-53-117-190-207-383-252-60-15-145-37-189-49-44-13-121-31-172-40-273-48-529-178-686-346-95-103-155-193-218-325-47-100-59-134-99-290-45-177-88-560-66-583 10-9 3753-9 3789 1l27 7v195 938c0 488-10 736-36 917-20 141-31 173-94 276-28 45-50 84-50 88 0 12 48 6 110-14 82-26 134-26 161 1 17 17 19 28 14 67-4 26-11 61-16 77-44 151-72 210-170 356-74 111-142 192-246 294-46 45-83 89-83 98 0 24 86 32 140 13 58-20 149-21 156-2 11 28-35 102-109 177-118 117-256 214-444 310-92 47-169 92-171 100-4 23 105 38 234 32 95-5 113-3 127 12 16 16 16 18 0 46-41 70-269 187-498 255-46 14-87 18-173 16-136-4-141 5-36 58 38 19 81 42 94 51 14 9 59 35 100 59 265 155 448 349 637 674 64 110 82 168 53 172-8 2-63-36-122-84zm-1932-1166c9-22-32-92-73-125-263-211-291-226-359-187-55 31-65 84-28 158 30 59 240 138 447 167 4 1 10-5 13-13z"/>
  <path d="m2565 3459c-22-4-64-8-93-8-92-1-324-46-445-85-128-42-286-133-502-289-257-186-333-231-466-276-122-40-175-47-262-31-141 24-190 45-249 108-39 41-60 73-73 112-20 62-41 100-55 100-6 0-10-36-10-84 0-75 3-90 35-154 100-200 365-274 650-182 101 32 229 88 275 121 14 9 79 52 145 95 66 42 156 101 200 129 222 145 327 181 660 225 103 14 198 36 235 55 43 22 79 66 91 108 9 36 8 43-7 54-20 14-67 15-129 2z"/>
  <g fill="#fff">
   <path d="m3101 4429c-70-9-187-47-259-83-86-44-122-106-106-183 4-23 16-35 48-50 61-30 110-15 206 64 41 34 100 81 130 105 63 50 100 100 100 134 0 27-7 28-119 13z"/>
  </g>
 </g>
</svg>
