<?xml version="1.0" encoding="UTF-8" standalone="no"?>
<!-- Created with Inkscape (http://www.inkscape.org/) -->

<svg
   width="210mm"
   height="297mm"
   viewBox="0 0 210 297"
   version="1.1"
   id="svg1"
   xml:space="preserve"
   xmlns="http://www.w3.org/2000/svg"><defs
     id="defs1" /><g
     id="layer2"
     style="display:inline"><g
       id="path15"
       style="opacity:1;fill:#f7f7f7;fill-opacity:1;stroke:#000000;stroke-opacity:1;stroke-width:1;stroke-dasharray:none"
       transform="translate(0,4.5614334)" /><path
       id="path34"
       style="display:inline;opacity:0.881432;stroke:#000000;stroke-width:0.2;paint-order:stroke fill markers"
       d="m 182.83747,94.839798 a 2.0589802,1.7738907 0 0 1 -2.05898,1.773891 2.0589802,1.7738907 0 0 1 -2.05898,-1.773891 2.0589802,1.7738907 0 0 1 2.05898,-1.773891 2.0589802,1.7738907 0 0 1 2.05898,1.773891 z M 89.874618,34.247993 C 76.352903,33.968416 75.503995,50.681 71.861764,58.903336 66.604053,62.577062 56.695045,55.790182 65.724154,53.269571 53.516215,44.898237 55.488079,67.499195 66.226965,66.904398 81.182298,72.3536 80.241012,51.33763 92.311678,48.998514 c 9.172582,1.066389 9.358122,-5.61045 4.56768,-11.705746 -1.327395,-1.727768 -3.39523,-3.070282 -5.655986,-2.963643 -0.463077,-0.04524 -0.91257,-0.07211 -1.348754,-0.08113 z M 102.9007,48.341706 c -0.20717,-0.0051 -0.5675,0.11086 -1.1312,0.431499 -7.947264,0.487575 -16.489927,2.424581 -15.285373,11.974463 2.893745,8.582898 -5.914174,8.840056 -9.527584,12.185302 -0.643674,11.436509 -11.06726,16.922094 -14.542782,26.349296 -1.860864,12.376854 11.205982,14.102604 19.18901,8.904884 11.178495,-0.80877 8.014297,20.09779 -1.297595,18.75957 -13.688652,-5.33077 -25.439521,3.74219 -38.6302,5.61051 -11.397931,-0.14731 -26.320894,1.07363 -28.160555,15.34842 -1.538608,10.35648 -3.185397,21.06531 -8.9612106,30.00644 -3.75390478,12.8446 10.0344526,28.60545 23.2528446,22.67252 4.327752,-1.86696 7.709873,-13.08273 0.01912,-10.79056 -2.34647,-11.98416 7.829362,-24.75305 0.0894,-35.93114 -3.971423,-10.65843 17.492177,-12.98903 10.409701,-0.66766 -0.393969,12.87306 7.021073,24.73984 5.648751,37.68246 -7.987237,11.82812 4.963669,22.80657 7.354073,34.04133 1.735774,9.02678 12.484445,28.72835 22.378479,18.36322 0.832961,-11.75143 -12.306828,-17.07002 -14.846639,-27.69495 -5.536364,-7.11262 0.746551,-27.49706 9.624218,-17.54415 -0.655515,14.17956 16.154843,18.39005 21.786784,29.89585 1.863491,9.07885 15.631088,25.80394 23.531378,14.45235 -1.78854,-9.03245 -11.89495,-14.72506 -17.557582,-21.92321 -6.148341,-6.93408 -14.387531,-15.9491 -9.844361,-25.87646 4.036696,-7.38347 4.967723,-22.27645 15.924093,-14.73037 8.80654,2.10366 20.00221,3.18086 19.17557,14.40533 4.29576,8.077 22.38528,2.74309 21.62091,-6.17275 -3.23485,-2.03408 -15.98369,-5.45063 -5.38934,-7.34477 14.00005,-2.2108 12.09298,15.26678 16.17162,23.96442 5.65206,11.14718 3.82069,24.70568 10.80245,35.25418 2.67472,11.42695 24.00047,8.7622 17.71984,-3.11867 -11.18288,-5.48121 -13.75685,-19.06387 -15.12207,-30.33717 0.37279,-8.85175 -6.45399,-17.73277 -2.00711,-26.17101 3.8461,-7.74777 16.0805,-15.06807 22.90454,-6.74171 5.76715,7.91848 -1.82161,16.40015 -6.85281,22.35161 -7.15815,5.6008 -3.44784,19.0862 5.82497,11.22877 9.06954,-8.17133 13.32225,-20.91349 14.31489,-32.8352 1.84713,-11.10397 -5.85845,-21.20601 -17.59428,-16.87391 -13.70339,-0.46495 -2.01061,-19.18788 -7.97057,-27.42313 0.51577,-7.47831 -12.45675,-17.26947 -3.81889,-22.12578 2.03552,8.93715 13.19971,20.98082 22.06687,11.07116 2.58854,-12.93117 -3.67466,-26.90999 1.35392,-39.81669 -1.5807,-9.907015 -17.4496,-11.039002 -26.70741,-11.782743 -13.49499,-1.81101 -25.51473,8.350286 -32.44712,19.033463 -4.4813,7.205983 -4.28865,17.63183 -15.42696,13.089641 -13.02564,0.09656 -9.87642,-15.272655 -12.76615,-24.087419 -0.0807,-5.238691 1.68772,-10.745999 5.66426,-14.316956 l -4.75527,-12.569775 c -1.76695,0.05583 -3.838,0.06722 -5.99757,0.162264 0.0858,-0.195416 0.0477,-0.35697 -0.18706,-0.362769 z m 2.26549,6.712252 0.85525,4.466394 -1.26659,-0.03152 c -0.27453,-1.372653 -0.5492,-2.745442 -0.82373,-4.118095 0.4118,-0.105589 0.82327,-0.211188 1.23507,-0.316777 z m -2.312,1.140499 c 0.22174,1.013652 0.44333,2.026989 0.66507,3.040641 -0.29565,0.01056 -0.59111,0.02148 -0.88676,0.03204 -0.32732,-0.739121 -0.65505,-1.478315 -0.98237,-2.217436 0.40124,-0.285088 0.80282,-0.570157 1.20406,-0.855245 z m -2.85099,6.905522 -0.411863,5.162992 -0.95033,-0.316776 v -4.719609 c 0.454031,-0.04224 0.90816,-0.08438 1.362193,-0.126607 z m 1.01337,0.284737 c 0.42236,0.04224 0.84475,0.08488 1.26711,0.127124 -0.34844,1.921714 -0.69698,3.843309 -1.04542,5.765023 -0.27453,-0.1795 -0.54867,-0.358969 -0.8232,-0.538469 0.20062,-1.78445 0.40089,-3.569228 0.60151,-5.353678 z m 2.37609,0.190169 c 0.36956,0.07391 0.73889,0.147782 1.10845,0.221692 -0.5913,2.15401 -1.18275,4.308128 -1.77405,6.462138 -0.23229,-0.137265 -0.46431,-0.274596 -0.6966,-0.411861 z m 2.40708,0.411861 c 0.359,0.02112 0.71794,0.04244 1.07694,0.06356 -0.80248,2.396865 -1.60461,4.793394 -2.40709,7.190259 -0.32908,-0.186056 -0.65845,-0.372049 -0.98753,-0.558105 0.77256,-2.231925 1.54512,-4.463791 2.31768,-6.695716 z M 28.366744,86.692854 C 23.665905,88.479418 3.11803,85.243373 15.622302,92.28321 c 6.405866,4.086848 13.709948,0.913567 20.468518,2.263945 8.242808,1.427955 16.485399,2.85602 24.728207,4.283976 -3.22822,-8.824199 -17.34434,-3.318878 -24.770065,-7.019726 -3.08973,-0.532045 -6.518141,-1.919246 -7.682218,-5.118551 z M 129.80965,104.77547 c 1.22353,9.67489 -11.7698,23.34526 -14.47147,7.70134 0.7843,-6.18158 13.05715,-1.11215 14.47147,-7.70134 z" /></g><g
     id="layer3"
     style="display:inline" /></svg>
