            <svg xmlns="http://www.w3.org/2000/svg" viewBox="0 0 45 45">
                <g style="fill:#ffffff; stroke:#000000; stroke-width:1.5; stroke-linecap:round; stroke-linejoin:round">
                    <!-- Miter Hat (High Priest) -->
                    <path d="M 16,14 L 16,10 L 22.5,4 L 29,10 L 29,14" />
                    <path d="M 22.5,4 L 22.5,14" stroke-width="1" /> <!-- Split -->
                    <path d="M 14,14 L 31,14" /> <!-- Brim -->
                    
                    <!-- Robes -->
                    <path d="M 17,14 L 14,38 L 31,38 L 28,14" />
                    
                    <!-- Stole/Vestment (Y shape) -->
                    <path d="M 17,14 L 22.5,22 L 28,14" />
                    <path d="M 22.5,22 L 22.5,38" />
                    
                    <!-- Staff of Asclepius (Vitalist) - Held in Right Hand -->
                    <path d="M 33,6 L 33,38" />
                    <!-- The Snake -->
                    <path d="M 33,34 Q 29,30 33,26 Q 37,22 33,18 Q 31,16 33,14" fill="none" />
                    <path d="M 33,14 L 34,12" stroke-width="1" /> <!-- Snake Head -->
                    
                    <!-- Hands -->
                    <circle cx="33" cy="24" r="1.5" fill="white"/> <!-- Holding Staff -->
                    <circle cx="12" cy="22" r="1.5" fill="white"/> <!-- Blessing Gesture -->
                </g>
            </svg>