<?xml version="1.0" encoding="UTF-8"?>
<svg version="1.1" viewBox="0 0 512 640" xmlns="http://www.w3.org/2000/svg">
 <path d="m256.51 200.57c-41.88 0-75.95-32.24-75.95-71.86v-20.86a5 5 0 1 1 10 0v20.86c0 34.11 29.59 61.86 65.95 61.86s66-27.75 66-61.86l-0.05-20.62a5 5 0 0 1 10 0l0.05 20.62c-0.01 39.62-34.1 71.86-76 71.86z"/>
 <path d="m256.5 218.67c-47.95 0-70.85-24.38-81.61-44.82a106 106 0 0 1-11.75-44.45v-4.88l-0.06-25.71c0-48.7 41.92-88.31 93.43-88.31s93.38 39.61 93.38 88.3v26l0.08 4.52v0.11a105.92 105.92 0 0 1-11.8 44.45c-10.81 20.42-33.72 44.79-81.67 44.79zm0-198.17c-46 0-83.43 35.12-83.43 78.3l0.09 30.55a97.34 97.34 0 0 0 10.77 40.15c13.82 26 38.24 39.17 72.59 39.17s58.79-13.18 72.63-39.17a97.69 97.69 0 0 0 10.81-40.11l-0.08-4.53v-26.06c-0.02-43.18-37.42-78.3-83.4-78.3z"/>
 <path d="M99,155.54a5,5,0,0,1-4.17-2.24C72.44,119.64,49.89,83,49.66,82.6c-.53-.87-13.27-21.54-16.91-30.14A5,5,0,0,1,33,48.12,37.42,37.42,0,0,1,61.51,30.45a5,5,0,0,1,4.81,2.46L81,58c1,1.58,23.8,38.54,46.94,73a5,5,0,1,1-8.3,5.57C96,101.34,72.65,63.56,72.42,63.18l-.06-.1-13-22.2A27.57,27.57,0,0,0,43.07,51c4.41,9,15,26.2,15.11,26.39.23.37,22.69,36.9,45,70.41a5,5,0,0,1-1.4,6.93A4.94,4.94,0,0,1,99,155.54Z"/>
 <path d="m83.88 187.39a6.54 6.54 0 0 1-1.25-0.12 6.35 6.35 0 0 1-4.13-2.8l-7.09-10.95a6.62 6.62 0 0 1 1.83-9l69.42-48.11a6.55 6.55 0 0 1 5-1 6.33 6.33 0 0 1 4.13 2.8l7.09 11a6.62 6.62 0 0 1-1.82 9l-69.44 48.01a6.54 6.54 0 0 1-3.74 1.17zm-2.24-16.48 3.25 5 63.75-44.18-3.25-5zm68.84-36.31zm0 0z"/>
 <path d="M43.51,67.36a5,5,0,0,1-2.7-9.21L65.72,42.2a5,5,0,0,1,5.39,8.42L46.2,66.57A5,5,0,0,1,43.51,67.36Z"/>
 <path d="M323.33,156.34a5,5,0,0,1-2.05-.44c-.33-.14-33-14.77-49.78-20.71-13.82-4.89-28.58,0-28.73,0l-52.49,17.87a5,5,0,0,1-3.22-9.47l52.5-17.87c.72-.25,18.1-6.06,35.27,0s49.19,20.41,50.54,21a5,5,0,0,1-2,9.56Z"/>
 <path d="m229.83 116.5h-10.66a5 5 0 1 1 0-10h10.66a5 5 0 1 1 0 10z"/>
 <path d="m293.83 116.5h-10.66a5 5 0 0 1 0-10h10.66a5 5 0 0 1 0 10z"/>
 <path d="M384.81,392.72a5,5,0,0,1-1.73-.31,189.19,189.19,0,0,0-46.91-10.53,5,5,0,0,1,.65-10A195.84,195.84,0,0,1,386.53,383a5,5,0,0,1-1.72,9.69Z"/>
 <path d="M409.56,500.5H349.67a5,5,0,0,1-3.14-1.11c-.15-.12-15.31-12.18-38.94-21.14a5,5,0,0,1,3.54-9.35,170.1,170.1,0,0,1,40.24,21.6h58.19c13.14,0,25.24-8.2,30.83-20.88,3.19-7.24,8.45-26.45-11.61-48.42l-.81-.88a5,5,0,0,1,7.28-6.85l.92,1c16.67,18.26,21.67,40.39,13.37,59.19C442.35,490,426.66,500.5,409.56,500.5Z"/>
 <path d="M279,470.36a4.62,4.62,0,0,1-.82-.07,134.73,134.73,0,0,0-21.72-1.79,138.31,138.31,0,0,0-21.74,1.77,5,5,0,0,1-1.58-9.88,148.69,148.69,0,0,1,23.32-1.89,145.7,145.7,0,0,1,23.34,1.92,5,5,0,0,1-.8,9.94Z"/>
 <path d="m160.5 500.5h-57.06c-17.1 0-32.79-10.54-40-26.85-8.3-18.8-3.3-40.93 13.37-59.19 1.35-1.48 2.78-2.95 4.25-4.35a5 5 0 1 1 6.93 7.2c-1.31 1.26-2.59 2.57-3.79 3.89-20.06 22-14.8 41.18-11.61 48.42 5.61 12.68 17.71 20.88 30.85 20.88h55.44a189.2 189.2 0 0 1 42-21.57 5 5 0 1 1 3.45 9.39 176.92 176.92 0 0 0-40.83 21.18 5 5 0 0 1-3 1z"/>
 <path d="m133.56 390.85a5 5 0 0 1-1.56-9.75 195.33 195.33 0 0 1 44.19-9.2 5 5 0 0 1 0.65 10 188.14 188.14 0 0 0-41.7 8.72 5 5 0 0 1-1.58 0.23z"/>
 <path d="m185.56 117.86a5 5 0 0 1-5-5c0-20.09 13.37-36.38 38.66-47.12a149.86 149.86 0 0 1 37-10 5 5 0 1 1 1.17 9.93c-0.67 0.08-66.81 8.34-66.81 47.2a5 5 0 0 1-5.02 4.99z"/>
 <path d="m327.5 117.86a5 5 0 0 1-5-5c0-38.93-66.13-47.12-66.8-47.2a5 5 0 1 1 1.16-9.93 149.75 149.75 0 0 1 37 10c25.29 10.74 38.66 27 38.66 47.12a5 5 0 0 1-5.02 5.01z"/>
 <path d="M296.88,344.23a5,5,0,0,1-3.85-1.81c-59.77-72-69.07-129-69.44-131.4a5,5,0,1,1,9.89-1.51c.05.33,2.35,14.42,11.68,36.81,8.66,20.82,25.34,53.28,55.57,89.72a5,5,0,0,1-3.85,8.19Z"/>
 <path d="m250.66 347.45a5 5 0 0 1-3.9-1.86c-52.87-65.49-63.57-141.25-64-144.45 0-0.19-1.83-14.7-2.8-19.56a5 5 0 0 1 9.8-2c1.05 5.23 2.84 19.64 2.91 20.25s10.82 76.21 61.87 139.45a5 5 0 0 1-0.75 7 4.94 4.94 0 0 1-3.13 1.17z"/>
 <path d="M256.5,285a5,5,0,0,1-2.43-.63,5,5,0,0,1-1.94-6.8c22.44-40.32,26.84-67.75,26.88-68a5,5,0,1,1,9.88,1.51c-.18,1.19-4.72,29.5-28,71.38A5,5,0,0,1,256.5,285Z"/>
 <path d="m279.85 322.3a5 5 0 0 1-4.21-7.68c35.59-56 43.9-112.87 44.17-114.77l2-17.93a5 5 0 1 1 9.93 1.12l-2 18s0 0.07 0 0.1c-0.33 2.44-8.46 60.35-45.65 118.84a5 5 0 0 1-4.24 2.32z"/>
 <path d="m171.16 324.5a5 5 0 0 1-2.33-0.58l-90.67-48a5 5 0 0 1-2.39-6.05 154 154 0 0 1 62.87-80.58c22.36-14.29 41.06-18.5 41.85-18.68a5 5 0 0 1 2.13 9.77c-0.18 0-18.06 4.08-38.92 17.55-26.64 17.19-45.81 41.12-57 71.18l86.84 46a5 5 0 0 1-2.35 9.42z"/>
 <path d="m341.84 324.5a5 5 0 0 1-2.35-9.42l86.84-46c-11.22-30.06-30.39-54-57-71.18-20.86-13.47-38.74-17.51-38.92-17.55a5 5 0 0 1 2.13-9.77c0.79 0.18 19.53 4.36 41.85 18.68a154 154 0 0 1 62.87 80.58 5 5 0 0 1-2.39 6.05l-90.67 48a5 5 0 0 1-2.36 0.61z"/>
 <path d="M263,389.06a541.15,541.15,0,0,1-87.35-7.25,5,5,0,0,1-3.81-3.22c-8.74-24.21-.25-44.24.12-45.08a5,5,0,0,1,5.48-2.93c.86.16,87.7,15.63,158,0a5,5,0,0,1,5.41,2.37c8.64,14.9,1.34,42.19.48,45.25a5,5,0,0,1-3.72,3.53C313.17,387.23,287,389.06,263,389.06Zm-82.67-16.61c15.53,2.49,90.2,13.19,152.13.21,1.82-7.81,4.09-22.32,1.16-31.43-63.19,12.94-135.37,2.87-153.69-.09A57.08,57.08,0,0,0,180.29,372.45Z"/>
 <path d="m176.5 340.5a5 5 0 0 1-4.74-3.42l-16-48a5 5 0 1 1 9.48-3.16l16 48a5 5 0 0 1-3.16 6.32 4.84 4.84 0 0 1-1.58 0.26z"/>
 <path d="m336.5 340.5a4.84 4.84 0 0 1-1.58-0.26 5 5 0 0 1-3.16-6.32l16-48a5 5 0 0 1 9.48 3.16l-16 48a5 5 0 0 1-4.74 3.42z"/>
 <path d="M308.33,500.5H272.5a5,5,0,0,1-4.63-6.89c15.4-37.61-.09-107.9-.25-108.61a5,5,0,0,1,9.76-2.19c.64,2.84,14.66,66.53,2.18,107.69h24.1c.95-16.38,3-72.79-11.37-105.81a5,5,0,1,1,9.17-4c7.55,17.33,11.83,42,12.73,73.39a409.37,409.37,0,0,1-.87,41.83A5,5,0,0,1,308.33,500.5Z"/>
 <path d="M240.5,500.5H204.67a5,5,0,0,1-5-4.58c-.25-3-6-74.16,11.86-115.22a5,5,0,1,1,9.17,4c-14.37,33-12.32,89.43-11.37,105.81h24.1C221,449.34,235,385.65,235.62,382.81a5,5,0,0,1,9.76,2.19c-.16.71-15.63,71-.25,108.61a5,5,0,0,1-4.63,6.89Z"/>
 <path d="m247.16 387.69a5 5 0 0 1-4.88-3.92 103.37 103.37 0 0 1 0-42.51 5 5 0 0 1 9.72 2.37 94.58 94.58 0 0 0 0 38 5 5 0 0 1-3.8 6 5.1 5.1 0 0 1-1.04 0.06z"/>
 <path d="M111.14,438.46a30.57,30.57,0,0,1-24.09-11.63c-5.84-7.65-8.91-17-11.37-26-16.33-59.71,15-120.61,16.39-123.17a5,5,0,0,1,8.86,4.64h0c-.31.59-30.88,60-15.61,115.89,2.19,8,4.88,16.29,9.68,22.59a20.48,20.48,0,0,0,18.56,7.54A16.29,16.29,0,0,0,127,418.48c2.36-5.45,1.82-11.83,1.25-18.59-.18-2.19-.37-4.46-.46-6.7-.26-6.87-.33-12.93-.21-18.54.36-17.65,2.22-31.87,5.85-44.76,2.87-10.16,6.61-18.36,11.44-25.07a5,5,0,0,1,8.12,5.85c-4.14,5.74-7.39,12.92-9.93,21.93-3.4,12-5.14,25.48-5.48,42.25-.11,5.42-.05,11.29.2,18,.08,2,.25,4.06.44,6.23.61,7.34,1.31,15.65-2,23.4a26.17,26.17,0,0,1-21.44,15.79A29.35,29.35,0,0,1,111.14,438.46Z"/>
 <path d="M83.56,414.39a5,5,0,0,1-2-9.6c.65-.28,14.57-6.22,27.24-8.41.9-9.28,6.34-22.08,23-24.44a5,5,0,0,1,1.4,9.9c-6.63.94-10.91,4.16-13.1,9.86a22.59,22.59,0,0,0-1.43,8.67,5,5,0,0,1-4.51,5.36c-12,1.16-28.53,8.18-28.7,8.25A4.9,4.9,0,0,1,83.56,414.39Z"/>
 <path d="M406.32,438.46a29.47,29.47,0,0,1-3.63-.22,26.17,26.17,0,0,1-21.44-15.79c-3.35-7.75-2.65-16.06-2-23.39.19-2.18.36-4.24.44-6.24.25-6.69.31-12.56.2-18-.34-16.77-2.08-30.2-5.48-42.25-2.54-9-5.79-16.19-9.93-21.93a5,5,0,0,1,8.12-5.85c4.83,6.71,8.57,14.91,11.44,25.07,3.63,12.89,5.49,27.11,5.85,44.76.12,5.6,0,11.66-.21,18.54-.09,2.24-.28,4.51-.46,6.71-.57,6.75-1.11,13.14,1.25,18.58a16.29,16.29,0,0,0,13.47,9.83,20.47,20.47,0,0,0,18.56-7.54c4.8-6.3,7.49-14.58,9.68-22.59,15.3-55.95-15.3-115.29-15.61-115.89a5,5,0,1,1,8.86-4.64c1.34,2.56,32.72,63.46,16.39,123.17-2.45,9-5.53,18.36-11.37,26A30.58,30.58,0,0,1,406.32,438.46Z"/>
 <path d="M433.9,414.39a4.9,4.9,0,0,1-2-.41c-.17-.07-16.65-7.09-28.7-8.25a5,5,0,0,1-4.51-5.36c.11-1.65.65-16.38-14.53-18.53a5,5,0,1,1,1.4-9.9c16.7,2.36,22.14,15.16,23,24.44,12.67,2.19,26.59,8.13,27.24,8.41a5,5,0,0,1-2,9.6Z"/>
 <path d="M76,374.8a5,5,0,0,1-2.67-9.23c23.72-15,58.81-10.73,60.29-10.54a5,5,0,1,1-1.26,9.92c-.51-.06-33.1-3.93-53.69,9.08A5,5,0,0,1,76,374.8Z"/>
 <path d="M440.83,374.8a5,5,0,0,1-2.7-.79c-20.36-13.07-52.46-9.1-52.79-9.06a5,5,0,0,1-1.28-9.92c1.47-.18,36.08-4.45,59.47,10.56a5,5,0,0,1-2.7,9.21Z"/>
 <path d="M463,240a5,5,0,0,1-3.57-1.5c-.88-.88-22.18-21.82-55.35-13.49a5,5,0,0,1-2.43-9.7,69.92,69.92,0,0,1,59,11.25l13.9-39.73c-8.09-5.52-33.37-19.69-68.25-10-25.07,7-42.49.42-52.69-6.28a53.27,53.27,0,0,1-16.45-16.77,5,5,0,0,1,8.73-4.87c.74,1.31,17.32,29.5,57.73,18.28,47-13.05,78.75,12.87,80.08,14a5,5,0,0,1,1.51,5.49l-17.5,50a5,5,0,0,1-3.63,3.23A5.06,5.06,0,0,1,463,240Z"/>
 <path d="M130.5,206.14a5,5,0,0,1-4.24-2.34c-3.92-6.22-22.76-34.34-23-34.62a5,5,0,1,1,8.31-5.57c.78,1.16,19.11,28.52,23.1,34.87a5,5,0,0,1-4.22,7.66Z"/>
 <path d="m154.09 191.16a5 5 0 0 1-4.3-2.44l-22-36.85a5 5 0 1 1 8.59-5.12l22 36.85a5 5 0 0 1-4.29 7.56z"/>
 <path d="M53.52,84a5,5,0,0,1-2.68-9.22l25-15.8a5,5,0,1,1,5.34,8.45l-25,15.8A5,5,0,0,1,53.52,84Z"/>
 <path d="M65.43,102.73a5,5,0,0,1-2.77-9.17L86.18,78a5,5,0,1,1,5.52,8.34L68.18,101.9A5,5,0,0,1,65.43,102.73Z"/>
 <path d="m77.19 120.52a5 5 0 0 1-2.77-9.17l23.52-15.57a5 5 0 0 1 5.52 8.34l-23.52 15.57a5 5 0 0 1-2.75 0.83z"/>
 <path d="M89,137.82a5,5,0,0,1-2.76-9.17l23.52-15.57a5,5,0,1,1,5.52,8.33L91.74,137A5,5,0,0,1,89,137.82Z"/>
 <g fill="#fff" stroke="#fff" stroke-linecap="round" stroke-linejoin="round">
  <path d="m95.767 488.67c-16.418-4.4182-26.136-18.586-25.094-36.584 0.5185-8.9568 4.2135-18.457 9.9049-25.467l2.5514-3.1425 6.0557 6.0556c4.576 4.576 7.4779 6.478 11.876 7.7842 11.695 3.4731 22.423 1.1696 30.044-6.4514 6.7855-6.7855 8.6591-13.784 7.7842-29.075l-0.66497-11.622 6.2466-1.698c10.417-2.8317 23.825-5.238 29.946-5.3742 5.1869-0.11549 32.548 3.1643 33.386 4.002 0.18577 0.18577-0.66879 3.9637-1.899 8.3954-4.5158 16.267-7.6668 42.029-7.6738 62.739l-4e-3 10.996-8.6316 3.5637c-4.7474 1.96-13.935 6.7185-20.417 10.574l-11.785 7.0107-27.911-0.0719c-20.576-0.053-29.436-0.4823-33.714-1.6337z" stroke-width="4.2026" style="paint-order:stroke fill markers"/>
  <g stroke-width="1.0506">
   <path d="m209.46 489.77c-0.0875-0.33455-0.3087-5.9022-0.49158-12.373-0.83322-29.479 1.3853-55.944 6.3617-75.886 1.0072-4.0362 3.7836-12.935 4.2836-13.73 0.17384-0.27622 1.6616-0.25005 7.5007 0.13192 6.245 0.40852 7.2656 0.53555 7.1562 0.89063-0.27128 0.88056-2.3412 13.496-3.0024 18.298-2.1082 15.312-2.9648 27.196-2.9718 41.229-7e-3 13.745 0.61888 21.809 2.4468 31.536 0.64588 3.4371 2.1717 9.8211 2.458 10.284 0.0774 0.12518-5.197 0.2276-11.721 0.2276h-11.861z" style="paint-order:stroke fill markers"/>
   <path d="m238.62 457.42c-0.29522-3.1411 0.0661-20.971 0.54936-27.11 0.9183-11.665 2.2284-22.16 4.2606-34.13 0.59914-3.529 1.1461-6.6007 1.2154-6.8259 0.11013-0.35766 1.6055-0.39747 11.802-0.31412 6.4216 0.0525 11.717 0.13507 11.768 0.18352 0.3065 0.29183 2.4243 12.824 3.4364 20.335 1.9774 14.675 2.7106 25.052 2.733 38.68 0.01 6.0317-0.0434 11.025-0.1185 11.096-0.0751 0.0711-1.7338-0.0578-3.686-0.28638-6.6967-0.78423-28.146-0.53179-31.307 0.36846-0.38371 0.10931-0.48428-0.19815-0.6534-1.9975z" style="paint-order:stroke fill markers"/>
   <path d="m280.73 486.79c2.795-10.922 3.9905-22.284 4.0033-38.05 0.0102-12.48-0.57896-22.083-2.1524-35.085-0.76463-6.3183-2.3288-16.82-3.1371-21.062-0.29635-1.5552-0.53882-3.0238-0.53882-3.2634 0-0.37282 0.62029-0.46156 4.3003-0.61515 2.3652-0.0987 5.6617-0.25838 7.3256-0.35479l3.0252-0.1753 0.97006 2.7012c3.8631 10.757 6.917 26.743 8.3923 43.93 1.0822 12.608 1.5058 28.649 1.1205 42.434-0.15777 5.6444-0.36261 10.908-0.4552 11.696l-0.16833 1.4334h-23.604z" style="paint-order:stroke fill markers"/>
   <path d="m346.3 486.87c-2.8022-1.9071-7.164-4.6546-9.6928-6.1054-5.4116-3.1046-14.794-7.7628-19.134-9.4999l-3.0685-1.2281-5e-3 -7.645c-0.0168-27.512-3.327-53.761-9.0159-71.494-0.61898-1.9294-1.0801-3.5534-1.0247-3.6088 0.0554-0.0554 1.7532-0.29145 3.7729-0.5246 8.5487-0.98685 18.427-2.5398 25-3.9302 3.5653-0.7542 3.6756-0.76074 6.8478-0.40587 9.1874 1.0278 20.347 3.2092 29.266 5.7208 3.2331 0.91046 10.172 3.091 10.355 3.2539 0.0455 0.0406-0.18414 3.4973-0.5103 7.6816-0.85788 11.006-0.53251 16.399 1.2967 21.492 3.1593 8.7962 9.5168 14.664 18.605 17.171 1.7881 0.49328 2.857 0.57922 7.2834 0.58561 4.7992 7e-3 5.3922-0.0479 7.9181-0.73209 3.3408-0.90493 8.0862-3.1949 10.64-5.1344 2.216-1.6832 5.0441-4.5101 6.2233-6.2206l0.82577-1.1978 0.5167 0.65175c1.4438 1.8212 4.7103 6.9682 5.9117 9.315 3.6824 7.1934 5.1786 13.714 4.8721 21.234-0.28479 6.9888-2.0982 12.816-5.7151 18.365-4.9249 7.5555-11.69 12.435-20.657 14.901l-2.6171 0.71954-62.799 0.1044z" style="paint-order:stroke fill markers"/>
   <path d="m251.49 377.98c-1.3931-6.3753-1.5787-19.578-0.3952-28.111l0.3064-2.2092 6.7224 0.12724c22.303 0.42217 51.369-1.8391 70.685-5.4991l4.7131-0.89306 0.25588 0.97303c1.1236 4.2726 1.3283 13.201 0.4481 19.54-0.62316 4.4875-1.7229 10.275-2.0002 10.526-0.29622 0.26832-9.5288 1.9676-15.365 2.8279-15.548 2.292-28.507 3.1773-49.186 3.3602l-16.012 0.14166z" style="paint-order:stroke fill markers"/>
   <path d="m236.86 378.13c-17.905-0.98595-36.326-2.8406-54.252-5.4622l-2.2384-0.32737-0.71245-2.9796c-1.9574-8.1863-2.0209-17.932-0.16725-25.687 0.27956-1.1696 0.55525-2.1734 0.61265-2.2308s2.0698 0.18963 4.4719 0.54896c14.68 2.1959 34.307 4.1542 50.647 5.0535 3.0785 0.16941 5.6344 0.34381 5.6798 0.38755 0.0454 0.0437-0.10077 1.783-0.32474 3.8651-0.94906 8.8226-0.70885 20.917 0.52665 26.516 0.0746 0.33788 0.0411 0.59627-0.0744 0.57419-0.11549-0.0221-1.9916-0.13825-4.169-0.25815z" style="paint-order:stroke fill markers"/>
  </g>
  <g stroke-width="2.1013">
   <path d="m105.28 427.36c-5.5797-1.8221-9.1502-4.9127-12.686-10.981l-2.2273-3.8225 2.0542-0.87213c3.5954-1.5265 13.353-4.2395 18.405-5.117 2.6856-0.46658 5.4462-1.2174 6.1347-1.6686 1.3556-0.88822 1.4478-1.1954 2.2364-7.4486 0.59898-4.7495 2.058-8.1712 4.5871-10.758 3.6151-3.6976 3.5034-3.9038 4.0426 7.4608 0.72336 15.247 0.57684 19.494-0.79646 23.088-2.5449 6.6602-7.8641 10.384-15.278 10.695-2.5356 0.10638-5.0736-0.11967-6.4724-0.57648z" style="paint-order:stroke fill markers"/>
   <path d="m401.91 427.61c-4.6921-1.1474-9.1836-5.0199-11.332-9.7704-0.96729-2.1388-1.1593-3.6508-1.1905-9.3759-0.0446-8.1878 0.8007-24.027 1.2823-24.027 0.18864 0 1.2434 0.74222 2.344 1.6494 3.0291 2.4969 4.8568 6.7301 5.2854 12.242 0.43804 5.6335 1.5256 7.1681 5.4599 7.7039 5.8752 0.80015 21.422 5.1034 22.661 6.2723 0.50318 0.47489-2.0901 5.4835-4.4333 8.5623-4.019 5.2807-13.304 8.3995-20.076 6.7435z" style="paint-order:stroke fill markers"/>
   <path d="m425.67 400.65c-2.5529-0.88407-7.3355-2.2876-10.628-3.1189l-5.9864-1.5115-0.94283-3.8356c-1.7374-7.0681-5.2828-12.504-10.372-15.902-1.817-1.2133-4.2625-2.4934-5.4346-2.8445-2.0394-0.61101-2.131-0.7374-2.131-2.9411 0-1.2664-0.16011-3.1032-0.35581-4.0817l-0.3558-1.779 10.595 0.28295c11.848 0.31643 19.033 1.4592 27.141 4.3169 4.1946 1.4784 8.8465 3.5225 8.8465 3.8873 0 0.0708-0.36743 3.2698-0.8165 7.1088-0.85802 7.3349-2.9834 17.663-4.1996 20.407l-0.71773 1.6193z" style="paint-order:stroke fill markers"/>
   <path d="m85.265 396.52c-1.7167-6.8566-2.8505-13.411-3.3722-19.494l-0.37757-4.4029 3.2015-1.4226c9.6921-4.3067 21.327-6.4269 35.269-6.4269h7.5229v3.8397c0 3.1729-0.16595 3.8943-0.95563 4.1544-6.1166 2.0146-11.618 6.5933-14.491 12.061-1.743 3.3172-2.2912 4.9616-3.3722 10.116-0.20058 0.95634-0.66719 1.5017-1.2849 1.5017-1.43 0-10.6 2.459-15.991 4.2884l-4.6952 1.5931z" style="paint-order:stroke fill markers"/>
   <path d="m81.638 357.19c0-15.902 6.722-44.66 15.199-65.026l2.0375-4.895 20.733 10.957c11.403 6.0261 20.901 11.118 21.105 11.315 0.20469 0.19737-0.59556 2.3247-1.7783 4.7274-4.1175 8.3645-8.7183 25.304-10.06 37.039l-0.36379 3.1824-3.9144-0.36512c-9.3286-0.87013-29.001 1.7373-38.519 5.1053l-4.4402 1.5713z" style="paint-order:stroke fill markers"/>
   <path d="m430.95 359.27c-8.8915-3.328-28.89-6.0039-38.093-5.0971-4.1877 0.41264-3.9801 0.63626-4.6007-4.9563-1.2407-11.181-5.2984-25.577-9.9063-35.145-1.6431-3.4118-2.9121-6.2676-2.8199-6.3462 0.36224-0.30897 40.63-21.535 41.435-21.842 0.97468-0.3709 1.1972 0.0369 4.464 8.1797 5.0323 12.544 9.673 28.438 11.879 40.683 1.9909 11.054 3.3415 26.278 2.3214 26.167-0.22526-0.0245-2.3309-0.76372-4.6793-1.6427z" style="paint-order:stroke fill markers"/>
   <path d="m235.09 336.54c-12.493-0.61901-38.917-3.3042-50.627-5.1445l-3.9374-0.61884-7.6868-23.06c-5.539-16.617-8.0343-23.387-8.9306-24.229-0.86634-0.81388-1.9451-1.1685-3.5543-1.1685-2.9578 0-4.9912 1.8322-4.9912 4.4974 0 0.99915 1.4712 6.2149 3.2693 11.591s3.2111 9.8319 3.1399 9.9028c-0.10819 0.10775-74.088-38.95-74.549-39.358-0.40659-0.36029 5.7533-13.887 8.9617-19.68 13.671-24.682 33.175-43.711 59.178-57.736 8.8664-4.7824 23.107-10.287 24.084-9.3103 0.27812 0.27812 1.2396 5.773 2.1366 12.211 1.9205 13.784 2.641 17.599 5.46 28.913 10.222 41.025 27.808 79.232 51.799 112.54 0.41206 0.57204 0.53493 0.99273 0.27303 0.93486-0.26188-0.0579-2.0734-0.18436-4.0256-0.28109z" style="paint-order:stroke fill markers"/>
   <path d="m252.37 335.69c-2.4098-2.5552-10.104-13.335-14.897-20.873-16.16-25.412-29.619-56.04-38.139-86.793-3.3374-12.046-7.1034-29.57-6.5063-30.276 0.0974-0.11506 1.0997 0.60093 2.2275 1.5911 5.5126 4.8402 16.245 10.847 24.819 13.891l4.1125 1.46 0.98232 4.1935c3.5786 15.277 12.925 38.557 23.388 58.255 9.1067 17.144 22.909 38.308 35.253 54.055 2.5642 3.271 3.629 5.03 3.1923 5.2733-0.36042 0.2008-7.8429 0.54538-16.628 0.76575l-15.972 0.40065z" style="paint-order:stroke fill markers"/>
   <path d="m299.47 333.94c-0.782-0.90886-4.082-5.0555-7.3333-9.2148-5.5037-7.0406-5.8601-7.6433-5.1663-8.7372 5.3932-8.5032 15.096-27.175 20.191-38.854 12.183-27.927 20.751-57.925 23.549-82.445 1.2721-11.15 1.9677-13.117 4.4619-12.622 2.931 0.58245 14.15 5.2499 21.024 8.7469 26.587 13.525 48.345 34.904 62.008 60.928 3.4667 6.6029 7.6259 16.175 7.3664 16.954-0.19544 0.58631-74.167 39.875-74.167 39.392 0-0.1658 1.4571-4.7408 3.2381-10.167 3.5559-10.834 3.6424-12.036 1.0238-14.24-1.8431-1.5509-3.6248-1.7167-5.8851-0.54786-1.8793 0.97181-1.5766 0.19171-10.384 26.765-3.6829 11.113-6.8981 20.425-7.145 20.694-0.74771 0.81592-16.828 3.5184-27.265 4.5822-4.0931 0.41718-4.0964 0.41644-5.5174-1.2351z" style="paint-order:stroke fill markers"/>
   <path d="m274.82 300.55c-2.5444-3.8697-6.3739-9.942-8.51-13.494l-3.8839-6.4582 5.157-10.303c8.8456-17.673 15.68-35.109 19.365-49.408l1.5481-6.0068 4.5577-1.6632c8.8432-3.2271 16.219-7.1671 22.851-12.207 1.9522-1.4834 3.625-2.4904 3.7173-2.2378 0.0923 0.25265-0.70135 4.7175-1.7636 9.9218-5.8431 28.626-17.309 60.248-31.422 86.656-2.0873 3.9059-4.5142 8.257-5.393 9.669l-1.598 2.5674z" style="paint-order:stroke fill markers"/>
   <path d="m252.57 261.78c-5.3764-11.058-9.7299-21.643-13.115-31.887-1.7369-5.256-3.3192-10.255-3.5162-11.11-0.35427-1.5367-0.33551-1.55 1.713-1.2158 10.567 1.724 29.075 1.719 37.43-0.01 1.1164-0.23103 1.5017-0.0976 1.5017 0.52001 0 1.7056-3.9836 13.886-7.3247 22.396-3.8843 9.894-12.268 28.191-12.917 28.191-0.23323 0-1.9303-3.098-3.7712-6.8845z" style="paint-order:stroke fill markers"/>
   <path d="m244.33 189.19c-19.245-3.485-36.102-15.161-45.684-31.644-1.2223-2.1024-2.3663-4.3154-2.5424-4.9178-0.29393-1.0056 1.6124-1.7534 23.292-9.1366 12.987-4.4227 25.332-8.4619 27.435-8.9759 5.3115-1.2986 16.763-1.2888 21.5 0.0184 4.061 1.1207 24.512 9.2969 38.42 15.36l9.6813 4.2205-1.4467 2.5349c-8.0155 14.044-21.507 25.108-36.755 30.141-9.5504 3.1522-24.07 4.1802-33.899 2.4002z" style="paint-order:stroke fill markers"/>
  </g>
  <path d="m250.65 208.41c-10.603-0.45138-21.874-2.7719-30.853-6.3524-3.2162-1.2825-9.4567-4.5682-12.423-6.5411-18.075-12.021-29.811-32.656-33.479-58.864-0.38152-2.7261-0.47833-6.418-0.57635-21.98-0.12279-19.493 9.1e-4 -22.956 1.0227-28.63 1.0075-5.5953 2.7345-11.367 4.8913-16.346l1.0376-2.3955 35.158-0.12806-3.5495 1.8584c-16.826 8.8097-26.862 20.004-30.279 33.772-0.37163 1.4974-0.80636 3.1518-0.96606 3.6764-0.37766 1.2406-0.38746 22.034-0.0127 27.033 0.69837 9.3164 2.7969 17.02 6.9546 25.529 6.7803 13.877 18.213 25.424 32.464 32.789 8.5162 4.4014 16.725 6.9438 26.925 8.3389 3.4567 0.47279 15.116 0.48131 18.84 0.0138 9.6711-1.2142 17.767-3.647 26.268-7.8935 12.077-6.0329 21.751-14.582 29.284-25.878 2.3162-3.4732 6.0701-11.088 7.4701-15.152 1.3768-3.9974 2.3971-8.1565 3.11-12.678 0.49434-3.1352 0.57811-5.1844 0.69051-16.892 0.14329-14.923 0.16342-14.705-2.001-21.692-3.823-12.342-13.711-22.787-29.189-30.835l-3.8225-1.9875 35.034-0.0116 1.2302 2.9352c3.1684 7.5595 4.9724 15.016 5.628 23.263 0.47627 5.991 0.38112 36.586-0.12888 41.443-0.94138 8.9643-3.2866 18.28-6.6807 26.537-2.491 6.0601-6.0618 12.665-8.8537 16.376-0.61031 0.81135-1.4782 1.9978-1.9288 2.6366-1.5523 2.2011-5.4671 6.478-8.0546 8.7998-4.8492 4.3512-9.5236 7.5425-15.259 10.418-5.3047 2.6592-12.939 5.4762-14.841 5.4762-0.42376 0-1.2273 0.19399-1.7856 0.43108-0.55831 0.23709-2.4281 0.71877-4.155 1.0704-7.8347 1.5953-17.629 2.2657-27.167 1.8597z" stroke-width="1.0506" style="paint-order:stroke fill markers"/>
  <path d="m308.81 139.15c-22.151-9.5804-35.507-14.608-41.739-15.712-4.649-0.82343-14.692-0.70714-20.081 0.23251-2.7228 0.47482-14.914 4.2936-29.647 9.2867-13.763 4.6641-25.074 8.4173-25.135 8.3403-0.062-0.0769-0.39113-2.0544-0.73148-4.3943-0.9365-6.4383-0.7912-26.618 0.22262-30.919 4.1742-17.709 22.929-30.548 55.95-38.304 6.9045-1.6217 10.948-1.5678 18.84 0.25104 24.549 5.6582 42.715 15.632 50.549 27.754 4.6152 7.1407 5.727 13.344 5.2628 29.364-0.18919 6.5302-0.6459 12.221-1.1809 14.713-0.47981 2.2356-0.92718 4.1018-0.99416 4.1472-0.067 0.0453-5.1593-2.0964-11.316-4.7593zm-76.4-23.138c2.9245-1.5123 3.5155-5.1767 1.2661-7.85l-1.4137-1.6801h-7.7744c-7.3584 0-7.8357 0.0657-8.9212 1.2287-2.4411 2.6152-1.9958 6.7565 0.89535 8.3278 2.0891 1.1354 13.738 1.1162 15.948-0.0264zm65.254-0.95993c1.8176-2.1152 1.8068-5.3993-0.0238-7.2299-1.2918-1.2918-1.6096-1.3404-8.7731-1.3404-4.28 0-7.9004 0.25027-8.5352 0.59003-1.4481 0.77502-2.623 3.6642-2.2608 5.5594 0.1585 0.82916 1.0368 2.1375 1.9518 2.9074 1.632 1.3732 1.803 1.3965 8.994 1.2227 7.261-0.17547 7.3429-0.19166 8.647-1.7093z" stroke-width="2.1013" style="paint-order:stroke fill markers"/>
  <path d="m123.42 180.88c-4.5018-6.8279-8.2621-12.576-8.3562-12.773-0.15417-0.32337 14.729-10.836 15.341-10.836 0.141 0 1.3172 1.7816 2.6138 3.959 1.2966 2.1775 4.8812 8.2079 7.9659 13.401l5.6085 9.442-2.5004 1.4796c-1.3752 0.81375-4.6247 2.8911-7.2211 4.6164s-4.8435 3.1342-4.9937 3.131c-0.15017-3e-3 -3.9564-5.5923-8.4582-12.42z" stroke-width="2.1013" style="paint-order:stroke fill markers"/>
  <g stroke-width=".52532">
   <path d="m98.123 140c-1.7457-2.6614-3.1733-4.8877-3.1724-4.9473 9.42e-4 -0.0596 0.9378-0.72205 2.0819-1.4722 1.1441-0.75014 4.7948-3.1614 8.1126-5.3584s6.0667-3.9945 6.1088-3.9945c0.042 0 1.4854 2.1195 3.2075 4.71l3.1311 4.71-0.43442 0.32318c-1.0798 0.80328-15.684 10.871-15.767 10.87-0.0516-8.3e-4 -1.5221-2.179-3.2678-4.8405z" style="paint-order:stroke fill markers"/>
   <path d="m86.869 122.7c-1.3177-2.0489-2.6166-4.0718-2.8864-4.4952l-0.49057-0.76984 8.015-5.2941c4.4082-2.9118 8.0846-5.3468 8.1697-5.4111 0.10506-0.0795 1.0795 1.3058 3.0375 4.3183 1.5856 2.4394 2.8828 4.4915 2.8828 4.5602 0 0.12476-15.875 10.703-16.174 10.778-0.0869 0.0216-1.2361-1.6371-2.5538-3.686z" style="paint-order:stroke fill markers"/>
   <path d="m75.7 105.23c-1.2389-1.9612-2.5673-4.067-2.9519-4.6796l-0.69938-1.1138 8.1181-5.3686c6.7469-4.4618 8.1471-5.337 8.2896-5.1813 0.50777 0.55455 5.8321 9.1607 5.7277 9.2582-0.21497 0.20074-16.064 10.656-16.15 10.653-0.04507-1e-3 -1.0956-1.6072-2.3345-3.5684z" style="paint-order:stroke fill markers"/>
   <path d="m63.495 85.802c-1.7058-2.7407-3.0671-5.0388-3.025-5.1069 0.09555-0.1546 16.073-10.257 16.235-10.265 0.06506-0.0034 1.4835 2.1639 3.152 4.8162 2.619 4.163 3.0041 4.8431 2.8169 4.9748-0.66348 0.46667-15.98 10.564-16.024 10.564-0.02926 0-1.4489-2.2424-3.1547-4.9831z" style="paint-order:stroke fill markers"/>
   <path d="m53.105 68.779c-1.0348-1.7498-2.0845-3.5193-2.3327-3.9322-0.34457-0.57345-0.41253-0.78585-0.28764-0.89896 0.28366-0.25693 16.043-10.296 16.161-10.294 0.06156 7.61e-4 0.71062 1.0298 1.4424 2.2867 0.73174 1.2569 1.7835 3.0595 2.3373 4.0058l1.0069 1.7205-8.0121 5.066c-4.4066 2.7863-8.1069 5.1024-8.2228 5.1469-0.1599 0.06136-0.66458-0.68654-2.0922-3.1005z" style="paint-order:stroke fill markers"/>
   <path d="m44.239 53.102c-1.239-2.4226-1.3185-1.9987 0.78398-4.1817 2.8526-2.9619 6.0364-5.113 9.7454-6.5842 1.6006-0.63493 4.4254-1.4244 4.566-1.2761 0.14616 0.15423 2.1683 3.6319 2.1598 3.7142-0.0063 0.06068-14.121 9.1245-15.69 10.076l-0.51226 0.31048z" style="paint-order:stroke fill markers"/>
  </g>
 </g>

 <path d="m172.84 110.07c-0.10908-6.7982 0.0937-16.697 0.40024-19.541 0.46419-4.3071 1.4123-8.8068 2.8627-13.586 1.1857-3.9067 3.6129-9.8987 4.0568-10.015 0.16953-0.04433 0.54383-0.63211 1.0665-1.6748 2.4782-4.9438 5.9162-10.123 9.8754-14.876 1.9874-2.3862 6.865-7.3045 9.2836-9.361 12.319-10.475 27.494-17.271 43.706-19.572 4.5525-0.64637 6.4175-0.75873 12.491-0.75257 6.1907 0.0063 7.7668 0.10805 12.682 0.81893 23.841 3.448 45.059 16.651 57.941 36.053 1.6655 2.5086 2.8573 4.5243 4.2785 7.2365 0.62148 1.186 1.107 1.9555 1.2589 1.9952 0.24993 0.06536 0.76986 1.2011 2.2339 4.8797 2.0273 5.0941 3.7426 11.616 4.4703 16.997 0.59733 4.4168 0.81364 9.8903 0.81872 20.717l3e-3 6.5188h-8.0148l-0.08-3.9249c-0.10592-5.1976-0.27198-6.2485-1.7476-11.058-2.2351-7.2857-5.7492-13.036-11.452-18.739-4.8357-4.836-10.498-8.8209-18.432-12.971-2.9415-1.5387-3.3363-1.7765-3.4449-2.0755-0.02-0.05503-1.0193-0.52349-2.2206-1.041-9.1748-3.9524-20.711-7.4181-30.922-9.2897-6.2028-1.1369-7.6296-1.3029-8.9238-1.0382-0.53559 0.10956-2.248 0.41623-3.8054 0.68149-10.305 1.7552-20.379 4.5854-30.168 8.4749-3.1393 1.2474-5.0812 2.1383-5.2438 2.4055-0.0652 0.10726-1.6238 0.99504-3.4634 1.9728-3.8345 2.0382-5.3628 2.9371-8.3276 4.8979-8.5139 5.6309-14.67 12.144-18.568 19.644-1.6624 3.1988-2.6364 5.9355-3.9539 11.109l-0.54653 2.1463-0.1836 8.8055h-7.8368z" fill="#fff" stroke="#fff" stroke-linecap="round" stroke-linejoin="round" stroke-width=".52532" style="paint-order:stroke fill markers"/>
 <path d="m457.75 224.43c-7.8626-5.3439-17.884-9.1861-28.123-10.783-6.1562-0.96-15.782-0.8301-22.372 0.3019l-2.521 0.43305-5.2329-5.1612c-9.2094-9.0832-18.338-16.154-29.533-22.876-7.8042-4.6858-19.198-10.069-26.894-12.705-1.8771-0.64315-3.505-1.2479-3.6174-1.3438-0.11246-0.0959 0.47067-1.6416 1.2958-3.4349s1.7588-3.9988 2.0747-4.9013l0.57434-1.6409 1.9523 1.8735c7.5725 7.2667 17.427 12.401 27.831 14.499 4.9798 1.0045 9.2081 1.3353 14.667 1.1474 6.6149-0.22763 11.436-0.98996 19.223-3.04 4.1283-1.0867 7.9451-1.848 12.585-2.5105 4.7396-0.67662 15.665-0.67605 20.478 1e-3 9.7289 1.3686 17.986 3.8727 25.939 7.866 3.6763 1.846 8.3703 4.6277 8.2621 4.896-0.0391 0.0969-3.1315 8.9163-6.8722 19.599s-6.9352 19.408-7.099 19.39-1.3422-0.74272-2.6186-1.6103z" fill="#fff" stroke="#fff" stroke-linecap="round" stroke-linejoin="round" stroke-width="1.0506" style="paint-order:stroke fill markers"/>
</svg>
