<?xml version="1.0" encoding="UTF-8"?>
<svg width="177.17" height="177.17" clip-rule="evenodd" fill-rule="evenodd" image-rendering="optimizeQuality" shape-rendering="geometricPrecision" version="1.1" viewBox="0 0 50 50" xmlns="http://www.w3.org/2000/svg">
 <g transform="matrix(1.0539 0 0 1.1188 -70.902 -28.281)" stroke="#1f1a17">
  <g fill="#fff" stroke-width="1.0001">
   <path d="m84.568 35.094-6.2171 0.14981c-6.2031 2.3839-6.9626 5.9344-4.7939 10.112-0.05331-4.6296 3.6094-3.3134 6.367-3.4456 9.5598 5.47 4.256 14.806-0.59924 18.427l4.4194 0.44943-0.52434 3.0711 4.2696-2.9213 2.6966 3.5206 3.8951-2.9213 1.573 2.6217 2.0224-2.6966c1.307 1.0139 2.0649 2.3546 2.6277 3.5266l1.8666-3.227c1.231 0.81202 1.8764 2.0446 2.8464 3.0711v-4.1198l4.4194 2.6217c0.57264-16.897-1.1252-28.072-13.932-31.76-2.7107-0.060144-5.4915-0.34457-7.8651 0.67415z"/>
   <path d="m91.16 44.532-11.236-2.6217"/>
   <path d="m83.104 35.805c-0.02515 1.0089 0.4905 1.1489 1.1123 1.3242"/>
  </g>
  <path transform="rotate(-3.1672)" d="m91.414 41.974c0 0.66775-0.50147 1.2823-1.3079 1.6029-0.80646 0.3206-1.7895 0.29618-2.5639-0.0637-0.77441-0.35988-1.2169-0.99791-1.1541-1.6641l2.51 0.12486z" stroke-linecap="square" stroke-linejoin="bevel" stroke-width="1.0001"/>
  <path d="m93.644 36.864 3.7606-0.42373" fill="#fff" stroke-width="1.0001"/>
 </g>
</svg>
