<?xml version="1.0" encoding="UTF-8"?>
<svg version="1.1" viewBox="0 0 60 75" xmlns="http://www.w3.org/2000/svg">
 <path d="m14.912 24.165c-3.5779-0.32003-4.701 3.3568-6.2348 5.5063-3.922 3.847-3.7902 9.8234-3.1037 14.885 0.55447 2.503 0.53496 5.7877 3.1224 7.1468 0.83889 1.0169 3.3882-0.37065 2.983 1.375-0.05295 2.1195-0.08993 4.3077 1.0752 6.1921 0.88266 3.1218 4.4611 2.8827 7.0129 3.3817 7.3749 0.87801 15.011 1.4725 22.284-0.38777 3.076-0.76581 6.587-2.9743 6.269-6.5828v-3.4959c2.2606 0.30251 4.7367-0.99132 5.2022-3.3534 1.2467-4.8849 1.9502-10.198 0.37714-15.087-0.59878-2.767-3.5349-4.0287-4.0434-6.6977-1.1027-3.0321-4.6274-2.2252-6.6076-3.6706 2.446-1.6189 1.7276-4.6982 1.8385-7.1753 0.09961-2.283-2.7902-3.6188-4.5586-2.2739-1.5811-4.3517-6.7418-6.0569-11.009-5.9199-3.9752 0.11875-8.613 1.8841-10.048 5.9199-1.8757-1.4445-4.8901 0.17586-4.5597 2.5715 0.07739 2.3867-0.52714 5.3401 1.8385 6.8777-0.65039 0.36917-0.99416 1.1022-1.8385 0.78887zm-3.2331 21.554v4.3108c-2.3114 0.50471-3.5895-1.7285-3.6183-3.7934-0.78293-4.5346-1.5033-9.7388 1.1112-13.838 1.5818-1.479 2.7815-2.7614 3.25-4.9027 1.0256-1.2087 2.3679-1.448 1.4831 0.35052-0.14652 1.9041-0.03656 3.8209-0.07068 5.7305-1.8001 3.7502-2.1097 8.0418-2.1554 12.142zm26.386 13.391c2.8546 1.9646 4.1691-2.1629 6.0112-3.486 2.2305-2.0707-2.2015 0.89342-2.8298 1.3319-1.0665 0.7091-2.1264 1.428-3.1814 2.1541zm10.255-29.557c1.2474 1.8591 3.5961 3.3573 3.8712 5.9494 0.93188 4.4058 0.32846 9.0521-0.94528 13.327-0.26653 1.0617-3.1915 2.011-2.9259 0.45592 0.02759-5.3434 0.11113-10.92-2.1554-15.862-0.12598-2.345 0.34559-4.7852-0.47095-7.0383 1.4884 0.25824 2.6486 1.6577 2.6263 3.1684zm-2.2114 14.01c-5.3405-0.03197-10.685 0.06528-16.023-0.05108-5.1603-0.39893-9.2065-5.427-8.708-10.538 2.859 4.9283 8.6316 7.7691 14.271 7.3563h10.172c0.14622 1.0725 0.23764 2.152 0.28774 3.2331zm-2.0993-14.807c0.03049 1.804-0.06126 3.6172 0.04626 5.4154 0.50483 1.316 2.6591 4.6631-0.08894 4.0036-3.8957-0.07535-7.8094 0.1724-11.691-0.16965-1.7831 0.2518-1.0575-1.5554-1.1989-2.6366 0.08211-2.5972-2.9114-1.1599-2.1554 0.76348 0.0827 1.9602-2.8032-1.0552-3.6247-1.6287-1.5407-1.4944-2.7003-3.3776-3.3405-5.4264 4.8187 3.6723 12.412 3.5718 16.82-0.70981 1.6932-1.1538 1.2496-5.4937 3.7472-2.864 0.93405 0.80332 1.4911 2.0202 1.4853 3.2526zm-26.942-12.555c0.5825-1.457 2.0344 0.20949 3.0227 0.40545 2.1227-0.50725 1.3184-4.1352 3.8461-4.8523 4.1454-2.4131 10.125-2.2311 13.627 1.249 0.99691 1.4185 1.1657 4.86 3.5503 3.0458 1.1474-1.0349 2.1918 0.01269 1.8186 1.3423-0.09822 1.545 0.48544 3.6692-1.3164 4.4491-1.8547-0.02801-3.5908 0.52748-3.1991 2.8779-1.1385 3.8568-5.7839 4.9975-9.3425 4.7843-3.3526-0.21328-7.4533-2.0005-7.6721-5.8363 0.32202-2.8485-3.5864-0.61342-4.1651-2.9729-0.3342-1.453-0.09897-3.004-0.16938-4.4923zm-1.0777 17.663c0.09025-2.146-0.20974-4.3349 0.21247-6.4461 0.04219-1.0389 2.8471-3.8133 3.0206-2.2463 0.06638 3.4977-0.14796 7.0102 0.13846 10.497 0.77819 5.985 6.6434 10.536 12.609 10.05h14.195c-0.57477 2.9892-1.1495 5.9783-1.7243 8.9675-1.6455-1.2588-3.1781 0.3942-3.9981 1.7414-0.53049 1.0916-1.1215 1.3135-1.8053 0.20153-1.0347-1.5726-3.4222-1.4492-4.2232 0.29054-0.57599 0.40166-1.0478 2.299-1.7203 1.3145-0.95336-1.0849-2.3615-2.4678-3.8814-1.4418-0.75008 0.29902-1.4651 2.0021-2.1068 1.6206-1.0646-1.2583-1.9837-3.5269-4.0364-2.8081-1.0039 0.04533-1.7747 2.3711-2.519 1.6114-1.0503-1.2027-1.848-3.3477-3.8187-2.8979-0.84188-5.4e-4 -2.163 1.9-2.4971 1.3625 0.10849-5.3833-0.31039-10.802 0.45488-16.15 0.24114-1.9818 0.96942-3.8492 1.7005-5.6668z" stroke-width="1.0777"/>
 <g fill="#fff" stroke="#fff" stroke-linecap="round" stroke-linejoin="round" stroke-width=".53075">
  <path d="m25.895 57.179c-1.0812-1.4385-1.4903-1.7314-2.4176-1.7314-0.8802 0-1.1827 0.15109-2.1912 1.0945l-0.89435 0.83662-0.98276-1.3075c-1.0718-1.4259-1.3919-1.699-2.1321-1.8192-0.80234-0.1302-1.3518 0.05569-2.2981 0.7775-0.4931 0.3761-0.95 0.68608-1.0153 0.68884-0.06579 0.0028-0.0885-3.0566-0.05087-6.857 0.06048-6.1102 0.10017-7.0689 0.36233-8.7505 0.33414-2.1434 0.79223-3.8418 1.3943-5.1697l0.41303-0.91092v-3.0102c0-2.7022 0.02909-3.0879 0.28427-3.77 0.33828-0.90415 1.2636-1.9128 2.0975-2.2864l0.58371-0.26151 0.08299 5.4762c0.08832 5.8281 0.11451 6.0734 0.85831 8.0429 1.1559 3.0608 3.7568 5.6307 6.8886 6.8063 1.9048 0.71505 2.6389 0.76477 11.291 0.76477h7.9819v10.075l-1.0581-0.79638c-1.0203-0.76796-1.0882-0.79638-1.9026-0.79638-1.1009 0-1.3577 0.17925-2.5729 1.796-0.54049 0.71908-1.0238 1.3074-1.0741 1.3074-0.05024 0-0.43061-0.34616-0.84525-0.76924-0.92931-0.94822-1.3214-1.1618-2.1332-1.1618-0.94452 0-1.3482 0.28751-2.4366 1.7357l-0.98817 1.3147-0.83929-0.82104c-0.98823-0.96674-1.5222-1.2638-2.2717-1.2638-0.83053 0-1.2035 0.1981-2.2194 1.1789l-0.92962 0.89748z" style="paint-order:stroke fill markers"/>
  <path d="m25.819 57.413c-1.1714-1.5362-1.4347-1.729-2.3612-1.729-0.84909 0-1.3496 0.26579-2.2662 1.2034-0.3382 0.34598-0.68886 0.62906-0.77923 0.62906s-0.58058-0.55908-1.0894-1.2424c-1.1701-1.5715-1.4726-1.7921-2.4581-1.7921-0.68627 0-0.86046 0.06771-1.7718 0.68868-0.55589 0.37878-1.095 0.68912-1.198 0.68965-0.15616 8.04e-4 -0.17656-1.1957-0.12281-7.2059 0.05986-6.6932 0.08645-7.3294 0.37313-8.9275 0.37125-2.0694 0.82885-3.6951 1.386-4.9237l0.41303-0.91092 0.0013-3.0499c0.0012-2.9349 0.01392-3.0769 0.33494-3.7663 0.42523-0.91331 1.3145-1.8796 2.0633-2.2421 0.32121-0.1555 0.64602-0.28272 0.7218-0.28272 0.08715 0 0.19274 2.1157 0.28738 5.7586 0.16688 6.4236 0.17992 6.5179 1.1964 8.6535 1.6085 3.3794 4.9669 5.9197 8.4744 6.4101 0.50613 0.07076 4.5978 0.1726 9.0926 0.22631l8.1723 0.09765v5.1509c0 3.5844-0.04514 5.1509-0.14841 5.1509-0.08162 0-0.50058-0.26979-0.93103-0.59954-0.43044-0.32974-0.91819-0.67112-1.0839-0.75861-0.40916-0.21604-1.5517-0.19234-1.9746 0.04097-0.18965 0.10464-0.81034 0.76554-1.3793 1.4687-0.56896 0.70312-1.1077 1.3018-1.1973 1.3304-0.08955 0.02858-0.6065-0.3552-1.1488-0.85286-0.98448-0.90346-1.1818-0.98926-2.1366-0.9293-0.69038 0.04335-1.0104 0.30187-2.0284 1.6386-0.53715 0.70532-1.0479 1.2824-1.135 1.2824-0.08712 0-0.43512-0.28435-0.77332-0.6319-1.7227-1.7703-2.729-1.8294-4.3945-0.25818-0.51894 0.48954-1.0054 0.89008-1.0811 0.89008-0.07565 0-0.55166-0.5431-1.0578-1.2069z" style="paint-order:stroke fill markers"/>
  <path d="m25.749 57.599c-1.2333-1.4766-1.5679-1.7376-2.2277-1.7376-0.77135 0-1.1308 0.18083-2.0631 1.038-0.47683 0.43836-0.93998 0.75295-1.0713 0.72766-0.12723-0.0245-0.69771-0.62285-1.2677-1.3297-0.57003-0.70681-1.1554-1.3512-1.3008-1.432-0.14539-0.08077-0.59042-0.14685-0.98897-0.14685-0.62712 0-0.8602 0.08674-1.7321 0.64455-0.55409 0.3545-1.1021 0.62623-1.2179 0.60383-0.18548-0.03587-0.21043-0.90005-0.21014-7.28 2.42e-4 -5.3689 0.04802-7.5421 0.18492-8.4116 0.28507-1.8105 0.91438-4.1456 1.4589-5.4135l0.49372-1.1495v-3.0362c0-2.9902 0.0054-3.047 0.3572-3.753 0.58876-1.1815 2.1065-2.5097 2.8677-2.5097 0.30799 0 0.34569 0.40914 0.49567 5.3793 0.19745 6.5431 0.25215 7.0201 0.99495 8.6774 1.0802 2.41 3.0552 4.4866 5.3737 5.6501 0.85364 0.42837 1.8198 0.7964 2.4024 0.9151 0.72436 0.14759 3.0258 0.23456 8.9654 0.3388 4.395 0.07713 8.2554 0.14076 8.5787 0.1414l0.58784 0.0011-0.03612 5.274c-0.03124 4.5592-0.06416 5.2793-0.24302 5.3135-0.11379 0.02172-0.63967-0.27226-1.1686-0.65331-0.90407-0.65129-1.0116-0.69256-1.7931-0.68843-0.45725 0.0024-0.92818 0.07999-1.0465 0.17241-0.11832 0.09241-0.67484 0.69561-1.2367 1.3404-1.0192 1.1697-1.2258 1.3732-1.3978 1.3772-0.05009 0.0011-0.41496-0.26168-0.81083-0.58409-1.3175-1.073-1.5513-1.2069-2.1074-1.2069-0.7537 0-1.1278 0.27535-2.2698 1.6707-0.55178 0.6742-1.0995 1.2258-1.2171 1.2258-0.11764 0-0.56618-0.33346-0.99675-0.74102-0.90528-0.8569-1.4912-1.19-2.0932-1.19-0.57765 0-1.0567 0.26804-2.0908 1.1699-0.47997 0.4186-0.94762 0.76108-1.0392 0.76108s-0.60217-0.52153-1.1346-1.159z" style="paint-order:stroke fill markers"/>
  <path d="m48.322 45.758c-0.08824-5.6249-0.46036-8.2374-1.5657-10.992-0.46678-1.1634-0.46732-1.1674-0.4701-3.5172-0.0026-2.1812-0.10151-3.4427-0.34427-4.3895-0.09476-0.3695-0.0857-0.37718 0.28052-0.23794 1.0673 0.4058 1.7877 1.3833 1.9968 2.7093 0.10677 0.67723 0.20021 0.86242 0.58123 1.1518 1.6114 1.2239 2.6619 2.808 3.2927 4.9655 0.42809 1.4642 0.52954 5.5563 0.20162 8.1327-0.28073 2.2056-0.94754 5.0047-1.3153 5.5211-0.37036 0.52011-1.0794 0.82887-1.9035 0.82887h-0.68853z" style="paint-order:stroke fill markers"/>
  <path d="m32.014 37.881-0.82758-0.15738-0.03867-1.6829c-0.03741-1.6278-0.05044-1.6922-0.39791-1.9655-0.45908-0.36112-1.0141-0.35988-1.4758 0.0033-0.34413 0.27069-0.36343 0.35126-0.36343 1.5172 0 0.67725-0.0502 1.2314-0.11156 1.2314-0.18345 0-1.6978-0.94549-2.4797-1.5482-0.90469-0.69738-1.9425-1.8236-2.6766-2.9046-0.5347-0.78738-1.5599-2.8343-1.4664-2.9278 0.02452-0.02452 0.44805 0.19816 0.94115 0.49486 1.9303 1.1615 4.3086 1.7823 6.8275 1.7823 4.6009 0 8.5566-1.9662 10.038-4.9893 0.27236-0.55587 0.53732-1.2434 0.58878-1.5279 0.10474-0.579 0.15374-0.59823 0.81758-0.32086 0.68759 0.28729 1.6989 1.2768 2.1197 2.0739 0.3613 0.68445 0.36807 0.74736 0.43902 4.0745l0.07207 3.3793 0.43453 0.90452c0.35586 0.74077 0.86961 2.3164 0.86961 2.6671 0 0.15836-12.442 0.06124-13.31-0.10391z" style="paint-order:stroke fill markers"/>
  <path d="m9.7477 49.689c-0.26012-0.13264-0.58905-0.39973-0.73096-0.59354-0.54733-0.74752-1.2589-4.3064-1.4972-7.4882-0.39588-5.2856 0.73153-8.8844 3.4011-10.856 0.66086-0.4882 0.73924-0.60268 0.81964-1.1971 0.04889-0.36151 0.15394-0.86864 0.23342-1.127 0.17866-0.58062 1.147-1.5704 1.7379-1.7764 0.24204-0.08437 0.44008-0.14071 0.44008-0.12519s-0.07162 0.24505-0.15916 0.51006c-0.08823 0.26711-0.19986 1.8956-0.25048 3.6542-0.08821 3.0645-0.10431 3.2022-0.47362 4.0508-0.47387 1.0888-0.94544 2.9255-1.2618 4.9146-0.17878 1.1239-0.25752 2.6524-0.30376 5.8965l-0.06243 4.3793-0.70985-2.13e-4c-0.40312-1.23e-4 -0.91422-0.10442-1.1828-0.24138z" style="paint-order:stroke fill markers"/>
  <path d="m48.173 48.103c-0.04945-1.081-0.09114-2.6793-0.09261-3.5517-0.0061-3.6518-0.41534-6.5289-1.3044-9.1723-0.60302-1.793-0.60307-1.7933-0.68728-4.3448-0.04632-1.4034-0.15311-3.0033-0.23732-3.5552-0.08422-0.55192-0.12063-1.036-0.08093-1.0757 0.15599-0.15599 0.8013 0.1276 1.3404 0.58909 0.64581 0.55279 0.99874 1.1725 1.284 2.2546 0.17194 0.65226 0.35469 0.90905 1.37 1.9251 0.93621 0.93688 1.2864 1.4079 1.743 2.3448 0.89988 1.8463 1.011 2.4376 1.089 5.793 0.05391 2.3217 0.01924 3.3098-0.15971 4.5517-0.28885 2.0044-0.83395 4.3109-1.196 5.0606-0.35876 0.74291-1.1383 1.1462-2.2156 1.1462h-0.76258z" style="paint-order:stroke fill markers"/>
  <path d="m32.095 38.057c-0.48601-0.06295-0.93018-0.1637-0.98704-0.22389s-0.12488-0.82938-0.15114-1.7093c-0.03257-1.0912-0.10784-1.6723-0.23673-1.8276-0.24285-0.29262-1.1625-0.30285-1.4009-0.01558-0.09683 0.11667-0.21304 0.7522-0.25827 1.4123-0.06444 0.94071-0.1293 1.2092-0.30001 1.2417-0.35226 0.06717-2.6811-1.549-3.6522-2.5346-1.0546-1.0703-1.8167-2.1563-2.5718-3.6649-0.78023-1.5588-0.68308-1.6416 0.955-0.81384 2.3487 1.1869 3.8276 1.5404 6.4523 1.5426 3.6772 3e-3 6.678-1.0913 8.6436-3.152 0.83138-0.87162 1.2447-1.5682 1.6988-2.8632 0.17748-0.50611 0.37917-0.844 0.51998-0.87112 0.64247-0.12373 2.3012 1.2316 2.8893 2.3608 0.27317 0.52454 0.31513 0.91309 0.44974 4.1647 0.12602 3.0443 0.18714 3.6579 0.40445 4.0609 0.34798 0.64526 0.91124 2.3277 0.91124 2.7219v0.32066l-6.2413-0.01749c-3.4327-0.0095-6.639-0.069-7.125-0.13194z" style="paint-order:stroke fill markers"/>
  <path d="m27.6 29.389c-1.6045-0.37844-2.6372-0.79422-3.6829-1.4828-1.4984-0.98666-2.3005-2.2589-2.5935-4.1136-0.22082-1.398-0.35196-1.5448-1.4779-1.6544-1.3058-0.12713-1.7125-0.27827-2.2556-0.83825l-0.47281-0.48745-0.04353-2.4201c-0.03838-2.1341-0.01549-2.4511 0.19379-2.6823 0.3114-0.3441 0.32876-0.34167 1.5739 0.22052 0.59843 0.2702 1.2924 0.48275 1.5761 0.48275 0.44806 0 0.53012-0.05553 0.70677-0.47832 0.10992-0.26308 0.20044-0.651 0.20115-0.86206 7.13e-4 -0.21106 0.17958-0.69455 0.39748-1.0744 0.78437-1.3674 2.1104-2.4391 3.8957-3.1486 1.4568-0.5789 2.2509-0.7035 4.464-0.70045 2.3213 0.0032 3.1527 0.16795 4.8872 0.96851 2.0863 0.96288 3.2299 2.205 3.7132 4.0331 0.14738 0.55745 0.33346 1.079 0.41351 1.1591 0.25363 0.25363 0.8927 0.13832 2.0477-0.36949 1.3002-0.57164 1.3061-0.57254 1.6065-0.24058 0.19201 0.21217 0.22827 0.59631 0.22827 2.4182 0 2.41-0.10048 2.8345-0.81288 3.4339-0.4393 0.36965-0.58104 0.4087-2.2216 0.61205l-0.89654 0.11113-0.1628 0.55172c-0.08955 0.30344-0.22892 0.92295-0.30974 1.3767-0.44186 2.4807-2.3037 4.1577-5.5964 5.0409-1.5813 0.42415-3.926 0.48704-5.3793 0.14427zm7.4902-3.7825c0.35179-0.71476-0.24227-1.3809-1.6972-1.903-1.021-0.36642-4.2044-0.51843-5.636-0.26912-2.2278 0.38795-3.4921 1.4712-2.7926 2.3927 0.22738 0.29953 1.0739 0.32203 1.5044 0.03998 0.63184-0.414 2.0612-0.67478 3.7518-0.6845 1.5575-0.0089 1.7162 0.01616 2.6896 0.42566 0.56896 0.23935 1.1276 0.4628 1.2414 0.49655 0.34487 0.1023 0.7484-0.11195 0.93855-0.49829zm-2.8006-5.3242c0.98075-0.48067 2.0048-1.5591 2.5233-2.6572 0.31042-0.65745 0.55982-0.98957 0.85948-1.1445 0.74236-0.38389 0.87942-1.3953 0.23627-1.7436-0.43326-0.23461-11.348-0.23936-11.78-0.0052-0.36052 0.1953-0.53527 0.86844-0.32665 1.2583 0.08317 0.15539 0.3357 0.37793 0.56121 0.49454 0.28723 0.14853 0.52955 0.47567 0.80922 1.0925 0.43248 0.95383 1.2837 1.9712 2.0409 2.4391 0.83944 0.5188 1.5476 0.6684 3.0075 0.6353 1.1436-0.02594 1.4972-0.08904 2.0689-0.36927z" style="paint-order:stroke fill markers"/>
 </g>
 <path d="m24.611 16.622h0.10777a5.3885 5.3885 0 0 0 10.561 0h0.10777a1.0777 1.0777 0 0 0 0-2.1554h-10.777a1.0777 1.0777 0 0 0 0 2.1554zm8.4232 0a3.2137 3.2137 0 0 1-6.0696 0z" stroke-width="1.0777"/>
 <path d="m30 23.088c-3.5025 0-4.8399 1.1607-5.0727 1.3935a1.0615 1.0615 0 0 0-0.01294 1.4829 1.0982 1.0982 0 0 0 1.5088 0.06682c0.0098-0.0076 0.94298-0.78779 3.5769-0.78779a6.0027 6.0027 0 0 1 3.5488 0.76193 1.0777 1.0777 0 0 0 1.5239-1.5239c-0.23278-0.23278-1.5702-1.3935-5.0727-1.3935z" stroke-width="1.0777"/>
 <g fill="#fff" stroke="#fff" stroke-linecap="round" stroke-linejoin="round">
  <path d="m28.91 29.423c-0.90397-0.09296-2.4707-0.47372-3.3219-0.80728-2.4485-0.95955-3.8831-2.6794-4.0808-4.892-0.13525-1.5138-0.42833-1.7931-1.8817-1.7931-1.0153 0-1.6742-0.29877-2.1293-0.96544-0.29151-0.42706-0.31034-0.59541-0.31034-2.7742 0-2.889-0.01578-2.8696 1.6727-2.0531 1.5109 0.73066 2.0193 0.7285 2.4013-0.01017 0.11099-0.21462 0.20179-0.53742 0.20179-0.71733 0-1.3416 1.4772-3.1226 3.3271-4.0113 1.7432-0.83744 2.9316-1.0909 5.1556-1.0995 1.5813-0.0061 2.1434 0.04879 3.1034 0.30329 3.1368 0.83152 5.229 2.6388 5.4768 4.7311 0.10096 0.85246 0.51296 1.3553 1.1104 1.3553 0.21608 0 0.90599-0.24814 1.5331-0.55142 1.6796-0.81225 1.6727-0.82027 1.6727 1.9411 0 1.9402-0.03362 2.2734-0.27772 2.7519-0.39241 0.76919-1.097 1.0998-2.3437 1.0998-1.3296 0-1.5729 0.23707-1.7046 1.6609-0.10808 1.1686-0.61461 2.4008-1.3148 3.1982-1.5317 1.7445-5.2983 2.9409-8.2901 2.6332zm-2.5183-3.2899c0.55244-0.38694 1.4696-0.62779 2.9126-0.76486 1.7103-0.16246 2.6238-0.02831 3.8295 0.56239 0.46448 0.22757 1.0191 0.41376 1.2325 0.41376 0.56818 0 1.0264-0.49176 1.0264-1.1015 0-0.81526-0.69262-1.3551-2.4179-1.8844-1.1778-0.36138-4.7414-0.36167-5.9268-4.88e-4 -1.8979 0.5783-2.7418 1.365-2.4074 2.2444 0.07834 0.20606 0.24863 0.45533 0.3784 0.55393 0.32194 0.24459 1.0069 0.23299 1.3728-0.02325zm5.8587-5.6131c1.0556-0.48598 2.0785-1.4701 2.5881-2.4899 0.22896-0.45819 0.41629-0.91543 0.41629-1.0161 0-0.10066 0.21224-0.2717 0.47165-0.38008 1.0286-0.42979 1.0682-1.7863 0.0624-2.1369-0.60387-0.21051-10.947-0.21051-11.551 0-0.51638 0.18001-0.70732 0.48437-0.70732 1.1274 0 0.51045 0.25438 0.82077 0.86231 1.0519 0.20848 0.07927 0.37905 0.24526 0.37905 0.36888 0 0.41373 0.70179 1.6379 1.2849 2.2413 1.1948 1.2364 2.3583 1.6937 4.1633 1.6361 0.99326-0.03166 1.399-0.11215 2.0301-0.40268z" stroke-width=".53075" style="paint-order:stroke fill markers"/>
  <path d="m41.669 57.863c2.3379-2.4584-2.1037 2.1925 0 0z" stroke-width=".53075" style="paint-order:stroke fill markers"/>
  <path d="m30.171 43.495c-1.8641-0.18746-3.767-0.97168-5.1929-2.1401-2.0357-1.668-3.2995-4.0676-3.5384-6.7184-0.02834-0.31444-0.04491-0.78699-0.03681-1.0501l0.01473-0.47842 0.35034 0.52718c1.5247 2.2943 3.8004 4.2272 6.3062 5.3562 1.2987 0.58514 2.5585 0.95876 4.0719 1.2077 0.61886 0.10178 0.78894 0.10488 7.1441 0.13041l6.5102 0.02614 0.03382 0.26821c0.06998 0.55507 0.18427 1.8006 0.2159 2.3529l0.0328 0.573-7.7487-0.0064c-4.2618-0.0036-7.9352-0.02527-8.1632-0.0482z" stroke-width=".18765" style="paint-order:stroke fill markers"/>
 </g>
 <path d="m29.676 18.727c-1.0451-0.09344-1.9977-0.74708-2.5023-1.7169l-0.18636-0.35822h2.9888c2.1497 0 2.9888 0.01402 2.9888 0.04995 0 0.02747-0.07535 0.19546-0.16745 0.37331-0.21665 0.41838-0.82064 1.0351-1.2353 1.2612-0.58806 0.32077-1.215 0.4506-1.8862 0.39059z" fill="#fff" stroke="#fff" stroke-linecap="round" stroke-linejoin="round" stroke-width="1.567" style="paint-order:stroke fill markers"/>
</svg>
