<svg xmlns="http://www.w3.org/2000/svg" viewBox="0 0 60 75" x="0px" y="0px"><path d="M16,15a5.008,5.008,0,0,0-4.968,4.43C9.833,20.281,7,22.934,7,29a32.031,32.031,0,0,0,1.255,9.176A3.985,3.985,0,0,0,12.08,41H13v3.52a1.962,1.962,0,0,0,2.01,1.989,41.543,41.543,0,0,0,.469,7.115l-2.652.22A3.065,3.065,0,0,0,10,56.92,3.085,3.085,0,0,0,13.08,60H20.6A3.39,3.39,0,0,0,24,56.6V53.37a3.012,3.012,0,0,1,.534-1.7,13.3,13.3,0,0,0,1.506-2.983,1.986,1.986,0,0,0,.9.314,2.028,2.028,0,0,0,1.586-.581L30,46.936l1.48,1.49A2.024,2.024,0,0,0,32.893,49c.054,0,.109,0,.164-.006a1.982,1.982,0,0,0,.9-.314,13.354,13.354,0,0,0,1.506,2.984A3.006,3.006,0,0,1,36,53.37V56.6A3.39,3.39,0,0,0,39.4,60h7.52A3.085,3.085,0,0,0,50,56.92a3.067,3.067,0,0,0-2.828-3.077l-2.651-.219a41.407,41.407,0,0,0,.469-7.114A1.965,1.965,0,0,0,47,44.52V41h.92a3.989,3.989,0,0,0,3.828-2.832A32.049,32.049,0,0,0,53,29c0-6.066-2.833-8.719-4.032-9.57A5.008,5.008,0,0,0,44,15a5.11,5.11,0,0,0-.724.053,6.041,6.041,0,0,0-.982-.785A3.992,3.992,0,0,0,44,11V7.61a2.611,2.611,0,0,0-3.779-2.334L39.77,5.5C38.788,2.36,34.78,0,30,0s-8.783,2.357-9.769,5.5l-.457-.231A2.612,2.612,0,0,0,16,7.61V11a3.994,3.994,0,0,0,1.706,3.268,6,6,0,0,0-.983.785A5.085,5.085,0,0,0,16,15ZM13,35v4h-.92a1.993,1.993,0,0,1-1.912-1.408A30,30,0,0,1,9,29c0-6.225,3.314-8.036,3.447-8.1A1,1,0,0,0,13,20a3,3,0,0,1,2.437-2.943A5.966,5.966,0,0,0,15,19.26v4.473C14.487,24.688,13,28.058,13,35Zm9.886,15.533A5,5,0,0,0,22,53.37V56.6A1.39,1.39,0,0,1,20.6,58H13.08a1.054,1.054,0,0,1-.771-.326A1.039,1.039,0,0,1,12,56.92a1.078,1.078,0,0,1,.992-1.083l3.75-.31a1,1,0,0,0,.9-1.2,39.088,39.088,0,0,1-.6-8.841l.761-.57,1.7,2.27a1.99,1.99,0,0,0,1.439.8,2.027,2.027,0,0,0,1.587-.582l1.361-1.374.612.817A11.975,11.975,0,0,1,22.886,50.533Zm24.121,5.3A1.08,1.08,0,0,1,48,56.92a1.054,1.054,0,0,1-.326.771A1.039,1.039,0,0,1,46.92,58H39.4A1.39,1.39,0,0,1,38,56.6V53.37a4.993,4.993,0,0,0-.886-2.836A11.99,11.99,0,0,1,35.5,46.859l.613-.815,1.371,1.382a2.032,2.032,0,0,0,1.576.57,1.987,1.987,0,0,0,1.433-.8l1.71-2.28.76.57a38.942,38.942,0,0,1-.6,8.842,1,1,0,0,0,.9,1.2ZM47,20a1.014,1.014,0,0,0,.544.89C47.686,20.964,51,22.775,51,29a30.02,30.02,0,0,1-1.165,8.584A2,2,0,0,1,47.92,39H47V35a38.014,38.014,0,0,0-.464-6.163A16.578,16.578,0,0,0,45,23.729V19.26a5.966,5.966,0,0,0-.437-2.2A3,3,0,0,1,47,20ZM44.948,33H31a9.01,9.01,0,0,1-9-9v-.826a14.049,14.049,0,0,0,7.589,6.1c.02.009.041.015.062.023A13.941,13.941,0,0,0,34,30H44.681Q44.875,31.422,44.948,33ZM43,19.26V24a1.032,1.032,0,0,0,.163.547A11.706,11.706,0,0,1,44.341,28H34a11.926,11.926,0,0,1-3-.395V25a1,1,0,0,0-2,0V26.9a12.053,12.053,0,0,1-6.463-7.342A12.323,12.323,0,0,0,30,22c3.2,0,9.018-1.441,9.879-6.659l.385.127A4,4,0,0,1,43,19.26ZM18,7.61a.6.6,0,0,1,.286-.516.638.638,0,0,1,.327-.1.6.6,0,0,1,.268.064l1.67.84A1,1,0,0,0,22,7c0-2.71,3.663-5,8-5s8,2.29,8,5.01a1,1,0,0,0,1.449.893l1.665-.837a.613.613,0,0,1,.6.028A.6.6,0,0,1,42,7.61V11a2,2,0,0,1-2,2H39a1,1,0,0,0-1,1c0,5.909-7.675,6-8,6s-8-.091-8-6a1,1,0,0,0-1-1H20a2,2,0,0,1-2-2ZM17,24V19.26a3.993,3.993,0,0,1,2.732-3.79L20,15.382V24A11.013,11.013,0,0,0,31,35H45v9.521l-1.6-1.2a2,2,0,0,0-2.8.4L38.89,46.006l-1.371-1.382a2.031,2.031,0,0,0-1.571-.571,1.985,1.985,0,0,0-1.438.788l-1.621,2.164-1.471-1.481a2.054,2.054,0,0,0-2.837,0L27.109,47,25.49,44.841a1.985,1.985,0,0,0-1.438-.788,2.04,2.04,0,0,0-1.582.583L21.109,46,19.4,43.721a2,2,0,0,0-2.8-.4L15,44.52V35c0-7.5,1.818-10.424,1.832-10.445A1.006,1.006,0,0,0,17,24Z"/><path d="M30,14c-3.25,0-4.491,1.077-4.707,1.293a.985.985,0,0,0-.012,1.376,1.019,1.019,0,0,0,1.4.062C26.69,16.724,27.556,16,30,16a5.57,5.57,0,0,1,3.293.707,1,1,0,0,0,1.414-1.414C34.491,15.077,33.25,14,30,14Z"/><path d="M25,8h.1a5,5,0,0,0,9.8,0H35a1,1,0,0,0,0-2H25a1,1,0,0,0,0,2Zm7.816,0a2.982,2.982,0,0,1-5.632,0Z"/></svg>