<?xml version="1.0" encoding="UTF-8"?>
<svg version="1.1" viewBox="0 0 60 75" xmlns="http://www.w3.org/2000/svg">
 <path d="m16 15c-2.5397 0.0033-4.6749 1.9072-4.968 4.43-1.199 0.851-4.032 3.504-4.032 9.57-0.028401 3.1033 0.39435 6.1943 1.255 9.176 0.51229 1.6821 2.0666 2.8297 3.825 2.824h0.92v3.52c-0.01566 1.1132 0.89704 2.0163 2.01 1.989-0.04787 2.3807 0.10904 4.7612 0.469 7.115l-2.652 0.22c-1.6034 0.12485-2.8376 1.4678-2.827 3.076 0.0028 1.6999 1.3801 3.0772 3.08 3.08h7.52c1.8801 0.0056 3.4056-1.5199 3.4-3.4v-3.23c0.0025-0.60756 0.18862-1.2002 0.534-1.7 0.62541-0.92706 1.1314-1.9293 1.506-2.983 0.27006 0.17618 0.57896 0.28395 0.9 0.314 0.588 0.04618 1.167-0.16592 1.586-0.581l1.474-1.484 1.48 1.49c0.37814 0.36826 0.88517 0.57423 1.413 0.574 0.054 0 0.109 0 0.164-6e-3 0.32108-0.02989 0.63001-0.13768 0.9-0.314 0.37504 1.0538 0.88101 2.0563 1.506 2.984 0.34795 0.50101 0.53524 1.096 0.537 1.706v3.23c-0.0056 1.8801 1.5199 3.4056 3.4 3.4h7.52c1.6999-0.0028 3.0772-1.3801 3.08-3.08 0.01013-1.6086-1.2243-2.9517-2.828-3.077l-2.651-0.219c0.36057-2.3534 0.51748-4.7336 0.469-7.114 1.1127 0.02558 2.0245-0.87714 2.01-1.99v-3.52h0.92c1.7613 0.0046 3.3171-1.1464 3.828-2.832 0.85862-2.9793 1.2803-6.0675 1.252-9.168 0-6.066-2.833-8.719-4.032-9.57-0.29312-2.5228-2.4283-4.4267-4.968-4.43-0.24228 4.8e-4 -0.48423 0.01819-0.724 0.053-0.29914-0.29511-0.62826-0.5582-0.982-0.785 1.0677-0.74582 1.7045-1.9656 1.706-3.268v-3.39c-8.82e-4 -1.9406-2.0434-3.2021-3.779-2.334l-0.451 0.224c-0.982-3.14-4.99-5.5-9.77-5.5s-8.783 2.357-9.769 5.5l-0.457-0.231c-1.737-0.86281-3.7753 0.40153-3.774 2.341v3.39c0.0019 1.3023 0.63854 2.522 1.706 3.268-0.35427 0.2265-0.68374 0.48961-0.983 0.785-0.23943-0.034845-0.48105-0.052557-0.723-0.053zm-3 20v4h-0.92c-0.87788 3e-3 -1.6543-0.56879-1.912-1.408-0.80336-2.7923-1.1968-5.6866-1.168-8.592 0-6.225 3.314-8.036 3.447-8.1 0.34067-0.17023 0.55508-0.51917 0.553-0.9 0.0018-1.4384 1.0242-2.6731 2.437-2.943-0.28382 0.70005-0.43212 1.4476-0.437 2.203v4.473c-0.513 0.955-2 4.325-2 11.267zm9.886 15.533c-0.57607 0.834-0.88506 1.8234-0.886 2.837v3.23c0.0056 0.77551-0.62449 1.4056-1.4 1.4h-7.52c-0.29098 0.0024-0.57002-0.11556-0.771-0.326-0.20137-0.19877-0.31296-0.47108-0.309-0.754-0.0044-0.56525 0.42853-1.0379 0.992-1.083l3.75-0.31c0.6-0.04764 1.0223-0.61066 0.9-1.2-0.53448-2.9147-0.73577-5.8808-0.6-8.841l0.761-0.57 1.7 2.27c0.34169 0.46189 0.86634 0.75357 1.439 0.8 0.58851 0.04635 1.168-0.16616 1.587-0.582l1.361-1.374 0.612 0.817c-0.32686 1.311-0.87324 2.5573-1.616 3.686zm24.121 5.3c0.56495 0.04563 0.99851 0.52023 0.993 1.087 0.0024 0.29098-0.11556 0.57002-0.326 0.771-0.19877 0.20137-0.47108 0.31296-0.754 0.309h-7.52c-0.77551 0.0056-1.4056-0.62449-1.4-1.4v-3.23c-7.05e-4 -1.0133-0.30972-2.0025-0.886-2.836-0.74068-1.1256-1.2863-2.368-1.614-3.675l0.613-0.815 1.371 1.382c0.41887 0.40788 0.99313 0.61557 1.576 0.57 0.57062-0.04773 1.0929-0.33931 1.433-0.8l1.71-2.28 0.76 0.57c0.13712 2.9606-0.06419 5.9271-0.6 8.842-0.12227 0.58934 0.3 1.1524 0.9 1.2zm-7e-3 -35.833c0.0031 0.37434 0.21228 0.7165 0.544 0.89 0.142 0.074 3.456 1.885 3.456 8.11 0.02872 2.9026-0.3637 5.794-1.165 8.584-0.25708 0.84205-1.0346 1.417-1.915 1.416h-0.92v-4c0.012867-2.0635-0.14231-4.1247-0.464-6.163-0.23293-1.7744-0.75165-3.4994-1.536-5.108v-4.469c-0.0053-0.75437-0.15355-1.5009-0.437-2.2 1.4117 0.26972 2.4338 1.5028 2.437 2.94zm-2.052 13h-13.948c-4.9683-0.0055-8.9945-4.0317-9-9v-0.826c1.7217 2.8729 4.4131 5.0363 7.589 6.1 0.02 9e-3 0.041 0.015 0.062 0.023 1.4032 0.46335 2.8712 0.70065 4.349 0.703h10.681c0.12933 0.948 0.21833 1.948 0.267 3zm-1.948-13.74v4.74c0.0018 0.19403 0.05832 0.38362 0.163 0.547 0.57072 1.0824 0.96822 2.2475 1.178 3.453h-10.341c-1.0127-0.0038-2.0208-0.13649-3-0.395v-2.605c0-1.3333-2-1.3333-2 0v1.9c-3.0952-1.4239-5.4432-4.0912-6.463-7.342 2.1548 1.606 4.7756 2.4636 7.463 2.442 3.2 0 9.018-1.441 9.879-6.659l0.385 0.127c1.6328 0.54382 2.7347 2.071 2.736 3.792zm-25-11.65c-0.0017-0.21023 0.10685-0.40598 0.286-0.516 0.09787-0.062467 0.21093-0.097042 0.327-0.1 0.09309 2.546e-4 0.18484 0.022166 0.268 0.064l1.67 0.84c0.66676 0.33506 1.4523-0.15179 1.449-0.898 0-2.71 3.663-5 8-5s8 2.29 8 5.01c3.96e-4 0.74402 0.78419 1.2271 1.449 0.893l1.665-0.837c0.19118-0.096005 0.41859-0.085393 0.6 0.028 0.17915 0.11002 0.28765 0.30577 0.286 0.516v3.39c0 1.1046-0.89543 2-2 2h-1c-0.55228 0-1 0.44772-1 1 0 5.909-7.675 6-8 6s-8-0.091-8-6c0-0.55228-0.44772-1-1-1h-1c-1.1046 0-2-0.89543-2-2zm-1 16.39v-4.74c-5.78e-4 -1.7199 1.1002-3.2469 2.732-3.79l0.268-0.088v8.618c0.0072 6.0722 4.9278 10.993 11 11h14v9.521l-1.6-1.2c-0.88366-0.66274-2.1373-0.48366-2.8 0.4l-1.71 2.285-1.371-1.382c-0.41744-0.40699-0.98965-0.61497-1.571-0.571-0.5705 0.04316-1.0946 0.33037-1.438 0.788l-1.621 2.164-1.471-1.481c-0.79378-0.75797-2.0432-0.75797-2.837 0l-1.472 1.476-1.619-2.159c-0.34337-0.45763-0.8675-0.74484-1.438-0.788-0.58673-0.04286-1.1634 0.16965-1.582 0.583l-1.361 1.364-1.709-2.279c-0.66274-0.88366-1.9163-1.0627-2.8-0.4l-1.6 1.199v-9.52c0-7.5 1.818-10.424 1.832-10.445 0.10926-0.1645 0.16769-0.35752 0.168-0.555z"/>
 <path d="M30,14c-3.25,0-4.491,1.077-4.707,1.293a.985.985,0,0,0-.012,1.376,1.019,1.019,0,0,0,1.4.062C26.69,16.724,27.556,16,30,16a5.57,5.57,0,0,1,3.293.707,1,1,0,0,0,1.414-1.414C34.491,15.077,33.25,14,30,14Z"/>
 <path d="M25,8h.1a5,5,0,0,0,9.8,0H35a1,1,0,0,0,0-2H25a1,1,0,0,0,0,2Zm7.816,0a2.982,2.982,0,0,1-5.632,0Z"/>
 <g fill="#fff" stroke="#fff" stroke-linecap="round" stroke-linejoin="round">
  <g stroke-width=".49249">
   <path d="m26.191 45.634c-1.0033-1.3348-1.3828-1.6066-2.2434-1.6066-0.81675 0-1.0974 0.1402-2.0332 1.0156l-0.82987 0.7763-0.91191-1.2132c-0.99453-1.3231-1.2915-1.5766-1.9784-1.688-0.7445-0.12082-1.2543 0.05167-2.1325 0.72146-0.45755 0.34899-0.88152 0.63662-0.94215 0.63918-0.06105 0.0026-0.08212-2.8362-0.04721-6.3627 0.05612-5.6697 0.09295-6.5593 0.33621-8.1197 0.31005-1.9888 0.73511-3.5649 1.2938-4.797l0.38326-0.84525v-2.7932c0-2.5074 0.02699-2.8653 0.26378-3.4982 0.3139-0.83897 1.1725-1.7749 1.9463-2.1216l0.54163-0.24266 0.07701 5.0814c0.08196 5.4079 0.10626 5.6356 0.79644 7.4631 1.0726 2.8402 3.486 5.2248 6.392 6.3157 1.7674 0.6635 2.4486 0.70964 10.477 0.70964h7.4064v9.3491l-0.98181-0.73897c-0.94678-0.7126-1.0098-0.73897-1.7654-0.73897-1.0215 0-1.2598 0.16633-2.3874 1.6665-0.50153 0.66724-0.95002 1.2132-0.99664 1.2132-0.04662 0-0.39957-0.3212-0.78432-0.71378-0.86232-0.87986-1.2262-1.078-1.9794-1.078-0.87644 0-1.251 0.26678-2.261 1.6105l-0.91693 1.2199-0.77879-0.76185c-0.91699-0.89705-1.4124-1.1727-2.108-1.1727-0.77066 0-1.1167 0.18382-2.0594 1.0939l-0.86261 0.83278z" style="paint-order:stroke fill markers"/>
   <path d="m26.121 45.851c-1.087-1.4255-1.3313-1.6044-2.191-1.6044-0.78788 0-1.2523 0.24663-2.1028 1.1167-0.31382 0.32104-0.6392 0.5837-0.72305 0.5837-0.08385 0-0.53872-0.51878-1.0108-1.1528-1.0857-1.4582-1.3665-1.6629-2.2809-1.6629-0.6368 0-0.79843 0.06283-1.6441 0.63904-0.51581 0.35147-1.016 0.63944-1.1116 0.63993-0.1449 7.46e-4 -0.16383-1.1095-0.11396-6.6864 0.05554-6.2107 0.08021-6.8011 0.34623-8.2839 0.34449-1.9202 0.7691-3.4287 1.286-4.5688l0.38326-0.84525 0.0013-2.83c0.0012-2.7233 0.01292-2.8551 0.31079-3.4948 0.39458-0.84747 1.2197-1.7441 1.9146-2.0805 0.29806-0.14429 0.59945-0.26234 0.66976-0.26234 0.08087 0 0.17884 1.9632 0.26666 5.3434 0.15485 5.9605 0.16695 6.048 1.1102 8.0297 1.4926 3.1358 4.6088 5.4929 7.8635 5.948 0.46964 0.06566 4.2663 0.16016 8.4371 0.20999l7.5832 0.09061v4.7796c0 3.326-0.04188 4.7796-0.13771 4.7796-0.07574 0-0.4645-0.25034-0.86391-0.55632-0.39941-0.30597-0.852-0.62274-1.0058-0.70392-0.37966-0.20046-1.4399-0.17847-1.8322 0.03801-0.17598 0.0971-0.75192 0.71035-1.2799 1.3628-0.52794 0.65243-1.0279 1.2079-1.111 1.2345-0.08309 0.02652-0.56278-0.3296-1.066-0.79138-0.91351-0.83833-1.0966-0.91795-1.9826-0.86231-0.64061 0.04023-0.93755 0.28011-1.8822 1.5205-0.49843 0.65447-0.97237 1.1899-1.0532 1.1899-0.08084 0-0.40375-0.26385-0.71757-0.58634-1.5985-1.6427-2.5322-1.6975-4.0777-0.23957-0.48153 0.45425-0.93294 0.82591-1.0031 0.82591-0.07019 0-0.51189-0.50395-0.98157-1.1199z" style="paint-order:stroke fill markers"/>
   <path d="m26.056 46.024c-1.1444-1.3701-1.4549-1.6123-2.0671-1.6123-0.71574 0-1.0493 0.1678-1.9144 0.96315-0.44245 0.40676-0.87222 0.69867-0.99406 0.67521-0.11805-0.02274-0.64741-0.57795-1.1764-1.2338-0.52894-0.65586-1.0721-1.2538-1.207-1.3287-0.13491-0.07495-0.54786-0.13626-0.91768-0.13626-0.58192 0-0.79819 0.08048-1.6072 0.59808-0.51415 0.32894-1.0227 0.58108-1.1301 0.5603-0.17211-0.03329-0.19526-0.83516-0.19499-6.7551 2.24e-4 -4.9818 0.04456-6.9984 0.17159-7.8052 0.26452-1.68 0.84846-3.8468 1.3538-5.0232l0.45813-1.0666v-2.8173c0-2.7746 5e-3 -2.8274 0.33145-3.4824 0.54631-1.0963 1.9546-2.3288 2.661-2.3288 0.28578 0 0.32077 0.37964 0.45994 4.9915 0.18322 6.0714 0.23397 6.514 0.92322 8.0519 1.0023 2.2363 2.8349 4.1632 4.9863 5.2428 0.7921 0.39749 1.6886 0.73898 2.2292 0.84913 0.67215 0.13695 2.8076 0.21765 8.3191 0.31438 4.0782 0.07157 7.6603 0.13062 7.9603 0.13121l0.54546 0.0011-0.03352 4.8938c-0.02898 4.2305-0.05954 4.8987-0.2255 4.9304-0.10559 0.02016-0.59355-0.25263-1.0844-0.60621-0.83889-0.60434-0.93863-0.64263-1.6638-0.6388-0.42429 0.0022-0.86127 0.07423-0.97106 0.15998-0.10979 0.08575-0.62619 0.64546-1.1475 1.2438-0.94574 1.0854-1.1374 1.2742-1.2971 1.2779-0.04647 0.0011-0.38504-0.24282-0.75238-0.54198-1.2225-0.99564-1.4394-1.1199-1.9555-1.1199-0.69937 0-1.0465 0.2555-2.1061 1.5503-0.512 0.62559-1.0202 1.1374-1.1294 1.1374-0.10916 0-0.52536-0.30942-0.9249-0.6876-0.84002-0.79513-1.3837-1.1042-1.9423-1.1042-0.536 0-0.98049 0.24872-1.9401 1.0856-0.44537 0.38842-0.87931 0.70622-0.96432 0.70622-0.08501 0-0.55876-0.48394-1.0528-1.0754z" style="paint-order:stroke fill markers"/>
   <path d="m12.671 57.823c-0.74092-0.42492-0.76994-1.3874-0.05339-1.7709 0.14339-0.07674 1.222-0.21994 2.3968-0.31822 2.0344-0.17018 2.1498-0.19449 2.4241-0.51047 0.34952-0.4027 0.34905-0.35517 0.02459-2.4933-0.33752-2.2241-0.49756-6.9312-0.24597-7.2344 0.43988-0.53002 0.5623-0.47493 1.3734 0.61793 1.1313 1.5243 1.4315 1.7774 2.1947 1.8508 0.96084 0.09232 1.2524-0.03478 2.218-0.96697l0.88471-0.85411 0.2498 0.31769c0.16581 0.21087 0.22811 0.43748 0.18528 0.67399-0.11359 0.62728-0.73393 2.0449-1.3562 3.0993-0.89762 1.5209-1.0167 2.0491-1.0167 4.5091 0 2.374-0.10173 2.7452-0.8363 3.0522-0.56692 0.23687-8.0352 0.26103-8.4427 0.02731z" style="paint-order:stroke fill markers"/>
   <path d="m38.846 57.754c-0.69438-0.34827-0.7657-0.61908-0.76781-2.9156-0.0023-2.4854-0.10897-2.9497-1.0611-4.6187-0.72042-1.2628-1.375-2.8014-1.3697-3.2193 0.0016-0.12158 0.10844-0.35838 0.23749-0.52621l0.23465-0.30516 0.53113 0.57621c0.86559 0.93906 1.4469 1.2795 2.1846 1.2795 0.90716 0 1.3388-0.30428 2.4103-1.6992 0.51125-0.66554 1.0008-1.1911 1.0879-1.168 0.08708 0.02314 0.26684 0.13833 0.39946 0.25597 0.22622 0.20067 0.23628 0.37214 0.16265 2.7736-0.04316 1.4078-0.16899 3.1933-0.27961 3.9676-0.38057 2.6638-0.38189 2.7795-0.03541 3.1017 0.27166 0.25264 0.55669 0.30793 2.4419 0.47369 1.1739 0.10322 2.2497 0.2494 2.3906 0.32485 0.60975 0.32633 0.67415 1.0189 0.14404 1.549l-0.37411 0.37411-3.9454-1.99e-4c-3.5005-1.76e-4 -3.9957-0.02543-4.3916-0.22398z" style="paint-order:stroke fill markers"/>
   <path d="m47.002 35.036c-0.08188-5.2194-0.42718-7.6436-1.4528-10.2-0.43313-1.0795-0.43364-1.0833-0.43621-3.2637-0.0024-2.024-0.09419-3.1945-0.31946-4.073-0.08792-0.34286-0.07952-0.34998 0.26029-0.22079 0.99039 0.37655 1.6589 1.2835 1.8528 2.514 0.09907 0.62841 0.18578 0.80024 0.53933 1.0688 1.4953 1.1357 2.47 2.6056 3.0553 4.6075 0.39723 1.3586 0.49137 5.1558 0.18709 7.5464-0.26049 2.0466-0.87923 4.6439-1.2204 5.1231-0.34366 0.48262-1.0016 0.76912-1.7663 0.76912h-0.6389z" style="paint-order:stroke fill markers"/>
   <path d="m28.989 19.879c-0.8388-0.08626-2.2926-0.43956-3.0824-0.74908-2.272-0.89038-3.6032-2.4862-3.7866-4.5393-0.1255-1.4047-0.39745-1.6638-1.7461-1.6638-0.94208 0-1.5535-0.27723-1.9758-0.89584-0.2705-0.39628-0.28797-0.55249-0.28797-2.5742 0-2.6807-0.01464-2.6628 1.5521-1.9051 1.402 0.67798 1.8738 0.67598 2.2282-0.00943 0.10298-0.19915 0.18725-0.49868 0.18725-0.66562 0-1.2449 1.3707-2.8975 3.0873-3.7222 1.6175-0.77707 2.7202-1.0123 4.7839-1.0203 1.4673-0.0057 1.9888 0.045273 2.8797 0.28142 2.9107 0.77157 4.852 2.4486 5.082 4.3901 0.09368 0.791 0.47599 1.2576 1.0304 1.2576 0.2005 0 0.84068-0.23025 1.4226-0.51166 1.5585-0.75369 1.5521-0.76114 1.5521 1.8011 0 1.8004-0.0312 2.1095-0.2577 2.5535-0.36412 0.71374-1.0179 1.0205-2.1748 1.0205-1.2337 0-1.4595 0.21998-1.5817 1.5412-0.10029 1.0844-0.57031 2.2277-1.22 2.9677-1.4213 1.6187-4.9163 2.7289-7.6925 2.4434zm-2.3368-3.0527c0.51261-0.35905 1.3637-0.58254 2.7027-0.70972 1.587-0.15075 2.4346-0.02627 3.5534 0.52185 0.43099 0.21116 0.94563 0.38393 1.1436 0.38393 0.52722 0 0.95244-0.45631 0.95244-1.0221 0-0.75649-0.64269-1.2574-2.2436-1.7486-1.0929-0.33532-4.3996-0.3356-5.4996-4.52e-4 -1.7611 0.53661-2.5441 1.2666-2.2339 2.0826 0.0727 0.19121 0.2307 0.42251 0.35112 0.514 0.29872 0.22696 0.93435 0.21619 1.2738-0.02157zm5.4364-5.2085c0.97949-0.45095 1.9286-1.3641 2.4015-2.3104 0.21246-0.42516 0.38628-0.84944 0.38628-0.94284 0-0.093401 0.19694-0.25211 0.43765-0.35268 0.95448-0.39881 0.99123-1.6575 0.0579-1.9829-0.56034-0.19533-10.158-0.19533-10.718 0-0.47915 0.16703-0.65633 0.44945-0.65633 1.0462 0 0.47366 0.23605 0.7616 0.80015 0.97607 0.19345 0.07355 0.35173 0.22758 0.35173 0.34228 0 0.3839 0.6512 1.5198 1.1923 2.0798 1.1087 1.1473 2.1883 1.5716 3.8631 1.5182 0.92166-0.02938 1.2981-0.10406 1.8837-0.37365z" style="paint-order:stroke fill markers"/>
   <path d="m31.869 27.727-0.76792-0.14603-0.03589-1.5616c-0.03471-1.5105-0.0468-1.5702-0.36922-1.8238-0.42599-0.33508-0.94102-0.33393-1.3694 0.0031-0.31932 0.25118-0.33723 0.32594-0.33723 1.4078 0 0.62842-0.04658 1.1426-0.10352 1.1426-0.17023 0-1.5754-0.87733-2.3009-1.4366-0.83947-0.6471-1.8025-1.6922-2.4837-2.6952-0.49616-0.73062-1.4474-2.63-1.3606-2.7167 0.02276-0.02276 0.41575 0.18387 0.8733 0.45919 1.7911 1.0777 3.998 1.6539 6.3353 1.6539 4.2692 0 7.9398-1.8244 9.3143-4.6296 0.25273-0.51579 0.49858-1.1538 0.54633-1.4178 0.09719-0.53726 0.14266-0.5551 0.75864-0.29773 0.63802 0.26658 1.5764 1.1847 1.9669 1.9244 0.33525 0.63511 0.34154 0.69348 0.40737 3.7807l0.06687 3.1357 0.4032 0.83932c0.33021 0.68736 0.80692 2.1494 0.80692 2.4748 0 0.14694-11.545 0.05682-12.351-0.09642z" style="paint-order:stroke fill markers"/>
   <path d="m11.208 38.684c-0.24137-0.12308-0.54659-0.37092-0.67826-0.55075-0.50787-0.69363-1.1681-3.9959-1.3893-6.9484-0.36734-4.9046 0.6788-8.2439 3.1559-10.074 0.61322-0.45301 0.68595-0.55924 0.76055-1.1108 0.04537-0.33545 0.14284-0.80602 0.21659-1.0457 0.16578-0.53877 1.0643-1.4572 1.6126-1.6483 0.22459-0.07829 0.40835-0.13057 0.40835-0.11617 0 0.0144-0.06646 0.22738-0.14769 0.47329-0.08187 0.24786-0.18545 1.759-0.23242 3.3908-0.08185 2.8436-0.09679 2.9714-0.43948 3.7588-0.43971 1.0103-0.87728 2.7146-1.1709 4.5603-0.16589 1.0429-0.23896 2.4612-0.28187 5.4714l-0.05793 4.0636-0.65868-1.99e-4c-0.37406-1.13e-4 -0.84831-0.09689-1.0975-0.22398z" style="paint-order:stroke fill markers"/>
   <path d="m46.863 37.212c-0.04589-1.0031-0.08456-2.4861-0.08593-3.2956-0.0057-3.3885-0.3854-6.0582-1.2104-8.5111-0.55954-1.6637-0.55959-1.664-0.63773-4.0316-0.04298-1.3023-0.14207-2.7868-0.22021-3.2989-0.07814-0.51213-0.11193-0.96129-0.07509-0.99812 0.14475-0.14475 0.74353 0.1184 1.2438 0.54662 0.59925 0.51294 0.92674 1.088 1.1914 2.0921 0.15955 0.60524 0.32912 0.84352 1.2712 1.7863 0.86872 0.86934 1.1936 1.3064 1.6173 2.1758 0.835 1.7132 0.93814 2.2619 1.0105 5.3754 0.05003 2.1544 0.01786 3.0712-0.1482 4.2236-0.26803 1.8599-0.77383 4.0001-1.1098 4.6958-0.3329 0.68935-1.0563 1.0636-2.0559 1.0636h-0.7076z" style="paint-order:stroke fill markers"/>
   <path d="m31.945 27.89c-0.45097-0.05841-0.86312-0.15189-0.91588-0.20775-0.05276-0.05585-0.11588-0.76959-0.14025-1.5861-0.03023-1.0126-0.10006-1.5517-0.21967-1.6958-0.22535-0.27153-1.0787-0.28102-1.2999-0.01446-0.08985 0.10826-0.19769 0.69798-0.23965 1.3105-0.0598 0.8729-0.11998 1.122-0.27839 1.1522-0.32686 0.06233-2.4878-1.4373-3.3889-2.3519-0.97859-0.99315-1.6858-2.0009-2.3864-3.4007-0.72398-1.4465-0.63384-1.5233 0.88616-0.75517 2.1793 1.1013 3.5517 1.4294 5.9872 1.4314 3.4121 0.0028 6.1966-1.0127 8.0205-2.9248 0.77145-0.80878 1.155-1.4552 1.5763-2.6568 0.16468-0.46963 0.35183-0.78316 0.4825-0.80832 0.59616-0.11481 2.1353 1.1428 2.681 2.1906 0.25348 0.48673 0.29242 0.84727 0.41732 3.8645 0.11694 2.8248 0.17365 3.3942 0.37529 3.7681 0.3229 0.59874 0.84555 2.1599 0.84555 2.5256v0.29755l-5.7914-0.01623c-3.1853-0.0089-6.1604-0.06402-6.6113-0.12242z" style="paint-order:stroke fill markers"/>
   <path d="m27.773 19.847c-1.4888-0.35116-2.4471-0.73696-3.4174-1.3759-1.3904-0.91554-2.1347-2.096-2.4065-3.8171-0.2049-1.2972-0.32658-1.4334-1.3713-1.5351-1.2116-0.11796-1.589-0.25821-2.093-0.77782l-0.43873-0.45231-0.04039-2.2456c-0.03562-1.9803-0.01437-2.2744 0.17982-2.489 0.28896-0.31929 0.30506-0.31704 1.4604 0.20462 0.55529 0.25072 1.1992 0.44795 1.4625 0.44795 0.41576 0 0.4919-0.051529 0.65582-0.44384 0.102-0.24411 0.18599-0.60407 0.18665-0.79991 6.6e-4 -0.19584 0.16663-0.64448 0.36883-0.99698 0.72782-1.2688 1.9583-2.2633 3.6149-2.9216 1.3518-0.53716 2.0886-0.65278 4.1422-0.64995 2.1539 0.00297 2.9254 0.15584 4.5349 0.89869 1.9359 0.89346 2.9971 2.0461 3.4455 3.7423 0.13676 0.51727 0.30943 1.0013 0.3837 1.0755 0.23535 0.23535 0.82835 0.12834 1.9001-0.34286 1.2064-0.53044 1.212-0.53126 1.4907-0.22324 0.17817 0.19687 0.21182 0.55332 0.21182 2.2439 0 2.2362-0.09324 2.6301-0.75428 3.1864-0.40764 0.343-0.53916 0.37924-2.0614 0.56793l-0.83191 0.10312-0.15106 0.51194c-0.08309 0.28157-0.21242 0.85641-0.28741 1.2774-0.41001 2.3019-2.1376 3.858-5.1929 4.6775-1.4673 0.39357-3.643 0.45192-4.9915 0.13387zm6.9502-3.5098c0.32643-0.66323-0.22481-1.2813-1.5748-1.7658-0.94739-0.34001-3.9013-0.48106-5.2297-0.24972-2.0672 0.35998-3.2404 1.3652-2.5913 2.2202 0.21098 0.27794 0.99649 0.29881 1.3959 0.0371 0.58629-0.38416 1.9126-0.62614 3.4814-0.63516 1.4452-0.0083 1.5925 0.015 2.4957 0.39498 0.52794 0.22209 1.0463 0.42943 1.1519 0.46075 0.32001 0.09492 0.69445-0.10388 0.87089-0.46237zm-2.5987-4.9404c0.91005-0.44602 1.8603-1.4467 2.3414-2.4656 0.28804-0.61005 0.51946-0.91823 0.79752-1.062 0.68885-0.35622 0.81602-1.2947 0.21923-1.6179-0.40202-0.2177-10.53-0.22211-10.931-0.0047586-0.33453 0.18122-0.49668 0.80583-0.3031 1.1675 0.07717 0.14418 0.3115 0.35069 0.52075 0.45889 0.26652 0.13782 0.49137 0.44138 0.75088 1.0137 0.40131 0.88507 1.1912 1.8291 1.8938 2.2633 0.77892 0.4814 1.4361 0.62021 2.7907 0.5895 1.0611-0.02406 1.3892-0.08262 1.9198-0.34265z" style="paint-order:stroke fill markers"/>
   <path d="m14.483 58.106c-1.8885-0.06363-1.9009-0.06601-2.2078-0.42309-0.36932-0.42978-0.4069-1.091-0.08461-1.4889 0.27701-0.34206 0.79287-0.45701 2.9117-0.64882 0.9151-0.08284 1.8078-0.21767 1.9838-0.29963 0.42165-0.19636 0.45686-0.6688 0.18876-2.5332-0.11496-0.79946-0.24159-2.7036-0.28139-4.2315-0.06399-2.4564-0.04766-2.8156 0.14107-3.1037 0.39317-0.60006 0.74272-0.4421 1.6812 0.75972 1.1647 1.4916 1.3249 1.6022 2.3188 1.6022h0.81426l0.95995-0.91186c1.0401-0.98796 1.1554-1.0058 1.4771-0.22915 0.22404 0.54087 0.05225 1.0665-1.1058 3.3839-0.9137 1.8283-0.96673 1.9826-1.0782 3.1357-0.06449 0.66702-0.11882 1.7706-0.12073 2.4523-0.0052 1.8574-0.29189 2.3408-1.4598 2.4615-1.0403 0.10746-4.0701 0.14428-6.1383 0.07459z" style="paint-order:stroke fill markers"/>
   <path d="m38.908 57.926c-0.8274-0.36522-0.8801-0.52271-0.98181-2.9338-0.051-1.209-0.12844-2.3997-0.17209-2.646-0.04365-0.24637-0.54027-1.3695-1.1036-2.4957-1.1493-2.2979-1.2874-2.8485-0.87803-3.502l0.26956-0.43033 0.85705 0.82639c0.94175 0.90806 1.5525 1.1901 2.2995 1.0618 0.58653-0.10066 1.0355-0.48228 2.0749-1.7635 0.85958-1.0596 1.1025-1.1715 1.557-0.71705 0.26948 0.26948 0.27327 0.32885 0.1944 3.0397-0.04425 1.5207-0.1661 3.3696-0.27079 4.1087-0.24436 1.7253-0.24906 2.4864-0.01654 2.6794 0.14258 0.11833 3.7644 0.63505 4.5274 0.64592 0.09119 0.0013 0.30717 0.14373 0.47995 0.31651 0.44029 0.44029 0.41145 0.97398-0.08307 1.5372l-0.39722 0.45241-3.9863-5e-3c-3.0206-0.0038-4.0793-0.04607-4.3703-0.17449z" style="paint-order:stroke fill markers"/>
   <path d="m38.884 58.093c-0.492-0.14235-0.90607-0.63568-0.99354-1.1837-0.03537-0.22163-0.12215-1.3727-0.19285-2.558l-0.12854-2.155-0.89784-1.8909c-1.0121-2.1315-1.2831-2.8328-1.2824-3.3182 5.77e-4 -0.4053 0.44169-1.1678 0.67559-1.1678 0.09234 0 0.39555 0.23768 0.67381 0.52817 0.80404 0.8394 1.5504 1.2634 2.2268 1.2651 0.57433 0.0014 0.60165-0.01828 1.8627-1.3443 1.3667-1.4371 1.6099-1.5591 2.0895-1.0486 0.26224 0.27914 0.27796 0.41383 0.2727 2.3358-0.0031 1.1217-0.06053 2.6443-0.1277 3.3834-0.06717 0.73912-0.15929 1.9556-0.20471 2.7034l-0.08259 1.3595 0.88222 0.1554c0.48522 0.08547 1.5367 0.23227 2.3365 0.32622 1.2939 0.15197 1.4951 0.20986 1.8238 0.5248 0.54907 0.52604 0.48562 1.2063-0.18077 1.9379-0.26187 0.28751-0.26871 0.28795-4.3035 0.27643-2.2227-0.0063-4.2248-0.06465-4.4492-0.12956z" style="paint-order:stroke fill markers"/>
  </g>
  <path d="m30.159 32.937c-1.7297-0.17394-3.4954-0.90163-4.8186-1.9858-1.8889-1.5478-3.0616-3.7744-3.2833-6.2341-0.0263-0.29177-0.04167-0.73026-0.03415-0.97442l0.01367-0.44392 0.32508 0.48918c1.4148 2.1289 3.5264 3.9224 5.8515 4.97 1.2051 0.54295 2.374 0.88964 3.7784 1.1206 0.57424 0.09444 0.73207 0.09732 6.6291 0.121l6.0409 0.02426 0.03138 0.24888c0.06494 0.51506 0.17099 1.6708 0.20033 2.1833l0.03044 0.53169-7.1901-6e-3c-3.9545-0.0033-7.3632-0.02342-7.5747-0.04469z" stroke-width=".17412" style="paint-order:stroke fill markers"/>
 </g>
</svg>
