<?xml version="1.0" encoding="UTF-8" standalone="no"?>
<svg
   version="1.1"
   width="512"
   height="512"
   id="svg7"
   xmlns="http://www.w3.org/2000/svg">
  <defs
     id="defs7" />
  <g
     id="layer5"
     style="display:inline;stroke:#1a1a1a;stroke-width:8.002;stroke-dasharray:none;stroke-linejoin:round;stroke-linecap:round">
    <path
       style="opacity:1;fill:#ffffff;fill-opacity:1;stroke:#1a1a1a;stroke-width:12;stroke-linecap:round;stroke-linejoin:round;stroke-dasharray:none;paint-order:stroke fill markers"
       d="m 214.19479,498.81751 c 61.12506,0.35803 124.99443,23.01347 184.0506,-2.17869 61.60436,-24.97737 106.67055,-88.45732 103.25612,-155.8361 -1.0267,-38.3668 -11.44439,-75.78789 -15.20193,-113.79473 -5.3306,-18.34913 2.44126,-59.53781 -27.95085,-53.44466 -19.39228,-0.29793 -48.11624,9.31679 -39.61835,-20.6077 -0.94653,-31.47213 -1.89307,-62.944253 -2.8396,-94.416381 42.00275,-3.850359 17.98185,47.458541 23.58032,70.296471 10.21464,30.5579 61.87443,0.0968 53.38442,-12.7775 -26.49397,6.63856 -31.37599,-22.659764 -14.40361,-37.35697 15.02503,-25.406383 2.54528,-59.555674 -28.22031,-63.871679 -34.2797,-15.45889297 -50.62384,18.892536 -65.54164,41.918616 -17.92812,17.876968 -60.91625,0.348779 -58.21444,38.426066 0.91674,24.808847 0.016,50.331257 6.14884,74.543707 8.52971,11.34856 46.07953,11.62963 31.87265,37.92963 -7.84238,27.23062 -11.18053,59.40529 -38.58899,75.0494 -29.32312,11.05229 -20.14761,-31.4819 -24.24921,-48.4055 -6.6805,-64.69681 -12.34479,-129.56872 -19.66054,-194.155911 -4.53546,-28.378108 -37.99411,-24.416661 -34.21079,5.152843 0.0344,30.946902 7.36376,61.482188 9.27725,92.412158 l 16.40967,144.51102 -27.08532,4.3686 c 4.20273,14.91788 -11.19964,43.16114 -19.71422,15.49015 -20.07954,-37.64578 -41.61986,-82.96041 -86.64051,-94.79899 -30.52845,4.0779 -17.01571,-37.89453 -35.93158,-42.38568 -2.24091,14.71821 -16.248485,46.38005 -27.074876,18.32724 -14.370543,-25.70994 -37.760934,2.42973 -23.044943,21.65801 -1.139962,25.7248 -30.915891,38.60837 -32.549967,64.59303 -4.018773,34.10589 -11.7290436,68.48513 -14.5880204,102.23255 5.5818264,9.4891 11.1636534,18.97821 16.7454804,28.46731 l 41.443686,-1.74744 c 12.860638,-24.02655 19.508631,-56.48166 46.87564,-68.13443 8.51971,-9.63176 7.05517,-46.02312 3.33927,-14.98622 -5.42486,46.65692 7.05122,92.78043 16.06154,138.1855 9.09495,0.10424 96.47253,-2.44444 111.58362,-138.06826"
       id="path8" />
    <path
       d="m 73.6875,274.4375 c 22.288582,21.76569 -29.894679,16.33037 0,0 z"
       fill="#000000"
       id="path2"
       style="display:inline;opacity:1;stroke:#1a1a1a;stroke-width:8.002;stroke-linecap:round;stroke-linejoin:round;stroke-dasharray:none" />
    <path
       d="m 43,347 c 11.831973,26.72474 -28.091219,-1.7682 0,0 z"
       fill="#000000"
       id="path7"
       style="display:inline;opacity:1;stroke:#1a1a1a;stroke-width:8.002;stroke-linecap:round;stroke-linejoin:round;stroke-dasharray:none" />
    <path
       style="display:inline;opacity:1;fill:none;fill-opacity:1;stroke:#1a1a1a;stroke-width:8.002;stroke-linecap:round;stroke-linejoin:round;stroke-dasharray:none;paint-order:stroke fill markers"
       d="m 224.54607,491.03072 c 20.99642,-54.42119 43.51785,-110.64784 42.37289,-169.961 -2.46651,-19.52698 -20.96071,-17.87563 -17.34553,1.55651 -11.72808,51.04691 -37.66387,111.52431 -89.85046,125.78463 -18.55723,2.711 -43.12139,11.7985 -15.6985,31.18536 21.24168,17.42191 56.9154,32.45349 80.5216,11.4345 z"
       id="path9" />
    <path
       style="display:inline;opacity:1;fill:none;fill-opacity:1;stroke:#1a1a1a;stroke-width:8.002;stroke-linecap:round;stroke-linejoin:round;stroke-dasharray:none;paint-order:stroke fill markers"
       d="m 354.73038,173.87031 c 1.87315,-22.55403 -2.27498,-47.54177 20.9622,-60.20272 -2.15869,-15.240248 -42.78575,-8.71211 -44.95538,-0.27273 5.44823,20.73437 -4.17725,49.57546 15.31576,63.45138 3.16692,0.33292 6.16802,-1.2438 8.67742,-2.97593 z"
       id="path13" />
    <path
       style="opacity:1;fill:none;fill-opacity:1;stroke:#1a1a1a;stroke-width:8.002;stroke-linecap:round;stroke-linejoin:round;stroke-dasharray:none;paint-order:stroke fill markers"
       d="m 402.78498,487.53584 c 4.65984,-27.66781 9.31969,-55.33561 13.97953,-83.00342"
       id="path14" />
    <path
       style="opacity:1;fill:none;fill-opacity:1;stroke:#1a1a1a;stroke-width:8.002;stroke-linecap:round;stroke-linejoin:round;stroke-dasharray:none;paint-order:stroke fill markers"
       d="m 347.74061,361.72014 c 44.79274,13.17212 91.73594,30.55466 138.92151,19.22184"
       id="path15" />
    <path
       style="opacity:1;fill:none;fill-opacity:1;stroke:#1a1a1a;stroke-width:8.002;stroke-linecap:round;stroke-linejoin:round;stroke-dasharray:none;paint-order:stroke fill markers"
       d="m 429.87031,296.19113 c -2.03868,26.50284 -4.07736,53.00569 -6.11604,79.50853"
       id="path16" />
    <path
       style="display:inline;opacity:1;fill:none;fill-opacity:1;stroke:#1a1a1a;stroke-width:8.002;stroke-linecap:round;stroke-linejoin:round;stroke-dasharray:none;paint-order:stroke fill markers"
       d="m 341.62457,269.97952 c -16.65662,8.63143 -21.66365,28.70818 -21.52383,46.06992 0.28153,25.85156 1.3751,51.79708 6.5932,77.19849 6.19328,31.56938 17.46371,63.77213 40.24206,87.25171 19.85551,15.28778 47.94559,10.87831 68.23609,-1.14869 25.80759,-14.88035 42.47745,-41.36647 53.61009,-68.27903 12.68248,-32.14844 16.9579,-67.4267 13.78362,-101.75286 -1.89407,-14.14873 -18.28442,-16.0852 -29.71853,-14.71979 -12.17495,1.83508 -24.03985,-0.47386 -35.62343,-4.01426 -31.60396,-7.91766 -62.84432,-18.6268 -95.59927,-20.60549 z"
       id="path10" />
    <path
       style="display:inline;opacity:1;fill:none;fill-opacity:1;stroke:#1a1a1a;stroke-width:8.002;stroke-linecap:round;stroke-linejoin:round;stroke-dasharray:none;paint-order:stroke fill markers"
       d="m 362.59386,181.73379 c 18.81319,-4.56281 40.74457,-29.94528 56.34857,-23.0127 0.19313,22.16352 -34.26666,38.17579 -50.04732,39.76778 -2.8266,-5.28783 -1.50538,-12.5071 -6.30125,-16.75508 z"
       id="path11" />
  </g>
  <g
     id="layer4"
     style="display:none;opacity:0.201">
    <path
       d="m 0,0 c 3.5,0.25 3.5,0.25 5.5,2.25 0.25,3.5 0.25,3.5 0,7 -2,2 -2,2 -5.5,2.25 -3.5,-0.25 -3.5,-0.25 -5.5,-2.25 -0.25,-3.5 -0.25,-3.5 0,-7 2,-2 2,-2 5.5,-2.25 z"
       fill="#000000"
       id="path6"
       transform="translate(199.5,308.75)" />
    <path
       d="M 0,0 C 1.8125,1.125 1.8125,1.125 3,3 3.3931074,6.1448592 3.4755521,8.1328167 1.9375,10.9375 -1.1814245,12.647878 -3.655578,11.805139 -7,11 -8.3993501,8.2012997 -8.2526541,6.0950121 -8,3 -5.9053424,-0.30735407 -3.7595164,-0.56392746 0,0 Z"
       fill="#000000"
       id="path5"
       transform="translate(180,270)" />
    <path
       d="M 0,0 C 2,2 2,2 2.3125,4.9375 2,8 2,8 0.9375,9.9375 -2.1521273,11.631812 -4.6721742,10.739517 -8,10 -9,9 -9,9 -9.25,5.625 -9,2 -9,2 -7.875,0 -5.0112685,-1.5273234 -3.0469981,-0.84278671 0,0 Z"
       fill="#000000"
       id="path4"
       transform="translate(225,345)" />
    <path
       d="M 0,0 C 2,3 2,3 1.875,6.0625 1,9 1,9 -0.75,10.4375 -3.542377,11.135594 -5.2673161,10.862953 -8,10 -10,8 -10,8 -10.3125,5.0625 -10,2 -10,2 -8.9375,0.0625 -5.7843318,-1.6666568 -3.3749175,-0.8590699 0,0 Z"
       fill="#000000"
       id="path3"
       transform="translate(154,238)" />
    <path
       d="M 261.1875,7.5429687 C 280.97321,16.840576 288.10989,42.027311 288.44003,62.856949 295.62583,135.23804 302.83119,207.61721 310,280 c 19.32501,5.63544 17.3189,-22.63216 35,-23.99996 -22.28214,-7.65865 -26.25072,-39.17295 -9.42272,-54.54584 5.17291,-9.58694 39.59371,-12.67262 14.78278,-12.12701 -32.48339,-0.94388 -22.92329,-42.0242 -27.43809,-63.52336 -2.98263,-23.06605 -5.46635,-57.993048 23.97665,-64.212017 16.0111,-5.043089 42.01844,4.505717 39.2686,-21.2756 9.11685,-32.1669183 52.65637,-40.62430675 79.3313,-26.092266 C 492.97071,30.064522 493.07809,70.446902 476,94 c -13.22017,23.41368 12.76145,12.85329 25,13 6.50359,27.43994 -30.11937,48.97835 -53.76201,37.02958 C 416.23877,127.95534 439.92702,92.238366 438,67.75 c -18.40349,-8.012 -4.32529,-26.974073 7.97159,-10.480585 18.24465,21.602631 -10.33707,44.971545 -1.05362,67.859495 5.26391,23.92516 59.97624,-4.96124 28.97717,-2.87583 C 438.79132,105.82539 485.79732,71.177367 473.67356,44.868249 465.19175,9.3569423 403.40685,12.359775 397,48 383.50541,68.601897 433.14782,39.51587 421.26884,67.531577 413.8477,94.029914 420.91817,121.13767 426,147 c -14.51693,5.59117 -7.8197,37.09537 6.87863,18.84781 20.59495,-13.41772 48.23755,2.01837 53.39481,24.33969 -4.93527,19.91272 8.70419,39.13913 5.87503,60.55994 4.41151,18.21805 -1.69807,35.82867 15.33272,46.67866 9.63224,33.06484 -2.56649,67.57064 -10.03676,99.87466 -13.76166,47.40584 -48.60698,94.53137 -99.28745,104.73395 -23.13137,-2.28574 -39.1879,-23.58484 -54.42972,-39.20403 -20.73422,-19.13533 -16.68428,-52.83085 -41.85879,-67.0927 -23.86665,-19.18864 -23.6372,35.76313 -8.59821,44.62765 9.92389,4.78185 51.06079,9.44833 27.7249,19.16324 -6.5513,5.58247 21.1785,41.21694 -0.80571,43.33734 -11.33547,-13.32918 -4.94389,-43.73989 -24.73582,-48.12362 -24.72606,-5.26481 -27.07554,-35.96524 -23.78979,-56.41565 0.85455,-28.56478 36.42383,-20.68251 42.93382,-8.9871 -9.1998,-17.05825 10.36108,-52.87812 -18.99815,-45.53634 -14.12253,-1.93388 -28.24644,-6.86809 -23.8835,13.48416 -6.21,49.85581 -22.6383,100.17931 -54.66594,139.519 -20.68042,14.37593 -50.36433,7.13466 -70.21679,-5.92315 C 125.93696,482.44832 131.9404,458.5714 131.12986,445.9804 106.78697,416.59174 108.70862,375.9341 109,339.99999 91.50014,348.7291 92.05917,363.86517 85.55596,380.95821 70.48797,395.17353 63.83466,411.11556 74.79841,430.9978 80.99129,452.89486 100.83536,465.76535 122,469.99999 114.86022,493.85182 74.73531,465.35752 68.33942,447.69294 53.21098,432.44681 67.76762,394.57388 38.49179,408.6938 13.03175,410.78754 21.31272,379.45596 3,375.99999 3.81009,343.2796 22.58981,313.38555 18.04272,280.18871 c -6.26265,-26.64054 17.86976,-44.69207 25.98462,-66.22388 -1.20557,-17.2976 -3.58941,-69.01018 23.98438,-47.81064 11.49205,11.2517 22.17546,33.61031 25.17678,5.68487 3.35923,-28.76647 29.01105,-14.57178 31.76793,6.50707 11.8495,20.6747 -6.66732,43.83468 5.27398,64.03667 10.09698,18.66965 28.51091,22.27974 36.71449,-0.38489 18.94047,-22.85558 -53.81228,-27.27685 -22.5152,-40.10394 37.64563,10.35917 63.47165,44.92769 77.50773,79.79352 2.64528,12.47553 25.02619,43.77698 22.54102,14.51172 -2.51904,-20.10749 32.55978,-2.45331 20.10548,-26.24986 C 257.94692,196.9892 248.61363,124.19958 243.60767,51.134892 244.61579,36.582866 247.73221,14.814195 261.1875,7.5429687 Z M 262,24 C 246.98759,43.073171 258.03682,68.195072 258.04301,89.858796 264.86793,154.55109 270.4292,219.40094 278,284 c 36.26589,5.10757 11.55925,-41.92102 14.55496,-63.95225 C 286.17903,161.10971 281.92286,101.84935 274.37112,43.091276 272.16286,35.963818 268.29473,28.164805 262,24 Z m 127.71484,44.207031 c -17.12569,4.693729 -42.85745,-2.865652 -52.15446,15.665681 -6.41556,15.755416 -1.90005,28.064048 16.23031,18.700878 18.03668,-8.49434 32.35426,-2.15531 24.35035,18.72308 -7.44656,12.29566 -24.6973,12.36505 -17.5844,30.78341 -1.52819,15.75698 9.17047,15.92769 16.62814,15.1495 18.17805,-1.89684 27.21842,-26.86808 32.03442,-44.49889 4.91396,-17.98943 4.13095,-46.697526 -5.06432,-55.715823 -4.83091,0.150511 -9.63866,0.672863 -14.44004,1.192164 z m -30.78906,44.324219 c -21.18284,-0.28285 -28.78913,11.23651 -22.82185,31.23685 -2.74213,10.21342 6.69866,45.36966 14.67122,29.17738 2.63785,-18.59543 -11.60302,-49.23284 15.02983,-52.39276 7.14149,-8.05887 3.45295,-12.3562 -6.8792,-8.02147 z M 405,164 c -9.42883,10.97823 -36.82392,16.07844 -33,27.95085 3.82392,11.87241 32.39649,-16.45872 36.59326,-20.01359 C 412.79003,168.38239 408.74248,164.5706 405,164 Z m -299,6 c 1.36556,21.68095 -30.43871,37.14785 -15.5323,57.27848 17.60439,9.10169 26.63339,43.82588 9.53227,53.72152 -10.05496,-32.89433 -63.47252,-17.19237 -46.44714,15.63195 10.95816,12.85704 34.70409,12.4085 19.76585,34.73865 -2.43235,14.71082 -11.19117,46.02805 -3.45921,51.3464 16.63396,-15.63777 3.88971,-43.49237 30.30835,-49.84935 21.76929,-8.82297 6.32037,-42.84296 21.83217,-47.86765 9.83952,27.28832 -5.99752,57.44175 -1.11491,86.24055 1.63721,23.67899 4.03697,76.41225 36.65115,71.60992 28.45295,-12.1136 53.94846,-34.69122 65.46381,-63.85047 -32.83497,-13.12943 -43.06661,-48.93275 -57.37021,-77.68768 -11.3408,-7.52571 -11.4453,-33.79359 3.48139,-15.84799 12.23899,18.5034 47.86487,-20.71327 22.59439,-34.36498 -16.31914,-32.95552 -32.24394,50.32798 -55.83057,14.21315 C 115.97977,250.92152 108.82643,225.83989 117.17635,202.92635 117.58932,191.43329 113.39727,177.99538 106,170 Z m 310.5,25.25 c -17.0923,18.74436 4.92004,34.45948 18.33374,13.00686 7.5997,-13.00483 45.90821,-5.25273 36.43452,-21.92721 -10.28094,-21.79464 -37.55976,-13.33033 -49.1224,2.29785 -1.98679,2.11531 -3.8656,4.33104 -5.64586,6.6225 z M 59,176 c -2.97097,15.41795 -8.339,34.96557 7.42481,37.83887 -13.06417,17.18881 -37.984,32.76905 -36.45211,58.49316 2.89839,28.10205 -4.93307,55.03778 -11.91015,81.85547 -13.154,29.03381 40.30836,15.86517 40.74024,-5.1945 5.52501,-18.03513 9.6261,-33.19918 -10.64657,-40.8207 -19.5997,-20.40158 -2.99992,-59.54864 25.99773,-57.01901 11.21641,-0.23898 30.87403,13.81529 19.23967,-6.05578 C 70.35875,233.95552 78.37246,209.58864 75.16487,191.99491 70.29825,186.19105 66.10919,179.35366 59,176 Z m 310.59766,37.34375 c -20.02561,18.85447 -20.4625,57.05445 12.87449,58.7054 C 397.71314,290.40495 417.74853,242.82902 423,266 c -17.831,13.29378 -8.11329,16.20557 7.67028,17.0262 14.35196,1.22559 5.41577,-37.46613 -10.37251,-37.888 C 404.7526,230.00858 389.97914,206.57388 408,187 c -16.02679,2.29514 -27.04045,16.10025 -38.40234,26.34375 z M 346,207.69922 c -18.36782,4.9148 -2.56065,51.1748 1.28736,23.73395 C 347.48252,219.01396 377.46338,191.55465 346,207.69922 Z M 425,231 c 9.75983,17.23456 39.14012,2.20381 55,-1 0.81595,-30.63642 -31.28015,-24.75456 -45.89851,-7.8047 -3.21314,2.74154 -6.25763,5.68159 -9.10149,8.8047 z m 40.94922,14.09375 c -17.61895,0.26136 -27.78844,5.01547 -19.07008,23.60903 -7.39158,23.08963 32.72897,20.56573 37.24822,9.97099 -2.80645,-11.59038 2.28333,-42.24377 -18.17814,-33.58002 z M 339,273 c -21.07916,55.7976 -22.95799,123.24517 9.00234,175.51472 11.09045,13.38017 33.06172,45.23895 48.29826,34.59542 12.59206,-26.46884 9.69292,-57.00343 17.25317,-84.76168 19.60405,-3.55047 1.71229,34.65658 1.86583,48.11047 -3.56444,18.5719 -18.65346,54.62688 10.85333,31.46181 C 458.90173,458.02742 479.92607,422.64789 488,386 c -50.97715,7.5092 -104.31751,-1.58682 -150.00519,-25.00519 4.76512,-20.54532 37.77443,9.97617 55.88536,9.15621 16.51684,6.39006 26.92618,3.43374 24.7709,-15.75804 0.41977,-19.69367 9.22001,-44.94212 2.48035,-61.23037 -24.01298,-5.1629 -47.85811,-11.6649 -69.97963,-22.55955 C 347.06404,269.10301 342.22239,270.05547 339,273 Z m -132,8 c -10.92221,15.45811 -37.95713,20.45663 -19.3125,42.0625 11.58786,24.6027 48.21742,-20.38239 23.36147,-36.96521 C 212.50987,280.23931 209.46293,281.05174 207,281 Z m 95.37109,11.83984 c -11.99717,2.72132 -61.24992,-2.22751 -37.9856,15.81546 9.35248,8.08384 50.50936,-8.67832 36.14368,10.47662 -11.97528,-1.81696 -41.56599,7.4866 -16.50253,12.23201 16.58591,2.29896 37.46712,6.77801 33.19916,-17.80184 2.7398,-16.75277 9.15089,-26.50362 -14.85471,-20.72225 z M 436,295 c -4.58076,26.65379 -5.10309,54.12456 -9,81 21.26402,-0.0219 48.86849,7.31682 65.83565,-6.64921 -0.13014,-23.09955 14.60743,-57.20269 -4,-73.39665 C 471.22512,295.73367 453.58978,296.49694 436,295 Z m -183,20 c -6.6682,16.97098 -6.25432,36.94444 -13.69977,54.2186 -13.72724,41.89145 -48.18535,76.57906 -91.28851,87.64078 -18.64756,13.78748 12.6076,32.13566 26.98967,34.02405 24.12063,10.3072 43.62886,-7.97424 51.21703,-29.63855 21.99492,-41.7834 33.81559,-89.06942 36.67134,-135.95192 C 263.4904,319.88373 257.92882,315.27191 253,315 Z m -24,2 c -5.75187,18.44137 -46.20703,22.74817 -19.81924,40.90488 C 233.57992,386.70086 236.4339,340.98887 239,324 c -3.29908,-1.60565 -5.59573,-7.73347 -10,-7 z M 52.80469,375.02344 C 38.88608,377.46301 12.59598,383.8347 35.891,396.9027 53.74541,400.89734 58.84546,388.56567 56,374 Z"
       fill="#000000"
       id="path1" />
  </g>
  <path
     style="display:inline;opacity:1;fill:none;fill-opacity:1;stroke:#1a1a1a;stroke-width:8;stroke-linecap:round;stroke-linejoin:round;stroke-dasharray:none;paint-order:stroke fill markers"
     d="m 321,497 c -1.09303,-14.80949 -1.16388,-31.37339 -10.49407,-43.70643 -11.01369,-8.76118 -31.73011,-6.56679 -33.78684,-24.54192 C 272.53925,413.92076 271.27853,393.44425 286,384 c 11.73177,-3.23147 22.12217,9.02318 30,16"
     id="path17" />
  <path
     style="display:inline;opacity:1;fill:none;fill-opacity:1;stroke:#1a1a1a;stroke-width:8;stroke-linecap:round;stroke-linejoin:round;stroke-dasharray:none;paint-order:stroke fill markers"
     d="m 16,376 c 18.041116,-1.70442 39.650405,-3.94438 49.928636,-21.20115 7.982876,-11.0806 17.458118,-28.71749 5.574939,-40.36692 -10.572188,-12.09692 -28.036216,-20.98169 -30.304892,-38.23978 2.899985,-20.1129 28.83208,-14.52177 42.97712,-12.80556 8.427459,-0.39009 30.812687,10.09554 15.139029,-1.01458 C 91.045015,242.46348 84.801661,221.40406 82.014346,200.0054 L 82.250967,198.26331 83,198"
     id="path18" />
  <path
     style="opacity:1;fill:none;fill-opacity:1;stroke:#1a1a1a;stroke-width:8;stroke-linecap:round;stroke-linejoin:round;stroke-dasharray:none;paint-order:stroke fill markers"
     d="m 15,390 c 13,-1.33333 26,-2.66667 39,-4"
     id="path19" />
</svg>
