<?xml version="1.0" encoding="UTF-8"?>
<svg width="512" height="512" version="1.1" xmlns="http://www.w3.org/2000/svg">
 <g stroke="#1a1a1a" stroke-linecap="round" stroke-linejoin="round" stroke-width="8.002">
  <path d="m214.19 498.82c61.125 0.35803 124.99 23.013 184.05-2.1787 61.604-24.977 106.67-88.457 103.26-155.84-1.0267-38.367-11.444-75.788-15.202-113.79-5.3306-18.349 2.4413-59.538-27.951-53.445-19.392-0.29793-48.116 9.3168-39.618-20.608-0.94653-31.472-1.8931-62.944-2.8396-94.416 42.003-3.8504 17.982 47.459 23.58 70.296 10.215 30.558 61.874 0.0968 53.384-12.778-26.494 6.6386-31.376-22.66-14.404-37.357 15.025-25.406 2.5453-59.556-28.22-63.872-34.28-15.459-50.624 18.893-65.542 41.919-17.928 17.877-60.916 0.34878-58.214 38.426 0.91674 24.809 0.016 50.331 6.1488 74.544 8.5297 11.349 46.08 11.63 31.873 37.93-7.8424 27.231-11.181 59.405-38.589 75.049-29.323 11.052-20.148-31.482-24.249-48.406-6.6805-64.697-12.345-129.57-19.661-194.16-4.5355-28.378-37.994-24.417-34.211 5.1528 0.0344 30.947 7.3638 61.482 9.2772 92.412l16.41 144.51-27.085 4.3686c4.2027 14.918-11.2 43.161-19.714 15.49-20.08-37.646-41.62-82.96-86.641-94.799-30.528 4.0779-17.016-37.895-35.932-42.386-2.2409 14.718-16.248 46.38-27.075 18.327-14.371-25.71-37.761 2.4297-23.045 21.658-1.14 25.725-30.916 38.608-32.55 64.593-4.0188 34.106-11.729 68.485-14.588 102.23 7.5818 31.489 13.239 14.217 21.745 18.467 11.142 5.5672 24.844 12.788 36.444 8.2526 25.674-10.039 19.509-56.482 46.876-68.134 8.5197-9.6318 7.0552-46.023 3.3393-14.986-1.1852 85.368 0.37568 153.8 98.946 183.52z" fill="#fff" stroke-width="34.629" style="paint-order:stroke fill markers"/>
  <path d="m73.688 274.44c22.289 21.766-29.895 16.33 0 0z" stroke-width="15.002"/>
  <path d="m43 347c11.832 26.725-28.091-1.7682 0 0z" stroke-width="15.002"/>
  <g fill="none">
   <path d="m354.73 173.87c1.8732-22.554-2.275-47.542 20.962-60.203-2.1587-15.24-42.786-8.7121-44.955-0.27273 5.4482 20.734-4.1772 49.575 15.316 63.451 3.1669 0.33292 6.168-1.2438 8.6774-2.9759z" stroke-width="15.002" style="paint-order:stroke fill markers"/>
   <path d="m341.62 269.98c-16.657 8.6314-21.664 28.708-21.524 46.07 0.28153 25.852 1.3751 51.797 6.5932 77.198 6.1933 31.569 17.464 63.772 40.242 87.252 19.856 15.288 47.946 10.878 68.236-1.1487 25.808-14.88 42.477-41.366 53.61-68.279 12.682-32.148 16.958-67.427 13.784-101.75-1.8941-14.149-18.284-16.085-29.719-14.72-12.175 1.8351-24.04-0.47386-35.623-4.0143-31.604-7.9177-62.844-18.627-95.599-20.605z" stroke-width="15.002" style="paint-order:stroke fill markers"/>
   <path d="m364.87 191.98c17.876-4.5576 34.853-1.0173 54.447-21.036" stroke-width="23.086" style="paint-order:stroke fill markers"/>
  </g>
 </g>
 <g opacity=".201">
  <path transform="translate(199.5,308.75)" d="m0 0c3.5 0.25 3.5 0.25 5.5 2.25 0.25 3.5 0.25 3.5 0 7-2 2-2 2-5.5 2.25-3.5-0.25-3.5-0.25-5.5-2.25-0.25-3.5-0.25-3.5 0-7 2-2 2-2 5.5-2.25z" display="none"/>
  <path transform="translate(180,270)" d="m0 0c1.8125 1.125 1.8125 1.125 3 3 0.39311 3.1449 0.47555 5.1328-1.0625 7.9375-3.1189 1.7104-5.5931 0.86764-8.9375 0.0625-1.3994-2.7987-1.2527-4.905-1-8 2.0947-3.3074 4.2405-3.5639 8-3z" display="none"/>
  <path transform="translate(225,345)" d="M 0,0 C 2,2 2,2 2.3125,4.9375 2,8 2,8 0.9375,9.9375 -2.1521273,11.631812 -4.6721742,10.739517 -8,10 -9,9 -9,9 -9.25,5.625 -9,2 -9,2 -7.875,0 -5.0112685,-1.5273234 -3.0469981,-0.84278671 0,0 Z" display="none"/>
  <path transform="translate(154,238)" d="M 0,0 C 2,3 2,3 1.875,6.0625 1,9 1,9 -0.75,10.4375 -3.542377,11.135594 -5.2673161,10.862953 -8,10 -10,8 -10,8 -10.3125,5.0625 -10,2 -10,2 -8.9375,0.0625 -5.7843318,-1.6666568 -3.3749175,-0.8590699 0,0 Z" display="none"/>
  <path d="m261.19 7.543c19.786 9.2976 26.922 34.484 27.253 55.314 7.1858 72.381 14.391 144.76 21.56 217.14 19.325 5.6354 17.319-22.632 35-24-22.282-7.6586-26.251-39.173-9.4227-54.546 5.1729-9.5869 39.594-12.673 14.783-12.127-32.483-0.94388-22.923-42.024-27.438-63.523-2.9826-23.066-5.4664-57.993 23.977-64.212 16.011-5.0431 42.018 4.5057 39.269-21.276 9.1168-32.167 52.656-40.624 79.331-26.092 27.472 15.841 27.58 56.223 10.501 79.776-13.22 23.414 12.761 12.853 25 13 6.5036 27.44-30.119 48.978-53.762 37.03-30.999-16.074-7.311-51.791-9.238-76.28-18.403-8.012-4.3253-26.974 7.9716-10.481 18.245 21.603-10.337 44.972-1.0536 67.859 5.2639 23.925 59.976-4.9612 28.977-2.8758-35.104-16.428 11.902-51.076-0.22158-77.385-8.4818-35.511-70.267-32.508-76.674 3.1318-13.495 20.602 36.148-8.4841 24.269 19.532-7.4211 26.498-0.35067 53.606 4.7312 79.468-14.517 5.5912-7.8197 37.095 6.8786 18.848 20.595-13.418 48.238 2.0184 53.395 24.34-4.9353 19.913 8.7042 39.139 5.875 60.56 4.4115 18.218-1.6981 35.829 15.333 46.679 9.6322 33.065-2.5665 67.571-10.037 99.875-13.762 47.406-48.607 94.531-99.287 104.73-23.131-2.2857-39.188-23.585-54.43-39.204-20.734-19.135-16.684-52.831-41.859-67.093-23.867-19.189-23.637 35.763-8.5982 44.628 9.9239 4.7818 51.061 9.4483 27.725 19.163-6.5513 5.5825 21.178 41.217-0.80571 43.337-11.335-13.329-4.9439-43.74-24.736-48.124-24.726-5.2648-27.076-35.965-23.79-56.416 0.85455-28.565 36.424-20.683 42.934-8.9871-9.1998-17.058 10.361-52.878-18.998-45.536-14.123-1.9339-28.246-6.8681-23.884 13.484-6.21 49.856-22.638 100.18-54.666 139.52-20.68 14.376-50.364 7.1347-70.217-5.9232-20.896-8.4352-14.893-32.312-15.703-44.903-24.343-29.389-22.421-70.046-22.13-105.98-17.5 8.7291-16.941 23.865-23.444 40.958-15.068 14.215-21.721 30.157-10.758 50.04 6.1929 21.897 26.037 34.768 47.202 39.002-7.1398 23.852-47.265-4.6425-53.661-22.307-15.128-15.246-0.5718-53.119-29.848-38.999-25.46 2.0937-17.179-29.238-35.492-32.694 0.81009-32.72 19.59-62.614 15.043-95.811-6.2626-26.641 17.87-44.692 25.985-66.224-1.2056-17.298-3.5894-69.01 23.984-47.811 11.492 11.252 22.175 33.61 25.177 5.6849 3.3592-28.766 29.011-14.572 31.768 6.5071 11.85 20.675-6.6673 43.835 5.274 64.037 10.097 18.67 28.511 22.28 36.714-0.38489 18.94-22.856-53.812-27.277-22.515-40.104 37.646 10.359 63.472 44.928 77.508 79.794 2.6453 12.476 25.026 43.777 22.541 14.512-2.519-20.107 32.56-2.4533 20.105-26.25-6.637-72.96-15.97-145.75-20.976-218.81 1.0081-14.552 4.1245-36.321 17.58-43.592zm0.8125 16.457c-15.012 19.073-3.9632 44.195-3.957 65.859 6.8249 64.692 12.386 129.54 19.957 194.14 36.266 5.1076 11.559-41.921 14.555-63.952-6.3759-58.938-10.632-118.2-18.184-176.96-2.2083-7.1275-6.0764-14.926-12.371-19.091zm127.71 44.207c-17.126 4.6937-42.857-2.8657-52.154 15.666-6.4156 15.755-1.9 28.064 16.23 18.701 18.037-8.4943 32.354-2.1553 24.35 18.723-7.4466 12.296-24.697 12.365-17.584 30.783-1.5282 15.757 9.1705 15.928 16.628 15.15 18.178-1.8968 27.218-26.868 32.034-44.499 4.914-17.989 4.131-46.698-5.0643-55.716-4.8309 0.15051-9.6387 0.67286-14.44 1.1922zm-30.789 44.324c-21.183-0.28285-28.789 11.237-22.822 31.237-2.7421 10.213 6.6987 45.37 14.671 29.177 2.6378-18.595-11.603-49.233 15.03-52.393 7.1415-8.0589 3.453-12.356-6.8792-8.0215zm46.074 51.469c-9.4288 10.978-36.824 16.078-33 27.951s32.396-16.459 36.593-20.014 0.14922-7.3667-3.5933-7.9373zm-299 6c1.3656 21.681-30.439 37.148-15.532 57.278 17.604 9.1017 26.633 43.826 9.5323 53.722-10.055-32.894-63.473-17.192-46.447 15.632 10.958 12.857 34.704 12.408 19.766 34.739-2.4324 14.711-11.191 46.028-3.4592 51.346 16.634-15.638 3.8897-43.492 30.308-49.849 21.769-8.823 6.3204-42.843 21.832-47.868 9.8395 27.288-5.9975 57.442-1.1149 86.241 1.6372 23.679 4.037 76.412 36.651 71.61 28.453-12.114 53.948-34.691 65.464-63.85-32.835-13.129-43.067-48.933-57.37-77.688-11.341-7.5257-11.445-33.794 3.4814-15.848 12.239 18.503 47.865-20.713 22.594-34.365-16.319-32.956-32.244 50.328-55.831 14.213-19.895-14.391-27.049-39.473-18.699-62.386 0.41297-11.493-3.7791-24.931-11.176-32.926zm310.5 25.25c-17.092 18.744 4.92 34.459 18.334 13.007 7.5997-13.005 45.908-5.2527 36.435-21.927-10.281-21.795-37.56-13.33-49.122 2.2978-1.9868 2.1153-3.8656 4.331-5.6459 6.6225zm-357.5-19.25c-2.971 15.418-8.339 34.966 7.4248 37.839-13.064 17.189-37.984 32.769-36.452 58.493 2.8984 28.102-4.9331 55.038-11.91 81.855-13.154 29.034 40.308 15.865 40.74-5.1945 5.525-18.035 9.6261-33.199-10.647-40.821-19.6-20.402-2.9999-59.549 25.998-57.019 11.216-0.23898 30.874 13.815 19.24-6.0558-23.035-11.142-15.021-35.509-18.229-53.103-4.8666-5.8039-9.0557-12.641-16.165-15.995zm310.6 37.344c-20.026 18.854-20.462 57.054 12.874 58.705 15.241 18.356 35.276-29.22 40.528-6.0492-17.831 13.294-8.1133 16.206 7.6703 17.026 14.352 1.2256 5.4158-37.466-10.373-37.888-15.545-15.13-30.319-38.564-12.298-58.138-16.027 2.2951-27.04 16.1-38.402 26.344zm-23.598-5.6445c-18.368 4.9148-2.5606 51.175 1.2874 23.734 0.19516-12.419 30.176-39.879-1.2874-23.734zm79 23.301c9.7598 17.235 39.14 2.2038 55-1 0.81595-30.636-31.28-24.755-45.899-7.8047-3.2131 2.7415-6.2576 5.6816-9.1015 8.8047zm40.949 14.094c-17.619 0.26136-27.788 5.0155-19.07 23.609-7.3916 23.09 32.729 20.566 37.248 9.971-2.8064-11.59 2.2833-42.244-18.178-33.58zm-126.95 27.906c-21.079 55.798-22.958 123.25 9.0023 175.51 11.09 13.38 33.062 45.239 48.298 34.595 12.592-26.469 9.6929-57.003 17.253-84.762 19.604-3.5505 1.7123 34.657 1.8658 48.11-3.5644 18.572-18.653 54.627 10.853 31.462 32.629-19.893 53.653-55.273 61.727-91.921-50.977 7.5092-104.32-1.5868-150.01-25.005 4.7651-20.545 37.774 9.9762 55.885 9.1562 16.517 6.3901 26.926 3.4337 24.771-15.758 0.41977-19.694 9.22-44.942 2.4804-61.23-24.013-5.1629-47.858-11.665-69.98-22.56-4.0878-1.5-8.9294-0.54759-12.152 2.3969zm-132 8c-10.922 15.458-37.957 20.457-19.312 42.062 11.588 24.603 48.217-20.382 23.361-36.965 1.4609-5.858-1.586-5.0456-4.049-5.0973zm95.371 11.84c-11.997 2.7213-61.25-2.2275-37.986 15.815 9.3525 8.0838 50.509-8.6783 36.144 10.477-11.975-1.817-41.566 7.4866-16.503 12.232 16.586 2.299 37.467 6.778 33.199-17.802 2.7398-16.753 9.1509-26.504-14.855-20.722zm133.63 2.1602c-4.5808 26.654-5.1031 54.125-9 81 21.264-0.0219 48.868 7.3168 65.836-6.6492-0.13014-23.1 14.607-57.203-4-73.397-17.611-0.22047-35.246 0.5428-52.836-0.95414zm-183 20c-6.6682 16.971-6.2543 36.944-13.7 54.219-13.727 41.891-48.185 76.579-91.289 87.641-18.648 13.787 12.608 32.136 26.99 34.024 24.121 10.307 43.629-7.9742 51.217-29.639 21.995-41.783 33.816-89.069 36.671-135.95 0.60064-5.4092-4.9609-10.021-9.8898-10.293zm-24 2c-5.7519 18.441-46.207 22.748-19.819 40.905 24.399 28.796 27.253-16.916 29.819-33.905-3.2991-1.6056-5.5957-7.7335-10-7zm-176.2 58.023c-13.919 2.4396-40.209 8.8113-16.914 21.879 17.854 3.9946 22.954-8.337 20.109-22.903z" display="none"/>
 </g>
</svg>
