<?xml version="1.0" standalone="no"?>
<!DOCTYPE svg PUBLIC "-//W3C//DTD SVG 20010904//EN"
 "http://www.w3.org/TR/2001/REC-SVG-20010904/DTD/svg10.dtd">
<svg version="1.0" xmlns="http://www.w3.org/2000/svg"
 width="759.000000pt" height="846.000000pt" viewBox="0 0 759.000000 846.000000"
 preserveAspectRatio="xMidYMid meet">
<metadata>
Created by potrace 1.10, written by Peter Selinger 2001-2011
</metadata>
<g transform="translate(0.000000,846.000000) scale(0.100000,-0.100000)"
fill="#000000" stroke="none">
<path d="M4275 8127 c-92 -95 -137 -164 -191 -295 -24 -59 -25 -306 -1 -373
24 -68 27 -103 12 -130 -8 -13 -19 -36 -26 -51 -6 -16 -14 -28 -19 -28 -4 0
-10 -8 -14 -17 -3 -10 -15 -31 -26 -48 -11 -16 -24 -39 -30 -50 -6 -11 -19
-33 -30 -50 -11 -16 -24 -39 -30 -50 -6 -11 -19 -33 -30 -50 -11 -16 -23 -37
-27 -45 -4 -8 -19 -33 -33 -55 -14 -22 -30 -49 -37 -60 -16 -27 -124 -200
-145 -233 -10 -15 -22 -36 -28 -47 -17 -32 -32 -55 -92 -147 -32 -48 -58 -89
-58 -92 0 -3 -13 -24 -29 -48 -15 -24 -39 -62 -52 -85 -23 -40 -99 -162 -129
-208 -8 -13 -33 -53 -55 -89 -21 -36 -44 -66 -50 -66 -6 0 -23 12 -38 28 -14
15 -43 35 -64 46 -21 10 -46 22 -56 28 -87 44 -262 67 -387 49 -117 -16 -177
-34 -263 -77 -40 -20 -248 -19 -341 2 -117 26 -209 77 -304 172 -46 45 -85 82
-88 82 -2 0 -4 -47 -4 -105 0 -109 3 -119 61 -241 71 -147 191 -221 377 -231
112 -6 115 -9 85 -66 -13 -25 -16 -60 -16 -164 1 -72 4 -136 7 -142 4 -6 16
-5 34 4 15 8 47 23 72 34 84 36 352 164 380 181 8 5 49 25 90 45 41 20 83 40
93 46 39 21 55 29 127 64 41 20 82 40 90 46 8 5 22 12 30 15 8 3 41 19 73 35
31 16 64 29 71 29 45 0 134 105 216 255 12 22 30 54 41 70 10 17 22 37 26 45
4 8 25 41 47 75 23 33 45 68 51 77 49 82 101 164 107 166 5 2 8 9 8 16 0 7 13
31 28 52 16 21 31 46 35 54 9 18 22 39 60 98 15 23 38 61 50 83 28 52 35 62
82 134 46 70 61 94 72 115 4 8 25 42 48 75 23 34 44 67 48 75 4 8 16 29 27 45
11 17 24 40 30 53 5 12 12 22 15 22 14 0 45 -22 45 -31 0 -6 14 -31 30 -56 17
-24 30 -46 30 -49 0 -10 50 -64 185 -199 138 -137 166 -164 282 -260 106 -87
329 -317 401 -412 34 -45 62 -84 62 -87 0 -3 20 -34 45 -70 25 -37 45 -72 45
-80 0 -7 7 -19 15 -26 8 -7 15 -20 15 -29 0 -9 4 -21 9 -27 5 -5 19 -34 31
-64 12 -30 28 -68 35 -85 15 -35 33 -88 45 -130 5 -16 16 -52 24 -80 9 -27 20
-69 26 -92 5 -24 15 -62 20 -85 20 -82 42 -274 48 -428 l7 -155 185 -5 c102
-3 188 -4 193 -2 10 5 9 226 -3 297 -5 34 -14 106 -20 160 -15 156 -68 385
-106 458 -7 16 -14 37 -14 47 0 16 -12 46 -71 180 -65 146 -185 353 -216 373
-7 4 -13 13 -13 20 0 15 -201 251 -283 332 -34 33 -111 106 -172 160 -60 55
-115 104 -121 110 -6 5 -35 30 -65 55 -315 265 -456 456 -474 645 -4 44 -11
199 -14 345 -5 224 -8 265 -21 267 -8 2 -47 -30 -85 -70z"/>
<path d="M3195 5433 c-16 -9 -37 -20 -45 -25 -8 -4 -22 -11 -30 -14 -33 -14
-160 -78 -245 -125 -49 -26 -178 -92 -285 -145 -282 -138 -278 -136 -273 -151
3 -7 36 -33 73 -58 38 -25 80 -60 95 -78 54 -69 65 -75 134 -83 130 -14 267 5
341 47 8 5 29 16 47 24 17 9 60 47 95 83 57 61 87 109 145 237 8 19 14 78 16
165 2 128 1 135 -18 137 -11 2 -33 -5 -50 -14z"/>
<path d="M6233 4794 c-3 -9 -1 -24 5 -33 7 -9 17 -26 22 -39 21 -49 63 -138
71 -152 5 -8 13 -25 19 -37 5 -13 16 -23 24 -23 28 0 30 -23 4 -44 -14 -12
-41 -55 -60 -96 -98 -205 -99 -210 -74 -210 8 0 27 6 43 14 15 8 44 21 63 29
19 9 67 30 105 47 39 17 85 38 103 46 17 8 47 20 65 28 17 8 64 29 102 46 39
17 84 37 100 44 17 7 41 18 55 24 14 7 37 16 53 22 15 5 27 13 27 18 0 8 -65
43 -132 72 -13 5 -30 14 -38 19 -8 6 -42 22 -75 36 -33 15 -80 36 -105 47 -25
12 -58 26 -75 33 -16 7 -46 19 -65 27 -19 9 -71 30 -115 48 -44 17 -88 36 -98
41 -13 7 -19 5 -24 -7z"/>
<path d="M946 4793 c-35 -4 -83 -29 -126 -65 -9 -7 -31 -38 -50 -68 -33 -53
-34 -58 -33 -155 1 -80 5 -109 22 -147 23 -51 112 -154 145 -169 12 -5 41 -21
66 -35 44 -24 154 -67 215 -83 17 -5 41 -13 55 -19 14 -5 54 -18 90 -27 36 -9
76 -21 90 -27 14 -5 45 -14 70 -18 25 -5 58 -12 73 -16 27 -6 28 -5 21 22 -12
53 -45 149 -55 159 -5 5 -9 21 -9 35 0 14 -6 34 -13 45 -7 11 -21 47 -32 80
-10 33 -23 66 -28 72 -5 7 -6 20 -3 29 6 16 35 17 357 11 403 -7 419 -5 485
60 32 33 43 53 48 87 14 91 -18 162 -93 208 l-36 23 -610 1 c-335 1 -627 -1
-649 -3z"/>
<path d="M2593 4490 c-13 -5 -23 -16 -23 -24 0 -46 -117 -187 -185 -224 -82
-44 -95 -46 -345 -52 l-245 -5 1 -35 c2 -42 21 -115 40 -152 8 -14 14 -33 14
-41 0 -14 48 -135 76 -190 8 -16 14 -35 14 -44 0 -8 6 -27 14 -41 8 -15 22
-47 31 -72 9 -25 23 -60 31 -78 8 -18 14 -38 14 -45 0 -14 85 -230 107 -272
32 -60 35 -61 140 -60 220 4 316 16 453 57 38 11 116 44 140 59 8 5 22 12 30
16 33 14 138 100 201 162 67 68 159 192 159 215 0 8 6 19 14 25 8 6 16 22 19
34 3 12 17 53 31 91 14 38 26 80 26 93 0 13 7 34 15 47 13 19 15 64 13 282
l-3 259 -380 2 c-210 1 -390 -2 -402 -7z"/>
<path d="M3643 4493 c-10 -3 -13 -60 -13 -237 0 -193 3 -235 16 -254 l15 -22
951 0 c918 0 953 1 1033 20 46 11 107 32 135 47 101 52 187 159 211 262 23 96
30 163 18 177 -10 12 -192 14 -1183 13 -644 0 -1177 -3 -1183 -6z"/>
<path d="M5830 3810 c-75 -37 -138 -57 -215 -69 -40 -6 -40 -6 -57 -71 -9 -36
-16 -78 -17 -93 -1 -16 -6 -37 -11 -48 -6 -10 -15 -38 -19 -61 -5 -24 -26 -88
-46 -143 -20 -55 -40 -113 -45 -130 -7 -28 -54 -122 -135 -272 -36 -68 -72
-122 -90 -138 -6 -5 -26 -32 -45 -60 -86 -127 -263 -298 -450 -435 -33 -25
-70 -53 -80 -63 -11 -9 -23 -17 -26 -17 -26 0 -274 -239 -345 -332 -33 -42
-59 -81 -59 -87 0 -14 -16 -22 -32 -16 -7 3 -25 27 -38 53 -14 25 -31 53 -37
60 -7 7 -13 17 -13 22 0 5 -12 26 -26 47 -14 21 -30 47 -35 58 -5 11 -18 34
-28 50 -20 31 -44 72 -77 135 -11 19 -25 39 -31 43 -7 4 -13 13 -13 20 0 7
-20 43 -45 80 -25 38 -45 71 -45 74 0 3 -18 35 -40 70 -23 35 -45 74 -51 86
-5 12 -18 36 -29 52 -11 17 -31 53 -45 80 -14 28 -35 64 -45 80 -11 17 -24 39
-30 50 -5 11 -26 47 -45 80 -19 33 -38 67 -42 75 -4 8 -20 34 -35 56 -15 23
-28 45 -28 48 0 3 -20 35 -45 72 -25 36 -45 69 -45 75 0 18 -21 8 -50 -23 -39
-43 -39 -57 2 -128 4 -8 11 -22 14 -30 3 -8 10 -22 15 -30 5 -8 15 -28 23 -45
8 -16 28 -52 45 -80 16 -27 42 -72 57 -100 48 -88 55 -99 74 -130 10 -16 28
-48 40 -70 12 -22 34 -58 49 -80 15 -22 30 -47 34 -55 4 -8 16 -28 27 -45 11
-16 24 -39 30 -50 6 -11 16 -29 23 -40 51 -83 63 -103 75 -120 6 -11 17 -29
22 -40 6 -11 24 -42 41 -70 16 -27 37 -63 45 -80 8 -16 23 -43 34 -60 11 -16
24 -39 29 -50 5 -11 20 -36 33 -55 13 -19 27 -42 31 -50 4 -8 16 -28 27 -45
11 -16 23 -37 27 -45 3 -8 9 -17 12 -20 3 -3 17 -20 30 -39 22 -31 23 -37 11
-65 -20 -48 -25 -106 -9 -107 8 0 77 0 154 1 140 1 165 7 165 39 0 23 78 136
136 197 50 52 185 160 335 269 236 170 476 397 606 573 26 34 50 62 55 62 4 0
8 5 8 11 0 6 14 28 30 49 17 21 30 40 30 43 0 3 13 25 29 49 16 24 39 61 50
83 12 22 26 47 31 55 8 14 37 77 79 175 41 93 111 326 111 365 0 15 6 45 14
66 7 22 16 93 20 159 3 66 9 130 12 143 5 18 3 22 -17 21 -13 -1 -58 -19 -99
-39z"/>
<path d="M2162 2902 c-22 -22 -146 -209 -178 -267 -11 -22 -34 -62 -49 -89
-15 -27 -42 -77 -59 -110 -18 -34 -44 -80 -59 -104 -15 -23 -37 -61 -48 -82
-12 -22 -25 -43 -30 -46 -5 -3 -9 -11 -9 -19 0 -8 -13 -33 -29 -57 -33 -50
-69 -113 -106 -183 -14 -27 -34 -63 -45 -80 -10 -16 -30 -50 -43 -75 -14 -25
-34 -61 -46 -80 -11 -19 -25 -44 -30 -56 -5 -12 -23 -44 -40 -71 -56 -91 -117
-83 633 -83 596 0 664 2 670 16 8 20 8 1368 0 1388 -5 14 -38 16 -260 16 -232
0 -256 -2 -272 -18z"/>
<path d="M901 1174 c-35 -47 -69 -91 -75 -97 -45 -46 -146 -168 -146 -177 0
-7 652 -10 2105 -10 1677 0 2105 3 2105 13 0 6 -32 46 -71 87 -103 109 -188
205 -207 231 -9 13 -21 27 -26 31 -6 4 -823 8 -1816 8 l-1806 0 -63 -86z"/>
</g>
</svg>
