<?xml version="1.0" standalone="no"?>
<!DOCTYPE svg PUBLIC "-//W3C//DTD SVG 20010904//EN"
 "http://www.w3.org/TR/2001/REC-SVG-20010904/DTD/svg10.dtd">
<svg version="1.0" xmlns="http://www.w3.org/2000/svg"
 width="2080.000000pt" height="2048.000000pt" viewBox="0 0 2080.000000 2048.000000"
 preserveAspectRatio="xMidYMid meet">

<g transform="translate(0.000000,2048.000000) scale(0.100000,-0.100000)"
fill="#000000" stroke="none">
<path d="M9455 20463 c-79 -41 -325 -217 -392 -280 -17 -17 -62 -56 -99 -88
-77 -65 -338 -341 -429 -454 -123 -151 -225 -289 -289 -388 -25 -40 -66 -104
-90 -141 -24 -38 -56 -93 -71 -122 -15 -30 -35 -65 -45 -80 -10 -14 -39 -58
-65 -97 l-47 -73 -331 0 c-183 0 -337 4 -343 8 -14 10 -60 77 -134 197 -64
103 -76 121 -186 265 -36 47 -90 119 -121 160 -213 281 -485 574 -653 702
-155 118 -177 133 -286 190 -174 91 -337 138 -484 138 -64 0 -197 -23 -257
-44 -105 -38 -268 -146 -337 -224 -102 -115 -116 -162 -127 -422 -27 -645 -23
-827 22 -1095 41 -239 87 -388 184 -592 97 -204 95 -180 41 -346 -73 -225
-239 -538 -438 -821 -82 -118 -153 -212 -169 -226 -3 -3 -29 -36 -59 -75 -29
-38 -78 -99 -109 -135 -65 -75 -55 -64 -148 -166 -147 -162 -182 -208 -270
-357 -49 -84 -98 -168 -109 -187 -10 -19 -58 -100 -105 -180 -47 -80 -112
-191 -145 -248 -32 -57 -107 -185 -166 -284 -60 -100 -108 -183 -108 -185 0
-2 -13 -24 -30 -48 -16 -24 -30 -46 -30 -49 0 -2 -22 -43 -50 -91 -28 -48 -50
-89 -50 -91 0 -3 -13 -25 -30 -49 -16 -24 -30 -46 -30 -48 0 -5 -229 -405
-250 -437 -6 -8 -14 -25 -20 -37 -5 -12 -21 -41 -36 -65 -15 -24 -41 -68 -57
-98 -17 -30 -41 -75 -55 -100 -14 -25 -34 -61 -44 -80 -10 -19 -30 -55 -44
-80 -14 -25 -46 -85 -72 -135 -25 -49 -48 -92 -51 -95 -8 -7 -26 -38 -84 -150
-28 -52 -53 -97 -56 -100 -3 -3 -17 -25 -29 -50 -66 -126 -77 -145 -83 -150
-4 -3 -10 -17 -14 -32 -4 -15 -13 -32 -21 -39 -8 -6 -14 -18 -14 -26 0 -7 -8
-22 -17 -33 -10 -11 -36 -54 -58 -97 -22 -43 -42 -80 -45 -83 -3 -3 -21 -36
-39 -75 -19 -38 -37 -72 -40 -75 -6 -5 -70 -125 -115 -215 -11 -22 -22 -42
-25 -45 -3 -3 -26 -43 -50 -90 -24 -47 -56 -107 -71 -135 -29 -52 -132 -251
-277 -535 -47 -91 -100 -194 -118 -230 -69 -133 -280 -573 -388 -810 -14 -30
-50 -108 -81 -172 -31 -65 -56 -120 -56 -123 0 -2 -18 -42 -40 -89 -22 -46
-40 -91 -40 -100 0 -9 -4 -16 -9 -16 -5 0 -15 -17 -22 -37 -6 -21 -15 -42 -19
-48 -4 -5 -24 -57 -45 -115 -21 -58 -42 -110 -47 -116 -4 -6 -14 -28 -22 -50
-7 -21 -23 -59 -34 -84 -11 -25 -32 -81 -47 -125 -15 -44 -33 -93 -40 -110
-20 -48 -33 -88 -40 -122 -4 -18 -10 -33 -15 -33 -4 0 -10 -15 -13 -33 -2 -17
-16 -72 -30 -122 -67 -244 -82 -413 -68 -764 11 -292 23 -424 62 -716 37 -267
139 -605 263 -868 23 -51 49 -107 56 -124 7 -18 16 -33 21 -33 5 0 9 -5 9 -12
0 -14 76 -129 145 -218 85 -111 212 -245 294 -310 24 -19 50 -41 57 -47 7 -7
15 -13 18 -13 6 0 99 -62 106 -71 12 -16 202 -118 268 -145 48 -19 74 -36 78
-49 7 -21 108 -226 145 -291 107 -192 246 -417 269 -434 4 -3 25 -32 48 -65
22 -33 52 -73 66 -88 13 -16 40 -47 58 -70 74 -91 103 -124 167 -191 113 -118
214 -217 261 -255 25 -20 62 -51 82 -70 21 -19 50 -42 66 -52 15 -10 54 -39
87 -64 33 -25 78 -57 100 -71 22 -14 56 -36 75 -49 145 -95 465 -262 685 -358
83 -36 178 -79 213 -96 62 -31 114 -43 120 -28 1 4 -53 119 -120 255 -68 136
-132 267 -142 292 -43 104 -62 147 -125 279 -12 25 -21 48 -21 52 0 5 -20 50
-44 101 -91 191 -206 532 -271 806 -15 63 -25 116 -22 118 2 3 17 -12 33 -32
16 -21 37 -44 46 -53 10 -8 18 -19 18 -24 0 -5 27 -41 60 -81 33 -39 72 -86
88 -105 86 -107 424 -432 547 -526 184 -142 256 -195 305 -226 126 -81 140
-89 146 -89 3 0 31 -15 62 -33 31 -18 80 -42 107 -54 28 -12 84 -37 125 -56
41 -19 102 -44 135 -57 33 -12 69 -26 80 -31 35 -15 168 -61 220 -76 109 -31
252 -70 325 -89 81 -22 394 -84 398 -80 5 6 -20 46 -51 81 -15 18 -49 61 -75
97 -40 55 -125 170 -150 203 -4 6 -34 51 -68 100 -33 50 -76 113 -95 140 -94
133 -130 188 -185 278 -32 54 -65 110 -73 125 -8 15 -53 92 -100 172 -47 80
-88 149 -90 155 -2 5 -23 49 -47 97 -53 106 -56 133 -13 156 56 31 184 150
281 263 90 104 123 146 311 399 105 140 193 257 196 260 3 3 25 30 47 60 38
50 53 68 115 136 10 12 19 25 19 29 0 4 8 15 18 24 10 9 25 26 33 38 54 79
445 481 532 547 26 20 62 50 80 67 17 17 66 56 107 87 41 31 81 62 88 69 7 7
17 13 21 13 5 0 19 10 33 23 46 41 144 109 297 209 31 20 63 42 71 50 8 8 44
34 80 58 125 83 255 174 265 186 6 6 31 23 57 37 26 15 53 33 60 40 7 6 47 34
88 62 41 27 81 55 88 62 7 7 17 13 20 13 4 0 18 10 32 23 14 13 46 37 72 55
25 18 52 38 60 45 7 7 27 22 43 33 44 28 115 82 152 115 18 16 36 29 39 29 4
0 40 27 81 60 40 33 75 60 78 60 3 0 13 6 22 14 92 74 192 152 258 203 44 33
98 78 120 98 22 21 58 49 79 63 22 13 57 40 78 60 21 19 55 46 75 60 21 14 43
31 49 36 6 6 55 47 109 91 100 82 360 310 405 355 14 14 50 45 80 70 30 25 74
63 97 85 23 22 59 55 80 74 248 224 779 740 901 876 35 39 44 32 37 -27 -3
-29 -10 -100 -15 -158 -21 -250 -39 -433 -45 -460 -4 -16 -15 -91 -26 -167
-16 -119 -32 -211 -68 -388 -5 -22 -28 -119 -51 -215 -23 -96 -47 -196 -53
-222 -6 -27 -15 -48 -19 -48 -4 0 -8 -8 -8 -17 0 -18 -44 -168 -60 -208 -5
-11 -25 -74 -45 -140 -20 -66 -43 -133 -50 -150 -7 -16 -20 -50 -30 -75 -9
-25 -23 -58 -30 -75 -8 -16 -32 -75 -55 -130 -44 -104 -207 -438 -240 -490
-37 -59 -90 -156 -90 -165 0 -6 -3 -10 -7 -10 -5 0 -26 -32 -47 -70 -22 -39
-43 -70 -48 -70 -4 0 -8 -5 -8 -11 0 -6 -30 -56 -67 -111 -38 -55 -72 -107
-78 -116 -5 -9 -50 -70 -100 -135 -49 -65 -97 -128 -105 -140 -17 -26 -33 -45
-161 -198 -53 -63 -110 -129 -128 -148 -17 -18 -43 -47 -57 -65 -83 -99 -567
-592 -825 -840 -542 -522 -886 -869 -1056 -1065 -21 -25 -59 -68 -84 -95 -225
-250 -533 -672 -694 -951 -66 -113 -186 -348 -229 -445 -16 -36 -48 -106 -72
-156 -24 -51 -44 -96 -44 -100 -1 -5 -9 -27 -20 -49 -11 -22 -19 -46 -20 -53
0 -7 -4 -20 -10 -30 -10 -17 -54 -142 -71 -197 -115 -394 -180 -669 -209 -890
-6 -49 -15 -108 -20 -130 -26 -121 -66 -779 -54 -905 13 -158 47 -239 118
-288 l32 -22 7493 2 7493 3 18 70 c28 113 34 421 34 1760 0 1504 -20 2339 -74
3005 -5 69 -14 197 -20 285 -6 88 -15 212 -20 275 -5 63 -14 176 -20 250 -5
74 -14 178 -19 230 -5 52 -16 169 -25 260 -30 314 -37 385 -46 470 -5 47 -12
117 -15 155 -10 113 -42 359 -65 505 -12 74 -26 162 -31 195 -66 459 -129 859
-148 955 -10 46 -15 77 -52 280 -42 240 -71 388 -95 490 -37 160 -51 226 -74
340 -12 58 -25 112 -30 121 -4 9 -14 50 -21 92 -7 43 -17 77 -21 77 -4 0 -8 9
-8 19 0 10 -13 70 -29 132 -15 63 -36 150 -46 194 -9 44 -35 150 -57 235 -22
85 -47 182 -55 215 -9 33 -19 64 -24 70 -5 5 -9 16 -9 26 0 33 -216 758 -231
774 -5 5 -9 15 -9 23 0 8 -7 28 -15 45 -8 18 -25 66 -39 107 -13 41 -45 131
-71 200 -26 69 -54 143 -62 165 -8 22 -20 54 -28 70 -7 17 -31 77 -53 135 -64
170 -172 424 -259 610 -25 52 -54 117 -64 144 -21 53 -96 205 -109 221 -4 6
-18 35 -31 65 -13 30 -45 95 -72 145 -27 49 -84 157 -127 240 -42 82 -95 182
-117 220 -22 39 -50 88 -62 110 -13 22 -52 87 -88 145 -35 58 -69 114 -76 125
-109 183 -379 573 -547 790 -47 61 -94 122 -105 136 -37 49 -157 194 -194 234
-20 22 -56 65 -79 95 -172 219 -776 809 -1092 1066 -183 148 -417 323 -553
413 -24 16 -177 115 -267 173 -325 208 -817 474 -1145 618 -352 154 -418 181
-540 223 -55 19 -158 56 -230 81 -247 88 -576 191 -770 242 -77 20 -174 45
-215 56 -325 85 -803 179 -1343 262 -191 30 -349 55 -351 57 -2 2 -11 98 -20
213 -28 343 -88 647 -187 950 -34 103 -122 276 -178 351 -59 78 -167 190 -220
229 l-49 36 -353 0 c-303 -1 -358 -3 -384 -17z m-741 -4526 c-2 -45 -52 -150
-94 -194 -16 -18 -30 -34 -30 -38 0 -11 -57 -83 -163 -207 -162 -189 -182
-224 -222 -398 -60 -255 -164 -615 -205 -705 -164 -362 -294 -544 -545 -765
-61 -53 -310 -218 -342 -226 -13 -4 -23 -10 -23 -14 0 -4 -12 -11 -27 -15 -15
-3 -50 -17 -78 -29 -27 -13 -102 -40 -165 -61 -63 -21 -124 -42 -135 -46 -11
-4 -60 -16 -110 -27 -83 -19 -116 -25 -272 -52 -32 -5 -128 -17 -213 -25 -85
-8 -177 -20 -205 -25 -27 -6 -81 -15 -118 -20 -38 -6 -88 -19 -112 -30 -24
-11 -47 -20 -52 -20 -17 0 -113 -44 -113 -52 0 -4 -5 -8 -10 -8 -14 0 -180
-95 -212 -122 -15 -13 -60 -48 -100 -78 -74 -56 -207 -182 -267 -255 -19 -22
-59 -67 -90 -101 -66 -72 -137 -153 -180 -209 -17 -22 -51 -66 -76 -97 -24
-31 -113 -148 -197 -260 -84 -112 -155 -205 -158 -208 -4 -3 -11 -12 -16 -21
-5 -9 -21 -32 -36 -50 -84 -104 -316 -404 -413 -535 -22 -29 -61 -82 -88 -116
-26 -35 -50 -68 -55 -73 -13 -18 -136 -170 -142 -175 -3 -3 -48 -57 -100 -120
-52 -63 -108 -127 -124 -144 -27 -28 -28 -28 -21 -5 13 46 75 200 95 237 11
20 20 40 20 45 0 8 77 165 122 247 84 155 113 205 120 208 4 2 8 9 8 15 1 7
21 44 45 82 25 39 50 80 55 93 6 13 30 52 55 86 24 34 49 73 55 87 11 27 32
61 41 69 8 7 79 109 79 114 0 2 19 31 43 65 23 34 49 74 58 90 8 15 29 46 45
67 17 21 56 79 88 128 32 49 67 98 77 110 11 11 19 25 19 32 0 7 4 14 9 16 4
2 55 70 112 151 57 82 114 163 127 180 12 18 36 52 52 77 38 57 94 133 129
176 4 5 14 21 21 35 7 13 19 29 25 34 19 16 145 202 145 214 0 6 4 11 8 11 5
0 16 15 26 33 9 17 22 41 29 52 111 186 137 233 167 305 17 41 34 82 39 90 4
8 27 87 51 175 48 181 77 272 127 395 36 88 126 284 143 310 6 8 16 26 22 40
14 28 85 144 144 236 93 142 241 303 371 401 143 108 223 163 318 220 56 33
159 83 172 83 5 0 14 5 20 11 16 16 93 43 249 89 181 53 361 89 684 136 130
18 328 53 370 64 19 5 46 11 60 14 76 15 254 58 310 75 36 11 92 27 125 36 56
16 106 32 278 91 38 13 76 28 85 34 9 5 28 9 42 7 22 -2 25 -6 24 -40z m831
-1864 c-39 -207 -76 -369 -100 -431 -7 -20 -25 -77 -40 -127 -14 -49 -40 -126
-56 -170 -17 -44 -33 -90 -36 -102 -3 -13 -9 -23 -14 -23 -5 0 -9 -7 -9 -15 0
-27 -178 -379 -257 -507 -94 -152 -197 -305 -252 -373 -22 -27 -48 -65 -58
-82 -9 -18 -20 -33 -24 -33 -3 0 -18 -17 -32 -38 -13 -21 -43 -60 -66 -88 -23
-27 -45 -54 -49 -59 -4 -6 -30 -38 -58 -70 -28 -33 -59 -71 -70 -85 -29 -37
-188 -202 -284 -295 -84 -82 -119 -111 -321 -273 -112 -89 -112 -89 -149 -114
-14 -9 -47 -33 -75 -53 -27 -19 -72 -51 -100 -69 -27 -19 -60 -44 -72 -55 -12
-12 -25 -21 -29 -21 -3 0 -43 -26 -87 -57 -80 -57 -119 -81 -164 -105 -13 -6
-23 -15 -23 -20 0 -4 -6 -8 -13 -8 -12 0 -158 -91 -272 -170 -158 -109 -252
-171 -267 -176 -10 -4 -18 -10 -18 -15 0 -5 -12 -15 -27 -23 -16 -8 -37 -23
-48 -33 -19 -17 -80 -64 -141 -108 -15 -11 -32 -25 -38 -30 -6 -6 -49 -42 -96
-80 -252 -205 -524 -473 -801 -791 -90 -103 -148 -170 -171 -197 -12 -16 -32
-38 -43 -51 -11 -12 -40 -47 -65 -77 -25 -29 -47 -56 -50 -59 -3 -3 -16 -18
-28 -34 -12 -15 -49 -59 -82 -96 -33 -37 -70 -81 -82 -96 -12 -16 -32 -40 -45
-54 -13 -14 -44 -52 -69 -85 -25 -32 -65 -81 -90 -108 -24 -27 -44 -52 -44
-55 0 -4 -17 -26 -38 -50 -20 -23 -46 -54 -57 -68 -11 -13 -35 -41 -53 -62
-18 -20 -50 -57 -70 -82 -20 -25 -41 -50 -47 -57 -5 -6 -32 -37 -60 -70 -67
-78 -200 -209 -248 -244 -32 -23 -42 -26 -62 -17 -94 43 -19 286 170 553 7 11
59 85 114 165 55 80 104 150 109 156 5 5 47 66 93 135 46 68 86 126 89 129 3
3 19 26 35 52 17 27 33 48 38 48 4 0 7 4 7 10 0 11 19 39 120 178 41 57 80
111 85 120 6 9 15 21 21 27 6 5 22 26 35 45 13 19 28 40 34 46 5 6 17 22 25
34 8 13 22 30 31 39 9 9 33 39 54 66 20 28 51 66 69 85 17 19 49 58 71 85 125
156 388 423 645 655 42 38 289 237 414 333 15 12 38 30 50 39 11 10 50 39 86
64 36 26 82 60 102 76 20 15 40 28 43 28 3 0 51 34 105 75 54 41 104 75 109
75 6 0 14 6 18 13 4 7 22 21 38 31 17 11 34 25 38 33 4 7 14 13 22 13 7 0 15
4 17 8 2 5 35 29 73 55 104 68 302 211 359 259 6 4 29 22 51 38 58 43 106 83
124 103 8 9 21 17 28 17 7 0 13 3 13 8 0 4 17 18 37 32 30 20 199 159 249 205
6 5 36 30 65 55 30 25 81 69 114 99 84 76 473 468 512 516 193 239 348 442
383 500 13 22 27 42 30 45 9 7 110 158 110 164 0 3 13 24 28 48 113 170 123
186 149 238 9 19 22 42 29 50 6 8 26 42 44 75 19 33 43 78 56 100 12 22 34 66
49 97 15 31 42 85 61 120 19 35 53 102 77 150 24 49 46 83 51 78 5 -5 -7 -92
-29 -207z m-6934 -4552 c119 -38 230 -164 271 -306 22 -77 24 -285 4 -347 -8
-24 -16 -54 -20 -68 -9 -41 -97 -182 -136 -220 -72 -70 -106 -97 -154 -123
-27 -15 -50 -26 -52 -24 -1 1 -8 52 -14 112 -19 186 -75 269 -199 296 -89 19
-182 -8 -267 -77 -41 -34 -105 -112 -130 -159 -18 -35 -39 -70 -44 -75 -11
-11 -60 -121 -60 -134 0 -8 -3 -16 -8 -18 -8 -3 -52 -135 -52 -155 0 -7 -4
-13 -8 -13 -9 0 -29 -67 -39 -127 -3 -18 -9 -33 -13 -33 -4 0 -10 -17 -13 -37
-11 -70 -19 -103 -27 -103 -5 0 -14 -23 -21 -50 -7 -28 -18 -49 -23 -47 -23 8
-73 268 -81 422 -8 147 17 366 57 495 20 66 26 81 72 183 14 32 26 64 26 71 0
7 7 19 15 26 8 7 15 16 15 21 0 21 146 227 195 274 25 25 143 123 175 146 56
41 144 74 240 93 58 11 226 -2 291 -23z m1329 -3062 c0 -24 4 -38 10 -34 6 4
10 -9 10 -33 0 -21 6 -61 14 -88 7 -27 21 -83 30 -124 29 -131 49 -205 58
-214 4 -6 8 -18 8 -27 0 -9 16 -65 35 -125 19 -59 35 -114 35 -121 0 -7 4 -21
10 -31 17 -32 38 -87 50 -135 7 -26 17 -50 21 -53 5 -3 9 -15 9 -27 0 -12 7
-35 15 -51 8 -15 15 -35 15 -43 0 -8 9 -33 20 -55 11 -23 20 -46 20 -50 0 -5
9 -29 20 -54 11 -24 29 -65 41 -91 12 -27 66 -138 120 -248 54 -111 99 -206
99 -213 0 -7 4 -12 9 -12 5 0 13 -10 17 -22 4 -13 17 -40 30 -60 40 -63 94
-169 94 -184 0 -21 -13 -18 -93 22 -150 76 -379 227 -499 331 -17 15 -52 46
-77 67 -105 91 -407 402 -456 471 -16 22 -36 48 -45 57 -18 21 -59 75 -144
193 -36 50 -70 95 -76 102 -5 7 -10 15 -10 18 0 3 -11 23 -25 43 -14 20 -25
46 -25 57 0 21 35 61 95 110 36 29 112 106 168 170 15 17 38 42 51 57 13 15
27 37 31 48 3 11 10 20 14 20 4 0 23 21 42 48 18 26 37 52 41 57 11 14 88 115
149 198 28 37 55 67 60 67 5 0 9 -18 9 -41z m-1312 -1101 c6 -29 15 -84 21
-123 13 -82 30 -162 41 -190 4 -11 17 -63 30 -115 12 -52 35 -133 50 -180 15
-47 33 -101 38 -120 6 -19 29 -87 52 -150 83 -227 90 -250 76 -250 -7 0 -38
19 -67 42 -293 230 -552 515 -787 863 -15 22 -30 42 -34 43 -5 2 -8 7 -8 12 0
4 -18 39 -40 76 -22 38 -40 74 -40 81 0 10 40 13 173 13 171 1 380 19 427 39
49 20 58 15 68 -41z"/>
<path d="M6715 14992 c-6 -5 -32 -17 -60 -27 -195 -69 -242 -154 -252 -453
-11 -309 70 -589 197 -675 78 -54 183 14 231 149 96 272 102 543 20 832 -45
157 -59 182 -96 182 -17 0 -35 -4 -40 -8z"/>
</g>
</svg>
