<?xml version="1.0" standalone="no"?>
<!DOCTYPE svg PUBLIC "-//W3C//DTD SVG 20010904//EN"
 "http://www.w3.org/TR/2001/REC-SVG-20010904/DTD/svg10.dtd">
<svg version="1.0" xmlns="http://www.w3.org/2000/svg"
 width="158.000000pt" height="186.000000pt" viewBox="0 0 158.000000 186.000000"
 preserveAspectRatio="xMidYMid meet">
<metadata>
Created by potrace 1.10, written by Peter Selinger 2001-2011
</metadata>
<g transform="translate(0.000000,186.000000) scale(0.050000,-0.050000)"
fill="#000000" stroke="none">
<path d="M1445 3069 c-122 -33 -326 -132 -363 -177 -16 -19 33 -4 121 36 155
72 354 131 450 133 31 1 75 10 97 19 69 29 -189 20 -305 -11z"/>
<path d="M1650 2991 c-250 -49 -472 -144 -695 -295 -139 -94 -139 -82 -5 -158
73 -41 110 -75 110 -100 0 -51 -5 -50 -174 43 l-147 81 -84 -57 c-275 -184
-269 -572 10 -717 l55 -29 0 72 c0 144 135 251 318 252 93 1 129 -13 322 -123
162 -93 360 -27 503 168 63 86 73 70 26 -44 -68 -162 -182 -241 -515 -357
-256 -89 -325 -125 -468 -241 -146 -119 -326 -335 -326 -391 0 -8 392 -15 870
-15 479 0 870 7 871 15 0 8 13 60 28 115 l27 100 23 -58 c12 -33 17 -86 9
-120 -12 -56 -10 -59 21 -33 88 73 118 290 61 451 -10 31 -1 26 39 -17 29 -32
58 -83 64 -115 24 -116 66 -42 67 114 0 52 -22 126 -60 200 -33 65 -60 121
-60 124 -1 25 99 -71 144 -139 l56 -83 0 88 c-1 110 -54 229 -150 336 -41 45
-68 82 -59 82 33 0 189 -103 220 -145 33 -44 33 -43 22 35 -16 106 -102 225
-221 305 -110 74 -74 88 65 25 101 -46 103 -47 103 -20 0 52 -160 192 -290
253 -154 72 -121 93 62 37 54 -16 102 -30 107 -30 5 0 -21 31 -58 69 -96 99
-241 156 -429 167 -200 12 -157 48 60 50 169 1 172 15 13 74 -145 55 -355 67
-535 31z m-281 -396 c-26 -85 -160 -170 -202 -129 -20 20 36 97 99 135 87 53
120 51 103 -6z"/>
<path d="M771 934 c14 -57 -53 -124 -151 -149 -40 -10 -73 -32 -76 -51 -6 -32
63 -34 955 -34 929 0 961 1 961 38 0 27 -20 41 -72 51 -92 17 -175 97 -158
151 13 39 2 40 -729 40 l-742 0 12 -46z"/>
<path d="M440 605 c-48 -18 -59 -48 -60 -160 l0 -105 1120 0 1120 0 0 107 c0
185 78 173 -1112 171 -571 0 -1051 -6 -1068 -13z"/>
</g>
</svg>
