<?xml version="1.0" standalone="no"?>
<!DOCTYPE svg PUBLIC "-//W3C//DTD SVG 20010904//EN"
 "http://www.w3.org/TR/2001/REC-SVG-20010904/DTD/svg10.dtd">
<svg version="1.0" xmlns="http://www.w3.org/2000/svg"
 width="900.000000pt" height="1710.000000pt" viewBox="0 0 900.000000 1710.000000"
 preserveAspectRatio="xMidYMid meet">
<metadata>
Created by potrace 1.10, written by Peter Selinger 2001-2011
</metadata>
<g transform="translate(0.000000,1710.000000) scale(0.100000,-0.100000)"
fill="#000000" stroke="none">
<path d="M8960 16611 c0 -283 -4 -492 -9 -495 -5 -4 -19 15 -32 41 -21 45 -87
138 -133 191 -35 39 -129 109 -198 146 -253 140 -550 135 -800 -11 -177 -104
-300 -263 -370 -478 -31 -96 -33 -330 -4 -415 40 -117 94 -206 195 -325 42
-48 65 -87 79 -130 11 -33 34 -89 51 -126 l31 -65 -35 -71 c-46 -94 -47 -148
-4 -229 35 -67 64 -101 131 -150 l46 -34 -1 -113 c-1 -101 2 -118 26 -170 14
-32 43 -74 64 -94 l38 -35 -29 -22 c-16 -11 -48 -37 -69 -56 -171 -151 -151
-435 39 -546 24 -14 49 -34 54 -44 12 -23 13 -1559 1 -1578 -4 -8 -37 -17 -73
-22 -107 -13 -163 -52 -214 -150 -15 -31 -17 -59 -15 -240 2 -188 1 -207 -16
-221 -10 -9 -76 -37 -148 -63 -71 -26 -146 -53 -165 -61 -206 -81 -315 -117
-337 -113 -12 2 -23 27 -39 88 -12 47 -38 148 -59 225 -33 126 -44 166 -75
270 -116 396 -378 756 -715 983 -193 131 -358 203 -602 267 -76 20 -145 38
-154 41 -9 2 -26 27 -38 55 -11 28 -35 69 -53 91 -33 42 -114 88 -155 88 -32
0 -42 27 -32 85 4 28 8 79 9 115 1 109 0 108 185 146 224 45 491 108 631 148
103 30 174 55 388 133 50 18 244 115 296 148 55 35 117 92 152 139 55 76 28
157 -77 239 -129 100 -454 214 -775 272 -52 9 -106 22 -119 28 -18 9 -71 105
-210 382 -170 337 -264 519 -311 600 -10 17 -46 84 -81 150 -34 66 -71 134
-81 150 -10 17 -21 37 -25 45 -4 8 -33 59 -65 113 -32 55 -58 100 -58 102 0 9
-135 214 -172 262 -93 121 -282 266 -409 314 -226 86 -434 75 -648 -34 -176
-90 -312 -255 -421 -512 -40 -93 -134 -391 -195 -615 -9 -36 -23 -85 -30 -110
-7 -25 -28 -106 -45 -180 -48 -202 -46 -197 -125 -251 -162 -111 -202 -166
-176 -246 32 -103 140 -151 238 -106 63 29 243 132 333 192 159 105 257 213
429 476 51 77 97 142 102 143 14 5 11 -62 -6 -137 -80 -357 -123 -543 -160
-691 -94 -378 -81 -345 -150 -372 -158 -63 -188 -76 -382 -169 -319 -153 -555
-331 -588 -443 -14 -45 -14 -55 1 -98 34 -104 157 -170 417 -222 163 -33 655
-16 937 34 87 15 136 18 149 11 8 -5 11 -43 9 -121 l-3 -113 -53 -17 c-71 -23
-108 -60 -148 -147 -32 -68 -36 -72 -81 -86 -27 -9 -75 -18 -108 -22 -159 -17
-508 -126 -690 -214 -258 -126 -536 -356 -693 -574 -97 -133 -210 -355 -261
-513 -22 -66 -83 -315 -100 -404 -10 -55 -52 -251 -91 -430 -11 -52 -25 -115
-30 -140 -14 -70 -78 -367 -95 -445 -9 -38 -18 -83 -21 -100 -3 -16 -11 -57
-19 -90 -7 -33 -21 -97 -29 -142 -9 -46 -23 -120 -32 -165 -8 -46 -20 -99 -25
-119 -5 -20 -13 -58 -19 -85 -5 -27 -19 -92 -30 -144 -12 -52 -39 -182 -60
-288 -22 -106 -51 -238 -64 -295 -12 -56 -31 -140 -40 -187 -26 -125 -43 -206
-60 -287 -41 -191 -48 -222 -61 -278 -8 -33 -21 -94 -31 -135 -9 -41 -22 -89
-29 -106 -26 -61 -28 -118 -8 -166 53 -118 369 -407 641 -586 l83 -54 -6 -57
c-23 -216 -44 -390 -80 -656 -8 -60 -22 -168 -31 -240 -15 -123 -55 -428 -90
-685 -16 -124 -33 -251 -59 -450 -9 -69 -21 -151 -26 -182 -5 -31 -14 -92 -19
-135 -5 -43 -20 -154 -34 -248 -14 -93 -39 -271 -56 -395 -85 -627 -97 -715
-125 -890 -14 -85 -32 -200 -41 -255 -31 -202 -60 -366 -89 -495 -7 -36 -21
-105 -30 -155 -90 -492 -199 -808 -366 -1061 -95 -144 -102 -151 -165 -164
-29 -6 -67 -21 -85 -33 -91 -62 -91 -201 0 -263 l36 -24 4000 0 c3874 0 4001
1 4035 19 95 50 111 193 30 266 -20 18 -39 20 -190 23 -139 3 -171 7 -182 19
-11 13 -14 908 -16 4921 -2 3403 0 4908 8 4916 5 5 39 13 73 17 128 13 237 91
277 196 18 50 20 79 20 382 0 360 -4 392 -60 469 -16 23 -54 58 -84 78 -47 31
-64 36 -132 41 -55 4 -83 10 -91 21 -10 12 -13 183 -13 776 0 419 3 770 6 781
3 12 25 33 50 49 98 62 154 166 154 284 0 119 -62 245 -152 310 -53 38 -53 35
5 97 65 69 100 193 78 284 -5 25 -7 50 -3 57 4 7 38 39 76 71 47 40 78 76 99
115 48 93 47 152 -5 269 l-20 47 25 63 c14 35 31 87 38 114 17 69 35 103 83
155 23 25 66 84 95 132 30 48 58 85 62 82 5 -3 9 -3427 9 -7750 0 -7737 0
-7744 20 -7744 20 0 20 7 20 8550 0 8543 0 8550 -20 8550 -20 0 -20 -7 -20
-489z m-4660 -249 c90 -44 174 -103 178 -125 5 -25 -46 -77 -74 -77 -12 0 -45
16 -74 35 -95 64 -204 81 -318 51 -151 -41 -258 -164 -321 -371 -39 -127 -85
-227 -111 -244 -14 -9 -31 -22 -39 -29 -24 -23 -38 2 -22 41 7 17 15 43 17 57
21 118 29 153 45 210 11 36 41 108 66 160 38 76 63 110 123 171 119 120 216
161 370 156 84 -2 103 -6 160 -35z m4040 -46 c72 -18 105 -33 165 -77 162
-119 245 -270 245 -445 0 -127 -45 -222 -174 -365 -55 -60 -64 -77 -70 -120
-17 -126 -97 -334 -151 -391 -14 -15 -25 -36 -25 -47 0 -16 9 -21 58 -27 76
-9 92 -18 92 -54 0 -56 -19 -60 -270 -60 -251 0 -270 4 -270 60 0 35 23 50 74
50 19 0 38 4 41 10 3 5 -12 47 -33 92 -35 73 -72 184 -126 379 -12 43 -26 66
-58 95 -92 83 -146 166 -183 283 -20 63 -16 178 9 247 65 178 230 333 396 370
74 16 213 16 280 0z m-3770 -306 c15 -15 20 -33 20 -69 0 -52 8 -61 56 -61 37
0 94 -27 94 -45 0 -23 -56 -74 -88 -81 -60 -12 -72 -22 -72 -57 0 -46 -39 -84
-69 -68 -28 15 -41 43 -41 85 0 34 -2 36 -31 36 -49 0 -108 21 -114 41 -10 30
23 68 73 82 49 15 53 19 73 85 12 42 40 72 66 72 7 0 22 -9 33 -20z m365 -610
c10 -12 21 -40 24 -63 5 -37 9 -42 36 -47 20 -4 34 -14 44 -34 20 -42 -3 -77
-60 -92 -24 -6 -44 -15 -45 -20 -1 -5 -5 -21 -8 -35 -11 -53 -72 -45 -91 12
-9 27 -19 35 -46 40 -86 18 -92 113 -8 134 20 5 28 14 32 40 9 55 34 85 72 85
19 0 39 -8 50 -20z m-500 -115 c38 -37 35 -95 -6 -129 -38 -33 -69 -33 -107
-1 -39 33 -47 68 -26 105 32 54 99 66 139 25z m911 -561 c51 -6 65 -22 88 -96
9 -32 21 -60 26 -63 6 -4 10 -15 10 -25 0 -16 -5 -18 -37 -12 -62 11 -367 8
-518 -6 -216 -19 -432 -55 -701 -118 -33 -8 -71 -14 -83 -14 -20 0 -22 4 -17
28 4 15 9 46 13 69 7 51 21 62 123 93 41 12 93 33 115 45 67 38 261 75 495 95
69 5 143 12 165 14 47 4 262 -2 321 -10z m2923 -279 c46 -53 42 -84 -18 -145
-27 -27 -53 -50 -58 -50 -32 1 -63 68 -63 139 0 42 4 53 26 70 40 32 77 27
113 -14z m-2881 -214 c58 -11 64 -21 14 -21 -22 0 -44 -5 -48 -11 -4 -7 -24
-9 -55 -5 -38 5 -50 3 -57 -10 -8 -14 -12 -14 -30 -3 -17 11 -24 11 -34 1 -14
-14 -54 -16 -63 -2 -4 6 -15 4 -30 -6 -16 -10 -34 -14 -53 -9 -48 10 -164 -14
-184 -39 -15 -19 -17 -19 -23 -3 -5 11 -18 17 -36 17 -36 0 -38 -17 -4 -30 14
-5 25 -17 25 -26 0 -8 -3 -14 -7 -12 -5 3 -23 11 -40 18 -20 9 -33 22 -33 32
0 24 -17 23 -30 -3 -9 -15 -15 -18 -25 -9 -14 12 -131 -3 -171 -22 -12 -6 -31
-7 -42 -4 -13 4 -31 0 -46 -10 -16 -10 -50 -17 -92 -18 -40 -1 -68 -7 -73 -15
-5 -7 -17 -10 -33 -6 -15 4 -29 2 -32 -4 -4 -6 -27 -11 -50 -11 -24 0 -63 -7
-86 -15 -23 -8 -55 -15 -70 -15 -14 0 -30 -3 -34 -7 -4 -4 -22 -8 -39 -10 -18
-1 -67 -13 -109 -27 -42 -14 -88 -26 -103 -26 l-27 0 29 23 c30 25 187 104
238 119 40 12 285 76 359 94 180 44 372 73 551 84 149 9 480 4 543 -9z m2877
-397 c50 -24 68 -57 63 -116 -8 -77 -37 -100 -124 -100 -68 0 -69 0 -106 43
-50 58 -51 95 -3 143 47 47 111 58 170 30z m-4114 -1123 c6 -26 41 -66 168
-188 89 -85 161 -161 161 -168 0 -13 -137 -145 -151 -145 -13 0 -211 207 -241
251 -28 42 -29 48 -26 129 3 67 9 93 27 123 28 46 52 45 62 -2z m1026 -28 c47
-104 54 -132 41 -157 -32 -60 -254 -326 -273 -326 -14 0 -129 118 -144 147
-10 20 1 35 137 172 89 90 156 167 167 191 10 22 23 40 30 40 6 0 25 -30 42
-67z m-1388 -248 c7 -101 6 -9500 -1 -10615 l-7 -1045 -933 2 c-513 1 -935 3
-938 3 -3 0 4 8 15 18 27 22 105 126 105 139 0 5 13 29 30 51 16 23 30 47 30
54 1 7 10 24 21 38 l21 25 522 5 c286 3 586 2 666 -1 80 -3 151 -4 158 -1 7 2
14 14 17 26 2 11 6 703 9 1536 3 833 8 1578 11 1655 4 77 8 1928 10 4114 2
2431 8 3978 13 3983 15 15 204 77 227 75 17 -2 21 -11 24 -62z m1765 19 c12
-5 13 -10 4 -24 -21 -34 4 -62 100 -113 49 -26 97 -58 105 -70 13 -21 15 -422
17 -3538 1 -1933 4 -4429 7 -5547 5 -1804 8 -2035 21 -2049 13 -13 34 -14 141
-7 69 5 284 7 476 6 310 -3 356 -5 400 -22 28 -10 63 -16 77 -13 23 4 26 2 21
-16 -3 -13 -1 -21 7 -21 6 0 14 9 17 20 7 25 29 26 42 3 9 -17 11 -17 23 0 12
17 26 18 121 14 59 -2 109 -1 112 2 2 4 41 6 87 6 55 -1 90 3 103 12 14 9 61
13 172 13 174 0 151 12 215 -110 37 -71 112 -185 128 -195 47 -29 0 -30 -1209
-30 -671 0 -1221 2 -1224 5 -5 6 -17 2591 -17 3885 0 495 0 2408 0 4252 0
1843 -3 3372 -6 3397 -5 33 -2 52 10 70 9 14 16 37 16 51 0 26 7 29 34 19z
m-2296 -140 c2 -14 -19 -33 -80 -73 -209 -138 -394 -305 -512 -465 -89 -118
-174 -298 -215 -451 -29 -108 -136 -583 -166 -735 -9 -47 -20 -98 -25 -115 -5
-16 -12 -48 -15 -70 -7 -46 -19 -100 -45 -205 -10 -41 -26 -106 -35 -145 -9
-38 -22 -95 -30 -125 -7 -30 -25 -116 -40 -190 -41 -204 -41 -208 -64 -305
-19 -81 -81 -381 -117 -560 -14 -71 -30 -142 -57 -250 -8 -33 -20 -87 -27
-120 -6 -33 -16 -80 -22 -105 -6 -25 -15 -67 -19 -95 -4 -27 -15 -77 -23 -110
-29 -116 -59 -251 -66 -300 -4 -27 -15 -81 -25 -120 -9 -38 -23 -101 -30 -140
-15 -77 -29 -120 -43 -129 -11 -7 -71 30 -78 49 -4 8 1 45 10 83 25 107 68
303 76 347 10 50 38 178 50 225 5 19 16 73 25 120 9 47 23 112 30 145 8 33 21
92 29 130 8 39 22 104 31 145 9 41 23 104 30 140 7 36 20 97 29 135 8 39 29
138 46 220 17 83 35 170 41 194 5 25 21 101 34 170 24 123 33 166 75 361 12
52 23 109 26 125 3 17 12 57 19 90 13 59 26 122 60 295 9 47 23 110 30 140 7
30 21 91 30 135 10 44 23 107 31 140 7 33 27 125 44 205 57 272 83 352 160
505 133 264 299 452 521 590 132 82 269 147 294 141 6 -1 11 -11 13 -22z
m1424 -176 c17 -34 22 -64 25 -138 2 -52 8 -210 14 -350 11 -253 18 -291 45
-255 6 9 18 13 27 9 10 -3 20 3 27 17 10 18 14 20 21 7 10 -18 -4 -355 -31
-753 -11 -165 -25 -396 -30 -513 -6 -117 -15 -234 -20 -260 -20 -89 -52 -172
-70 -182 -26 -14 -73 -12 -92 3 -19 15 -75 177 -84 245 -6 49 -5 52 20 63 25
12 26 15 26 93 0 45 -5 153 -10 241 -13 192 -15 1310 -3 1550 l8 170 34 48
c43 59 64 60 93 5z m538 -18 c0 -55 -3 -63 -37 -101 -61 -68 -266 -239 -286
-239 -16 0 -18 7 -15 53 3 50 4 52 32 52 29 1 45 15 153 140 28 33 61 71 73
85 12 14 29 35 37 48 28 41 43 28 43 -38z m-1074 -19 c27 -32 95 -110 152
-173 97 -110 124 -158 87 -158 -27 0 -117 70 -212 163 l-93 92 0 67 c0 38 4
68 9 68 5 0 31 -26 57 -59z m-1066 -186 c53 -28 65 -83 29 -129 -30 -38 -64
-49 -106 -35 -34 11 -63 51 -63 88 0 27 62 91 89 91 12 0 35 -7 51 -15z m1041
-159 c12 -21 30 -36 47 -39 15 -3 53 -32 86 -66 l59 -60 -2 -193 c-1 -106 -6
-314 -12 -463 -15 -448 -29 -944 -29 -1051 -1 -152 -39 -206 -123 -170 -34 14
-35 17 -42 81 -7 64 1 234 11 245 3 2 9 -2 14 -10 31 -50 48 98 49 412 0 86
-4 170 -9 187 -4 16 -4 33 0 37 5 5 5 43 -1 84 -5 41 -11 133 -13 203 -2 71
-7 131 -10 134 -12 12 -18 -7 -20 -62 -1 -42 -6 -59 -19 -66 -15 -9 -16 -2
-13 83 2 51 4 97 5 102 1 4 12 5 25 2 27 -7 41 14 31 45 -8 23 -21 25 -29 4
-3 -8 -12 -15 -19 -15 -14 0 -16 36 -19 320 -1 167 1 190 16 190 9 0 16 -12
18 -32 4 -43 22 -43 26 0 3 28 -1 34 -26 43 -29 10 -42 32 -42 72 0 27 19 20
41 -17z m1078 -298 c-2 -183 -4 -336 -6 -339 -3 -8 -12 -451 -18 -960 -3 -222
-9 -398 -15 -413 -13 -35 -53 -50 -97 -35 -45 15 -53 34 -53 133 0 47 -4 95
-9 108 -6 13 -19 325 -30 693 -12 369 -23 727 -25 796 l-4 127 67 66 c37 36
73 66 81 66 8 0 35 21 59 45 25 25 47 45 49 45 2 0 2 -150 1 -332z m1056 68
c31 -31 40 -69 25 -105 -17 -42 -43 -62 -89 -68 -35 -5 -44 -2 -71 25 -34 35
-39 75 -15 122 19 37 41 49 88 50 27 0 45 -7 62 -24z m2219 3 c31 -25 34 -59
5 -85 -19 -17 -41 -19 -208 -22 -226 -4 -266 1 -288 34 -19 30 -6 69 29 84 13
5 116 9 229 9 194 1 208 0 233 -20z m-4022 -12 c14 -13 29 -39 33 -58 4 -19
10 -38 12 -43 22 -37 24 -952 2 -987 -17 -28 -23 7 -30 164 -4 89 -12 227 -18
307 -6 80 -18 242 -26 360 -22 308 -22 302 27 257z m403 -36 c-3 -12 -11 -21
-16 -21 -6 0 -8 3 -6 8 2 4 7 16 11 26 9 25 20 13 11 -13z m3627 -218 c24 -22
23 -55 -3 -79 -19 -17 -41 -19 -238 -22 -241 -3 -244 -3 -244 60 0 55 14 58
252 58 185 0 217 -2 233 -17z m-5711 -130 c48 -28 57 -98 18 -139 -31 -33 -97
-33 -127 -1 -33 35 -38 77 -11 110 37 47 75 57 120 30z m3611 -102 c28 -25 33
-36 32 -72 -1 -35 -8 -48 -33 -71 -69 -61 -171 -18 -171 72 0 91 102 133 172
71z m2102 -47 c23 -22 20 -47 -8 -73 -24 -23 -26 -23 -233 -18 -114 4 -209 6
-210 7 -2 0 -10 11 -19 25 -16 25 -16 27 6 50 l23 25 213 0 c180 0 215 -2 228
-16z m-884 -186 c0 -2 -7 -39 -15 -82 -11 -58 -15 -143 -15 -313 1 -128 -1
-237 -4 -241 -8 -13 -67 -1 -73 14 -3 8 -16 14 -29 14 -18 0 -24 -6 -24 -21 0
-12 -5 -19 -12 -16 -9 3 -12 23 -10 68 5 121 23 324 32 359 5 19 12 61 15 92
4 31 12 64 19 72 17 24 116 69 116 54z m-420 -133 c0 -25 -76 -300 -90 -324
-6 -11 -22 -14 -54 -12 -34 2 -53 -3 -72 -18 -34 -27 -44 -19 -44 33 0 84 81
282 124 306 53 28 136 37 136 15z m-352 -58 c2 -9 -8 -31 -22 -49 -13 -18 -35
-56 -48 -84 -13 -28 -39 -70 -58 -94 -33 -42 -34 -42 -50 -22 -12 15 -24 19
-40 15 -28 -8 -50 18 -42 50 8 33 76 130 112 160 17 15 47 29 68 32 20 4 42 8
47 10 17 6 30 -1 33 -18z m-4111 -207 c46 -16 67 -76 42 -122 -6 -11 -27 -26
-46 -35 -33 -13 -40 -13 -73 2 -69 31 -72 122 -6 151 38 16 45 17 83 4z m1790
-91 c1 -61 -1 -75 -7 -49 -16 72 -20 142 -7 137 8 -2 13 -32 14 -88z m3526
-351 c9 -491 9 -8530 1 -8592 -4 -25 -10 -46 -15 -46 -9 0 -86 232 -117 355
-101 396 -215 1161 -307 2060 -21 206 -41 390 -70 655 -13 124 -31 299 -40
390 -18 197 -38 401 -60 605 -9 83 -20 200 -25 260 -5 61 -18 203 -30 316 -21
220 -32 341 -49 539 -6 69 -18 197 -26 285 -8 88 -22 239 -30 335 -9 96 -22
240 -30 320 -17 170 -42 453 -50 561 -3 42 -3 83 1 92 3 9 45 35 92 58 173 84
306 192 385 312 106 160 198 430 246 717 45 270 53 385 58 765 2 204 6 376 8
383 2 6 15 12 28 12 l24 0 6 -382z m-1495 -78 c16 -15 22 -32 22 -63 0 -47 -5
-56 -40 -80 -36 -25 -68 -21 -101 12 -38 39 -38 79 0 120 35 38 85 42 119 11z
m-3840 -182 c71 -270 65 -260 178 -297 87 -28 154 -81 138 -108 -6 -10 -49
-32 -95 -48 -47 -17 -97 -40 -112 -50 -32 -24 -82 -122 -97 -192 -6 -28 -18
-59 -26 -69 -13 -18 -15 -18 -28 -1 -8 10 -17 34 -21 53 -7 39 -66 170 -87
194 -23 27 -61 46 -135 68 -55 17 -73 27 -79 44 -10 32 41 71 135 104 42 15
84 34 93 43 10 9 31 70 49 146 18 72 37 136 42 143 18 23 34 12 45 -30z m2500
-281 c8 -9 9 -40 4 -93 l-7 -79 -555 0 -554 0 -13 75 c-21 119 -70 110 572
110 436 0 545 -3 553 -13z m-73 -417 c3 -5 22 -10 41 -10 l35 0 -3 -87 -3 -88
-555 0 -555 0 -8 40 c-21 109 -21 121 4 139 21 14 77 16 531 16 327 0 509 -4
513 -10z m1623 -60 c124 -76 79 -250 -65 -250 -120 0 -174 144 -89 235 28 30
40 35 77 35 26 0 57 -8 77 -20z m-4476 -397 c9 -12 15 -45 17 -98 1 -48 7 -85
15 -93 6 -7 43 -15 80 -19 73 -7 99 -22 94 -56 -4 -31 -44 -47 -115 -47 -73 0
-70 4 -75 -124 -3 -68 -7 -81 -27 -97 -48 -39 -81 17 -81 143 0 37 -4 70 -10
73 -5 3 -48 9 -95 12 -71 5 -88 9 -96 25 -9 16 -6 25 12 44 19 21 32 24 88 24
36 0 73 5 81 10 10 6 17 34 20 94 5 63 11 90 25 106 22 25 47 26 67 3z m1967
-249 c1 -12 -7 -30 -16 -41 -10 -11 -39 -48 -65 -82 -51 -65 -74 -78 -64 -36
3 13 9 53 12 87 7 82 11 93 27 80 20 -17 67 -2 80 25 10 23 12 23 18 6 4 -10
8 -27 8 -39z m471 -111 c1 -185 6 -273 17 -284 9 -9 19 -6 43 11 26 19 34 20
41 9 5 -8 9 -120 8 -249 -1 -331 8 -388 63 -411 41 -17 89 7 113 56 16 34 17
70 14 409 -2 204 0 381 4 394 7 19 11 21 23 11 9 -7 35 -10 69 -7 93 8 86 61
82 -658 -2 -346 -5 -633 -6 -639 -1 -5 -1 -118 0 -250 1 -132 -2 -248 -6 -258
-4 -9 -3 -23 3 -30 6 -7 8 -150 6 -382 -2 -203 -3 -390 -2 -415 0 -25 0 -54 0
-65 0 -21 -1 -157 0 -734 0 -276 -3 -345 -14 -353 -11 -7 -10 -10 2 -17 12 -7
15 -24 13 -68 -1 -44 -3 -734 -2 -883 2 -264 -1 -379 -11 -385 -7 -4 -7 -11
-2 -18 12 -15 13 -401 2 -510 -4 -45 -5 -84 -1 -87 13 -9 7 -123 -7 -128 -14
-4 -16 -32 -2 -32 6 0 10 -7 10 -15 0 -20 -36 -20 -44 0 -5 14 -46 22 -46 9 0
-3 14 -19 30 -36 17 -16 30 -39 30 -50 0 -12 8 -27 18 -34 15 -12 14 -13 -10
-14 -17 0 -28 -5 -28 -14 0 -7 -10 -21 -22 -29 l-23 -16 24 -19 c26 -21 24
-52 -3 -52 -8 0 -19 -6 -23 -14 -4 -7 -18 -16 -29 -20 -17 -5 -23 -2 -28 16
-8 33 -7 48 4 48 6 0 10 -7 10 -15 0 -8 7 -15 15 -15 22 0 18 38 -5 45 -11 3
-23 18 -26 31 -11 45 -9 125 3 136 9 7 8 18 -5 44 -13 29 -14 39 -4 55 8 12 9
26 4 37 -11 21 -10 842 1 859 4 6 2 23 -5 38 -9 19 -9 31 -1 44 7 11 7 23 2
33 -5 9 -9 31 -8 50 0 18 0 60 -1 93 0 33 1 117 3 188 3 70 1 130 -4 133 -5 3
-6 32 -2 64 4 41 2 64 -7 75 -7 8 -8 15 -2 15 18 0 22 29 6 45 -13 13 -14 18
-3 31 9 11 9 18 1 26 -7 7 -7 19 0 37 5 14 7 43 3 65 -3 21 -1 44 5 50 13 16
-7 131 -26 146 -10 9 -11 16 -1 31 10 16 9 25 -4 47 -10 17 -13 35 -8 47 15
39 10 55 -16 55 -14 0 -28 -7 -31 -15 -4 -8 -13 -15 -20 -15 -8 0 -18 -8 -21
-17 -6 -15 -8 -14 -13 7 -5 18 -12 24 -26 21 -35 -7 -49 -6 -52 4 -1 6 9 11
23 13 27 4 28 5 18 40 -4 18 -11 23 -29 19 -26 -5 -42 20 -19 29 20 8 19 34 0
34 -8 0 -15 9 -15 20 0 23 3 24 30 8 17 -11 22 -10 30 2 6 10 5 20 -5 30 -23
23 -70 -17 -71 -61 -1 -19 -5 -61 -8 -94 -12 -108 -13 -206 -4 -211 5 -3 4
-12 -3 -20 -23 -28 -27 -322 -28 -1891 -1 -865 -4 -1580 -7 -1588 -7 -16 -89
-22 -98 -6 -14 22 -25 6617 -12 7170 l6 225 42 43 c23 24 50 43 60 43 16 0 18
-9 18 -67z m-1688 -236 c40 -50 5 -123 -64 -134 -48 -7 -88 29 -88 81 0 50 49
90 99 81 20 -3 44 -16 53 -28z m1212 -1679 c-3 -849 -7 -1622 -9 -1718 -2 -96
-4 -267 -5 -379 0 -112 -5 -212 -10 -222 -7 -12 -6 -27 2 -44 9 -20 9 -31 1
-44 -6 -10 -8 -24 -3 -31 5 -8 4 -22 -1 -31 -5 -10 -5 -20 -1 -23 5 -3 7 -34
5 -68 -3 -35 -4 -78 -3 -97 0 -18 -4 -39 -10 -46 -8 -10 -8 -19 2 -34 10 -16
10 -23 0 -33 -6 -6 -12 -20 -12 -30 0 -21 -46 -36 -62 -20 -15 15 -21 374 -6
383 9 6 9 11 0 21 -11 14 -12 25 -13 178 -1 205 3 310 12 316 6 3 6 10 1 17
-16 20 -22 410 -22 1414 l-1 972 45 58 c57 73 80 142 65 198 -15 57 -52 167
-87 258 -28 72 -31 88 -32 215 -1 75 -1 142 -1 149 1 6 18 30 40 52 21 22 52
61 67 86 16 25 32 45 36 45 4 0 5 -694 2 -1542z m2494 1450 c7 -7 12 -44 12
-94 0 -101 9 -114 82 -114 57 0 88 -19 88 -55 0 -33 -21 -45 -84 -49 -79 -4
-86 -13 -86 -110 0 -91 -16 -129 -53 -124 -32 5 -47 45 -47 129 0 50 -4 80
-13 87 -7 6 -39 12 -72 13 -71 2 -105 20 -105 54 0 36 35 55 100 55 80 0 89
10 96 105 6 82 21 115 54 115 9 0 21 -5 28 -12z m-3781 -1190 c11 -14 31 -90
60 -227 9 -46 25 -94 35 -106 9 -12 43 -29 80 -40 35 -10 90 -26 123 -35 127
-37 99 -80 -89 -136 -32 -10 -72 -27 -90 -38 -32 -22 -44 -50 -97 -233 -13
-47 -26 -73 -35 -73 -8 0 -16 6 -18 13 -86 281 -95 297 -184 322 -132 37 -168
51 -192 72 -40 35 -19 54 96 83 169 44 192 64 218 197 29 143 53 213 76 213 4
0 12 -6 17 -12z m3650 -22 c23 -20 28 -32 27 -66 -2 -55 -34 -90 -83 -90 -44
0 -54 6 -74 47 -22 41 -7 87 37 114 41 25 59 24 93 -5z m19 -813 c3 -16 10
-43 16 -62 6 -19 21 -80 34 -135 29 -125 53 -153 160 -180 182 -47 234 -67
234 -91 0 -26 -57 -45 -206 -70 -147 -24 -171 -50 -220 -245 -35 -139 -55
-164 -72 -88 -9 41 -47 179 -61 223 -14 44 -40 66 -109 90 -40 14 -87 25 -106
25 -34 0 -137 23 -156 35 -6 3 -10 15 -10 25 0 28 64 57 173 81 51 10 106 24
124 30 42 14 79 58 87 106 13 69 58 248 67 266 14 26 38 21 45 -10z m-4096
-313 c11 -7 16 -35 20 -102 l5 -93 65 -3 c70 -3 100 -20 100 -57 0 -36 -34
-57 -102 -64 l-63 -6 -5 -88 c-5 -89 -13 -107 -50 -107 -37 0 -45 18 -50 107
l-5 88 -75 5 c-68 5 -76 7 -87 31 -8 16 -9 36 -4 55 7 28 9 29 76 32 38 2 75
8 82 14 8 7 13 36 13 82 0 98 30 138 80 106z m-437 -313 c-3 -51 -9 -96 -14
-101 -5 -6 -9 -33 -10 -60 -1 -28 -4 -62 -8 -76 -7 -25 -8 -24 -15 8 -9 37 1
111 17 131 7 7 13 50 14 95 3 126 2 123 12 108 5 -8 6 -55 4 -105z m-41 -336
c-5 -3 -9 -40 -10 -82 -1 -42 -6 -98 -13 -125 -12 -56 -15 -73 -24 -164 -4
-35 -9 -69 -13 -75 -3 -5 -8 -48 -9 -95 -3 -80 -9 -141 -48 -495 -18 -162 -40
-329 -60 -465 -8 -52 -21 -147 -30 -210 -27 -201 -45 -321 -71 -485 -28 -169
-33 -198 -57 -310 -15 -67 -20 -94 -53 -265 -8 -41 -24 -113 -35 -160 -11 -47
-22 -94 -23 -105 -2 -11 -11 -40 -20 -65 -18 -50 -87 -277 -116 -382 -11 -37
-24 -76 -29 -87 -27 -50 -23 -51 158 -51 109 0 172 -4 176 -11 8 -12 -19 -53
-118 -186 -111 -150 -97 -143 -303 -143 -124 0 -174 3 -174 11 0 7 18 40 40
75 22 35 40 67 40 71 0 5 19 46 43 93 24 47 55 114 70 150 51 130 137 475 262
1060 14 65 29 156 60 350 10 58 23 137 30 175 8 39 21 111 30 160 9 50 21 108
26 130 5 22 13 69 18 105 5 36 26 175 46 310 19 135 40 279 45 320 6 41 12 81
15 90 8 27 38 223 45 300 4 41 13 104 18 140 18 104 33 218 42 314 11 107 19
147 34 165 9 12 12 8 14 -19 2 -18 -1 -36 -6 -39z m4916 -494 c6 -6 13 -26 17
-42 36 -158 58 -193 151 -239 28 -14 57 -33 64 -41 21 -25 -14 -61 -103 -108
-45 -24 -84 -53 -92 -67 -26 -47 -43 -90 -50 -120 -11 -50 -35 -33 -61 44 -27
81 -57 115 -141 162 -84 47 -91 58 -66 92 11 15 45 40 77 55 55 28 106 83 106
117 0 16 36 136 46 151 8 13 40 11 52 -4z m-4557 -33 c8 -10 13 -45 13 -95 1
-94 5 -99 88 -99 50 0 60 -3 73 -24 13 -19 14 -29 5 -45 -11 -22 -23 -26 -102
-36 -60 -8 -68 -22 -68 -118 0 -69 -2 -75 -25 -85 -21 -10 -28 -9 -45 8 -16
16 -20 34 -20 94 0 47 -5 77 -12 84 -7 5 -42 12 -78 15 -89 7 -100 13 -100 51
0 46 16 56 86 56 76 0 94 14 94 73 1 57 16 118 32 128 20 13 44 11 59 -7z
m1819 -785 c0 -22 -41 -49 -65 -43 -31 8 -33 -8 -5 -36 24 -24 40 -26 40 -5 0
8 4 15 9 15 17 0 23 -21 10 -36 -8 -10 -9 -18 -2 -25 7 -7 8 -22 2 -42 -6 -20
-5 -35 3 -44 8 -10 8 -20 -3 -39 -11 -21 -11 -29 0 -46 12 -19 11 -23 -5 -35
-19 -14 -19 -15 0 -28 11 -8 16 -21 13 -30 -9 -22 -34 -19 -40 5 -3 12 -14 20
-27 20 -26 0 -22 -21 7 -34 23 -11 60 -72 49 -83 -4 -4 -11 -2 -15 5 -4 7 -23
21 -42 31 -39 21 -46 40 -27 81 9 21 20 30 35 30 28 0 31 26 3 33 -17 4 -18 8
-7 31 7 14 15 26 20 26 4 0 7 7 7 15 0 9 -9 15 -25 15 -14 0 -25 -4 -25 -10 0
-5 -4 -10 -8 -10 -5 0 -8 18 -8 40 1 22 4 40 9 40 4 0 12 0 17 0 6 0 10 -6 10
-14 0 -17 27 -29 36 -15 3 6 -3 19 -15 30 -12 11 -21 27 -21 35 0 9 -10 24
-22 34 -20 16 -21 20 -9 43 8 15 26 29 42 32 15 3 30 13 33 21 6 16 26 10 26
-7z m-1673 -77 c7 -5 17 -28 22 -53 33 -155 88 -352 113 -401 25 -51 48 -64
170 -98 148 -41 168 -49 168 -71 0 -26 -27 -37 -117 -50 -43 -6 -93 -13 -111
-15 -53 -8 -96 -55 -127 -136 -30 -83 -42 -129 -96 -365 -8 -38 -16 -53 -28
-53 -13 0 -25 33 -55 153 -54 211 -93 327 -123 358 -26 28 -74 44 -160 54 -68
7 -124 28 -137 49 -15 24 21 52 77 61 105 16 188 57 222 109 26 39 68 170 115
356 13 49 39 110 48 110 4 0 13 -4 19 -8z m3812 -98 c13 -9 30 -32 38 -51 13
-33 13 -37 -11 -68 -30 -39 -55 -49 -99 -41 -81 16 -103 75 -53 140 22 30 33
36 64 36 21 0 48 -7 61 -16z m393 -541 c15 -13 18 -31 18 -98 0 -95 9 -109 68
-107 58 3 101 -16 109 -45 10 -41 -25 -63 -86 -56 -41 5 -52 2 -70 -16 -18
-18 -21 -33 -21 -100 0 -59 -4 -84 -16 -95 -18 -19 -28 -20 -55 -6 -16 9 -19
22 -19 88 0 110 -10 122 -103 122 -81 0 -121 15 -125 47 -5 33 33 51 120 59
43 4 83 12 88 20 10 12 15 43 18 136 2 36 23 68 44 68 6 0 20 -7 30 -17z
m-2548 -15 c3 -13 6 -30 6 -37 0 -23 -16 0 -24 32 -8 32 9 37 18 5z m-10 -82
c28 -24 32 -56 9 -64 -9 -2 -13 7 -13 27 0 28 -3 31 -30 31 -22 0 -30 -5 -31
-17 0 -10 -3 -13 -5 -6 -7 16 14 53 30 53 7 0 25 -11 40 -24z m966 -597 c0
-12 -29 -24 -37 -16 -3 4 -3 13 0 21 6 16 37 11 37 -5z m-3186 -70 c41 -49 29
-106 -30 -134 -78 -37 -152 56 -105 133 18 28 26 32 65 32 37 0 48 -5 70 -31z
m5209 -10 c13 -6 32 -26 41 -45 14 -30 14 -39 2 -68 -28 -66 -126 -64 -161 3
-17 35 2 83 42 105 34 18 45 19 76 5z m-2033 -13 c0 -8 -4 -18 -10 -21 -5 -3
-10 3 -10 14 0 12 5 21 10 21 6 0 10 -6 10 -14z m-35 -46 c0 -22 -39 -19 -43
3 -3 15 1 18 20 15 12 -2 23 -10 23 -18z m-52 -50 c3 -11 13 -23 24 -27 36
-13 70 -63 43 -63 -5 0 -10 7 -10 15 0 24 -57 20 -65 -5 -11 -34 -33 -23 -40
19 -7 43 7 81 29 81 8 0 16 -9 19 -20z m-2152 -179 c48 -48 36 -111 -26 -137
-47 -19 -78 -18 -109 7 -35 27 -37 86 -3 116 56 51 96 55 138 14z m3504 23
c20 -8 45 -56 45 -88 0 -13 -12 -38 -26 -55 -53 -63 -154 -28 -154 54 0 66 71
113 135 89z"/>
<path d="M8080 16261 c-36 -10 -76 -25 -90 -32 -159 -87 -290 -284 -290 -435
0 -96 51 -191 175 -325 41 -45 78 -94 81 -108 20 -96 56 -227 69 -251 27 -52
49 -60 168 -60 139 0 159 10 197 93 15 34 35 105 45 157 18 94 19 97 77 160
75 82 154 200 168 248 30 108 -4 233 -93 350 -92 119 -174 177 -292 207 -76
19 -134 18 -215 -4z m163 -92 c21 -30 65 -93 98 -140 32 -47 82 -109 109 -138
28 -29 50 -58 50 -64 0 -7 -10 -18 -22 -26 -59 -37 -119 -98 -161 -165 -26
-40 -47 -78 -47 -82 0 -14 -63 -154 -69 -154 -3 0 -27 44 -53 98 -25 53 -59
113 -75 132 -56 69 -127 141 -160 161 -38 24 -40 33 -12 57 48 41 179 217 263
355 10 16 23 26 29 24 6 -2 29 -28 50 -58z"/>
<path d="M4740 11304 c0 -14 4 -23 10 -19 6 3 10 15 10 26 0 10 -4 19 -10 19
-5 0 -10 -12 -10 -26z"/>
<path d="M4128 11593 c-7 -28 3 -143 13 -143 5 0 9 36 9 80 0 73 -11 105 -22
63z"/>
<path d="M4130 11330 c0 -49 4 -90 9 -90 5 0 10 41 10 90 0 52 -4 90 -9 90 -6
0 -10 -38 -10 -90z"/>
<path d="M5110 11555 c0 -16 16 -20 24 -6 3 5 -1 11 -9 15 -9 3 -15 0 -15 -9z"/>
<path d="M5108 11042 c-7 -81 -9 -269 -8 -669 0 -172 4 -313 8 -313 5 0 12
142 16 316 4 176 11 325 17 335 6 12 6 25 0 37 -5 10 -9 82 -8 160 2 106 -1
143 -10 147 -7 2 -14 -3 -15 -13z"/>
<path d="M7470 10236 c0 -14 36 -46 52 -46 37 0 22 16 -44 48 -5 2 -8 1 -8 -2z"/>
<path d="M4740 6786 c0 -8 5 -18 10 -21 6 -3 10 1 10 9 0 8 -4 18 -10 21 -5 3
-10 -1 -10 -9z"/>
<path d="M4740 6296 c0 -8 5 -18 10 -21 6 -3 10 1 10 9 0 8 -4 18 -10 21 -5 3
-10 -1 -10 -9z"/>
<path d="M4860 4721 c0 -16 6 -21 25 -21 16 0 25 6 25 15 0 8 -4 15 -9 15 -5
0 -16 3 -25 6 -12 4 -16 0 -16 -15z"/>
<path d="M4737 4694 c-8 -8 1 -24 14 -24 5 0 9 7 9 15 0 15 -12 20 -23 9z"/>
<path d="M4820 4684 c0 -17 22 -14 28 4 2 7 -3 12 -12 12 -9 0 -16 -7 -16 -16z"/>
<path d="M4854 4628 c-4 -6 0 -16 9 -23 25 -18 21 -25 -14 -25 -20 0 -29 -4
-26 -12 2 -8 21 -13 43 -13 35 0 39 -3 44 -30 4 -23 11 -31 30 -33 21 -2 27 3
37 35 13 42 10 51 -10 35 -10 -8 -21 -6 -44 8 -25 15 -30 23 -26 44 4 21 1 26
-15 26 -12 0 -24 -5 -28 -12z"/>
<path d="M5030 4620 c0 -5 6 -10 14 -10 8 0 18 5 21 10 3 6 -3 10 -14 10 -12
0 -21 -4 -21 -10z"/>
<path d="M4856 4505 c-9 -24 -7 -55 3 -55 15 0 33 28 29 46 -4 23 -24 29 -32
9z"/>
<path d="M5125 2679 c-10 -15 3 -25 16 -12 7 7 7 13 1 17 -6 3 -14 1 -17 -5z"/>
<path d="M5127 2444 c-8 -8 1 -24 14 -24 5 0 9 7 9 15 0 15 -12 20 -23 9z"/>
<path d="M5092 2274 c4 -21 22 -23 26 -1 2 10 -3 17 -13 17 -10 0 -15 -6 -13
-16z"/>
<path d="M5040 2140 c0 -4 7 -10 15 -14 8 -3 15 -12 15 -20 0 -16 34 -31 50
-21 22 14 8 33 -35 47 -25 9 -45 12 -45 8z"/>
<path d="M5027 2056 c-7 -16 1 -26 20 -26 7 0 13 9 13 20 0 23 -25 27 -33 6z"/>
<path d="M4165 4419 c-10 -15 3 -25 16 -12 7 7 7 13 1 17 -6 3 -14 1 -17 -5z"/>
<path d="M4165 4241 c-6 -11 9 -23 19 -14 9 9 7 23 -3 23 -6 0 -12 -4 -16 -9z"/>
<path d="M4136 4002 c-3 -6 -1 -14 5 -17 15 -10 25 3 12 16 -7 7 -13 7 -17 1z"/>
<path d="M4160 3875 c0 -8 7 -15 15 -15 8 0 15 7 15 15 0 8 -7 15 -15 15 -8 0
-15 -7 -15 -15z"/>
<path d="M4130 3515 c0 -9 9 -15 25 -15 16 0 25 6 25 15 0 9 -9 15 -25 15 -16
0 -25 -6 -25 -15z"/>
<path d="M5030 1775 c0 -8 7 -15 15 -15 8 0 15 7 15 15 0 8 -7 15 -15 15 -8 0
-15 -7 -15 -15z"/>
</g>
</svg>
