<?xml version="1.0" standalone="no"?>
<!DOCTYPE svg PUBLIC "-//W3C//DTD SVG 20010904//EN"
 "http://www.w3.org/TR/2001/REC-SVG-20010904/DTD/svg10.dtd">
<svg version="1.0" xmlns="http://www.w3.org/2000/svg"
 width="828.000000pt" height="879.000000pt" viewBox="0 0 828.000000 879.000000"
 preserveAspectRatio="xMidYMid meet">
<metadata>
Created by potrace 1.10, written by Peter Selinger 2001-2011
</metadata>
<g transform="translate(0.000000,879.000000) scale(0.100000,-0.100000)"
fill="#000000" stroke="none">
<path d="M1974 8093 c-9 -31 -84 -197 -105 -233 -12 -22 -55 -111 -85 -177
-14 -32 -35 -76 -47 -98 -25 -49 -30 -59 -52 -110 -10 -22 -24 -53 -31 -68 -8
-16 -14 -34 -14 -40 0 -7 -20 -53 -45 -102 -24 -50 -47 -102 -51 -117 -3 -15
-10 -30 -15 -33 -5 -4 -9 -13 -9 -21 0 -7 -14 -44 -31 -81 -58 -125 -77 -168
-99 -223 -12 -30 -28 -68 -36 -85 -7 -16 -25 -57 -39 -90 -15 -33 -35 -78 -46
-101 -10 -22 -19 -46 -19 -53 0 -7 -6 -25 -14 -39 -8 -15 -22 -47 -32 -72 -10
-25 -44 -100 -76 -168 -32 -67 -58 -129 -58 -136 0 -7 -7 -19 -15 -26 -8 -7
-15 -23 -15 -35 0 -12 -6 -28 -14 -34 -8 -6 -16 -22 -19 -34 -10 -40 -33 -97
-45 -109 -7 -7 -12 -22 -12 -34 0 -12 -7 -27 -15 -34 -8 -7 -15 -19 -15 -26 0
-8 -13 -41 -28 -74 -16 -33 -27 -62 -25 -64 4 -4 101 49 173 93 8 6 49 26 90
46 41 20 82 41 90 46 8 5 22 12 30 15 8 3 47 19 85 34 39 16 81 31 95 33 14 3
39 10 55 15 222 76 710 89 931 26 28 -7 66 -14 85 -14 19 0 40 -5 46 -11 6 -6
29 -15 50 -19 39 -8 85 -23 140 -47 17 -7 38 -13 46 -13 8 0 20 -7 27 -15 7
-8 18 -15 26 -15 12 0 133 -56 174 -80 8 -5 22 -11 30 -15 28 -11 117 -69 200
-130 98 -71 88 -73 139 29 57 116 171 234 271 282 124 60 285 81 375 49 22 -8
48 -15 57 -15 27 0 136 -59 200 -108 54 -40 148 -149 148 -170 0 -5 6 -15 14
-21 8 -6 16 -22 19 -34 3 -12 17 -53 31 -92 24 -66 26 -82 26 -253 0 -140 -3
-191 -15 -219 -8 -19 -15 -41 -15 -48 0 -7 33 -30 73 -50 39 -20 79 -40 87
-45 8 -5 35 -18 60 -30 25 -12 59 -30 75 -41 17 -10 37 -22 45 -25 28 -11 35
-15 95 -49 116 -65 205 -107 220 -103 9 2 27 31 41 68 14 36 32 80 40 98 27
61 42 97 64 152 12 30 26 59 31 64 5 6 9 19 9 30 0 11 6 27 13 35 7 9 21 36
31 61 26 64 46 110 62 143 8 16 14 35 14 44 0 8 6 27 14 41 8 15 21 47 31 72
9 25 23 58 31 73 8 16 14 37 14 47 0 9 7 23 15 30 8 7 15 18 15 25 0 7 9 32
20 56 28 63 26 87 -7 94 -16 3 -48 10 -73 16 -25 6 -70 15 -100 19 -30 5 -104
22 -165 38 -60 17 -136 37 -168 46 -31 8 -62 18 -69 22 -6 4 -28 11 -47 15
-41 8 -180 54 -229 75 -18 8 -41 14 -50 14 -10 0 -27 7 -38 15 -10 8 -27 15
-36 15 -10 0 -32 6 -50 14 -18 8 -53 22 -78 31 -25 9 -58 23 -75 30 -16 7 -55
23 -85 34 -30 12 -64 26 -75 30 -11 5 -38 15 -60 24 -247 94 -709 307 -860
397 -27 16 -59 34 -70 40 -11 6 -42 24 -70 41 -27 16 -61 35 -75 42 -14 6 -53
31 -88 54 -35 24 -65 43 -67 43 -9 0 -173 126 -240 184 -89 77 -205 194 -271
271 -74 88 -144 182 -144 193 0 6 -3 12 -8 14 -19 8 -133 226 -182 348 -12 30
-27 69 -34 85 -20 46 -36 94 -52 155 -23 84 -25 90 -35 90 -5 0 -12 -8 -15
-17z"/>
<path d="M4105 7313 c-45 -12 -94 -105 -81 -156 3 -14 18 -39 32 -56 23 -28
31 -31 84 -31 43 0 64 5 84 21 69 54 73 143 9 201 -20 19 -93 31 -128 21z"/>
<path d="M5992 5938 c-17 -35 -32 -68 -32 -73 0 -6 -5 -16 -11 -22 -16 -16
-79 -162 -79 -183 0 -10 -7 -23 -15 -30 -8 -7 -15 -19 -15 -28 0 -8 -9 -30
-21 -49 -22 -35 -55 -116 -69 -168 -4 -16 -16 -48 -25 -70 -34 -79 -66 -151
-80 -178 -8 -16 -15 -34 -15 -40 0 -13 -57 -161 -76 -199 -8 -14 -14 -35 -14
-45 0 -10 -4 -23 -9 -28 -5 -6 -25 -50 -46 -100 -20 -49 -41 -97 -46 -105 -5
-8 -12 -22 -15 -30 -18 -46 -68 -169 -80 -195 -7 -16 -27 -66 -44 -110 -33
-85 -41 -102 -89 -205 -17 -36 -31 -70 -31 -77 0 -6 21 -21 48 -33 26 -12 54
-26 62 -31 8 -5 22 -12 30 -15 16 -6 41 -17 129 -58 l53 -25 19 22 c10 12 18
32 19 43 0 12 7 27 15 34 8 7 15 21 15 30 0 10 8 33 17 52 9 18 22 45 30 60 7
14 13 33 13 41 0 8 7 20 15 27 8 7 15 22 15 34 0 12 7 31 15 42 8 10 15 25 15
31 0 7 14 42 30 76 17 35 30 69 30 75 0 6 6 23 14 39 13 27 35 75 62 138 21
49 73 166 105 235 17 36 36 79 43 95 7 17 21 48 30 70 10 22 25 56 33 75 8 19
21 48 29 63 8 16 14 33 14 38 0 5 14 39 31 76 49 109 55 124 89 208 32 78 38
92 79 185 55 125 71 163 71 173 0 6 7 18 16 28 9 10 13 22 10 27 -3 5 -40 24
-83 42 -113 47 -139 58 -175 75 -18 8 -47 18 -63 21 -29 5 -32 2 -63 -58z"/>
<path d="M1857 5683 c-4 -3 -7 -220 -7 -480 l0 -474 63 3 62 3 0 465 c1 256
-1 471 -3 478 -4 13 -103 18 -115 5z"/>
<path d="M3815 5642 c-91 -39 -177 -109 -191 -157 -4 -11 -14 -28 -23 -38 -14
-17 -16 -153 -13 -1600 2 -870 7 -1585 10 -1589 4 -3 150 -10 324 -14 253 -5
321 -4 333 6 14 12 16 172 14 1554 -1 953 -5 1556 -11 1581 -16 66 -47 122
-93 167 -42 41 -65 55 -148 92 -49 21 -150 20 -202 -2z m190 -338 c38 -25 65
-76 65 -122 0 -82 -99 -150 -186 -127 -110 28 -150 131 -81 208 45 52 83 69
135 63 23 -3 53 -13 67 -22z"/>
<path d="M6294 5073 c-7 -22 -20 -52 -78 -175 -25 -54 -46 -104 -46 -112 0 -7
-7 -19 -15 -26 -8 -7 -15 -19 -15 -28 0 -8 -13 -44 -30 -79 -16 -34 -30 -69
-30 -77 0 -7 -7 -19 -15 -26 -8 -7 -15 -28 -15 -46 l0 -34 65 0 c70 0 143 16
218 49 27 12 52 21 57 21 4 0 10 -18 14 -41 12 -78 69 -137 164 -169 l63 -21
62 21 c70 24 95 44 137 110 27 42 30 55 30 128 0 94 -20 144 -77 191 -52 43
-145 66 -203 51 -65 -17 -91 -17 -100 0 -4 8 -15 33 -25 55 -27 61 -45 96 -77
143 -15 24 -28 47 -28 52 0 9 -32 30 -45 30 -3 0 -8 -8 -11 -17z"/>
<path d="M1815 4468 c-38 -5 -78 -16 -89 -24 -11 -8 -28 -14 -37 -14 -26 0
-154 -95 -190 -142 -92 -118 -115 -198 -105 -366 9 -140 43 -230 118 -310 47
-51 120 -112 135 -112 5 0 14 -5 21 -12 16 -16 76 -36 159 -53 141 -27 312 23
421 124 123 114 172 228 172 396 0 93 -14 167 -41 215 -4 8 -18 35 -31 58 -57
110 -221 217 -369 241 -73 12 -67 12 -164 -1z"/>
<path d="M3283 4262 c-56 -73 -192 -258 -208 -284 -20 -33 -91 -134 -132 -190
-24 -31 -43 -61 -43 -67 0 -6 -4 -11 -8 -11 -7 0 -53 -64 -112 -155 -46 -71
-195 -291 -200 -295 -3 -3 -28 -36 -55 -75 -27 -38 -75 -105 -107 -147 -32
-42 -58 -79 -58 -82 0 -3 -34 -55 -75 -117 -41 -61 -75 -113 -75 -116 0 -3
-13 -22 -30 -43 -16 -21 -30 -40 -30 -43 0 -5 -105 -162 -193 -291 -27 -38
-46 -75 -43 -82 4 -11 49 -14 225 -14 l219 0 29 38 c16 20 46 64 68 97 22 33
42 62 45 65 9 9 70 101 70 106 0 4 94 134 137 189 5 6 23 29 41 51 17 23 32
45 32 50 0 4 7 14 15 23 21 21 135 180 135 187 0 3 14 23 30 44 17 21 30 41
30 46 0 4 7 14 15 23 29 30 255 341 255 351 0 6 4 10 9 10 5 0 14 12 20 28 7
15 20 43 31 62 16 31 18 60 19 230 1 107 4 256 7 331 4 80 3 138 -2 142 -6 3
-33 -25 -61 -61z"/>
<path d="M4510 4043 c0 -148 -5 -286 -10 -308 -9 -36 -7 -44 22 -85 77 -110
118 -172 118 -177 0 -2 20 -32 45 -64 25 -33 45 -61 45 -64 0 -7 86 -126 105
-146 8 -9 15 -19 15 -23 0 -4 21 -35 48 -70 26 -35 54 -74 62 -86 8 -13 41
-58 73 -102 31 -43 57 -80 57 -83 0 -3 26 -41 58 -84 31 -44 84 -118 117 -166
33 -47 68 -94 78 -103 9 -9 17 -20 17 -24 0 -7 75 -120 118 -175 l24 -33 225
0 c181 0 225 3 229 14 3 7 -23 53 -57 102 -71 101 -135 193 -190 274 -21 30
-65 93 -98 140 -96 136 -175 250 -186 268 -5 9 -22 33 -36 52 -14 19 -29 43
-32 53 -4 9 -11 17 -17 17 -5 0 -10 4 -10 10 0 13 -62 103 -77 113 -7 4 -13
13 -13 18 0 6 -26 45 -58 87 -32 42 -94 129 -137 192 -43 63 -82 118 -87 121
-6 4 -15 16 -21 27 -7 12 -35 54 -63 94 -28 40 -66 96 -85 123 -19 28 -40 54
-46 58 -7 4 -13 12 -13 17 0 10 -76 123 -136 202 -24 31 -44 61 -44 67 0 6 -9
11 -20 11 -19 0 -20 -7 -20 -267z"/>
<path d="M3285 2814 c-22 -13 -47 -27 -55 -31 -36 -17 -170 -111 -230 -161
-95 -80 -227 -219 -268 -282 -83 -127 -132 -210 -132 -224 0 -6 -5 -17 -11
-23 -6 -6 -17 -22 -23 -35 l-12 -23 -589 -5 -590 -5 0 -195 0 -195 2546 -3
c2049 -2 2549 0 2557 11 17 20 28 353 12 372 -11 13 -83 15 -580 15 -313 0
-575 3 -584 6 -8 3 -25 27 -38 52 -61 126 -216 332 -333 442 -135 127 -197
175 -300 231 -22 11 -44 27 -48 35 -4 8 -18 14 -30 14 -13 0 -28 5 -34 11 -24
24 -30 -5 -32 -153 -2 -146 -1 -154 21 -184 22 -29 113 -135 150 -174 28 -31
138 -177 138 -185 0 -4 14 -24 30 -45 17 -21 27 -41 22 -44 -5 -3 -271 -5
-593 -6 -1075 -2 -1289 -1 -1289 10 0 15 102 170 112 170 4 0 8 5 8 10 0 16
118 158 183 219 l57 55 0 173 c0 132 -3 173 -12 172 -7 -1 -31 -12 -53 -25z"/>
<path d="M1072 1400 c-12 -5 -25 -18 -29 -27 -4 -10 -17 -29 -29 -43 -13 -14
-55 -63 -95 -110 -40 -47 -89 -103 -110 -125 -21 -21 -35 -43 -33 -47 8 -12
6294 -10 6294 2 0 6 -17 27 -37 48 -21 20 -62 66 -92 102 -30 36 -62 72 -70
81 -9 8 -27 30 -41 49 -14 18 -35 44 -47 57 l-22 23 -2833 -1 c-1683 0 -2842
-4 -2856 -9z"/>
</g>
</svg>
