<?xml version="1.0" standalone="no"?>
<!DOCTYPE svg PUBLIC "-//W3C//DTD SVG 20010904//EN"
 "http://www.w3.org/TR/2001/REC-SVG-20010904/DTD/svg10.dtd">
<svg version="1.0" xmlns="http://www.w3.org/2000/svg"
 width="253.000000pt" height="282.000000pt" viewBox="0 0 253.000000 282.000000"
 preserveAspectRatio="xMidYMid meet">
<metadata>
Created by potrace 1.10, written by Peter Selinger 2001-2011
</metadata>
<g transform="translate(0.000000,282.000000) scale(0.100000,-0.100000)"
fill="#000000" stroke="none">
<path d="M1389 2721 c-51 -54 -73 -125 -65 -206 l6 -62 -91 -149 c-51 -82
-113 -184 -138 -227 -37 -62 -50 -77 -66 -73 -11 2 -46 10 -77 17 -49 11 -67
11 -115 -1 -32 -8 -87 -14 -123 -15 -57 0 -70 4 -112 33 -56 39 -72 40 -94 7
-14 -22 -15 -32 -4 -73 16 -63 52 -108 108 -135 41 -19 47 -27 53 -60 8 -48
36 -80 66 -74 25 5 40 -7 23 -18 -5 -3 -10 -15 -10 -26 0 -18 -9 -19 -216 -19
-246 0 -266 -5 -303 -71 -55 -96 9 -195 156 -242 128 -40 133 -41 159 -16 13
12 26 20 29 17 3 -3 28 -63 55 -133 27 -71 59 -138 70 -150 25 -27 25 -31 -4
-58 -22 -20 -182 -289 -242 -407 -28 -54 -29 -68 -8 -98 l15 -22 -66 0 c-63 0
-67 -2 -110 -41 -25 -23 -55 -57 -67 -77 l-21 -35 27 -24 27 -23 662 0 c421 0
675 4 699 10 42 12 56 40 36 68 -51 73 -110 122 -145 122 -30 0 -29 4 9 54 43
54 41 52 131 119 201 150 315 312 361 511 24 101 21 130 -14 159 -18 16 -26
28 -19 32 6 4 24 25 40 47 39 55 40 109 2 144 l-26 24 22 24 c21 23 22 30 16
103 -10 110 -47 247 -88 329 -52 103 -113 180 -217 274 -126 114 -179 168
-197 204 -10 18 -17 69 -20 135 -6 112 -17 141 -56 141 -11 0 -37 -18 -58 -39z
m77 -94 c1 -152 7 -164 128 -277 219 -204 280 -279 332 -408 36 -89 53 -166
60 -266 l7 -91 -65 0 -65 0 -6 91 c-7 102 -42 226 -90 319 -23 45 -69 98 -183
210 -84 83 -160 163 -170 178 -16 26 -18 27 -27 10 -6 -10 -74 -122 -153 -249
l-143 -230 -138 -68 c-76 -38 -162 -79 -192 -93 l-54 -24 5 66 6 65 -38 0
c-74 0 -140 72 -140 154 l0 40 32 -32 c63 -60 151 -78 238 -47 66 23 149 19
203 -10 l46 -24 79 127 c43 70 113 183 155 252 l76 126 -6 70 c-7 88 5 128 58
188 23 25 41 46 42 46 1 0 2 -55 3 -123z m151 -504 c122 -120 185 -258 202
-441 5 -62 14 -98 25 -111 9 -9 13 -21 9 -24 -3 -4 -147 -7 -318 -7 l-312 0
-25 -25 -25 -25 -23 25 c-21 22 -32 25 -97 25 -77 0 -91 10 -45 34 94 49 152
196 101 260 l-20 26 34 42 c18 24 43 59 54 78 11 19 44 73 73 120 29 47 71
114 93 150 22 36 45 68 50 72 10 6 70 -46 224 -199z m-527 -366 c-15 -104 -83
-167 -181 -167 -48 0 -59 4 -84 30 -16 17 -35 30 -42 30 -30 0 -9 20 50 45 34
15 105 50 157 79 52 29 98 50 101 47 4 -3 3 -32 -1 -64z m-328 -174 c10 -9 18
-30 18 -49 0 -51 -23 -59 -174 -55 -122 3 -128 2 -122 -16 37 -93 54 -143 49
-143 -20 0 -183 55 -214 72 -70 39 -93 130 -44 182 l24 26 222 0 c193 0 225
-2 241 -17z m103 -33 c2 -4 -10 -20 -27 -36 l-31 -29 6 25 c4 14 7 32 7 42 0
11 6 15 20 11 11 -3 22 -9 25 -13z m264 -147 c-4 -93 -8 -116 -32 -165 -55
-112 -157 -175 -292 -180 l-80 -3 -34 85 c-19 47 -48 124 -66 173 l-33 87 87
0 c97 0 139 17 169 70 l17 29 125 4 c69 1 129 4 134 5 4 1 7 -46 5 -105z m877
62 c-7 -45 -29 -79 -70 -109 -26 -20 -42 -21 -377 -24 l-349 -3 0 84 c0 46 2
86 4 88 2 2 183 4 401 4 l397 0 -6 -40z m-1423 -31 c8 -9 -11 -44 -24 -44 -16
0 -23 31 -8 41 17 10 24 11 32 3z m948 -137 c173 1 318 -1 322 -4 5 -3 0 -15
-10 -27 -11 -11 -29 -55 -40 -96 -49 -170 -107 -255 -257 -375 -50 -40 -102
-84 -115 -99 -14 -14 -29 -26 -36 -26 -6 0 -61 87 -124 194 -149 258 -168 276
-213 215 -18 -24 -19 -28 -4 -64 14 -32 86 -158 238 -414 21 -36 38 -75 38
-87 0 -13 5 -26 11 -30 29 -17 -31 -24 -223 -24 -115 0 -208 3 -208 8 0 4 7
16 15 26 12 16 15 63 15 249 l0 229 -29 26 -30 26 55 22 c108 44 184 131 220
251 l15 53 23 -27 22 -26 315 0z m455 -29 c-3 -13 -8 -47 -11 -77 -9 -78 -57
-201 -110 -280 -47 -72 -155 -177 -289 -283 -44 -35 -87 -78 -95 -95 -15 -31
-19 -33 -70 -33 -50 0 -53 1 -48 22 5 16 -28 79 -123 239 -171 289 -176 298
-157 316 12 13 27 -8 117 -164 57 -98 122 -210 144 -250 23 -40 43 -72 46 -72
3 0 19 19 35 42 17 23 60 64 95 92 106 81 213 194 253 267 21 37 49 110 64
162 19 68 32 96 43 96 8 0 33 9 55 19 52 25 56 25 51 -1z m-1083 -525 l-3
-238 -225 -3 c-124 -1 -225 1 -225 6 0 4 4 12 10 18 5 5 59 95 118 199 60 105
117 205 128 222 l19 33 90 0 90 0 -2 -237z m686 -384 l54 -59 -712 0 -712 0
37 40 c20 22 43 49 51 60 14 20 23 20 621 19 l607 -1 54 -59z"/>
<path d="M295 1470 c-3 -4 8 -9 23 -11 38 -5 149 5 137 12 -15 10 -154 9 -160
-1z"/>
<path d="M1039 1305 c-26 -7 -68 -23 -95 -36 -50 -25 -144 -111 -165 -151
l-12 -23 23 20 c40 35 108 105 102 105 -4 0 11 9 33 20 22 11 45 20 52 20 7 0
13 4 13 9 0 5 20 14 44 20 25 6 48 15 51 21 3 5 5 10 3 9 -2 0 -24 -7 -49 -14z"/>
<path d="M1380 1419 c-92 -6 -90 -12 3 -10 43 0 56 -3 51 -12 -6 -9 -5 -9 7 0
8 6 25 13 39 15 54 8 -15 13 -100 7z"/>
<path d="M1575 1419 c-55 -4 -61 -6 -27 -8 91 -6 174 -6 178 0 6 11 -73 15
-151 8z"/>
<path d="M1810 1416 c0 -10 28 -13 41 -5 10 6 7 9 -13 9 -16 0 -28 -2 -28 -4z"/>
<path d="M1883 1413 c9 -2 25 -2 35 0 9 3 1 5 -18 5 -19 0 -27 -2 -17 -5z"/>
<path d="M2067 1615 c-21 -20 -21 -26 -1 -73 14 -34 14 -41 -3 -90 l-18 -54
24 -19 c28 -23 32 -22 159 33 57 25 99 50 109 65 14 22 14 25 -3 45 -23 25
-172 97 -218 105 -23 3 -38 0 -49 -12z m104 -46 c166 -72 165 -72 149 -77 -8
-3 -64 -27 -124 -54 -60 -26 -111 -47 -113 -44 -6 6 37 89 51 99 8 5 8 9 -1
15 -11 7 -66 102 -60 102 2 0 46 -18 98 -41z"/>
</g>
</svg>
