 <svg xmlns="http://www.w3.org/2000/svg" version="1.1" viewBox="0 0 45 45">
                <g style="opacity:1; fill:none; fill-opacity:1; fill-rule:evenodd; stroke:#000000; stroke-width:1.5; stroke-linecap:round;stroke-linejoin:round;stroke-miterlimit:4; stroke-dasharray:none; stroke-opacity:1;" transform="translate(0,0.3)">
                    
                    <!-- 1. BASE BODY -->
                    <path
                        d="M 22,10 C 32.5,11 38.5,18 38,39 L 15,39 C 15,30 25,32.5 23,18"
                        style="fill:#ffffff; stroke:#000000;" />
                    
                    <!-- 2. HEAD (Modified Geometry) -->
                    <!-- I manually edited the ear segment (13.5, 7.5) to become a sharp horn (12, 6) -->
                    <path
                        d="M 24,18 C 24.38,20.91 18.45,25.37 16,27 C 13,29 13.18,31.34 11,31 C 9.958,30.06 12.41,27.96 11,28 C 10,28 11.19,29.23 10,30 C 9,30 5.997,31 6,26 C 6,24 12,14 12,14 C 12,14 14,12 14.5,10 C 14.5,10 13,8 12,6 C 12,6 15,8 16.5,10 L 18.5,10 C 18.5,10 19.28,8.008 21,7 C 22,7 22,10 22,10"
                        style="fill:#ffffff; stroke:#000000;" />
                    
                    <!-- 3. BEZIER DETAILS -->
                    
                    <!-- The Eye -->
                    <path d="M 15,13.5 C 14.2,14.5 14.2,16.5 15,17.5 C 15.8,16.5 15.8,14.5 15,13.5 Z" 
                          style="fill:#000000; stroke:none;" />
                    
                    <!-- The Brow -->
                    <path d="M 13,13.5 C 14,14 16,14.5 17,14" 
                          style="stroke:#000000; stroke-width:1; fill:none;" />

                    <!-- The Fang (Sharper & Larger) -->
                    <path d="M 10,29 C 10,32 11,33 12,31.5 C 12,30.5 11.5,29.5 10,29 Z" 
                          style="fill:#ffffff; stroke:#000000; stroke-width:1;" />
                    
                    <!-- The Nostril -->
                    <path d="M 8.5,26 Q 9,25.5 9.5,26" 
                          style="stroke:#000000; stroke-width:1; fill:none;" />
                </g>
            </svg>
