<?xml version="1.0" standalone="no"?>
<!DOCTYPE svg PUBLIC "-//W3C//DTD SVG 20010904//EN"
 "http://www.w3.org/TR/2001/REC-SVG-20010904/DTD/svg10.dtd">
<svg version="1.0" xmlns="http://www.w3.org/2000/svg"
 width="2080.000000pt" height="2048.000000pt" viewBox="0 0 2080.000000 2048.000000"
 preserveAspectRatio="xMidYMid meet">

<g transform="translate(0.000000,2048.000000) scale(0.100000,-0.100000)"
fill="#000000" stroke="none">
<path d="M9360 20417 c-290 -192 -616 -498 -870 -817 -125 -156 -337 -464
-410 -595 -30 -54 -149 -255 -156 -264 -2 -2 -478 -4 -646 -1 -24 0 -45 27
-184 233 -157 232 -191 279 -378 515 -96 120 -293 344 -359 407 -74 70 -197
175 -262 224 -38 29 -77 58 -86 64 -8 7 -26 18 -40 26 -173 103 -303 153 -462
177 -195 30 -361 -2 -530 -102 -94 -56 -224 -179 -256 -241 -49 -97 -52 -132
-76 -793 -10 -292 17 -595 75 -829 37 -151 107 -327 199 -500 l39 -74 -19 -67
c-59 -214 -198 -510 -343 -734 -30 -44 -66 -102 -82 -127 -69 -109 -284 -394
-370 -488 -27 -31 -63 -72 -78 -91 -16 -19 -54 -62 -85 -95 -148 -157 -185
-212 -473 -705 -47 -80 -140 -239 -207 -355 -68 -115 -180 -309 -249 -430 -69
-121 -149 -260 -178 -310 -29 -49 -79 -137 -112 -195 -32 -58 -86 -152 -119
-210 -167 -294 -404 -717 -497 -890 -32 -58 -65 -118 -75 -135 -9 -16 -44 -79
-76 -140 -32 -60 -66 -121 -75 -135 -10 -14 -82 -146 -160 -295 -78 -148 -157
-295 -175 -325 -91 -155 -865 -1686 -865 -1712 0 -3 -30 -68 -66 -144 -97
-204 -134 -283 -156 -338 -10 -28 -30 -73 -43 -100 -27 -60 -95 -230 -95 -240
0 -4 -13 -35 -29 -69 -16 -34 -45 -107 -65 -162 -20 -55 -45 -122 -56 -150
-62 -162 -112 -340 -157 -555 -26 -123 -26 -720 0 -965 55 -518 136 -841 302
-1196 167 -356 416 -643 728 -838 79 -49 250 -135 287 -144 19 -5 31 -21 49
-64 43 -100 260 -493 337 -608 283 -426 723 -854 1132 -1100 151 -91 488 -264
657 -338 277 -120 297 -129 301 -124 6 6 -36 99 -129 282 -44 88 -114 237
-155 330 -41 94 -99 226 -129 295 -96 218 -113 261 -179 455 -57 167 -169 573
-160 582 1 2 33 -39 70 -89 307 -425 768 -841 1192 -1076 195 -108 557 -257
765 -316 279 -78 658 -169 668 -160 5 5 -19 41 -141 210 -216 300 -427 614
-538 799 -186 312 -205 345 -255 454 -54 117 -54 119 16 166 98 65 366 364
504 561 62 89 389 513 463 601 231 274 482 521 741 729 72 58 317 233 501 357
106 72 320 220 384 267 27 19 106 75 175 124 69 49 167 119 216 156 311 232
410 306 487 367 48 37 147 114 220 171 73 57 176 139 228 182 52 44 128 105
167 135 40 31 123 100 185 153 62 53 147 124 187 157 41 33 107 89 147 125 39
36 159 144 265 240 279 252 562 528 840 819 l119 125 -5 -80 c-11 -159 -58
-586 -91 -809 -29 -206 -133 -684 -184 -850 -86 -281 -153 -478 -217 -635 -72
-178 -249 -552 -297 -628 -13 -20 -40 -67 -60 -105 -97 -176 -313 -496 -483
-715 -321 -413 -599 -709 -1364 -1451 -838 -813 -1152 -1169 -1514 -1716 -161
-243 -262 -425 -394 -707 -87 -185 -228 -569 -270 -733 -111 -439 -130 -531
-165 -795 -29 -223 -53 -519 -62 -765 -10 -252 16 -362 104 -458 l26 -27 7464
0 7463 0 27 32 c69 80 89 157 96 358 14 412 17 1582 6 2305 -7 429 -14 805
-15 835 -2 30 -10 226 -19 435 -23 533 -62 1200 -86 1460 -11 121 -29 328 -40
460 -12 132 -30 326 -40 430 -11 105 -24 246 -30 315 -6 69 -15 150 -20 180
-5 30 -14 105 -20 165 -6 61 -17 148 -25 195 -8 47 -44 292 -80 546 -35 253
-74 505 -85 560 -11 54 -39 203 -60 329 -59 338 -68 389 -97 510 -14 61 -38
173 -54 250 -63 301 -93 433 -134 585 -14 52 -35 137 -46 189 -12 51 -54 211
-94 355 -40 143 -76 275 -79 291 -13 56 -146 478 -233 735 -105 311 -250 697
-348 930 -20 47 -47 110 -60 140 -286 678 -700 1453 -1054 1970 -47 69 -108
158 -136 199 -76 112 -423 561 -487 631 -13 14 -40 46 -61 72 -47 59 -134 155
-296 327 -136 145 -175 183 -521 511 -15 14 -56 50 -91 80 -35 30 -98 84 -139
120 -224 197 -738 565 -1035 743 -44 27 -107 65 -140 85 -123 76 -725 392
-747 392 -4 0 -54 22 -112 50 -131 62 -375 164 -526 219 -63 24 -124 47 -135
51 -11 5 -47 19 -80 31 -33 12 -85 30 -115 41 -30 11 -68 23 -85 28 -16 4
-130 39 -251 78 -122 39 -300 91 -395 116 -96 25 -201 52 -234 61 -33 9 -78
21 -100 26 -22 4 -65 15 -95 23 -174 46 -864 171 -1170 211 -280 37 -263 32
-271 85 -4 25 -12 110 -19 190 -35 429 -156 916 -282 1140 -17 30 -40 71 -51
90 -44 79 -190 240 -264 291 l-42 29 -363 0 -364 0 -94 -63z m419 -939 c69
-214 121 -555 141 -927 20 -366 25 -402 59 -475 84 -175 239 -268 441 -265 47
1 96 -4 110 -10 14 -6 129 -24 255 -40 127 -17 300 -41 385 -55 85 -14 205
-32 265 -41 119 -17 302 -51 325 -60 8 -3 67 -16 130 -29 412 -88 907 -223
1210 -331 58 -20 137 -47 175 -60 39 -12 108 -39 155 -59 47 -21 111 -46 142
-57 76 -27 460 -195 573 -251 28 -13 127 -65 220 -115 342 -183 679 -390 915
-563 36 -27 86 -63 112 -82 113 -79 410 -321 498 -404 30 -28 71 -64 90 -80
80 -64 433 -422 615 -624 297 -328 683 -864 990 -1373 41 -69 75 -128 75 -130
0 -3 35 -67 78 -143 131 -231 328 -625 432 -864 23 -52 52 -117 66 -145 53
-113 251 -619 357 -915 60 -168 211 -646 272 -860 7 -25 26 -92 43 -150 51
-177 203 -767 231 -900 11 -52 35 -162 54 -245 58 -253 86 -398 178 -920 45
-255 45 -254 113 -710 14 -93 30 -192 35 -220 27 -146 81 -596 111 -925 6 -63
13 -121 15 -128 3 -7 9 -72 15 -145 6 -72 17 -184 25 -247 35 -277 94 -1157
125 -1840 14 -328 21 -464 25 -470 1 -3 5 -135 9 -295 10 -465 19 -807 22
-845 1 -19 3 -297 3 -617 l1 -581 49 -36 c57 -42 159 -94 201 -102 52 -11 37
-37 -32 -58 -57 -18 -198 -102 -215 -129 -5 -7 -10 -50 -13 -97 l-5 -85 -58
-3 c-58 -3 -59 -3 -78 -45 -10 -23 -19 -50 -19 -59 0 -10 -8 -18 -17 -18 -13
0 -23 17 -37 60 l-18 60 -5977 0 c-6443 0 -7096 1 -7107 12 -9 10 11 191 47
408 52 323 78 451 115 570 91 296 141 431 232 635 147 331 409 742 684 1072
215 259 262 309 788 828 1221 1207 1362 1358 1743 1860 111 147 328 465 420
617 125 207 346 632 391 751 14 37 32 80 40 95 28 51 156 376 156 397 0 6 6
22 14 36 14 28 83 234 111 334 9 33 25 89 36 125 43 146 115 460 153 670 10
52 26 138 36 190 41 201 80 548 112 985 7 91 12 416 13 755 l2 595 52 85 c86
141 197 374 266 562 36 98 65 184 65 191 0 8 7 34 15 58 33 92 65 320 71 499
11 297 -24 421 -155 551 -52 51 -81 72 -136 93 -218 86 -458 8 -574 -187 -61
-103 -64 -121 -66 -362 -2 -210 -4 -226 -33 -341 -85 -333 -304 -733 -649
-1184 -236 -309 -439 -537 -808 -906 -339 -339 -416 -413 -665 -633 -349 -309
-597 -521 -685 -586 -22 -16 -67 -52 -100 -80 -33 -28 -134 -109 -225 -179
-91 -70 -188 -147 -216 -171 -28 -24 -75 -60 -105 -82 -30 -21 -70 -50 -89
-65 -35 -27 -252 -188 -412 -304 -45 -33 -103 -74 -128 -90 -25 -15 -65 -45
-90 -65 -43 -35 -193 -139 -370 -258 -47 -31 -105 -71 -130 -89 -25 -18 -76
-54 -115 -79 -147 -98 -364 -266 -577 -449 -108 -92 -404 -385 -500 -494 -89
-101 -175 -202 -203 -239 -10 -14 -53 -69 -95 -121 -42 -52 -127 -160 -188
-240 -61 -80 -133 -174 -161 -210 -28 -36 -74 -100 -103 -143 -50 -75 -52 -77
-64 -55 -24 47 -130 586 -155 789 -12 102 -22 78 106 247 38 52 90 121 114
155 53 76 177 245 286 392 45 61 119 162 164 225 45 63 121 169 168 235 201
279 312 437 383 541 93 137 160 229 225 308 28 34 62 77 75 96 13 19 43 55 66
80 23 25 68 77 101 115 63 73 329 330 420 406 191 159 275 228 408 330 83 64
178 136 211 160 392 281 569 406 731 519 107 74 221 177 260 235 12 17 31 64
44 105 30 98 30 207 1 313 -12 42 -22 83 -22 90 0 8 66 81 146 163 80 82 189
201 242 264 53 63 99 117 102 120 21 20 141 174 206 265 229 317 376 568 532
910 91 201 190 510 235 735 35 178 62 359 54 367 -4 3 -8 4 -9 2 -2 -2 -59
-116 -128 -253 -153 -305 -214 -415 -344 -621 -370 -589 -770 -1046 -1320
-1508 -129 -109 -363 -299 -415 -337 -26 -19 -99 -74 -162 -121 -100 -75 -229
-166 -449 -317 -36 -25 -81 -57 -100 -72 -19 -15 -108 -80 -196 -143 -156
-111 -183 -131 -324 -242 -314 -246 -689 -599 -885 -834 -38 -46 -90 -107
-115 -135 -117 -134 -273 -345 -492 -666 -58 -85 -148 -216 -201 -290 -53 -74
-118 -165 -144 -203 -26 -37 -84 -116 -128 -176 -44 -60 -154 -211 -245 -336
-426 -586 -987 -1337 -1084 -1449 -102 -118 -267 -228 -406 -271 -121 -37
-435 -28 -610 16 -267 68 -467 242 -607 529 -114 232 -156 392 -215 820 -27
200 -32 272 -35 487 l-4 253 31 117 c17 65 45 163 62 218 35 116 200 549 234
615 12 25 46 101 75 170 28 69 101 229 161 355 60 127 119 253 131 280 32 75
511 1026 563 1116 24 43 66 122 93 176 26 54 64 127 83 163 148 274 190 351
253 470 100 189 202 375 240 440 18 30 61 109 95 175 35 66 75 138 89 160 15
22 30 48 34 58 4 10 54 100 111 200 57 100 113 199 125 220 12 20 31 54 42 75
12 20 43 75 69 122 98 177 225 399 281 492 32 54 74 126 92 160 19 35 48 86
64 113 17 28 54 93 83 145 30 52 107 184 172 292 65 108 118 199 118 202 0 8
191 331 264 446 61 95 120 169 286 355 142 159 421 524 460 600 3 6 41 64 84
130 120 182 168 265 269 470 90 182 204 480 231 606 8 35 22 98 31 139 22 98
26 338 6 395 -13 37 -80 156 -123 217 -82 118 -155 343 -177 550 -12 108 -13
333 -2 418 l7 55 125 -125 c174 -175 313 -339 462 -545 83 -115 274 -404 340
-515 121 -202 206 -288 331 -330 58 -19 85 -20 756 -20 611 0 703 2 751 16
163 49 241 129 342 351 35 77 77 164 94 194 211 380 407 648 677 928 94 98
261 241 281 241 8 0 22 -27 34 -62z m-5835 -12990 c3 -13 6 -36 6 -53 0 -34
72 -340 119 -513 40 -146 170 -535 228 -682 77 -196 353 -751 424 -852 11 -14
19 -31 19 -36 0 -38 -402 203 -575 344 -338 277 -629 605 -843 954 -29 46 -52
87 -52 91 0 3 33 34 73 69 85 74 209 207 283 305 29 39 79 104 111 146 32 41
87 114 123 162 36 47 68 86 71 87 4 0 9 -10 13 -22z m-1318 -1115 c69 -401
153 -708 281 -1027 24 -60 42 -113 41 -118 -4 -11 -99 58 -219 159 -190 159
-482 494 -640 733 -57 86 -139 231 -139 244 0 4 62 4 138 1 151 -8 372 7 443
29 75 24 87 21 95 -21z"/>
<path d="M8545 15945 c-356 -138 -721 -225 -1325 -315 -314 -47 -475 -88 -710
-181 -310 -123 -623 -350 -805 -582 -16 -22 -42 -53 -56 -70 -55 -69 -121
-180 -204 -345 -116 -232 -208 -458 -251 -622 -62 -236 -134 -401 -284 -650
-90 -150 -217 -339 -271 -404 -15 -17 -54 -71 -87 -121 -34 -49 -75 -108 -91
-130 -163 -223 -646 -943 -788 -1175 -155 -253 -306 -528 -378 -685 -42 -92
-109 -274 -103 -281 6 -5 112 115 243 276 123 151 186 232 487 631 328 435
373 494 437 574 31 39 109 140 173 225 118 158 141 186 308 377 187 214 315
327 494 437 253 157 402 202 760 231 460 38 871 162 1151 350 180 120 293 217
410 355 139 163 263 373 359 607 64 156 69 172 137 445 101 407 105 417 246
578 54 61 122 141 151 178 29 37 60 76 69 87 38 45 104 185 101 212 -3 25 -7
28 -43 30 -26 2 -71 -9 -130 -32z m-859 -830 c-9 -83 -70 -311 -110 -414 -49
-126 -139 -302 -200 -390 -28 -41 -100 -126 -161 -189 -128 -134 -251 -220
-450 -317 -209 -102 -358 -141 -630 -166 -122 -11 -394 -6 -430 7 -60 24 97
449 254 689 123 188 306 382 442 469 l27 17 -8 -43 c-62 -332 -15 -710 110
-876 101 -133 218 -98 288 86 76 198 101 475 63 687 -21 114 -53 221 -86 285
-8 16 -15 33 -15 39 0 44 606 166 844 170 l69 1 -7 -55z"/>
<path d="M2370 9562 c-75 -4 -182 -33 -243 -65 -75 -39 -212 -161 -288 -255
-52 -65 -169 -249 -169 -267 0 -3 -21 -53 -46 -111 -76 -176 -96 -269 -101
-485 -4 -143 -2 -210 12 -295 17 -111 49 -251 59 -262 15 -15 39 46 139 353
92 284 153 411 253 526 63 72 124 113 198 135 99 28 194 1 254 -71 39 -48 53
-100 61 -220 6 -94 7 -100 29 -103 28 -4 91 32 160 93 123 109 210 297 220
471 6 114 -7 172 -64 290 -35 75 -55 102 -110 152 -43 40 -85 69 -121 82 -58
22 -170 37 -243 32z"/>
</g>
</svg>
