                <svg xmlns="http://www.w3.org/2000/svg" viewBox="0 0 45 45">
                    <g style="fill:#ffffff; stroke:#000000; stroke-width:1.5; stroke-linecap:round; stroke-linejoin:round;">
                        <path d="M 14,36.5 C 15,39 12,40.5 12,40.5 L 33,40.5 C 33,40.5 30,39 31,36.5" />
                        <path d="M 14,36.5 C 15,26 18,13 22,10 C 26,8 32,8 36,11 C 39,13 41,16 40,19 C 39,21 32,17 32,19 C 36,23 39,26 36,31 C 35,34 33,36 31,36.5" />
                        <path d="M 22,24 C 24,26 27,26 28,23" />
                        <path d="M 22,10 C 20,11 19,13 19,15" style="fill:none" />
                        <circle cx="29.5" cy="13.5" r="1.2" fill="#000" stroke="none" />
                    </g>
                </svg>