<?xml version="1.0" standalone="no"?>
<!DOCTYPE svg PUBLIC "-//W3C//DTD SVG 20010904//EN"
 "http://www.w3.org/TR/2001/REC-SVG-20010904/DTD/svg10.dtd">
<svg version="1.0" xmlns="http://www.w3.org/2000/svg"
 width="474.000000pt" height="558.000000pt" viewBox="0 0 474.000000 558.000000"
 preserveAspectRatio="xMidYMid meet">
<metadata>
Created by potrace 1.10, written by Peter Selinger 2001-2011
</metadata>
<g transform="translate(0.000000,558.000000) scale(0.100000,-0.100000)"
fill="#000000" stroke="none">
<path d="M2410 4641 c-58 -4 -127 -13 -155 -20 -27 -7 -77 -20 -110 -28 -71
-18 -138 -40 -180 -58 -76 -34 -103 -45 -108 -45 -12 0 -175 -95 -230 -135
-93 -67 -117 -88 -117 -102 0 -24 33 -13 129 45 154 93 216 120 416 187 142
47 204 65 230 65 13 0 36 5 52 11 15 6 105 16 198 22 165 12 170 13 173 35 3
19 -1 22 -30 22 -18 0 -62 2 -98 4 -36 2 -112 1 -170 -3z"/>
<path d="M2735 4510 c-136 -12 -263 -30 -290 -40 -15 -6 -37 -10 -50 -10 -12
0 -47 -7 -76 -16 -30 -8 -79 -22 -109 -30 -50 -14 -147 -49 -255 -91 -50 -20
-225 -101 -245 -113 -8 -6 -24 -15 -35 -20 -11 -6 -33 -19 -50 -30 -16 -11
-37 -23 -45 -27 -8 -3 -75 -46 -148 -94 -72 -49 -146 -95 -162 -104 -42 -22
-37 -41 18 -68 63 -32 129 -68 177 -98 22 -14 58 -32 80 -41 l40 -16 3 -66 c3
-58 1 -66 -15 -66 -18 0 -208 93 -268 131 -16 10 -37 22 -45 26 -8 3 -41 26
-72 50 -60 45 -88 53 -108 28 -7 -8 -17 -15 -22 -15 -22 0 -158 -99 -219 -161
-85 -84 -147 -207 -174 -346 -17 -91 -17 -92 5 -180 47 -186 135 -323 265
-411 22 -15 42 -29 45 -32 16 -16 81 -42 94 -37 13 5 13 11 -1 53 -60 177 117
385 367 430 41 7 95 13 120 13 114 0 252 -54 385 -150 108 -78 195 -109 305
-109 79 0 166 18 235 47 136 59 295 229 335 358 24 75 29 85 50 85 26 0 26 17
0 25 -30 10 -98 -43 -174 -134 -162 -195 -288 -260 -478 -249 -84 5 -136 27
-268 113 -67 44 -186 94 -272 116 -74 18 -270 7 -346 -19 -121 -43 -240 -130
-293 -215 -39 -62 -88 -117 -105 -117 -19 0 -71 71 -104 143 -63 134 -62 257
4 399 54 117 199 248 273 248 15 0 57 -17 93 -36 187 -103 234 -125 301 -136
l69 -12 63 61 62 62 59 -21 c53 -18 65 -19 115 -8 78 17 127 44 182 101 59 60
98 140 106 212 5 54 5 56 -37 101 -53 58 -102 75 -162 57 -103 -30 -200 -104
-288 -221 -29 -38 -29 -38 -127 27 -60 40 -65 58 -25 95 25 23 158 105 227
140 17 8 53 27 80 41 28 14 91 42 140 62 50 20 104 42 120 50 99 44 338 110
435 120 146 15 364 25 373 16 5 -5 -4 -29 -22 -58 -37 -61 -38 -68 -6 -89 14
-9 25 -22 25 -30 0 -32 79 -53 300 -79 138 -16 207 -31 217 -48 6 -11 -27 -79
-44 -90 -26 -16 -12 -50 41 -103 30 -30 61 -54 69 -54 23 0 156 -77 177 -102
25 -30 25 -37 -5 -48 -33 -13 -32 -38 3 -45 15 -3 41 -12 57 -20 17 -7 46 -17
65 -21 45 -9 176 -68 215 -98 39 -30 95 -59 102 -52 17 16 -56 140 -133 225
-104 115 -272 204 -499 263 -54 14 -70 23 -70 39 0 11 20 14 100 12 120 -2
230 -29 328 -78 75 -38 97 -43 97 -20 0 23 -57 82 -144 148 -90 69 -103 78
-161 105 -82 39 -113 52 -130 52 -9 0 -26 5 -37 11 -23 13 -90 24 -228 39 -93
10 -264 2 -302 -14 -12 -5 -18 -1 -23 14 -13 41 38 63 180 80 173 19 266 11
413 -35 20 -7 22 -4 22 24 0 17 -5 31 -11 31 -6 0 -39 13 -73 29 -33 16 -79
35 -101 44 -22 8 -58 22 -80 30 -139 52 -347 80 -500 67z m-645 -539 c0 -5
-13 -39 -30 -74 -16 -36 -30 -70 -30 -77 0 -6 -21 -32 -47 -58 -38 -38 -61
-51 -110 -65 -35 -9 -83 -17 -108 -17 -41 0 -45 2 -45 24 0 66 181 229 278
251 18 3 34 11 37 16 8 12 55 12 55 0z"/>
<path d="M3580 3579 c0 -23 97 -123 160 -165 42 -28 90 -84 90 -106 0 -7 -20
-21 -45 -31 -47 -20 -59 -37 -26 -37 11 0 23 -5 26 -11 4 -5 17 -14 28 -20 29
-12 124 -66 145 -82 36 -27 172 -168 172 -178 0 -14 30 -38 49 -39 26 0 -9
133 -68 254 -89 182 -245 321 -461 408 -14 6 -33 14 -42 19 -25 13 -28 12 -28
-12z"/>
<path d="M2898 3309 c-10 -17 -18 -41 -18 -54 0 -30 -45 -148 -77 -205 -79
-137 -198 -246 -348 -319 -116 -56 -137 -65 -210 -86 -33 -10 -71 -22 -85 -27
-14 -5 -59 -21 -100 -34 -41 -13 -84 -28 -95 -33 -11 -5 -42 -16 -70 -26 -58
-19 -73 -26 -220 -96 -60 -29 -128 -64 -150 -78 -165 -105 -371 -288 -478
-423 -34 -44 -64 -85 -66 -91 -2 -7 -17 -28 -32 -48 -16 -20 -29 -40 -29 -44
0 -4 -16 -31 -36 -61 -20 -29 -34 -59 -32 -64 2 -8 325 -11 1098 -9 1312 2
1499 4 1509 15 9 9 30 81 50 167 14 59 14 134 1 142 -15 9 -12 65 3 65 36 -1
66 -53 92 -163 18 -76 18 -76 -6 -146 -23 -72 -19 -99 12 -86 20 8 87 95 109
141 48 102 52 126 48 271 -4 150 -20 216 -68 288 -14 22 -29 48 -33 58 -4 10
-15 17 -24 15 -26 -5 -36 -60 -22 -126 23 -116 28 -148 28 -189 1 -49 -13 -55
-67 -28 -66 33 -137 -31 -171 -153 -30 -111 -41 -123 -111 -135 -69 -12 -2189
-12 -2201 0 -13 13 17 76 65 138 106 137 416 382 544 429 20 8 87 35 147 60
61 26 191 74 290 107 98 33 184 63 190 68 5 4 48 22 95 40 319 124 584 481
518 700 -17 55 -28 60 -50 20z"/>
<path d="M3710 3215 c-28 -34 2 -102 115 -263 49 -68 50 -72 34 -72 -19 0
-109 -42 -109 -51 0 -5 9 -9 20 -9 11 0 23 -7 26 -15 4 -8 11 -15 16 -15 11 0
61 -44 130 -115 46 -47 118 -174 118 -207 0 -8 7 -23 15 -34 13 -16 16 -17 25
-4 14 21 2 232 -17 295 -48 156 -168 333 -293 430 -14 11 -35 32 -46 47 -19
24 -23 26 -34 13z"/>
<path d="M3710 2785 c-10 -26 6 -86 40 -155 36 -72 72 -171 66 -186 -4 -11
-17 -13 -59 -8 -34 4 -62 2 -75 -5 -26 -14 -29 -31 -4 -31 20 0 120 -101 155
-157 35 -56 57 -129 57 -189 0 -100 44 -76 72 38 22 94 23 243 2 317 -25 88
-114 258 -161 309 -24 25 -43 48 -43 52 0 3 -9 13 -20 23 -20 16 -21 16 -30
-8z"/>
<path d="M3325 1469 c-22 -4 -528 -8 -1123 -8 -596 0 -1086 -2 -1089 -5 -3 -3
6 -19 21 -36 42 -50 36 -89 -22 -150 -26 -27 -52 -50 -58 -50 -5 0 -15 -5 -21
-11 -21 -21 -116 -49 -165 -49 -37 0 -50 -5 -62 -22 -17 -24 -21 -66 -8 -83 4
-7 497 -10 1442 -10 l1434 0 6 30 c11 54 -1 80 -40 83 -82 6 -165 36 -222 79
-99 75 -119 135 -63 187 23 22 35 57 18 55 -5 -1 -26 -5 -48 -10z m-145 -140
c28 -11 87 -94 92 -130 l3 -24 -1027 0 c-564 0 -1030 3 -1034 7 -12 13 16 83
48 116 16 18 41 35 56 38 15 3 30 6 34 7 35 8 1808 -6 1828 -14z"/>
<path d="M628 890 c-17 -8 -41 -28 -52 -43 -19 -26 -21 -41 -19 -184 0 -87 5
-159 11 -165 6 -6 21 -10 33 -10 13 1 764 3 1669 7 904 3 1645 7 1646 8 2 1 4
70 5 153 l2 151 -28 37 c-15 20 -38 42 -49 49 -16 9 -396 12 -1604 12 -1387 0
-1587 -2 -1614 -15z m3132 -128 c31 -24 40 -94 15 -122 -15 -16 -103 -17
-1523 -22 -1592 -6 -1549 -7 -1566 37 -13 34 -3 88 21 115 8 8 1100 15 2088
13 900 -3 941 -3 965 -21z"/>
</g>
</svg>
