<?xml version="1.0" standalone="no"?>
<!DOCTYPE svg PUBLIC "-//W3C//DTD SVG 20010904//EN"
 "http://www.w3.org/TR/2001/REC-SVG-20010904/DTD/svg10.dtd">
<svg version="1.0" xmlns="http://www.w3.org/2000/svg"
 width="300.000000pt" height="570.000000pt" viewBox="0 0 300.000000 570.000000"
 preserveAspectRatio="xMidYMid meet">
<metadata>
Created by potrace 1.10, written by Peter Selinger 2001-2011
</metadata>
<g transform="translate(0.000000,570.000000) scale(0.100000,-0.100000)"
fill="#000000" stroke="none">
<path d="M2992 5530 l-2 -175 -21 42 c-75 151 -298 183 -421 61 -45 -46 -71
-101 -76 -165 -7 -79 4 -116 53 -181 25 -33 45 -66 45 -74 0 -7 6 -23 14 -34
12 -17 12 -22 0 -39 -24 -33 -17 -71 21 -111 29 -31 35 -44 35 -81 0 -34 6
-49 25 -67 l25 -23 -25 -11 c-62 -29 -72 -136 -16 -182 l30 -26 1 -264 1 -265
-33 -7 c-53 -11 -68 -39 -68 -127 l0 -77 -107 -39 c-58 -22 -109 -41 -113 -43
-4 -1 -17 37 -29 85 -46 188 -104 299 -203 389 -68 61 -171 117 -259 139 -59
15 -68 21 -83 51 -11 25 -24 36 -47 41 -21 4 -28 10 -25 20 4 8 6 32 6 54 0
33 3 39 21 39 29 0 222 45 299 71 98 31 181 74 214 108 25 26 28 35 20 57 -14
39 -96 81 -223 113 l-110 28 -85 166 c-175 340 -244 451 -311 497 -87 60 -162
73 -247 44 -123 -41 -181 -144 -261 -461 -21 -87 -26 -94 -65 -123 -46 -33
-55 -66 -26 -94 23 -24 50 -20 117 20 99 58 123 79 183 169 31 47 58 84 60 82
2 -2 -17 -93 -43 -201 l-48 -198 -50 -23 c-158 -69 -260 -133 -291 -180 -24
-37 -6 -71 54 -97 75 -34 262 -36 436 -5 6 1 12 -16 14 -38 3 -37 0 -41 -28
-52 -20 -7 -35 -23 -43 -42 -9 -25 -19 -32 -47 -36 -232 -35 -429 -161 -518
-332 -54 -104 -56 -113 -176 -688 -58 -275 -115 -543 -127 -595 -39 -168 -42
-152 43 -234 41 -40 97 -87 125 -105 39 -25 49 -37 46 -54 -1 -12 -17 -128
-33 -257 -125 -968 -188 -1363 -247 -1541 -34 -105 -81 -179 -130 -204 -28
-15 -39 -27 -41 -48 -7 -61 -104 -57 1363 -57 1287 0 1343 1 1358 18 20 22 22
53 5 70 -7 7 -39 12 -75 12 l-63 0 0 1651 c0 1632 0 1650 20 1644 10 -3 33 1
49 10 49 25 61 60 61 180 0 150 -23 195 -99 195 l-31 0 0 264 0 264 35 35 c27
27 35 43 35 71 0 44 -23 91 -51 107 l-21 11 23 24 c16 17 24 38 25 69 1 36 8
51 32 73 38 36 48 72 30 109 -12 25 -11 34 5 78 10 28 27 59 37 70 9 11 25 34
33 50 15 27 16 -192 19 -2565 l3 -2595 3 2580 c1 1419 0 2595 -3 2613 l-6 32
-25 -27 -26 -28 7 25 c21 85 14 138 -24 200 -11 17 -3 12 23 -14 33 -32 40
-36 48 -23 5 9 7 92 5 184 l-3 168 -2 -175z m-1421 -106 c20 -22 129 -199 129
-208 0 -4 21 -44 47 -89 49 -86 113 -213 113 -224 0 -4 -10 3 -23 15 -13 12
-37 27 -55 33 -18 6 -30 15 -27 19 10 16 -82 22 -173 11 -110 -14 -171 -34
-74 -26 42 4 62 2 62 -5 0 -6 -8 -10 -17 -9 -28 4 -102 -20 -168 -54 -72 -37
-80 -44 -89 -80 -9 -36 9 -35 22 1 9 25 22 33 108 60 107 35 272 58 339 47 34
-5 44 -11 56 -39 l15 -33 -111 -1 c-118 -1 -343 -39 -394 -67 l-26 -14 38 -1
c23 0 36 -4 32 -10 -3 -5 -15 -10 -25 -10 -28 0 -139 -60 -151 -81 -12 -24
-12 -24 54 6 167 77 430 107 692 80 l40 -4 -45 15 c-64 21 -82 23 -203 31
-119 7 -126 21 -10 22 90 0 126 15 133 56 l6 30 16 -30 c25 -46 59 -73 103
-80 57 -9 162 -43 207 -66 62 -32 50 -55 -51 -105 -75 -37 -154 -62 -351 -108
-80 -20 -101 -40 -108 -104 -4 -46 -2 -53 24 -77 16 -14 45 -41 65 -60 30 -27
86 -53 121 -55 22 -1 125 -54 161 -82 62 -48 70 -57 123 -128 55 -72 72 -111
108 -249 17 -64 34 -103 51 -121 l25 -26 -24 -23 c-20 -18 -28 -21 -44 -12
-12 6 -30 11 -42 11 -21 0 -21 0 2 31 l23 30 -27 106 c-35 134 -79 225 -140
286 -56 56 -85 64 -36 9 45 -50 96 -124 113 -167 8 -18 28 -82 44 -140 26 -95
27 -107 12 -112 -34 -12 -82 -69 -101 -120 -25 -68 -42 -211 -30 -254 5 -18
10 -282 11 -588 1 -306 5 -565 10 -576 4 -11 8 -14 8 -7 1 7 15 12 34 12 42 0
82 38 72 69 -10 32 -34 51 -65 51 -19 0 -31 6 -34 18 -6 18 1 192 8 199 2 2
20 -12 40 -31 19 -20 39 -36 44 -36 10 0 89 100 98 125 4 8 -6 29 -22 49 -16
18 -37 43 -46 55 -24 29 -37 27 -80 -14 -28 -27 -37 -31 -42 -20 -7 20 -7 355
0 355 3 0 17 -9 31 -20 58 -46 134 -10 127 60 -5 55 -7 58 -20 53 -6 -2 -15 0
-19 6 -10 18 -60 12 -88 -9 -14 -11 -28 -20 -31 -20 -3 0 -6 52 -6 115 0 105
2 115 19 115 19 0 74 48 79 69 3 13 -55 51 -79 51 -10 0 -19 10 -21 25 -3 13
-2 22 3 19 4 -2 12 12 18 31 22 79 74 145 115 145 13 0 10 -10 -13 -52 -16
-29 -32 -73 -35 -98 -5 -38 -4 -42 6 -22 13 26 24 28 32 6 3 -9 2 -12 -5 -9
-5 4 -3 -9 5 -28 8 -20 11 -39 8 -43 -4 -4 -1 -4 6 0 8 5 9 13 3 23 -4 9 -5
27 0 42 52 170 54 176 82 189 37 18 41 12 28 -35 -11 -37 -16 -391 -6 -381 3
2 7 63 10 134 5 119 29 264 44 264 3 0 5 -51 3 -112 -3 -108 10 -238 29 -282
5 -13 6 5 3 49 -13 149 -7 327 11 385 5 15 53 45 60 38 2 -2 -1 -28 -7 -58 -7
-41 -6 -91 6 -195 9 -77 16 -169 17 -205 1 -55 2 -60 10 -35 5 17 7 89 4 160
-3 72 -5 173 -5 226 1 81 -2 98 -18 112 -27 25 -66 8 -89 -38 l-19 -36 -33 30
-34 30 29 12 c16 6 52 19 79 29 112 40 138 64 135 128 -3 56 -1 58 16 33 13
-18 14 -28 5 -48 -10 -21 -9 -29 4 -43 13 -14 14 -22 4 -43 -10 -22 -9 -31 5
-52 14 -21 24 -25 65 -25 77 0 86 -6 56 -42 l-25 -30 2 -1633 c3 -1594 3
-1633 22 -1654 11 -12 37 -24 58 -27 110 -18 -9 -24 -479 -24 -1591 0 -2097 1
-2101 5 -3 2 15 24 39 47 84 82 141 225 183 463 31 169 41 242 121 815 53 380
95 737 91 756 -4 13 -41 51 -84 86 -158 128 -161 133 -133 228 21 69 27 64 11
-8 -9 -35 -7 -49 6 -72 20 -33 194 -138 194 -116 0 3 -15 13 -32 22 -18 9 -57
35 -86 58 -44 34 -52 46 -49 66 2 14 37 178 76 365 40 187 100 466 132 620 68
320 87 370 180 469 70 76 199 151 199 116 0 -5 -19 -19 -42 -31 -59 -30 -170
-143 -201 -205 -29 -57 -47 -124 -106 -399 -22 -104 -77 -356 -121 -560 -44
-203 -80 -378 -80 -387 0 -10 7 -16 19 -15 16 1 18 5 9 21 -9 16 -8 18 6 13
14 -5 15 -3 7 10 -6 11 -6 24 0 35 6 10 7 24 3 30 -5 8 -2 9 10 5 13 -5 15 -3
7 11 -13 24 -12 35 6 55 13 13 13 17 2 17 -10 0 -10 3 2 15 16 16 54 10 43 -6
-3 -5 -1 -9 5 -9 6 0 13 -11 17 -25 3 -14 10 -23 14 -20 4 3 13 -2 20 -10 7
-8 20 -15 29 -15 18 0 111 101 111 120 0 7 -28 44 -62 82 -56 63 -63 68 -70
49 -4 -12 -12 -21 -18 -21 -5 0 -9 -3 -9 -7 2 -14 -1 -28 -10 -42 -7 -10 -13
-11 -31 -1 -18 10 -20 14 -9 22 11 7 11 11 1 15 -6 2 -9 10 -5 16 4 7 9 21 10
32 2 11 7 21 12 23 5 2 6 12 3 24 -3 12 -1 19 4 16 5 -4 10 17 11 46 1 28 6
63 11 76 l9 25 7 -23 c4 -12 11 -22 15 -22 9 0 1 61 -10 76 -5 6 -2 20 8 34 9
13 11 20 5 16 -7 -4 -12 -1 -12 8 0 8 5 18 10 21 6 4 8 15 5 26 -4 11 -2 19 5
19 6 0 8 5 5 10 -3 6 0 10 7 11 9 0 9 2 1 5 -8 4 -9 14 -1 37 5 18 10 40 10
50 -1 9 3 17 7 17 4 0 8 7 8 15 0 8 -5 15 -10 15 -5 0 -4 7 3 15 7 8 9 15 5
15 -4 0 -2 6 4 13 6 8 8 17 4 20 -3 4 -2 7 3 7 6 0 11 15 12 33 2 17 4 41 7
52 2 11 4 28 4 38 1 10 5 16 10 13 5 -4 7 4 3 16 -4 18 -2 20 14 15 18 -7 18
-6 2 6 -10 8 -15 17 -11 21 4 4 8 12 9 19 9 49 15 71 34 113 23 53 66 114 80
114 5 0 21 -12 35 -26 24 -24 28 -25 48 -11 30 20 33 60 7 85 l-22 20 28 36
c16 19 29 34 31 33 1 -2 3 -192 5 -422 1 -231 5 -433 9 -450 4 -16 7 62 8 175
4 400 13 695 22 713 13 23 -26 59 -57 52 -29 -6 -85 -32 -111 -51 -13 -9 -23
-13 -23 -8 1 12 84 64 103 64 8 0 17 4 19 9 4 12 127 53 139 46 5 -4 9 -1 9 6
0 6 8 9 20 6 31 -8 79 20 138 81 49 49 53 57 50 95 -5 62 -35 79 -118 67 -88
-13 -251 -12 -305 1 -49 12 -78 38 -70 61 10 25 102 83 217 137 l106 50 22 58
c12 32 24 72 27 88 3 17 13 72 24 124 23 112 24 145 4 161 -23 19 -51 3 -91
-53 -56 -79 -104 -125 -160 -158 -83 -47 -109 -37 -50 20 24 23 39 51 51 94
32 121 68 232 78 242 6 6 6 -3 2 -25 -4 -19 -10 -37 -14 -40 -3 -3 -3 -30 0
-60 3 -30 6 -48 7 -40 1 8 18 66 39 128 40 123 84 187 143 212 45 18 113 7
156 -25 48 -37 125 -142 175 -240 47 -93 111 -195 122 -195 8 0 -102 215 -149
292 -16 25 -50 76 -76 113 -27 36 -48 68 -48 71 0 8 52 -31 71 -52z m1246 5
c48 -23 88 -74 104 -132 8 -30 6 -45 -9 -80 -11 -23 -31 -53 -46 -66 -14 -14
-26 -32 -26 -40 0 -32 -21 -90 -45 -125 l-24 -36 28 0 c33 0 42 -7 34 -26 -4
-11 -27 -14 -93 -14 -66 0 -89 3 -93 14 -7 18 1 26 25 26 22 0 22 2 -1 48 -10
20 -24 57 -31 82 -7 25 -25 60 -42 78 -59 67 -64 134 -18 204 55 83 150 109
237 67z m-112 -559 c4 -6 1 -18 -6 -26 -10 -13 -14 -12 -30 2 -10 9 -16 21
-13 25 7 12 41 11 49 -1z m125 2 c0 -5 -6 -17 -14 -27 -14 -19 -15 -19 -35 -1
-12 11 -17 22 -12 26 16 9 61 11 61 2z m-68 -49 c10 -9 18 -23 18 -32 -1 -25
-27 -53 -47 -49 -23 4 -32 76 -11 89 18 12 19 11 40 -8z m3 -139 c2 -28 0 -30
-29 -30 -28 1 -31 4 -31 32 0 28 3 31 29 30 24 -1 29 -6 31 -32z m2 -72 c11
-7 16 -26 14 -49 0 -7 -10 -17 -22 -23 -41 -23 -90 35 -57 68 13 13 47 16 65
4z m23 -100 c0 -2 -9 -15 -20 -30 -19 -26 -20 -41 -17 -288 2 -242 3 -264 21
-283 l19 -21 -51 0 c-56 0 -61 4 -37 30 13 14 15 59 16 281 0 242 -2 265 -19
289 l-19 25 54 0 c29 0 53 -1 53 -3z m-1906 -474 c-16 -18 -34 -38 -41 -45 -7
-8 -29 -40 -49 -73 -20 -33 -39 -60 -41 -60 -8 0 50 104 75 132 32 37 75 78
81 78 3 0 -8 -14 -25 -32z m164 -84 c2 -11 -4 -26 -12 -33 -31 -26 -71 14 -45
45 17 21 53 14 57 -12z m1606 -78 c-6 -17 -34 -30 -34 -16 0 5 8 14 18 19 22
13 22 13 16 -3z m184 -45 c-3 -13 -19 -17 -91 -19 -81 -3 -87 -1 -87 17 0 18
8 20 78 23 91 4 104 1 100 -21z m40 -42 c-2 -6 -8 -10 -13 -10 -5 0 -11 4 -13
10 -2 6 4 11 13 11 9 0 15 -5 13 -11z m-43 -44 c0 -18 -8 -20 -83 -23 -69 -2
-83 0 -89 14 -10 26 16 34 97 32 67 -3 75 -5 75 -23z m41 -41 c-3 -9 -6 -21
-6 -27 0 -8 -3 -8 -11 0 -13 13 -5 43 12 43 6 0 8 -7 5 -16z m-36 -55 c0 -18
-6 -20 -87 -17 -70 2 -88 6 -88 18 0 12 18 16 80 20 93 6 95 5 95 -21z m-2160
-96 c-11 -17 -11 -17 -6 0 3 10 7 26 7 35 1 15 2 15 6 0 2 -10 -1 -25 -7 -35z
m-16 -108 c-21 -113 -35 -165 -45 -165 -4 0 -4 12 0 28 5 15 17 65 26 112 20
100 24 114 30 109 2 -3 -3 -40 -11 -84z m1527 -151 c17 -21 0 -49 -32 -49 -27
0 -37 28 -19 50 16 19 34 19 51 -1z m-1620 -280 c-9 -28 -9 -29 -10 -3 -1 14
2 29 6 32 11 12 13 2 4 -29z m1697 -36 c35 -35 -14 -102 -57 -79 -45 25 -33
91 17 91 16 0 33 -5 40 -12z m-1729 -121 c-5 -26 -13 -56 -19 -65 -10 -15 -10
-15 -6 3 3 11 8 38 12 60 6 40 13 59 19 53 2 -2 -1 -25 -6 -51z m231 -38 c0
-38 2 -41 22 -36 12 4 28 1 35 -5 20 -16 -3 -39 -33 -32 -21 5 -23 2 -26 -38
-2 -30 -7 -43 -18 -43 -11 0 -16 13 -18 43 -3 42 -4 43 -35 40 -23 -2 -32 1
-35 15 -3 14 4 17 32 17 34 0 36 2 36 33 0 36 6 47 27 47 9 0 13 -14 13 -41z
m-250 -59 c0 -24 -25 -100 -33 -100 -5 0 -6 8 -1 18 4 9 9 34 12 55 2 20 8 37
13 37 5 0 9 -4 9 -10z m1730 -215 c0 -32 2 -35 30 -35 23 0 30 -4 30 -20 0
-16 -7 -20 -30 -20 -28 0 -30 -2 -30 -41 0 -33 -3 -40 -17 -37 -14 3 -17 12
-16 41 2 36 2 37 -33 37 -28 0 -35 4 -32 18 2 11 14 18 36 20 27 3 33 7 32 25
-3 38 0 47 15 47 10 0 15 -11 15 -35z m-30 -395 c0 -26 -36 -45 -56 -29 -18
15 -18 34 2 53 19 20 54 5 54 -24z"/>
<path d="M1320 5412 c-19 -9 -44 -32 -56 -49 -21 -31 -49 -133 -60 -218 -5
-39 -4 -38 21 20 34 75 41 84 57 62 11 -15 13 -8 12 42 -1 32 -4 63 -7 68 -9
14 61 56 95 57 19 1 35 -5 41 -15 6 -10 16 -15 23 -12 6 2 15 0 18 -6 7 -11
-13 -61 -25 -61 -4 0 -9 -6 -12 -14 -6 -14 36 -80 45 -71 3 3 11 -1 18 -10 7
-8 18 -15 25 -15 13 0 79 69 72 76 -9 10 -57 -23 -57 -39 0 -12 -6 -17 -17
-15 -12 3 -17 12 -15 27 1 17 -2 22 -13 17 -18 -6 -45 2 -45 15 0 5 11 14 24
20 14 7 27 22 30 35 11 41 42 29 37 -13 -1 -7 8 -13 21 -13 13 0 18 3 12 8 -6
4 -16 17 -23 30 -6 12 -21 22 -33 22 -15 0 -19 5 -15 19 3 12 0 18 -7 15 -6
-2 -29 5 -51 16 -48 25 -70 25 -115 2z"/>
<path d="M1356 5273 c-31 -45 -34 -68 -8 -54 17 9 19 5 21 -42 1 -28 4 -53 5
-55 2 -2 7 38 11 88 4 50 5 93 2 96 -3 3 -17 -12 -31 -33z"/>
<path d="M1581 5134 c-34 -43 -26 -86 20 -110 26 -13 32 -13 58 0 23 13 41 34
41 51 0 11 -50 -23 -54 -38 -5 -19 -36 -13 -36 8 0 7 -9 15 -20 18 -11 3 -20
10 -20 17 0 7 9 14 20 17 11 3 20 13 20 23 0 10 6 20 14 23 17 7 40 -18 31
-33 -3 -5 1 -10 9 -10 20 0 20 10 0 38 -21 30 -58 28 -83 -4z"/>
<path d="M1434 5121 c-24 -19 -33 -87 -12 -89 7 -1 25 -3 39 -6 20 -3 30 2 40
20 27 52 -25 110 -67 75z m55 -25 c23 -28 -17 -68 -45 -45 -17 14 -18 46 -1
52 22 9 34 7 46 -7z"/>
<path d="M1629 4719 c-7 -4 -5 -8 4 -12 8 -3 19 -1 25 5 8 8 16 7 29 -3 16
-13 17 -12 5 3 -13 16 -43 20 -63 7z"/>
<path d="M1530 4709 c-25 -4 -56 -11 -70 -14 -14 -3 -51 -11 -82 -16 -32 -6
-58 -15 -58 -21 0 -5 -4 -7 -9 -4 -12 8 -71 -14 -71 -25 0 -6 8 -6 19 0 10 6
28 9 39 6 12 -2 23 3 26 12 4 11 14 13 32 9 17 -5 23 -3 19 4 -4 6 3 9 17 6
13 -2 34 1 47 6 30 11 88 21 122 22 18 0 25 5 22 13 -3 7 -6 12 -7 12 0 -1
-21 -5 -46 -10z"/>
<path d="M1795 4699 c-151 -16 -545 -89 -545 -101 0 -8 -3 -8 290 36 124 19
266 40 315 47 172 23 126 37 -60 18z"/>
<path d="M1335 4250 c-8 -16 -15 -41 -15 -55 0 -31 26 -85 41 -85 6 0 9 -6 6
-14 -7 -17 18 -54 73 -112 28 -30 40 -50 36 -61 -6 -14 -10 -13 -34 8 -86 75
-92 83 -92 117 0 30 -2 33 -15 22 -17 -14 -20 -51 -4 -67 7 -7 7 -23 -1 -54
-7 -23 -9 -55 -6 -71 3 -15 2 -28 -3 -28 -5 0 -10 70 -12 155 -4 139 -6 156
-24 174 -11 11 -31 21 -45 22 -28 3 -76 -24 -91 -52 -6 -12 -9 -398 -9 -1054
0 -569 -2 -1035 -5 -1035 -3 0 -15 5 -28 12 -12 6 -28 14 -36 18 -15 7 -17 10
-49 75 -31 66 -76 53 -96 -28 -4 -17 -19 -35 -37 -45 -60 -33 -72 -47 -66 -73
4 -14 19 -32 34 -39 43 -22 63 -42 78 -76 7 -18 23 -37 34 -44 19 -9 24 -5 56
44 30 47 78 86 107 86 5 0 8 -121 7 -279 0 -154 2 -285 7 -292 4 -8 3 -10 -4
-5 -8 5 -10 -2 -7 -21 3 -15 7 -63 9 -106 2 -58 -1 -77 -10 -73 -13 5 -13 -11
0 -33 9 -14 17 -706 8 -754 l-5 -28 -81 7 c-44 3 -131 7 -193 7 -61 1 -115 5
-119 9 -4 5 -12 -2 -19 -15 -6 -12 -17 -21 -23 -20 -7 2 -12 -2 -12 -8 0 -5
-5 -7 -12 -3 -8 5 -9 2 -5 -10 6 -14 3 -15 -13 -6 -16 9 -20 8 -20 -5 0 -8 5
-15 10 -15 6 0 10 -4 10 -10 0 -5 -7 -10 -16 -10 -8 0 -13 4 -9 9 3 5 0 13 -6
16 -5 4 -8 13 -5 20 2 7 -9 23 -26 35 -17 13 -28 16 -24 9 4 -8 -1 -4 -10 8
-9 13 -24 23 -33 23 -9 0 -12 3 -6 8 6 4 12 23 13 42 2 19 12 42 23 52 21 18
25 34 8 40 -7 2 -5 9 5 17 14 12 16 12 10 -3 -5 -13 7 -22 19 -14 1 1 12 -4
23 -10 31 -17 74 18 74 59 0 25 -6 33 -34 44 -19 8 -43 12 -52 8 -12 -4 -15
-3 -10 5 4 7 1 12 -6 13 -7 0 -4 4 7 9 11 5 14 9 6 9 -11 1 -11 4 -2 15 9 11
9 20 2 35 -8 13 -8 20 0 23 5 2 10 14 11 28 1 14 6 31 12 39 9 12 8 13 -4 7
-9 -4 -8 -2 2 7 10 8 15 17 11 20 -3 4 -2 7 4 7 6 0 16 -6 22 -14 7 -8 26 -18
42 -21 41 -9 65 -39 79 -96 7 -26 23 -60 36 -75 24 -25 26 -26 45 -8 11 9 27
43 35 73 20 71 43 96 78 87 24 -6 25 -9 15 -29 -23 -44 29 13 56 61 l25 45
-55 58 -56 58 2 291 c0 160 -2 294 -5 297 -3 4 -6 -25 -6 -63 0 -38 -2 -170
-5 -293 l-5 -224 26 -44 26 -45 -23 7 c-33 10 -59 35 -59 56 0 25 -35 102 -53
117 -26 22 -62 -13 -82 -78 -21 -68 -29 -78 -76 -97 -21 -8 -40 -21 -43 -29
-3 -8 -10 -14 -15 -14 -10 0 -7 116 4 150 6 18 17 113 19 153 1 15 6 27 11 27
6 0 3 5 -5 10 -12 7 -12 10 -1 10 8 0 11 6 7 18 -4 9 15 -4 41 -30 53 -53 86
-61 104 -26 6 12 22 33 35 47 13 14 24 34 24 44 0 23 -78 117 -98 117 -8 0
-31 -18 -52 -40 -37 -39 -51 -42 -49 -11 0 12 3 11 9 -4 8 -18 9 -18 9 -2 1
10 -5 20 -13 23 -12 4 -11 12 1 52 17 55 23 93 14 87 -4 -2 -7 5 -7 15 0 15 3
17 15 7 12 -10 13 -9 2 11 -10 18 -10 27 0 38 9 11 9 14 -2 14 -12 0 -12 2 0
9 9 6 10 11 2 15 -6 4 -11 13 -11 19 0 7 4 6 10 -3 9 -13 10 -13 10 1 0 8 -5
20 -10 25 -7 7 -6 11 4 11 8 0 13 -4 10 -8 -7 -13 83 -109 102 -109 14 0 104
108 104 124 0 6 -22 36 -49 66 -46 51 -50 54 -74 43 -14 -7 -33 -26 -42 -42
-11 -22 -20 -28 -32 -24 -12 5 -14 3 -9 -8 4 -8 0 -5 -9 6 -17 20 -17 19 -13
-7 3 -16 2 -28 -2 -28 -4 0 -10 -35 -14 -77 -7 -86 -14 -152 -21 -198 -2 -16
-13 -104 -25 -195 -53 -418 -124 -775 -172 -863 -10 -19 -8 -20 56 -14 36 3
66 3 66 -1 -1 -4 -20 -32 -43 -62 l-43 -55 -74 -3 -74 -3 21 23 c96 105 166
433 289 1358 15 113 29 207 31 210 2 2 8 -1 12 -9 6 -9 10 -6 14 10 4 13 4 25
2 28 -3 2 -5 -1 -5 -7 0 -7 -4 -12 -10 -12 -5 0 -11 17 -11 38 -2 33 -2 33 -6
7 -2 -16 -10 -57 -18 -90 -12 -52 -39 -208 -60 -355 -16 -109 -76 -469 -85
-510 -5 -25 -19 -94 -30 -155 -16 -91 -46 -228 -64 -295 -3 -8 -5 -23 -5 -33
-1 -11 -6 -15 -13 -11 -7 4 -8 3 -4 -4 6 -10 -4 -38 -51 -139 -8 -18 -13 -40
-9 -48 8 -22 53 -36 109 -34 50 3 67 14 123 83 21 26 21 26 42 6 l21 -20 28
40 28 41 228 1 227 0 0 1888 0 1888 47 16 c26 9 48 16 50 16 2 0 3 -883 3
-1962 l0 -1963 -247 3 c-291 4 -447 -4 -417 -22 13 -7 115 -11 324 -12 349 -2
370 2 369 58 0 18 3 224 6 458 3 234 5 505 5 603 0 102 4 176 9 172 5 -3 10
-177 10 -392 1 -310 8 -719 14 -825 1 -9 5 -14 9 -12 4 3 8 446 8 986 0 963 0
980 20 1005 25 32 25 50 0 115 -30 78 -27 150 8 194 15 18 29 34 32 34 3 0 4
-528 4 -1172 -1 -786 2 -1158 8 -1128 6 27 12 491 15 1165 4 1112 4 1121 -16
1139 -19 17 -21 17 -61 -21 -37 -35 -41 -43 -42 -93 -2 -37 5 -76 21 -118 l24
-63 -22 -39 c-12 -21 -21 -55 -21 -78 0 -23 -4 -43 -10 -47 -6 -4 -9 142 -10
395 l0 401 24 -28 24 -28 183 -2 c204 -3 223 2 231 57 3 21 -1 39 -14 55 -22
28 -22 30 -5 47 8 7 17 26 21 41 5 23 1 33 -21 56 l-28 27 -176 -1 c-166 -1
-178 -3 -208 -24 l-32 -23 3 125 c3 128 10 160 14 63 3 -74 11 -94 45 -112 28
-14 33 -14 54 0 14 9 29 31 33 49 8 28 10 30 17 12 24 -61 85 -84 120 -45 24
26 39 25 63 -5 33 -42 83 -28 101 27 14 45 25 631 13 686 -7 29 -7 52 1 71 11
30 2 85 -13 76 -6 -3 -10 -21 -11 -38 0 -26 -10 -41 -60 -82 -32 -27 -57 -55
-55 -61 2 -6 -1 -17 -7 -23 -8 -8 -8 -11 0 -11 7 0 10 -12 7 -32 -2 -18 -11
-147 -20 -287 -17 -276 -27 -325 -65 -319 -44 6 -62 116 -74 451 -6 151 -5
177 7 177 17 0 28 -146 28 -369 0 -69 4 -132 9 -140 6 -9 7 125 5 335 -5 309
-3 351 11 369 14 17 17 18 25 5 6 -9 10 -167 11 -370 1 -211 5 -333 9 -300 5
30 9 127 9 215 1 88 6 180 12 205 6 25 10 58 9 73 0 15 4 36 10 46 7 14 5 24
-10 41 -11 13 -17 26 -14 29 3 3 12 -2 19 -13 8 -10 21 -16 29 -13 19 7 106
118 104 132 -1 5 6 24 15 42 22 41 21 61 -3 101 -30 49 -55 43 -128 -35 -50
-54 -62 -73 -59 -94 3 -22 -1 -26 -20 -26 -17 0 -23 5 -23 23 0 15 -23 48 -66
94 -76 80 -104 89 -129 40z m55 -5 c0 -9 26 -40 58 -70 l57 -53 -24 -26 c-14
-14 -28 -26 -32 -26 -4 0 -28 21 -53 48 -46 48 -54 71 -36 116 10 28 30 35 30
11z m349 -32 c13 -31 11 -34 -34 -90 -26 -32 -50 -59 -54 -60 -3 -1 -17 12
-30 28 l-24 31 50 51 c28 29 53 61 57 71 8 23 18 14 35 -31z m-256 -183 c-6
-22 -18 -26 -28 -10 -8 13 3 30 20 30 8 0 11 -7 8 -20z m155 1 c3 -8 -1 -12
-9 -9 -7 2 -15 10 -17 17 -3 8 1 12 9 9 7 -2 15 -10 17 -17z m-135 -48 c-10
-30 -14 -34 -24 -27 -6 4 -3 14 7 25 21 24 25 24 17 2z m240 -355 c-3 -194
-10 -363 -14 -375 -9 -25 -41 -31 -56 -10 -6 7 -13 139 -16 314 l-5 302 41 46
c23 26 43 51 43 56 2 16 4 19 8 19 3 0 2 -159 -1 -352z m-330 270 l27 -37 -1
-198 c-1 -109 -4 -250 -8 -313 l-6 -115 -27 -3 c-22 -3 -28 2 -32 20 -3 13 -7
179 -9 370 -4 384 -8 362 56 276z m-91 -208 c3 -16 1 -30 -4 -30 -4 0 -8 14
-8 30 0 17 2 30 4 30 2 0 6 -13 8 -30z m-5 -92 c-2 -13 -4 -5 -4 17 -1 22 1
32 4 23 2 -10 2 -28 0 -40z m10 -148 c3 -32 1 -50 -5 -46 -5 3 -10 29 -11 57
-1 65 9 58 16 -11z m413 -337 l0 -38 -192 2 -191 2 -2 28 c-1 15 0 31 2 36 2
4 89 7 194 7 l189 0 0 -37z m-395 -53 c17 -19 17 -21 0 -40 -23 -26 -35 -17
-35 26 0 39 9 43 35 14z m399 -90 l0 -35 -194 0 -193 0 -3 29 c-2 16 -1 33 2
38 3 5 91 7 197 6 l191 -3 0 -35z m-749 -802 c3 -13 9 -41 13 -62 7 -37 11
-41 56 -52 26 -7 51 -15 54 -19 9 -9 -27 -35 -48 -35 -30 0 -58 -30 -69 -74
-15 -62 -27 -64 -41 -9 -15 60 -24 71 -66 79 -59 11 -72 54 -16 54 37 0 72 26
72 54 0 31 20 86 31 86 5 0 11 -10 14 -22z m325 -123 l-7 -50 -2 60 c0 34 3
55 8 50 4 -6 5 -32 1 -60z m10 -110 c0 -14 -4 -25 -10 -25 -11 0 -14 33 -3 43
11 11 13 8 13 -18z m-1 -167 c1 -40 -1 -69 -5 -65 -9 9 -12 137 -4 137 4 0 8
-33 9 -72z m-479 -4 c0 -31 2 -34 31 -34 24 0 30 -4 27 -17 -2 -11 -14 -19
-31 -21 -24 -3 -27 -8 -27 -38 0 -28 -4 -34 -21 -34 -19 0 -21 4 -16 35 5 33
4 35 -22 35 -33 0 -42 7 -34 26 3 8 18 14 34 14 26 0 29 3 23 25 -7 26 11 59
27 49 5 -3 9 -21 9 -40z m478 -150 c0 -17 -4 -22 -11 -15 -5 5 -7 17 -4 25 9
23 15 19 15 -10z m-518 -240 c0 -31 2 -34 31 -34 24 0 30 -4 27 -17 -2 -11
-14 -19 -31 -21 -24 -3 -27 -8 -27 -38 0 -28 -4 -35 -17 -32 -13 2 -18 13 -18
38 0 31 -3 34 -30 35 -20 0 -31 6 -33 18 -3 13 3 17 27 17 29 0 31 3 31 34 0
32 15 49 33 39 4 -2 7 -20 7 -39z m59 -301 c27 -108 32 -122 49 -127 9 -3 36
-10 60 -16 55 -14 50 -33 -13 -42 -26 -4 -52 -11 -57 -16 -4 -4 -18 -47 -30
-95 -12 -48 -24 -87 -28 -87 -4 0 -15 30 -24 68 -27 109 -34 121 -75 128 -85
14 -93 31 -24 49 57 14 68 27 87 98 10 34 19 68 21 75 9 25 23 11 34 -35z
m-198 -424 c12 -19 11 -25 -6 -39 -23 -19 -49 -8 -55 26 -6 29 -5 30 23 29 16
-1 33 -8 38 -16z"/>
<path d="M1700 3621 c0 -145 2 -262 4 -260 9 8 13 498 4 511 -4 7 -8 -106 -8
-251z"/>
<path d="M1380 3735 c0 -87 3 -155 7 -152 8 8 7 297 -2 305 -3 3 -5 -66 -5
-153z"/>
<path d="M946 2005 c10 -8 24 -14 29 -14 6 0 1 6 -9 14 -11 8 -24 15 -30 15
-5 0 -1 -7 10 -15z"/>
<path d="M794 901 c4 -6 16 -16 28 -22 15 -8 18 -8 14 0 -4 6 -16 16 -28 22
-15 8 -18 8 -14 0z"/>
<path d="M1815 4166 c-14 -21 -15 -227 -15 -1955 0 -1347 3 -1938 11 -1952 5
-11 21 -24 35 -29 26 -10 763 -13 802 -3 52 13 41 78 -27 155 -38 45 -45 61
-66 148 -10 41 -22 82 -27 90 -13 24 2 -56 28 -140 21 -68 24 -99 6 -75 -8 11
-113 15 -107 4 7 -10 -137 -8 -202 3 l-63 11 0 76 c-2 142 -2 226 -1 229 1 1
12 -5 26 -14 22 -14 30 -15 50 -4 14 7 25 17 25 21 0 5 14 24 30 42 35 41 36
48 10 79 -10 12 -31 38 -46 55 -28 36 -45 41 -64 18 -28 -34 -40 -17 -40 58 0
39 -4 113 -9 162 -5 50 -13 140 -16 200 -4 61 -9 112 -12 115 -5 5 3 -265 14
-509 3 -63 0 -102 -8 -117 -9 -19 -9 -26 0 -38 8 -10 14 -64 16 -158 2 -79 7
-162 10 -185 l7 -43 -34 -1 c-18 0 -62 -2 -98 -4 -36 -2 -70 1 -77 7 -18 15
-19 858 -1 858 8 0 6 5 -5 11 -12 7 -15 15 -9 27 4 9 7 37 6 62 -1 25 3 50 8
57 5 7 5 14 -1 17 -13 8 -10 89 4 98 6 5 6 8 -1 8 -8 0 -11 15 -8 43 1 23 3
589 4 1257 0 1343 3 1290 -61 1322 -47 24 -76 22 -94 -6z m90 -16 l25 -10 0
-1347 c1 -742 3 -1589 6 -1883 l4 -535 326 -1 325 -2 29 -45 c15 -24 33 -48
39 -51 6 -4 11 -10 11 -14 0 -4 -189 -7 -420 -7 l-420 0 0 1959 0 1958 25 -6
c13 -3 36 -11 50 -16z m355 -3276 c0 -29 3 -34 24 -34 25 0 51 -22 39 -33 -3
-4 -19 -7 -35 -7 -26 0 -28 -3 -28 -41 0 -33 -3 -40 -17 -37 -14 3 -17 12 -15
41 l3 37 -41 0 c-27 0 -40 4 -40 14 0 16 21 26 57 26 22 0 24 3 19 26 -7 27 9
58 25 48 5 -3 9 -21 9 -40z"/>
<path d="M1886 4106 c21 -15 30 -14 19 3 -3 6 -14 11 -23 11 -13 0 -13 -2 4
-14z"/>
<path d="M1869 3868 c-3 -858 0 -2190 5 -2195 3 -4 6 534 6 1195 0 661 -2
1202 -5 1202 -3 0 -5 -91 -6 -202z"/>
<path d="M2487 338 c-3 -8 9 -24 29 -37 46 -32 51 -22 10 18 -24 23 -35 29
-39 19z"/>
<path d="M2040 336 c0 -3 7 -12 16 -20 12 -13 39 -16 132 -16 79 0 112 3 102
10 -8 5 -61 10 -117 10 -57 0 -105 4 -108 10 -6 10 -25 14 -25 6z"/>
<path d="M1201 4058 c-1 -16 4 -28 9 -28 12 0 12 8 0 35 -8 18 -9 17 -9 -7z"/>
<path d="M2000 3943 c-1 -1491 2 -1846 16 -1862 2 -2 4 376 4 840 0 482 4 861
10 884 6 25 5 44 0 49 -6 6 -10 54 -10 107 0 55 -4 101 -10 104 -6 4 -10 -39
-10 -122z"/>
<path d="M1207 4013 c-10 -9 -9 -1703 1 -1703 4 0 7 385 7 855 0 470 0 855 -1
855 0 0 -4 -3 -7 -7z"/>
<path d="M932 3844 c-17 -20 -36 -56 -42 -80 -7 -24 -16 -44 -20 -44 -16 0
-19 -33 -5 -53 8 -12 15 -34 15 -49 0 -28 0 -28 20 -8 11 11 28 20 39 20 16 0
18 -9 19 -70 0 -76 -4 -80 -52 -55 -40 21 -41 20 -56 -27 -23 -80 -22 -83 31
-86 26 -2 50 2 54 8 14 22 25 -3 25 -57 0 -31 2 -54 5 -51 8 8 12 588 4 588
-4 0 -21 -16 -37 -36z m20 -64 c-4 -27 -25 -41 -35 -22 -8 13 12 52 26 52 9 0
12 -9 9 -30z m-7 -81 c14 -42 -45 -66 -61 -24 -10 25 4 45 30 45 16 0 27 -7
31 -21z m-17 -251 c2 -19 -2 -28 -18 -33 -37 -12 -64 27 -38 53 21 21 53 10
56 -20z"/>
<path d="M2053 3873 c-22 -8 -14 -23 11 -23 30 0 40 -13 31 -40 -4 -13 -15
-20 -32 -20 -21 0 -24 -2 -13 -15 17 -21 27 -19 55 9 26 26 25 46 -3 79 -15
17 -27 20 -49 10z"/>
<path d="M2070 3695 c-20 -21 -22 -30 -14 -51 5 -15 19 -33 30 -41 19 -12 25
-11 53 12 38 33 39 57 5 84 -34 27 -45 26 -74 -4z m54 -11 c20 -8 21 -38 1
-54 -30 -25 -70 15 -45 45 14 17 21 18 44 9z"/>
<path d="M2641 3461 c-16 -16 -19 -36 -20 -147 -2 -208 -47 -412 -108 -484
-14 -17 -44 -41 -67 -55 -23 -14 -52 -36 -65 -49 -26 -27 -26 -26 4 -341 8
-88 20 -214 25 -280 6 -66 17 -181 25 -255 8 -74 17 -169 20 -210 3 -41 8 -88
10 -105 2 -16 11 -97 20 -180 48 -462 94 -759 131 -856 20 -53 51 -89 69 -83
36 14 37 41 37 1156 1 1846 0 1866 -22 1888 -25 25 -35 25 -59 1z m41 -1519
c2 -831 0 -1512 -3 -1512 -12 0 -50 156 -79 329 -42 245 -101 790 -180 1666
-11 127 -22 240 -24 252 -3 18 7 28 48 52 62 34 121 97 145 154 43 100 74 309
71 477 -2 103 -2 102 10 98 7 -2 11 -520 12 -1516z"/>
<path d="M865 3256 c-14 -14 -25 -31 -25 -38 -1 -17 -29 -49 -62 -71 -40 -25
-37 -62 5 -87 17 -10 46 -38 63 -62 42 -59 72 -59 99 0 13 28 26 42 39 42 18
0 18 -2 -6 -27 -25 -27 -26 -34 -32 -178 -3 -82 -9 -170 -12 -194 -5 -32 -4
-42 4 -37 7 4 12 1 12 -8 0 -22 39 -41 54 -26 8 8 6 9 -9 4 -15 -5 -17 -4 -9
5 6 7 20 13 32 14 11 0 18 5 16 9 -3 4 -1 15 4 25 17 29 -43 73 -68 50 -10
-10 -11 21 -5 143 l7 154 39 41 c42 43 59 77 40 83 -6 2 -11 9 -11 16 0 12
-10 21 -65 60 -10 8 -24 29 -30 47 -6 18 -21 39 -33 47 -19 12 -23 11 -47 -12z
m48 -47 c11 -54 20 -66 57 -74 59 -13 58 -44 -2 -59 -29 -7 -48 -33 -58 -81
-8 -43 -19 -37 -38 20 -15 45 -21 51 -60 64 -57 18 -53 30 23 63 26 11 31 21
38 66 10 64 28 64 40 1z m101 -561 c8 -14 7 -21 -6 -34 -30 -30 -75 9 -48 42
16 18 39 15 54 -8z"/>
<path d="M1010 3206 c0 -4 9 -16 20 -28 11 -12 20 -17 20 -11 0 5 -9 18 -20
28 -11 10 -20 15 -20 11z"/>
<path d="M1086 3045 c-9 -63 -4 -475 7 -475 4 0 7 48 7 108 1 59 3 152 5 207
2 55 1 125 -3 155 l-8 55 -8 -50z"/>
<path d="M1372 2863 c-13 -3 -27 -16 -33 -29 -12 -32 -12 -131 0 -138 14 -9
21 20 21 85 l0 59 36 0 c29 0 35 -3 30 -16 -3 -9 -6 -30 -6 -47 0 -22 -10 -43
-31 -65 -35 -38 -32 -53 5 -28 38 25 59 72 53 120 -5 35 -29 69 -46 65 -3 -1
-16 -4 -29 -6z"/>
<path d="M1664 2855 c-10 -8 -29 -15 -42 -15 -33 0 -66 -25 -97 -72 -35 -52
-34 -36 -36 -763 -2 -750 11 -1735 22 -1757 11 -21 61 -24 77 -5 10 12 16 43
12 62 -7 30 -3 51 10 62 13 11 12 12 -5 13 -11 0 -16 4 -10 8 16 11 19 46 3
36 -9 -5 -8 -2 2 11 9 11 10 16 3 11 -7 -4 -13 -3 -13 3 0 5 6 12 13 14 10 4
10 6 0 6 -7 1 -13 6 -13 12 0 6 7 9 15 5 9 -3 19 3 26 16 6 11 7 18 1 14 -5
-3 -16 2 -23 12 -11 13 -14 51 -14 157 0 86 -3 143 -10 147 -6 5 -6 8 0 8 6 0
10 20 9 44 0 36 2 43 15 39 12 -3 12 -2 -1 7 -17 11 -26 36 -10 26 5 -3 9 1 9
9 0 8 -4 15 -8 15 -13 0 -3 34 12 38 11 3 11 1 -1 -7 -19 -13 0 -14 20 -1 11
7 11 10 2 10 -7 0 -10 4 -7 10 3 6 -1 7 -9 4 -9 -3 -16 -2 -16 4 0 6 6 13 13
15 8 4 8 6 -2 6 -11 1 -10 5 5 16 18 14 18 14 -3 8 -24 -6 -32 10 -11 23 7 5
5 11 -7 21 -11 7 -14 13 -8 13 7 0 14 -4 18 -10 3 -5 13 -6 22 -3 12 5 15 2
10 -9 -3 -9 -3 -19 0 -22 9 -9 10 -115 1 -110 -8 5 -12 -13 -8 -31 1 -5 3 -16
3 -22 0 -7 6 -13 14 -13 10 0 13 24 13 105 0 77 -3 105 -12 105 -10 0 -10 2 0
9 11 7 10 10 -3 15 -24 9 -32 7 -15 -4 13 -9 13 -10 0 -10 -8 0 -22 5 -30 10
-13 9 -13 10 0 10 13 0 13 1 0 10 -11 7 -11 10 -2 10 8 0 10 5 5 12 -11 18
-13 69 -2 62 5 -3 9 -1 9 5 0 5 -6 11 -12 14 -7 2 -10 8 -6 12 4 4 14 2 22 -4
10 -8 16 -9 21 -1 3 5 -2 10 -12 10 -13 0 -15 2 -5 9 10 6 10 10 -3 21 -13 11
-15 10 -9 -4 3 -9 1 -16 -5 -16 -14 0 -14 16 0 42 14 26 19 69 7 62 -5 -3 -7
-12 -5 -18 3 -7 1 -19 -4 -27 -6 -10 -9 -3 -9 23 0 20 6 39 13 41 9 4 8 6 -2
6 -11 1 -11 4 -1 16 9 10 9 15 1 15 -13 0 -10 22 4 33 7 4 7 9 0 15 -14 10
-17 32 -4 32 6 0 7 5 2 13 -11 17 -15 49 -5 43 4 -2 7 8 6 22 -1 15 -3 27 -4
27 -1 0 -3 10 -4 23 -2 17 1 21 13 17 12 -5 12 -2 -2 13 -9 10 -14 22 -11 25
4 4 13 -1 21 -11 13 -15 13 -15 3 5 -5 12 -15 25 -20 28 -6 4 -7 11 -4 17 10
15 11 88 2 82 -4 -3 -8 0 -8 5 0 6 5 11 11 11 8 0 7 6 -2 17 -8 9 -9 14 -4 11
6 -4 9 20 8 65 0 40 -4 199 -6 354 -3 156 -10 290 -15 299 -6 11 -10 -200 -9
-579 0 -347 3 -597 9 -597 5 0 5 -7 -1 -17 -10 -21 -10 13 -10 -654 -1 -502
-1 -510 -21 -507 -19 3 -19 18 -22 1239 l-3 1235 44 52 c23 29 46 52 49 52 4
0 6 -90 4 -200 -3 -196 -3 -200 17 -200 21 0 21 5 21 208 l0 207 40 0 40 0 0
-1285 c1 -1175 7 -1475 24 -1125 5 105 8 1131 6 2213 0 168 -1 183 -20 202
-24 24 -59 26 -86 5z"/>
<path d="M1201 2000 c-1 -161 2 -290 7 -290 12 0 14 567 3 575 -6 3 -10 -116
-10 -285z"/>
<path d="M2152 1883 c-23 -49 -34 -62 -74 -81 -26 -12 -53 -32 -59 -44 -10
-19 -8 -25 17 -45 16 -13 38 -23 49 -23 27 -1 51 -20 60 -50 25 -83 65 -92 98
-22 25 53 43 71 72 72 36 0 66 29 63 58 -2 20 -13 32 -44 47 -56 27 -72 42
-79 73 -8 35 -39 72 -59 72 -10 0 -27 -23 -44 -57z m68 -10 c6 -32 14 -64 19
-72 4 -8 34 -22 67 -30 81 -22 73 -39 -28 -56 -35 -5 -39 -9 -53 -57 -8 -28
-15 -58 -15 -65 0 -7 -4 -13 -9 -13 -5 0 -15 25 -21 55 -13 61 -36 85 -83 85
-16 0 -37 5 -48 11 -30 16 -8 35 50 43 27 3 53 12 58 19 6 6 16 40 23 75 7 34
16 62 21 62 4 0 13 -26 19 -57z"/>
<path d="M1202 1645 c1 -30 5 -55 9 -55 4 0 7 25 7 55 -1 30 -5 55 -9 55 -5 0
-7 -25 -7 -55z"/>
<path d="M1089 1618 c-4 -44 5 -201 10 -183 4 13 1 219 -4 223 -1 2 -4 -16 -6
-40z"/>
<path d="M1200 1565 c0 -8 5 -15 10 -15 6 0 10 7 10 15 0 8 -4 15 -10 15 -5 0
-10 -7 -10 -15z"/>
<path d="M1201 1493 c-1 -26 2 -43 6 -39 10 10 14 86 4 86 -4 0 -9 -21 -10
-47z"/>
<path d="M2284 1428 c-24 -28 -78 -98 -88 -116 -8 -13 100 -142 119 -142 16 0
115 113 115 132 0 9 -16 35 -35 58 -20 24 -33 45 -31 48 6 6 -38 42 -51 42 -5
0 -18 -10 -29 -22z m52 -44 c5 -27 16 -41 40 -56 19 -11 34 -24 34 -29 0 -5
-16 -17 -35 -26 -23 -11 -38 -27 -46 -50 -13 -41 -25 -42 -34 -2 -5 21 -18 38
-41 51 -40 23 -39 36 1 58 19 10 32 27 36 47 13 63 34 66 45 7z"/>
<path d="M1087 1407 c-3 -8 -2 -19 3 -26 5 -9 9 -4 12 13 5 27 -6 36 -15 13z"/>
<path d="M1198 1208 c-1 -223 0 -249 11 -261 4 -4 7 98 7 228 -1 129 -4 235
-8 235 -5 0 -9 -91 -10 -202z"/>
<path d="M1641 1373 c6 -7 8 -17 5 -22 -4 -5 -2 -12 3 -15 5 -3 11 7 13 23 3
23 1 29 -13 28 -13 -1 -15 -5 -8 -14z"/>
<path d="M1636 1255 c-3 -8 -1 -15 4 -15 13 0 13 -37 0 -45 -13 -8 6 -35 24
-35 6 0 4 6 -5 13 -14 10 -14 14 -3 25 10 9 11 19 5 30 -4 9 -6 23 -4 30 7 17
-14 15 -21 -3z"/>
<path d="M2441 1138 c-4 -28 70 -480 80 -492 4 -5 6 0 4 10 -2 10 -9 55 -15
99 -6 44 -14 91 -16 105 -3 14 -11 70 -19 125 -13 88 -32 173 -34 153z"/>
<path d="M2068 1098 c-21 -26 -22 -47 -5 -70 19 -24 61 -28 70 -5 3 8 -6 12
-27 12 -26 0 -31 4 -31 25 0 20 6 26 30 30 29 6 30 6 8 18 -27 15 -25 16 -45
-10z"/>
<path d="M1616 898 c2 -3 -2 -9 -8 -12 -7 -3 -3 -3 9 -1 12 3 24 1 28 -5 3 -5
1 -10 -6 -10 -6 0 -9 -8 -6 -20 4 -17 2 -20 -16 -15 -16 5 -18 4 -8 -3 9 -7
10 -12 2 -16 -6 -4 -11 -15 -10 -24 0 -13 3 -12 11 6 16 31 28 27 24 -8 -2
-18 1 -27 7 -23 6 3 7 1 3 -6 -5 -7 -17 -9 -29 -5 -22 6 -22 6 -2 -9 11 -8 24
-13 29 -10 5 4 6 1 2 -6 -4 -6 -17 -9 -29 -6 l-22 5 22 -11 c27 -14 36 -35 24
-56 -6 -11 -10 -12 -15 -4 -4 6 -2 11 5 11 8 0 8 4 -1 15 -7 8 -18 15 -24 15
-6 0 -4 -5 4 -11 12 -9 13 -12 1 -16 -11 -5 -11 -7 0 -14 12 -8 12 -10 1 -18
-11 -7 -10 -9 3 -14 10 -5 14 -3 9 5 -4 7 -3 8 5 4 6 -4 9 -11 7 -15 -3 -4 -1
-13 4 -21 6 -9 3 -19 -8 -28 -9 -7 -11 -11 -5 -7 8 4 11 1 7 -9 -3 -8 -13 -12
-22 -9 -14 4 -15 3 -2 -5 8 -6 18 -8 22 -6 8 5 12 -12 8 -31 -1 -5 -3 -16 -3
-22 0 -7 -5 -13 -11 -13 -6 0 -4 -5 4 -10 11 -7 11 -10 2 -10 -10 0 -10 -5 -1
-21 9 -17 8 -23 -2 -30 -11 -7 -11 -9 -1 -9 7 0 12 -12 12 -28 -1 -15 1 -44 4
-65 12 -102 16 -23 15 280 l-1 331 -23 -2 c-13 0 -21 -4 -19 -8z"/>
<path d="M2349 665 c-29 -42 -30 -55 -4 -81 28 -28 57 -31 75 -9 7 9 19 14 27
11 11 -4 11 -1 2 15 -6 11 -8 27 -5 35 3 8 -1 17 -9 20 -8 4 -15 10 -15 16 0
5 6 6 13 2 6 -4 9 -3 4 1 -16 18 -75 11 -88 -10z m69 -48 c-2 -17 -10 -22 -33
-22 -35 0 -47 31 -20 51 25 18 57 0 53 -29z"/>
<path d="M905 564 c-14 -14 -25 -29 -25 -33 0 -16 42 -61 51 -56 5 4 9 2 9 -4
0 -14 31 -2 48 18 9 10 11 11 6 2 -4 -9 -3 -12 3 -8 6 4 13 22 15 41 2 19 0
32 -4 30 -4 -3 -8 2 -8 11 0 9 -4 13 -10 10 -5 -3 -10 -2 -10 2 0 20 -51 11
-75 -13z m79 -19 c8 -21 -2 -42 -23 -48 -22 -5 -51 9 -51 26 0 34 62 52 74 22z"/>
<path d="M2091 564 c-29 -20 -19 -85 15 -98 9 -3 12 -1 9 4 -3 6 5 10 19 10
17 0 26 5 26 16 0 13 -3 14 -14 5 -16 -13 -56 1 -56 19 0 24 15 40 36 40 13 0
24 4 24 8 0 14 -37 11 -59 -4z"/>
<path d="M1042 328 c-8 -8 -57 -11 -166 -9 -104 2 -156 -1 -161 -8 -5 -8 42
-11 164 -9 94 2 171 7 170 12 0 5 5 13 13 17 7 5 8 9 3 9 -6 0 -16 -5 -23 -12z"/>
<path d="M470 311 c0 -6 9 -9 19 -8 11 0 17 5 15 9 -7 11 -34 10 -34 -1z"/>
<path d="M1688 243 c12 -2 30 -2 40 0 9 3 -1 5 -23 4 -22 0 -30 -2 -17 -4z"/>
<path d="M2674 5411 c-63 -28 -113 -112 -100 -166 3 -13 24 -44 45 -69 23 -26
41 -60 46 -82 12 -64 21 -74 69 -74 50 0 61 10 74 68 5 22 23 58 39 79 46 58
55 82 49 118 -10 50 -58 110 -105 129 -52 20 -66 20 -117 -3z m140 -99 l30
-32 -27 -26 c-29 -27 -67 -94 -67 -119 0 -28 -18 -15 -30 21 -7 20 -31 56 -54
80 l-42 44 29 27 c16 16 40 47 54 71 l25 43 26 -38 c13 -21 39 -53 56 -71z
m-60 -200 c22 12 30 5 21 -21 -13 -42 -75 -34 -75 11 0 15 4 17 18 9 11 -6 24
-6 36 1z"/>
<path d="M2745 5269 c-4 -6 -3 -15 3 -21 6 -6 11 -4 15 6 7 18 -9 31 -18 15z"/>
<path d="M2700 5262 c0 -5 9 -17 20 -27 11 -10 20 -15 20 -12 0 4 -9 16 -20
27 -11 11 -20 16 -20 12z"/>
<path d="M2715 4982 c-3 -3 -5 -9 -5 -14 0 -11 47 -10 54 1 6 9 -40 22 -49 13z"/>
</g>
</svg>
