<?xml version="1.0" standalone="no"?>
<!DOCTYPE svg PUBLIC "-//W3C//DTD SVG 20010904//EN"
 "http://www.w3.org/TR/2001/REC-SVG-20010904/DTD/svg10.dtd">
<svg version="1.0" xmlns="http://www.w3.org/2000/svg"
 width="276.000000pt" height="293.000000pt" viewBox="0 0 276.000000 293.000000"
 preserveAspectRatio="xMidYMid meet">
<metadata>
Created by potrace 1.10, written by Peter Selinger 2001-2011
</metadata>
<g transform="translate(0.000000,293.000000) scale(0.100000,-0.100000)"
fill="#000000" stroke="none">
<path d="M647 2719 c-18 -11 -80 -128 -137 -259 -18 -41 -40 -93 -50 -115 -16
-36 -45 -103 -157 -373 -36 -87 -38 -108 -11 -125 12 -8 36 -2 100 28 99 45
174 66 206 58 22 -5 22 -6 5 -25 -15 -17 -18 -40 -18 -175 0 -136 2 -156 18
-167 25 -19 22 -23 -32 -46 -26 -12 -64 -38 -83 -58 -64 -67 -75 -146 -30
-233 111 -220 433 -101 381 142 -14 64 -76 131 -138 150 -47 14 -49 19 -21 44
18 17 20 31 20 170 0 139 -2 155 -21 179 l-20 26 44 0 c103 0 214 -35 326
-102 63 -38 95 -46 106 -28 20 32 25 -6 25 -173 0 -101 -3 -187 -7 -190 -3 -4
-15 0 -24 9 -17 15 -21 15 -42 1 -39 -25 -477 -661 -477 -692 0 -6 5 -16 12
-23 17 -17 11 -19 -76 -25 -97 -6 -117 -22 -121 -94 -1 -26 4 -60 11 -75 19
-38 19 -38 -31 -38 -50 0 -91 -29 -139 -99 -32 -46 -28 -77 11 -92 14 -5 429
-9 1041 -9 905 0 1020 2 1040 16 37 25 27 57 -36 123 -53 56 -61 61 -101 61
-37 0 -42 2 -35 18 4 9 10 46 12 82 5 91 -10 104 -124 109 l-83 3 15 23 c13
19 13 28 3 47 -13 26 -102 155 -257 376 -179 255 -191 271 -217 288 -24 15
-27 15 -44 0 -9 -9 -21 -13 -24 -9 -9 8 -9 168 0 176 3 4 16 -1 27 -12 28 -24
195 -111 216 -111 9 0 21 5 28 12 26 26 23 -6 -8 -84 -30 -77 -31 -84 -17
-108 19 -31 114 -72 139 -59 17 9 80 133 91 179 3 14 13 34 21 45 14 20 15 20
39 -3 19 -18 34 -23 64 -21 28 2 49 -4 78 -24 51 -35 94 -35 134 -1 44 37 58
91 36 138 -18 39 -48 59 -102 71 -18 3 -33 10 -33 15 0 4 -13 22 -29 39 -24
26 -35 30 -57 25 -15 -4 -25 -3 -22 2 3 5 24 56 48 113 47 118 45 137 -11 167
-86 44 -117 36 -155 -38 -15 -29 -31 -56 -36 -59 -5 -4 -20 4 -32 16 -14 14
-50 28 -100 39 -91 21 -228 65 -329 107 -40 17 -94 39 -122 49 -151 59 -343
174 -432 259 -81 78 -121 136 -163 239 -30 72 -55 112 -69 112 -3 0 -14 -5
-24 -11z m33 -38 c0 -34 60 -163 105 -226 110 -154 299 -275 650 -415 137 -55
326 -115 398 -125 30 -5 46 -12 43 -19 -14 -32 -120 -287 -134 -323 -9 -24
-20 -43 -25 -43 -4 0 -54 25 -110 54 l-101 55 3 79 c4 119 -34 192 -124 233
-90 42 -187 10 -241 -79 l-31 -51 -34 26 c-47 35 -183 98 -249 114 -71 18
-240 17 -310 0 -64 -16 -130 -44 -183 -78 -22 -14 -41 -22 -43 -20 -3 2 16 49
41 103 26 55 65 142 87 194 149 353 240 550 251 543 4 -2 7 -12 7 -22z m1440
-745 c-4 -11 -65 -154 -135 -316 -70 -162 -131 -305 -136 -318 l-9 -22 -52 26
c-29 15 -54 27 -55 28 -2 2 15 45 36 97 21 52 66 162 100 244 34 83 80 191
102 241 l41 92 58 -25 c52 -23 58 -28 50 -47z m-1455 -196 c0 -159 0 -160 -22
-160 -23 0 -23 1 -23 160 0 159 0 160 23 160 22 0 22 -1 22 -160z m703 130
c58 -36 58 -36 61 -602 l2 -518 -116 0 -115 0 0 531 c0 356 4 537 11 550 14
27 68 59 99 59 14 0 40 -9 58 -20z m773 -219 c23 -49 25 -50 61 -44 101 15
123 -143 23 -163 -36 -7 -85 26 -85 57 0 23 2 23 -45 3 -20 -8 -47 -14 -60
-12 -23 3 -22 4 24 105 25 57 49 103 52 103 3 0 17 -22 30 -49z m-1425 -176
c17 -7 44 -30 60 -51 25 -33 29 -46 29 -105 0 -53 -5 -74 -21 -95 -65 -88
-175 -104 -254 -38 -43 37 -62 78 -62 139 -1 131 118 202 248 150z m393 -268
c-7 -12 -67 -98 -134 -192 -67 -93 -136 -191 -154 -217 l-32 -48 -79 0 -80 0
77 113 c42 61 151 220 242 351 l166 240 3 -112 c2 -73 -2 -120 -9 -135z m453
170 c23 -34 82 -120 133 -192 217 -308 288 -410 292 -422 4 -10 -14 -13 -73
-12 l-79 0 -34 52 c-19 29 -93 135 -165 236 l-131 185 -1 112 c0 62 3 111 8
108 4 -3 27 -33 50 -67z m-402 -298 l0 -130 -29 17 c-29 17 -30 17 -86 -17
-31 -18 -74 -51 -95 -73 -22 -22 -42 -37 -45 -34 -2 2 50 80 116 174 67 93
123 175 126 182 11 26 13 7 13 -119z m522 -170 c47 -69 48 -83 6 -42 -50 45
-100 81 -141 98 -61 25 -46 -5 27 -53 72 -47 143 -123 178 -189 l23 -43 198 0
198 0 -3 -65 -3 -65 -853 -3 -852 -2 0 68 0 67 198 0 198 0 22 46 c29 58 110
145 184 195 31 22 59 39 61 39 2 0 1 -28 -1 -62 -3 -51 -9 -69 -31 -93 -45
-50 -94 -116 -89 -121 3 -2 145 -3 317 -2 l311 3 -65 82 c-62 80 -65 85 -65
138 0 48 -3 55 -17 53 -16 -3 -18 9 -21 111 -1 63 0 121 3 129 5 14 75 -79
217 -289z m-511 -138 c14 -45 14 -50 0 -54 -22 -5 -91 4 -91 12 0 10 63 91 70
91 3 0 12 -22 21 -49z m365 -23 l14 -26 -51 -4 c-52 -3 -70 5 -50 25 6 6 11
23 11 37 0 15 3 30 7 33 9 9 51 -31 69 -65z m259 2 c10 -11 13 -20 7 -20 -6 0
-16 9 -22 20 -6 11 -9 20 -7 20 2 0 12 -9 22 -20z m518 -341 l48 -59 -1051 0
-1051 0 48 59 48 60 955 0 955 0 48 -60z"/>
<path d="M570 2255 c0 -27 90 -59 104 -37 3 5 -2 18 -10 30 -18 27 -94 32 -94
7z"/>
<path d="M682 2188 c21 -20 78 -50 78 -42 0 5 5 3 12 -4 7 -7 19 -12 27 -12 9
0 43 -13 76 -29 83 -41 139 -64 148 -63 4 1 7 -3 7 -8 0 -5 7 -10 15 -10 9 0
27 -7 40 -16 14 -9 25 -13 25 -10 0 4 10 0 22 -8 24 -17 59 -23 42 -7 -5 5
-40 23 -79 39 -38 17 -148 64 -243 106 -96 42 -176 76 -179 76 -2 0 2 -6 9
-12z"/>
<path d="M570 2154 c-66 -31 -153 -85 -146 -91 3 -3 18 4 35 16 21 15 31 18
34 9 3 -8 6 -6 6 5 1 10 7 17 14 15 6 -2 27 8 45 20 17 13 32 20 32 15 0 -4 4
-3 8 3 4 6 16 16 27 22 37 21 0 12 -55 -14z"/>
<path d="M1560 1775 c0 -9 9 -15 24 -15 14 0 31 -7 39 -15 8 -8 17 -11 21 -8
3 4 6 1 6 -5 0 -6 7 -9 17 -5 11 4 14 3 9 -5 -4 -8 -2 -10 7 -6 8 3 21 -3 29
-14 10 -16 15 -17 25 -7 9 10 0 18 -46 39 -125 56 -131 58 -131 41z"/>
<path d="M1900 1631 c0 -5 9 -11 20 -14 24 -6 27 8 4 17 -21 8 -24 8 -24 -3z"/>
<path d="M1276 1764 c-23 -23 -20 -51 9 -70 23 -15 27 -15 50 0 27 18 33 54
13 74 -17 17 -54 15 -72 -4z"/>
<path d="M1293 1405 c0 -22 2 -30 4 -17 2 12 2 30 0 40 -3 9 -5 -1 -4 -23z"/>
<path d="M1291 1340 c-2 -14 -3 -69 -2 -123 1 -73 -2 -96 -10 -91 -8 5 -9 3
-3 -7 12 -21 14 -169 2 -169 -6 0 -5 -7 3 -16 10 -13 10 -17 -2 -25 -8 -5 -9
-9 -2 -9 6 0 11 -15 11 -35 0 -19 -4 -32 -9 -29 -5 3 -3 -7 3 -22 11 -24 13
-8 16 120 3 168 -2 443 -7 406z"/>
<path d="M2143 1564 c-3 -8 -1 -20 6 -27 8 -8 11 -4 11 16 0 30 -7 35 -17 11z"/>
<path d="M2175 1511 c3 -5 19 -14 35 -20 17 -5 28 -6 25 -2 -3 5 -19 14 -35
20 -17 5 -28 6 -25 2z"/>
<path d="M719 1309 c-37 -52 -118 -73 -186 -49 l-28 10 25 -19 c35 -28 133
-22 162 9 11 12 26 19 33 16 9 -3 11 2 7 16 -3 14 -1 19 6 14 7 -4 10 1 9 14
-2 26 -2 26 -28 -11z"/>
<path d="M908 683 c12 -2 32 -2 45 0 12 2 2 4 -23 4 -25 0 -35 -2 -22 -4z"/>
<path d="M1673 683 c15 -2 37 -2 50 0 12 2 0 4 -28 4 -27 0 -38 -2 -22 -4z"/>
<path d="M492 595 c6 -7 959 -7 966 0 3 3 -214 5 -483 5 -269 0 -486 -2 -483
-5z"/>
<path d="M1512 595 c7 -7 499 -8 506 -1 3 3 -111 6 -253 6 -142 0 -256 -2
-253 -5z"/>
<path d="M2063 593 c15 -2 37 -2 50 0 12 2 0 4 -28 4 -27 0 -38 -2 -22 -4z"/>
<path d="M1339 2451 c-16 -16 -29 -39 -29 -51 0 -25 51 -80 73 -80 9 0 29 12
46 26 39 33 41 74 6 109 -32 33 -60 31 -96 -4z m85 -33 c15 -24 -3 -52 -37
-56 -33 -4 -53 28 -37 59 14 25 58 23 74 -3z"/>
</g>
</svg>
