<?xml version="1.0" standalone="no"?>
<!DOCTYPE svg PUBLIC "-//W3C//DTD SVG 20010904//EN"
 "http://www.w3.org/TR/2001/REC-SVG-20010904/DTD/svg10.dtd">
<svg version="1.0" xmlns="http://www.w3.org/2000/svg"
 width="300.000000pt" height="300.000000pt" viewBox="0 0 300.000000 300.000000"
 preserveAspectRatio="xMidYMid meet">
<metadata>
Created by potrace 1.10, written by Peter Selinger 2001-2011
</metadata>
<g transform="translate(0.000000,300.000000) scale(0.100000,-0.100000)"
fill="#000000" stroke="none">
<path d="M1853 2497 c-43 -51 -43 -51 -43 -133 0 -58 -4 -85 -14 -93 -24 -20
-39 23 -33 88 l6 56 -44 -50 -44 -50 40 -41 c38 -39 39 -41 21 -57 -18 -16
-21 -15 -59 31 -22 26 -43 56 -46 67 -4 11 -39 55 -79 98 l-73 77 -75 -87
c-41 -48 -76 -90 -78 -93 -1 -3 23 -3 53 -2 l55 4 0 -51 0 -51 45 0 45 0 0 50
c0 69 20 66 102 -17 l67 -68 -32 -38 -32 -37 -49 25 c-81 41 -182 30 -260 -30
-40 -30 -83 -106 -92 -162 -15 -95 45 -212 130 -253 25 -12 46 -24 46 -26 0
-3 -31 -2 -69 2 -89 8 -138 -7 -156 -49 -15 -37 -9 -62 21 -86 21 -17 44 -18
284 -15 289 3 300 5 300 66 0 69 -50 95 -162 84 -37 -3 -68 -4 -68 -2 0 3 23
17 50 32 115 62 159 204 100 320 l-20 39 34 34 34 34 57 -59 c76 -79 107 -148
113 -244 9 -151 -38 -273 -146 -379 -37 -36 -81 -74 -99 -84 l-32 -18 -7 61
-7 60 -153 0 -154 0 0 -37 c0 -69 -30 -226 -61 -318 -36 -106 -82 -193 -137
-255 l-39 -45 392 0 393 0 -43 46 c-52 55 -103 154 -138 264 -45 146 -46 138
20 175 73 42 179 148 221 221 86 151 94 367 19 504 -18 31 -29 41 -53 43 -21
2 -45 17 -75 48 -41 42 -42 45 -26 62 17 16 20 15 57 -24 l38 -41 49 50 48 49
-66 -6 c-50 -5 -69 -3 -78 8 -21 26 12 37 99 35 l82 -2 46 46 47 47 -85 0 -84
0 39 40 39 40 -28 29 -27 29 -41 -42 -40 -41 5 88 c3 48 2 87 -2 86 -3 0 -25
-23 -48 -52z m67 -135 c16 2 27 0 24 -4 -12 -18 7 -58 34 -72 30 -17 33 -15
-53 -21 -63 -4 -81 -13 -132 -68 -26 -29 -54 -57 -61 -61 -23 -14 2 23 53 79
45 50 56 74 60 127 1 15 2 43 4 61 l2 32 20 -39 c18 -33 24 -37 49 -34z m-397
33 c29 -28 36 -55 13 -55 -8 0 -22 -10 -30 -21 l-15 -21 -30 21 c-37 26 -38
34 -10 72 25 36 37 36 72 4z m53 -306 c45 -17 61 -19 76 -10 26 16 29 14 16
-14 -9 -20 -7 -35 11 -81 40 -105 24 -164 -66 -251 -70 -66 -75 -85 -28 -103
15 -6 45 -10 68 -10 60 0 85 -9 93 -33 13 -41 -13 -46 -253 -46 -124 0 -236 4
-249 9 -33 13 -32 48 2 60 14 6 49 10 77 10 53 0 97 20 97 43 0 7 -25 34 -55
60 -108 95 -125 218 -41 312 65 74 150 92 252 54z m22 -691 c7 -7 12 -22 12
-34 0 -12 11 -32 24 -45 23 -23 24 -25 9 -48 -28 -44 5 -181 83 -335 24 -49
42 -91 39 -94 -10 -11 -549 -13 -565 -3 -12 9 -12 12 2 28 57 65 138 293 154
433 12 114 8 110 127 110 67 0 107 -4 115 -12z"/>
<path d="M1022 720 c-40 -25 -68 -84 -56 -118 l9 -23 509 0 c401 1 511 3 518
13 10 16 0 66 -20 96 -34 51 -39 52 -499 52 -412 0 -429 -1 -461 -20z m908
-39 c28 -20 38 -50 20 -61 -13 -8 -897 -12 -922 -4 -25 7 -22 36 5 62 27 26
81 28 552 24 291 -2 322 -4 345 -21z"/>
</g>
</svg>
