<?xml version="1.0" encoding="UTF-8"?>
<svg width="177.17" height="177.17" clip-rule="evenodd" fill-rule="evenodd" image-rendering="optimizeQuality" shape-rendering="geometricPrecision" version="1.1" viewBox="0 0 50 50" xmlns="http://www.w3.org/2000/svg">
 <linearGradient id="a" x1="85.857" x2="113.39" y1="4.6338" y2="4.6338" gradientUnits="userSpaceOnUse">
  <stop stop-color="#fff" offset="1"/>
  <stop stop-color="#1f1a17" offset="1"/>
 </linearGradient>
 <g transform="translate(-63.192 19.375)">
  <path d="m98.669 26.454c-0.42532-1.5175-0.99836-4.603-0.66798-6.3146 0.6091 1.0078 1.1402 2.0464 1.5431 2.8267 0.4997-2.4002 1.0781-4.4643 1.4593-6.5381 0.73589 0.41631 2.2977 1.0059 2.9796 1.2295-0.23655-1.1167-0.19782-1.5041-0.40248-2.0816-0.19572-0.57244-0.4187-1.1849-0.49553-1.361-0.10296-0.55217-0.62366-2.5-1.2888-3.8977 1.106 0.37976 3.5295 1.6733 3.5295 1.4231 0-0.15612-0.4677-1.3967-0.89315-2.3691-0.41653-0.95198-1.1768-2.7324-1.3504-3.1624-0.43177-1.0696-0.28535-1.361 0.68378-1.361 0.85913 0 3.4826-0.35409 3.476-0.46917-2e-3 -0.05019-0.72889-0.6677-1.6134-1.3722-0.88451-0.70454-1.7482-1.4112-1.9193-1.5703-0.30146-0.28032-0.34439-0.27163-1.3836 0.28021-1.2839 0.68177-1.5762 0.72846-1.3096 0.20924 0.23234-0.45255 1.122-1.4011 1.3141-1.4011 0.0792 0 0.57163-0.30448 0.57163-0.30448 7.2595-1.0459 0.81537-0.70164 1.223-1.0525-0.17613-0.05869-1.0768-0.24464-2.0015-0.41323-4.5894-0.83677-8.3458-0.31067-10.867-0.18776 2.9989-1.1409 8.4792-1.3169 12.068-0.74568 2.2298 0.35493 2.4021 0.44524 2.8822 0.35969-0.17613-0.04799-1.9254-0.97904-2.4434-1.1218-1.7323-0.47765-2.3334-1.2398-3.0023-1.8929-0.80893-0.78977-0.87915-0.91608-0.87915-1.5813 0-0.60154 0.09097-0.81947 0.54145-1.2971 0.29779-0.31576 0.48762-0.60737 0.42184-0.64803-0.0658-0.04066-0.61568 0.03585-1.222 0.17003-2.74 0.60635-4.876 1.1557-5.5436 1.5186-0.34686 0.18858-0.60263 0.19406-0.60263 0.01291 0-0.17943 1.5183-0.85451 3.0423-1.3527 2.0396-0.66672 3.3064-0.95464 5.6843-1.2919l1.4411-0.20439-1.5212-0.11559c-2.6921-0.20457-4.2714-0.84588-5.085-2.0649-1.0589-1.5865-0.77806-2.6321-0.9733-3.2921-0.50679 0.58833-0.59598 0.59336-1.1609 1.2533-1.0877 1.2708-1.7838 1.9348-2.6444 2.5229-0.84877 0.57989-1.0247 0.49422-1.0247-0.49904 0-1.0612-0.94369-2.6714-1.2738-3.3038-0.43465 1.1265-0.41833 1.1032-0.73535 1.8414-0.11347 0.2642-0.33309 0.80461-0.48806 1.2009-0.4845 1.239-1.6111 3.1907-2.7068 4.7893-0.13262-2.4399-0.1121-4.792-1.2097-7.031-0.45731-0.90587-2.4041-2.8881-2.4041-2.8881 0.04892 4.1339 1.4763 9.0765-1.1977 12.938 0 0-3.7645 3.4887-6.0368 5.1418-1.8885 1.3739-2.0416 1.524-2.0416 2.0032 0 0.48738-0.04726 0.5301-0.79935 0.72286-0.60325 0.15461-0.92887 0.3608-1.3273 0.84044l-0.52794 0.63557-0.41928-0.3298c-0.2306-0.18139-0.4966-0.3298-0.59112-0.3298-0.27114 0-0.37684 0.69342-0.31461 2.0639 0.08226 1.8114 0.29386 2.0183 1.898 1.8552 0.6605-0.06717 1.7174-0.13239 2.3486-0.14496 1.1329-0.02255 1.158-0.03245 1.9426-0.76636 0.91129-0.8524 1.6941-1.1248 3.0295-1.0541l0.90368 0.04784-1.27 0.54752c-2.1799 0.9779-4.2987 2.0409-6.4729 3.0437 8.17e-4 0.26898 0.85546 0.91659 1.6667 1.2635 0.66845 0.28582 2.6555 0.45179 2.6555 0.2218 0-0.09564-0.07327-0.21915-0.16273-0.27447-0.28166-0.17408 0.0016-0.39869 0.50294-0.39869 0.69191 0 1.171-0.28304 0.94332-0.55734-0.10213-0.12306-0.116-0.25322-0.03246-0.30485 0.24178-0.14943 4.1959-0.5759 5.354-0.57746l1.0808-0.0015v1.0015c0 2.0932-1.723 5.3081-4.0115 7.485-0.58927 0.56054-1.9033 2.4349-2.3162 3.3039-0.78395 1.65-1.038 2.6629-1.038 4.139v1.0334z" fill="url(#a)" stroke="#000" stroke-linecap="square" stroke-width="1.6933"/>
  <path d="m82.224-1.8573c-1.2093 0.83992-3.1376 1.9032-3.498 3.2737 1.8817 0.26724 2.3296-0.28116 3.5876-0.76237 1.0052-0.38448 0.60426-1.88-0.08969-2.5114z"/>
  <path d="m80.663 26.245c0-2.5134 3.2621-7.1929 4.3478-7.9841 2.1386-1.5584 2.6877-8.6956 2.6877-8.6956s0.86972 6.6512-0.51383 8.656c-2.6833 3.8883-3.5225 5.6556-3.291 8.0284z"/>
  <path d="m89.907 5.9348c-2.0267 2.7046-3.6134 2.0124-7.2801 2.7619l0.33984 1.6582c3.5194-0.71936 5.751-0.01103 8.2937-3.4044 0.24147-1.5664-0.44609-1.4859-1.3535-1.0156z"/>
  <path d="m81.158-4.1356c1.6562-1.3608 3.7914-3.3706 4.8512-5.7258" fill="none" stroke="#000" stroke-width="1.6933"/>
 </g>
</svg>
