<?xml version="1.0" encoding="UTF-8" standalone="no"?>
<!-- Created with Inkscape (http://www.inkscape.org/) -->

<svg
   width="210mm"
   height="297mm"
   viewBox="0 0 210 297"
   version="1.1"
   id="svg1"
   xml:space="preserve"
   inkscape:version="1.4.2 (f4327f4, 2025-05-13)"
   sodipodi:docname="wKnight2.svg"
   xmlns:inkscape="http://www.inkscape.org/namespaces/inkscape"
   xmlns:sodipodi="http://sodipodi.sourceforge.net/DTD/sodipodi-0.dtd"
   xmlns="http://www.w3.org/2000/svg"
   xmlns:svg="http://www.w3.org/2000/svg"><sodipodi:namedview
     id="namedview1"
     pagecolor="#ffffff"
     bordercolor="#000000"
     borderopacity="0.25"
     inkscape:showpageshadow="2"
     inkscape:pageopacity="0.0"
     inkscape:pagecheckerboard="0"
     inkscape:deskcolor="#d1d1d1"
     inkscape:document-units="mm"
     inkscape:zoom="0.52203984"
     inkscape:cx="145.58276"
     inkscape:cy="555.51315"
     inkscape:window-width="1440"
     inkscape:window-height="830"
     inkscape:window-x="-6"
     inkscape:window-y="-6"
     inkscape:window-maximized="1"
     inkscape:current-layer="layer2"
     showguides="true"><sodipodi:guide
       position="165.2132,-18.016072"
       orientation="0,-1"
       id="guide4"
       inkscape:locked="false" /></sodipodi:namedview><defs
     id="defs1" /><g
     inkscape:groupmode="layer"
     id="layer2"
     inkscape:label="Inkling"
     style="display:inline"><g
       id="path15"
       style="opacity:1;fill:#ffffff;fill-opacity:1;stroke:#000000;stroke-width:1.003;stroke-dasharray:none;stroke-opacity:1"
       transform="matrix(0.84971747,0,0,0.84971747,16.057734,23.879868)"><path
         id="path22"
         style="baseline-shift:baseline;display:inline;overflow:visible;opacity:1;fill:#ffffff;fill-opacity:1;stroke:#000000;stroke-width:6.4197;stroke-linecap:round;stroke-linejoin:round;stroke-dasharray:none;stroke-opacity:1;enable-background:accumulate;stop-color:#000000;stop-opacity:1"
         d="M 75.537252,13.41338 C 76.289063,30.843247 61.301598,42.118209 48.953317,51.639183 41.682072,60.882726 29.616434,73.935219 18.965904,60.374714 16.450442,53.003455 32.786195,52.504039 19.680453,49.206597 5.2159997,46.041968 7.1094583,67.225284 14.017917,74.165589 21.838249,82.058059 36.671586,84.77293 46.477879,79.047329 59.618288,69.03467 62.550562,47.523138 80.53922,43.688265 95.606121,48.21403 101.06032,29.95664 90.805814,20.838463 87.653326,15.665478 81.154557,12.674677 75.537252,13.41338 Z m 26.735528,28.926795 c -10.464806,2.452468 -23.534373,1.613409 -30.798909,11.278682 -8.210018,9.200588 4.577847,23.794479 -7.664597,30.720321 -9.277125,3.856012 -17.59153,8.460617 -15.769732,19.734812 -6.479508,-7.172798 -3.551342,17.25206 6.507438,13.02254 10.126134,-4.482 20.742333,-1.90889 21.475603,10.9209 2.739581,9.39814 1.600455,25.48145 -12.068708,18.86867 -11.396839,-0.3147 -12.644649,7.84792 -15.059725,13.97296 2.78306,12.314 127.29456,-3.265 117.83691,-1.09114 7.79145,-8.86098 -1.99334,-22.95694 6.99224,-33.1502 3.5508,-6.0472 10.48343,-12.21359 11.47414,-1.89324 4.49139,9.36898 15.34238,20.09963 26.46144,14.6986 11.1246,-6.62771 4.76245,-22.4533 5.09871,-33.14844 -2.48407,-11.876683 0.71001,-24.298264 1.41567,-35.509952 -7.271,-10.6877 -21.96373,-11.458567 -33.59143,-13.605852 -14.07745,-0.741389 -30.09111,-5.977239 -42.56835,3.249391 -11.04271,8.206699 -19.00457,20.082292 -25.3525,32.087303 -1.64417,7.064729 0.42126,17.54588 -10.36099,12.28617 -6.48179,5.1962 14.18931,4.02665 7.26908,-5.234665 -2.59677,-11.823986 5.15762,-23.745675 10.6916,-32.22804 -3.09805,-8.189096 -6.19611,-16.378191 -9.29417,-24.567287 -3.99788,-0.393944 -9.77592,1.218462 -12.69372,-0.411533 z m 4.64972,13.77666 c -0.44165,2.898217 4.38825,10.266061 -0.84416,9.102308 0.6483,-2.396858 -4.60563,-10.017897 0.84416,-9.102308 z m -4.74503,2.340839 c 2.55118,5.288484 -0.34636,9.31875 -2.47152,1.755392 l 1.23575,-0.877677 1.23577,-0.877671 z m -5.851697,14.173329 c -1.064235,2.840517 0.878409,10.223592 -2.094659,10.180395 -0.745761,-1.82833 -2.543277,-11.503715 2.094659,-10.180395 z m 2.079862,0.584394 c 6.290935,-0.52992 -2.441845,19.910622 -0.771489,6.867685 0.257096,-2.289236 0.514091,-4.578483 0.771489,-6.867685 z m 4.876955,0.390312 c 5.57414,2.306345 -5.591473,21.103324 -1.53821,7.081911 0.51274,-2.360637 1.02547,-4.721274 1.53821,-7.081911 z m 4.94048,0.845333 c 5.36217,-0.185215 -6.19472,22.672945 -3.56778,10.306913 1.18926,-3.43559 2.37853,-6.871694 3.56778,-10.306913 z M 7.3874145,90.630859 c -5.4336337,1.18651 -26.9789935,-0.755655 -12.6002657,6.854977 8.8629197,3.543964 18.7253262,-0.33473 27.7930772,2.896104 5.686852,0.0841 18.052862,4.96197 19.408223,1.93712 C 32.787004,93.750636 12.732913,110.02648 7.5982297,96.809702 7.6338548,94.757 8.0502976,92.633791 7.3874145,90.630859 Z"
         sodipodi:nodetypes="ccccccccccccccccccccccccccccccccccccccccccccccccccccccccc" /></g><ellipse
       style="display:inline;opacity:1;fill:#000000;fill-opacity:1;fill-rule:nonzero;stroke:#000000;stroke-width:2.18726;stroke-dasharray:none;stroke-opacity:1;paint-order:stroke fill markers"
       id="path34"
       cx="169.66821"
       cy="100.5909"
       rx="3.7500606"
       ry="3.2308168" /></g><g
     inkscape:groupmode="layer"
     id="layer3"
     inkscape:label="Details"
     style="display:inline" /></svg>
