<?xml version="1.0" encoding="UTF-8" standalone="no"?>
<!-- Created with Inkscape (http://www.inkscape.org/) -->

<svg
   width="210mm"
   height="297mm"
   viewBox="0 0 210 297"
   version="1.1"
   id="svg1"
   xml:space="preserve"
   xmlns="http://www.w3.org/2000/svg"
   ><defs
     id="defs1" /><g
     id="layer2"
     style="display:inline"><g
       id="path15"
       style="opacity:1;fill:#ffffff;fill-opacity:1;stroke:#000000;stroke-width:1.003;stroke-dasharray:none;stroke-opacity:1"
       transform="matrix(0.90058405,0,0,1.1442684,6.71912,-54.841923)"><path
         id="path22"
         style="baseline-shift:baseline;display:inline;overflow:visible;opacity:1;fill:#ffffff;fill-opacity:1;stroke:#000000;stroke-width:7.87295;stroke-linecap:round;stroke-linejoin:round;stroke-dasharray:none;stroke-opacity:1;enable-background:accumulate;stop-color:#000000;stop-opacity:1"
         d="M 63.994585,90.652168 C 64.318549,113.6851 51.042017,134.27813 36.988544,151.49986 30.715126,157.0487 24.471986,169.20747 15.032735,166.32967 8.1974134,161.13913 15.187122,137.6182 1.061357,148.17001 c -6.745306,9.83373 -3.8389113,23.27082 0.7150384,33.42886 4.6218318,11.61543 19.2218016,8.83029 26.2991656,1.42821 13.681097,-11.09139 22.942841,-26.36087 33.325648,-40.2845 8.918396,-6.36562 24.918405,-8.41601 23.04351,-23.0508 0.119913,-11.79095 -6.256855,-25.910639 -18.512197,-29.046914 z m -7.5e-4,59.580032 c -4.05889,13.55841 4.646284,29.31832 -4.721106,41.53822 -12.217514,5.51813 -17.912283,19.61801 -17.968025,32.3612 4.481602,9.4363 -3.792667,37.66114 5.213902,32.00437 33.510565,3.16275 91.297494,5.31286 124.719094,1.94457 0.77829,-4.69484 -4.96971,-45.52327 -0.21186,-52.41026 1.55473,-13.02299 14.73915,-9.10222 18.3851,2.67129 5.33274,8.4651 17.56464,18.32059 26.97481,9.36245 6.58032,-9.00832 2.56465,-21.28657 2.91185,-31.69541 -2.38405,-24.26391 -7.71906,-49.76678 -23.269,-69.24643 -7.25936,-9.53404 -21.04385,-14.90065 -31.98117,-8.23681 -17.49881,10.38948 -23.14398,30.92302 -31.58168,48.66699 -9.15685,20.96944 -17.41905,42.30492 -21.44967,64.70536 -8.06284,6.04193 3.77055,-8.74786 1.07044,-13.5527 -0.007,-53.63388 24.5528,-31.96141 1.5133,-63.33335 -1.23977,-10.89803 -12.56052,-18.44406 -23.149049,-15.33286 -11.038549,2.44396 -22.467271,9.53934 -26.456936,20.55337 z m 37.048585,-0.16381 c 4.03112,3.29771 -1.424477,18.05728 -2.178436,6.81958 -0.535114,-2.17688 -1.584728,-6.98884 2.178436,-6.81958 z m -10.529241,24.99637 c 2.513618,3.81465 -3.035602,17.83445 -2.940875,6.60281 -0.194459,-2.2707 -0.629979,-6.84157 2.940875,-6.60281 z m 11.821531,2.75487 c 7.29082,3.22172 -4.886077,19.42591 -1.35039,6.93192 0.41912,-2.31671 0.94742,-4.61214 1.35039,-6.93192 z M -5.7919143,218.39992 c 14.1431387,4.57273 29.1800973,-3.21587 43.2370343,1.93392 -12.144181,-4.6324 -25.630651,-6.9526 -38.580239,-5.22226 -1.8248102,0.45983 -4.2072502,1.15092 -4.6567953,3.28834 z" /></g><ellipse
       style="display:inline;opacity:1;fill:#000000;fill-opacity:1;fill-rule:nonzero;stroke:#000000;stroke-width:2.6824;stroke-dasharray:none;stroke-opacity:1;paint-order:stroke fill markers"
       id="path34"
       cx="171.85289"
       cy="129.60333"
       rx="3.7261763"
       ry="4.8902669" /></g><g
     id="layer3"
     style="display:inline" /></svg>
